G04*
G04 #@! TF.GenerationSoftware,Altium Limited,Altium Designer,22.4.2 (48)*
G04*
G04 Layer_Color=32768*
%FSLAX44Y44*%
%MOMM*%
G71*
G04*
G04 #@! TF.SameCoordinates,7F116A4F-7056-4AC6-B487-C54DEE731D19*
G04*
G04*
G04 #@! TF.FilePolarity,Positive*
G04*
G01*
G75*
%ADD10C,0.1270*%
%ADD11C,0.2000*%
%ADD13C,0.2540*%
%ADD16C,0.1000*%
%ADD23C,0.0500*%
%ADD25R,4.8260X2.4130*%
%ADD26C,0.2997*%
%ADD27C,0.1778*%
%ADD307C,0.0508*%
%ADD333C,0.0100*%
%ADD337C,0.0500*%
%ADD338C,0.0635*%
%ADD339C,0.0050*%
G36*
X885250Y-150059D02*
X889786D01*
Y-150512D01*
X892507D01*
Y-150966D01*
X894775D01*
Y-151419D01*
X896589D01*
Y-151873D01*
X898403D01*
Y-152327D01*
X899764D01*
Y-152780D01*
X901124D01*
Y-153234D01*
X902485D01*
Y-153687D01*
X903392D01*
Y-154141D01*
X904753D01*
Y-154594D01*
X905660D01*
Y-155048D01*
X906567D01*
Y-155501D01*
X907474D01*
Y-155955D01*
X908381D01*
Y-156409D01*
X909288D01*
Y-156862D01*
X909742D01*
Y-157316D01*
X910649D01*
Y-157769D01*
X911556D01*
Y-158223D01*
X912010D01*
Y-158676D01*
X912917D01*
Y-159130D01*
X913371D01*
Y-159584D01*
X914278D01*
Y-160037D01*
X914731D01*
Y-160491D01*
X915185D01*
Y-160944D01*
X916092D01*
Y-161398D01*
X916545D01*
Y-161851D01*
X916999D01*
Y-162305D01*
X917452D01*
Y-162758D01*
X918360D01*
Y-163212D01*
X918813D01*
Y-163666D01*
X919267D01*
Y-164119D01*
X919720D01*
Y-164573D01*
X920174D01*
Y-165026D01*
X920627D01*
Y-165480D01*
X921081D01*
Y-165933D01*
X921535D01*
Y-166387D01*
X921988D01*
Y-166840D01*
X922442D01*
Y-167294D01*
X922895D01*
Y-167747D01*
X923349D01*
Y-168201D01*
Y-168655D01*
X923802D01*
Y-169108D01*
X924256D01*
Y-169562D01*
X924709D01*
Y-170015D01*
X925163D01*
Y-170469D01*
Y-170922D01*
X925617D01*
Y-171376D01*
X926070D01*
Y-171830D01*
X926524D01*
Y-172283D01*
Y-172737D01*
X926977D01*
Y-173190D01*
X927431D01*
Y-173644D01*
Y-174097D01*
X927884D01*
Y-174551D01*
X928338D01*
Y-175004D01*
Y-175458D01*
X928791D01*
Y-175912D01*
X929245D01*
Y-176365D01*
Y-176819D01*
X929698D01*
Y-177272D01*
Y-177726D01*
X930152D01*
Y-178179D01*
Y-178633D01*
X930606D01*
Y-179086D01*
Y-179540D01*
X931059D01*
Y-179993D01*
Y-180447D01*
X931513D01*
Y-180901D01*
Y-181354D01*
X931966D01*
Y-181808D01*
Y-182261D01*
X932420D01*
Y-182715D01*
Y-183168D01*
Y-183622D01*
X932873D01*
Y-184076D01*
Y-184529D01*
X933327D01*
Y-184983D01*
Y-185436D01*
Y-185890D01*
X933781D01*
Y-186343D01*
Y-186797D01*
Y-187250D01*
X934234D01*
Y-187704D01*
Y-188158D01*
Y-188611D01*
Y-189065D01*
X934688D01*
Y-189518D01*
Y-189972D01*
Y-190425D01*
Y-190879D01*
X935141D01*
Y-191332D01*
Y-191786D01*
Y-192240D01*
Y-192693D01*
X935595D01*
Y-193147D01*
Y-193600D01*
Y-194054D01*
Y-194507D01*
Y-194961D01*
Y-195414D01*
Y-195868D01*
X936048D01*
Y-196322D01*
Y-196775D01*
Y-197229D01*
Y-197682D01*
Y-198136D01*
Y-198589D01*
Y-199043D01*
Y-199496D01*
Y-199950D01*
Y-200404D01*
Y-200857D01*
X936502D01*
Y-201311D01*
Y-201764D01*
Y-202218D01*
Y-202671D01*
Y-203125D01*
Y-203578D01*
Y-204032D01*
Y-204486D01*
Y-204939D01*
Y-205393D01*
X936048D01*
Y-205846D01*
Y-206300D01*
Y-206753D01*
Y-207207D01*
Y-207661D01*
Y-208114D01*
Y-208568D01*
Y-209021D01*
Y-209475D01*
Y-209928D01*
Y-210382D01*
X935595D01*
Y-210835D01*
Y-211289D01*
Y-211742D01*
Y-212196D01*
Y-212650D01*
Y-213103D01*
X935141D01*
Y-213557D01*
Y-214010D01*
Y-214464D01*
Y-214917D01*
Y-215371D01*
X934688D01*
Y-215825D01*
Y-216278D01*
Y-216732D01*
Y-217185D01*
X934234D01*
Y-217639D01*
Y-218092D01*
Y-218546D01*
Y-218999D01*
X933781D01*
Y-219453D01*
Y-219907D01*
Y-220360D01*
X933327D01*
Y-220814D01*
Y-221267D01*
X932873D01*
Y-221721D01*
Y-222174D01*
Y-222628D01*
X932420D01*
Y-223081D01*
Y-223535D01*
X931966D01*
Y-223988D01*
Y-224442D01*
Y-224896D01*
X931513D01*
Y-225349D01*
Y-225803D01*
X931059D01*
Y-226256D01*
Y-226710D01*
X930606D01*
Y-227163D01*
Y-227617D01*
X930152D01*
Y-228071D01*
Y-228524D01*
X929698D01*
Y-228071D01*
Y-227617D01*
Y-227163D01*
Y-226710D01*
Y-226256D01*
Y-225803D01*
Y-225349D01*
Y-224896D01*
Y-224442D01*
Y-223988D01*
Y-223535D01*
Y-223081D01*
Y-222628D01*
Y-222174D01*
Y-221721D01*
Y-221267D01*
Y-220814D01*
Y-220360D01*
Y-219907D01*
Y-219453D01*
Y-218999D01*
Y-218546D01*
Y-218092D01*
Y-217639D01*
Y-217185D01*
Y-216732D01*
Y-216278D01*
Y-215825D01*
Y-215371D01*
Y-214917D01*
Y-214464D01*
Y-214010D01*
Y-213557D01*
Y-213103D01*
Y-212650D01*
Y-212196D01*
Y-211742D01*
Y-211289D01*
Y-210835D01*
Y-210382D01*
Y-209928D01*
Y-209475D01*
Y-209021D01*
Y-208568D01*
Y-208114D01*
Y-207661D01*
Y-207207D01*
Y-206753D01*
Y-206300D01*
Y-205846D01*
Y-205393D01*
Y-204939D01*
Y-204486D01*
Y-204032D01*
Y-203578D01*
Y-203125D01*
Y-202671D01*
Y-202218D01*
Y-201764D01*
Y-201311D01*
Y-200857D01*
Y-200404D01*
Y-199950D01*
Y-199496D01*
Y-199043D01*
Y-198589D01*
Y-198136D01*
Y-197682D01*
Y-197229D01*
Y-196775D01*
Y-196322D01*
Y-195868D01*
Y-195414D01*
Y-194961D01*
Y-194507D01*
Y-194054D01*
X916999D01*
Y-194507D01*
Y-194961D01*
Y-195414D01*
Y-195868D01*
Y-196322D01*
Y-196775D01*
Y-197229D01*
Y-197682D01*
Y-198136D01*
Y-198589D01*
Y-199043D01*
Y-199496D01*
Y-199950D01*
Y-200404D01*
Y-200857D01*
Y-201311D01*
Y-201764D01*
Y-202218D01*
Y-202671D01*
Y-203125D01*
Y-203578D01*
Y-204032D01*
Y-204486D01*
Y-204939D01*
Y-205393D01*
Y-205846D01*
Y-206300D01*
Y-206753D01*
Y-207207D01*
Y-207661D01*
Y-208114D01*
Y-208568D01*
Y-209021D01*
Y-209475D01*
Y-209928D01*
Y-210382D01*
Y-210835D01*
Y-211289D01*
Y-211742D01*
Y-212196D01*
Y-212650D01*
Y-213103D01*
Y-213557D01*
Y-214010D01*
Y-214464D01*
Y-214917D01*
Y-215371D01*
Y-215825D01*
Y-216278D01*
Y-216732D01*
Y-217185D01*
Y-217639D01*
Y-218092D01*
Y-218546D01*
Y-218999D01*
Y-219453D01*
Y-219907D01*
Y-220360D01*
Y-220814D01*
Y-221267D01*
Y-221721D01*
X916545D01*
Y-222174D01*
Y-222628D01*
Y-223081D01*
Y-223535D01*
X916092D01*
Y-223988D01*
Y-224442D01*
X915638D01*
Y-224896D01*
Y-225349D01*
X915185D01*
Y-225803D01*
X914731D01*
Y-226256D01*
X914278D01*
Y-226710D01*
X913824D01*
Y-227163D01*
X913371D01*
Y-227617D01*
X912463D01*
Y-228071D01*
X911103D01*
Y-228524D01*
X904753D01*
Y-228071D01*
X903392D01*
Y-227617D01*
X902485D01*
Y-227163D01*
X902032D01*
Y-226710D01*
X901578D01*
Y-226256D01*
X901124D01*
Y-225803D01*
Y-225349D01*
X900671D01*
Y-224896D01*
Y-224442D01*
X900217D01*
Y-223988D01*
Y-223535D01*
Y-223081D01*
Y-222628D01*
X899764D01*
Y-222174D01*
Y-221721D01*
Y-221267D01*
Y-220814D01*
Y-220360D01*
Y-219907D01*
Y-219453D01*
Y-218999D01*
Y-218546D01*
Y-218092D01*
Y-217639D01*
Y-217185D01*
Y-216732D01*
Y-216278D01*
Y-215825D01*
Y-215371D01*
Y-214917D01*
Y-214464D01*
Y-214010D01*
Y-213557D01*
Y-213103D01*
Y-212650D01*
Y-212196D01*
Y-211742D01*
Y-211289D01*
Y-210835D01*
Y-210382D01*
Y-209928D01*
Y-209475D01*
Y-209021D01*
Y-208568D01*
Y-208114D01*
Y-207661D01*
Y-207207D01*
Y-206753D01*
Y-206300D01*
Y-205846D01*
Y-205393D01*
Y-204939D01*
Y-204486D01*
Y-204032D01*
Y-203578D01*
Y-203125D01*
Y-202671D01*
Y-202218D01*
Y-201764D01*
Y-201311D01*
Y-200857D01*
Y-200404D01*
Y-199950D01*
Y-199496D01*
Y-199043D01*
Y-198589D01*
Y-198136D01*
Y-197682D01*
Y-197229D01*
Y-196775D01*
Y-196322D01*
Y-195868D01*
Y-195414D01*
Y-194961D01*
Y-194507D01*
Y-194054D01*
X887064D01*
Y-194507D01*
Y-194961D01*
Y-195414D01*
Y-195868D01*
Y-196322D01*
Y-196775D01*
Y-197229D01*
Y-197682D01*
Y-198136D01*
Y-198589D01*
Y-199043D01*
Y-199496D01*
Y-199950D01*
Y-200404D01*
Y-200857D01*
Y-201311D01*
Y-201764D01*
Y-202218D01*
Y-202671D01*
Y-203125D01*
Y-203578D01*
Y-204032D01*
Y-204486D01*
Y-204939D01*
Y-205393D01*
Y-205846D01*
Y-206300D01*
Y-206753D01*
Y-207207D01*
Y-207661D01*
Y-208114D01*
Y-208568D01*
Y-209021D01*
Y-209475D01*
Y-209928D01*
Y-210382D01*
Y-210835D01*
Y-211289D01*
Y-211742D01*
Y-212196D01*
Y-212650D01*
Y-213103D01*
Y-213557D01*
Y-214010D01*
Y-214464D01*
Y-214917D01*
Y-215371D01*
Y-215825D01*
Y-216278D01*
Y-216732D01*
Y-217185D01*
Y-217639D01*
Y-218092D01*
Y-218546D01*
Y-218999D01*
Y-219453D01*
Y-219907D01*
Y-220360D01*
Y-220814D01*
Y-221267D01*
Y-221721D01*
Y-222174D01*
Y-222628D01*
Y-223081D01*
Y-223535D01*
Y-223988D01*
Y-224442D01*
Y-224896D01*
Y-225349D01*
Y-225803D01*
Y-226256D01*
Y-226710D01*
Y-227163D01*
X887518D01*
Y-227617D01*
Y-228071D01*
Y-228524D01*
Y-228978D01*
X887971D01*
Y-229431D01*
Y-229885D01*
Y-230338D01*
X888425D01*
Y-230792D01*
Y-231245D01*
Y-231699D01*
X888878D01*
Y-232153D01*
Y-232606D01*
X889332D01*
Y-233060D01*
X889786D01*
Y-233513D01*
Y-233967D01*
X890239D01*
Y-234420D01*
X890693D01*
Y-234874D01*
X891146D01*
Y-235327D01*
X891600D01*
Y-235781D01*
X892053D01*
Y-236234D01*
X892507D01*
Y-236688D01*
X893414D01*
Y-237142D01*
X893868D01*
Y-237595D01*
X894775D01*
Y-238049D01*
X895682D01*
Y-238502D01*
X896589D01*
Y-238956D01*
X897950D01*
Y-239409D01*
X899764D01*
Y-239863D01*
X908835D01*
Y-239409D01*
X910649D01*
Y-238956D01*
X911556D01*
Y-238502D01*
X912917D01*
Y-238049D01*
X913371D01*
Y-237595D01*
X914278D01*
Y-237142D01*
X914731D01*
Y-236688D01*
X915185D01*
Y-236234D01*
X916092D01*
Y-235781D01*
X916545D01*
Y-235327D01*
X916999D01*
Y-234874D01*
Y-234420D01*
X917452D01*
Y-234874D01*
Y-235327D01*
Y-235781D01*
Y-236234D01*
Y-236688D01*
Y-237142D01*
Y-237595D01*
Y-238049D01*
Y-238502D01*
Y-238956D01*
X922442D01*
Y-239409D01*
X921988D01*
Y-239863D01*
X921535D01*
Y-240317D01*
X921081D01*
Y-240770D01*
X920627D01*
Y-241224D01*
X920174D01*
Y-241677D01*
X919720D01*
Y-242131D01*
X919267D01*
Y-242584D01*
X918813D01*
Y-243038D01*
X917906D01*
Y-243491D01*
X917452D01*
Y-243945D01*
X916999D01*
Y-244398D01*
X916545D01*
Y-244852D01*
X915638D01*
Y-245306D01*
X915185D01*
Y-245759D01*
X914731D01*
Y-246213D01*
X913824D01*
Y-246666D01*
X913371D01*
Y-247120D01*
X912463D01*
Y-247573D01*
X912010D01*
Y-248027D01*
X911103D01*
Y-248480D01*
X910649D01*
Y-248934D01*
X909742D01*
Y-249388D01*
X908835D01*
Y-249841D01*
X907928D01*
Y-250295D01*
X907474D01*
Y-250748D01*
X906567D01*
Y-251202D01*
X905206D01*
Y-251655D01*
X904299D01*
Y-252109D01*
X903392D01*
Y-252563D01*
X902032D01*
Y-253016D01*
X901124D01*
Y-253470D01*
X899764D01*
Y-253923D01*
X897950D01*
Y-254377D01*
X896589D01*
Y-254830D01*
X894775D01*
Y-255284D01*
X892053D01*
Y-255737D01*
X888878D01*
Y-256191D01*
X877086D01*
Y-255737D01*
X873911D01*
Y-255284D01*
X871643D01*
Y-254830D01*
X869829D01*
Y-254377D01*
X868015D01*
Y-253923D01*
X866654D01*
Y-253470D01*
X865294D01*
Y-253016D01*
X863933D01*
Y-252563D01*
X863026D01*
Y-252109D01*
X861665D01*
Y-251655D01*
X860758D01*
Y-251202D01*
X859851D01*
Y-250748D01*
X858944D01*
Y-250295D01*
X858037D01*
Y-249841D01*
X857130D01*
Y-249388D01*
X856222D01*
Y-248934D01*
X855769D01*
Y-248480D01*
X854862D01*
Y-248027D01*
X853955D01*
Y-247573D01*
X853501D01*
Y-247120D01*
X852594D01*
Y-246666D01*
X852140D01*
Y-246213D01*
X851687D01*
Y-245759D01*
X850780D01*
Y-245306D01*
X850326D01*
Y-244852D01*
X849873D01*
Y-244398D01*
X848966D01*
Y-243945D01*
X848512D01*
Y-243491D01*
X848058D01*
Y-243038D01*
X847605D01*
Y-242584D01*
X847151D01*
Y-242131D01*
X846698D01*
Y-241677D01*
X846244D01*
Y-241224D01*
X845791D01*
Y-240770D01*
X845337D01*
Y-240317D01*
X844883D01*
Y-239863D01*
X844430D01*
Y-239409D01*
X843976D01*
Y-238956D01*
X843523D01*
Y-238502D01*
X843069D01*
Y-238049D01*
X842616D01*
Y-237595D01*
X842162D01*
Y-237142D01*
X841709D01*
Y-236688D01*
Y-236234D01*
X841255D01*
Y-235781D01*
X840801D01*
Y-235327D01*
X840348D01*
Y-234874D01*
X839894D01*
Y-234420D01*
Y-233967D01*
X839441D01*
Y-233513D01*
X838987D01*
Y-233060D01*
Y-232606D01*
X838534D01*
Y-232153D01*
X838080D01*
Y-231699D01*
Y-231245D01*
X837627D01*
Y-230792D01*
X837173D01*
Y-230338D01*
Y-229885D01*
X836720D01*
Y-229431D01*
Y-228978D01*
X836266D01*
Y-228524D01*
Y-228071D01*
X835812D01*
Y-227617D01*
Y-227163D01*
X835359D01*
Y-226710D01*
Y-226256D01*
X834905D01*
Y-225803D01*
Y-225349D01*
X834452D01*
Y-224896D01*
Y-224442D01*
X833998D01*
Y-223988D01*
Y-223535D01*
X833545D01*
Y-223081D01*
Y-222628D01*
Y-222174D01*
X833091D01*
Y-221721D01*
Y-221267D01*
Y-220814D01*
X832637D01*
Y-220360D01*
Y-219907D01*
X832184D01*
Y-219453D01*
Y-218999D01*
Y-218546D01*
Y-218092D01*
X831730D01*
Y-217639D01*
Y-217185D01*
Y-216732D01*
X831277D01*
Y-216278D01*
Y-215825D01*
Y-215371D01*
Y-214917D01*
X830823D01*
Y-214464D01*
Y-214010D01*
Y-213557D01*
Y-213103D01*
Y-212650D01*
X830370D01*
Y-212196D01*
Y-211742D01*
Y-211289D01*
Y-210835D01*
Y-210382D01*
Y-209928D01*
Y-209475D01*
X829916D01*
Y-209021D01*
Y-208568D01*
Y-208114D01*
Y-207661D01*
Y-207207D01*
Y-206753D01*
Y-206300D01*
Y-205846D01*
Y-205393D01*
Y-204939D01*
X829463D01*
Y-204486D01*
Y-204032D01*
Y-203578D01*
Y-203125D01*
Y-202671D01*
Y-202218D01*
Y-201764D01*
Y-201311D01*
Y-200857D01*
X829916D01*
Y-200404D01*
Y-199950D01*
Y-199496D01*
Y-199043D01*
Y-198589D01*
Y-198136D01*
Y-197682D01*
Y-197229D01*
Y-196775D01*
X830370D01*
Y-196322D01*
Y-195868D01*
Y-195414D01*
Y-194961D01*
Y-194507D01*
Y-194054D01*
Y-193600D01*
X830823D01*
Y-193147D01*
Y-192693D01*
Y-192240D01*
Y-191786D01*
Y-191332D01*
X831277D01*
Y-190879D01*
Y-190425D01*
Y-189972D01*
Y-189518D01*
X831730D01*
Y-189065D01*
Y-188611D01*
Y-188158D01*
Y-187704D01*
X832184D01*
Y-187250D01*
Y-186797D01*
Y-186343D01*
X832637D01*
Y-185890D01*
Y-185436D01*
Y-184983D01*
X833091D01*
Y-184529D01*
Y-184076D01*
X833545D01*
Y-183622D01*
Y-183168D01*
Y-182715D01*
X833998D01*
Y-182261D01*
Y-181808D01*
X834452D01*
Y-181354D01*
Y-180901D01*
Y-180447D01*
X834905D01*
Y-179993D01*
Y-179540D01*
X835359D01*
Y-179086D01*
Y-178633D01*
X835812D01*
Y-178179D01*
Y-177726D01*
X836266D01*
Y-177272D01*
X836720D01*
Y-176819D01*
Y-176365D01*
X837173D01*
Y-175912D01*
Y-175458D01*
X837627D01*
Y-175004D01*
X838080D01*
Y-174551D01*
Y-174097D01*
X838534D01*
Y-173644D01*
X838987D01*
Y-173190D01*
Y-172737D01*
X839441D01*
Y-172283D01*
X839894D01*
Y-171830D01*
Y-171376D01*
X840348D01*
Y-170922D01*
X840801D01*
Y-170469D01*
X841255D01*
Y-170015D01*
Y-169562D01*
X841709D01*
Y-169108D01*
X842162D01*
Y-168655D01*
X842616D01*
Y-168201D01*
X843069D01*
Y-167747D01*
X843523D01*
Y-167294D01*
X843976D01*
Y-166840D01*
X844430D01*
Y-166387D01*
Y-165933D01*
X844883D01*
Y-165480D01*
X845337D01*
Y-165026D01*
X845791D01*
Y-164573D01*
X846698D01*
Y-164119D01*
X847151D01*
Y-163666D01*
X847605D01*
Y-163212D01*
X848058D01*
Y-162758D01*
X848512D01*
Y-162305D01*
X848966D01*
Y-161851D01*
X849419D01*
Y-161398D01*
X850326D01*
Y-160944D01*
X850780D01*
Y-160491D01*
X851233D01*
Y-160037D01*
X852140D01*
Y-159584D01*
X852594D01*
Y-159130D01*
X853501D01*
Y-158676D01*
X853955D01*
Y-158223D01*
X854862D01*
Y-157769D01*
X855315D01*
Y-157316D01*
X856222D01*
Y-156862D01*
X857130D01*
Y-156409D01*
X857583D01*
Y-155955D01*
X858944D01*
Y-155501D01*
X859851D01*
Y-155048D01*
X860758D01*
Y-154594D01*
X861665D01*
Y-154141D01*
X862572D01*
Y-153687D01*
X863933D01*
Y-153234D01*
X864840D01*
Y-152780D01*
X866201D01*
Y-152327D01*
X867561D01*
Y-151873D01*
X869376D01*
Y-151419D01*
X871190D01*
Y-150966D01*
X873457D01*
Y-150512D01*
X876632D01*
Y-150059D01*
X881168D01*
Y-149605D01*
X885250D01*
Y-150059D01*
D02*
G37*
G36*
X955551Y-177272D02*
Y-177726D01*
Y-178179D01*
Y-178633D01*
Y-179086D01*
Y-179540D01*
Y-179993D01*
Y-180447D01*
Y-180901D01*
Y-181354D01*
Y-181808D01*
Y-182261D01*
Y-182715D01*
Y-183168D01*
Y-183622D01*
Y-184076D01*
Y-184529D01*
Y-184983D01*
Y-185436D01*
Y-185890D01*
Y-186343D01*
Y-186797D01*
Y-187250D01*
Y-187704D01*
Y-188158D01*
Y-188611D01*
Y-189065D01*
Y-189518D01*
Y-189972D01*
Y-190425D01*
Y-190879D01*
Y-191332D01*
Y-191786D01*
Y-192240D01*
Y-192693D01*
Y-193147D01*
Y-193600D01*
Y-194054D01*
Y-194507D01*
Y-194961D01*
Y-195414D01*
Y-195868D01*
Y-196322D01*
Y-196775D01*
Y-197229D01*
Y-197682D01*
Y-198136D01*
Y-198589D01*
Y-199043D01*
Y-199496D01*
X956458D01*
Y-199043D01*
X956912D01*
Y-198589D01*
X957365D01*
Y-198136D01*
X957819D01*
Y-197682D01*
X958272D01*
Y-197229D01*
X958726D01*
Y-196775D01*
X959180D01*
Y-196322D01*
X960087D01*
Y-195868D01*
X960540D01*
Y-195414D01*
X961447D01*
Y-194961D01*
X962355D01*
Y-194507D01*
X963715D01*
Y-194054D01*
X965529D01*
Y-193600D01*
X974147D01*
Y-194054D01*
X975961D01*
Y-194507D01*
X977322D01*
Y-194961D01*
X978682D01*
Y-195414D01*
X979590D01*
Y-195868D01*
X980043D01*
Y-196322D01*
X980950D01*
Y-196775D01*
X981404D01*
Y-197229D01*
X982311D01*
Y-197682D01*
X982765D01*
Y-198136D01*
X983218D01*
Y-198589D01*
X983672D01*
Y-199043D01*
X984125D01*
Y-199496D01*
X984579D01*
Y-199950D01*
Y-200404D01*
X985032D01*
Y-200857D01*
X985486D01*
Y-201311D01*
X985939D01*
Y-201764D01*
Y-202218D01*
X986393D01*
Y-202671D01*
Y-203125D01*
X986846D01*
Y-203578D01*
Y-204032D01*
X987300D01*
Y-204486D01*
Y-204939D01*
X987754D01*
Y-205393D01*
Y-205846D01*
Y-206300D01*
X988207D01*
Y-206753D01*
Y-207207D01*
Y-207661D01*
Y-208114D01*
X988661D01*
Y-208568D01*
Y-209021D01*
Y-209475D01*
Y-209928D01*
Y-210382D01*
X989114D01*
Y-210835D01*
Y-211289D01*
Y-211742D01*
Y-212196D01*
Y-212650D01*
Y-213103D01*
Y-213557D01*
Y-214010D01*
Y-214464D01*
X989568D01*
Y-214917D01*
X989114D01*
Y-215371D01*
Y-215825D01*
Y-216278D01*
Y-216732D01*
Y-217185D01*
Y-217639D01*
Y-218092D01*
Y-218546D01*
Y-218999D01*
Y-219453D01*
Y-219907D01*
Y-220360D01*
Y-220814D01*
Y-221267D01*
Y-221721D01*
Y-222174D01*
Y-222628D01*
X988661D01*
Y-223081D01*
Y-223535D01*
Y-223988D01*
Y-224442D01*
Y-224896D01*
X988207D01*
Y-225349D01*
Y-225803D01*
Y-226256D01*
X987754D01*
Y-226710D01*
Y-227163D01*
Y-227617D01*
X987300D01*
Y-228071D01*
Y-228524D01*
Y-228978D01*
X986846D01*
Y-229431D01*
Y-229885D01*
X986393D01*
Y-230338D01*
Y-230792D01*
X985939D01*
Y-231245D01*
X985486D01*
Y-231699D01*
Y-232153D01*
X985032D01*
Y-232606D01*
X984579D01*
Y-233060D01*
X984125D01*
Y-233513D01*
X983672D01*
Y-233967D01*
Y-234420D01*
X982765D01*
Y-234874D01*
X982311D01*
Y-235327D01*
X981857D01*
Y-235781D01*
X981404D01*
Y-236234D01*
X980497D01*
Y-236688D01*
X980043D01*
Y-237142D01*
X979136D01*
Y-237595D01*
X978229D01*
Y-238049D01*
X977322D01*
Y-238502D01*
X975961D01*
Y-238956D01*
X973693D01*
Y-239409D01*
X965983D01*
Y-238956D01*
X963715D01*
Y-238502D01*
X962808D01*
Y-238049D01*
X961447D01*
Y-237595D01*
X960994D01*
Y-237142D01*
X960087D01*
Y-236688D01*
X959633D01*
Y-236234D01*
X958726D01*
Y-235781D01*
X958272D01*
Y-235327D01*
X957819D01*
Y-234874D01*
X957365D01*
Y-234420D01*
X956912D01*
Y-233967D01*
X956458D01*
Y-233513D01*
X956005D01*
Y-233060D01*
Y-232606D01*
X955098D01*
Y-233060D01*
Y-233513D01*
Y-233967D01*
Y-234420D01*
Y-234874D01*
Y-235327D01*
Y-235781D01*
Y-236234D01*
Y-236688D01*
Y-237142D01*
Y-237595D01*
Y-238049D01*
Y-238502D01*
X943759D01*
Y-238049D01*
Y-237595D01*
Y-237142D01*
Y-236688D01*
Y-236234D01*
Y-235781D01*
Y-235327D01*
Y-234874D01*
Y-234420D01*
Y-233967D01*
Y-233513D01*
Y-233060D01*
Y-232606D01*
Y-232153D01*
Y-231699D01*
Y-231245D01*
Y-230792D01*
Y-230338D01*
Y-229885D01*
Y-229431D01*
Y-228978D01*
Y-228524D01*
Y-228071D01*
Y-227617D01*
Y-227163D01*
Y-226710D01*
Y-226256D01*
Y-225803D01*
Y-225349D01*
Y-224896D01*
Y-224442D01*
Y-223988D01*
Y-223535D01*
Y-223081D01*
Y-222628D01*
Y-222174D01*
Y-221721D01*
Y-221267D01*
Y-220814D01*
Y-220360D01*
Y-219907D01*
Y-219453D01*
Y-218999D01*
Y-218546D01*
Y-218092D01*
Y-217639D01*
Y-217185D01*
Y-216732D01*
Y-216278D01*
Y-215825D01*
Y-215371D01*
Y-214917D01*
Y-214464D01*
Y-214010D01*
Y-213557D01*
Y-213103D01*
Y-212650D01*
Y-212196D01*
Y-211742D01*
Y-211289D01*
Y-210835D01*
Y-210382D01*
Y-209928D01*
Y-209475D01*
Y-209021D01*
Y-208568D01*
Y-208114D01*
Y-207661D01*
Y-207207D01*
Y-206753D01*
Y-206300D01*
Y-205846D01*
Y-205393D01*
Y-204939D01*
Y-204486D01*
Y-204032D01*
Y-203578D01*
Y-203125D01*
Y-202671D01*
Y-202218D01*
Y-201764D01*
Y-201311D01*
Y-200857D01*
Y-200404D01*
Y-199950D01*
Y-199496D01*
Y-199043D01*
Y-198589D01*
Y-198136D01*
Y-197682D01*
Y-197229D01*
Y-196775D01*
Y-196322D01*
Y-195868D01*
Y-195414D01*
Y-194961D01*
Y-194507D01*
Y-194054D01*
Y-193600D01*
Y-193147D01*
Y-192693D01*
Y-192240D01*
Y-191786D01*
Y-191332D01*
Y-190879D01*
Y-190425D01*
Y-189972D01*
Y-189518D01*
Y-189065D01*
Y-188611D01*
Y-188158D01*
Y-187704D01*
Y-187250D01*
Y-186797D01*
Y-186343D01*
Y-185890D01*
Y-185436D01*
Y-184983D01*
Y-184529D01*
Y-184076D01*
Y-183622D01*
Y-183168D01*
Y-182715D01*
Y-182261D01*
Y-181808D01*
Y-181354D01*
Y-180901D01*
Y-180447D01*
Y-179993D01*
Y-179540D01*
Y-179086D01*
Y-178633D01*
Y-178179D01*
Y-177726D01*
Y-177272D01*
Y-176819D01*
X955551D01*
Y-177272D01*
D02*
G37*
G36*
X1009071D02*
Y-177726D01*
Y-178179D01*
Y-178633D01*
Y-179086D01*
Y-179540D01*
Y-179993D01*
Y-180447D01*
Y-180901D01*
Y-181354D01*
Y-181808D01*
Y-182261D01*
Y-182715D01*
Y-183168D01*
Y-183622D01*
Y-184076D01*
Y-184529D01*
Y-184983D01*
Y-185436D01*
Y-185890D01*
Y-186343D01*
Y-186797D01*
Y-187250D01*
Y-187704D01*
Y-188158D01*
Y-188611D01*
Y-189065D01*
Y-189518D01*
Y-189972D01*
Y-190425D01*
Y-190879D01*
Y-191332D01*
Y-191786D01*
Y-192240D01*
Y-192693D01*
Y-193147D01*
Y-193600D01*
Y-194054D01*
Y-194507D01*
Y-194961D01*
Y-195414D01*
Y-195868D01*
Y-196322D01*
Y-196775D01*
Y-197229D01*
Y-197682D01*
Y-198136D01*
Y-198589D01*
Y-199043D01*
Y-199496D01*
Y-199950D01*
Y-200404D01*
Y-200857D01*
Y-201311D01*
Y-201764D01*
Y-202218D01*
Y-202671D01*
Y-203125D01*
Y-203578D01*
Y-204032D01*
Y-204486D01*
Y-204939D01*
Y-205393D01*
Y-205846D01*
Y-206300D01*
Y-206753D01*
Y-207207D01*
Y-207661D01*
Y-208114D01*
Y-208568D01*
Y-209021D01*
Y-209475D01*
Y-209928D01*
Y-210382D01*
Y-210835D01*
Y-211289D01*
Y-211742D01*
Y-212196D01*
Y-212650D01*
Y-213103D01*
Y-213557D01*
Y-214010D01*
Y-214464D01*
Y-214917D01*
Y-215371D01*
Y-215825D01*
Y-216278D01*
Y-216732D01*
Y-217185D01*
Y-217639D01*
Y-218092D01*
Y-218546D01*
Y-218999D01*
Y-219453D01*
Y-219907D01*
Y-220360D01*
Y-220814D01*
Y-221267D01*
Y-221721D01*
Y-222174D01*
Y-222628D01*
Y-223081D01*
Y-223535D01*
Y-223988D01*
Y-224442D01*
Y-224896D01*
Y-225349D01*
Y-225803D01*
Y-226256D01*
Y-226710D01*
Y-227163D01*
Y-227617D01*
Y-228071D01*
Y-228524D01*
Y-228978D01*
Y-229431D01*
Y-229885D01*
Y-230338D01*
Y-230792D01*
Y-231245D01*
Y-231699D01*
Y-232153D01*
Y-232606D01*
Y-233060D01*
Y-233513D01*
Y-233967D01*
Y-234420D01*
Y-234874D01*
Y-235327D01*
Y-235781D01*
Y-236234D01*
Y-236688D01*
Y-237142D01*
Y-237595D01*
Y-238049D01*
Y-238502D01*
X997732D01*
Y-238049D01*
Y-237595D01*
Y-237142D01*
Y-236688D01*
Y-236234D01*
Y-235781D01*
Y-235327D01*
Y-234874D01*
Y-234420D01*
Y-233967D01*
Y-233513D01*
Y-233060D01*
Y-232606D01*
Y-232153D01*
Y-231699D01*
Y-231245D01*
Y-230792D01*
Y-230338D01*
Y-229885D01*
Y-229431D01*
Y-228978D01*
Y-228524D01*
Y-228071D01*
Y-227617D01*
Y-227163D01*
Y-226710D01*
Y-226256D01*
Y-225803D01*
Y-225349D01*
Y-224896D01*
Y-224442D01*
Y-223988D01*
Y-223535D01*
Y-223081D01*
Y-222628D01*
Y-222174D01*
Y-221721D01*
Y-221267D01*
Y-220814D01*
Y-220360D01*
Y-219907D01*
Y-219453D01*
Y-218999D01*
Y-218546D01*
Y-218092D01*
Y-217639D01*
Y-217185D01*
Y-216732D01*
Y-216278D01*
Y-215825D01*
Y-215371D01*
Y-214917D01*
Y-214464D01*
Y-214010D01*
Y-213557D01*
Y-213103D01*
Y-212650D01*
Y-212196D01*
Y-211742D01*
Y-211289D01*
Y-210835D01*
Y-210382D01*
Y-209928D01*
Y-209475D01*
Y-209021D01*
Y-208568D01*
Y-208114D01*
Y-207661D01*
Y-207207D01*
Y-206753D01*
Y-206300D01*
Y-205846D01*
Y-205393D01*
Y-204939D01*
Y-204486D01*
Y-204032D01*
Y-203578D01*
Y-203125D01*
Y-202671D01*
Y-202218D01*
Y-201764D01*
Y-201311D01*
Y-200857D01*
Y-200404D01*
Y-199950D01*
Y-199496D01*
Y-199043D01*
Y-198589D01*
Y-198136D01*
Y-197682D01*
Y-197229D01*
Y-196775D01*
Y-196322D01*
Y-195868D01*
Y-195414D01*
Y-194961D01*
Y-194507D01*
Y-194054D01*
Y-193600D01*
Y-193147D01*
Y-192693D01*
Y-192240D01*
Y-191786D01*
Y-191332D01*
Y-190879D01*
Y-190425D01*
Y-189972D01*
Y-189518D01*
Y-189065D01*
Y-188611D01*
Y-188158D01*
Y-187704D01*
Y-187250D01*
Y-186797D01*
Y-186343D01*
Y-185890D01*
Y-185436D01*
Y-184983D01*
Y-184529D01*
Y-184076D01*
Y-183622D01*
Y-183168D01*
Y-182715D01*
Y-182261D01*
Y-181808D01*
Y-181354D01*
Y-180901D01*
Y-180447D01*
Y-179993D01*
Y-179540D01*
Y-179086D01*
Y-178633D01*
Y-178179D01*
Y-177726D01*
Y-177272D01*
Y-176819D01*
X1009071D01*
Y-177272D01*
D02*
G37*
G36*
X1045355Y-194054D02*
X1047623D01*
Y-194507D01*
X1048984D01*
Y-194961D01*
X1050344D01*
Y-195414D01*
X1051252D01*
Y-195868D01*
X1052159D01*
Y-196322D01*
X1053066D01*
Y-196775D01*
X1053973D01*
Y-197229D01*
X1054426D01*
Y-197682D01*
X1055333D01*
Y-198136D01*
X1055787D01*
Y-198589D01*
X1056241D01*
Y-199043D01*
X1056694D01*
Y-199496D01*
X1057148D01*
Y-199950D01*
X1057601D01*
Y-200404D01*
X1058055D01*
Y-200857D01*
X1058508D01*
Y-201311D01*
X1058962D01*
Y-201764D01*
Y-202218D01*
X1059416D01*
Y-202671D01*
X1059869D01*
Y-203125D01*
Y-203578D01*
X1060323D01*
Y-204032D01*
Y-204486D01*
X1060776D01*
Y-204939D01*
Y-205393D01*
X1061230D01*
Y-205846D01*
Y-206300D01*
X1061683D01*
Y-206753D01*
Y-207207D01*
Y-207661D01*
X1062137D01*
Y-208114D01*
Y-208568D01*
Y-209021D01*
Y-209475D01*
Y-209928D01*
X1062590D01*
Y-210382D01*
Y-210835D01*
Y-211289D01*
Y-211742D01*
Y-212196D01*
Y-212650D01*
Y-213103D01*
X1063044D01*
Y-213557D01*
Y-214010D01*
Y-214464D01*
Y-214917D01*
Y-215371D01*
Y-215825D01*
Y-216278D01*
Y-216732D01*
Y-217185D01*
Y-217639D01*
Y-218092D01*
Y-218546D01*
Y-218999D01*
Y-219453D01*
Y-219907D01*
X1062590D01*
Y-220360D01*
Y-220814D01*
Y-221267D01*
Y-221721D01*
Y-222174D01*
Y-222628D01*
Y-223081D01*
X1062137D01*
Y-223535D01*
Y-223988D01*
Y-224442D01*
Y-224896D01*
X1061683D01*
Y-225349D01*
Y-225803D01*
Y-226256D01*
X1061230D01*
Y-226710D01*
Y-227163D01*
Y-227617D01*
X1060776D01*
Y-228071D01*
Y-228524D01*
X1060323D01*
Y-228978D01*
Y-229431D01*
X1059869D01*
Y-229885D01*
Y-230338D01*
X1059416D01*
Y-230792D01*
X1058962D01*
Y-231245D01*
X1058508D01*
Y-231699D01*
Y-232153D01*
X1058055D01*
Y-232606D01*
X1057601D01*
Y-233060D01*
X1057148D01*
Y-233513D01*
X1056694D01*
Y-233967D01*
X1056241D01*
Y-234420D01*
X1055787D01*
Y-234874D01*
X1054880D01*
Y-235327D01*
X1054426D01*
Y-235781D01*
X1053519D01*
Y-236234D01*
X1053066D01*
Y-236688D01*
X1052159D01*
Y-237142D01*
X1051252D01*
Y-237595D01*
X1049891D01*
Y-238049D01*
X1048530D01*
Y-238502D01*
X1047169D01*
Y-238956D01*
X1044902D01*
Y-239409D01*
X1035377D01*
Y-238956D01*
X1032656D01*
Y-238502D01*
X1030841D01*
Y-238049D01*
X1029934D01*
Y-237595D01*
X1028574D01*
Y-237142D01*
X1027667D01*
Y-236688D01*
X1026759D01*
Y-236234D01*
X1026306D01*
Y-235781D01*
X1025399D01*
Y-235327D01*
X1024945D01*
Y-234874D01*
X1024038D01*
Y-234420D01*
X1023585D01*
Y-233967D01*
X1023131D01*
Y-233513D01*
X1022678D01*
Y-233060D01*
X1022224D01*
Y-232606D01*
X1021770D01*
Y-232153D01*
X1021317D01*
Y-231699D01*
Y-231245D01*
X1020863D01*
Y-230792D01*
X1020410D01*
Y-230338D01*
X1019956D01*
Y-229885D01*
Y-229431D01*
X1019503D01*
Y-228978D01*
Y-228524D01*
X1019049D01*
Y-228071D01*
Y-227617D01*
X1018595D01*
Y-227163D01*
Y-226710D01*
Y-226256D01*
X1018142D01*
Y-225803D01*
Y-225349D01*
Y-224896D01*
X1017688D01*
Y-224442D01*
Y-223988D01*
Y-223535D01*
Y-223081D01*
X1017235D01*
Y-222628D01*
Y-222174D01*
Y-221721D01*
Y-221267D01*
Y-220814D01*
Y-220360D01*
Y-219907D01*
Y-219453D01*
X1016781D01*
Y-218999D01*
Y-218546D01*
Y-218092D01*
Y-217639D01*
Y-217185D01*
Y-216732D01*
Y-216278D01*
Y-215825D01*
Y-215371D01*
Y-214917D01*
Y-214464D01*
Y-214010D01*
Y-213557D01*
X1017235D01*
Y-213103D01*
Y-212650D01*
Y-212196D01*
Y-211742D01*
Y-211289D01*
Y-210835D01*
Y-210382D01*
Y-209928D01*
X1017688D01*
Y-209475D01*
Y-209021D01*
Y-208568D01*
Y-208114D01*
X1018142D01*
Y-207661D01*
Y-207207D01*
Y-206753D01*
X1018595D01*
Y-206300D01*
Y-205846D01*
Y-205393D01*
X1019049D01*
Y-204939D01*
Y-204486D01*
X1019503D01*
Y-204032D01*
Y-203578D01*
X1019956D01*
Y-203125D01*
Y-202671D01*
X1020410D01*
Y-202218D01*
X1020863D01*
Y-201764D01*
Y-201311D01*
X1021317D01*
Y-200857D01*
X1021770D01*
Y-200404D01*
X1022224D01*
Y-199950D01*
X1022678D01*
Y-199496D01*
X1023131D01*
Y-199043D01*
X1023585D01*
Y-198589D01*
X1024038D01*
Y-198136D01*
X1024492D01*
Y-197682D01*
X1025399D01*
Y-197229D01*
X1025852D01*
Y-196775D01*
X1026759D01*
Y-196322D01*
X1027667D01*
Y-195868D01*
X1028574D01*
Y-195414D01*
X1029481D01*
Y-194961D01*
X1030841D01*
Y-194507D01*
X1032202D01*
Y-194054D01*
X1034470D01*
Y-193600D01*
X1045355D01*
Y-194054D01*
D02*
G37*
G36*
X1111121Y-194961D02*
X1110667D01*
Y-195414D01*
Y-195868D01*
X1110214D01*
Y-196322D01*
X1109760D01*
Y-196775D01*
X1109307D01*
Y-197229D01*
Y-197682D01*
X1108853D01*
Y-198136D01*
X1108400D01*
Y-198589D01*
Y-199043D01*
X1107946D01*
Y-199496D01*
X1107492D01*
Y-199950D01*
X1107039D01*
Y-200404D01*
Y-200857D01*
X1106585D01*
Y-201311D01*
X1106132D01*
Y-201764D01*
X1105678D01*
Y-202218D01*
Y-202671D01*
X1105225D01*
Y-203125D01*
X1104771D01*
Y-203578D01*
X1104317D01*
Y-204032D01*
Y-204486D01*
X1103864D01*
Y-204939D01*
X1103410D01*
Y-205393D01*
Y-205846D01*
X1102957D01*
Y-206300D01*
X1102503D01*
Y-206753D01*
X1102050D01*
Y-207207D01*
Y-207661D01*
X1101596D01*
Y-208114D01*
X1101143D01*
Y-208568D01*
X1100689D01*
Y-209021D01*
Y-209475D01*
X1100236D01*
Y-209928D01*
X1099782D01*
Y-210382D01*
Y-210835D01*
X1099328D01*
Y-211289D01*
X1098875D01*
Y-211742D01*
X1098421D01*
Y-212196D01*
Y-212650D01*
X1097968D01*
Y-213103D01*
X1097514D01*
Y-213557D01*
X1097061D01*
Y-214010D01*
Y-214464D01*
X1096607D01*
Y-214917D01*
X1096153D01*
Y-215371D01*
X1095700D01*
Y-215825D01*
Y-216278D01*
Y-216732D01*
X1096153D01*
Y-217185D01*
Y-217639D01*
X1096607D01*
Y-218092D01*
X1097061D01*
Y-218546D01*
X1097514D01*
Y-218999D01*
Y-219453D01*
X1097968D01*
Y-219907D01*
X1098421D01*
Y-220360D01*
X1098875D01*
Y-220814D01*
Y-221267D01*
X1099328D01*
Y-221721D01*
X1099782D01*
Y-222174D01*
Y-222628D01*
X1100236D01*
Y-223081D01*
X1100689D01*
Y-223535D01*
X1101143D01*
Y-223988D01*
Y-224442D01*
X1101596D01*
Y-224896D01*
X1102050D01*
Y-225349D01*
X1102503D01*
Y-225803D01*
Y-226256D01*
X1102957D01*
Y-226710D01*
X1103410D01*
Y-227163D01*
X1103864D01*
Y-227617D01*
Y-228071D01*
X1104317D01*
Y-228524D01*
X1104771D01*
Y-228978D01*
X1105225D01*
Y-229431D01*
Y-229885D01*
X1105678D01*
Y-230338D01*
X1106132D01*
Y-230792D01*
X1106585D01*
Y-231245D01*
Y-231699D01*
X1107039D01*
Y-232153D01*
X1107492D01*
Y-232606D01*
X1107946D01*
Y-233060D01*
Y-233513D01*
X1108400D01*
Y-233967D01*
X1108853D01*
Y-234420D01*
Y-234874D01*
X1109307D01*
Y-235327D01*
X1109760D01*
Y-235781D01*
X1110214D01*
Y-236234D01*
Y-236688D01*
X1110667D01*
Y-237142D01*
X1111121D01*
Y-237595D01*
X1111574D01*
Y-238049D01*
X1112028D01*
Y-238502D01*
X1097514D01*
Y-238049D01*
Y-237595D01*
X1097061D01*
Y-237142D01*
X1096607D01*
Y-236688D01*
X1096153D01*
Y-236234D01*
Y-235781D01*
X1095700D01*
Y-235327D01*
X1095246D01*
Y-234874D01*
X1094793D01*
Y-234420D01*
Y-233967D01*
X1094339D01*
Y-233513D01*
X1093886D01*
Y-233060D01*
Y-232606D01*
X1093432D01*
Y-232153D01*
X1092979D01*
Y-231699D01*
X1092525D01*
Y-231245D01*
Y-230792D01*
X1092072D01*
Y-230338D01*
X1091618D01*
Y-229885D01*
X1091164D01*
Y-229431D01*
Y-228978D01*
X1090711D01*
Y-228524D01*
X1090257D01*
Y-228071D01*
Y-227617D01*
X1089804D01*
Y-227163D01*
X1089350D01*
Y-226710D01*
X1088897D01*
Y-226256D01*
Y-225803D01*
X1088443D01*
Y-225349D01*
X1087990D01*
Y-224896D01*
X1087536D01*
Y-224442D01*
X1087082D01*
Y-224896D01*
Y-225349D01*
X1086629D01*
Y-225803D01*
X1086175D01*
Y-226256D01*
X1085722D01*
Y-226710D01*
Y-227163D01*
X1085268D01*
Y-227617D01*
X1084815D01*
Y-228071D01*
Y-228524D01*
X1084361D01*
Y-228978D01*
X1083907D01*
Y-229431D01*
X1083454D01*
Y-229885D01*
Y-230338D01*
X1083000D01*
Y-230792D01*
X1082547D01*
Y-231245D01*
Y-231699D01*
X1082093D01*
Y-232153D01*
X1081640D01*
Y-232606D01*
X1081186D01*
Y-233060D01*
Y-233513D01*
X1080733D01*
Y-233967D01*
X1080279D01*
Y-234420D01*
Y-234874D01*
X1079826D01*
Y-235327D01*
X1079372D01*
Y-235781D01*
X1078918D01*
Y-236234D01*
Y-236688D01*
X1078465D01*
Y-237142D01*
X1078011D01*
Y-237595D01*
Y-238049D01*
X1077558D01*
Y-238502D01*
X1064405D01*
Y-238049D01*
X1064858D01*
Y-237595D01*
X1065312D01*
Y-237142D01*
Y-236688D01*
X1065765D01*
Y-236234D01*
X1066219D01*
Y-235781D01*
X1066672D01*
Y-235327D01*
Y-234874D01*
X1067126D01*
Y-234420D01*
X1067579D01*
Y-233967D01*
Y-233513D01*
X1068033D01*
Y-233060D01*
X1068487D01*
Y-232606D01*
X1068940D01*
Y-232153D01*
X1069394D01*
Y-231699D01*
Y-231245D01*
X1069847D01*
Y-230792D01*
X1070301D01*
Y-230338D01*
Y-229885D01*
X1070754D01*
Y-229431D01*
X1071208D01*
Y-228978D01*
X1071662D01*
Y-228524D01*
Y-228071D01*
X1072115D01*
Y-227617D01*
X1072569D01*
Y-227163D01*
X1073022D01*
Y-226710D01*
Y-226256D01*
X1073476D01*
Y-225803D01*
X1073929D01*
Y-225349D01*
X1074383D01*
Y-224896D01*
Y-224442D01*
X1074836D01*
Y-223988D01*
X1075290D01*
Y-223535D01*
X1075743D01*
Y-223081D01*
Y-222628D01*
X1076197D01*
Y-222174D01*
X1076651D01*
Y-221721D01*
X1077104D01*
Y-221267D01*
Y-220814D01*
X1077558D01*
Y-220360D01*
X1078011D01*
Y-219907D01*
X1078465D01*
Y-219453D01*
Y-218999D01*
X1078918D01*
Y-218546D01*
X1079372D01*
Y-218092D01*
Y-217639D01*
X1079826D01*
Y-217185D01*
X1080279D01*
Y-216732D01*
X1080733D01*
Y-216278D01*
Y-215825D01*
X1080279D01*
Y-215371D01*
X1079826D01*
Y-214917D01*
X1079372D01*
Y-214464D01*
Y-214010D01*
X1078918D01*
Y-213557D01*
X1078465D01*
Y-213103D01*
X1078011D01*
Y-212650D01*
Y-212196D01*
X1077558D01*
Y-211742D01*
X1077104D01*
Y-211289D01*
Y-210835D01*
X1076651D01*
Y-210382D01*
X1076197D01*
Y-209928D01*
X1075743D01*
Y-209475D01*
Y-209021D01*
X1075290D01*
Y-208568D01*
X1074836D01*
Y-208114D01*
X1074383D01*
Y-207661D01*
Y-207207D01*
X1073929D01*
Y-206753D01*
X1073476D01*
Y-206300D01*
Y-205846D01*
X1073022D01*
Y-205393D01*
X1072569D01*
Y-204939D01*
X1072115D01*
Y-204486D01*
Y-204032D01*
X1071662D01*
Y-203578D01*
X1071208D01*
Y-203125D01*
X1070754D01*
Y-202671D01*
Y-202218D01*
X1070301D01*
Y-201764D01*
X1069847D01*
Y-201311D01*
Y-200857D01*
X1069394D01*
Y-200404D01*
X1068940D01*
Y-199950D01*
X1068487D01*
Y-199496D01*
Y-199043D01*
X1068033D01*
Y-198589D01*
X1067579D01*
Y-198136D01*
X1067126D01*
Y-197682D01*
Y-197229D01*
X1066672D01*
Y-196775D01*
X1066219D01*
Y-196322D01*
Y-195868D01*
X1065765D01*
Y-195414D01*
X1065312D01*
Y-194961D01*
X1064858D01*
Y-194507D01*
X1078918D01*
Y-194961D01*
X1079372D01*
Y-195414D01*
X1079826D01*
Y-195868D01*
Y-196322D01*
X1080279D01*
Y-196775D01*
X1080733D01*
Y-197229D01*
X1081186D01*
Y-197682D01*
Y-198136D01*
X1081640D01*
Y-198589D01*
X1082093D01*
Y-199043D01*
Y-199496D01*
X1082547D01*
Y-199950D01*
X1083000D01*
Y-200404D01*
Y-200857D01*
X1083454D01*
Y-201311D01*
X1083907D01*
Y-201764D01*
X1084361D01*
Y-202218D01*
Y-202671D01*
X1084815D01*
Y-203125D01*
X1085268D01*
Y-203578D01*
Y-204032D01*
X1085722D01*
Y-204486D01*
X1086175D01*
Y-204939D01*
X1086629D01*
Y-205393D01*
Y-205846D01*
X1087082D01*
Y-206300D01*
X1087536D01*
Y-206753D01*
Y-207207D01*
X1087990D01*
Y-207661D01*
X1088443D01*
Y-208114D01*
X1088897D01*
Y-207661D01*
X1089350D01*
Y-207207D01*
Y-206753D01*
X1089804D01*
Y-206300D01*
X1090257D01*
Y-205846D01*
X1090711D01*
Y-205393D01*
Y-204939D01*
X1091164D01*
Y-204486D01*
X1091618D01*
Y-204032D01*
Y-203578D01*
X1092072D01*
Y-203125D01*
X1092525D01*
Y-202671D01*
X1092979D01*
Y-202218D01*
Y-201764D01*
X1093432D01*
Y-201311D01*
X1093886D01*
Y-200857D01*
Y-200404D01*
X1094339D01*
Y-199950D01*
X1094793D01*
Y-199496D01*
X1095246D01*
Y-199043D01*
Y-198589D01*
X1095700D01*
Y-198136D01*
X1096153D01*
Y-197682D01*
Y-197229D01*
X1096607D01*
Y-196775D01*
X1097061D01*
Y-196322D01*
X1097514D01*
Y-195868D01*
Y-195414D01*
X1097968D01*
Y-194961D01*
X1098421D01*
Y-194507D01*
X1111121D01*
Y-194961D01*
D02*
G37*
%LPC*%
G36*
X873457Y-173644D02*
X871190D01*
Y-174097D01*
X869376D01*
Y-174551D01*
X868468D01*
Y-175004D01*
X867561D01*
Y-175458D01*
X866654D01*
Y-175912D01*
X866201D01*
Y-176365D01*
X865747D01*
Y-176819D01*
X865294D01*
Y-177272D01*
X864840D01*
Y-177726D01*
Y-178179D01*
X864386D01*
Y-178633D01*
X863933D01*
Y-179086D01*
Y-179540D01*
X863479D01*
Y-179993D01*
Y-180447D01*
Y-180901D01*
Y-181354D01*
X863026D01*
Y-181808D01*
Y-182261D01*
Y-182715D01*
Y-183168D01*
Y-183622D01*
Y-184076D01*
Y-184529D01*
Y-184983D01*
X863479D01*
Y-185436D01*
Y-185890D01*
Y-186343D01*
X863933D01*
Y-186797D01*
Y-187250D01*
X864386D01*
Y-187704D01*
Y-188158D01*
X864840D01*
Y-188611D01*
X865294D01*
Y-189065D01*
X865747D01*
Y-189518D01*
X866201D01*
Y-189972D01*
X866654D01*
Y-190425D01*
X867108D01*
Y-190879D01*
X868015D01*
Y-191332D01*
X868922D01*
Y-191786D01*
X870283D01*
Y-192240D01*
X874365D01*
Y-191786D01*
X875725D01*
Y-191332D01*
X876632D01*
Y-190879D01*
X877540D01*
Y-190425D01*
X877993D01*
Y-189972D01*
X878447D01*
Y-189518D01*
X879354D01*
Y-189065D01*
Y-188611D01*
X879807D01*
Y-188158D01*
X880261D01*
Y-187704D01*
Y-187250D01*
X880714D01*
Y-186797D01*
Y-186343D01*
X881168D01*
Y-185890D01*
Y-185436D01*
Y-184983D01*
X881622D01*
Y-184529D01*
Y-184076D01*
Y-183622D01*
Y-183168D01*
Y-182715D01*
Y-182261D01*
Y-181808D01*
Y-181354D01*
X881168D01*
Y-180901D01*
Y-180447D01*
Y-179993D01*
Y-179540D01*
X880714D01*
Y-179086D01*
Y-178633D01*
X880261D01*
Y-178179D01*
Y-177726D01*
X879807D01*
Y-177272D01*
X879354D01*
Y-176819D01*
X878900D01*
Y-176365D01*
X878447D01*
Y-175912D01*
X877993D01*
Y-175458D01*
X877086D01*
Y-175004D01*
X876632D01*
Y-174551D01*
X875272D01*
Y-174097D01*
X873457D01*
Y-173644D01*
D02*
G37*
G36*
X968251Y-203578D02*
X964169D01*
Y-204032D01*
X962355D01*
Y-204486D01*
X960994D01*
Y-204939D01*
X960087D01*
Y-205393D01*
X959633D01*
Y-205846D01*
X958726D01*
Y-206300D01*
X958272D01*
Y-206753D01*
X957819D01*
Y-207207D01*
Y-207661D01*
X957365D01*
Y-208114D01*
X956912D01*
Y-208568D01*
Y-209021D01*
X956458D01*
Y-209475D01*
Y-209928D01*
X956005D01*
Y-210382D01*
Y-210835D01*
Y-211289D01*
X955551D01*
Y-211742D01*
Y-212196D01*
Y-212650D01*
Y-213103D01*
Y-213557D01*
X955098D01*
Y-214010D01*
Y-214464D01*
Y-214917D01*
Y-215371D01*
Y-215825D01*
Y-216278D01*
Y-216732D01*
Y-217185D01*
Y-217639D01*
Y-218092D01*
Y-218546D01*
Y-218999D01*
Y-219453D01*
X955551D01*
Y-219907D01*
Y-220360D01*
Y-220814D01*
Y-221267D01*
Y-221721D01*
X956005D01*
Y-222174D01*
Y-222628D01*
Y-223081D01*
X956458D01*
Y-223535D01*
Y-223988D01*
X956912D01*
Y-224442D01*
Y-224896D01*
X957365D01*
Y-225349D01*
X957819D01*
Y-225803D01*
X958272D01*
Y-226256D01*
X958726D01*
Y-226710D01*
X959180D01*
Y-227163D01*
X959633D01*
Y-227617D01*
X960540D01*
Y-228071D01*
X961447D01*
Y-228524D01*
X962355D01*
Y-228978D01*
X964622D01*
Y-229431D01*
X967797D01*
Y-228978D01*
X970065D01*
Y-228524D01*
X971426D01*
Y-228071D01*
X972333D01*
Y-227617D01*
X972786D01*
Y-227163D01*
X973693D01*
Y-226710D01*
X974147D01*
Y-226256D01*
X974601D01*
Y-225803D01*
X975054D01*
Y-225349D01*
Y-224896D01*
X975508D01*
Y-224442D01*
X975961D01*
Y-223988D01*
Y-223535D01*
X976415D01*
Y-223081D01*
Y-222628D01*
Y-222174D01*
X976868D01*
Y-221721D01*
Y-221267D01*
Y-220814D01*
Y-220360D01*
X977322D01*
Y-219907D01*
Y-219453D01*
Y-218999D01*
Y-218546D01*
Y-218092D01*
Y-217639D01*
Y-217185D01*
Y-216732D01*
Y-216278D01*
Y-215825D01*
Y-215371D01*
Y-214917D01*
Y-214464D01*
Y-214010D01*
Y-213557D01*
Y-213103D01*
Y-212650D01*
Y-212196D01*
X976868D01*
Y-211742D01*
Y-211289D01*
Y-210835D01*
Y-210382D01*
X976415D01*
Y-209928D01*
Y-209475D01*
X975961D01*
Y-209021D01*
Y-208568D01*
X975508D01*
Y-208114D01*
Y-207661D01*
X975054D01*
Y-207207D01*
X974601D01*
Y-206753D01*
X974147D01*
Y-206300D01*
X973693D01*
Y-205846D01*
X973240D01*
Y-205393D01*
X972333D01*
Y-204939D01*
X971426D01*
Y-204486D01*
X970518D01*
Y-204032D01*
X968251D01*
Y-203578D01*
D02*
G37*
G36*
X1042180D02*
X1037645D01*
Y-204032D01*
X1035831D01*
Y-204486D01*
X1034470D01*
Y-204939D01*
X1033563D01*
Y-205393D01*
X1033109D01*
Y-205846D01*
X1032656D01*
Y-206300D01*
X1032202D01*
Y-206753D01*
X1031749D01*
Y-207207D01*
X1031295D01*
Y-207661D01*
X1030841D01*
Y-208114D01*
X1030388D01*
Y-208568D01*
Y-209021D01*
X1029934D01*
Y-209475D01*
Y-209928D01*
X1029481D01*
Y-210382D01*
Y-210835D01*
Y-211289D01*
X1029027D01*
Y-211742D01*
Y-212196D01*
Y-212650D01*
Y-213103D01*
Y-213557D01*
Y-214010D01*
Y-214464D01*
X1028574D01*
Y-214917D01*
Y-215371D01*
Y-215825D01*
Y-216278D01*
Y-216732D01*
Y-217185D01*
Y-217639D01*
Y-218092D01*
X1029027D01*
Y-218546D01*
Y-218999D01*
Y-219453D01*
Y-219907D01*
Y-220360D01*
Y-220814D01*
Y-221267D01*
X1029481D01*
Y-221721D01*
Y-222174D01*
Y-222628D01*
X1029934D01*
Y-223081D01*
Y-223535D01*
Y-223988D01*
X1030388D01*
Y-224442D01*
X1030841D01*
Y-224896D01*
Y-225349D01*
X1031295D01*
Y-225803D01*
X1031749D01*
Y-226256D01*
X1032202D01*
Y-226710D01*
X1032656D01*
Y-227163D01*
X1033109D01*
Y-227617D01*
X1034016D01*
Y-228071D01*
X1034923D01*
Y-228524D01*
X1036284D01*
Y-228978D01*
X1038552D01*
Y-229431D01*
X1041273D01*
Y-228978D01*
X1043541D01*
Y-228524D01*
X1044902D01*
Y-228071D01*
X1045809D01*
Y-227617D01*
X1046716D01*
Y-227163D01*
X1047169D01*
Y-226710D01*
X1047623D01*
Y-226256D01*
X1048077D01*
Y-225803D01*
X1048530D01*
Y-225349D01*
X1048984D01*
Y-224896D01*
Y-224442D01*
X1049437D01*
Y-223988D01*
X1049891D01*
Y-223535D01*
Y-223081D01*
Y-222628D01*
X1050344D01*
Y-222174D01*
Y-221721D01*
Y-221267D01*
X1050798D01*
Y-220814D01*
Y-220360D01*
Y-219907D01*
Y-219453D01*
Y-218999D01*
X1051252D01*
Y-218546D01*
Y-218092D01*
Y-217639D01*
Y-217185D01*
Y-216732D01*
Y-216278D01*
Y-215825D01*
Y-215371D01*
Y-214917D01*
Y-214464D01*
Y-214010D01*
X1050798D01*
Y-213557D01*
Y-213103D01*
Y-212650D01*
Y-212196D01*
Y-211742D01*
Y-211289D01*
X1050344D01*
Y-210835D01*
Y-210382D01*
Y-209928D01*
X1049891D01*
Y-209475D01*
Y-209021D01*
X1049437D01*
Y-208568D01*
Y-208114D01*
X1048984D01*
Y-207661D01*
X1048530D01*
Y-207207D01*
X1048077D01*
Y-206753D01*
X1047623D01*
Y-206300D01*
X1047169D01*
Y-205846D01*
X1046716D01*
Y-205393D01*
X1045809D01*
Y-204939D01*
X1045355D01*
Y-204486D01*
X1043995D01*
Y-204032D01*
X1042180D01*
Y-203578D01*
D02*
G37*
%LPD*%
D10*
X247460Y65000D02*
X252540D01*
X250000Y62460D02*
Y67540D01*
X64920Y311500D02*
X75080D01*
X70000Y306420D02*
Y316580D01*
X2118430Y440930D02*
X2117946Y441898D01*
X2116978Y442865D01*
X2116011Y443349D01*
X2114076D01*
X2113109Y442865D01*
X2112141Y441898D01*
X2111658Y440930D01*
X2111174Y439479D01*
Y437061D01*
X2111658Y435610D01*
X2112141Y434642D01*
X2113109Y433675D01*
X2114076Y433191D01*
X2116011D01*
X2116978Y433675D01*
X2117946Y434642D01*
X2118430Y435610D01*
X2123702Y439963D02*
X2122735Y439479D01*
X2121767Y438512D01*
X2121284Y437061D01*
Y436093D01*
X2121767Y434642D01*
X2122735Y433675D01*
X2123702Y433191D01*
X2125153D01*
X2126120Y433675D01*
X2127088Y434642D01*
X2127572Y436093D01*
Y437061D01*
X2127088Y438512D01*
X2126120Y439479D01*
X2125153Y439963D01*
X2123702D01*
X2129797D02*
Y435126D01*
X2130280Y433675D01*
X2131248Y433191D01*
X2132699D01*
X2133666Y433675D01*
X2135117Y435126D01*
Y439963D02*
Y433191D01*
X2137778Y439963D02*
Y433191D01*
Y437061D02*
X2138262Y438512D01*
X2139229Y439479D01*
X2140196Y439963D01*
X2141647D01*
X2144018Y443349D02*
Y435126D01*
X2144501Y433675D01*
X2145469Y433191D01*
X2146436D01*
X2142567Y439963D02*
X2145952D01*
X2148371D02*
X2151273Y433191D01*
X2154176Y439963D02*
X2151273Y433191D01*
X2150306Y431256D01*
X2149338Y430289D01*
X2148371Y429805D01*
X2147887D01*
X2161673Y439963D02*
Y433191D01*
Y438512D02*
X2160706Y439479D01*
X2159738Y439963D01*
X2158287D01*
X2157320Y439479D01*
X2156352Y438512D01*
X2155868Y437061D01*
Y436093D01*
X2156352Y434642D01*
X2157320Y433675D01*
X2158287Y433191D01*
X2159738D01*
X2160706Y433675D01*
X2161673Y434642D01*
X2164382Y439963D02*
Y433191D01*
Y437061D02*
X2164865Y438512D01*
X2165833Y439479D01*
X2166800Y439963D01*
X2168251D01*
X2174975Y443349D02*
Y433191D01*
Y438512D02*
X2174007Y439479D01*
X2173040Y439963D01*
X2171589D01*
X2170621Y439479D01*
X2169654Y438512D01*
X2169170Y437061D01*
Y436093D01*
X2169654Y434642D01*
X2170621Y433675D01*
X2171589Y433191D01*
X2173040D01*
X2174007Y433675D01*
X2174975Y434642D01*
X2189051Y443349D02*
Y433191D01*
X2185665Y443349D02*
X2192437D01*
X2196064Y439963D02*
X2195097Y439479D01*
X2194129Y438512D01*
X2193646Y437061D01*
Y436093D01*
X2194129Y434642D01*
X2195097Y433675D01*
X2196064Y433191D01*
X2197516D01*
X2198483Y433675D01*
X2199450Y434642D01*
X2199934Y436093D01*
Y437061D01*
X2199450Y438512D01*
X2198483Y439479D01*
X2197516Y439963D01*
X2196064D01*
X2202159D02*
Y429805D01*
Y438512D02*
X2203127Y439479D01*
X2204094Y439963D01*
X2205545D01*
X2206512Y439479D01*
X2207480Y438512D01*
X2207964Y437061D01*
Y436093D01*
X2207480Y434642D01*
X2206512Y433675D01*
X2205545Y433191D01*
X2204094D01*
X2203127Y433675D01*
X2202159Y434642D01*
X1582360Y-165262D02*
Y-128686D01*
X1201360D02*
X1582360D01*
X772160D02*
X1201360D01*
X1582360Y-317662D02*
Y-165262D01*
X2115760Y-317662D02*
Y-187868D01*
X1201360Y-317662D02*
Y-128686D01*
X2344360Y-317662D02*
Y-128686D01*
X1582360D02*
X2344360D01*
X1201360Y-187106D02*
X2344360D01*
X1201360Y-250352D02*
X2344360D01*
X1201360Y-317662D02*
X2344360D01*
X772160D02*
Y-128686D01*
Y-317662D02*
X1201360D01*
X2227580Y1524508D02*
Y1681988D01*
X2057400Y1524508D02*
Y1681988D01*
X1562100Y1524508D02*
Y1681988D01*
X1470660D02*
X2344360D01*
X1470660Y1600708D02*
X2344360D01*
X1470660Y1638808D02*
X2344420D01*
X1470660Y1562608D02*
X2344360D01*
X1470660Y1524508D02*
X2344420D01*
X1470660D02*
Y1740408D01*
X-398780Y-367792D02*
X2395220D01*
X2344360Y171288D02*
X2395160D01*
X2344360Y711038D02*
X2395160D01*
X2344360Y1250788D02*
X2395160D01*
X2344360Y-317662D02*
Y1739738D01*
X2395220Y-367792D02*
Y1791208D01*
X-398780D02*
X2395220D01*
X1696660Y1739738D02*
Y1790538D01*
X998160Y1739738D02*
Y1790538D01*
X299660Y1739738D02*
Y1790538D01*
X-348040Y1739738D02*
X2344360D01*
X1696660Y-368462D02*
Y-317662D01*
X998160Y-368462D02*
Y-317662D01*
X299660Y-368462D02*
Y-317662D01*
X-398840Y171288D02*
X-348040D01*
X-398840Y711038D02*
X-348040D01*
X-398840Y1250788D02*
X-348040D01*
X-398780Y-367792D02*
Y1791208D01*
X-348040Y-317662D02*
Y1739738D01*
Y-317662D02*
X2344360D01*
X1588202Y-207172D02*
Y-194476D01*
X1594550D01*
X1596666Y-196592D01*
Y-200824D01*
X1594550Y-202940D01*
X1588202D01*
X1609362Y-196592D02*
X1607246Y-194476D01*
X1603014D01*
X1600898Y-196592D01*
Y-205056D01*
X1603014Y-207172D01*
X1607246D01*
X1609362Y-205056D01*
X1613594Y-194476D02*
Y-207172D01*
X1619942D01*
X1622058Y-205056D01*
Y-202940D01*
X1619942Y-200824D01*
X1613594D01*
X1619942D01*
X1622058Y-198708D01*
Y-196592D01*
X1619942Y-194476D01*
X1613594D01*
X1638985Y-207172D02*
Y-194476D01*
X1647449Y-207172D01*
Y-194476D01*
X1651681Y-207172D02*
Y-198708D01*
X1655913Y-194476D01*
X1660145Y-198708D01*
Y-207172D01*
Y-200824D01*
X1651681D01*
X1664377Y-207172D02*
Y-194476D01*
X1668609Y-198708D01*
X1672841Y-194476D01*
Y-207172D01*
X1685537Y-194476D02*
X1677073D01*
Y-207172D01*
X1685537D01*
X1677073Y-200824D02*
X1681305D01*
X1689769Y-198708D02*
X1691885D01*
Y-200824D01*
X1689769D01*
Y-198708D01*
Y-205056D02*
X1691885D01*
Y-207172D01*
X1689769D01*
Y-205056D01*
X2128542Y-262632D02*
X2126426Y-260516D01*
X2122194D01*
X2120078Y-262632D01*
Y-264748D01*
X2122194Y-266864D01*
X2126426D01*
X2128542Y-268980D01*
Y-271096D01*
X2126426Y-273212D01*
X2122194D01*
X2120078Y-271096D01*
X2141238Y-262632D02*
X2139122Y-260516D01*
X2134890D01*
X2132774Y-262632D01*
Y-271096D01*
X2134890Y-273212D01*
X2139122D01*
X2141238Y-271096D01*
X2145470Y-273212D02*
Y-264748D01*
X2149702Y-260516D01*
X2153934Y-264748D01*
Y-273212D01*
Y-266864D01*
X2145470D01*
X2158166Y-260516D02*
Y-273212D01*
X2166630D01*
X2179326Y-260516D02*
X2170862D01*
Y-273212D01*
X2179326D01*
X2170862Y-266864D02*
X2175094D01*
X2183557Y-264748D02*
X2185673D01*
Y-266864D01*
X2183557D01*
Y-264748D01*
Y-271096D02*
X2185673D01*
Y-273212D01*
X2183557D01*
Y-271096D01*
X1595964Y-258576D02*
X1587500D01*
Y-264924D01*
X1591732D01*
X1587500D01*
Y-271272D01*
X1600196Y-258576D02*
X1604428D01*
X1602312D01*
Y-271272D01*
X1600196D01*
X1604428D01*
X1610776Y-258576D02*
Y-271272D01*
X1619240D01*
X1631936Y-258576D02*
X1623472D01*
Y-271272D01*
X1631936D01*
X1623472Y-264924D02*
X1627704D01*
X1648864Y-271272D02*
Y-258576D01*
X1657327Y-271272D01*
Y-258576D01*
X1661559Y-271272D02*
Y-262808D01*
X1665791Y-258576D01*
X1670023Y-262808D01*
Y-271272D01*
Y-264924D01*
X1661559D01*
X1674255Y-271272D02*
Y-258576D01*
X1678487Y-262808D01*
X1682719Y-258576D01*
Y-271272D01*
X1695415Y-258576D02*
X1686951D01*
Y-271272D01*
X1695415D01*
X1686951Y-264924D02*
X1691183D01*
X1699647Y-262808D02*
X1701763D01*
Y-264924D01*
X1699647D01*
Y-262808D01*
Y-269156D02*
X1701763D01*
Y-271272D01*
X1699647D01*
Y-269156D01*
X1589472Y-152816D02*
Y-140120D01*
X1595820D01*
X1597936Y-142236D01*
Y-146468D01*
X1595820Y-148584D01*
X1589472D01*
X1602168Y-152816D02*
Y-140120D01*
X1608516D01*
X1610632Y-142236D01*
Y-146468D01*
X1608516Y-148584D01*
X1602168D01*
X1606400D02*
X1610632Y-152816D01*
X1621212Y-140120D02*
X1616980D01*
X1614864Y-142236D01*
Y-150700D01*
X1616980Y-152816D01*
X1621212D01*
X1623328Y-150700D01*
Y-142236D01*
X1621212Y-140120D01*
X1636024D02*
X1631792D01*
X1633908D01*
Y-150700D01*
X1631792Y-152816D01*
X1629676D01*
X1627560Y-150700D01*
X1648719Y-140120D02*
X1640255D01*
Y-152816D01*
X1648719D01*
X1640255Y-146468D02*
X1644487D01*
X1661415Y-142236D02*
X1659299Y-140120D01*
X1655067D01*
X1652951Y-142236D01*
Y-150700D01*
X1655067Y-152816D01*
X1659299D01*
X1661415Y-150700D01*
X1665647Y-140120D02*
X1674111D01*
X1669879D01*
Y-152816D01*
X1678343Y-144352D02*
X1680459D01*
Y-146468D01*
X1678343D01*
Y-144352D01*
Y-150700D02*
X1680459D01*
Y-152816D01*
X1678343D01*
Y-150700D01*
X1212872Y-140374D02*
X1204408D01*
Y-153070D01*
X1212872D01*
X1204408Y-146722D02*
X1208640D01*
X1217104Y-153070D02*
Y-140374D01*
X1225568Y-153070D01*
Y-140374D01*
X1238264Y-142490D02*
X1236148Y-140374D01*
X1231916D01*
X1229800Y-142490D01*
Y-150954D01*
X1231916Y-153070D01*
X1236148D01*
X1238264Y-150954D01*
Y-146722D01*
X1234032D01*
X1242496Y-140374D02*
X1246728D01*
X1244612D01*
Y-153070D01*
X1242496D01*
X1246728D01*
X1253076D02*
Y-140374D01*
X1261540Y-153070D01*
Y-140374D01*
X1274235D02*
X1265771D01*
Y-153070D01*
X1274235D01*
X1265771Y-146722D02*
X1270003D01*
X1286931Y-140374D02*
X1278467D01*
Y-153070D01*
X1286931D01*
X1278467Y-146722D02*
X1282699D01*
X1291163Y-153070D02*
Y-140374D01*
X1297511D01*
X1299627Y-142490D01*
Y-146722D01*
X1297511Y-148838D01*
X1291163D01*
X1295395D02*
X1299627Y-153070D01*
X1303859Y-144606D02*
X1305975D01*
Y-146722D01*
X1303859D01*
Y-144606D01*
Y-150954D02*
X1305975D01*
Y-153070D01*
X1303859D01*
Y-150954D01*
X1206500Y-258576D02*
Y-271272D01*
X1212848D01*
X1214964Y-269156D01*
Y-260692D01*
X1212848Y-258576D01*
X1206500D01*
X1219196D02*
Y-271272D01*
X1223428Y-267040D01*
X1227660Y-271272D01*
Y-258576D01*
X1240356Y-260692D02*
X1238240Y-258576D01*
X1234008D01*
X1231892Y-260692D01*
Y-269156D01*
X1234008Y-271272D01*
X1238240D01*
X1240356Y-269156D01*
Y-264924D01*
X1236124D01*
X1257283Y-271272D02*
Y-258576D01*
X1265748Y-271272D01*
Y-258576D01*
X1276327D02*
X1272095D01*
X1269979Y-260692D01*
Y-269156D01*
X1272095Y-271272D01*
X1276327D01*
X1278443Y-269156D01*
Y-260692D01*
X1276327Y-258576D01*
X1282675Y-262808D02*
X1284791D01*
Y-264924D01*
X1282675D01*
Y-262808D01*
Y-269156D02*
X1284791D01*
Y-271272D01*
X1282675D01*
Y-269156D01*
X2121348Y-210474D02*
Y-197778D01*
X2127696D01*
X2129812Y-199894D01*
Y-204126D01*
X2127696Y-206242D01*
X2121348D01*
X2125580D02*
X2129812Y-210474D01*
X2142508Y-197778D02*
X2134044D01*
Y-210474D01*
X2142508D01*
X2134044Y-204126D02*
X2138276D01*
X2146740Y-197778D02*
Y-206242D01*
X2150972Y-210474D01*
X2155204Y-206242D01*
Y-197778D01*
X2159436Y-202010D02*
X2161552D01*
Y-204126D01*
X2159436D01*
Y-202010D01*
Y-208358D02*
X2161552D01*
Y-210474D01*
X2159436D01*
Y-208358D01*
X1205170Y-195492D02*
Y-208188D01*
X1211518D01*
X1213634Y-206072D01*
Y-197608D01*
X1211518Y-195492D01*
X1205170D01*
X1217866Y-208188D02*
Y-199724D01*
X1222098Y-195492D01*
X1226330Y-199724D01*
Y-208188D01*
Y-201840D01*
X1217866D01*
X1230562Y-195492D02*
X1239026D01*
X1234794D01*
Y-208188D01*
X1251722Y-195492D02*
X1243258D01*
Y-208188D01*
X1251722D01*
X1243258Y-201840D02*
X1247490D01*
X1255954Y-199724D02*
X1258070D01*
Y-201840D01*
X1255954D01*
Y-199724D01*
Y-206072D02*
X1258070D01*
Y-208188D01*
X1255954D01*
Y-206072D01*
D11*
X2045134Y450463D02*
X2278814D01*
Y426333D02*
Y450463D01*
X2045134Y426333D02*
Y450463D01*
Y426333D02*
X2278814D01*
D13*
X2057834Y666617D02*
X2253414D01*
X2017194Y-103632D02*
Y711200D01*
X2304214D01*
Y-103632D02*
Y711200D01*
X2017194Y-103632D02*
X2304214D01*
X1282697Y-289056D02*
X1280157Y-286517D01*
X1275079D01*
X1272540Y-289056D01*
Y-299213D01*
X1275079Y-301752D01*
X1280157D01*
X1282697Y-299213D01*
X1297932Y-301752D02*
X1287775D01*
X1297932Y-291595D01*
Y-289056D01*
X1295393Y-286517D01*
X1290314D01*
X1287775Y-289056D01*
X1303010Y-301752D02*
X1308089D01*
X1305549D01*
Y-286517D01*
X1303010Y-289056D01*
X1315706D02*
X1318245Y-286517D01*
X1323324D01*
X1325863Y-289056D01*
Y-299213D01*
X1323324Y-301752D01*
X1318245D01*
X1315706Y-299213D01*
Y-289056D01*
X1712802Y-213704D02*
X1709417Y-210319D01*
X1702646D01*
X1699260Y-213704D01*
Y-227246D01*
X1702646Y-230632D01*
X1709417D01*
X1712802Y-227246D01*
X1733116Y-230632D02*
X1719573D01*
X1733116Y-217090D01*
Y-213704D01*
X1729730Y-210319D01*
X1722959D01*
X1719573Y-213704D01*
X1739887Y-230632D02*
X1746658D01*
X1743272D01*
Y-210319D01*
X1739887Y-213704D01*
X1756815D02*
X1760200Y-210319D01*
X1766971D01*
X1770357Y-213704D01*
Y-227246D01*
X1766971Y-230632D01*
X1760200D01*
X1756815Y-227246D01*
Y-213704D01*
X2193840Y-229422D02*
Y-209109D01*
X2203997D01*
X2207382Y-212494D01*
Y-219265D01*
X2203997Y-222651D01*
X2193840D01*
X2200611D02*
X2207382Y-229422D01*
X2224310D02*
X2217539D01*
X2214153Y-226036D01*
Y-219265D01*
X2217539Y-215880D01*
X2224310D01*
X2227696Y-219265D01*
Y-222651D01*
X2214153D01*
X2234467Y-215880D02*
X2241238Y-229422D01*
X2248009Y-215880D01*
X2275094Y-209109D02*
Y-229422D01*
X2285250D01*
X2288636Y-226036D01*
Y-222651D01*
X2285250Y-219265D01*
X2275094D01*
X2285250D01*
X2288636Y-215880D01*
Y-212494D01*
X2285250Y-209109D01*
X2275094D01*
X1712802Y-152744D02*
X1709417Y-149359D01*
X1702646D01*
X1699260Y-152744D01*
Y-166286D01*
X1702646Y-169672D01*
X1709417D01*
X1712802Y-166286D01*
X1733116Y-169672D02*
X1719573D01*
X1733116Y-156130D01*
Y-152744D01*
X1729730Y-149359D01*
X1722959D01*
X1719573Y-152744D01*
X1739887Y-169672D02*
X1746658D01*
X1743272D01*
Y-149359D01*
X1739887Y-152744D01*
X1756815D02*
X1760200Y-149359D01*
X1766971D01*
X1770357Y-152744D01*
Y-166286D01*
X1766971Y-169672D01*
X1760200D01*
X1756815Y-166286D01*
Y-152744D01*
X1332650Y-151898D02*
X1320800D01*
Y-169672D01*
X1332650D01*
X1320800Y-160785D02*
X1326725D01*
X1338574Y-169672D02*
Y-151898D01*
X1344499Y-157823D01*
X1350424Y-151898D01*
Y-169672D01*
X1365236Y-151898D02*
X1359311D01*
X1356349Y-154860D01*
Y-166710D01*
X1359311Y-169672D01*
X1365236D01*
X1368198Y-166710D01*
Y-154860D01*
X1365236Y-151898D01*
X1383010D02*
X1377085D01*
X1374123Y-154860D01*
Y-166710D01*
X1377085Y-169672D01*
X1383010D01*
X1385972Y-166710D01*
Y-154860D01*
X1383010Y-151898D01*
X1289469Y-212858D02*
X1283545Y-215820D01*
X1277620Y-221745D01*
Y-227670D01*
X1280582Y-230632D01*
X1286507D01*
X1289469Y-227670D01*
Y-224707D01*
X1286507Y-221745D01*
X1277620D01*
X1295394Y-230632D02*
X1307244Y-218783D01*
X1313168Y-230632D02*
X1319093D01*
X1316131D01*
Y-212858D01*
X1313168Y-215820D01*
X1327980Y-230632D02*
X1339830Y-218783D01*
X1357604Y-230632D02*
X1345755D01*
X1357604Y-218783D01*
Y-215820D01*
X1354642Y-212858D01*
X1348717D01*
X1345755Y-215820D01*
X1363529D02*
X1366491Y-212858D01*
X1372416D01*
X1375378Y-215820D01*
Y-227670D01*
X1372416Y-230632D01*
X1366491D01*
X1363529Y-227670D01*
Y-215820D01*
X1393153Y-230632D02*
X1381303D01*
X1393153Y-218783D01*
Y-215820D01*
X1390190Y-212858D01*
X1384266D01*
X1381303Y-215820D01*
X1410927Y-230632D02*
X1399077D01*
X1410927Y-218783D01*
Y-215820D01*
X1407965Y-212858D01*
X1402040D01*
X1399077Y-215820D01*
X1620517Y-286516D02*
X1617977Y-283977D01*
X1612899D01*
X1610360Y-286516D01*
Y-296673D01*
X1612899Y-299212D01*
X1617977D01*
X1620517Y-296673D01*
X1635752Y-299212D02*
X1625595D01*
X1635752Y-289055D01*
Y-286516D01*
X1633213Y-283977D01*
X1628134D01*
X1625595Y-286516D01*
X1640830Y-299212D02*
X1645909D01*
X1643369D01*
Y-283977D01*
X1640830Y-286516D01*
X1653526D02*
X1656065Y-283977D01*
X1661144D01*
X1663683Y-286516D01*
Y-296673D01*
X1661144Y-299212D01*
X1656065D01*
X1653526Y-296673D01*
Y-286516D01*
X1668761Y-301751D02*
X1678918D01*
X1694153Y-299212D02*
X1683996D01*
X1694153Y-289055D01*
Y-286516D01*
X1691614Y-283977D01*
X1686535D01*
X1683996Y-286516D01*
X1709388Y-299212D02*
X1699231D01*
X1709388Y-289055D01*
Y-286516D01*
X1706849Y-283977D01*
X1701770D01*
X1699231Y-286516D01*
X1714466D02*
X1717005Y-283977D01*
X1722084D01*
X1724623Y-286516D01*
Y-296673D01*
X1722084Y-299212D01*
X1717005D01*
X1714466Y-296673D01*
Y-286516D01*
X1739858Y-283977D02*
X1734780Y-286516D01*
X1729701Y-291595D01*
Y-296673D01*
X1732241Y-299212D01*
X1737319D01*
X1739858Y-296673D01*
Y-294134D01*
X1737319Y-291595D01*
X1729701D01*
X1744937Y-286516D02*
X1747476Y-283977D01*
X1752554D01*
X1755093Y-286516D01*
Y-296673D01*
X1752554Y-299212D01*
X1747476D01*
X1744937Y-296673D01*
Y-286516D01*
X1760172Y-299212D02*
X1765250D01*
X1762711D01*
Y-283977D01*
X1760172Y-286516D01*
X1772867Y-299212D02*
Y-296673D01*
X1775407D01*
Y-299212D01*
X1772867D01*
X1785563D02*
Y-283977D01*
X1793181D01*
X1795720Y-286516D01*
Y-291595D01*
X1793181Y-294134D01*
X1785563D01*
X1810955Y-289055D02*
X1803338D01*
X1800798Y-291595D01*
Y-296673D01*
X1803338Y-299212D01*
X1810955D01*
X1816033Y-283977D02*
Y-299212D01*
X1823651D01*
X1826190Y-296673D01*
Y-294134D01*
Y-291595D01*
X1823651Y-289055D01*
X1816033D01*
X1831268Y-283977D02*
Y-299212D01*
X1838886D01*
X1841425Y-296673D01*
Y-286516D01*
X1838886Y-283977D01*
X1831268D01*
X1849043Y-299212D02*
X1854121D01*
X1856660Y-296673D01*
Y-291595D01*
X1854121Y-289055D01*
X1849043D01*
X1846504Y-291595D01*
Y-296673D01*
X1849043Y-299212D01*
X1871895Y-289055D02*
X1864278D01*
X1861739Y-291595D01*
Y-296673D01*
X1864278Y-299212D01*
X1871895D01*
X924933Y-277057D02*
X923966Y-275123D01*
X922031Y-273188D01*
X920096Y-272220D01*
X916226D01*
X914292Y-273188D01*
X912357Y-275123D01*
X911389Y-277057D01*
X910422Y-279960D01*
Y-284797D01*
X911389Y-287699D01*
X912357Y-289634D01*
X914292Y-291569D01*
X916226Y-292536D01*
X920096D01*
X922031Y-291569D01*
X923966Y-289634D01*
X924933Y-287699D01*
X936445Y-272220D02*
X934510Y-273188D01*
X932576Y-275123D01*
X931608Y-277057D01*
X930641Y-279960D01*
Y-284797D01*
X931608Y-287699D01*
X932576Y-289634D01*
X934510Y-291569D01*
X936445Y-292536D01*
X940315D01*
X942250Y-291569D01*
X944185Y-289634D01*
X945152Y-287699D01*
X946120Y-284797D01*
Y-279960D01*
X945152Y-277057D01*
X944185Y-275123D01*
X942250Y-273188D01*
X940315Y-272220D01*
X936445D01*
X950860D02*
Y-292536D01*
Y-272220D02*
X964404Y-292536D01*
Y-272220D02*
Y-292536D01*
X970014Y-272220D02*
Y-292536D01*
Y-272220D02*
X982591D01*
X970014Y-281894D02*
X977754D01*
X984913Y-272220D02*
Y-292536D01*
X989169Y-272220D02*
Y-292536D01*
Y-272220D02*
X995941D01*
X998843Y-273188D01*
X1000778Y-275123D01*
X1001746Y-277057D01*
X1002713Y-279960D01*
Y-284797D01*
X1001746Y-287699D01*
X1000778Y-289634D01*
X998843Y-291569D01*
X995941Y-292536D01*
X989169D01*
X1019836Y-272220D02*
X1007260D01*
Y-292536D01*
X1019836D01*
X1007260Y-281894D02*
X1014999D01*
X1023222Y-272220D02*
Y-292536D01*
Y-272220D02*
X1036766Y-292536D01*
Y-272220D02*
Y-292536D01*
X1049149Y-272220D02*
Y-292536D01*
X1042377Y-272220D02*
X1055921D01*
X1058339D02*
Y-292536D01*
X1078074D02*
X1070335Y-272220D01*
X1062596Y-292536D01*
X1065498Y-285764D02*
X1075172D01*
X1082815Y-272220D02*
Y-292536D01*
X1094424D01*
X1490980Y1577848D02*
Y1590544D01*
X1497328D01*
X1499444Y1588428D01*
Y1584196D01*
X1497328Y1582080D01*
X1490980D01*
X1495212D02*
X1499444Y1577848D01*
X1510024D02*
X1505792D01*
X1503676Y1579964D01*
Y1584196D01*
X1505792Y1586312D01*
X1510024D01*
X1512140Y1584196D01*
Y1582080D01*
X1503676D01*
X1516372Y1586312D02*
X1520604Y1577848D01*
X1524836Y1586312D01*
X1541763Y1590544D02*
Y1577848D01*
X1548112D01*
X1550228Y1579964D01*
Y1582080D01*
X1548112Y1584196D01*
X1541763D01*
X1548112D01*
X1550228Y1586312D01*
Y1588428D01*
X1548112Y1590544D01*
X1541763D01*
X1608664D02*
X1600200D01*
Y1577848D01*
X1608664D01*
X1600200Y1584196D02*
X1604432D01*
X1612896Y1577848D02*
Y1586312D01*
X1619244D01*
X1621360Y1584196D01*
Y1577848D01*
X1629824Y1573616D02*
X1631940D01*
X1634056Y1575732D01*
Y1586312D01*
X1627708D01*
X1625592Y1584196D01*
Y1579964D01*
X1627708Y1577848D01*
X1634056D01*
X1638288D02*
X1642520D01*
X1640404D01*
Y1586312D01*
X1638288D01*
X1648868Y1577848D02*
Y1586312D01*
X1655215D01*
X1657332Y1584196D01*
Y1577848D01*
X1667911D02*
X1663679D01*
X1661564Y1579964D01*
Y1584196D01*
X1663679Y1586312D01*
X1667911D01*
X1670027Y1584196D01*
Y1582080D01*
X1661564D01*
X1680607Y1577848D02*
X1676375D01*
X1674259Y1579964D01*
Y1584196D01*
X1676375Y1586312D01*
X1680607D01*
X1682723Y1584196D01*
Y1582080D01*
X1674259D01*
X1686955Y1586312D02*
Y1577848D01*
Y1582080D01*
X1689071Y1584196D01*
X1691187Y1586312D01*
X1693303D01*
X1699651Y1577848D02*
X1703883D01*
X1701767D01*
Y1586312D01*
X1699651D01*
X1710231Y1577848D02*
Y1586312D01*
X1716579D01*
X1718695Y1584196D01*
Y1577848D01*
X1727159Y1573616D02*
X1729275D01*
X1731391Y1575732D01*
Y1586312D01*
X1725043D01*
X1722927Y1584196D01*
Y1579964D01*
X1725043Y1577848D01*
X1731391D01*
X1756783Y1588428D02*
X1754667Y1590544D01*
X1750435D01*
X1748319Y1588428D01*
Y1586312D01*
X1750435Y1584196D01*
X1754667D01*
X1756783Y1582080D01*
Y1579964D01*
X1754667Y1577848D01*
X1750435D01*
X1748319Y1579964D01*
X1763130Y1586312D02*
X1767363D01*
X1769478Y1584196D01*
Y1577848D01*
X1763130D01*
X1761015Y1579964D01*
X1763130Y1582080D01*
X1769478D01*
X1773710Y1577848D02*
Y1586312D01*
X1775826D01*
X1777942Y1584196D01*
Y1577848D01*
Y1584196D01*
X1780058Y1586312D01*
X1782174Y1584196D01*
Y1577848D01*
X1786406Y1573616D02*
Y1586312D01*
X1792754D01*
X1794870Y1584196D01*
Y1579964D01*
X1792754Y1577848D01*
X1786406D01*
X1799102D02*
X1803334D01*
X1801218D01*
Y1590544D01*
X1799102D01*
X1816030Y1577848D02*
X1811798D01*
X1809682Y1579964D01*
Y1584196D01*
X1811798Y1586312D01*
X1816030D01*
X1818146Y1584196D01*
Y1582080D01*
X1809682D01*
X2086184Y1590544D02*
X2081952Y1588428D01*
X2077720Y1584196D01*
Y1579964D01*
X2079836Y1577848D01*
X2084068D01*
X2086184Y1579964D01*
Y1582080D01*
X2084068Y1584196D01*
X2077720D01*
X2090416Y1577848D02*
X2098880Y1586312D01*
X2103112Y1577848D02*
X2107344D01*
X2105228D01*
Y1590544D01*
X2103112Y1588428D01*
X2113692Y1577848D02*
X2122156Y1586312D01*
X2134852Y1577848D02*
X2126388D01*
X2134852Y1586312D01*
Y1588428D01*
X2132735Y1590544D01*
X2128504D01*
X2126388Y1588428D01*
X2139084D02*
X2141199Y1590544D01*
X2145431D01*
X2147547Y1588428D01*
Y1579964D01*
X2145431Y1577848D01*
X2141199D01*
X2139084Y1579964D01*
Y1588428D01*
X2160243Y1577848D02*
X2151779D01*
X2160243Y1586312D01*
Y1588428D01*
X2158127Y1590544D01*
X2153895D01*
X2151779Y1588428D01*
X2172939Y1577848D02*
X2164475D01*
X2172939Y1586312D01*
Y1588428D01*
X2170823Y1590544D01*
X2166591D01*
X2164475Y1588428D01*
X2253824Y1590544D02*
X2245360D01*
Y1577848D01*
X2253824D01*
X2245360Y1584196D02*
X2249592D01*
X2258056Y1577848D02*
Y1590544D01*
X2262288Y1586312D01*
X2266520Y1590544D01*
Y1577848D01*
X2277100Y1590544D02*
X2272868D01*
X2270752Y1588428D01*
Y1579964D01*
X2272868Y1577848D01*
X2277100D01*
X2279216Y1579964D01*
Y1588428D01*
X2277100Y1590544D01*
X2289796D02*
X2285564D01*
X2283448Y1588428D01*
Y1579964D01*
X2285564Y1577848D01*
X2289796D01*
X2291912Y1579964D01*
Y1588428D01*
X2289796Y1590544D01*
X2253824Y1628644D02*
X2245360D01*
Y1615948D01*
X2253824D01*
X2245360Y1622296D02*
X2249592D01*
X2258056Y1615948D02*
Y1628644D01*
X2262288Y1624412D01*
X2266520Y1628644D01*
Y1615948D01*
X2277100Y1628644D02*
X2272868D01*
X2270752Y1626528D01*
Y1618064D01*
X2272868Y1615948D01*
X2277100D01*
X2279216Y1618064D01*
Y1626528D01*
X2277100Y1628644D01*
X2289796D02*
X2285564D01*
X2283448Y1626528D01*
Y1618064D01*
X2285564Y1615948D01*
X2289796D01*
X2291912Y1618064D01*
Y1626528D01*
X2289796Y1628644D01*
X2086184Y1626104D02*
X2077720D01*
Y1619756D01*
X2081952Y1621872D01*
X2084068D01*
X2086184Y1619756D01*
Y1615524D01*
X2084068Y1613408D01*
X2079836D01*
X2077720Y1615524D01*
X2090416Y1613408D02*
X2098880Y1621872D01*
X2111576Y1613408D02*
X2103112D01*
X2111576Y1621872D01*
Y1623988D01*
X2109460Y1626104D01*
X2105228D01*
X2103112Y1623988D01*
X2124272Y1626104D02*
X2115808D01*
Y1619756D01*
X2120040Y1621872D01*
X2122156D01*
X2124272Y1619756D01*
Y1615524D01*
X2122156Y1613408D01*
X2117924D01*
X2115808Y1615524D01*
X2128504Y1613408D02*
X2136967Y1621872D01*
X2149663Y1613408D02*
X2141199D01*
X2149663Y1621872D01*
Y1623988D01*
X2147547Y1626104D01*
X2143315D01*
X2141199Y1623988D01*
X2153895D02*
X2156011Y1626104D01*
X2160243D01*
X2162359Y1623988D01*
Y1615524D01*
X2160243Y1613408D01*
X2156011D01*
X2153895Y1615524D01*
Y1623988D01*
X2175055Y1613408D02*
X2166591D01*
X2175055Y1621872D01*
Y1623988D01*
X2172939Y1626104D01*
X2168707D01*
X2166591Y1623988D01*
X2179287Y1613408D02*
X2183519D01*
X2181403D01*
Y1626104D01*
X2179287Y1623988D01*
X1600200Y1615948D02*
Y1628644D01*
X1606548D01*
X1608664Y1626528D01*
Y1622296D01*
X1606548Y1620180D01*
X1600200D01*
X1612896Y1624412D02*
Y1615948D01*
Y1620180D01*
X1615012Y1622296D01*
X1617128Y1624412D01*
X1619244D01*
X1627708Y1615948D02*
X1631940D01*
X1634056Y1618064D01*
Y1622296D01*
X1631940Y1624412D01*
X1627708D01*
X1625592Y1622296D01*
Y1618064D01*
X1627708Y1615948D01*
X1640404Y1626528D02*
Y1624412D01*
X1638288D01*
X1642520D01*
X1640404D01*
Y1618064D01*
X1642520Y1615948D01*
X1650983D02*
X1655215D01*
X1657332Y1618064D01*
Y1622296D01*
X1655215Y1624412D01*
X1650983D01*
X1648868Y1622296D01*
Y1618064D01*
X1650983Y1615948D01*
X1663679Y1626528D02*
Y1624412D01*
X1661564D01*
X1665795D01*
X1663679D01*
Y1618064D01*
X1665795Y1615948D01*
X1672143Y1624412D02*
Y1618064D01*
X1674259Y1615948D01*
X1680607D01*
Y1613832D01*
X1678491Y1611716D01*
X1676375D01*
X1680607Y1615948D02*
Y1624412D01*
X1684839Y1611716D02*
Y1624412D01*
X1691187D01*
X1693303Y1622296D01*
Y1618064D01*
X1691187Y1615948D01*
X1684839D01*
X1703883D02*
X1699651D01*
X1697535Y1618064D01*
Y1622296D01*
X1699651Y1624412D01*
X1703883D01*
X1705999Y1622296D01*
Y1620180D01*
X1697535D01*
X1722927Y1615948D02*
Y1628644D01*
X1729275D01*
X1731391Y1626528D01*
Y1622296D01*
X1729275Y1620180D01*
X1722927D01*
X1727159D02*
X1731391Y1615948D01*
X1741971D02*
X1737739D01*
X1735623Y1618064D01*
Y1622296D01*
X1737739Y1624412D01*
X1741971D01*
X1744087Y1622296D01*
Y1620180D01*
X1735623D01*
X1748319Y1615948D02*
X1752551D01*
X1750435D01*
Y1628644D01*
X1748319D01*
X1765246Y1615948D02*
X1761015D01*
X1758899Y1618064D01*
Y1622296D01*
X1761015Y1624412D01*
X1765246D01*
X1767363Y1622296D01*
Y1620180D01*
X1758899D01*
X1773710Y1624412D02*
X1777942D01*
X1780058Y1622296D01*
Y1615948D01*
X1773710D01*
X1771595Y1618064D01*
X1773710Y1620180D01*
X1780058D01*
X1784290Y1615948D02*
X1790638D01*
X1792754Y1618064D01*
X1790638Y1620180D01*
X1786406D01*
X1784290Y1622296D01*
X1786406Y1624412D01*
X1792754D01*
X1803334Y1615948D02*
X1799102D01*
X1796986Y1618064D01*
Y1622296D01*
X1799102Y1624412D01*
X1803334D01*
X1805450Y1622296D01*
Y1620180D01*
X1796986D01*
X1490980Y1615948D02*
Y1628644D01*
X1497328D01*
X1499444Y1626528D01*
Y1622296D01*
X1497328Y1620180D01*
X1490980D01*
X1495212D02*
X1499444Y1615948D01*
X1510024D02*
X1505792D01*
X1503676Y1618064D01*
Y1622296D01*
X1505792Y1624412D01*
X1510024D01*
X1512140Y1622296D01*
Y1620180D01*
X1503676D01*
X1516372Y1624412D02*
X1520604Y1615948D01*
X1524836Y1624412D01*
X1541763Y1615948D02*
Y1624412D01*
X1545995Y1628644D01*
X1550228Y1624412D01*
Y1615948D01*
Y1622296D01*
X1541763D01*
X2258060Y1669283D02*
Y1654048D01*
X2265677D01*
X2268217Y1656587D01*
Y1659126D01*
X2265677Y1661665D01*
X2258060D01*
X2265677D01*
X2268217Y1664205D01*
Y1666744D01*
X2265677Y1669283D01*
X2258060D01*
X2273295D02*
Y1666744D01*
X2278373Y1661665D01*
X2283452Y1666744D01*
Y1669283D01*
X2278373Y1661665D02*
Y1654048D01*
X2098040Y1669283D02*
Y1654048D01*
X2105658D01*
X2108197Y1656587D01*
Y1666744D01*
X2105658Y1669283D01*
X2098040D01*
X2113275Y1654048D02*
Y1664205D01*
X2118353Y1669283D01*
X2123432Y1664205D01*
Y1654048D01*
Y1661665D01*
X2113275D01*
X2128510Y1669283D02*
X2138667D01*
X2133589D01*
Y1654048D01*
X2153902Y1669283D02*
X2143745D01*
Y1654048D01*
X2153902D01*
X2143745Y1661665D02*
X2148824D01*
X1600200Y1669283D02*
Y1654048D01*
X1607818D01*
X1610357Y1656587D01*
Y1666744D01*
X1607818Y1669283D01*
X1600200D01*
X1625592D02*
X1615435D01*
Y1654048D01*
X1625592D01*
X1615435Y1661665D02*
X1620513D01*
X1640827Y1666744D02*
X1638288Y1669283D01*
X1633209D01*
X1630670Y1666744D01*
Y1664205D01*
X1633209Y1661665D01*
X1638288D01*
X1640827Y1659126D01*
Y1656587D01*
X1638288Y1654048D01*
X1633209D01*
X1630670Y1656587D01*
X1656062Y1666744D02*
X1653523Y1669283D01*
X1648444D01*
X1645905Y1666744D01*
Y1656587D01*
X1648444Y1654048D01*
X1653523D01*
X1656062Y1656587D01*
X1661140Y1654048D02*
Y1669283D01*
X1668758D01*
X1671297Y1666744D01*
Y1661665D01*
X1668758Y1659126D01*
X1661140D01*
X1666219D02*
X1671297Y1654048D01*
X1676375Y1669283D02*
X1681454D01*
X1678914D01*
Y1654048D01*
X1676375D01*
X1681454D01*
X1689071D02*
Y1669283D01*
X1696689D01*
X1699228Y1666744D01*
Y1661665D01*
X1696689Y1659126D01*
X1689071D01*
X1704306Y1669283D02*
X1714463D01*
X1709385D01*
Y1654048D01*
X1719541Y1669283D02*
X1724620D01*
X1722081D01*
Y1654048D01*
X1719541D01*
X1724620D01*
X1739855Y1669283D02*
X1734776D01*
X1732237Y1666744D01*
Y1656587D01*
X1734776Y1654048D01*
X1739855D01*
X1742394Y1656587D01*
Y1666744D01*
X1739855Y1669283D01*
X1747472Y1654048D02*
Y1669283D01*
X1757629Y1654048D01*
Y1669283D01*
X1490980Y1654048D02*
Y1669283D01*
X1498598D01*
X1501137Y1666744D01*
Y1661665D01*
X1498598Y1659126D01*
X1490980D01*
X1496058D02*
X1501137Y1654048D01*
X1516372Y1669283D02*
X1506215D01*
Y1654048D01*
X1516372D01*
X1506215Y1661665D02*
X1511293D01*
X1521450Y1669283D02*
Y1659126D01*
X1526528Y1654048D01*
X1531607Y1659126D01*
Y1669283D01*
X1849120Y1697228D02*
Y1717541D01*
X1859277D01*
X1862662Y1714156D01*
Y1707385D01*
X1859277Y1703999D01*
X1849120D01*
X1855891D02*
X1862662Y1697228D01*
X1882976Y1717541D02*
X1869433D01*
Y1697228D01*
X1882976D01*
X1869433Y1707385D02*
X1876205D01*
X1889747Y1717541D02*
Y1703999D01*
X1896518Y1697228D01*
X1903289Y1703999D01*
Y1717541D01*
X1910060D02*
X1916831D01*
X1913446D01*
Y1697228D01*
X1910060D01*
X1916831D01*
X1940530Y1714156D02*
X1937145Y1717541D01*
X1930374D01*
X1926988Y1714156D01*
Y1710770D01*
X1930374Y1707385D01*
X1937145D01*
X1940530Y1703999D01*
Y1700614D01*
X1937145Y1697228D01*
X1930374D01*
X1926988Y1700614D01*
X1947301Y1717541D02*
X1954073D01*
X1950687D01*
Y1697228D01*
X1947301D01*
X1954073D01*
X1974386Y1717541D02*
X1967615D01*
X1964229Y1714156D01*
Y1700614D01*
X1967615Y1697228D01*
X1974386D01*
X1977772Y1700614D01*
Y1714156D01*
X1974386Y1717541D01*
X1984543Y1697228D02*
Y1717541D01*
X1998085Y1697228D01*
Y1717541D01*
D16*
X284200Y2703D02*
X385800D01*
X330000Y17203D02*
X340000D01*
X335000Y12203D02*
Y22203D01*
X527500Y315063D02*
Y325063D01*
X522500Y320063D02*
X532500Y320063D01*
X55000Y351500D02*
X125000D01*
Y271500D02*
Y351500D01*
X55000Y271500D02*
X125000D01*
X55000D02*
Y351500D01*
X198000Y937500D02*
Y942500D01*
Y932500D02*
Y937500D01*
X193000D02*
X203000D01*
X228473Y817750D02*
Y827750D01*
X223473Y822750D02*
X233473D01*
X586632Y402793D02*
Y407793D01*
X581632Y402793D02*
X586632D01*
X591632D01*
X586632Y397793D02*
Y402793D01*
X521632Y347793D02*
X651632D01*
X521632D02*
Y457793D01*
X651632D01*
Y347793D02*
Y457793D01*
X422750Y669250D02*
Y679250D01*
X417750Y674250D02*
X427750D01*
X468551Y717480D02*
X478551D01*
X473551Y712480D02*
Y722480D01*
X583202Y705381D02*
Y715381D01*
X578202Y710381D02*
X588202D01*
X325363Y628807D02*
Y638807D01*
X320363Y633807D02*
X330363D01*
X325363Y579917D02*
Y589917D01*
X320363Y584917D02*
X330363D01*
X322974Y799304D02*
X332974D01*
X327974Y794304D02*
Y804304D01*
X437250Y717500D02*
X447250D01*
X442250Y712500D02*
Y722500D01*
X56250Y656577D02*
Y666577D01*
X51250Y661577D02*
X61250D01*
X181723Y817750D02*
Y827750D01*
X176723Y822750D02*
X186723D01*
X208997Y936500D02*
X200666D01*
X199000Y934834D01*
Y931501D01*
X200666Y929835D01*
X208997D01*
X199000Y926503D02*
Y923171D01*
Y924837D01*
X208997D01*
X207331Y926503D01*
X607500Y917247D02*
Y908916D01*
X609166Y907250D01*
X612498D01*
X614165Y908916D01*
Y917247D01*
X617497Y915581D02*
X619163Y917247D01*
X622495D01*
X624161Y915581D01*
Y913914D01*
X622495Y912248D01*
X620829D01*
X622495D01*
X624161Y910582D01*
Y908916D01*
X622495Y907250D01*
X619163D01*
X617497Y908916D01*
X587632Y413790D02*
Y405459D01*
X589298Y403793D01*
X592631D01*
X594297Y405459D01*
Y413790D01*
X604293Y403793D02*
X597629D01*
X604293Y410457D01*
Y412124D01*
X602627Y413790D01*
X599295D01*
X597629Y412124D01*
X612624Y403793D02*
Y413790D01*
X607626Y408791D01*
X614290D01*
D23*
X255080Y100560D02*
G03*
X244920Y100560I-5080J-3810D01*
G01*
X269050Y77700D02*
G03*
X267780Y81510I-6350J0D01*
G01*
X232220D02*
G03*
X230950Y77700I5080J-3810D01*
G01*
X262700Y26900D02*
G03*
X269050Y33250I0J6350D01*
G01*
X230950D02*
G03*
X237300Y26900I6350J0D01*
G01*
X156250Y546000D02*
X175000D01*
X156250Y586000D02*
X175000D01*
X156250Y546000D02*
Y586000D01*
X175000Y546000D02*
Y586000D01*
X165750Y561000D02*
Y571000D01*
X160750Y566000D02*
X170750D01*
X216618Y423401D02*
Y429401D01*
X213618Y426401D02*
X219618D01*
X204118Y411901D02*
Y440901D01*
X229118Y440901D01*
X229118Y411901D01*
X204118D02*
X229118D01*
X38113Y948500D02*
Y953500D01*
Y950000D02*
Y952000D01*
X35613Y951000D02*
X40613D01*
X25613Y934000D02*
Y968000D01*
X50613D01*
Y934000D02*
Y968000D01*
X25613Y934000D02*
X50613D01*
X112350Y672400D02*
X119350D01*
X115850Y668900D02*
Y675900D01*
X89942Y638364D02*
X141758D01*
Y706436D01*
X89942D02*
X141758D01*
X89942Y638364D02*
Y706436D01*
X383000Y-10032D02*
Y55708D01*
X287000Y-10032D02*
X287005Y55708D01*
X287000Y-10032D02*
X383000D01*
X287000Y55708D02*
X383000D01*
X28750Y1064250D02*
X73750D01*
X28750Y1029250D02*
Y1064250D01*
Y1029250D02*
X73750D01*
Y1064250D01*
X48750Y1046750D02*
X53750D01*
X51250Y1045750D02*
Y1047750D01*
Y1044250D02*
Y1049250D01*
X255080Y100560D02*
X267780Y81510D01*
X232220D02*
X244920Y100560D01*
X237300Y26900D02*
X262700D01*
X269050Y33250D02*
Y77700D01*
X230950Y33250D02*
Y77700D01*
X440250Y389500D02*
X440250Y370500D01*
X461250D02*
Y389500D01*
X440250D02*
X461250D01*
X440250Y370500D02*
X461250D01*
X445750Y380000D02*
X455750D01*
X450750Y375000D02*
Y385000D01*
X517250Y309813D02*
X537750Y309813D01*
X517250Y330313D02*
X537750D01*
Y309813D02*
Y330313D01*
X517250Y309813D02*
Y330313D01*
X566750Y746582D02*
X570750D01*
X568750Y744582D02*
Y748582D01*
X553750Y767582D02*
X583750D01*
Y725582D02*
Y767582D01*
X553750Y725582D02*
Y767582D01*
Y725582D02*
X583750D01*
X383250Y706500D02*
X415250Y706500D01*
X383250Y740500D02*
X415250Y740500D01*
X383250Y740500D02*
X383250Y706500D01*
X415250Y740500D02*
X415250Y706500D01*
X399250Y728500D02*
X399250Y718500D01*
X394250Y723500D02*
X404250Y723500D01*
X363750Y425543D02*
X369750Y425543D01*
X367000Y422293D02*
X367000Y428543D01*
X363000Y433043D02*
X363000Y418543D01*
X371000Y433043D02*
X371000Y418543D01*
X363000Y418543D02*
X371000Y418543D01*
X363000Y433043D02*
X371000Y433043D01*
X574000Y1014250D02*
X586000D01*
Y1035750D01*
X574000D02*
X586000D01*
X574000Y1014250D02*
Y1035750D01*
X507792Y428828D02*
X523792D01*
Y442828D01*
X507792D02*
X523792D01*
X507792Y428828D02*
Y442828D01*
X513292Y435828D02*
X518292D01*
X515792Y434828D02*
Y436828D01*
Y433328D02*
Y438328D01*
X2250Y1060000D02*
X197250D01*
Y1202000D01*
X2250D02*
X197250D01*
X2250Y1060000D02*
Y1202000D01*
X85250Y1128500D02*
Y1133500D01*
X84250Y1131000D02*
X86250D01*
X82750D02*
X87750D01*
X338000Y847500D02*
Y1027500D01*
X58000Y847500D02*
X338000D01*
X58000D02*
Y1027500D01*
X338000D01*
X406000Y452750D02*
X412000D01*
X409000Y449750D02*
Y455750D01*
X405000Y444750D02*
Y460750D01*
X413000Y444750D02*
Y460750D01*
X405000Y444750D02*
X413000D01*
X405000Y460750D02*
X413000D01*
X144710Y428969D02*
X149790D01*
X147250Y426429D02*
Y431509D01*
X181540Y394679D02*
Y430239D01*
X112960Y394679D02*
X181540D01*
X112960D02*
Y464529D01*
X181540D01*
Y430239D02*
Y464529D01*
X514682Y624230D02*
X549682D01*
X514682D02*
Y659230D01*
X549682D01*
Y624230D02*
Y659230D01*
X532182Y638230D02*
Y645230D01*
X528682Y641730D02*
X535682D01*
X204973Y841250D02*
X251973D01*
X204973Y804250D02*
X251973D01*
X204973Y841250D02*
X204973Y804250D01*
X251973D02*
Y841250D01*
X243000Y759077D02*
X348000D01*
Y654077D02*
Y759077D01*
X295500Y701577D02*
Y711577D01*
X290500Y706577D02*
X300500D01*
X243000Y654077D02*
X348000D01*
X243000D02*
Y759077D01*
X512944Y494871D02*
X536820D01*
X512944D02*
Y516715D01*
X536820Y516715D01*
Y494871D02*
Y516715D01*
X524882Y502293D02*
X524882Y509293D01*
X521382Y505793D02*
X528382Y505793D01*
X421500Y426250D02*
X437500Y426250D01*
Y412250D02*
Y426250D01*
X421500Y412250D02*
X437500D01*
X421500D02*
Y426250D01*
X427500Y419250D02*
X431500Y419250D01*
X429500Y417250D02*
Y421250D01*
X3500Y629500D02*
X150500D01*
Y521500D02*
Y629500D01*
X67000Y576500D02*
X77000D01*
X72000Y571500D02*
Y581500D01*
X3500Y521500D02*
Y629500D01*
Y521500D02*
X150500D01*
X601500Y906250D02*
X611500D01*
X677750Y854250D02*
Y958250D01*
X533750Y854250D02*
X677750D01*
X606500Y901250D02*
Y911250D01*
X533750Y854250D02*
Y958250D01*
X677750D01*
X384700Y426871D02*
Y432871D01*
X381700Y429871D02*
X387700D01*
X20500Y889000D02*
X66250D01*
Y839000D02*
Y889000D01*
X20500Y839000D02*
X66250D01*
X20500D02*
Y889000D01*
X38000Y864000D02*
X41000D01*
X35000D02*
X41000D01*
X35000D02*
X38000D01*
Y861000D02*
Y864000D01*
Y867000D01*
X141250Y681750D02*
X153250D01*
X141250Y657750D02*
X153250D01*
Y681750D01*
X141250Y657750D02*
Y681750D01*
X147250Y665000D02*
Y674500D01*
X142500Y669750D02*
X152000D01*
X152500Y681750D02*
X164500D01*
X152500Y657750D02*
X164500D01*
Y681750D01*
X152500Y657750D02*
Y681750D01*
X158500Y665000D02*
Y674500D01*
X153750Y669750D02*
X163250D01*
X348500Y844000D02*
Y856000D01*
X324500Y844000D02*
Y856000D01*
Y844000D02*
X348500D01*
X324500Y856000D02*
X348500D01*
X331750Y850000D02*
X341250D01*
X336500Y845250D02*
Y854750D01*
X340000Y322500D02*
X340000Y317500D01*
X340000Y319000D02*
X340000Y321000D01*
X337500Y320000D02*
X342500Y320000D01*
X352000Y308000D02*
X352000Y332000D01*
X328000Y308000D02*
X352000Y308000D01*
X328000Y308000D02*
X328000Y332000D01*
X352000Y332000D01*
X276750Y297500D02*
X281750Y297500D01*
X278250D02*
X280250Y297500D01*
X279250Y300000D02*
X279250Y295000D01*
X267250Y285500D02*
X291250Y285500D01*
X267250Y285500D02*
X267250Y309500D01*
X291250Y309500D01*
X291250Y285500D02*
X291250Y309500D01*
X625500Y545710D02*
Y550790D01*
X622960Y548250D02*
X628040D01*
X619700Y534150D02*
X631400D01*
Y562250D01*
X619700D02*
X631400D01*
X619700Y534150D02*
Y562250D01*
X352500Y56250D02*
Y74250D01*
X384500Y56250D02*
Y74250D01*
X352500D02*
X384500D01*
X352500Y56250D02*
X384500D01*
X363500Y65250D02*
X373500D01*
X368500Y60250D02*
Y70250D01*
X398750Y418371D02*
X406750Y418371D01*
X398750Y433371D02*
X406750D01*
X398750Y418371D02*
Y433371D01*
X406750Y418371D02*
X406750Y433371D01*
X402750Y423121D02*
Y428621D01*
X400000Y425871D02*
X405500D01*
X362750Y1008500D02*
Y1014000D01*
X360000Y1011250D02*
X365500D01*
X354750Y1015250D02*
X370750D01*
X354750Y1007250D02*
X370750D01*
X354750D02*
Y1015250D01*
X370750Y1007250D02*
Y1015250D01*
X412750Y310900D02*
Y315900D01*
Y312400D02*
Y314400D01*
X410250Y313400D02*
X415250D01*
X395250Y295900D02*
Y330900D01*
X430250D01*
Y295900D02*
Y330900D01*
X395250Y295900D02*
X430250D01*
X327351Y509634D02*
Y539634D01*
X292351Y509634D02*
X327351Y509634D01*
X292351Y509634D02*
Y539634D01*
X327351Y539634D01*
X309851Y522634D02*
Y526634D01*
X307851Y524634D02*
X311851D01*
X593750Y630000D02*
Y654000D01*
X640750Y630000D02*
Y654000D01*
X593750D02*
X640750D01*
X593750Y630000D02*
X640750D01*
X612250Y642000D02*
X622250D01*
X617250Y637000D02*
Y647000D01*
X172500Y27000D02*
Y33000D01*
X169500Y30000D02*
X175500D01*
X165250Y774000D02*
Y792000D01*
X187250D01*
Y774000D02*
Y792000D01*
X165250Y774000D02*
X187250D01*
X176250Y781000D02*
Y785000D01*
X174250Y783000D02*
X178250D01*
X418000Y31000D02*
Y114000D01*
Y-53000D02*
Y31000D01*
Y-53000D02*
X562000D01*
X418007Y114007D02*
X562000D01*
Y-53000D02*
Y114007D01*
X404750Y693250D02*
X440750D01*
X404750Y655250D02*
X440750D01*
Y693250D01*
X404750Y655250D02*
Y693250D01*
X379306Y510384D02*
Y537384D01*
X350806Y510384D02*
X379306D01*
X361556Y523884D02*
X368556D01*
X365056Y520384D02*
Y527384D01*
X350806Y537384D02*
X379306D01*
X350806Y510384D02*
Y537384D01*
X489551Y693980D02*
Y740980D01*
X457551Y693980D02*
Y740980D01*
X489551D01*
X457551Y693980D02*
X489551D01*
X582500Y655000D02*
X586500D01*
X584500Y653000D02*
Y657000D01*
X574500Y665000D02*
X594500Y665000D01*
X574500Y645000D02*
Y665000D01*
Y645000D02*
X594500Y645000D01*
Y665000D01*
X284250Y841000D02*
X294250D01*
X289250Y836000D02*
Y846000D01*
X296750Y825500D02*
Y856500D01*
X281750Y825500D02*
Y856500D01*
X296750D01*
X281750Y825500D02*
X296750D01*
X466929Y421750D02*
X474000Y414679D01*
X466929Y421750D02*
X474000Y428821D01*
X481071Y421750D01*
X474000Y414679D02*
X481071Y421750D01*
X472586Y423164D02*
X475414Y420336D01*
X472586D02*
X475414Y423164D01*
X650000Y1030000D02*
Y1040000D01*
X645000Y1035000D02*
X655000D01*
X636000Y1058000D02*
X636000Y1012000D01*
X636000Y1058000D02*
X663750D01*
X663750Y1012000D02*
X663750Y1058000D01*
X636000Y1012000D02*
X663750Y1012000D01*
X305250Y369673D02*
X305250Y329423D01*
X247750Y329423D02*
X305250Y329423D01*
X247750Y369673D02*
X247750Y329423D01*
X247750Y369673D02*
X305250Y369673D01*
X276500Y347673D02*
Y351673D01*
X274500Y349673D02*
X278500D01*
X303012Y70953D02*
X313012D01*
X308012Y65953D02*
Y75953D01*
X315512Y55453D02*
Y86453D01*
X300512Y55453D02*
Y86453D01*
X315512D01*
X300512Y55453D02*
X315512D01*
X169667Y343245D02*
Y349245D01*
X166667Y346245D02*
X172666D01*
X161667Y350245D02*
X177667D01*
X161667Y342245D02*
X177667D01*
X161667D02*
Y350245D01*
X177667Y342245D02*
Y350245D01*
X559702Y694381D02*
X606702D01*
X559702Y726381D02*
X606702D01*
Y694381D02*
Y726381D01*
X559702Y694381D02*
Y726381D01*
X463040Y108750D02*
Y114750D01*
X460039Y111750D02*
X466040D01*
X455039Y115750D02*
X471040D01*
X455039Y107750D02*
X471040D01*
X455039D02*
Y115750D01*
X471040Y107750D02*
Y115750D01*
X463040Y117250D02*
Y123250D01*
X460039Y120250D02*
X466040D01*
X455039Y124250D02*
X471040D01*
X455039Y116250D02*
X471040D01*
X455039D02*
Y124250D01*
X471040Y116250D02*
Y124250D01*
X463040Y125750D02*
Y131750D01*
X460039Y128750D02*
X466039D01*
X455039Y124750D02*
X471040D01*
X455039Y132750D02*
X471040D01*
Y124750D02*
Y132750D01*
X455039Y124750D02*
Y132750D01*
X439049Y222263D02*
Y228263D01*
X436049Y225263D02*
X442049D01*
X431049Y229263D02*
X447049D01*
X431049Y221263D02*
X447049D01*
X431049D02*
Y229263D01*
X447049Y221263D02*
Y229263D01*
X422049Y216013D02*
X428049D01*
X425049Y213013D02*
Y219013D01*
X429049Y208013D02*
Y224013D01*
X421049Y208013D02*
Y224013D01*
X429049D01*
X421049Y208013D02*
X429049D01*
X411102Y222263D02*
Y228263D01*
X408102Y225263D02*
X414102D01*
X403102Y221263D02*
X419102D01*
X403102Y229263D02*
X419102D01*
Y221263D02*
Y229263D01*
X403102Y221263D02*
Y229263D01*
X205415Y794738D02*
X223415D01*
Y772738D02*
Y794738D01*
X205415Y772738D02*
X223415D01*
X205415D02*
Y794738D01*
X212415Y783738D02*
X216415D01*
X214415Y781738D02*
Y785738D01*
X122905Y270000D02*
X167905D01*
Y305000D01*
X122905D02*
X167905D01*
X122905Y270000D02*
Y305000D01*
X142905Y287500D02*
X147905D01*
X145405Y286500D02*
Y288500D01*
Y285000D02*
Y290000D01*
X462100Y888250D02*
X468100D01*
X465100Y885250D02*
Y891250D01*
X469100Y880250D02*
Y896250D01*
X461100Y880250D02*
Y896250D01*
X469100D01*
X461100Y880250D02*
X469100D01*
X634250Y527358D02*
X640250D01*
X637250Y524358D02*
Y530358D01*
X633250Y519358D02*
Y535358D01*
X641250Y519358D02*
Y535358D01*
X633250Y519358D02*
X641250D01*
X633250Y535358D02*
X641250D01*
X642250Y527319D02*
X648250D01*
X645250Y524319D02*
Y530319D01*
X641250Y519319D02*
Y535319D01*
X649250Y519319D02*
Y535319D01*
X641250Y519319D02*
X649250D01*
X641250Y535319D02*
X649250D01*
X612882Y554250D02*
X618882D01*
X615882Y551250D02*
Y557250D01*
X619882Y546250D02*
Y562250D01*
X611882Y546250D02*
Y562250D01*
X619882D01*
X611882Y546250D02*
X619882D01*
X158422Y776073D02*
Y782073D01*
X155422Y779073D02*
X161422D01*
X150422Y775073D02*
X166422D01*
X150422Y783073D02*
X166422D01*
Y775073D02*
Y783073D01*
X150422Y775073D02*
Y783073D01*
X188500Y781000D02*
X194500D01*
X191500Y778000D02*
Y784000D01*
X195500Y773000D02*
Y789000D01*
X187500Y773000D02*
Y789000D01*
X195500D01*
X187500Y773000D02*
X195500D01*
X230250Y774500D02*
Y780500D01*
X227250Y777500D02*
X233250D01*
X222250Y781500D02*
X238250D01*
X222250Y773500D02*
X238250D01*
X222250D02*
Y781500D01*
X238250Y773500D02*
Y781500D01*
X197250Y781000D02*
X203250D01*
X200250Y778000D02*
Y784000D01*
X204250Y773000D02*
Y789000D01*
X196250Y773000D02*
Y789000D01*
X204250D01*
X196250Y773000D02*
X204250D01*
X201000Y680655D02*
X219000D01*
Y658655D02*
Y680655D01*
X201000Y658655D02*
X219000D01*
X201000D02*
Y680655D01*
X208000Y669655D02*
X212000D01*
X210000Y667655D02*
Y671655D01*
X463750Y895250D02*
X481750D01*
X463750D02*
Y917250D01*
X481750D01*
Y895250D02*
Y917250D01*
X470750Y906250D02*
X474750D01*
X472750Y904250D02*
Y908250D01*
X631250Y465750D02*
X649250D01*
X631250D02*
Y487750D01*
X649250D01*
Y465750D02*
Y487750D01*
X638250Y476750D02*
X642250D01*
X640250Y474750D02*
Y478750D01*
X466850Y864710D02*
Y869790D01*
X464310Y867250D02*
X469390D01*
X461050Y853150D02*
X472750D01*
Y881250D01*
X461050D02*
X472750D01*
X461050Y853150D02*
Y881250D01*
X630750Y536000D02*
X642750D01*
X630750Y560000D02*
X642750D01*
X630750Y536000D02*
Y560000D01*
X642750Y536000D02*
Y560000D01*
X636750Y543250D02*
Y552750D01*
X632000Y548000D02*
X641500D01*
X643000Y535957D02*
X655000D01*
X643000Y559957D02*
X655000D01*
X643000Y535957D02*
Y559957D01*
X655000Y535957D02*
Y559957D01*
X649000Y543207D02*
Y552707D01*
X644250Y547957D02*
X653750D01*
X154250Y768250D02*
X166250D01*
X154250Y744250D02*
X166250D01*
Y768250D01*
X154250Y744250D02*
Y768250D01*
X160250Y751500D02*
Y761000D01*
X155500Y756250D02*
X165000D01*
X165500Y768250D02*
X177500D01*
X165500Y744250D02*
X177500D01*
Y768250D01*
X165500Y744250D02*
Y768250D01*
X171500Y751500D02*
Y761000D01*
X166750Y756250D02*
X176250D01*
X191169Y755043D02*
X203169D01*
X191169Y731043D02*
X203169D01*
Y755043D01*
X191169Y731043D02*
Y755043D01*
X197169Y738293D02*
Y747794D01*
X192419Y743044D02*
X201919D01*
X202615Y755043D02*
X214615D01*
X202615Y731043D02*
X214615D01*
Y755043D01*
X202615Y731043D02*
Y755043D01*
X208615Y738293D02*
Y747794D01*
X203865Y743044D02*
X213365D01*
X497750Y883250D02*
X503750D01*
X500750Y880250D02*
Y886250D01*
X504750Y875250D02*
Y891250D01*
X496750Y875250D02*
Y891250D01*
X504750D01*
X496750Y875250D02*
X504750D01*
X506250Y883250D02*
X512250D01*
X509250Y880250D02*
Y886250D01*
X513250Y875250D02*
Y891250D01*
X505250Y875250D02*
Y891250D01*
X513250D01*
X505250Y875250D02*
X513250D01*
X502750Y906500D02*
X509750D01*
X506250Y903000D02*
Y910000D01*
X491264Y895578D02*
Y917422D01*
Y895578D02*
X521236D01*
Y917422D01*
X491264D02*
X521236D01*
X514750Y883250D02*
X520750D01*
X517750Y880250D02*
Y886250D01*
X521750Y875250D02*
Y891250D01*
X513750Y875250D02*
Y891250D01*
X521750D01*
X513750Y875250D02*
X521750D01*
X496028Y955250D02*
X502028D01*
X499028Y952250D02*
Y958250D01*
X495028Y947250D02*
Y963250D01*
X503028Y947250D02*
Y963250D01*
X495028Y947250D02*
X503028D01*
X495028Y963250D02*
X503028D01*
X503000Y958000D02*
X522000Y958000D01*
X503000Y937000D02*
X522000D01*
Y958000D01*
X503000Y937000D02*
Y958000D01*
X512500Y942500D02*
Y952500D01*
X507500Y947500D02*
X517500D01*
X472500Y879250D02*
X484500D01*
X472500Y855250D02*
X484500D01*
Y879250D01*
X472500Y855250D02*
Y879250D01*
X478500Y862500D02*
Y872000D01*
X473750Y867250D02*
X483250D01*
X484750Y879250D02*
X496750D01*
X484750Y855250D02*
X496750D01*
Y879250D01*
X484750Y855250D02*
Y879250D01*
X490750Y862500D02*
Y872000D01*
X486000Y867250D02*
X495500D01*
X478000Y887250D02*
X484000D01*
X481000Y884250D02*
Y890250D01*
X485000Y879250D02*
Y895250D01*
X477000Y879250D02*
Y895250D01*
X485000D01*
X477000Y879250D02*
X485000D01*
X486750Y887250D02*
X492750D01*
X489750Y884250D02*
Y890250D01*
X493750Y879250D02*
Y895250D01*
X485750Y879250D02*
Y895250D01*
X493750D01*
X485750Y879250D02*
X493750D01*
X375062Y587172D02*
X398938D01*
Y565328D02*
Y587172D01*
X375062Y565328D02*
X398938Y565328D01*
X375062Y565328D02*
Y587172D01*
X387000Y572750D02*
X387000Y579750D01*
X383500Y576250D02*
X390500Y576250D01*
X374062Y618672D02*
X397938D01*
Y596828D02*
Y618672D01*
X374062Y596828D02*
X397938Y596828D01*
X374062Y596828D02*
Y618672D01*
X386000Y604250D02*
X386000Y611250D01*
X382500Y607750D02*
X389500Y607750D01*
X370924Y566500D02*
X376924D01*
X373924Y563500D02*
Y569500D01*
X377924Y558500D02*
Y574500D01*
X369924Y558500D02*
Y574500D01*
X377924D01*
X369924Y558500D02*
X377924D01*
X411898Y602573D02*
Y608573D01*
X408898Y605573D02*
X414898D01*
X403898Y601573D02*
X419898D01*
X403898Y609573D02*
X419898D01*
Y601573D02*
Y609573D01*
X403898Y601573D02*
Y609573D01*
X397700Y626900D02*
Y632900D01*
X394700Y629900D02*
X400700D01*
X389700Y633900D02*
X405700D01*
X389700Y625900D02*
X405700D01*
X389700D02*
Y633900D01*
X405700Y625900D02*
Y633900D01*
X511250Y820500D02*
X517250D01*
X514250Y817500D02*
Y823500D01*
X510250Y812500D02*
Y828500D01*
X518250Y812500D02*
Y828500D01*
X510250Y812500D02*
X518250D01*
X510250Y828500D02*
X518250D01*
X545005Y243185D02*
Y249185D01*
X542005Y246185D02*
X548005D01*
X537005Y250185D02*
X553005D01*
X537005Y242185D02*
X553005D01*
X537005D02*
Y250185D01*
X553005Y242185D02*
Y250185D01*
X346599Y816829D02*
X352599D01*
X349599Y813829D02*
Y819829D01*
X345599Y808829D02*
Y824829D01*
X353599Y808829D02*
Y824829D01*
X345599Y808829D02*
X353599D01*
X345599Y824829D02*
X353599D01*
X174250Y665750D02*
X180250D01*
X177250Y662750D02*
Y668750D01*
X173250Y657750D02*
Y673750D01*
X181250Y657750D02*
Y673750D01*
X173250Y657750D02*
X181250D01*
X173250Y673750D02*
X181250D01*
X166000Y665750D02*
X172000D01*
X169000Y662750D02*
Y668750D01*
X165000Y657750D02*
Y673750D01*
X173000Y657750D02*
Y673750D01*
X165000Y657750D02*
X173000D01*
X165000Y673750D02*
X173000D01*
X509500Y829000D02*
X521500D01*
X509500Y853000D02*
X521500D01*
X509500Y829000D02*
Y853000D01*
X521500Y829000D02*
Y853000D01*
X515500Y836250D02*
Y845750D01*
X510750Y841000D02*
X520250D01*
X543250Y250698D02*
X555250D01*
X543250Y274698D02*
X555250D01*
X543250Y250698D02*
Y274698D01*
X555250Y250698D02*
Y274698D01*
X549250Y257948D02*
Y267448D01*
X544500Y262698D02*
X554000D01*
X244761Y447500D02*
Y453500D01*
X241761Y450500D02*
X247761D01*
X236761Y454500D02*
X252761D01*
X236761Y446500D02*
X252761D01*
X236761D02*
Y454500D01*
X252761Y446500D02*
Y454500D01*
X226775Y473383D02*
X226775Y454383D01*
X247775D02*
Y473383D01*
X226775D02*
X247775D01*
X226775Y454383D02*
X247775D01*
X232275Y463883D02*
X242275D01*
X237275Y458883D02*
Y468883D01*
X213561D02*
X223561D01*
X218561Y463883D02*
Y473883D01*
X211061Y453383D02*
Y484383D01*
X226061Y453383D02*
Y484383D01*
X211061Y453383D02*
X226061D01*
X211061Y484383D02*
X226061D01*
X371750Y660000D02*
Y666000D01*
X368750Y663000D02*
X374750D01*
X363750Y667000D02*
X379750D01*
X363750Y659000D02*
X379750D01*
X363750D02*
Y667000D01*
X379750Y659000D02*
Y667000D01*
X371750Y668000D02*
Y674000D01*
X368750Y671000D02*
X374750D01*
X363750Y675000D02*
X379750D01*
X363750Y667000D02*
X379750D01*
X363750D02*
Y675000D01*
X379750Y667000D02*
Y675000D01*
X371750Y676077D02*
Y682077D01*
X368750Y679077D02*
X374750D01*
X363750Y683077D02*
X379750D01*
X363750Y675077D02*
X379750D01*
X363750D02*
Y683077D01*
X379750Y675077D02*
Y683077D01*
X371750Y684250D02*
Y690250D01*
X368750Y687250D02*
X374750D01*
X363750Y691250D02*
X379750D01*
X363750Y683250D02*
X379750D01*
X363750D02*
Y691250D01*
X379750Y683250D02*
Y691250D01*
X265750Y769306D02*
X271750D01*
X268750Y766306D02*
Y772306D01*
X264750Y761306D02*
Y777306D01*
X272750Y761306D02*
Y777306D01*
X264750Y761306D02*
X272750D01*
X264750Y777306D02*
X272750D01*
X257052Y769000D02*
X263052D01*
X260052Y766000D02*
Y772000D01*
X256052Y761000D02*
Y777000D01*
X264052Y761000D02*
Y777000D01*
X256052Y761000D02*
X264052D01*
X256052Y777000D02*
X264052D01*
X227750Y734995D02*
Y740995D01*
X224750Y737995D02*
X230750D01*
X219750Y733995D02*
X235750D01*
X219750Y741995D02*
X235750D01*
Y733995D02*
Y741995D01*
X219750Y733995D02*
Y741995D01*
X227750Y726500D02*
Y732500D01*
X224750Y729500D02*
X230750D01*
X219750Y725500D02*
X235750D01*
X219750Y733500D02*
X235750D01*
Y725500D02*
Y733500D01*
X219750Y725500D02*
Y733500D01*
X91425Y818000D02*
Y824000D01*
X88425Y821000D02*
X94425D01*
X83425Y825000D02*
X99425D01*
X83425Y817000D02*
X99425D01*
X83425D02*
Y825000D01*
X99425Y817000D02*
Y825000D01*
X523646Y661900D02*
Y667900D01*
X520646Y664900D02*
X526646D01*
X515646Y668900D02*
X531646D01*
X515646Y660900D02*
X531646D01*
X515646D02*
Y668900D01*
X531646Y660900D02*
Y668900D01*
X533896Y615627D02*
Y621627D01*
X530896Y618627D02*
X536896D01*
X525896Y622627D02*
X541896D01*
X525896Y614627D02*
X541896D01*
X525896D02*
Y622627D01*
X541896Y614627D02*
Y622627D01*
X550577Y615627D02*
Y621627D01*
X547577Y618627D02*
X553577D01*
X542576Y622627D02*
X558577D01*
X542576Y614627D02*
X558577D01*
X542576D02*
Y622627D01*
X558577Y614627D02*
Y622627D01*
X566557Y615538D02*
Y621538D01*
X563557Y618538D02*
X569557D01*
X558557Y622538D02*
X574557D01*
X558557Y614538D02*
X574557D01*
X558557D02*
Y622538D01*
X574557Y614538D02*
Y622538D01*
X521750Y302250D02*
Y308250D01*
X518750Y305250D02*
X524750D01*
X513750Y309250D02*
X529750D01*
X513750Y301250D02*
X529750D01*
X513750D02*
Y309250D01*
X529750Y301250D02*
Y309250D01*
X551557Y532293D02*
Y538293D01*
X548557Y535293D02*
X554557D01*
X543557Y531293D02*
X559557D01*
X543557Y539293D02*
X559557D01*
Y531293D02*
Y539293D01*
X543557Y531293D02*
Y539293D01*
X530932Y290750D02*
X536932D01*
X533932Y287750D02*
Y293750D01*
X529932Y282750D02*
Y298750D01*
X537932Y282750D02*
Y298750D01*
X529932Y282750D02*
X537932D01*
X529932Y298750D02*
X537932D01*
X521250Y253750D02*
Y259750D01*
X518250Y256750D02*
X524250D01*
X513250Y260750D02*
X529250D01*
X513250Y252750D02*
X529250D01*
X513250D02*
Y260750D01*
X529250Y252750D02*
Y260750D01*
X162531Y605750D02*
Y611750D01*
X159531Y608750D02*
X165531D01*
X154531Y604750D02*
X170531D01*
X154531Y612750D02*
X170531D01*
Y604750D02*
Y612750D01*
X154531Y604750D02*
Y612750D01*
X162531Y597289D02*
Y603288D01*
X159531Y600289D02*
X165531D01*
X154531Y596288D02*
X170531D01*
X154531Y604288D02*
X170531D01*
Y596288D02*
Y604288D01*
X154531Y596288D02*
Y604288D01*
X359681Y621401D02*
X365681D01*
X362681Y618401D02*
Y624401D01*
X366681Y613401D02*
Y629401D01*
X358681Y613401D02*
Y629401D01*
X366681D01*
X358681Y613401D02*
X366681D01*
X371250Y648730D02*
X371250Y629730D01*
X350250D02*
Y648730D01*
Y629730D02*
X371250D01*
X350250Y648730D02*
X371250D01*
X355750Y639230D02*
X365750D01*
X360750Y634230D02*
Y644230D01*
X351005Y621401D02*
X357005D01*
X354005Y618401D02*
Y624401D01*
X358005Y613401D02*
Y629401D01*
X350005Y613401D02*
Y629401D01*
X358005D01*
X350005Y613401D02*
X358005D01*
X372250Y636738D02*
X378250D01*
X375250Y633738D02*
Y639738D01*
X371250Y628738D02*
Y644738D01*
X379250Y628738D02*
Y644738D01*
X371250Y628738D02*
X379250D01*
X371250Y644738D02*
X379250D01*
X107223Y833000D02*
X126223Y833000D01*
X107223Y812000D02*
X126223D01*
Y833000D01*
X107223Y812000D02*
Y833000D01*
X116723Y817500D02*
Y827500D01*
X111723Y822500D02*
X121723D01*
X127973Y821000D02*
X133973D01*
X130973Y818000D02*
Y824000D01*
X126973Y813000D02*
Y829000D01*
X134973Y813000D02*
Y829000D01*
X126973Y813000D02*
X134973D01*
X126973Y829000D02*
X134973D01*
X278216Y632535D02*
X278216Y613535D01*
X257216D02*
Y632535D01*
Y613535D02*
X278216D01*
X257216Y632535D02*
X278216D01*
X262716Y623035D02*
X272715D01*
X267715Y618035D02*
Y628035D01*
X249961Y619860D02*
X255961D01*
X252961Y616860D02*
Y622859D01*
X248961Y611860D02*
Y627859D01*
X256961Y611860D02*
Y627859D01*
X248961Y611860D02*
X256961D01*
X248961Y627859D02*
X256961D01*
X279195Y621691D02*
X285195D01*
X282195Y618691D02*
Y624691D01*
X286195Y613691D02*
Y629691D01*
X278195Y613691D02*
Y629691D01*
X286195D01*
X278195Y613691D02*
X286195D01*
X548632Y467293D02*
X554132D01*
X551382Y464543D02*
Y470043D01*
X547382Y459293D02*
Y475293D01*
X555382Y459293D02*
Y475293D01*
X547382Y459293D02*
X555382D01*
X547382Y475293D02*
X555382D01*
X557132Y467293D02*
X562632D01*
X559882Y464543D02*
Y470043D01*
X555882Y459293D02*
Y475293D01*
X563882Y459293D02*
Y475293D01*
X555882Y459293D02*
X563882D01*
X555882Y475293D02*
X563882D01*
X494750Y428750D02*
X510750Y428750D01*
Y414750D02*
Y428750D01*
X494750Y414750D02*
X510750D01*
X494750D02*
Y428750D01*
X500750Y421750D02*
X504750Y421750D01*
X502750Y419750D02*
Y423750D01*
X77109Y484000D02*
X83109D01*
X80109Y481000D02*
Y487000D01*
X84109Y476000D02*
Y492000D01*
X76109Y476000D02*
Y492000D01*
X84109D01*
X76109Y476000D02*
X84109D01*
X136500Y485500D02*
Y491500D01*
X133500Y488500D02*
X139500D01*
X128500Y484500D02*
X144500D01*
X128500Y492500D02*
X144500D01*
Y484500D02*
Y492500D01*
X128500Y484500D02*
Y492500D01*
X127000Y513461D02*
X146000Y513461D01*
X127000Y492461D02*
X146000D01*
Y513461D01*
X127000Y492461D02*
Y513461D01*
X136500Y497961D02*
Y507961D01*
X131500Y502961D02*
X141500D01*
X580566Y467543D02*
X586066D01*
X583316Y464793D02*
Y470293D01*
X579316Y459543D02*
Y475543D01*
X587316Y459543D02*
Y475543D01*
X579316Y459543D02*
X587316D01*
X579316Y475543D02*
X587316D01*
X588882Y467543D02*
X594382D01*
X591632Y464793D02*
Y470293D01*
X587632Y459543D02*
Y475543D01*
X595632Y459543D02*
Y475543D01*
X587632Y459543D02*
X595632D01*
X587632Y475543D02*
X595632D01*
X606257Y467293D02*
X611757D01*
X609007Y464543D02*
Y470043D01*
X605007Y459293D02*
Y475293D01*
X613007Y459293D02*
Y475293D01*
X605007Y459293D02*
X613007D01*
X605007Y475293D02*
X613007D01*
X614632Y467293D02*
X620132D01*
X617382Y464543D02*
Y470043D01*
X613382Y459293D02*
Y475293D01*
X621382Y459293D02*
Y475293D01*
X613382Y459293D02*
X621382D01*
X613382Y475293D02*
X621382D01*
X206750Y379250D02*
X212750D01*
X209750Y376250D02*
Y382250D01*
X205750Y371250D02*
Y387250D01*
X213750Y371250D02*
Y387250D01*
X205750Y371250D02*
X213750D01*
X205750Y387250D02*
X213750D01*
X198250Y379500D02*
X204250D01*
X201250Y376500D02*
Y382500D01*
X197250Y371500D02*
Y387500D01*
X205250Y371500D02*
Y387500D01*
X197250Y371500D02*
X205250D01*
X197250Y387500D02*
X205250D01*
X105662Y508500D02*
X111662D01*
X108662Y505500D02*
Y511500D01*
X104662Y500500D02*
Y516500D01*
X112662Y500500D02*
Y516500D01*
X104662Y500500D02*
X112662D01*
X104662Y516500D02*
X112662D01*
X113500Y508500D02*
X119500D01*
X116500Y505500D02*
Y511500D01*
X112500Y500500D02*
Y516500D01*
X120500Y500500D02*
Y516500D01*
X112500Y500500D02*
X120500D01*
X112500Y516500D02*
X120500D01*
X182984Y505789D02*
X187227Y501546D01*
X182984Y501546D02*
X187227Y505789D01*
X176620Y500839D02*
X187934Y512153D01*
X182277Y495182D02*
X193591Y506496D01*
X176620Y500839D02*
X182277Y495182D01*
X187934Y512153D02*
X193591Y506496D01*
X188818Y499955D02*
X193061Y495712D01*
X188818Y495712D02*
X193061Y499955D01*
X182454Y495005D02*
X193768Y506319D01*
X188111Y489348D02*
X199425Y500662D01*
X182454Y495005D02*
X188111Y489348D01*
X193768Y506319D02*
X199425Y500662D01*
X113723Y841250D02*
X119722D01*
X116723Y838250D02*
Y844250D01*
X112723Y833250D02*
Y849250D01*
X120723Y833250D02*
Y849250D01*
X112723Y833250D02*
X120723D01*
X112723Y849250D02*
X120723D01*
X597382Y467543D02*
X603382D01*
X600382Y464543D02*
Y470543D01*
X604382Y459543D02*
Y475543D01*
X596382Y459543D02*
Y475543D01*
X604382D01*
X596382Y459543D02*
X604382D01*
X301863Y615307D02*
X348863D01*
X301863Y652307D02*
X348863D01*
X348863Y615307D01*
X301863D02*
Y652307D01*
Y603417D02*
X348863D01*
X301863Y566417D02*
X348863D01*
X301863Y603417D02*
X301863Y566417D01*
X348863D02*
Y603417D01*
X311974Y775804D02*
Y822804D01*
X343974Y775804D02*
Y822804D01*
X311974Y775804D02*
X343974D01*
X311974Y822804D02*
X343974D01*
X458250Y694000D02*
Y741000D01*
X426250Y694000D02*
Y741000D01*
X458250D01*
X426250Y694000D02*
X458250D01*
X495132Y366543D02*
Y372543D01*
X492132Y369543D02*
X498132D01*
X487132Y373543D02*
X503132D01*
X487132Y365543D02*
X503132D01*
X487132D02*
Y373543D01*
X503132Y365543D02*
Y373543D01*
X511132Y366543D02*
Y372543D01*
X508132Y369543D02*
X514132D01*
X503132Y365543D02*
X519132D01*
X503132Y373543D02*
X519132D01*
Y365543D02*
Y373543D01*
X503132Y365543D02*
Y373543D01*
X501132Y475293D02*
X507132D01*
X504132Y472293D02*
Y478293D01*
X508132Y467293D02*
Y483293D01*
X500132Y467293D02*
Y483293D01*
X508132D01*
X500132Y467293D02*
X508132D01*
X492250Y475250D02*
X498250D01*
X495250Y472250D02*
Y478250D01*
X499250Y467250D02*
Y483250D01*
X491250Y467250D02*
Y483250D01*
X499250D01*
X491250Y467250D02*
X499250D01*
X659382Y372043D02*
Y378043D01*
X656382Y375043D02*
X662382D01*
X651382Y371043D02*
X667382D01*
X651382Y379043D02*
X667382D01*
Y371043D02*
Y379043D01*
X651382Y371043D02*
Y379043D01*
X402873Y549082D02*
Y555082D01*
X399874Y552082D02*
X405873D01*
X394874Y548082D02*
X410873D01*
X394874Y556082D02*
X410873D01*
Y548082D02*
Y556082D01*
X394874Y548082D02*
Y556082D01*
X659234Y401543D02*
Y407543D01*
X656234Y404543D02*
X662234D01*
X651234Y400543D02*
X667234D01*
X651234Y408543D02*
X667234D01*
Y400543D02*
Y408543D01*
X651234Y400543D02*
Y408543D01*
X501382Y394793D02*
X501382Y375793D01*
X522382D02*
Y394793D01*
X501382D02*
X522382D01*
X501382Y375793D02*
X522382D01*
X506882Y385293D02*
X516882D01*
X511882Y380293D02*
Y390293D01*
X493070Y382543D02*
Y388043D01*
X490320Y385293D02*
X495820D01*
X485070Y389293D02*
X501070D01*
X485070Y381293D02*
X501070D01*
X485070D02*
Y389293D01*
X501070Y381293D02*
Y389293D01*
X460500Y419000D02*
Y424500D01*
X457750Y421750D02*
X463250D01*
X452500Y425750D02*
X468500D01*
X452500Y417750D02*
X468500D01*
X452500D02*
Y425750D01*
X468500Y417750D02*
Y425750D01*
X580444Y494871D02*
X604320D01*
X580444D02*
Y516715D01*
X604320Y516715D01*
Y494871D02*
Y516715D01*
X592382Y502293D02*
X592382Y509293D01*
X588882Y505793D02*
X595882Y505793D01*
X546619Y494871D02*
X570495D01*
X546619D02*
Y516715D01*
X570495Y516715D01*
Y494871D02*
Y516715D01*
X558557Y502293D02*
X558557Y509293D01*
X555057Y505793D02*
X562057Y505793D01*
X612894Y494688D02*
X636770D01*
X612894D02*
Y516531D01*
X636770Y516531D01*
Y494688D02*
Y516531D01*
X624832Y502109D02*
X624832Y509109D01*
X621332Y505610D02*
X628332Y505610D01*
X512632Y484493D02*
Y490493D01*
X509632Y487493D02*
X515632D01*
X504632Y491493D02*
X520632D01*
X504632Y483493D02*
X520632D01*
X504632D02*
Y491493D01*
X520632Y483493D02*
Y491493D01*
X531882Y467793D02*
X537882D01*
X534882Y464793D02*
Y470793D01*
X538882Y459793D02*
Y475793D01*
X530882Y459793D02*
Y475793D01*
X538882D01*
X530882Y459793D02*
X538882D01*
X601000Y524500D02*
X607000D01*
X604000Y521500D02*
Y527500D01*
X608000Y516500D02*
Y532500D01*
X600000Y516500D02*
Y532500D01*
X608000D01*
X600000Y516500D02*
X608000D01*
X60200Y492250D02*
X66200D01*
X63200Y489250D02*
Y495250D01*
X67200Y484250D02*
Y500250D01*
X59200Y484250D02*
Y500250D01*
X67200D01*
X59200Y484250D02*
X67200D01*
X203223Y847500D02*
Y853500D01*
X200223Y850500D02*
X206222D01*
X195222Y846500D02*
X211223D01*
X195222Y854500D02*
X211223D01*
Y846500D02*
Y854500D01*
X195222Y846500D02*
Y854500D01*
X622882Y467293D02*
X628882D01*
X625882Y464293D02*
Y470293D01*
X629882Y459293D02*
Y475293D01*
X621882Y459293D02*
Y475293D01*
X629882D01*
X621882Y459293D02*
X629882D01*
X493250Y356250D02*
X499250D01*
X496250Y353250D02*
Y359250D01*
X500250Y348250D02*
Y364250D01*
X492250Y348250D02*
Y364250D01*
X500250D01*
X492250Y348250D02*
X500250D01*
X508132Y482293D02*
X508132Y463293D01*
X529132D02*
Y482293D01*
X508132D02*
X529132D01*
X508132Y463293D02*
X529132D01*
X513632Y472793D02*
X523632D01*
X518632Y467793D02*
Y477793D01*
X500132Y364543D02*
X500132Y345543D01*
X521132D02*
Y364543D01*
X500132D02*
X521132D01*
X500132Y345543D02*
X521132D01*
X505632Y355043D02*
X515632D01*
X510632Y350043D02*
Y360043D01*
X508500Y274500D02*
Y280500D01*
X505500Y277500D02*
X511500D01*
X500500Y273500D02*
X516500D01*
X500500Y281500D02*
X516500D01*
Y273500D02*
Y281500D01*
X500500Y273500D02*
Y281500D01*
X32750Y680077D02*
X79750D01*
X32750Y643077D02*
X79750D01*
X32750Y680077D02*
X32750Y643077D01*
X79750D02*
Y680077D01*
X158223Y804250D02*
X205223D01*
X158223Y841250D02*
X205222D01*
X205223Y804250D01*
X158223D02*
Y841250D01*
X383000Y692827D02*
Y698827D01*
X380000Y695827D02*
X386000D01*
X375000Y691827D02*
X391000D01*
X375000Y699827D02*
X391000D01*
Y691827D02*
Y699827D01*
X375000Y691827D02*
Y699827D01*
X91647Y848063D02*
Y854062D01*
X88647Y851063D02*
X94647D01*
X83647Y847063D02*
X99647D01*
X83647Y855063D02*
X99647D01*
Y847063D02*
Y855063D01*
X83647Y847063D02*
Y855063D01*
X249250Y646827D02*
X255250D01*
X252250Y643827D02*
Y649827D01*
X256250Y638827D02*
Y654827D01*
X248250Y638827D02*
Y654827D01*
X256250D01*
X248250Y638827D02*
X256250D01*
X352250Y715750D02*
X358250D01*
X355250Y712750D02*
Y718750D01*
X351250Y707750D02*
Y723750D01*
X359250Y707750D02*
Y723750D01*
X351250Y707750D02*
X359250D01*
X351250Y723750D02*
X359250D01*
X417990Y718351D02*
X423990D01*
X420990Y715351D02*
Y721351D01*
X416990Y710351D02*
Y726351D01*
X424990Y710351D02*
Y726351D01*
X416990Y710351D02*
X424990D01*
X416990Y726351D02*
X424990D01*
X81925Y825563D02*
X100925Y825563D01*
X81925Y846562D02*
X100925D01*
X81925Y825563D02*
Y846562D01*
X100925Y825563D02*
Y846562D01*
X91425Y831062D02*
Y841062D01*
X86425Y836062D02*
X96425D01*
X360455Y727519D02*
X379455Y727519D01*
X360455Y706519D02*
X379455D01*
Y727519D01*
X360455Y706519D02*
Y727519D01*
X369955Y712019D02*
Y722019D01*
X364955Y717019D02*
X374955D01*
X122750Y386000D02*
X128750D01*
X125750Y383000D02*
Y389000D01*
X129750Y378000D02*
Y394000D01*
X121750Y378000D02*
Y394000D01*
X129750D01*
X121750Y378000D02*
X129750D01*
X105773Y401827D02*
X111773D01*
X108773Y398827D02*
Y404827D01*
X112773Y393827D02*
Y409827D01*
X104773Y393827D02*
Y409827D01*
X112773D01*
X104773Y393827D02*
X112773D01*
X103497Y437250D02*
Y443250D01*
X100497Y440250D02*
X106497D01*
X95497Y444250D02*
X111497D01*
X95497Y436250D02*
X111497D01*
X95497D02*
Y444250D01*
X111497Y436250D02*
Y444250D01*
X151531Y386069D02*
X157531D01*
X154531Y383069D02*
Y389069D01*
X150531Y378069D02*
Y394069D01*
X158531Y378069D02*
Y394069D01*
X150531Y378069D02*
X158531D01*
X150531Y394069D02*
X158531D01*
X194387Y449969D02*
Y455969D01*
X191387Y452969D02*
X197387D01*
X186387Y456969D02*
X202387D01*
X186387Y448969D02*
X202387D01*
X186387D02*
Y456969D01*
X202387Y448969D02*
Y456969D01*
X150861Y346250D02*
Y352250D01*
X147861Y349250D02*
X153861D01*
X142861Y353250D02*
X158861D01*
X142861Y345250D02*
X158861D01*
X142861D02*
Y353250D01*
X158861Y345250D02*
Y353250D01*
X131250Y386000D02*
X137250D01*
X134250Y383000D02*
Y389000D01*
X138250Y378000D02*
Y394000D01*
X130250Y378000D02*
Y394000D01*
X138250D01*
X130250Y378000D02*
X138250D01*
X183500Y386000D02*
Y392000D01*
X180500Y389000D02*
X186500D01*
X175500Y393000D02*
X191500D01*
X175500Y385000D02*
X191500D01*
X175500D02*
Y393000D01*
X191500Y385000D02*
Y393000D01*
X112750Y378219D02*
Y384219D01*
X109750Y381219D02*
X115750D01*
X104750Y385219D02*
X120750D01*
X104750Y377219D02*
X120750D01*
X104750D02*
Y385219D01*
X120750Y377219D02*
Y385219D01*
X89887Y401876D02*
X95887D01*
X92887Y398876D02*
Y404876D01*
X88887Y393876D02*
Y409876D01*
X96887Y393876D02*
Y409876D01*
X88887Y393876D02*
X96887D01*
X88887Y409876D02*
X96887D01*
X103497Y453824D02*
Y459824D01*
X100497Y456824D02*
X106497D01*
X95497Y460824D02*
X111497D01*
X95497Y452824D02*
X111497D01*
X95497D02*
Y460824D01*
X111497Y452824D02*
Y460824D01*
X112773Y386819D02*
Y392819D01*
X109773Y389819D02*
X115773D01*
X104773Y385819D02*
X120773D01*
X104773Y393819D02*
X120773D01*
Y385819D02*
Y393819D01*
X104773Y385819D02*
Y393819D01*
X96250Y411670D02*
Y417670D01*
X93250Y414670D02*
X99250D01*
X88250Y410670D02*
X104250D01*
X88250Y418670D02*
X104250D01*
Y410670D02*
Y418670D01*
X88250Y410670D02*
Y418670D01*
X103497Y445500D02*
Y451500D01*
X100497Y448500D02*
X106497D01*
X95497Y444500D02*
X111497D01*
X95497Y452500D02*
X111497D01*
Y444500D02*
Y452500D01*
X95497Y444500D02*
Y452500D01*
X167500Y382219D02*
X173500D01*
X170500Y379219D02*
Y385219D01*
X166500Y374219D02*
Y390219D01*
X174500Y374219D02*
Y390219D01*
X166500Y374219D02*
X174500D01*
X166500Y390219D02*
X174500D01*
X176500Y376250D02*
X182500D01*
X179500Y373250D02*
Y379250D01*
X183500Y368250D02*
Y384250D01*
X175500Y368250D02*
Y384250D01*
X183500D01*
X175500Y368250D02*
X183500D01*
X672382Y399293D02*
X672382Y380293D01*
X651382D02*
Y399293D01*
Y380293D02*
X672382D01*
X651382Y399293D02*
X672382D01*
X656882Y389793D02*
X666882D01*
X661882Y384793D02*
Y394793D01*
X119381Y168500D02*
Y174500D01*
X116382Y171500D02*
X122381D01*
X111381Y175500D02*
X127381D01*
X111381Y167500D02*
X127381D01*
X111381D02*
Y175500D01*
X127381Y167500D02*
Y175500D01*
X552500Y197000D02*
Y203000D01*
X549500Y200000D02*
X555500D01*
X544500Y196000D02*
X560500D01*
X544500Y204000D02*
X560500D01*
Y196000D02*
Y204000D01*
X544500Y196000D02*
Y204000D01*
X163500Y336750D02*
X163500Y317750D01*
X142500D02*
Y336750D01*
Y317750D02*
X163500D01*
X142500Y336750D02*
X163500D01*
X148000Y327250D02*
X158000D01*
X153000Y322250D02*
Y332250D01*
X126886Y154180D02*
Y166180D01*
X105386D02*
X126886D01*
X105386Y154180D02*
Y166180D01*
Y154180D02*
X126886D01*
X542250Y182963D02*
Y194963D01*
Y182963D02*
X563750D01*
Y194963D01*
X542250D02*
X563750D01*
X239750Y345000D02*
Y351000D01*
X236750Y348000D02*
X242750D01*
X231750Y352000D02*
X247750D01*
X231750Y344000D02*
X247750D01*
X231750D02*
Y352000D01*
X247750Y344000D02*
Y352000D01*
X162531Y589000D02*
Y595000D01*
X159531Y592000D02*
X165531D01*
X154531Y596000D02*
X170531D01*
X154531Y588000D02*
X170531D01*
X154531D02*
Y596000D01*
X170531Y588000D02*
Y596000D01*
X496132Y583448D02*
X515132Y583448D01*
X496132Y562449D02*
X515132D01*
Y583448D01*
X496132Y562449D02*
Y583448D01*
X505632Y567948D02*
Y577948D01*
X500632Y572948D02*
X510632D01*
X496132Y609000D02*
X515132Y609000D01*
X496132Y588000D02*
X515132D01*
Y609000D01*
X496132Y588000D02*
Y609000D01*
X505632Y593500D02*
Y603500D01*
X500632Y598500D02*
X510632D01*
X523185Y569949D02*
Y575948D01*
X520185Y572948D02*
X526185D01*
X515185Y568948D02*
X531185D01*
X515185Y576948D02*
X531185D01*
Y568948D02*
Y576948D01*
X515185Y568948D02*
Y576948D01*
X523185Y579596D02*
Y585596D01*
X520185Y582596D02*
X526185D01*
X515185Y578596D02*
X531185D01*
X515185Y586596D02*
X531185D01*
Y578596D02*
Y586596D01*
X515185Y578596D02*
Y586596D01*
X523185Y588750D02*
Y594750D01*
X520185Y591750D02*
X526185D01*
X515185Y587750D02*
X531185D01*
X515185Y595750D02*
X531185D01*
Y587750D02*
Y595750D01*
X515185Y587750D02*
Y595750D01*
X488250Y579000D02*
X494250D01*
X491250Y576000D02*
Y582000D01*
X487250Y571000D02*
Y587000D01*
X495250Y571000D02*
Y587000D01*
X487250Y571000D02*
X495250D01*
X487250Y587000D02*
X495250D01*
X488250Y562500D02*
X494250D01*
X491250Y559500D02*
Y565500D01*
X487250Y554500D02*
Y570500D01*
X495250Y554500D02*
Y570500D01*
X487250Y554500D02*
X495250D01*
X487250Y570500D02*
X495250D01*
X488250Y601500D02*
X494250D01*
X491250Y598500D02*
Y604500D01*
X495250Y593500D02*
Y609500D01*
X487250Y593500D02*
Y609500D01*
X495250D01*
X487250Y593500D02*
X495250D01*
X227810Y640762D02*
X246810Y640762D01*
X227810Y619762D02*
X246810D01*
Y640762D01*
X227810Y619762D02*
Y640762D01*
X237310Y625262D02*
Y635262D01*
X232310Y630262D02*
X242310D01*
X537250Y687637D02*
X543250D01*
X540250Y684637D02*
Y690637D01*
X544250Y679637D02*
Y695637D01*
X536250Y679637D02*
Y695637D01*
X544250D01*
X536250Y679637D02*
X544250D01*
X527750Y687706D02*
X533750D01*
X530750Y684706D02*
Y690706D01*
X534750Y679706D02*
Y695706D01*
X526750Y679706D02*
Y695706D01*
X534750D01*
X526750Y679706D02*
X534750D01*
X334888Y513634D02*
Y519634D01*
X331888Y516634D02*
X337888D01*
X326888Y512634D02*
X342888D01*
X326888Y520634D02*
X342888D01*
Y512634D02*
Y520634D01*
X326888Y512634D02*
Y520634D01*
X529500Y300750D02*
X529500Y281750D01*
X508500D02*
Y300750D01*
Y281750D02*
X529500D01*
X508500Y300750D02*
X529500D01*
X514000Y291250D02*
X524000D01*
X519000Y286250D02*
Y296250D01*
X517000Y260250D02*
X536000Y260250D01*
X517000Y281250D02*
X536000D01*
X517000Y260250D02*
Y281250D01*
X536000Y260250D02*
Y281250D01*
X526500Y265750D02*
Y275750D01*
X521500Y270750D02*
X531500D01*
X140862Y107163D02*
X152861D01*
Y128663D01*
X140862D02*
X152861D01*
X140862Y107163D02*
Y128663D01*
X154250Y107163D02*
X166250D01*
Y128663D01*
X154250D02*
X166250D01*
X154250Y107163D02*
Y128663D01*
X174000Y107163D02*
X186000D01*
Y128663D01*
X174000D02*
X186000D01*
X174000Y107163D02*
Y128663D01*
X191900Y107163D02*
X203900D01*
Y128663D01*
X191900D02*
X203900D01*
X191900Y107163D02*
Y128663D01*
X162422Y614204D02*
Y620204D01*
X159422Y617204D02*
X165422D01*
X154422Y621204D02*
X170422D01*
X154422Y613204D02*
X170422D01*
X154422D02*
Y621204D01*
X170422Y613204D02*
Y621204D01*
X566250Y663250D02*
X572250D01*
X569250Y660250D02*
Y666250D01*
X565250Y655250D02*
Y671250D01*
X573250Y655250D02*
Y671250D01*
X565250Y655250D02*
X573250D01*
X565250Y671250D02*
X573250D01*
X511000Y682750D02*
Y688750D01*
X508000Y685750D02*
X514000D01*
X503000Y681750D02*
X519000D01*
X503000Y689750D02*
X519000D01*
Y681750D02*
Y689750D01*
X503000Y681750D02*
Y689750D01*
X258500Y288250D02*
Y294250D01*
X255500Y291250D02*
X261500D01*
X250500Y295250D02*
X266500D01*
X250500Y287250D02*
X266500D01*
X250500D02*
Y295250D01*
X266500Y287250D02*
Y295250D01*
X239750Y336500D02*
Y342500D01*
X236750Y339500D02*
X242750D01*
X231750Y343500D02*
X247750D01*
X231750Y335500D02*
X247750D01*
X231750D02*
Y343500D01*
X247750Y335500D02*
Y343500D01*
X12750Y964250D02*
X18750D01*
X15750Y961250D02*
Y967250D01*
X19750Y956250D02*
Y972250D01*
X11750Y956250D02*
Y972250D01*
X19750D01*
X11750Y956250D02*
X19750D01*
X362750Y1000000D02*
Y1006000D01*
X359750Y1003000D02*
X365750D01*
X354750Y1007000D02*
X370750D01*
X354750Y999000D02*
X370750D01*
X354750D02*
Y1007000D01*
X370750Y999000D02*
Y1007000D01*
X362750Y992050D02*
Y998050D01*
X359750Y995050D02*
X365750D01*
X354750Y991050D02*
X370750D01*
X354750Y999050D02*
X370750D01*
Y991050D02*
Y999050D01*
X354750Y991050D02*
Y999050D01*
X354250Y932611D02*
Y938611D01*
X351250Y935611D02*
X357250D01*
X346250Y931611D02*
X362250D01*
X346250Y939611D02*
X362250D01*
Y931611D02*
Y939611D01*
X346250Y931611D02*
Y939611D01*
X347250Y939676D02*
X353250D01*
X350250Y936676D02*
Y942676D01*
X346250Y931676D02*
Y947676D01*
X354250Y931676D02*
Y947676D01*
X346250Y931676D02*
X354250D01*
X346250Y947676D02*
X354250D01*
X56854Y922750D02*
Y928750D01*
X53854Y925750D02*
X59854D01*
X48854Y929750D02*
X64854D01*
X48854Y921750D02*
X64854D01*
X48854D02*
Y929750D01*
X64854Y921750D02*
Y929750D01*
X56854Y914150D02*
Y920151D01*
X53854Y917150D02*
X59854D01*
X48854Y921151D02*
X64854D01*
X48854Y913150D02*
X64854D01*
X48854D02*
Y921151D01*
X64854Y913150D02*
Y921151D01*
X347250Y991016D02*
X353250D01*
X350250Y988016D02*
Y994016D01*
X346250Y983016D02*
Y999016D01*
X354250Y983016D02*
Y999016D01*
X346250Y983016D02*
X354250D01*
X346250Y999016D02*
X354250D01*
X362750Y983950D02*
Y989950D01*
X359750Y986950D02*
X365750D01*
X354750Y982950D02*
X370750D01*
X354750Y990950D02*
X370750D01*
Y982950D02*
Y990950D01*
X354750Y982950D02*
Y990950D01*
X354250Y940742D02*
Y946742D01*
X351250Y943742D02*
X357250D01*
X346250Y939742D02*
X362250D01*
X346250Y947742D02*
X362250D01*
Y939742D02*
Y947742D01*
X346250Y939742D02*
Y947742D01*
X624000Y1014250D02*
X636000D01*
Y1035750D01*
X624000D02*
X636000D01*
X624000Y1014250D02*
Y1035750D01*
X615500Y1034500D02*
X615500Y1015500D01*
X594500D02*
Y1034500D01*
Y1015500D02*
X615500D01*
X594500Y1034500D02*
X615500D01*
X600000Y1025000D02*
X610000D01*
X605000Y1020000D02*
Y1030000D01*
X617000Y1025000D02*
X623000D01*
X620000Y1022000D02*
Y1028000D01*
X616000Y1017000D02*
Y1033000D01*
X624000Y1017000D02*
Y1033000D01*
X616000Y1017000D02*
X624000D01*
X616000Y1033000D02*
X624000D01*
X587000Y1025000D02*
X593000D01*
X590000Y1022000D02*
Y1028000D01*
X594000Y1017000D02*
Y1033000D01*
X586000Y1017000D02*
Y1033000D01*
X594000D01*
X586000Y1017000D02*
X594000D01*
X560000Y1030000D02*
Y1040000D01*
X555000Y1035000D02*
X565000D01*
X546000Y1058000D02*
X546000Y1012000D01*
X546000Y1058000D02*
X573750D01*
X573750Y1012000D02*
X573750Y1058000D01*
X546000Y1012000D02*
X573750Y1012000D01*
X453750Y391250D02*
Y397250D01*
X450750Y394250D02*
X456750D01*
X445750Y398250D02*
X461750D01*
X445750Y390250D02*
X461750D01*
X445750D02*
Y398250D01*
X461750Y390250D02*
Y398250D01*
X406355Y436828D02*
X422355D01*
X406355Y422828D02*
Y436828D01*
Y422828D02*
X422355D01*
Y436828D01*
X411855Y429828D02*
X416855D01*
X414355Y428828D02*
Y430828D01*
Y427328D02*
Y432328D01*
D25*
X2069264Y438398D02*
D03*
D26*
X2057834Y694045D02*
Y673729D01*
X2069443D01*
X2087147D02*
X2079407Y694045D01*
X2071668Y673729D01*
X2074570Y680501D02*
X2084244D01*
X2091887Y694045D02*
X2099626Y684370D01*
Y673729D01*
X2107366Y694045D02*
X2099626Y684370D01*
X2122554Y694045D02*
X2109978D01*
Y673729D01*
X2122554D01*
X2109978Y684370D02*
X2117717D01*
X2125940Y694045D02*
Y673729D01*
Y694045D02*
X2134647D01*
X2137549Y693077D01*
X2138516Y692110D01*
X2139484Y690175D01*
Y688240D01*
X2138516Y686305D01*
X2137549Y685338D01*
X2134647Y684370D01*
X2125940D01*
X2132712D02*
X2139484Y673729D01*
X2159993Y694045D02*
Y679533D01*
X2160960Y676631D01*
X2162895Y674696D01*
X2165797Y673729D01*
X2167732D01*
X2170634Y674696D01*
X2172569Y676631D01*
X2173537Y679533D01*
Y694045D01*
X2192691Y691142D02*
X2190757Y693077D01*
X2187854Y694045D01*
X2183985D01*
X2181082Y693077D01*
X2179147Y691142D01*
Y689208D01*
X2180115Y687273D01*
X2181082Y686305D01*
X2183017Y685338D01*
X2188822Y683403D01*
X2190757Y682436D01*
X2191724Y681468D01*
X2192691Y679533D01*
Y676631D01*
X2190757Y674696D01*
X2187854Y673729D01*
X2183985D01*
X2181082Y674696D01*
X2179147Y676631D01*
X2212717Y673729D02*
X2204977Y694045D01*
X2197238Y673729D01*
X2200140Y680501D02*
X2209814D01*
X2231968Y689208D02*
X2231001Y691142D01*
X2229066Y693077D01*
X2227131Y694045D01*
X2223262D01*
X2221327Y693077D01*
X2219392Y691142D01*
X2218424Y689208D01*
X2217457Y686305D01*
Y681468D01*
X2218424Y678566D01*
X2219392Y676631D01*
X2221327Y674696D01*
X2223262Y673729D01*
X2227131D01*
X2229066Y674696D01*
X2231001Y676631D01*
X2231968Y678566D01*
Y681468D01*
X2227131D02*
X2231968D01*
X2249188Y694045D02*
X2236612D01*
Y673729D01*
X2249188D01*
X2236612Y684370D02*
X2244351D01*
D27*
X2207200Y-300390D02*
X2211432D01*
X2209316D01*
Y-287694D01*
X2207200Y-289810D01*
X2217780Y-291926D02*
X2219896D01*
Y-294042D01*
X2217780D01*
Y-291926D01*
Y-298274D02*
X2219896D01*
Y-300390D01*
X2217780D01*
Y-298274D01*
X2228360Y-300390D02*
X2232592D01*
X2230476D01*
Y-287694D01*
X2228360Y-289810D01*
X2363410Y-102528D02*
Y-120304D01*
Y-102528D02*
X2369335D01*
X2371875Y-103374D01*
X2373568Y-105067D01*
X2374414Y-106760D01*
X2375261Y-109300D01*
Y-113532D01*
X2374414Y-116072D01*
X2373568Y-117765D01*
X2371875Y-119458D01*
X2369335Y-120304D01*
X2363410D01*
X2376107Y431720D02*
X2375261Y433413D01*
X2373568Y435106D01*
X2371875Y435952D01*
X2368489D01*
X2366796Y435106D01*
X2365103Y433413D01*
X2364256Y431720D01*
X2363410Y429180D01*
Y424948D01*
X2364256Y422408D01*
X2365103Y420715D01*
X2366796Y419022D01*
X2368489Y418176D01*
X2371875D01*
X2373568Y419022D01*
X2375261Y420715D01*
X2376107Y422408D01*
X2363410Y975702D02*
Y957926D01*
Y975702D02*
X2371028D01*
X2373568Y974856D01*
X2374414Y974009D01*
X2375261Y972316D01*
Y970623D01*
X2374414Y968930D01*
X2373568Y968084D01*
X2371028Y967237D01*
X2363410D02*
X2371028D01*
X2373568Y966391D01*
X2374414Y965544D01*
X2375261Y963851D01*
Y961312D01*
X2374414Y959619D01*
X2373568Y958773D01*
X2371028Y957926D01*
X2363410D01*
X2376954Y1497676D02*
X2370182Y1515452D01*
X2363410Y1497676D01*
X2365950Y1503601D02*
X2374414D01*
X2047520Y1774024D02*
X2039055Y1762173D01*
X2051752D01*
X2047520Y1774024D02*
Y1756248D01*
X1341991Y1774024D02*
X1351302D01*
X1346223Y1767252D01*
X1348763D01*
X1350456Y1766406D01*
X1351302Y1765559D01*
X1352149Y1763020D01*
Y1761327D01*
X1351302Y1758788D01*
X1349609Y1757095D01*
X1347070Y1756248D01*
X1344530D01*
X1341991Y1757095D01*
X1341145Y1757941D01*
X1340298Y1759634D01*
X643914Y1769792D02*
Y1770638D01*
X644761Y1772331D01*
X645608Y1773178D01*
X647300Y1774024D01*
X650686D01*
X652379Y1773178D01*
X653226Y1772331D01*
X654072Y1770638D01*
Y1768945D01*
X653226Y1767252D01*
X651533Y1764713D01*
X643068Y1756248D01*
X654919D01*
X-55600Y1770638D02*
X-53907Y1771485D01*
X-51368Y1774024D01*
Y1756248D01*
X2047520Y-334176D02*
X2039055Y-346027D01*
X2051752D01*
X2047520Y-334176D02*
Y-351952D01*
X1341991Y-334176D02*
X1351302D01*
X1346223Y-340948D01*
X1348763D01*
X1350456Y-341794D01*
X1351302Y-342641D01*
X1352149Y-345180D01*
Y-346873D01*
X1351302Y-349412D01*
X1349609Y-351105D01*
X1347070Y-351952D01*
X1344530D01*
X1341991Y-351105D01*
X1341145Y-350259D01*
X1340298Y-348566D01*
X643914Y-338408D02*
Y-337562D01*
X644761Y-335869D01*
X645608Y-335022D01*
X647300Y-334176D01*
X650686D01*
X652379Y-335022D01*
X653226Y-335869D01*
X654072Y-337562D01*
Y-339255D01*
X653226Y-340948D01*
X651533Y-343487D01*
X643068Y-351952D01*
X654919D01*
X-55600Y-337562D02*
X-53907Y-336715D01*
X-51368Y-334176D01*
Y-351952D01*
X-379790Y-102528D02*
Y-120304D01*
Y-102528D02*
X-373865D01*
X-371325Y-103374D01*
X-369632Y-105067D01*
X-368786Y-106760D01*
X-367939Y-109300D01*
Y-113532D01*
X-368786Y-116072D01*
X-369632Y-117765D01*
X-371325Y-119458D01*
X-373865Y-120304D01*
X-379790D01*
X-367093Y431720D02*
X-367939Y433413D01*
X-369632Y435106D01*
X-371325Y435952D01*
X-374711D01*
X-376404Y435106D01*
X-378097Y433413D01*
X-378943Y431720D01*
X-379790Y429180D01*
Y424948D01*
X-378943Y422408D01*
X-378097Y420715D01*
X-376404Y419022D01*
X-374711Y418176D01*
X-371325D01*
X-369632Y419022D01*
X-367939Y420715D01*
X-367093Y422408D01*
X-379790Y975702D02*
Y957926D01*
Y975702D02*
X-372172D01*
X-369632Y974856D01*
X-368786Y974009D01*
X-367939Y972316D01*
Y970623D01*
X-368786Y968930D01*
X-369632Y968084D01*
X-372172Y967237D01*
X-379790D02*
X-372172D01*
X-369632Y966391D01*
X-368786Y965544D01*
X-367939Y963851D01*
Y961312D01*
X-368786Y959619D01*
X-369632Y958773D01*
X-372172Y957926D01*
X-379790D01*
X-366246Y1497676D02*
X-373018Y1515452D01*
X-379790Y1497676D01*
X-377251Y1503601D02*
X-368786D01*
D307*
X332250Y727749D02*
X390250D01*
Y807749D01*
X332250D02*
X390250D01*
X332250Y727749D02*
Y807749D01*
X471000Y129750D02*
X529000D01*
Y209750D01*
X471000D02*
X529000D01*
X471000Y129750D02*
Y209750D01*
X565132Y288543D02*
Y346543D01*
Y288543D02*
X645132D01*
Y346543D01*
X565132D02*
X645132D01*
X527250Y767406D02*
X585250D01*
Y847406D01*
X527250D02*
X585250D01*
X527250Y767406D02*
Y847406D01*
X18000Y481000D02*
X76000D01*
X18000Y401000D02*
Y481000D01*
Y401000D02*
X76000D01*
Y481000D01*
D333*
X546182Y758296D02*
Y764296D01*
X543182Y761296D02*
X549182Y761296D01*
X292867Y66675D02*
X298867D01*
X295867Y69675D02*
X295867Y63675D01*
X133905Y304868D02*
Y310868D01*
X130905Y307868D02*
X136905Y307868D01*
X117425Y283000D02*
X123425D01*
X120425Y286000D02*
X120425Y280000D01*
X120250Y321685D02*
X126250D01*
X123250Y324685D02*
X123250Y318685D01*
X207000Y73000D02*
X213000D01*
X210000Y76000D02*
X210000Y70000D01*
X517056Y451000D02*
X523056D01*
X520056Y454000D02*
X520056Y448000D01*
X404555Y580223D02*
Y586223D01*
X401555Y583223D02*
X407555Y583223D01*
X403500Y564753D02*
Y570753D01*
X400500Y567753D02*
X406500Y567753D01*
X402250Y610500D02*
Y616500D01*
X399250Y613500D02*
X405250Y613500D01*
X401750Y595035D02*
Y601035D01*
X398750Y598035D02*
X404750Y598035D01*
X517646Y615150D02*
X523646D01*
X520646Y618150D02*
X520646Y612150D01*
X498214Y635400D02*
X504214D01*
X501214Y638400D02*
X501214Y632400D01*
X506396Y635400D02*
X512396D01*
X509396Y638400D02*
X509396Y632400D01*
X255463Y308903D02*
Y314903D01*
X252463Y311903D02*
X258463Y311903D01*
X255463Y297750D02*
Y303750D01*
X252463Y300750D02*
X258463Y300750D01*
X275500Y310500D02*
Y316500D01*
X272500Y313500D02*
X278500Y313500D01*
X380209Y530167D02*
X386209D01*
X383209Y533167D02*
X383209Y527167D01*
X551932Y650900D02*
X557932D01*
X554932Y653900D02*
X554932Y647900D01*
X586882Y338793D02*
Y344793D01*
X583882Y341793D02*
X589882Y341793D01*
X659014Y437896D02*
Y443896D01*
X656014Y440896D02*
X662014Y440896D01*
X659014Y429896D02*
Y435896D01*
X656014Y432896D02*
X662014Y432896D01*
X531000Y140280D02*
X537000D01*
X534000Y143280D02*
X534000Y137280D01*
X521250Y174250D02*
X527250D01*
X524250Y177250D02*
X524250Y171250D01*
X555000Y320000D02*
X561000D01*
X558000Y323000D02*
X558000Y317000D01*
X659014Y421896D02*
Y427896D01*
X656014Y424896D02*
X662014Y424896D01*
X409250Y648250D02*
Y654250D01*
X406250Y651250D02*
X412250Y651250D01*
X448250Y676606D02*
Y682606D01*
X445250Y679606D02*
X451250Y679606D01*
X426573Y648730D02*
Y654730D01*
X423573Y651730D02*
X429573Y651730D01*
X448250Y684637D02*
Y690637D01*
X445250Y687637D02*
X451250Y687637D01*
X135500Y514382D02*
Y520382D01*
X132500Y517382D02*
X138500Y517382D01*
X399750Y410793D02*
X405750D01*
X402750Y413793D02*
X402750Y407793D01*
X412981Y405732D02*
X417224Y409975D01*
X412981Y409975D02*
X417224Y405732D01*
X487250Y418750D02*
Y424750D01*
X484250Y421750D02*
X490250Y421750D01*
X531364Y778211D02*
X537364D01*
X534364Y781211D02*
X534364Y775211D01*
X65500Y456750D02*
X71500D01*
X68500Y459750D02*
X68500Y453750D01*
X19500Y482000D02*
X25500D01*
X22500Y485000D02*
X22500Y479000D01*
X529500Y824250D02*
X535500D01*
X532500Y827250D02*
X532500Y821250D01*
X294890Y626035D02*
X300890D01*
X297890Y629035D02*
X297890Y623035D01*
X294890Y641520D02*
X300891D01*
X297890Y644520D02*
X297890Y638520D01*
X350005Y592688D02*
X356005D01*
X353005Y595689D02*
X353005Y589688D01*
X350005Y577035D02*
X356005D01*
X353005Y580035D02*
X353005Y574035D01*
X621500Y846500D02*
X627500D01*
X624500Y849500D02*
X624500Y843500D01*
X629750Y846500D02*
X635750D01*
X632750Y849500D02*
X632750Y843500D01*
X468633Y408316D02*
X472875Y404074D01*
X468633Y404074D02*
X472875Y408316D01*
X492618Y399793D02*
Y405793D01*
X489618Y402793D02*
X495618Y402793D01*
X151250Y830563D02*
X157250D01*
X154250Y833562D02*
X154250Y827562D01*
X151252Y814000D02*
X157252D01*
X154252Y817000D02*
X154252Y811000D01*
X253223Y815000D02*
X259223D01*
X256222Y818000D02*
X256223Y812000D01*
X253223Y830750D02*
X259223D01*
X256223Y833750D02*
X256223Y827750D01*
X607000Y620250D02*
Y626250D01*
X604000Y623250D02*
X610000Y623250D01*
X607000Y611750D02*
Y617750D01*
X604000Y614750D02*
X610000Y614750D01*
X281750Y818000D02*
Y824000D01*
X278750Y821000D02*
X284750Y821000D01*
X297000Y818000D02*
Y824000D01*
X294000Y821000D02*
X300000Y821000D01*
X297000Y809500D02*
Y815500D01*
X294000Y812500D02*
X300000Y812500D01*
X281750Y809500D02*
Y815500D01*
X278750Y812500D02*
X284750Y812500D01*
X298973Y798750D02*
Y804750D01*
X295973Y801750D02*
X301973Y801750D01*
X276000Y798750D02*
Y804750D01*
X273000Y801750D02*
X279000Y801750D01*
X130500Y64250D02*
X136500D01*
X133500Y67250D02*
X133500Y61250D01*
X444750Y418750D02*
Y424750D01*
X441750Y421750D02*
X447750Y421750D01*
X492763Y390521D02*
Y396521D01*
X489763Y393521D02*
X495763Y393521D01*
X538750Y320063D02*
X544750D01*
X541750Y323063D02*
X541750Y317063D01*
X160399Y538500D02*
X166399D01*
X163399Y541500D02*
X163399Y535500D01*
X659132Y410793D02*
Y416793D01*
X656132Y413793D02*
X662132Y413793D01*
X541750Y302000D02*
Y308000D01*
X538750Y305000D02*
X544750Y305000D01*
X573432Y501609D02*
X579432D01*
X576432Y504609D02*
X576432Y498610D01*
X582882Y516923D02*
Y522923D01*
X579882Y519923D02*
X585882Y519923D01*
X539607Y501609D02*
X545607D01*
X542607Y504609D02*
X542607Y498610D01*
X549382Y516793D02*
Y522793D01*
X546382Y519793D02*
X552382Y519793D01*
X605882Y501609D02*
X611882D01*
X608882Y504609D02*
X608882Y498609D01*
X615382Y516860D02*
Y522859D01*
X612382Y519859D02*
X618382Y519860D01*
X83000Y696250D02*
X89000D01*
X86000Y699250D02*
X86000Y693250D01*
X503822Y501860D02*
X509822D01*
X506822Y504860D02*
X506822Y498859D01*
X515585Y517043D02*
Y523043D01*
X512585Y520043D02*
X518585Y520043D01*
X546750Y320063D02*
X552750D01*
X549750Y323063D02*
X549750Y317063D01*
X152500Y538500D02*
X158500D01*
X155500Y541500D02*
X155500Y535500D01*
X510500Y319750D02*
X516500D01*
X513500Y322750D02*
X513500Y316750D01*
X502500Y319750D02*
X508500D01*
X505500Y322750D02*
X505500Y316750D01*
X80986Y669577D02*
X86986D01*
X83986Y672577D02*
X83986Y666577D01*
X80745Y653580D02*
X86745D01*
X83745Y656580D02*
X83745Y650580D01*
X237250Y689116D02*
X243250D01*
X240250Y692116D02*
X240250Y686116D01*
X229250Y689077D02*
X235250D01*
X232250Y692077D02*
X232250Y686077D01*
X299000Y760577D02*
Y766577D01*
X296000Y763577D02*
X302000Y763577D01*
X299000Y768827D02*
Y774827D01*
X296000Y771827D02*
X302000Y771827D01*
X265500Y648077D02*
Y654077D01*
X262500Y651077D02*
X268500Y651077D01*
X265537Y640528D02*
Y646528D01*
X262537Y643528D02*
X268537Y643528D01*
X347027Y699827D02*
X353027D01*
X350027Y702827D02*
X350027Y696827D01*
X355277Y699827D02*
X361277D01*
X358277Y702827D02*
X358277Y696827D01*
X237250Y704827D02*
X243250D01*
X240250Y707827D02*
X240250Y701827D01*
X142756Y814000D02*
X148756D01*
X145756Y817000D02*
X145756Y811000D01*
X142756Y830563D02*
X148756D01*
X145756Y833562D02*
X145756Y827562D01*
X261223Y815000D02*
X267222D01*
X264223Y818000D02*
X264223Y812000D01*
X261223Y830750D02*
X267222D01*
X264223Y833750D02*
X264223Y827750D01*
X198387Y467469D02*
Y473469D01*
X195387Y470469D02*
X201387Y470469D01*
X226283Y708827D02*
X232283D01*
X229283Y711827D02*
X229284Y705827D01*
X103497Y429216D02*
Y435216D01*
X100497Y432216D02*
X106497Y432216D01*
X194298Y441169D02*
Y447169D01*
X191298Y444169D02*
X197298Y444169D01*
X213822Y442578D02*
Y448578D01*
X210822Y445578D02*
X216822Y445578D01*
X216504Y404194D02*
Y410193D01*
X213504Y407193D02*
X219504Y407194D01*
X181287Y400969D02*
X187287D01*
X184287Y403969D02*
X184287Y397969D01*
X103497Y421231D02*
Y427230D01*
X100497Y424230D02*
X106497Y424230D01*
X143096Y386069D02*
X149096D01*
X146096Y389069D02*
X146096Y383069D01*
X179387Y461482D02*
X185387D01*
X182387Y464482D02*
X182387Y458482D01*
X144387Y470344D02*
X150387D01*
X147387Y473344D02*
X147387Y467344D01*
X103562Y462203D02*
Y468203D01*
X100562Y465203D02*
X106562Y465203D01*
X55030Y896750D02*
X61030D01*
X58030Y899750D02*
X58030Y893750D01*
X403250Y741882D02*
Y747882D01*
X400250Y744882D02*
X406250Y744882D01*
X321013Y766306D02*
Y772306D01*
X318013Y769306D02*
X324013Y769306D01*
X263500Y379173D02*
Y385173D01*
X260500Y382173D02*
X266500Y382173D01*
X260746Y368669D02*
Y374668D01*
X257745Y371668D02*
X263745Y371668D01*
X327888Y528630D02*
X333888D01*
X330888Y531630D02*
X330888Y525630D01*
X587750Y638250D02*
X593750D01*
X590750Y641250D02*
X590750Y635250D01*
X602250Y654500D02*
Y660500D01*
X599250Y657500D02*
X605250Y657500D01*
X341155Y339091D02*
X347155D01*
X344155Y342091D02*
X344155Y336091D01*
X331189Y343173D02*
X337189D01*
X334189Y346173D02*
X334189Y340173D01*
X349194Y339091D02*
X355194D01*
X352194Y342091D02*
X352194Y336091D01*
X388912Y328823D02*
Y334823D01*
X385912Y331823D02*
X391912Y331823D01*
X388912Y320500D02*
Y326500D01*
X385912Y323500D02*
X391912Y323500D01*
X414750Y338169D02*
X420750D01*
X417750Y341169D02*
X417750Y335169D01*
X128148Y321685D02*
X134148D01*
X131148Y324685D02*
X131148Y318685D01*
X34750Y993000D02*
X40750D01*
X37750Y996000D02*
X37750Y990000D01*
X43250Y993000D02*
X49250D01*
X46250Y996000D02*
X46250Y990000D01*
X75270Y1024000D02*
Y1030000D01*
X72270Y1027000D02*
X78270Y1027000D01*
X45662Y967068D02*
Y973068D01*
X42662Y970068D02*
X48662Y970068D01*
X18250Y993250D02*
X24250D01*
X21250Y996250D02*
X21250Y990250D01*
X26250Y993250D02*
X32250D01*
X29250Y996250D02*
X29250Y990250D01*
X21250Y1023750D02*
Y1029750D01*
X18250Y1026750D02*
X24250Y1026750D01*
X46745Y896750D02*
X52745D01*
X49745Y899750D02*
X49745Y893750D01*
X20993Y1032750D02*
Y1038750D01*
X17993Y1035750D02*
X23993Y1035750D01*
X20993Y1041500D02*
Y1047500D01*
X17993Y1044500D02*
X23993Y1044500D01*
X85000Y1034250D02*
Y1040250D01*
X82000Y1037250D02*
X88000Y1037250D01*
X85000Y1043750D02*
Y1049750D01*
X82000Y1046750D02*
X88000Y1046750D01*
X12000Y1050000D02*
Y1056000D01*
X9000Y1053000D02*
X15000Y1053000D01*
X269723Y1020500D02*
Y1026500D01*
X266723Y1023500D02*
X272723Y1023500D01*
X347250Y1007000D02*
X353250D01*
X350250Y1010000D02*
X350250Y1004000D01*
X399750Y337793D02*
X405750D01*
X402750Y340793D02*
X402750Y334793D01*
X552500Y718250D02*
Y724250D01*
X549500Y721250D02*
X555500Y721250D01*
D337*
X410750Y917750D02*
Y961750D01*
X370750Y917750D02*
X410750D01*
X370750D02*
Y961750D01*
X410750D01*
X403049Y263432D02*
X447049D01*
Y223432D02*
Y263432D01*
X403049Y223432D02*
X447049D01*
X403049D02*
Y263432D01*
X327500Y263268D02*
X371500D01*
Y223268D02*
Y263268D01*
X327500Y223268D02*
X371500D01*
X327500D02*
Y263268D01*
X253000Y263088D02*
X297000D01*
Y223088D02*
Y263088D01*
X253000Y223088D02*
X297000D01*
X253000D02*
Y263088D01*
D338*
X368700Y412871D02*
X400700D01*
X368700D02*
Y446871D01*
X400700D01*
Y412871D02*
Y446871D01*
X137500Y102500D02*
X207500D01*
Y-15000D02*
Y102500D01*
X137500Y-15000D02*
X207500D01*
X137500D02*
Y102500D01*
D339*
X538582Y765296D02*
X553782D01*
X538582Y757296D02*
X553782D01*
X538582D02*
Y765296D01*
X553782Y757296D02*
Y765296D01*
X299867Y59075D02*
Y74275D01*
X291867Y59075D02*
Y74275D01*
X299867D01*
X291867Y59075D02*
X299867D01*
X126305Y311868D02*
X141505D01*
X126305Y303868D02*
X141505D01*
X126305D02*
Y311868D01*
X141505Y303868D02*
Y311868D01*
X124425Y275400D02*
Y290600D01*
X116425Y275400D02*
Y290600D01*
X124425D01*
X116425Y275400D02*
X124425D01*
X119250Y314085D02*
Y329285D01*
X127250Y314085D02*
Y329285D01*
X119250Y314085D02*
X127250D01*
X119250Y329285D02*
X127250D01*
X214000Y65400D02*
Y80600D01*
X206000Y65400D02*
Y80600D01*
X214000D01*
X206000Y65400D02*
X214000D01*
X524056Y443400D02*
Y458600D01*
X516056Y443400D02*
Y458600D01*
X524056D01*
X516056Y443400D02*
X524056D01*
X396955Y579223D02*
X412155D01*
X396955Y587223D02*
X412155D01*
Y579223D02*
Y587223D01*
X396955Y579223D02*
Y587223D01*
X395900Y571753D02*
X411100D01*
X395900Y563753D02*
X411100D01*
X395900D02*
Y571753D01*
X411100Y563753D02*
Y571753D01*
X394650Y609500D02*
X409850D01*
X394650Y617500D02*
X409850D01*
Y609500D02*
Y617500D01*
X394650Y609500D02*
Y617500D01*
X394150Y602035D02*
X409350D01*
X394150Y594035D02*
X409350D01*
X394150D02*
Y602035D01*
X409350Y594035D02*
Y602035D01*
X516646Y607550D02*
Y622750D01*
X524646Y607550D02*
Y622750D01*
X516646Y607550D02*
X524646D01*
X516646Y622750D02*
X524646D01*
X497214Y627800D02*
Y643000D01*
X505214Y627800D02*
Y643000D01*
X497214Y627800D02*
X505214D01*
X497214Y643000D02*
X505214D01*
X505396Y627800D02*
Y643000D01*
X513396Y627800D02*
Y643000D01*
X505396Y627800D02*
X513396D01*
X505396Y643000D02*
X513396D01*
X247863Y315903D02*
X263063D01*
X247863Y307903D02*
X263063D01*
X247863D02*
Y315903D01*
X263063Y307903D02*
Y315903D01*
X247863Y304750D02*
X263063D01*
X247863Y296750D02*
X263063D01*
X247863D02*
Y304750D01*
X263063Y296750D02*
Y304750D01*
X267900Y309500D02*
X283100D01*
X267900Y317500D02*
X283100D01*
Y309500D02*
Y317500D01*
X267900Y309500D02*
Y317500D01*
X379209Y522567D02*
Y537767D01*
X387209Y522567D02*
Y537767D01*
X379209Y522567D02*
X387209D01*
X379209Y537767D02*
X387209D01*
X558932Y643300D02*
Y658500D01*
X550932Y643300D02*
Y658500D01*
X558932D01*
X550932Y643300D02*
X558932D01*
X579282Y337793D02*
X594482D01*
X579282Y345793D02*
X594482D01*
Y337793D02*
Y345793D01*
X579282Y337793D02*
Y345793D01*
X651414Y444896D02*
X666614D01*
X651414Y436896D02*
X666614D01*
X651414D02*
Y444896D01*
X666614Y436896D02*
Y444896D01*
X651414Y436896D02*
X666614D01*
X651414Y428896D02*
X666614D01*
X651414D02*
Y436896D01*
X666614Y428896D02*
Y436896D01*
X530000Y132680D02*
Y147880D01*
X538000Y132680D02*
Y147880D01*
X530000Y132680D02*
X538000D01*
X530000Y147880D02*
X538000D01*
X528250Y166650D02*
Y181850D01*
X520250Y166650D02*
Y181850D01*
X528250D01*
X520250Y166650D02*
X528250D01*
X562000Y312400D02*
Y327600D01*
X554000Y312400D02*
Y327600D01*
X562000D01*
X554000Y312400D02*
X562000D01*
X651414Y420896D02*
X666614D01*
X651414Y428896D02*
X666614D01*
Y420896D02*
Y428896D01*
X651414Y420896D02*
Y428896D01*
X401650Y655250D02*
X416850D01*
X401650Y647250D02*
X416850D01*
X401650D02*
Y655250D01*
X416850Y647250D02*
Y655250D01*
X440650Y675606D02*
X455850D01*
X440650Y683606D02*
X455850D01*
Y675606D02*
Y683606D01*
X440650Y675606D02*
Y683606D01*
X418973Y655730D02*
X434173D01*
X418973Y647730D02*
X434173D01*
X418973D02*
Y655730D01*
X434173Y647730D02*
Y655730D01*
X440650Y691637D02*
X455850D01*
X440650Y683637D02*
X455850D01*
X440650D02*
Y691637D01*
X455850Y683637D02*
Y691637D01*
X127900Y521382D02*
X143100D01*
X127900Y513382D02*
X143100D01*
X127900D02*
Y521382D01*
X143100Y513382D02*
Y521382D01*
X406750Y403193D02*
Y418393D01*
X398750Y403193D02*
Y418393D01*
X406750D01*
X398750Y403193D02*
X406750D01*
X406900Y410399D02*
X417648Y399651D01*
X412557Y416056D02*
X423305Y405308D01*
X417648Y399651D02*
X423305Y405308D01*
X406900Y410399D02*
X412557Y416056D01*
X479650Y425750D02*
X494850D01*
X479650Y417750D02*
X494850D01*
X479650D02*
Y425750D01*
X494850Y417750D02*
Y425750D01*
X530364Y770611D02*
Y785811D01*
X538364Y770611D02*
Y785811D01*
X530364Y770611D02*
X538364D01*
X530364Y785811D02*
X538364D01*
X72500Y449150D02*
Y464350D01*
X64500Y449150D02*
Y464350D01*
X72500D01*
X64500Y449150D02*
X72500D01*
X26500Y474400D02*
Y489600D01*
X18500Y474400D02*
Y489600D01*
X26500D01*
X18500Y474400D02*
X26500D01*
X536500Y816650D02*
Y831850D01*
X528500Y816650D02*
Y831850D01*
X536500D01*
X528500Y816650D02*
X536500D01*
X293890Y618435D02*
Y633635D01*
X301891Y618435D02*
Y633635D01*
X293890Y618435D02*
X301891D01*
X293890Y633635D02*
X301891D01*
X293890Y633920D02*
Y649120D01*
X301891Y633920D02*
Y649120D01*
X293890Y633920D02*
X301891D01*
X293890Y649120D02*
X301891D01*
X357005Y585089D02*
Y600289D01*
X349005Y585089D02*
Y600289D01*
X357005D01*
X349005Y585089D02*
X357005D01*
Y569435D02*
Y584635D01*
X349005Y569435D02*
Y584635D01*
X357005D01*
X349005Y569435D02*
X357005D01*
X628500Y838900D02*
Y854100D01*
X620500Y838900D02*
Y854100D01*
X628500D01*
X620500Y838900D02*
X628500D01*
X628750D02*
Y854100D01*
X636750Y838900D02*
Y854100D01*
X628750Y838900D02*
X636750D01*
X628750Y854100D02*
X636750D01*
X462551Y403649D02*
X473299Y414397D01*
X468208Y397993D02*
X478956Y408741D01*
X462551Y403649D02*
X468208Y397993D01*
X473299Y414397D02*
X478956Y408741D01*
X485018Y406793D02*
X500218D01*
X485018Y398793D02*
X500218D01*
X485018D02*
Y406793D01*
X500218Y398793D02*
Y406793D01*
X150250Y822962D02*
Y838163D01*
X158250Y822962D02*
Y838163D01*
X150250Y822962D02*
X158250D01*
X150250Y838163D02*
X158250D01*
X158252Y806400D02*
Y821600D01*
X150252Y806400D02*
Y821600D01*
X158252D01*
X150252Y806400D02*
X158252D01*
X252223Y807400D02*
Y822600D01*
X260222Y807400D02*
Y822600D01*
X252223Y807400D02*
X260222D01*
X252223Y822600D02*
X260222D01*
Y823150D02*
Y838350D01*
X252223Y823150D02*
Y838350D01*
X260222D01*
X252223Y823150D02*
X260222D01*
X599400Y619250D02*
X614600D01*
X599400Y627250D02*
X614600D01*
Y619250D02*
Y627250D01*
X599400Y619250D02*
Y627250D01*
Y618750D02*
X614600D01*
X599400Y610750D02*
X614600D01*
X599400D02*
Y618750D01*
X614600Y610750D02*
Y618750D01*
X274150Y817000D02*
X289350D01*
X274150Y825000D02*
X289350D01*
Y817000D02*
Y825000D01*
X274150Y817000D02*
Y825000D01*
X289400D02*
X304600D01*
X289400Y817000D02*
X304600D01*
X289400D02*
Y825000D01*
X304600Y817000D02*
Y825000D01*
X289400Y808500D02*
X304600D01*
X289400Y816500D02*
X304600D01*
Y808500D02*
Y816500D01*
X289400Y808500D02*
Y816500D01*
X274150D02*
X289350D01*
X274150Y808500D02*
X289350D01*
X274150D02*
Y816500D01*
X289350Y808500D02*
Y816500D01*
X291373Y797750D02*
X306573D01*
X291373Y805750D02*
X306573D01*
Y797750D02*
Y805750D01*
X291373Y797750D02*
Y805750D01*
X268400Y805750D02*
X283600D01*
X268400Y797750D02*
X283600D01*
X268400D02*
Y805750D01*
X283600Y797750D02*
Y805750D01*
X129500Y56650D02*
Y71850D01*
X137500Y56650D02*
Y71850D01*
X129500Y56650D02*
X137500D01*
X129500Y71850D02*
X137500D01*
X437150Y425750D02*
X452350D01*
X437150Y417750D02*
X452350D01*
X437150D02*
Y425750D01*
X452350Y417750D02*
Y425750D01*
X485163Y397521D02*
X500363D01*
X485163Y389521D02*
X500363D01*
X485163D02*
Y397521D01*
X500363Y389521D02*
Y397521D01*
X537750Y312463D02*
Y327663D01*
X545750Y312463D02*
Y327663D01*
X537750Y312463D02*
X545750D01*
X537750Y327663D02*
X545750D01*
X167399Y530900D02*
Y546100D01*
X159399Y530900D02*
Y546100D01*
X167399D01*
X159399Y530900D02*
X167399D01*
X651532Y417793D02*
X666732D01*
X651532Y409793D02*
X666732D01*
X651532D02*
Y417793D01*
X666732Y409793D02*
Y417793D01*
X534150Y301000D02*
X549350D01*
X534150Y309000D02*
X549350D01*
Y301000D02*
Y309000D01*
X534150Y301000D02*
Y309000D01*
X572432Y494010D02*
Y509210D01*
X580432Y494010D02*
Y509210D01*
X572432Y494010D02*
X580432D01*
X572432Y509210D02*
X580432D01*
X575282Y515923D02*
X590482D01*
X575282Y523923D02*
X590482D01*
Y515923D02*
Y523923D01*
X575282Y515923D02*
Y523923D01*
X538607Y494010D02*
Y509210D01*
X546607Y494010D02*
Y509210D01*
X538607Y494010D02*
X546607D01*
X538607Y509210D02*
X546607D01*
X541782Y515793D02*
X556982D01*
X541782Y523793D02*
X556982D01*
Y515793D02*
Y523793D01*
X541782Y515793D02*
Y523793D01*
X604882Y494010D02*
Y509210D01*
X612882Y494010D02*
Y509210D01*
X604882Y494010D02*
X612882D01*
X604882Y509210D02*
X612882D01*
X607782Y515859D02*
X622982D01*
X607782Y523859D02*
X622982D01*
Y515859D02*
Y523859D01*
X607782Y515859D02*
Y523859D01*
X90000Y688650D02*
Y703850D01*
X82000Y688650D02*
Y703850D01*
X90000D01*
X82000Y688650D02*
X90000D01*
X502822Y494259D02*
Y509459D01*
X510822Y494259D02*
Y509459D01*
X502822Y494259D02*
X510822D01*
X502822Y509459D02*
X510822D01*
X507985Y516043D02*
X523185D01*
X507985Y524043D02*
X523185D01*
Y516043D02*
Y524043D01*
X507985Y516043D02*
Y524043D01*
X553750Y312463D02*
Y327663D01*
X545750Y312463D02*
Y327663D01*
X553750D01*
X545750Y312463D02*
X553750D01*
X159500Y530900D02*
Y546100D01*
X151500Y530900D02*
Y546100D01*
X159500D01*
X151500Y530900D02*
X159500D01*
X517500Y312150D02*
Y327350D01*
X509500Y312150D02*
Y327350D01*
X517500D01*
X509500Y312150D02*
X517500D01*
X509500D02*
Y327350D01*
X501500Y312150D02*
Y327350D01*
X509500D01*
X501500Y312150D02*
X509500D01*
X87986Y661977D02*
Y677177D01*
X79986Y661977D02*
Y677177D01*
X87986D01*
X79986Y661977D02*
X87986D01*
X87745Y645980D02*
Y661180D01*
X79745Y645980D02*
Y661180D01*
X87745D01*
X79745Y645980D02*
X87745D01*
X244250Y681516D02*
Y696716D01*
X236250Y681516D02*
Y696716D01*
X244250D01*
X236250Y681516D02*
X244250D01*
X236250Y681477D02*
Y696677D01*
X228250Y681477D02*
Y696677D01*
X236250D01*
X228250Y681477D02*
X236250D01*
X291400Y767577D02*
X306600D01*
X291400Y759577D02*
X306600D01*
X291400D02*
Y767577D01*
X306600Y759577D02*
Y767577D01*
X291400Y775827D02*
X306600D01*
X291400Y767827D02*
X306600D01*
X291400D02*
Y775827D01*
X306600Y767827D02*
Y775827D01*
X257900Y655077D02*
X273100D01*
X257900Y647077D02*
X273100D01*
X257900D02*
Y655077D01*
X273100Y647077D02*
Y655077D01*
X257937Y647528D02*
X273137D01*
X257937Y639528D02*
X273137D01*
X257937D02*
Y647528D01*
X273137Y639528D02*
Y647528D01*
X346027Y692227D02*
Y707427D01*
X354027Y692227D02*
Y707427D01*
X346027Y692227D02*
X354027D01*
X346027Y707427D02*
X354027D01*
X354277Y692227D02*
Y707427D01*
X362277Y692227D02*
Y707427D01*
X354277Y692227D02*
X362277D01*
X354277Y707427D02*
X362277D01*
X236250Y697227D02*
Y712427D01*
X244250Y697227D02*
Y712427D01*
X236250Y697227D02*
X244250D01*
X236250Y712427D02*
X244250D01*
X141756Y806400D02*
Y821600D01*
X149756Y806400D02*
Y821600D01*
X141756Y806400D02*
X149756D01*
X141756Y821600D02*
X149756D01*
X141756Y822962D02*
Y838163D01*
X149756Y822962D02*
Y838163D01*
X141756Y822962D02*
X149756D01*
X141756Y838163D02*
X149756D01*
X268223Y807400D02*
Y822600D01*
X260223Y807400D02*
Y822600D01*
X268223D01*
X260223Y807400D02*
X268223D01*
X260223Y823150D02*
Y838350D01*
X268223Y823150D02*
Y838350D01*
X260223Y823150D02*
X268223D01*
X260223Y838350D02*
X268223D01*
X190787Y466469D02*
X205987D01*
X190787Y474469D02*
X205987D01*
Y466469D02*
Y474469D01*
X190787Y466469D02*
Y474469D01*
X225284Y701227D02*
Y716427D01*
X233284Y701227D02*
Y716427D01*
X225284Y701227D02*
X233284D01*
X225284Y716427D02*
X233284D01*
X95897Y436216D02*
X111097D01*
X95897Y428216D02*
X111097D01*
X95897D02*
Y436216D01*
X111097Y428216D02*
Y436216D01*
X186698Y440169D02*
X201898D01*
X186698Y448169D02*
X201898D01*
Y440169D02*
Y448169D01*
X186698Y440169D02*
Y448169D01*
X206222Y441578D02*
X221422D01*
X206222Y449578D02*
X221422D01*
Y441578D02*
Y449578D01*
X206222Y441578D02*
Y449578D01*
X208904Y411194D02*
X224104D01*
X208904Y403194D02*
X224104D01*
X208904D02*
Y411194D01*
X224104Y403194D02*
Y411194D01*
X180287Y393369D02*
Y408569D01*
X188287Y393369D02*
Y408569D01*
X180287Y393369D02*
X188287D01*
X180287Y408569D02*
X188287D01*
X95897Y428230D02*
X111097D01*
X95897Y420230D02*
X111097D01*
X95897D02*
Y428230D01*
X111097Y420230D02*
Y428230D01*
X142096Y378469D02*
Y393669D01*
X150096Y378469D02*
Y393669D01*
X142096Y378469D02*
X150096D01*
X142096Y393669D02*
X150096D01*
X186387Y453882D02*
Y469082D01*
X178387Y453882D02*
Y469082D01*
X186387D01*
X178387Y453882D02*
X186387D01*
X151387Y462743D02*
Y477944D01*
X143387Y462743D02*
Y477944D01*
X151387D01*
X143387Y462743D02*
X151387D01*
X95962Y469203D02*
X111162D01*
X95962Y461203D02*
X111162D01*
X95962D02*
Y469203D01*
X111162Y461203D02*
Y469203D01*
X54030Y889150D02*
Y904350D01*
X62030Y889150D02*
Y904350D01*
X54030Y889150D02*
X62030D01*
X54030Y904350D02*
X62030D01*
X395650Y740882D02*
X410850D01*
X395650Y748882D02*
X410850D01*
Y740882D02*
Y748882D01*
X395650Y740882D02*
Y748882D01*
X313413Y773306D02*
X328613D01*
X313413Y765306D02*
X328613D01*
X313413D02*
Y773306D01*
X328613Y765306D02*
Y773306D01*
X255900Y378173D02*
X271100D01*
X255900Y386173D02*
X271100D01*
Y378173D02*
Y386173D01*
X255900Y378173D02*
Y386173D01*
X253146Y367668D02*
X268346D01*
X253146Y375668D02*
X268346D01*
Y367668D02*
Y375668D01*
X253146Y367668D02*
Y375668D01*
X334888Y521030D02*
Y536230D01*
X326888Y521030D02*
Y536230D01*
X334888D01*
X326888Y521030D02*
X334888D01*
X594750Y630650D02*
Y645850D01*
X586750Y630650D02*
Y645850D01*
X594750D01*
X586750Y630650D02*
X594750D01*
X594650Y653500D02*
X609850D01*
X594650Y661500D02*
X609850D01*
Y653500D02*
Y661500D01*
X594650Y653500D02*
Y661500D01*
X340155Y331491D02*
Y346691D01*
X348155Y331491D02*
Y346691D01*
X340155Y331491D02*
X348155D01*
X340155Y346691D02*
X348155D01*
X330189Y335573D02*
Y350773D01*
X338189Y335573D02*
Y350773D01*
X330189Y335573D02*
X338189D01*
X330189Y350773D02*
X338189D01*
X348194Y331491D02*
Y346691D01*
X356194Y331491D02*
Y346691D01*
X348194Y331491D02*
X356194D01*
X348194Y346691D02*
X356194D01*
X381312Y335823D02*
X396512D01*
X381312Y327823D02*
X396512D01*
X381312D02*
Y335823D01*
X396512Y327823D02*
Y335823D01*
X381312Y327500D02*
X396512D01*
X381312Y319500D02*
X396512D01*
X381312D02*
Y327500D01*
X396512Y319500D02*
Y327500D01*
X421750Y330569D02*
Y345769D01*
X413750Y330569D02*
Y345769D01*
X421750D01*
X413750Y330569D02*
X421750D01*
X127148Y314085D02*
Y329285D01*
X135148Y314085D02*
Y329285D01*
X127148Y314085D02*
X135148D01*
X127148Y329285D02*
X135148D01*
X41750Y985400D02*
Y1000600D01*
X33750Y985400D02*
Y1000600D01*
X41750D01*
X33750Y985400D02*
X41750D01*
X50250Y985400D02*
Y1000600D01*
X42250Y985400D02*
Y1000600D01*
X50250D01*
X42250Y985400D02*
X50250D01*
X67670Y1023000D02*
X82870D01*
X67670Y1031000D02*
X82870D01*
Y1023000D02*
Y1031000D01*
X67670Y1023000D02*
Y1031000D01*
X38062Y966068D02*
X53262D01*
X38062Y974068D02*
X53262D01*
Y966068D02*
Y974068D01*
X38062Y966068D02*
Y974068D01*
X25250Y985650D02*
Y1000850D01*
X17250Y985650D02*
Y1000850D01*
X25250D01*
X17250Y985650D02*
X25250D01*
X33250D02*
Y1000850D01*
X25250Y985650D02*
Y1000850D01*
X33250D01*
X25250Y985650D02*
X33250D01*
X13650Y1030750D02*
X28850D01*
X13650Y1022750D02*
X28850D01*
X13650D02*
Y1030750D01*
X28850Y1022750D02*
Y1030750D01*
X53745Y889150D02*
Y904350D01*
X45745Y889150D02*
Y904350D01*
X53745D01*
X45745Y889150D02*
X53745D01*
X13393Y1039750D02*
X28593D01*
X13393Y1031750D02*
X28593D01*
X13393D02*
Y1039750D01*
X28593Y1031750D02*
Y1039750D01*
X13393Y1048500D02*
X28593D01*
X13393Y1040500D02*
X28593D01*
X13393D02*
Y1048500D01*
X28593Y1040500D02*
Y1048500D01*
X77400Y1033250D02*
X92600D01*
X77400Y1041250D02*
X92600D01*
Y1033250D02*
Y1041250D01*
X77400Y1033250D02*
Y1041250D01*
Y1042750D02*
X92600D01*
X77400Y1050750D02*
X92600D01*
Y1042750D02*
Y1050750D01*
X77400Y1042750D02*
Y1050750D01*
X4400Y1057000D02*
X19600D01*
X4400Y1049000D02*
X19600D01*
X4400D02*
Y1057000D01*
X19600Y1049000D02*
Y1057000D01*
X262123Y1019500D02*
X277323D01*
X262123Y1027500D02*
X277323D01*
Y1019500D02*
Y1027500D01*
X262123Y1019500D02*
Y1027500D01*
X354250Y999400D02*
Y1014600D01*
X346250Y999400D02*
Y1014600D01*
X354250D01*
X346250Y999400D02*
X354250D01*
X406750Y330193D02*
Y345393D01*
X398750Y330193D02*
Y345393D01*
X406750D01*
X398750Y330193D02*
X406750D01*
X544900Y717250D02*
X560100D01*
X544900Y725250D02*
X560100D01*
Y717250D02*
Y725250D01*
X544900Y717250D02*
Y725250D01*
M02*
