G04*
G04 #@! TF.GenerationSoftware,Altium Limited,Altium Designer,22.4.2 (48)*
G04*
G04 Layer_Color=128*
%FSLAX44Y44*%
%MOMM*%
G71*
G04*
G04 #@! TF.SameCoordinates,7F116A4F-7056-4AC6-B487-C54DEE731D19*
G04*
G04*
G04 #@! TF.FilePolarity,Positive*
G04*
G01*
G75*
%ADD10C,0.1270*%
%ADD11C,0.2000*%
%ADD13C,0.2540*%
%ADD25R,4.8260X2.4130*%
%ADD26C,0.2997*%
%ADD27C,0.1778*%
%ADD307C,0.0508*%
G36*
X885250Y-150059D02*
X889786D01*
Y-150512D01*
X892507D01*
Y-150966D01*
X894775D01*
Y-151419D01*
X896589D01*
Y-151873D01*
X898403D01*
Y-152327D01*
X899764D01*
Y-152780D01*
X901124D01*
Y-153234D01*
X902485D01*
Y-153687D01*
X903392D01*
Y-154141D01*
X904753D01*
Y-154594D01*
X905660D01*
Y-155048D01*
X906567D01*
Y-155501D01*
X907474D01*
Y-155955D01*
X908381D01*
Y-156409D01*
X909288D01*
Y-156862D01*
X909742D01*
Y-157316D01*
X910649D01*
Y-157769D01*
X911556D01*
Y-158223D01*
X912010D01*
Y-158676D01*
X912917D01*
Y-159130D01*
X913371D01*
Y-159584D01*
X914278D01*
Y-160037D01*
X914731D01*
Y-160491D01*
X915185D01*
Y-160944D01*
X916092D01*
Y-161398D01*
X916545D01*
Y-161851D01*
X916999D01*
Y-162305D01*
X917452D01*
Y-162758D01*
X918360D01*
Y-163212D01*
X918813D01*
Y-163666D01*
X919267D01*
Y-164119D01*
X919720D01*
Y-164573D01*
X920174D01*
Y-165026D01*
X920627D01*
Y-165480D01*
X921081D01*
Y-165933D01*
X921535D01*
Y-166387D01*
X921988D01*
Y-166840D01*
X922442D01*
Y-167294D01*
X922895D01*
Y-167747D01*
X923349D01*
Y-168201D01*
Y-168655D01*
X923802D01*
Y-169108D01*
X924256D01*
Y-169562D01*
X924709D01*
Y-170015D01*
X925163D01*
Y-170469D01*
Y-170922D01*
X925617D01*
Y-171376D01*
X926070D01*
Y-171830D01*
X926524D01*
Y-172283D01*
Y-172737D01*
X926977D01*
Y-173190D01*
X927431D01*
Y-173644D01*
Y-174097D01*
X927884D01*
Y-174551D01*
X928338D01*
Y-175004D01*
Y-175458D01*
X928791D01*
Y-175912D01*
X929245D01*
Y-176365D01*
Y-176819D01*
X929698D01*
Y-177272D01*
Y-177726D01*
X930152D01*
Y-178179D01*
Y-178633D01*
X930606D01*
Y-179086D01*
Y-179540D01*
X931059D01*
Y-179993D01*
Y-180447D01*
X931513D01*
Y-180901D01*
Y-181354D01*
X931966D01*
Y-181808D01*
Y-182261D01*
X932420D01*
Y-182715D01*
Y-183168D01*
Y-183622D01*
X932873D01*
Y-184076D01*
Y-184529D01*
X933327D01*
Y-184983D01*
Y-185436D01*
Y-185890D01*
X933781D01*
Y-186343D01*
Y-186797D01*
Y-187250D01*
X934234D01*
Y-187704D01*
Y-188158D01*
Y-188611D01*
Y-189065D01*
X934688D01*
Y-189518D01*
Y-189972D01*
Y-190425D01*
Y-190879D01*
X935141D01*
Y-191332D01*
Y-191786D01*
Y-192240D01*
Y-192693D01*
X935595D01*
Y-193147D01*
Y-193600D01*
Y-194054D01*
Y-194507D01*
Y-194961D01*
Y-195414D01*
Y-195868D01*
X936048D01*
Y-196322D01*
Y-196775D01*
Y-197229D01*
Y-197682D01*
Y-198136D01*
Y-198589D01*
Y-199043D01*
Y-199496D01*
Y-199950D01*
Y-200404D01*
Y-200857D01*
X936502D01*
Y-201311D01*
Y-201764D01*
Y-202218D01*
Y-202671D01*
Y-203125D01*
Y-203578D01*
Y-204032D01*
Y-204486D01*
Y-204939D01*
Y-205393D01*
X936048D01*
Y-205846D01*
Y-206300D01*
Y-206753D01*
Y-207207D01*
Y-207661D01*
Y-208114D01*
Y-208568D01*
Y-209021D01*
Y-209475D01*
Y-209928D01*
Y-210382D01*
X935595D01*
Y-210835D01*
Y-211289D01*
Y-211742D01*
Y-212196D01*
Y-212650D01*
Y-213103D01*
X935141D01*
Y-213557D01*
Y-214010D01*
Y-214464D01*
Y-214917D01*
Y-215371D01*
X934688D01*
Y-215825D01*
Y-216278D01*
Y-216732D01*
Y-217185D01*
X934234D01*
Y-217639D01*
Y-218092D01*
Y-218546D01*
Y-218999D01*
X933781D01*
Y-219453D01*
Y-219907D01*
Y-220360D01*
X933327D01*
Y-220814D01*
Y-221267D01*
X932873D01*
Y-221721D01*
Y-222174D01*
Y-222628D01*
X932420D01*
Y-223081D01*
Y-223535D01*
X931966D01*
Y-223988D01*
Y-224442D01*
Y-224896D01*
X931513D01*
Y-225349D01*
Y-225803D01*
X931059D01*
Y-226256D01*
Y-226710D01*
X930606D01*
Y-227163D01*
Y-227617D01*
X930152D01*
Y-228071D01*
Y-228524D01*
X929698D01*
Y-228071D01*
Y-227617D01*
Y-227163D01*
Y-226710D01*
Y-226256D01*
Y-225803D01*
Y-225349D01*
Y-224896D01*
Y-224442D01*
Y-223988D01*
Y-223535D01*
Y-223081D01*
Y-222628D01*
Y-222174D01*
Y-221721D01*
Y-221267D01*
Y-220814D01*
Y-220360D01*
Y-219907D01*
Y-219453D01*
Y-218999D01*
Y-218546D01*
Y-218092D01*
Y-217639D01*
Y-217185D01*
Y-216732D01*
Y-216278D01*
Y-215825D01*
Y-215371D01*
Y-214917D01*
Y-214464D01*
Y-214010D01*
Y-213557D01*
Y-213103D01*
Y-212650D01*
Y-212196D01*
Y-211742D01*
Y-211289D01*
Y-210835D01*
Y-210382D01*
Y-209928D01*
Y-209475D01*
Y-209021D01*
Y-208568D01*
Y-208114D01*
Y-207661D01*
Y-207207D01*
Y-206753D01*
Y-206300D01*
Y-205846D01*
Y-205393D01*
Y-204939D01*
Y-204486D01*
Y-204032D01*
Y-203578D01*
Y-203125D01*
Y-202671D01*
Y-202218D01*
Y-201764D01*
Y-201311D01*
Y-200857D01*
Y-200404D01*
Y-199950D01*
Y-199496D01*
Y-199043D01*
Y-198589D01*
Y-198136D01*
Y-197682D01*
Y-197229D01*
Y-196775D01*
Y-196322D01*
Y-195868D01*
Y-195414D01*
Y-194961D01*
Y-194507D01*
Y-194054D01*
X916999D01*
Y-194507D01*
Y-194961D01*
Y-195414D01*
Y-195868D01*
Y-196322D01*
Y-196775D01*
Y-197229D01*
Y-197682D01*
Y-198136D01*
Y-198589D01*
Y-199043D01*
Y-199496D01*
Y-199950D01*
Y-200404D01*
Y-200857D01*
Y-201311D01*
Y-201764D01*
Y-202218D01*
Y-202671D01*
Y-203125D01*
Y-203578D01*
Y-204032D01*
Y-204486D01*
Y-204939D01*
Y-205393D01*
Y-205846D01*
Y-206300D01*
Y-206753D01*
Y-207207D01*
Y-207661D01*
Y-208114D01*
Y-208568D01*
Y-209021D01*
Y-209475D01*
Y-209928D01*
Y-210382D01*
Y-210835D01*
Y-211289D01*
Y-211742D01*
Y-212196D01*
Y-212650D01*
Y-213103D01*
Y-213557D01*
Y-214010D01*
Y-214464D01*
Y-214917D01*
Y-215371D01*
Y-215825D01*
Y-216278D01*
Y-216732D01*
Y-217185D01*
Y-217639D01*
Y-218092D01*
Y-218546D01*
Y-218999D01*
Y-219453D01*
Y-219907D01*
Y-220360D01*
Y-220814D01*
Y-221267D01*
Y-221721D01*
X916545D01*
Y-222174D01*
Y-222628D01*
Y-223081D01*
Y-223535D01*
X916092D01*
Y-223988D01*
Y-224442D01*
X915638D01*
Y-224896D01*
Y-225349D01*
X915185D01*
Y-225803D01*
X914731D01*
Y-226256D01*
X914278D01*
Y-226710D01*
X913824D01*
Y-227163D01*
X913371D01*
Y-227617D01*
X912463D01*
Y-228071D01*
X911103D01*
Y-228524D01*
X904753D01*
Y-228071D01*
X903392D01*
Y-227617D01*
X902485D01*
Y-227163D01*
X902032D01*
Y-226710D01*
X901578D01*
Y-226256D01*
X901124D01*
Y-225803D01*
Y-225349D01*
X900671D01*
Y-224896D01*
Y-224442D01*
X900217D01*
Y-223988D01*
Y-223535D01*
Y-223081D01*
Y-222628D01*
X899764D01*
Y-222174D01*
Y-221721D01*
Y-221267D01*
Y-220814D01*
Y-220360D01*
Y-219907D01*
Y-219453D01*
Y-218999D01*
Y-218546D01*
Y-218092D01*
Y-217639D01*
Y-217185D01*
Y-216732D01*
Y-216278D01*
Y-215825D01*
Y-215371D01*
Y-214917D01*
Y-214464D01*
Y-214010D01*
Y-213557D01*
Y-213103D01*
Y-212650D01*
Y-212196D01*
Y-211742D01*
Y-211289D01*
Y-210835D01*
Y-210382D01*
Y-209928D01*
Y-209475D01*
Y-209021D01*
Y-208568D01*
Y-208114D01*
Y-207661D01*
Y-207207D01*
Y-206753D01*
Y-206300D01*
Y-205846D01*
Y-205393D01*
Y-204939D01*
Y-204486D01*
Y-204032D01*
Y-203578D01*
Y-203125D01*
Y-202671D01*
Y-202218D01*
Y-201764D01*
Y-201311D01*
Y-200857D01*
Y-200404D01*
Y-199950D01*
Y-199496D01*
Y-199043D01*
Y-198589D01*
Y-198136D01*
Y-197682D01*
Y-197229D01*
Y-196775D01*
Y-196322D01*
Y-195868D01*
Y-195414D01*
Y-194961D01*
Y-194507D01*
Y-194054D01*
X887064D01*
Y-194507D01*
Y-194961D01*
Y-195414D01*
Y-195868D01*
Y-196322D01*
Y-196775D01*
Y-197229D01*
Y-197682D01*
Y-198136D01*
Y-198589D01*
Y-199043D01*
Y-199496D01*
Y-199950D01*
Y-200404D01*
Y-200857D01*
Y-201311D01*
Y-201764D01*
Y-202218D01*
Y-202671D01*
Y-203125D01*
Y-203578D01*
Y-204032D01*
Y-204486D01*
Y-204939D01*
Y-205393D01*
Y-205846D01*
Y-206300D01*
Y-206753D01*
Y-207207D01*
Y-207661D01*
Y-208114D01*
Y-208568D01*
Y-209021D01*
Y-209475D01*
Y-209928D01*
Y-210382D01*
Y-210835D01*
Y-211289D01*
Y-211742D01*
Y-212196D01*
Y-212650D01*
Y-213103D01*
Y-213557D01*
Y-214010D01*
Y-214464D01*
Y-214917D01*
Y-215371D01*
Y-215825D01*
Y-216278D01*
Y-216732D01*
Y-217185D01*
Y-217639D01*
Y-218092D01*
Y-218546D01*
Y-218999D01*
Y-219453D01*
Y-219907D01*
Y-220360D01*
Y-220814D01*
Y-221267D01*
Y-221721D01*
Y-222174D01*
Y-222628D01*
Y-223081D01*
Y-223535D01*
Y-223988D01*
Y-224442D01*
Y-224896D01*
Y-225349D01*
Y-225803D01*
Y-226256D01*
Y-226710D01*
Y-227163D01*
X887518D01*
Y-227617D01*
Y-228071D01*
Y-228524D01*
Y-228978D01*
X887971D01*
Y-229431D01*
Y-229885D01*
Y-230338D01*
X888425D01*
Y-230792D01*
Y-231245D01*
Y-231699D01*
X888878D01*
Y-232153D01*
Y-232606D01*
X889332D01*
Y-233060D01*
X889786D01*
Y-233513D01*
Y-233967D01*
X890239D01*
Y-234420D01*
X890693D01*
Y-234874D01*
X891146D01*
Y-235327D01*
X891600D01*
Y-235781D01*
X892053D01*
Y-236234D01*
X892507D01*
Y-236688D01*
X893414D01*
Y-237142D01*
X893868D01*
Y-237595D01*
X894775D01*
Y-238049D01*
X895682D01*
Y-238502D01*
X896589D01*
Y-238956D01*
X897950D01*
Y-239409D01*
X899764D01*
Y-239863D01*
X908835D01*
Y-239409D01*
X910649D01*
Y-238956D01*
X911556D01*
Y-238502D01*
X912917D01*
Y-238049D01*
X913371D01*
Y-237595D01*
X914278D01*
Y-237142D01*
X914731D01*
Y-236688D01*
X915185D01*
Y-236234D01*
X916092D01*
Y-235781D01*
X916545D01*
Y-235327D01*
X916999D01*
Y-234874D01*
Y-234420D01*
X917452D01*
Y-234874D01*
Y-235327D01*
Y-235781D01*
Y-236234D01*
Y-236688D01*
Y-237142D01*
Y-237595D01*
Y-238049D01*
Y-238502D01*
Y-238956D01*
X922442D01*
Y-239409D01*
X921988D01*
Y-239863D01*
X921535D01*
Y-240317D01*
X921081D01*
Y-240770D01*
X920627D01*
Y-241224D01*
X920174D01*
Y-241677D01*
X919720D01*
Y-242131D01*
X919267D01*
Y-242584D01*
X918813D01*
Y-243038D01*
X917906D01*
Y-243491D01*
X917452D01*
Y-243945D01*
X916999D01*
Y-244398D01*
X916545D01*
Y-244852D01*
X915638D01*
Y-245306D01*
X915185D01*
Y-245759D01*
X914731D01*
Y-246213D01*
X913824D01*
Y-246666D01*
X913371D01*
Y-247120D01*
X912463D01*
Y-247573D01*
X912010D01*
Y-248027D01*
X911103D01*
Y-248480D01*
X910649D01*
Y-248934D01*
X909742D01*
Y-249388D01*
X908835D01*
Y-249841D01*
X907928D01*
Y-250295D01*
X907474D01*
Y-250748D01*
X906567D01*
Y-251202D01*
X905206D01*
Y-251655D01*
X904299D01*
Y-252109D01*
X903392D01*
Y-252563D01*
X902032D01*
Y-253016D01*
X901124D01*
Y-253470D01*
X899764D01*
Y-253923D01*
X897950D01*
Y-254377D01*
X896589D01*
Y-254830D01*
X894775D01*
Y-255284D01*
X892053D01*
Y-255737D01*
X888878D01*
Y-256191D01*
X877086D01*
Y-255737D01*
X873911D01*
Y-255284D01*
X871643D01*
Y-254830D01*
X869829D01*
Y-254377D01*
X868015D01*
Y-253923D01*
X866654D01*
Y-253470D01*
X865294D01*
Y-253016D01*
X863933D01*
Y-252563D01*
X863026D01*
Y-252109D01*
X861665D01*
Y-251655D01*
X860758D01*
Y-251202D01*
X859851D01*
Y-250748D01*
X858944D01*
Y-250295D01*
X858037D01*
Y-249841D01*
X857130D01*
Y-249388D01*
X856222D01*
Y-248934D01*
X855769D01*
Y-248480D01*
X854862D01*
Y-248027D01*
X853955D01*
Y-247573D01*
X853501D01*
Y-247120D01*
X852594D01*
Y-246666D01*
X852140D01*
Y-246213D01*
X851687D01*
Y-245759D01*
X850780D01*
Y-245306D01*
X850326D01*
Y-244852D01*
X849873D01*
Y-244398D01*
X848966D01*
Y-243945D01*
X848512D01*
Y-243491D01*
X848058D01*
Y-243038D01*
X847605D01*
Y-242584D01*
X847151D01*
Y-242131D01*
X846698D01*
Y-241677D01*
X846244D01*
Y-241224D01*
X845791D01*
Y-240770D01*
X845337D01*
Y-240317D01*
X844883D01*
Y-239863D01*
X844430D01*
Y-239409D01*
X843976D01*
Y-238956D01*
X843523D01*
Y-238502D01*
X843069D01*
Y-238049D01*
X842616D01*
Y-237595D01*
X842162D01*
Y-237142D01*
X841709D01*
Y-236688D01*
Y-236234D01*
X841255D01*
Y-235781D01*
X840801D01*
Y-235327D01*
X840348D01*
Y-234874D01*
X839894D01*
Y-234420D01*
Y-233967D01*
X839441D01*
Y-233513D01*
X838987D01*
Y-233060D01*
Y-232606D01*
X838534D01*
Y-232153D01*
X838080D01*
Y-231699D01*
Y-231245D01*
X837627D01*
Y-230792D01*
X837173D01*
Y-230338D01*
Y-229885D01*
X836720D01*
Y-229431D01*
Y-228978D01*
X836266D01*
Y-228524D01*
Y-228071D01*
X835812D01*
Y-227617D01*
Y-227163D01*
X835359D01*
Y-226710D01*
Y-226256D01*
X834905D01*
Y-225803D01*
Y-225349D01*
X834452D01*
Y-224896D01*
Y-224442D01*
X833998D01*
Y-223988D01*
Y-223535D01*
X833545D01*
Y-223081D01*
Y-222628D01*
Y-222174D01*
X833091D01*
Y-221721D01*
Y-221267D01*
Y-220814D01*
X832637D01*
Y-220360D01*
Y-219907D01*
X832184D01*
Y-219453D01*
Y-218999D01*
Y-218546D01*
Y-218092D01*
X831730D01*
Y-217639D01*
Y-217185D01*
Y-216732D01*
X831277D01*
Y-216278D01*
Y-215825D01*
Y-215371D01*
Y-214917D01*
X830823D01*
Y-214464D01*
Y-214010D01*
Y-213557D01*
Y-213103D01*
Y-212650D01*
X830370D01*
Y-212196D01*
Y-211742D01*
Y-211289D01*
Y-210835D01*
Y-210382D01*
Y-209928D01*
Y-209475D01*
X829916D01*
Y-209021D01*
Y-208568D01*
Y-208114D01*
Y-207661D01*
Y-207207D01*
Y-206753D01*
Y-206300D01*
Y-205846D01*
Y-205393D01*
Y-204939D01*
X829463D01*
Y-204486D01*
Y-204032D01*
Y-203578D01*
Y-203125D01*
Y-202671D01*
Y-202218D01*
Y-201764D01*
Y-201311D01*
Y-200857D01*
X829916D01*
Y-200404D01*
Y-199950D01*
Y-199496D01*
Y-199043D01*
Y-198589D01*
Y-198136D01*
Y-197682D01*
Y-197229D01*
Y-196775D01*
X830370D01*
Y-196322D01*
Y-195868D01*
Y-195414D01*
Y-194961D01*
Y-194507D01*
Y-194054D01*
Y-193600D01*
X830823D01*
Y-193147D01*
Y-192693D01*
Y-192240D01*
Y-191786D01*
Y-191332D01*
X831277D01*
Y-190879D01*
Y-190425D01*
Y-189972D01*
Y-189518D01*
X831730D01*
Y-189065D01*
Y-188611D01*
Y-188158D01*
Y-187704D01*
X832184D01*
Y-187250D01*
Y-186797D01*
Y-186343D01*
X832637D01*
Y-185890D01*
Y-185436D01*
Y-184983D01*
X833091D01*
Y-184529D01*
Y-184076D01*
X833545D01*
Y-183622D01*
Y-183168D01*
Y-182715D01*
X833998D01*
Y-182261D01*
Y-181808D01*
X834452D01*
Y-181354D01*
Y-180901D01*
Y-180447D01*
X834905D01*
Y-179993D01*
Y-179540D01*
X835359D01*
Y-179086D01*
Y-178633D01*
X835812D01*
Y-178179D01*
Y-177726D01*
X836266D01*
Y-177272D01*
X836720D01*
Y-176819D01*
Y-176365D01*
X837173D01*
Y-175912D01*
Y-175458D01*
X837627D01*
Y-175004D01*
X838080D01*
Y-174551D01*
Y-174097D01*
X838534D01*
Y-173644D01*
X838987D01*
Y-173190D01*
Y-172737D01*
X839441D01*
Y-172283D01*
X839894D01*
Y-171830D01*
Y-171376D01*
X840348D01*
Y-170922D01*
X840801D01*
Y-170469D01*
X841255D01*
Y-170015D01*
Y-169562D01*
X841709D01*
Y-169108D01*
X842162D01*
Y-168655D01*
X842616D01*
Y-168201D01*
X843069D01*
Y-167747D01*
X843523D01*
Y-167294D01*
X843976D01*
Y-166840D01*
X844430D01*
Y-166387D01*
Y-165933D01*
X844883D01*
Y-165480D01*
X845337D01*
Y-165026D01*
X845791D01*
Y-164573D01*
X846698D01*
Y-164119D01*
X847151D01*
Y-163666D01*
X847605D01*
Y-163212D01*
X848058D01*
Y-162758D01*
X848512D01*
Y-162305D01*
X848966D01*
Y-161851D01*
X849419D01*
Y-161398D01*
X850326D01*
Y-160944D01*
X850780D01*
Y-160491D01*
X851233D01*
Y-160037D01*
X852140D01*
Y-159584D01*
X852594D01*
Y-159130D01*
X853501D01*
Y-158676D01*
X853955D01*
Y-158223D01*
X854862D01*
Y-157769D01*
X855315D01*
Y-157316D01*
X856222D01*
Y-156862D01*
X857130D01*
Y-156409D01*
X857583D01*
Y-155955D01*
X858944D01*
Y-155501D01*
X859851D01*
Y-155048D01*
X860758D01*
Y-154594D01*
X861665D01*
Y-154141D01*
X862572D01*
Y-153687D01*
X863933D01*
Y-153234D01*
X864840D01*
Y-152780D01*
X866201D01*
Y-152327D01*
X867561D01*
Y-151873D01*
X869376D01*
Y-151419D01*
X871190D01*
Y-150966D01*
X873457D01*
Y-150512D01*
X876632D01*
Y-150059D01*
X881168D01*
Y-149605D01*
X885250D01*
Y-150059D01*
D02*
G37*
G36*
X955551Y-177272D02*
Y-177726D01*
Y-178179D01*
Y-178633D01*
Y-179086D01*
Y-179540D01*
Y-179993D01*
Y-180447D01*
Y-180901D01*
Y-181354D01*
Y-181808D01*
Y-182261D01*
Y-182715D01*
Y-183168D01*
Y-183622D01*
Y-184076D01*
Y-184529D01*
Y-184983D01*
Y-185436D01*
Y-185890D01*
Y-186343D01*
Y-186797D01*
Y-187250D01*
Y-187704D01*
Y-188158D01*
Y-188611D01*
Y-189065D01*
Y-189518D01*
Y-189972D01*
Y-190425D01*
Y-190879D01*
Y-191332D01*
Y-191786D01*
Y-192240D01*
Y-192693D01*
Y-193147D01*
Y-193600D01*
Y-194054D01*
Y-194507D01*
Y-194961D01*
Y-195414D01*
Y-195868D01*
Y-196322D01*
Y-196775D01*
Y-197229D01*
Y-197682D01*
Y-198136D01*
Y-198589D01*
Y-199043D01*
Y-199496D01*
X956458D01*
Y-199043D01*
X956912D01*
Y-198589D01*
X957365D01*
Y-198136D01*
X957819D01*
Y-197682D01*
X958272D01*
Y-197229D01*
X958726D01*
Y-196775D01*
X959180D01*
Y-196322D01*
X960087D01*
Y-195868D01*
X960540D01*
Y-195414D01*
X961447D01*
Y-194961D01*
X962355D01*
Y-194507D01*
X963715D01*
Y-194054D01*
X965529D01*
Y-193600D01*
X974147D01*
Y-194054D01*
X975961D01*
Y-194507D01*
X977322D01*
Y-194961D01*
X978682D01*
Y-195414D01*
X979590D01*
Y-195868D01*
X980043D01*
Y-196322D01*
X980950D01*
Y-196775D01*
X981404D01*
Y-197229D01*
X982311D01*
Y-197682D01*
X982765D01*
Y-198136D01*
X983218D01*
Y-198589D01*
X983672D01*
Y-199043D01*
X984125D01*
Y-199496D01*
X984579D01*
Y-199950D01*
Y-200404D01*
X985032D01*
Y-200857D01*
X985486D01*
Y-201311D01*
X985939D01*
Y-201764D01*
Y-202218D01*
X986393D01*
Y-202671D01*
Y-203125D01*
X986846D01*
Y-203578D01*
Y-204032D01*
X987300D01*
Y-204486D01*
Y-204939D01*
X987754D01*
Y-205393D01*
Y-205846D01*
Y-206300D01*
X988207D01*
Y-206753D01*
Y-207207D01*
Y-207661D01*
Y-208114D01*
X988661D01*
Y-208568D01*
Y-209021D01*
Y-209475D01*
Y-209928D01*
Y-210382D01*
X989114D01*
Y-210835D01*
Y-211289D01*
Y-211742D01*
Y-212196D01*
Y-212650D01*
Y-213103D01*
Y-213557D01*
Y-214010D01*
Y-214464D01*
X989568D01*
Y-214917D01*
X989114D01*
Y-215371D01*
Y-215825D01*
Y-216278D01*
Y-216732D01*
Y-217185D01*
Y-217639D01*
Y-218092D01*
Y-218546D01*
Y-218999D01*
Y-219453D01*
Y-219907D01*
Y-220360D01*
Y-220814D01*
Y-221267D01*
Y-221721D01*
Y-222174D01*
Y-222628D01*
X988661D01*
Y-223081D01*
Y-223535D01*
Y-223988D01*
Y-224442D01*
Y-224896D01*
X988207D01*
Y-225349D01*
Y-225803D01*
Y-226256D01*
X987754D01*
Y-226710D01*
Y-227163D01*
Y-227617D01*
X987300D01*
Y-228071D01*
Y-228524D01*
Y-228978D01*
X986846D01*
Y-229431D01*
Y-229885D01*
X986393D01*
Y-230338D01*
Y-230792D01*
X985939D01*
Y-231245D01*
X985486D01*
Y-231699D01*
Y-232153D01*
X985032D01*
Y-232606D01*
X984579D01*
Y-233060D01*
X984125D01*
Y-233513D01*
X983672D01*
Y-233967D01*
Y-234420D01*
X982765D01*
Y-234874D01*
X982311D01*
Y-235327D01*
X981857D01*
Y-235781D01*
X981404D01*
Y-236234D01*
X980497D01*
Y-236688D01*
X980043D01*
Y-237142D01*
X979136D01*
Y-237595D01*
X978229D01*
Y-238049D01*
X977322D01*
Y-238502D01*
X975961D01*
Y-238956D01*
X973693D01*
Y-239409D01*
X965983D01*
Y-238956D01*
X963715D01*
Y-238502D01*
X962808D01*
Y-238049D01*
X961447D01*
Y-237595D01*
X960994D01*
Y-237142D01*
X960087D01*
Y-236688D01*
X959633D01*
Y-236234D01*
X958726D01*
Y-235781D01*
X958272D01*
Y-235327D01*
X957819D01*
Y-234874D01*
X957365D01*
Y-234420D01*
X956912D01*
Y-233967D01*
X956458D01*
Y-233513D01*
X956005D01*
Y-233060D01*
Y-232606D01*
X955098D01*
Y-233060D01*
Y-233513D01*
Y-233967D01*
Y-234420D01*
Y-234874D01*
Y-235327D01*
Y-235781D01*
Y-236234D01*
Y-236688D01*
Y-237142D01*
Y-237595D01*
Y-238049D01*
Y-238502D01*
X943759D01*
Y-238049D01*
Y-237595D01*
Y-237142D01*
Y-236688D01*
Y-236234D01*
Y-235781D01*
Y-235327D01*
Y-234874D01*
Y-234420D01*
Y-233967D01*
Y-233513D01*
Y-233060D01*
Y-232606D01*
Y-232153D01*
Y-231699D01*
Y-231245D01*
Y-230792D01*
Y-230338D01*
Y-229885D01*
Y-229431D01*
Y-228978D01*
Y-228524D01*
Y-228071D01*
Y-227617D01*
Y-227163D01*
Y-226710D01*
Y-226256D01*
Y-225803D01*
Y-225349D01*
Y-224896D01*
Y-224442D01*
Y-223988D01*
Y-223535D01*
Y-223081D01*
Y-222628D01*
Y-222174D01*
Y-221721D01*
Y-221267D01*
Y-220814D01*
Y-220360D01*
Y-219907D01*
Y-219453D01*
Y-218999D01*
Y-218546D01*
Y-218092D01*
Y-217639D01*
Y-217185D01*
Y-216732D01*
Y-216278D01*
Y-215825D01*
Y-215371D01*
Y-214917D01*
Y-214464D01*
Y-214010D01*
Y-213557D01*
Y-213103D01*
Y-212650D01*
Y-212196D01*
Y-211742D01*
Y-211289D01*
Y-210835D01*
Y-210382D01*
Y-209928D01*
Y-209475D01*
Y-209021D01*
Y-208568D01*
Y-208114D01*
Y-207661D01*
Y-207207D01*
Y-206753D01*
Y-206300D01*
Y-205846D01*
Y-205393D01*
Y-204939D01*
Y-204486D01*
Y-204032D01*
Y-203578D01*
Y-203125D01*
Y-202671D01*
Y-202218D01*
Y-201764D01*
Y-201311D01*
Y-200857D01*
Y-200404D01*
Y-199950D01*
Y-199496D01*
Y-199043D01*
Y-198589D01*
Y-198136D01*
Y-197682D01*
Y-197229D01*
Y-196775D01*
Y-196322D01*
Y-195868D01*
Y-195414D01*
Y-194961D01*
Y-194507D01*
Y-194054D01*
Y-193600D01*
Y-193147D01*
Y-192693D01*
Y-192240D01*
Y-191786D01*
Y-191332D01*
Y-190879D01*
Y-190425D01*
Y-189972D01*
Y-189518D01*
Y-189065D01*
Y-188611D01*
Y-188158D01*
Y-187704D01*
Y-187250D01*
Y-186797D01*
Y-186343D01*
Y-185890D01*
Y-185436D01*
Y-184983D01*
Y-184529D01*
Y-184076D01*
Y-183622D01*
Y-183168D01*
Y-182715D01*
Y-182261D01*
Y-181808D01*
Y-181354D01*
Y-180901D01*
Y-180447D01*
Y-179993D01*
Y-179540D01*
Y-179086D01*
Y-178633D01*
Y-178179D01*
Y-177726D01*
Y-177272D01*
Y-176819D01*
X955551D01*
Y-177272D01*
D02*
G37*
G36*
X1009071D02*
Y-177726D01*
Y-178179D01*
Y-178633D01*
Y-179086D01*
Y-179540D01*
Y-179993D01*
Y-180447D01*
Y-180901D01*
Y-181354D01*
Y-181808D01*
Y-182261D01*
Y-182715D01*
Y-183168D01*
Y-183622D01*
Y-184076D01*
Y-184529D01*
Y-184983D01*
Y-185436D01*
Y-185890D01*
Y-186343D01*
Y-186797D01*
Y-187250D01*
Y-187704D01*
Y-188158D01*
Y-188611D01*
Y-189065D01*
Y-189518D01*
Y-189972D01*
Y-190425D01*
Y-190879D01*
Y-191332D01*
Y-191786D01*
Y-192240D01*
Y-192693D01*
Y-193147D01*
Y-193600D01*
Y-194054D01*
Y-194507D01*
Y-194961D01*
Y-195414D01*
Y-195868D01*
Y-196322D01*
Y-196775D01*
Y-197229D01*
Y-197682D01*
Y-198136D01*
Y-198589D01*
Y-199043D01*
Y-199496D01*
Y-199950D01*
Y-200404D01*
Y-200857D01*
Y-201311D01*
Y-201764D01*
Y-202218D01*
Y-202671D01*
Y-203125D01*
Y-203578D01*
Y-204032D01*
Y-204486D01*
Y-204939D01*
Y-205393D01*
Y-205846D01*
Y-206300D01*
Y-206753D01*
Y-207207D01*
Y-207661D01*
Y-208114D01*
Y-208568D01*
Y-209021D01*
Y-209475D01*
Y-209928D01*
Y-210382D01*
Y-210835D01*
Y-211289D01*
Y-211742D01*
Y-212196D01*
Y-212650D01*
Y-213103D01*
Y-213557D01*
Y-214010D01*
Y-214464D01*
Y-214917D01*
Y-215371D01*
Y-215825D01*
Y-216278D01*
Y-216732D01*
Y-217185D01*
Y-217639D01*
Y-218092D01*
Y-218546D01*
Y-218999D01*
Y-219453D01*
Y-219907D01*
Y-220360D01*
Y-220814D01*
Y-221267D01*
Y-221721D01*
Y-222174D01*
Y-222628D01*
Y-223081D01*
Y-223535D01*
Y-223988D01*
Y-224442D01*
Y-224896D01*
Y-225349D01*
Y-225803D01*
Y-226256D01*
Y-226710D01*
Y-227163D01*
Y-227617D01*
Y-228071D01*
Y-228524D01*
Y-228978D01*
Y-229431D01*
Y-229885D01*
Y-230338D01*
Y-230792D01*
Y-231245D01*
Y-231699D01*
Y-232153D01*
Y-232606D01*
Y-233060D01*
Y-233513D01*
Y-233967D01*
Y-234420D01*
Y-234874D01*
Y-235327D01*
Y-235781D01*
Y-236234D01*
Y-236688D01*
Y-237142D01*
Y-237595D01*
Y-238049D01*
Y-238502D01*
X997732D01*
Y-238049D01*
Y-237595D01*
Y-237142D01*
Y-236688D01*
Y-236234D01*
Y-235781D01*
Y-235327D01*
Y-234874D01*
Y-234420D01*
Y-233967D01*
Y-233513D01*
Y-233060D01*
Y-232606D01*
Y-232153D01*
Y-231699D01*
Y-231245D01*
Y-230792D01*
Y-230338D01*
Y-229885D01*
Y-229431D01*
Y-228978D01*
Y-228524D01*
Y-228071D01*
Y-227617D01*
Y-227163D01*
Y-226710D01*
Y-226256D01*
Y-225803D01*
Y-225349D01*
Y-224896D01*
Y-224442D01*
Y-223988D01*
Y-223535D01*
Y-223081D01*
Y-222628D01*
Y-222174D01*
Y-221721D01*
Y-221267D01*
Y-220814D01*
Y-220360D01*
Y-219907D01*
Y-219453D01*
Y-218999D01*
Y-218546D01*
Y-218092D01*
Y-217639D01*
Y-217185D01*
Y-216732D01*
Y-216278D01*
Y-215825D01*
Y-215371D01*
Y-214917D01*
Y-214464D01*
Y-214010D01*
Y-213557D01*
Y-213103D01*
Y-212650D01*
Y-212196D01*
Y-211742D01*
Y-211289D01*
Y-210835D01*
Y-210382D01*
Y-209928D01*
Y-209475D01*
Y-209021D01*
Y-208568D01*
Y-208114D01*
Y-207661D01*
Y-207207D01*
Y-206753D01*
Y-206300D01*
Y-205846D01*
Y-205393D01*
Y-204939D01*
Y-204486D01*
Y-204032D01*
Y-203578D01*
Y-203125D01*
Y-202671D01*
Y-202218D01*
Y-201764D01*
Y-201311D01*
Y-200857D01*
Y-200404D01*
Y-199950D01*
Y-199496D01*
Y-199043D01*
Y-198589D01*
Y-198136D01*
Y-197682D01*
Y-197229D01*
Y-196775D01*
Y-196322D01*
Y-195868D01*
Y-195414D01*
Y-194961D01*
Y-194507D01*
Y-194054D01*
Y-193600D01*
Y-193147D01*
Y-192693D01*
Y-192240D01*
Y-191786D01*
Y-191332D01*
Y-190879D01*
Y-190425D01*
Y-189972D01*
Y-189518D01*
Y-189065D01*
Y-188611D01*
Y-188158D01*
Y-187704D01*
Y-187250D01*
Y-186797D01*
Y-186343D01*
Y-185890D01*
Y-185436D01*
Y-184983D01*
Y-184529D01*
Y-184076D01*
Y-183622D01*
Y-183168D01*
Y-182715D01*
Y-182261D01*
Y-181808D01*
Y-181354D01*
Y-180901D01*
Y-180447D01*
Y-179993D01*
Y-179540D01*
Y-179086D01*
Y-178633D01*
Y-178179D01*
Y-177726D01*
Y-177272D01*
Y-176819D01*
X1009071D01*
Y-177272D01*
D02*
G37*
G36*
X1045355Y-194054D02*
X1047623D01*
Y-194507D01*
X1048984D01*
Y-194961D01*
X1050344D01*
Y-195414D01*
X1051252D01*
Y-195868D01*
X1052159D01*
Y-196322D01*
X1053066D01*
Y-196775D01*
X1053973D01*
Y-197229D01*
X1054426D01*
Y-197682D01*
X1055333D01*
Y-198136D01*
X1055787D01*
Y-198589D01*
X1056241D01*
Y-199043D01*
X1056694D01*
Y-199496D01*
X1057148D01*
Y-199950D01*
X1057601D01*
Y-200404D01*
X1058055D01*
Y-200857D01*
X1058508D01*
Y-201311D01*
X1058962D01*
Y-201764D01*
Y-202218D01*
X1059416D01*
Y-202671D01*
X1059869D01*
Y-203125D01*
Y-203578D01*
X1060323D01*
Y-204032D01*
Y-204486D01*
X1060776D01*
Y-204939D01*
Y-205393D01*
X1061230D01*
Y-205846D01*
Y-206300D01*
X1061683D01*
Y-206753D01*
Y-207207D01*
Y-207661D01*
X1062137D01*
Y-208114D01*
Y-208568D01*
Y-209021D01*
Y-209475D01*
Y-209928D01*
X1062590D01*
Y-210382D01*
Y-210835D01*
Y-211289D01*
Y-211742D01*
Y-212196D01*
Y-212650D01*
Y-213103D01*
X1063044D01*
Y-213557D01*
Y-214010D01*
Y-214464D01*
Y-214917D01*
Y-215371D01*
Y-215825D01*
Y-216278D01*
Y-216732D01*
Y-217185D01*
Y-217639D01*
Y-218092D01*
Y-218546D01*
Y-218999D01*
Y-219453D01*
Y-219907D01*
X1062590D01*
Y-220360D01*
Y-220814D01*
Y-221267D01*
Y-221721D01*
Y-222174D01*
Y-222628D01*
Y-223081D01*
X1062137D01*
Y-223535D01*
Y-223988D01*
Y-224442D01*
Y-224896D01*
X1061683D01*
Y-225349D01*
Y-225803D01*
Y-226256D01*
X1061230D01*
Y-226710D01*
Y-227163D01*
Y-227617D01*
X1060776D01*
Y-228071D01*
Y-228524D01*
X1060323D01*
Y-228978D01*
Y-229431D01*
X1059869D01*
Y-229885D01*
Y-230338D01*
X1059416D01*
Y-230792D01*
X1058962D01*
Y-231245D01*
X1058508D01*
Y-231699D01*
Y-232153D01*
X1058055D01*
Y-232606D01*
X1057601D01*
Y-233060D01*
X1057148D01*
Y-233513D01*
X1056694D01*
Y-233967D01*
X1056241D01*
Y-234420D01*
X1055787D01*
Y-234874D01*
X1054880D01*
Y-235327D01*
X1054426D01*
Y-235781D01*
X1053519D01*
Y-236234D01*
X1053066D01*
Y-236688D01*
X1052159D01*
Y-237142D01*
X1051252D01*
Y-237595D01*
X1049891D01*
Y-238049D01*
X1048530D01*
Y-238502D01*
X1047169D01*
Y-238956D01*
X1044902D01*
Y-239409D01*
X1035377D01*
Y-238956D01*
X1032656D01*
Y-238502D01*
X1030841D01*
Y-238049D01*
X1029934D01*
Y-237595D01*
X1028574D01*
Y-237142D01*
X1027667D01*
Y-236688D01*
X1026759D01*
Y-236234D01*
X1026306D01*
Y-235781D01*
X1025399D01*
Y-235327D01*
X1024945D01*
Y-234874D01*
X1024038D01*
Y-234420D01*
X1023585D01*
Y-233967D01*
X1023131D01*
Y-233513D01*
X1022678D01*
Y-233060D01*
X1022224D01*
Y-232606D01*
X1021770D01*
Y-232153D01*
X1021317D01*
Y-231699D01*
Y-231245D01*
X1020863D01*
Y-230792D01*
X1020410D01*
Y-230338D01*
X1019956D01*
Y-229885D01*
Y-229431D01*
X1019503D01*
Y-228978D01*
Y-228524D01*
X1019049D01*
Y-228071D01*
Y-227617D01*
X1018595D01*
Y-227163D01*
Y-226710D01*
Y-226256D01*
X1018142D01*
Y-225803D01*
Y-225349D01*
Y-224896D01*
X1017688D01*
Y-224442D01*
Y-223988D01*
Y-223535D01*
Y-223081D01*
X1017235D01*
Y-222628D01*
Y-222174D01*
Y-221721D01*
Y-221267D01*
Y-220814D01*
Y-220360D01*
Y-219907D01*
Y-219453D01*
X1016781D01*
Y-218999D01*
Y-218546D01*
Y-218092D01*
Y-217639D01*
Y-217185D01*
Y-216732D01*
Y-216278D01*
Y-215825D01*
Y-215371D01*
Y-214917D01*
Y-214464D01*
Y-214010D01*
Y-213557D01*
X1017235D01*
Y-213103D01*
Y-212650D01*
Y-212196D01*
Y-211742D01*
Y-211289D01*
Y-210835D01*
Y-210382D01*
Y-209928D01*
X1017688D01*
Y-209475D01*
Y-209021D01*
Y-208568D01*
Y-208114D01*
X1018142D01*
Y-207661D01*
Y-207207D01*
Y-206753D01*
X1018595D01*
Y-206300D01*
Y-205846D01*
Y-205393D01*
X1019049D01*
Y-204939D01*
Y-204486D01*
X1019503D01*
Y-204032D01*
Y-203578D01*
X1019956D01*
Y-203125D01*
Y-202671D01*
X1020410D01*
Y-202218D01*
X1020863D01*
Y-201764D01*
Y-201311D01*
X1021317D01*
Y-200857D01*
X1021770D01*
Y-200404D01*
X1022224D01*
Y-199950D01*
X1022678D01*
Y-199496D01*
X1023131D01*
Y-199043D01*
X1023585D01*
Y-198589D01*
X1024038D01*
Y-198136D01*
X1024492D01*
Y-197682D01*
X1025399D01*
Y-197229D01*
X1025852D01*
Y-196775D01*
X1026759D01*
Y-196322D01*
X1027667D01*
Y-195868D01*
X1028574D01*
Y-195414D01*
X1029481D01*
Y-194961D01*
X1030841D01*
Y-194507D01*
X1032202D01*
Y-194054D01*
X1034470D01*
Y-193600D01*
X1045355D01*
Y-194054D01*
D02*
G37*
G36*
X1111121Y-194961D02*
X1110667D01*
Y-195414D01*
Y-195868D01*
X1110214D01*
Y-196322D01*
X1109760D01*
Y-196775D01*
X1109307D01*
Y-197229D01*
Y-197682D01*
X1108853D01*
Y-198136D01*
X1108400D01*
Y-198589D01*
Y-199043D01*
X1107946D01*
Y-199496D01*
X1107492D01*
Y-199950D01*
X1107039D01*
Y-200404D01*
Y-200857D01*
X1106585D01*
Y-201311D01*
X1106132D01*
Y-201764D01*
X1105678D01*
Y-202218D01*
Y-202671D01*
X1105225D01*
Y-203125D01*
X1104771D01*
Y-203578D01*
X1104317D01*
Y-204032D01*
Y-204486D01*
X1103864D01*
Y-204939D01*
X1103410D01*
Y-205393D01*
Y-205846D01*
X1102957D01*
Y-206300D01*
X1102503D01*
Y-206753D01*
X1102050D01*
Y-207207D01*
Y-207661D01*
X1101596D01*
Y-208114D01*
X1101143D01*
Y-208568D01*
X1100689D01*
Y-209021D01*
Y-209475D01*
X1100236D01*
Y-209928D01*
X1099782D01*
Y-210382D01*
Y-210835D01*
X1099328D01*
Y-211289D01*
X1098875D01*
Y-211742D01*
X1098421D01*
Y-212196D01*
Y-212650D01*
X1097968D01*
Y-213103D01*
X1097514D01*
Y-213557D01*
X1097061D01*
Y-214010D01*
Y-214464D01*
X1096607D01*
Y-214917D01*
X1096153D01*
Y-215371D01*
X1095700D01*
Y-215825D01*
Y-216278D01*
Y-216732D01*
X1096153D01*
Y-217185D01*
Y-217639D01*
X1096607D01*
Y-218092D01*
X1097061D01*
Y-218546D01*
X1097514D01*
Y-218999D01*
Y-219453D01*
X1097968D01*
Y-219907D01*
X1098421D01*
Y-220360D01*
X1098875D01*
Y-220814D01*
Y-221267D01*
X1099328D01*
Y-221721D01*
X1099782D01*
Y-222174D01*
Y-222628D01*
X1100236D01*
Y-223081D01*
X1100689D01*
Y-223535D01*
X1101143D01*
Y-223988D01*
Y-224442D01*
X1101596D01*
Y-224896D01*
X1102050D01*
Y-225349D01*
X1102503D01*
Y-225803D01*
Y-226256D01*
X1102957D01*
Y-226710D01*
X1103410D01*
Y-227163D01*
X1103864D01*
Y-227617D01*
Y-228071D01*
X1104317D01*
Y-228524D01*
X1104771D01*
Y-228978D01*
X1105225D01*
Y-229431D01*
Y-229885D01*
X1105678D01*
Y-230338D01*
X1106132D01*
Y-230792D01*
X1106585D01*
Y-231245D01*
Y-231699D01*
X1107039D01*
Y-232153D01*
X1107492D01*
Y-232606D01*
X1107946D01*
Y-233060D01*
Y-233513D01*
X1108400D01*
Y-233967D01*
X1108853D01*
Y-234420D01*
Y-234874D01*
X1109307D01*
Y-235327D01*
X1109760D01*
Y-235781D01*
X1110214D01*
Y-236234D01*
Y-236688D01*
X1110667D01*
Y-237142D01*
X1111121D01*
Y-237595D01*
X1111574D01*
Y-238049D01*
X1112028D01*
Y-238502D01*
X1097514D01*
Y-238049D01*
Y-237595D01*
X1097061D01*
Y-237142D01*
X1096607D01*
Y-236688D01*
X1096153D01*
Y-236234D01*
Y-235781D01*
X1095700D01*
Y-235327D01*
X1095246D01*
Y-234874D01*
X1094793D01*
Y-234420D01*
Y-233967D01*
X1094339D01*
Y-233513D01*
X1093886D01*
Y-233060D01*
Y-232606D01*
X1093432D01*
Y-232153D01*
X1092979D01*
Y-231699D01*
X1092525D01*
Y-231245D01*
Y-230792D01*
X1092072D01*
Y-230338D01*
X1091618D01*
Y-229885D01*
X1091164D01*
Y-229431D01*
Y-228978D01*
X1090711D01*
Y-228524D01*
X1090257D01*
Y-228071D01*
Y-227617D01*
X1089804D01*
Y-227163D01*
X1089350D01*
Y-226710D01*
X1088897D01*
Y-226256D01*
Y-225803D01*
X1088443D01*
Y-225349D01*
X1087990D01*
Y-224896D01*
X1087536D01*
Y-224442D01*
X1087082D01*
Y-224896D01*
Y-225349D01*
X1086629D01*
Y-225803D01*
X1086175D01*
Y-226256D01*
X1085722D01*
Y-226710D01*
Y-227163D01*
X1085268D01*
Y-227617D01*
X1084815D01*
Y-228071D01*
Y-228524D01*
X1084361D01*
Y-228978D01*
X1083907D01*
Y-229431D01*
X1083454D01*
Y-229885D01*
Y-230338D01*
X1083000D01*
Y-230792D01*
X1082547D01*
Y-231245D01*
Y-231699D01*
X1082093D01*
Y-232153D01*
X1081640D01*
Y-232606D01*
X1081186D01*
Y-233060D01*
Y-233513D01*
X1080733D01*
Y-233967D01*
X1080279D01*
Y-234420D01*
Y-234874D01*
X1079826D01*
Y-235327D01*
X1079372D01*
Y-235781D01*
X1078918D01*
Y-236234D01*
Y-236688D01*
X1078465D01*
Y-237142D01*
X1078011D01*
Y-237595D01*
Y-238049D01*
X1077558D01*
Y-238502D01*
X1064405D01*
Y-238049D01*
X1064858D01*
Y-237595D01*
X1065312D01*
Y-237142D01*
Y-236688D01*
X1065765D01*
Y-236234D01*
X1066219D01*
Y-235781D01*
X1066672D01*
Y-235327D01*
Y-234874D01*
X1067126D01*
Y-234420D01*
X1067579D01*
Y-233967D01*
Y-233513D01*
X1068033D01*
Y-233060D01*
X1068487D01*
Y-232606D01*
X1068940D01*
Y-232153D01*
X1069394D01*
Y-231699D01*
Y-231245D01*
X1069847D01*
Y-230792D01*
X1070301D01*
Y-230338D01*
Y-229885D01*
X1070754D01*
Y-229431D01*
X1071208D01*
Y-228978D01*
X1071662D01*
Y-228524D01*
Y-228071D01*
X1072115D01*
Y-227617D01*
X1072569D01*
Y-227163D01*
X1073022D01*
Y-226710D01*
Y-226256D01*
X1073476D01*
Y-225803D01*
X1073929D01*
Y-225349D01*
X1074383D01*
Y-224896D01*
Y-224442D01*
X1074836D01*
Y-223988D01*
X1075290D01*
Y-223535D01*
X1075743D01*
Y-223081D01*
Y-222628D01*
X1076197D01*
Y-222174D01*
X1076651D01*
Y-221721D01*
X1077104D01*
Y-221267D01*
Y-220814D01*
X1077558D01*
Y-220360D01*
X1078011D01*
Y-219907D01*
X1078465D01*
Y-219453D01*
Y-218999D01*
X1078918D01*
Y-218546D01*
X1079372D01*
Y-218092D01*
Y-217639D01*
X1079826D01*
Y-217185D01*
X1080279D01*
Y-216732D01*
X1080733D01*
Y-216278D01*
Y-215825D01*
X1080279D01*
Y-215371D01*
X1079826D01*
Y-214917D01*
X1079372D01*
Y-214464D01*
Y-214010D01*
X1078918D01*
Y-213557D01*
X1078465D01*
Y-213103D01*
X1078011D01*
Y-212650D01*
Y-212196D01*
X1077558D01*
Y-211742D01*
X1077104D01*
Y-211289D01*
Y-210835D01*
X1076651D01*
Y-210382D01*
X1076197D01*
Y-209928D01*
X1075743D01*
Y-209475D01*
Y-209021D01*
X1075290D01*
Y-208568D01*
X1074836D01*
Y-208114D01*
X1074383D01*
Y-207661D01*
Y-207207D01*
X1073929D01*
Y-206753D01*
X1073476D01*
Y-206300D01*
Y-205846D01*
X1073022D01*
Y-205393D01*
X1072569D01*
Y-204939D01*
X1072115D01*
Y-204486D01*
Y-204032D01*
X1071662D01*
Y-203578D01*
X1071208D01*
Y-203125D01*
X1070754D01*
Y-202671D01*
Y-202218D01*
X1070301D01*
Y-201764D01*
X1069847D01*
Y-201311D01*
Y-200857D01*
X1069394D01*
Y-200404D01*
X1068940D01*
Y-199950D01*
X1068487D01*
Y-199496D01*
Y-199043D01*
X1068033D01*
Y-198589D01*
X1067579D01*
Y-198136D01*
X1067126D01*
Y-197682D01*
Y-197229D01*
X1066672D01*
Y-196775D01*
X1066219D01*
Y-196322D01*
Y-195868D01*
X1065765D01*
Y-195414D01*
X1065312D01*
Y-194961D01*
X1064858D01*
Y-194507D01*
X1078918D01*
Y-194961D01*
X1079372D01*
Y-195414D01*
X1079826D01*
Y-195868D01*
Y-196322D01*
X1080279D01*
Y-196775D01*
X1080733D01*
Y-197229D01*
X1081186D01*
Y-197682D01*
Y-198136D01*
X1081640D01*
Y-198589D01*
X1082093D01*
Y-199043D01*
Y-199496D01*
X1082547D01*
Y-199950D01*
X1083000D01*
Y-200404D01*
Y-200857D01*
X1083454D01*
Y-201311D01*
X1083907D01*
Y-201764D01*
X1084361D01*
Y-202218D01*
Y-202671D01*
X1084815D01*
Y-203125D01*
X1085268D01*
Y-203578D01*
Y-204032D01*
X1085722D01*
Y-204486D01*
X1086175D01*
Y-204939D01*
X1086629D01*
Y-205393D01*
Y-205846D01*
X1087082D01*
Y-206300D01*
X1087536D01*
Y-206753D01*
Y-207207D01*
X1087990D01*
Y-207661D01*
X1088443D01*
Y-208114D01*
X1088897D01*
Y-207661D01*
X1089350D01*
Y-207207D01*
Y-206753D01*
X1089804D01*
Y-206300D01*
X1090257D01*
Y-205846D01*
X1090711D01*
Y-205393D01*
Y-204939D01*
X1091164D01*
Y-204486D01*
X1091618D01*
Y-204032D01*
Y-203578D01*
X1092072D01*
Y-203125D01*
X1092525D01*
Y-202671D01*
X1092979D01*
Y-202218D01*
Y-201764D01*
X1093432D01*
Y-201311D01*
X1093886D01*
Y-200857D01*
Y-200404D01*
X1094339D01*
Y-199950D01*
X1094793D01*
Y-199496D01*
X1095246D01*
Y-199043D01*
Y-198589D01*
X1095700D01*
Y-198136D01*
X1096153D01*
Y-197682D01*
Y-197229D01*
X1096607D01*
Y-196775D01*
X1097061D01*
Y-196322D01*
X1097514D01*
Y-195868D01*
Y-195414D01*
X1097968D01*
Y-194961D01*
X1098421D01*
Y-194507D01*
X1111121D01*
Y-194961D01*
D02*
G37*
%LPC*%
G36*
X873457Y-173644D02*
X871190D01*
Y-174097D01*
X869376D01*
Y-174551D01*
X868468D01*
Y-175004D01*
X867561D01*
Y-175458D01*
X866654D01*
Y-175912D01*
X866201D01*
Y-176365D01*
X865747D01*
Y-176819D01*
X865294D01*
Y-177272D01*
X864840D01*
Y-177726D01*
Y-178179D01*
X864386D01*
Y-178633D01*
X863933D01*
Y-179086D01*
Y-179540D01*
X863479D01*
Y-179993D01*
Y-180447D01*
Y-180901D01*
Y-181354D01*
X863026D01*
Y-181808D01*
Y-182261D01*
Y-182715D01*
Y-183168D01*
Y-183622D01*
Y-184076D01*
Y-184529D01*
Y-184983D01*
X863479D01*
Y-185436D01*
Y-185890D01*
Y-186343D01*
X863933D01*
Y-186797D01*
Y-187250D01*
X864386D01*
Y-187704D01*
Y-188158D01*
X864840D01*
Y-188611D01*
X865294D01*
Y-189065D01*
X865747D01*
Y-189518D01*
X866201D01*
Y-189972D01*
X866654D01*
Y-190425D01*
X867108D01*
Y-190879D01*
X868015D01*
Y-191332D01*
X868922D01*
Y-191786D01*
X870283D01*
Y-192240D01*
X874365D01*
Y-191786D01*
X875725D01*
Y-191332D01*
X876632D01*
Y-190879D01*
X877540D01*
Y-190425D01*
X877993D01*
Y-189972D01*
X878447D01*
Y-189518D01*
X879354D01*
Y-189065D01*
Y-188611D01*
X879807D01*
Y-188158D01*
X880261D01*
Y-187704D01*
Y-187250D01*
X880714D01*
Y-186797D01*
Y-186343D01*
X881168D01*
Y-185890D01*
Y-185436D01*
Y-184983D01*
X881622D01*
Y-184529D01*
Y-184076D01*
Y-183622D01*
Y-183168D01*
Y-182715D01*
Y-182261D01*
Y-181808D01*
Y-181354D01*
X881168D01*
Y-180901D01*
Y-180447D01*
Y-179993D01*
Y-179540D01*
X880714D01*
Y-179086D01*
Y-178633D01*
X880261D01*
Y-178179D01*
Y-177726D01*
X879807D01*
Y-177272D01*
X879354D01*
Y-176819D01*
X878900D01*
Y-176365D01*
X878447D01*
Y-175912D01*
X877993D01*
Y-175458D01*
X877086D01*
Y-175004D01*
X876632D01*
Y-174551D01*
X875272D01*
Y-174097D01*
X873457D01*
Y-173644D01*
D02*
G37*
G36*
X968251Y-203578D02*
X964169D01*
Y-204032D01*
X962355D01*
Y-204486D01*
X960994D01*
Y-204939D01*
X960087D01*
Y-205393D01*
X959633D01*
Y-205846D01*
X958726D01*
Y-206300D01*
X958272D01*
Y-206753D01*
X957819D01*
Y-207207D01*
Y-207661D01*
X957365D01*
Y-208114D01*
X956912D01*
Y-208568D01*
Y-209021D01*
X956458D01*
Y-209475D01*
Y-209928D01*
X956005D01*
Y-210382D01*
Y-210835D01*
Y-211289D01*
X955551D01*
Y-211742D01*
Y-212196D01*
Y-212650D01*
Y-213103D01*
Y-213557D01*
X955098D01*
Y-214010D01*
Y-214464D01*
Y-214917D01*
Y-215371D01*
Y-215825D01*
Y-216278D01*
Y-216732D01*
Y-217185D01*
Y-217639D01*
Y-218092D01*
Y-218546D01*
Y-218999D01*
Y-219453D01*
X955551D01*
Y-219907D01*
Y-220360D01*
Y-220814D01*
Y-221267D01*
Y-221721D01*
X956005D01*
Y-222174D01*
Y-222628D01*
Y-223081D01*
X956458D01*
Y-223535D01*
Y-223988D01*
X956912D01*
Y-224442D01*
Y-224896D01*
X957365D01*
Y-225349D01*
X957819D01*
Y-225803D01*
X958272D01*
Y-226256D01*
X958726D01*
Y-226710D01*
X959180D01*
Y-227163D01*
X959633D01*
Y-227617D01*
X960540D01*
Y-228071D01*
X961447D01*
Y-228524D01*
X962355D01*
Y-228978D01*
X964622D01*
Y-229431D01*
X967797D01*
Y-228978D01*
X970065D01*
Y-228524D01*
X971426D01*
Y-228071D01*
X972333D01*
Y-227617D01*
X972786D01*
Y-227163D01*
X973693D01*
Y-226710D01*
X974147D01*
Y-226256D01*
X974601D01*
Y-225803D01*
X975054D01*
Y-225349D01*
Y-224896D01*
X975508D01*
Y-224442D01*
X975961D01*
Y-223988D01*
Y-223535D01*
X976415D01*
Y-223081D01*
Y-222628D01*
Y-222174D01*
X976868D01*
Y-221721D01*
Y-221267D01*
Y-220814D01*
Y-220360D01*
X977322D01*
Y-219907D01*
Y-219453D01*
Y-218999D01*
Y-218546D01*
Y-218092D01*
Y-217639D01*
Y-217185D01*
Y-216732D01*
Y-216278D01*
Y-215825D01*
Y-215371D01*
Y-214917D01*
Y-214464D01*
Y-214010D01*
Y-213557D01*
Y-213103D01*
Y-212650D01*
Y-212196D01*
X976868D01*
Y-211742D01*
Y-211289D01*
Y-210835D01*
Y-210382D01*
X976415D01*
Y-209928D01*
Y-209475D01*
X975961D01*
Y-209021D01*
Y-208568D01*
X975508D01*
Y-208114D01*
Y-207661D01*
X975054D01*
Y-207207D01*
X974601D01*
Y-206753D01*
X974147D01*
Y-206300D01*
X973693D01*
Y-205846D01*
X973240D01*
Y-205393D01*
X972333D01*
Y-204939D01*
X971426D01*
Y-204486D01*
X970518D01*
Y-204032D01*
X968251D01*
Y-203578D01*
D02*
G37*
G36*
X1042180D02*
X1037645D01*
Y-204032D01*
X1035831D01*
Y-204486D01*
X1034470D01*
Y-204939D01*
X1033563D01*
Y-205393D01*
X1033109D01*
Y-205846D01*
X1032656D01*
Y-206300D01*
X1032202D01*
Y-206753D01*
X1031749D01*
Y-207207D01*
X1031295D01*
Y-207661D01*
X1030841D01*
Y-208114D01*
X1030388D01*
Y-208568D01*
Y-209021D01*
X1029934D01*
Y-209475D01*
Y-209928D01*
X1029481D01*
Y-210382D01*
Y-210835D01*
Y-211289D01*
X1029027D01*
Y-211742D01*
Y-212196D01*
Y-212650D01*
Y-213103D01*
Y-213557D01*
Y-214010D01*
Y-214464D01*
X1028574D01*
Y-214917D01*
Y-215371D01*
Y-215825D01*
Y-216278D01*
Y-216732D01*
Y-217185D01*
Y-217639D01*
Y-218092D01*
X1029027D01*
Y-218546D01*
Y-218999D01*
Y-219453D01*
Y-219907D01*
Y-220360D01*
Y-220814D01*
Y-221267D01*
X1029481D01*
Y-221721D01*
Y-222174D01*
Y-222628D01*
X1029934D01*
Y-223081D01*
Y-223535D01*
Y-223988D01*
X1030388D01*
Y-224442D01*
X1030841D01*
Y-224896D01*
Y-225349D01*
X1031295D01*
Y-225803D01*
X1031749D01*
Y-226256D01*
X1032202D01*
Y-226710D01*
X1032656D01*
Y-227163D01*
X1033109D01*
Y-227617D01*
X1034016D01*
Y-228071D01*
X1034923D01*
Y-228524D01*
X1036284D01*
Y-228978D01*
X1038552D01*
Y-229431D01*
X1041273D01*
Y-228978D01*
X1043541D01*
Y-228524D01*
X1044902D01*
Y-228071D01*
X1045809D01*
Y-227617D01*
X1046716D01*
Y-227163D01*
X1047169D01*
Y-226710D01*
X1047623D01*
Y-226256D01*
X1048077D01*
Y-225803D01*
X1048530D01*
Y-225349D01*
X1048984D01*
Y-224896D01*
Y-224442D01*
X1049437D01*
Y-223988D01*
X1049891D01*
Y-223535D01*
Y-223081D01*
Y-222628D01*
X1050344D01*
Y-222174D01*
Y-221721D01*
Y-221267D01*
X1050798D01*
Y-220814D01*
Y-220360D01*
Y-219907D01*
Y-219453D01*
Y-218999D01*
X1051252D01*
Y-218546D01*
Y-218092D01*
Y-217639D01*
Y-217185D01*
Y-216732D01*
Y-216278D01*
Y-215825D01*
Y-215371D01*
Y-214917D01*
Y-214464D01*
Y-214010D01*
X1050798D01*
Y-213557D01*
Y-213103D01*
Y-212650D01*
Y-212196D01*
Y-211742D01*
Y-211289D01*
X1050344D01*
Y-210835D01*
Y-210382D01*
Y-209928D01*
X1049891D01*
Y-209475D01*
Y-209021D01*
X1049437D01*
Y-208568D01*
Y-208114D01*
X1048984D01*
Y-207661D01*
X1048530D01*
Y-207207D01*
X1048077D01*
Y-206753D01*
X1047623D01*
Y-206300D01*
X1047169D01*
Y-205846D01*
X1046716D01*
Y-205393D01*
X1045809D01*
Y-204939D01*
X1045355D01*
Y-204486D01*
X1043995D01*
Y-204032D01*
X1042180D01*
Y-203578D01*
D02*
G37*
%LPD*%
D10*
X1582360Y-165262D02*
Y-128686D01*
X1201360D02*
X1582360D01*
X772160D02*
X1201360D01*
X1582360Y-317662D02*
Y-165262D01*
X2115760Y-317662D02*
Y-187868D01*
X1201360Y-317662D02*
Y-128686D01*
X2344360Y-317662D02*
Y-128686D01*
X1582360D02*
X2344360D01*
X1201360Y-187106D02*
X2344360D01*
X1201360Y-250352D02*
X2344360D01*
X1201360Y-317662D02*
X2344360D01*
X772160D02*
Y-128686D01*
Y-317662D02*
X1201360D01*
X2227580Y1524508D02*
Y1681988D01*
X2057400Y1524508D02*
Y1681988D01*
X1562100Y1524508D02*
Y1681988D01*
X1470660D02*
X2344360D01*
X1470660Y1600708D02*
X2344360D01*
X1470660Y1638808D02*
X2344420D01*
X1470660Y1562608D02*
X2344360D01*
X1470660Y1524508D02*
X2344420D01*
X1470660D02*
Y1740408D01*
X-398780Y-367792D02*
X2395220D01*
X2344360Y171288D02*
X2395160D01*
X2344360Y711038D02*
X2395160D01*
X2344360Y1250788D02*
X2395160D01*
X2344360Y-317662D02*
Y1739738D01*
X2395220Y-367792D02*
Y1791208D01*
X-398780D02*
X2395220D01*
X1696660Y1739738D02*
Y1790538D01*
X998160Y1739738D02*
Y1790538D01*
X299660Y1739738D02*
Y1790538D01*
X-348040Y1739738D02*
X2344360D01*
X1696660Y-368462D02*
Y-317662D01*
X998160Y-368462D02*
Y-317662D01*
X299660Y-368462D02*
Y-317662D01*
X-398840Y171288D02*
X-348040D01*
X-398840Y711038D02*
X-348040D01*
X-398840Y1250788D02*
X-348040D01*
X-398780Y-367792D02*
Y1791208D01*
X-348040Y-317662D02*
Y1739738D01*
Y-317662D02*
X2344360D01*
X1588202Y-207172D02*
Y-194476D01*
X1594550D01*
X1596666Y-196592D01*
Y-200824D01*
X1594550Y-202940D01*
X1588202D01*
X1609362Y-196592D02*
X1607246Y-194476D01*
X1603014D01*
X1600898Y-196592D01*
Y-205056D01*
X1603014Y-207172D01*
X1607246D01*
X1609362Y-205056D01*
X1613594Y-194476D02*
Y-207172D01*
X1619942D01*
X1622058Y-205056D01*
Y-202940D01*
X1619942Y-200824D01*
X1613594D01*
X1619942D01*
X1622058Y-198708D01*
Y-196592D01*
X1619942Y-194476D01*
X1613594D01*
X1638985Y-207172D02*
Y-194476D01*
X1647449Y-207172D01*
Y-194476D01*
X1651681Y-207172D02*
Y-198708D01*
X1655913Y-194476D01*
X1660145Y-198708D01*
Y-207172D01*
Y-200824D01*
X1651681D01*
X1664377Y-207172D02*
Y-194476D01*
X1668609Y-198708D01*
X1672841Y-194476D01*
Y-207172D01*
X1685537Y-194476D02*
X1677073D01*
Y-207172D01*
X1685537D01*
X1677073Y-200824D02*
X1681305D01*
X1689769Y-198708D02*
X1691885D01*
Y-200824D01*
X1689769D01*
Y-198708D01*
Y-205056D02*
X1691885D01*
Y-207172D01*
X1689769D01*
Y-205056D01*
X2128542Y-262632D02*
X2126426Y-260516D01*
X2122194D01*
X2120078Y-262632D01*
Y-264748D01*
X2122194Y-266864D01*
X2126426D01*
X2128542Y-268980D01*
Y-271096D01*
X2126426Y-273212D01*
X2122194D01*
X2120078Y-271096D01*
X2141238Y-262632D02*
X2139122Y-260516D01*
X2134890D01*
X2132774Y-262632D01*
Y-271096D01*
X2134890Y-273212D01*
X2139122D01*
X2141238Y-271096D01*
X2145470Y-273212D02*
Y-264748D01*
X2149702Y-260516D01*
X2153934Y-264748D01*
Y-273212D01*
Y-266864D01*
X2145470D01*
X2158166Y-260516D02*
Y-273212D01*
X2166630D01*
X2179326Y-260516D02*
X2170862D01*
Y-273212D01*
X2179326D01*
X2170862Y-266864D02*
X2175094D01*
X2183557Y-264748D02*
X2185673D01*
Y-266864D01*
X2183557D01*
Y-264748D01*
Y-271096D02*
X2185673D01*
Y-273212D01*
X2183557D01*
Y-271096D01*
X1595964Y-258576D02*
X1587500D01*
Y-264924D01*
X1591732D01*
X1587500D01*
Y-271272D01*
X1600196Y-258576D02*
X1604428D01*
X1602312D01*
Y-271272D01*
X1600196D01*
X1604428D01*
X1610776Y-258576D02*
Y-271272D01*
X1619240D01*
X1631936Y-258576D02*
X1623472D01*
Y-271272D01*
X1631936D01*
X1623472Y-264924D02*
X1627704D01*
X1648864Y-271272D02*
Y-258576D01*
X1657327Y-271272D01*
Y-258576D01*
X1661559Y-271272D02*
Y-262808D01*
X1665791Y-258576D01*
X1670023Y-262808D01*
Y-271272D01*
Y-264924D01*
X1661559D01*
X1674255Y-271272D02*
Y-258576D01*
X1678487Y-262808D01*
X1682719Y-258576D01*
Y-271272D01*
X1695415Y-258576D02*
X1686951D01*
Y-271272D01*
X1695415D01*
X1686951Y-264924D02*
X1691183D01*
X1699647Y-262808D02*
X1701763D01*
Y-264924D01*
X1699647D01*
Y-262808D01*
Y-269156D02*
X1701763D01*
Y-271272D01*
X1699647D01*
Y-269156D01*
X1589472Y-152816D02*
Y-140120D01*
X1595820D01*
X1597936Y-142236D01*
Y-146468D01*
X1595820Y-148584D01*
X1589472D01*
X1602168Y-152816D02*
Y-140120D01*
X1608516D01*
X1610632Y-142236D01*
Y-146468D01*
X1608516Y-148584D01*
X1602168D01*
X1606400D02*
X1610632Y-152816D01*
X1621212Y-140120D02*
X1616980D01*
X1614864Y-142236D01*
Y-150700D01*
X1616980Y-152816D01*
X1621212D01*
X1623328Y-150700D01*
Y-142236D01*
X1621212Y-140120D01*
X1636024D02*
X1631792D01*
X1633908D01*
Y-150700D01*
X1631792Y-152816D01*
X1629676D01*
X1627560Y-150700D01*
X1648719Y-140120D02*
X1640255D01*
Y-152816D01*
X1648719D01*
X1640255Y-146468D02*
X1644487D01*
X1661415Y-142236D02*
X1659299Y-140120D01*
X1655067D01*
X1652951Y-142236D01*
Y-150700D01*
X1655067Y-152816D01*
X1659299D01*
X1661415Y-150700D01*
X1665647Y-140120D02*
X1674111D01*
X1669879D01*
Y-152816D01*
X1678343Y-144352D02*
X1680459D01*
Y-146468D01*
X1678343D01*
Y-144352D01*
Y-150700D02*
X1680459D01*
Y-152816D01*
X1678343D01*
Y-150700D01*
X1212872Y-140374D02*
X1204408D01*
Y-153070D01*
X1212872D01*
X1204408Y-146722D02*
X1208640D01*
X1217104Y-153070D02*
Y-140374D01*
X1225568Y-153070D01*
Y-140374D01*
X1238264Y-142490D02*
X1236148Y-140374D01*
X1231916D01*
X1229800Y-142490D01*
Y-150954D01*
X1231916Y-153070D01*
X1236148D01*
X1238264Y-150954D01*
Y-146722D01*
X1234032D01*
X1242496Y-140374D02*
X1246728D01*
X1244612D01*
Y-153070D01*
X1242496D01*
X1246728D01*
X1253076D02*
Y-140374D01*
X1261540Y-153070D01*
Y-140374D01*
X1274235D02*
X1265771D01*
Y-153070D01*
X1274235D01*
X1265771Y-146722D02*
X1270003D01*
X1286931Y-140374D02*
X1278467D01*
Y-153070D01*
X1286931D01*
X1278467Y-146722D02*
X1282699D01*
X1291163Y-153070D02*
Y-140374D01*
X1297511D01*
X1299627Y-142490D01*
Y-146722D01*
X1297511Y-148838D01*
X1291163D01*
X1295395D02*
X1299627Y-153070D01*
X1303859Y-144606D02*
X1305975D01*
Y-146722D01*
X1303859D01*
Y-144606D01*
Y-150954D02*
X1305975D01*
Y-153070D01*
X1303859D01*
Y-150954D01*
X1206500Y-258576D02*
Y-271272D01*
X1212848D01*
X1214964Y-269156D01*
Y-260692D01*
X1212848Y-258576D01*
X1206500D01*
X1219196D02*
Y-271272D01*
X1223428Y-267040D01*
X1227660Y-271272D01*
Y-258576D01*
X1240356Y-260692D02*
X1238240Y-258576D01*
X1234008D01*
X1231892Y-260692D01*
Y-269156D01*
X1234008Y-271272D01*
X1238240D01*
X1240356Y-269156D01*
Y-264924D01*
X1236124D01*
X1257283Y-271272D02*
Y-258576D01*
X1265748Y-271272D01*
Y-258576D01*
X1276327D02*
X1272095D01*
X1269979Y-260692D01*
Y-269156D01*
X1272095Y-271272D01*
X1276327D01*
X1278443Y-269156D01*
Y-260692D01*
X1276327Y-258576D01*
X1282675Y-262808D02*
X1284791D01*
Y-264924D01*
X1282675D01*
Y-262808D01*
Y-269156D02*
X1284791D01*
Y-271272D01*
X1282675D01*
Y-269156D01*
X2121348Y-210474D02*
Y-197778D01*
X2127696D01*
X2129812Y-199894D01*
Y-204126D01*
X2127696Y-206242D01*
X2121348D01*
X2125580D02*
X2129812Y-210474D01*
X2142508Y-197778D02*
X2134044D01*
Y-210474D01*
X2142508D01*
X2134044Y-204126D02*
X2138276D01*
X2146740Y-197778D02*
Y-206242D01*
X2150972Y-210474D01*
X2155204Y-206242D01*
Y-197778D01*
X2159436Y-202010D02*
X2161552D01*
Y-204126D01*
X2159436D01*
Y-202010D01*
Y-208358D02*
X2161552D01*
Y-210474D01*
X2159436D01*
Y-208358D01*
X1205170Y-195492D02*
Y-208188D01*
X1211518D01*
X1213634Y-206072D01*
Y-197608D01*
X1211518Y-195492D01*
X1205170D01*
X1217866Y-208188D02*
Y-199724D01*
X1222098Y-195492D01*
X1226330Y-199724D01*
Y-208188D01*
Y-201840D01*
X1217866D01*
X1230562Y-195492D02*
X1239026D01*
X1234794D01*
Y-208188D01*
X1251722Y-195492D02*
X1243258D01*
Y-208188D01*
X1251722D01*
X1243258Y-201840D02*
X1247490D01*
X1255954Y-199724D02*
X1258070D01*
Y-201840D01*
X1255954D01*
Y-199724D01*
Y-206072D02*
X1258070D01*
Y-208188D01*
X1255954D01*
Y-206072D01*
X2111174Y21709D02*
Y11551D01*
Y21709D02*
X2114560D01*
X2116011Y21225D01*
X2116978Y20258D01*
X2117462Y19290D01*
X2117946Y17839D01*
Y15421D01*
X2117462Y13970D01*
X2116978Y13002D01*
X2116011Y12035D01*
X2114560Y11551D01*
X2111174D01*
X2120219Y18323D02*
Y11551D01*
Y15421D02*
X2120703Y16872D01*
X2121671Y17839D01*
X2122638Y18323D01*
X2124089D01*
X2125975Y21709D02*
X2126459Y21225D01*
X2126943Y21709D01*
X2126459Y22193D01*
X2125975Y21709D01*
X2126459Y18323D02*
Y11551D01*
X2128732Y21709D02*
Y11551D01*
X2130861Y21709D02*
Y11551D01*
X2148226Y19290D02*
X2147742Y20258D01*
X2146775Y21225D01*
X2145807Y21709D01*
X2143873D01*
X2142905Y21225D01*
X2141938Y20258D01*
X2141454Y19290D01*
X2140970Y17839D01*
Y15421D01*
X2141454Y13970D01*
X2141938Y13002D01*
X2142905Y12035D01*
X2143873Y11551D01*
X2145807D01*
X2146775Y12035D01*
X2147742Y13002D01*
X2148226Y13970D01*
Y15421D01*
X2145807D02*
X2148226D01*
X2150548Y18323D02*
Y13486D01*
X2151031Y12035D01*
X2151999Y11551D01*
X2153450D01*
X2154417Y12035D01*
X2155869Y13486D01*
Y18323D02*
Y11551D01*
X2159496Y21709D02*
X2159980Y21225D01*
X2160464Y21709D01*
X2159980Y22193D01*
X2159496Y21709D01*
X2159980Y18323D02*
Y11551D01*
X2168058Y21709D02*
Y11551D01*
Y16872D02*
X2167090Y17839D01*
X2166123Y18323D01*
X2164672D01*
X2163705Y17839D01*
X2162737Y16872D01*
X2162253Y15421D01*
Y14453D01*
X2162737Y13002D01*
X2163705Y12035D01*
X2164672Y11551D01*
X2166123D01*
X2167090Y12035D01*
X2168058Y13002D01*
X2170767Y15421D02*
X2176571D01*
Y16388D01*
X2176087Y17356D01*
X2175604Y17839D01*
X2174636Y18323D01*
X2173185D01*
X2172218Y17839D01*
X2171250Y16872D01*
X2170767Y15421D01*
Y14453D01*
X2171250Y13002D01*
X2172218Y12035D01*
X2173185Y11551D01*
X2174636D01*
X2175604Y12035D01*
X2176571Y13002D01*
D11*
X2045134Y28823D02*
X2278814D01*
Y4693D02*
Y28823D01*
X2045134Y4693D02*
Y28823D01*
Y4693D02*
X2278814D01*
D13*
X2057834Y666617D02*
X2253414D01*
X2017194Y-103632D02*
Y711200D01*
X2304214D01*
Y-103632D02*
Y711200D01*
X2017194Y-103632D02*
X2304214D01*
X1282697Y-289056D02*
X1280157Y-286517D01*
X1275079D01*
X1272540Y-289056D01*
Y-299213D01*
X1275079Y-301752D01*
X1280157D01*
X1282697Y-299213D01*
X1297932Y-301752D02*
X1287775D01*
X1297932Y-291595D01*
Y-289056D01*
X1295393Y-286517D01*
X1290314D01*
X1287775Y-289056D01*
X1303010Y-301752D02*
X1308089D01*
X1305549D01*
Y-286517D01*
X1303010Y-289056D01*
X1315706D02*
X1318245Y-286517D01*
X1323324D01*
X1325863Y-289056D01*
Y-299213D01*
X1323324Y-301752D01*
X1318245D01*
X1315706Y-299213D01*
Y-289056D01*
X1712802Y-213704D02*
X1709417Y-210319D01*
X1702646D01*
X1699260Y-213704D01*
Y-227246D01*
X1702646Y-230632D01*
X1709417D01*
X1712802Y-227246D01*
X1733116Y-230632D02*
X1719573D01*
X1733116Y-217090D01*
Y-213704D01*
X1729730Y-210319D01*
X1722959D01*
X1719573Y-213704D01*
X1739887Y-230632D02*
X1746658D01*
X1743272D01*
Y-210319D01*
X1739887Y-213704D01*
X1756815D02*
X1760200Y-210319D01*
X1766971D01*
X1770357Y-213704D01*
Y-227246D01*
X1766971Y-230632D01*
X1760200D01*
X1756815Y-227246D01*
Y-213704D01*
X2193840Y-229422D02*
Y-209109D01*
X2203997D01*
X2207382Y-212494D01*
Y-219265D01*
X2203997Y-222651D01*
X2193840D01*
X2200611D02*
X2207382Y-229422D01*
X2224310D02*
X2217539D01*
X2214153Y-226036D01*
Y-219265D01*
X2217539Y-215880D01*
X2224310D01*
X2227696Y-219265D01*
Y-222651D01*
X2214153D01*
X2234467Y-215880D02*
X2241238Y-229422D01*
X2248009Y-215880D01*
X2275094Y-209109D02*
Y-229422D01*
X2285250D01*
X2288636Y-226036D01*
Y-222651D01*
X2285250Y-219265D01*
X2275094D01*
X2285250D01*
X2288636Y-215880D01*
Y-212494D01*
X2285250Y-209109D01*
X2275094D01*
X1712802Y-152744D02*
X1709417Y-149359D01*
X1702646D01*
X1699260Y-152744D01*
Y-166286D01*
X1702646Y-169672D01*
X1709417D01*
X1712802Y-166286D01*
X1733116Y-169672D02*
X1719573D01*
X1733116Y-156130D01*
Y-152744D01*
X1729730Y-149359D01*
X1722959D01*
X1719573Y-152744D01*
X1739887Y-169672D02*
X1746658D01*
X1743272D01*
Y-149359D01*
X1739887Y-152744D01*
X1756815D02*
X1760200Y-149359D01*
X1766971D01*
X1770357Y-152744D01*
Y-166286D01*
X1766971Y-169672D01*
X1760200D01*
X1756815Y-166286D01*
Y-152744D01*
X1332650Y-151898D02*
X1320800D01*
Y-169672D01*
X1332650D01*
X1320800Y-160785D02*
X1326725D01*
X1338574Y-169672D02*
Y-151898D01*
X1344499Y-157823D01*
X1350424Y-151898D01*
Y-169672D01*
X1365236Y-151898D02*
X1359311D01*
X1356349Y-154860D01*
Y-166710D01*
X1359311Y-169672D01*
X1365236D01*
X1368198Y-166710D01*
Y-154860D01*
X1365236Y-151898D01*
X1383010D02*
X1377085D01*
X1374123Y-154860D01*
Y-166710D01*
X1377085Y-169672D01*
X1383010D01*
X1385972Y-166710D01*
Y-154860D01*
X1383010Y-151898D01*
X1289469Y-212858D02*
X1283545Y-215820D01*
X1277620Y-221745D01*
Y-227670D01*
X1280582Y-230632D01*
X1286507D01*
X1289469Y-227670D01*
Y-224707D01*
X1286507Y-221745D01*
X1277620D01*
X1295394Y-230632D02*
X1307244Y-218783D01*
X1313168Y-230632D02*
X1319093D01*
X1316131D01*
Y-212858D01*
X1313168Y-215820D01*
X1327980Y-230632D02*
X1339830Y-218783D01*
X1357604Y-230632D02*
X1345755D01*
X1357604Y-218783D01*
Y-215820D01*
X1354642Y-212858D01*
X1348717D01*
X1345755Y-215820D01*
X1363529D02*
X1366491Y-212858D01*
X1372416D01*
X1375378Y-215820D01*
Y-227670D01*
X1372416Y-230632D01*
X1366491D01*
X1363529Y-227670D01*
Y-215820D01*
X1393153Y-230632D02*
X1381303D01*
X1393153Y-218783D01*
Y-215820D01*
X1390190Y-212858D01*
X1384266D01*
X1381303Y-215820D01*
X1410927Y-230632D02*
X1399077D01*
X1410927Y-218783D01*
Y-215820D01*
X1407965Y-212858D01*
X1402040D01*
X1399077Y-215820D01*
X1620517Y-286516D02*
X1617977Y-283977D01*
X1612899D01*
X1610360Y-286516D01*
Y-296673D01*
X1612899Y-299212D01*
X1617977D01*
X1620517Y-296673D01*
X1635752Y-299212D02*
X1625595D01*
X1635752Y-289055D01*
Y-286516D01*
X1633213Y-283977D01*
X1628134D01*
X1625595Y-286516D01*
X1640830Y-299212D02*
X1645909D01*
X1643369D01*
Y-283977D01*
X1640830Y-286516D01*
X1653526D02*
X1656065Y-283977D01*
X1661144D01*
X1663683Y-286516D01*
Y-296673D01*
X1661144Y-299212D01*
X1656065D01*
X1653526Y-296673D01*
Y-286516D01*
X1668761Y-301751D02*
X1678918D01*
X1694153Y-299212D02*
X1683996D01*
X1694153Y-289055D01*
Y-286516D01*
X1691614Y-283977D01*
X1686535D01*
X1683996Y-286516D01*
X1709388Y-299212D02*
X1699231D01*
X1709388Y-289055D01*
Y-286516D01*
X1706849Y-283977D01*
X1701770D01*
X1699231Y-286516D01*
X1714466D02*
X1717005Y-283977D01*
X1722084D01*
X1724623Y-286516D01*
Y-296673D01*
X1722084Y-299212D01*
X1717005D01*
X1714466Y-296673D01*
Y-286516D01*
X1739858Y-283977D02*
X1734780Y-286516D01*
X1729701Y-291595D01*
Y-296673D01*
X1732241Y-299212D01*
X1737319D01*
X1739858Y-296673D01*
Y-294134D01*
X1737319Y-291595D01*
X1729701D01*
X1744937Y-286516D02*
X1747476Y-283977D01*
X1752554D01*
X1755093Y-286516D01*
Y-296673D01*
X1752554Y-299212D01*
X1747476D01*
X1744937Y-296673D01*
Y-286516D01*
X1760172Y-299212D02*
X1765250D01*
X1762711D01*
Y-283977D01*
X1760172Y-286516D01*
X1772867Y-299212D02*
Y-296673D01*
X1775407D01*
Y-299212D01*
X1772867D01*
X1785563D02*
Y-283977D01*
X1793181D01*
X1795720Y-286516D01*
Y-291595D01*
X1793181Y-294134D01*
X1785563D01*
X1810955Y-289055D02*
X1803338D01*
X1800798Y-291595D01*
Y-296673D01*
X1803338Y-299212D01*
X1810955D01*
X1816033Y-283977D02*
Y-299212D01*
X1823651D01*
X1826190Y-296673D01*
Y-294134D01*
Y-291595D01*
X1823651Y-289055D01*
X1816033D01*
X1831268Y-283977D02*
Y-299212D01*
X1838886D01*
X1841425Y-296673D01*
Y-286516D01*
X1838886Y-283977D01*
X1831268D01*
X1849043Y-299212D02*
X1854121D01*
X1856660Y-296673D01*
Y-291595D01*
X1854121Y-289055D01*
X1849043D01*
X1846504Y-291595D01*
Y-296673D01*
X1849043Y-299212D01*
X1871895Y-289055D02*
X1864278D01*
X1861739Y-291595D01*
Y-296673D01*
X1864278Y-299212D01*
X1871895D01*
X924933Y-277057D02*
X923966Y-275123D01*
X922031Y-273188D01*
X920096Y-272220D01*
X916226D01*
X914292Y-273188D01*
X912357Y-275123D01*
X911389Y-277057D01*
X910422Y-279960D01*
Y-284797D01*
X911389Y-287699D01*
X912357Y-289634D01*
X914292Y-291569D01*
X916226Y-292536D01*
X920096D01*
X922031Y-291569D01*
X923966Y-289634D01*
X924933Y-287699D01*
X936445Y-272220D02*
X934510Y-273188D01*
X932576Y-275123D01*
X931608Y-277057D01*
X930641Y-279960D01*
Y-284797D01*
X931608Y-287699D01*
X932576Y-289634D01*
X934510Y-291569D01*
X936445Y-292536D01*
X940315D01*
X942250Y-291569D01*
X944185Y-289634D01*
X945152Y-287699D01*
X946120Y-284797D01*
Y-279960D01*
X945152Y-277057D01*
X944185Y-275123D01*
X942250Y-273188D01*
X940315Y-272220D01*
X936445D01*
X950860D02*
Y-292536D01*
Y-272220D02*
X964404Y-292536D01*
Y-272220D02*
Y-292536D01*
X970014Y-272220D02*
Y-292536D01*
Y-272220D02*
X982591D01*
X970014Y-281894D02*
X977754D01*
X984913Y-272220D02*
Y-292536D01*
X989169Y-272220D02*
Y-292536D01*
Y-272220D02*
X995941D01*
X998843Y-273188D01*
X1000778Y-275123D01*
X1001746Y-277057D01*
X1002713Y-279960D01*
Y-284797D01*
X1001746Y-287699D01*
X1000778Y-289634D01*
X998843Y-291569D01*
X995941Y-292536D01*
X989169D01*
X1019836Y-272220D02*
X1007260D01*
Y-292536D01*
X1019836D01*
X1007260Y-281894D02*
X1014999D01*
X1023222Y-272220D02*
Y-292536D01*
Y-272220D02*
X1036766Y-292536D01*
Y-272220D02*
Y-292536D01*
X1049149Y-272220D02*
Y-292536D01*
X1042377Y-272220D02*
X1055921D01*
X1058339D02*
Y-292536D01*
X1078074D02*
X1070335Y-272220D01*
X1062596Y-292536D01*
X1065498Y-285764D02*
X1075172D01*
X1082815Y-272220D02*
Y-292536D01*
X1094424D01*
X1490980Y1577848D02*
Y1590544D01*
X1497328D01*
X1499444Y1588428D01*
Y1584196D01*
X1497328Y1582080D01*
X1490980D01*
X1495212D02*
X1499444Y1577848D01*
X1510024D02*
X1505792D01*
X1503676Y1579964D01*
Y1584196D01*
X1505792Y1586312D01*
X1510024D01*
X1512140Y1584196D01*
Y1582080D01*
X1503676D01*
X1516372Y1586312D02*
X1520604Y1577848D01*
X1524836Y1586312D01*
X1541763Y1590544D02*
Y1577848D01*
X1548112D01*
X1550228Y1579964D01*
Y1582080D01*
X1548112Y1584196D01*
X1541763D01*
X1548112D01*
X1550228Y1586312D01*
Y1588428D01*
X1548112Y1590544D01*
X1541763D01*
X1608664D02*
X1600200D01*
Y1577848D01*
X1608664D01*
X1600200Y1584196D02*
X1604432D01*
X1612896Y1577848D02*
Y1586312D01*
X1619244D01*
X1621360Y1584196D01*
Y1577848D01*
X1629824Y1573616D02*
X1631940D01*
X1634056Y1575732D01*
Y1586312D01*
X1627708D01*
X1625592Y1584196D01*
Y1579964D01*
X1627708Y1577848D01*
X1634056D01*
X1638288D02*
X1642520D01*
X1640404D01*
Y1586312D01*
X1638288D01*
X1648868Y1577848D02*
Y1586312D01*
X1655215D01*
X1657332Y1584196D01*
Y1577848D01*
X1667911D02*
X1663679D01*
X1661564Y1579964D01*
Y1584196D01*
X1663679Y1586312D01*
X1667911D01*
X1670027Y1584196D01*
Y1582080D01*
X1661564D01*
X1680607Y1577848D02*
X1676375D01*
X1674259Y1579964D01*
Y1584196D01*
X1676375Y1586312D01*
X1680607D01*
X1682723Y1584196D01*
Y1582080D01*
X1674259D01*
X1686955Y1586312D02*
Y1577848D01*
Y1582080D01*
X1689071Y1584196D01*
X1691187Y1586312D01*
X1693303D01*
X1699651Y1577848D02*
X1703883D01*
X1701767D01*
Y1586312D01*
X1699651D01*
X1710231Y1577848D02*
Y1586312D01*
X1716579D01*
X1718695Y1584196D01*
Y1577848D01*
X1727159Y1573616D02*
X1729275D01*
X1731391Y1575732D01*
Y1586312D01*
X1725043D01*
X1722927Y1584196D01*
Y1579964D01*
X1725043Y1577848D01*
X1731391D01*
X1756783Y1588428D02*
X1754667Y1590544D01*
X1750435D01*
X1748319Y1588428D01*
Y1586312D01*
X1750435Y1584196D01*
X1754667D01*
X1756783Y1582080D01*
Y1579964D01*
X1754667Y1577848D01*
X1750435D01*
X1748319Y1579964D01*
X1763130Y1586312D02*
X1767363D01*
X1769478Y1584196D01*
Y1577848D01*
X1763130D01*
X1761015Y1579964D01*
X1763130Y1582080D01*
X1769478D01*
X1773710Y1577848D02*
Y1586312D01*
X1775826D01*
X1777942Y1584196D01*
Y1577848D01*
Y1584196D01*
X1780058Y1586312D01*
X1782174Y1584196D01*
Y1577848D01*
X1786406Y1573616D02*
Y1586312D01*
X1792754D01*
X1794870Y1584196D01*
Y1579964D01*
X1792754Y1577848D01*
X1786406D01*
X1799102D02*
X1803334D01*
X1801218D01*
Y1590544D01*
X1799102D01*
X1816030Y1577848D02*
X1811798D01*
X1809682Y1579964D01*
Y1584196D01*
X1811798Y1586312D01*
X1816030D01*
X1818146Y1584196D01*
Y1582080D01*
X1809682D01*
X2086184Y1590544D02*
X2081952Y1588428D01*
X2077720Y1584196D01*
Y1579964D01*
X2079836Y1577848D01*
X2084068D01*
X2086184Y1579964D01*
Y1582080D01*
X2084068Y1584196D01*
X2077720D01*
X2090416Y1577848D02*
X2098880Y1586312D01*
X2103112Y1577848D02*
X2107344D01*
X2105228D01*
Y1590544D01*
X2103112Y1588428D01*
X2113692Y1577848D02*
X2122156Y1586312D01*
X2134852Y1577848D02*
X2126388D01*
X2134852Y1586312D01*
Y1588428D01*
X2132735Y1590544D01*
X2128504D01*
X2126388Y1588428D01*
X2139084D02*
X2141199Y1590544D01*
X2145431D01*
X2147547Y1588428D01*
Y1579964D01*
X2145431Y1577848D01*
X2141199D01*
X2139084Y1579964D01*
Y1588428D01*
X2160243Y1577848D02*
X2151779D01*
X2160243Y1586312D01*
Y1588428D01*
X2158127Y1590544D01*
X2153895D01*
X2151779Y1588428D01*
X2172939Y1577848D02*
X2164475D01*
X2172939Y1586312D01*
Y1588428D01*
X2170823Y1590544D01*
X2166591D01*
X2164475Y1588428D01*
X2253824Y1590544D02*
X2245360D01*
Y1577848D01*
X2253824D01*
X2245360Y1584196D02*
X2249592D01*
X2258056Y1577848D02*
Y1590544D01*
X2262288Y1586312D01*
X2266520Y1590544D01*
Y1577848D01*
X2277100Y1590544D02*
X2272868D01*
X2270752Y1588428D01*
Y1579964D01*
X2272868Y1577848D01*
X2277100D01*
X2279216Y1579964D01*
Y1588428D01*
X2277100Y1590544D01*
X2289796D02*
X2285564D01*
X2283448Y1588428D01*
Y1579964D01*
X2285564Y1577848D01*
X2289796D01*
X2291912Y1579964D01*
Y1588428D01*
X2289796Y1590544D01*
X2253824Y1628644D02*
X2245360D01*
Y1615948D01*
X2253824D01*
X2245360Y1622296D02*
X2249592D01*
X2258056Y1615948D02*
Y1628644D01*
X2262288Y1624412D01*
X2266520Y1628644D01*
Y1615948D01*
X2277100Y1628644D02*
X2272868D01*
X2270752Y1626528D01*
Y1618064D01*
X2272868Y1615948D01*
X2277100D01*
X2279216Y1618064D01*
Y1626528D01*
X2277100Y1628644D01*
X2289796D02*
X2285564D01*
X2283448Y1626528D01*
Y1618064D01*
X2285564Y1615948D01*
X2289796D01*
X2291912Y1618064D01*
Y1626528D01*
X2289796Y1628644D01*
X2086184Y1626104D02*
X2077720D01*
Y1619756D01*
X2081952Y1621872D01*
X2084068D01*
X2086184Y1619756D01*
Y1615524D01*
X2084068Y1613408D01*
X2079836D01*
X2077720Y1615524D01*
X2090416Y1613408D02*
X2098880Y1621872D01*
X2111576Y1613408D02*
X2103112D01*
X2111576Y1621872D01*
Y1623988D01*
X2109460Y1626104D01*
X2105228D01*
X2103112Y1623988D01*
X2124272Y1626104D02*
X2115808D01*
Y1619756D01*
X2120040Y1621872D01*
X2122156D01*
X2124272Y1619756D01*
Y1615524D01*
X2122156Y1613408D01*
X2117924D01*
X2115808Y1615524D01*
X2128504Y1613408D02*
X2136967Y1621872D01*
X2149663Y1613408D02*
X2141199D01*
X2149663Y1621872D01*
Y1623988D01*
X2147547Y1626104D01*
X2143315D01*
X2141199Y1623988D01*
X2153895D02*
X2156011Y1626104D01*
X2160243D01*
X2162359Y1623988D01*
Y1615524D01*
X2160243Y1613408D01*
X2156011D01*
X2153895Y1615524D01*
Y1623988D01*
X2175055Y1613408D02*
X2166591D01*
X2175055Y1621872D01*
Y1623988D01*
X2172939Y1626104D01*
X2168707D01*
X2166591Y1623988D01*
X2179287Y1613408D02*
X2183519D01*
X2181403D01*
Y1626104D01*
X2179287Y1623988D01*
X1600200Y1615948D02*
Y1628644D01*
X1606548D01*
X1608664Y1626528D01*
Y1622296D01*
X1606548Y1620180D01*
X1600200D01*
X1612896Y1624412D02*
Y1615948D01*
Y1620180D01*
X1615012Y1622296D01*
X1617128Y1624412D01*
X1619244D01*
X1627708Y1615948D02*
X1631940D01*
X1634056Y1618064D01*
Y1622296D01*
X1631940Y1624412D01*
X1627708D01*
X1625592Y1622296D01*
Y1618064D01*
X1627708Y1615948D01*
X1640404Y1626528D02*
Y1624412D01*
X1638288D01*
X1642520D01*
X1640404D01*
Y1618064D01*
X1642520Y1615948D01*
X1650983D02*
X1655215D01*
X1657332Y1618064D01*
Y1622296D01*
X1655215Y1624412D01*
X1650983D01*
X1648868Y1622296D01*
Y1618064D01*
X1650983Y1615948D01*
X1663679Y1626528D02*
Y1624412D01*
X1661564D01*
X1665795D01*
X1663679D01*
Y1618064D01*
X1665795Y1615948D01*
X1672143Y1624412D02*
Y1618064D01*
X1674259Y1615948D01*
X1680607D01*
Y1613832D01*
X1678491Y1611716D01*
X1676375D01*
X1680607Y1615948D02*
Y1624412D01*
X1684839Y1611716D02*
Y1624412D01*
X1691187D01*
X1693303Y1622296D01*
Y1618064D01*
X1691187Y1615948D01*
X1684839D01*
X1703883D02*
X1699651D01*
X1697535Y1618064D01*
Y1622296D01*
X1699651Y1624412D01*
X1703883D01*
X1705999Y1622296D01*
Y1620180D01*
X1697535D01*
X1722927Y1615948D02*
Y1628644D01*
X1729275D01*
X1731391Y1626528D01*
Y1622296D01*
X1729275Y1620180D01*
X1722927D01*
X1727159D02*
X1731391Y1615948D01*
X1741971D02*
X1737739D01*
X1735623Y1618064D01*
Y1622296D01*
X1737739Y1624412D01*
X1741971D01*
X1744087Y1622296D01*
Y1620180D01*
X1735623D01*
X1748319Y1615948D02*
X1752551D01*
X1750435D01*
Y1628644D01*
X1748319D01*
X1765246Y1615948D02*
X1761015D01*
X1758899Y1618064D01*
Y1622296D01*
X1761015Y1624412D01*
X1765246D01*
X1767363Y1622296D01*
Y1620180D01*
X1758899D01*
X1773710Y1624412D02*
X1777942D01*
X1780058Y1622296D01*
Y1615948D01*
X1773710D01*
X1771595Y1618064D01*
X1773710Y1620180D01*
X1780058D01*
X1784290Y1615948D02*
X1790638D01*
X1792754Y1618064D01*
X1790638Y1620180D01*
X1786406D01*
X1784290Y1622296D01*
X1786406Y1624412D01*
X1792754D01*
X1803334Y1615948D02*
X1799102D01*
X1796986Y1618064D01*
Y1622296D01*
X1799102Y1624412D01*
X1803334D01*
X1805450Y1622296D01*
Y1620180D01*
X1796986D01*
X1490980Y1615948D02*
Y1628644D01*
X1497328D01*
X1499444Y1626528D01*
Y1622296D01*
X1497328Y1620180D01*
X1490980D01*
X1495212D02*
X1499444Y1615948D01*
X1510024D02*
X1505792D01*
X1503676Y1618064D01*
Y1622296D01*
X1505792Y1624412D01*
X1510024D01*
X1512140Y1622296D01*
Y1620180D01*
X1503676D01*
X1516372Y1624412D02*
X1520604Y1615948D01*
X1524836Y1624412D01*
X1541763Y1615948D02*
Y1624412D01*
X1545995Y1628644D01*
X1550228Y1624412D01*
Y1615948D01*
Y1622296D01*
X1541763D01*
X2258060Y1669283D02*
Y1654048D01*
X2265677D01*
X2268217Y1656587D01*
Y1659126D01*
X2265677Y1661665D01*
X2258060D01*
X2265677D01*
X2268217Y1664205D01*
Y1666744D01*
X2265677Y1669283D01*
X2258060D01*
X2273295D02*
Y1666744D01*
X2278373Y1661665D01*
X2283452Y1666744D01*
Y1669283D01*
X2278373Y1661665D02*
Y1654048D01*
X2098040Y1669283D02*
Y1654048D01*
X2105658D01*
X2108197Y1656587D01*
Y1666744D01*
X2105658Y1669283D01*
X2098040D01*
X2113275Y1654048D02*
Y1664205D01*
X2118353Y1669283D01*
X2123432Y1664205D01*
Y1654048D01*
Y1661665D01*
X2113275D01*
X2128510Y1669283D02*
X2138667D01*
X2133589D01*
Y1654048D01*
X2153902Y1669283D02*
X2143745D01*
Y1654048D01*
X2153902D01*
X2143745Y1661665D02*
X2148824D01*
X1600200Y1669283D02*
Y1654048D01*
X1607818D01*
X1610357Y1656587D01*
Y1666744D01*
X1607818Y1669283D01*
X1600200D01*
X1625592D02*
X1615435D01*
Y1654048D01*
X1625592D01*
X1615435Y1661665D02*
X1620513D01*
X1640827Y1666744D02*
X1638288Y1669283D01*
X1633209D01*
X1630670Y1666744D01*
Y1664205D01*
X1633209Y1661665D01*
X1638288D01*
X1640827Y1659126D01*
Y1656587D01*
X1638288Y1654048D01*
X1633209D01*
X1630670Y1656587D01*
X1656062Y1666744D02*
X1653523Y1669283D01*
X1648444D01*
X1645905Y1666744D01*
Y1656587D01*
X1648444Y1654048D01*
X1653523D01*
X1656062Y1656587D01*
X1661140Y1654048D02*
Y1669283D01*
X1668758D01*
X1671297Y1666744D01*
Y1661665D01*
X1668758Y1659126D01*
X1661140D01*
X1666219D02*
X1671297Y1654048D01*
X1676375Y1669283D02*
X1681454D01*
X1678914D01*
Y1654048D01*
X1676375D01*
X1681454D01*
X1689071D02*
Y1669283D01*
X1696689D01*
X1699228Y1666744D01*
Y1661665D01*
X1696689Y1659126D01*
X1689071D01*
X1704306Y1669283D02*
X1714463D01*
X1709385D01*
Y1654048D01*
X1719541Y1669283D02*
X1724620D01*
X1722081D01*
Y1654048D01*
X1719541D01*
X1724620D01*
X1739855Y1669283D02*
X1734776D01*
X1732237Y1666744D01*
Y1656587D01*
X1734776Y1654048D01*
X1739855D01*
X1742394Y1656587D01*
Y1666744D01*
X1739855Y1669283D01*
X1747472Y1654048D02*
Y1669283D01*
X1757629Y1654048D01*
Y1669283D01*
X1490980Y1654048D02*
Y1669283D01*
X1498598D01*
X1501137Y1666744D01*
Y1661665D01*
X1498598Y1659126D01*
X1490980D01*
X1496058D02*
X1501137Y1654048D01*
X1516372Y1669283D02*
X1506215D01*
Y1654048D01*
X1516372D01*
X1506215Y1661665D02*
X1511293D01*
X1521450Y1669283D02*
Y1659126D01*
X1526528Y1654048D01*
X1531607Y1659126D01*
Y1669283D01*
X1849120Y1697228D02*
Y1717541D01*
X1859277D01*
X1862662Y1714156D01*
Y1707385D01*
X1859277Y1703999D01*
X1849120D01*
X1855891D02*
X1862662Y1697228D01*
X1882976Y1717541D02*
X1869433D01*
Y1697228D01*
X1882976D01*
X1869433Y1707385D02*
X1876205D01*
X1889747Y1717541D02*
Y1703999D01*
X1896518Y1697228D01*
X1903289Y1703999D01*
Y1717541D01*
X1910060D02*
X1916831D01*
X1913446D01*
Y1697228D01*
X1910060D01*
X1916831D01*
X1940530Y1714156D02*
X1937145Y1717541D01*
X1930374D01*
X1926988Y1714156D01*
Y1710770D01*
X1930374Y1707385D01*
X1937145D01*
X1940530Y1703999D01*
Y1700614D01*
X1937145Y1697228D01*
X1930374D01*
X1926988Y1700614D01*
X1947301Y1717541D02*
X1954073D01*
X1950687D01*
Y1697228D01*
X1947301D01*
X1954073D01*
X1974386Y1717541D02*
X1967615D01*
X1964229Y1714156D01*
Y1700614D01*
X1967615Y1697228D01*
X1974386D01*
X1977772Y1700614D01*
Y1714156D01*
X1974386Y1717541D01*
X1984543Y1697228D02*
Y1717541D01*
X1998085Y1697228D01*
Y1717541D01*
D25*
X2069264Y16758D02*
D03*
D26*
X2057834Y694045D02*
Y673729D01*
X2069443D01*
X2087147D02*
X2079407Y694045D01*
X2071668Y673729D01*
X2074570Y680501D02*
X2084244D01*
X2091887Y694045D02*
X2099626Y684370D01*
Y673729D01*
X2107366Y694045D02*
X2099626Y684370D01*
X2122554Y694045D02*
X2109978D01*
Y673729D01*
X2122554D01*
X2109978Y684370D02*
X2117717D01*
X2125940Y694045D02*
Y673729D01*
Y694045D02*
X2134647D01*
X2137549Y693077D01*
X2138516Y692110D01*
X2139484Y690175D01*
Y688240D01*
X2138516Y686305D01*
X2137549Y685338D01*
X2134647Y684370D01*
X2125940D01*
X2132712D02*
X2139484Y673729D01*
X2159993Y694045D02*
Y679533D01*
X2160960Y676631D01*
X2162895Y674696D01*
X2165797Y673729D01*
X2167732D01*
X2170634Y674696D01*
X2172569Y676631D01*
X2173537Y679533D01*
Y694045D01*
X2192691Y691142D02*
X2190757Y693077D01*
X2187854Y694045D01*
X2183985D01*
X2181082Y693077D01*
X2179147Y691142D01*
Y689208D01*
X2180115Y687273D01*
X2181082Y686305D01*
X2183017Y685338D01*
X2188822Y683403D01*
X2190757Y682436D01*
X2191724Y681468D01*
X2192691Y679533D01*
Y676631D01*
X2190757Y674696D01*
X2187854Y673729D01*
X2183985D01*
X2181082Y674696D01*
X2179147Y676631D01*
X2212717Y673729D02*
X2204977Y694045D01*
X2197238Y673729D01*
X2200140Y680501D02*
X2209814D01*
X2231968Y689208D02*
X2231001Y691142D01*
X2229066Y693077D01*
X2227131Y694045D01*
X2223262D01*
X2221327Y693077D01*
X2219392Y691142D01*
X2218424Y689208D01*
X2217457Y686305D01*
Y681468D01*
X2218424Y678566D01*
X2219392Y676631D01*
X2221327Y674696D01*
X2223262Y673729D01*
X2227131D01*
X2229066Y674696D01*
X2231001Y676631D01*
X2231968Y678566D01*
Y681468D01*
X2227131D02*
X2231968D01*
X2249188Y694045D02*
X2236612D01*
Y673729D01*
X2249188D01*
X2236612Y684370D02*
X2244351D01*
D27*
X2207200Y-300390D02*
X2211432D01*
X2209316D01*
Y-287694D01*
X2207200Y-289810D01*
X2217780Y-291926D02*
X2219896D01*
Y-294042D01*
X2217780D01*
Y-291926D01*
Y-298274D02*
X2219896D01*
Y-300390D01*
X2217780D01*
Y-298274D01*
X2228360Y-300390D02*
X2232592D01*
X2230476D01*
Y-287694D01*
X2228360Y-289810D01*
X2363410Y-102528D02*
Y-120304D01*
Y-102528D02*
X2369335D01*
X2371875Y-103374D01*
X2373568Y-105067D01*
X2374414Y-106760D01*
X2375261Y-109300D01*
Y-113532D01*
X2374414Y-116072D01*
X2373568Y-117765D01*
X2371875Y-119458D01*
X2369335Y-120304D01*
X2363410D01*
X2376107Y431720D02*
X2375261Y433413D01*
X2373568Y435106D01*
X2371875Y435952D01*
X2368489D01*
X2366796Y435106D01*
X2365103Y433413D01*
X2364256Y431720D01*
X2363410Y429180D01*
Y424948D01*
X2364256Y422408D01*
X2365103Y420715D01*
X2366796Y419022D01*
X2368489Y418176D01*
X2371875D01*
X2373568Y419022D01*
X2375261Y420715D01*
X2376107Y422408D01*
X2363410Y975702D02*
Y957926D01*
Y975702D02*
X2371028D01*
X2373568Y974856D01*
X2374414Y974009D01*
X2375261Y972316D01*
Y970623D01*
X2374414Y968930D01*
X2373568Y968084D01*
X2371028Y967237D01*
X2363410D02*
X2371028D01*
X2373568Y966391D01*
X2374414Y965544D01*
X2375261Y963851D01*
Y961312D01*
X2374414Y959619D01*
X2373568Y958773D01*
X2371028Y957926D01*
X2363410D01*
X2376954Y1497676D02*
X2370182Y1515452D01*
X2363410Y1497676D01*
X2365950Y1503601D02*
X2374414D01*
X2047520Y1774024D02*
X2039055Y1762173D01*
X2051752D01*
X2047520Y1774024D02*
Y1756248D01*
X1341991Y1774024D02*
X1351302D01*
X1346223Y1767252D01*
X1348763D01*
X1350456Y1766406D01*
X1351302Y1765559D01*
X1352149Y1763020D01*
Y1761327D01*
X1351302Y1758788D01*
X1349609Y1757095D01*
X1347070Y1756248D01*
X1344530D01*
X1341991Y1757095D01*
X1341145Y1757941D01*
X1340298Y1759634D01*
X643914Y1769792D02*
Y1770638D01*
X644761Y1772331D01*
X645608Y1773178D01*
X647300Y1774024D01*
X650686D01*
X652379Y1773178D01*
X653226Y1772331D01*
X654072Y1770638D01*
Y1768945D01*
X653226Y1767252D01*
X651533Y1764713D01*
X643068Y1756248D01*
X654919D01*
X-55600Y1770638D02*
X-53907Y1771485D01*
X-51368Y1774024D01*
Y1756248D01*
X2047520Y-334176D02*
X2039055Y-346027D01*
X2051752D01*
X2047520Y-334176D02*
Y-351952D01*
X1341991Y-334176D02*
X1351302D01*
X1346223Y-340948D01*
X1348763D01*
X1350456Y-341794D01*
X1351302Y-342641D01*
X1352149Y-345180D01*
Y-346873D01*
X1351302Y-349412D01*
X1349609Y-351105D01*
X1347070Y-351952D01*
X1344530D01*
X1341991Y-351105D01*
X1341145Y-350259D01*
X1340298Y-348566D01*
X643914Y-338408D02*
Y-337562D01*
X644761Y-335869D01*
X645608Y-335022D01*
X647300Y-334176D01*
X650686D01*
X652379Y-335022D01*
X653226Y-335869D01*
X654072Y-337562D01*
Y-339255D01*
X653226Y-340948D01*
X651533Y-343487D01*
X643068Y-351952D01*
X654919D01*
X-55600Y-337562D02*
X-53907Y-336715D01*
X-51368Y-334176D01*
Y-351952D01*
X-379790Y-102528D02*
Y-120304D01*
Y-102528D02*
X-373865D01*
X-371325Y-103374D01*
X-369632Y-105067D01*
X-368786Y-106760D01*
X-367939Y-109300D01*
Y-113532D01*
X-368786Y-116072D01*
X-369632Y-117765D01*
X-371325Y-119458D01*
X-373865Y-120304D01*
X-379790D01*
X-367093Y431720D02*
X-367939Y433413D01*
X-369632Y435106D01*
X-371325Y435952D01*
X-374711D01*
X-376404Y435106D01*
X-378097Y433413D01*
X-378943Y431720D01*
X-379790Y429180D01*
Y424948D01*
X-378943Y422408D01*
X-378097Y420715D01*
X-376404Y419022D01*
X-374711Y418176D01*
X-371325D01*
X-369632Y419022D01*
X-367939Y420715D01*
X-367093Y422408D01*
X-379790Y975702D02*
Y957926D01*
Y975702D02*
X-372172D01*
X-369632Y974856D01*
X-368786Y974009D01*
X-367939Y972316D01*
Y970623D01*
X-368786Y968930D01*
X-369632Y968084D01*
X-372172Y967237D01*
X-379790D02*
X-372172D01*
X-369632Y966391D01*
X-368786Y965544D01*
X-367939Y963851D01*
Y961312D01*
X-368786Y959619D01*
X-369632Y958773D01*
X-372172Y957926D01*
X-379790D01*
X-366246Y1497676D02*
X-373018Y1515452D01*
X-379790Y1497676D01*
X-377251Y1503601D02*
X-368786D01*
D307*
X298500Y17203D02*
X305500D01*
X302000Y13703D02*
Y20703D01*
X364500Y17208D02*
X371500D01*
X368000Y13708D02*
Y20708D01*
X245000Y90400D02*
X255000D01*
X250000Y85400D02*
Y95400D01*
X234840Y39600D02*
X244840D01*
X239840Y34600D02*
Y44600D01*
X255160Y39600D02*
X265160D01*
X260160Y34600D02*
Y44600D01*
X138050Y1094200D02*
X150050D01*
X144050Y1088200D02*
Y1100200D01*
X138050Y1119600D02*
X150050D01*
X144050Y1113600D02*
Y1125600D01*
X64050Y1094200D02*
X76050D01*
X70050Y1088200D02*
Y1100200D01*
X64050Y1119600D02*
X76050D01*
X70050Y1113600D02*
Y1125600D01*
X64050Y1145000D02*
X76050D01*
X70050Y1139000D02*
Y1151000D01*
X138050Y1145000D02*
X150050D01*
X144050Y1139000D02*
Y1151000D01*
X129000Y1166000D02*
X136500D01*
X132750Y1162250D02*
Y1169750D01*
X129000Y1081000D02*
X136500D01*
X132750Y1077250D02*
Y1084750D01*
X148350Y29770D02*
X158550D01*
X153450Y24670D02*
Y34870D01*
X186450Y29770D02*
X196650D01*
X191550Y24670D02*
Y34870D01*
X446500Y85000D02*
X453500D01*
X450000Y81500D02*
Y88500D01*
X486500Y85000D02*
X493500D01*
X490000Y81500D02*
Y88500D01*
X526500Y85000D02*
X533500D01*
X530000Y81500D02*
Y88500D01*
X425000Y102500D02*
X435000D01*
X430000Y97500D02*
Y107500D01*
X545000Y102500D02*
X555000D01*
X550000Y97500D02*
Y107500D01*
X545000Y42500D02*
X555000D01*
X550000Y37500D02*
Y47500D01*
X425000Y42500D02*
X435000D01*
X430000Y37500D02*
Y47500D01*
X334000Y430000D02*
X346000D01*
X340000Y424000D02*
Y436000D01*
X621500Y785000D02*
X658500D01*
X640000Y766500D02*
Y803500D01*
X21500Y195000D02*
X58500D01*
X40000Y176500D02*
Y213500D01*
X21500Y785000D02*
X58500D01*
X40000Y766500D02*
Y803500D01*
X621500Y195000D02*
X658500D01*
X640000Y176500D02*
Y213500D01*
X576986Y746250D02*
X580034D01*
X578510Y744726D02*
Y747774D01*
X548476Y754000D02*
X551524D01*
X550000Y752476D02*
Y755524D01*
X558726Y746250D02*
X561774D01*
X560250Y744726D02*
Y747774D01*
X567226Y745449D02*
X570274D01*
X568750Y743925D02*
Y746973D01*
X548244Y690561D02*
X551292D01*
X549768Y689037D02*
Y692085D01*
X545974Y683287D02*
X549022D01*
X547498Y681763D02*
Y684811D01*
X539224Y715000D02*
X542272D01*
X540748Y713476D02*
Y716524D01*
X536226Y700381D02*
X539274D01*
X537750Y698857D02*
Y701905D01*
X521967Y683250D02*
X525015D01*
X523491Y681726D02*
Y684774D01*
X548476Y775000D02*
X551524D01*
X550000Y773476D02*
Y776524D01*
X525980Y766795D02*
X529028D01*
X527504Y765271D02*
Y768319D01*
X314476Y32250D02*
X317524D01*
X316000Y30726D02*
Y33774D01*
X333726Y59500D02*
X336774D01*
X335250Y57976D02*
Y61024D01*
X325726Y59500D02*
X328774D01*
X327250Y57976D02*
Y61024D01*
X347226Y55708D02*
X350274D01*
X348750Y54184D02*
Y57232D01*
X135476Y269250D02*
X138524D01*
X137000Y267726D02*
Y270774D01*
X117476Y260250D02*
X120524D01*
X119000Y258726D02*
Y261774D01*
X111496Y279000D02*
X114544D01*
X113020Y277476D02*
Y280524D01*
X125678Y271000D02*
X128726D01*
X127202Y269476D02*
Y272524D01*
X147299Y303400D02*
X150347D01*
X148823Y301876D02*
Y304924D01*
X166926Y297000D02*
X169974D01*
X168450Y295476D02*
Y298524D01*
X68526Y1018750D02*
X71574D01*
X70050Y1017226D02*
Y1020274D01*
X62738Y1027000D02*
X65786D01*
X64262Y1025476D02*
Y1028524D01*
X72726Y1037250D02*
X75774D01*
X74250Y1035726D02*
Y1038774D01*
X72726Y1046750D02*
X75774D01*
X74250Y1045226D02*
Y1048274D01*
X46525Y1027565D02*
X49573D01*
X48049Y1026041D02*
Y1029089D01*
X48010Y983111D02*
X51058D01*
X49534Y981587D02*
Y984635D01*
X63437Y998486D02*
X66485D01*
X64961Y996962D02*
Y1000010D01*
X48823Y1005053D02*
X51871D01*
X50347Y1003529D02*
Y1006577D01*
X32726Y1029000D02*
X35774D01*
X34250Y1027476D02*
Y1030524D01*
X510976Y112000D02*
X514024D01*
X512500Y110476D02*
Y113524D01*
X517569Y114464D02*
X520617D01*
X519093Y112940D02*
Y115988D01*
X514032Y132156D02*
X517080D01*
X515556Y130632D02*
Y133680D01*
X643726Y514750D02*
X646774D01*
X645250Y513226D02*
Y516274D01*
X483476Y900000D02*
X486524D01*
X485000Y898476D02*
Y901524D01*
X471019Y919250D02*
X474067D01*
X472543Y917726D02*
Y920774D01*
X471019Y892278D02*
X474067D01*
X472543Y890754D02*
Y893802D01*
X178726Y677517D02*
X181774D01*
X180250Y675993D02*
Y679041D01*
X152226Y803750D02*
X155274D01*
X153750Y802226D02*
Y805274D01*
X144226Y803707D02*
X147274D01*
X145750Y802183D02*
Y805231D01*
X147690Y760605D02*
X150738D01*
X149214Y759081D02*
Y762129D01*
X147831Y752986D02*
X150879D01*
X149355Y751462D02*
Y754510D01*
X144976Y770989D02*
X148024D01*
X146500Y769465D02*
Y772513D01*
X160408Y804610D02*
X163456D01*
X161932Y803086D02*
Y806134D01*
X255336Y209547D02*
X258384D01*
X256861Y208023D02*
Y211071D01*
X271015Y194547D02*
X274063D01*
X272539Y193023D02*
Y196071D01*
X322476Y114250D02*
X325524D01*
X324000Y112726D02*
Y115774D01*
X271976Y166250D02*
X275024D01*
X273500Y164726D02*
Y167774D01*
X316000Y122000D02*
X319048D01*
X317524Y120476D02*
Y123524D01*
X241726Y196500D02*
X244774D01*
X243250Y194976D02*
Y198024D01*
X286726Y151500D02*
X289774D01*
X288250Y149976D02*
Y153024D01*
X226976Y211250D02*
X230024D01*
X228500Y209726D02*
Y212774D01*
X301726Y136500D02*
X304774D01*
X303250Y134976D02*
Y138024D01*
X256464Y181509D02*
X259512D01*
X257988Y179985D02*
Y183033D01*
X212036Y226250D02*
X215084D01*
X213560Y224726D02*
Y227774D01*
X471833Y515414D02*
X474881D01*
X473357Y513890D02*
Y516938D01*
X444322Y336780D02*
X447370D01*
X445846Y335256D02*
Y338304D01*
X444244Y308903D02*
X447292D01*
X445768Y307379D02*
Y310427D01*
X435233Y388793D02*
X438280D01*
X436757Y387269D02*
Y390317D01*
X413392Y441481D02*
X416440D01*
X414916Y439957D02*
Y443005D01*
X238751Y801305D02*
X241799D01*
X240275Y799781D02*
Y802829D01*
X220976Y610054D02*
X224024D01*
X222500Y608530D02*
Y611578D01*
X217980Y601689D02*
X221028D01*
X219504Y600165D02*
Y603213D01*
X217389Y618310D02*
X220437D01*
X218913Y616786D02*
Y619834D01*
X361166Y739174D02*
X364213D01*
X362690Y737650D02*
Y740698D01*
X375917Y758087D02*
X378965D01*
X377441Y756563D02*
Y759611D01*
X126920Y954724D02*
X129968D01*
X128444Y953200D02*
Y956248D01*
X151432Y908000D02*
X154480D01*
X152956Y906476D02*
Y909524D01*
X252560Y904465D02*
X255608D01*
X254084Y902941D02*
Y905989D01*
X266801Y954724D02*
X269849D01*
X268325Y953200D02*
Y956248D01*
X266801Y934724D02*
X269849D01*
X268325Y933200D02*
Y936248D01*
X266801Y914724D02*
X269849D01*
X268325Y913200D02*
Y916248D01*
X251628Y964974D02*
X254676D01*
X253152Y963450D02*
Y966498D01*
X251628Y944974D02*
X254676D01*
X253152Y943450D02*
Y946498D01*
X251628Y924974D02*
X254676D01*
X253152Y923450D02*
Y926498D01*
X237195Y953724D02*
X240243D01*
X238719Y952200D02*
Y955248D01*
X237195Y933724D02*
X240243D01*
X238719Y932200D02*
Y935248D01*
X237195Y913724D02*
X240243D01*
X238719Y912200D02*
Y915248D01*
X218442Y943965D02*
X221490D01*
X219965Y942441D02*
Y945489D01*
X218442Y923965D02*
X221490D01*
X219965Y922441D02*
Y925489D01*
X218442Y903965D02*
X221490D01*
X219965Y902441D02*
Y905489D01*
X226282Y745449D02*
X229330D01*
X227806Y743925D02*
Y746973D01*
X239953Y742307D02*
X243001D01*
X241477Y740783D02*
Y743831D01*
X245199Y777618D02*
X248247D01*
X246723Y776094D02*
Y779142D01*
X206976Y770047D02*
X210024D01*
X208500Y768523D02*
Y771571D01*
X524470Y461237D02*
X527519D01*
X525994Y459713D02*
Y462761D01*
X525153Y453534D02*
X528201D01*
X526677Y452010D02*
Y455058D01*
X180281Y743249D02*
X183329D01*
X181805Y741725D02*
Y744773D01*
X185476Y737000D02*
X188524D01*
X187000Y735476D02*
Y738524D01*
X176931Y725252D02*
X179979D01*
X178455Y723728D02*
Y726776D01*
X172976Y740521D02*
X176024D01*
X174500Y738997D02*
Y742045D01*
X172344Y732928D02*
X175392D01*
X173867Y731404D02*
Y734452D01*
X185476Y769098D02*
X188524D01*
X187000Y767574D02*
Y770622D01*
X161607Y835574D02*
X164655D01*
X163131Y834050D02*
Y837098D01*
X172021Y801743D02*
X175069D01*
X173545Y800219D02*
Y803267D01*
X243226Y794539D02*
X246274D01*
X244750Y793015D02*
Y796063D01*
X232438Y797038D02*
X235486D01*
X233962Y795514D02*
Y798562D01*
X225059Y799610D02*
X228107D01*
X226583Y798086D02*
Y801134D01*
X224937Y790896D02*
X227985D01*
X226461Y789372D02*
Y792420D01*
X214645Y797960D02*
X217693D01*
X216169Y796436D02*
Y799484D01*
X207422Y800387D02*
X210470D01*
X208946Y798863D02*
Y801911D01*
X157476Y734288D02*
X160524D01*
X159000Y732764D02*
Y735812D01*
X177279Y796228D02*
X180327D01*
X178803Y794704D02*
Y797752D01*
X238339Y722626D02*
X241387D01*
X239863Y721102D02*
Y724150D01*
X436476Y604366D02*
X439524D01*
X438000Y602841D02*
Y605890D01*
X412038Y613684D02*
X415086D01*
X413562Y612160D02*
Y615208D01*
X468765Y717480D02*
X471813D01*
X470289Y715956D02*
Y719004D01*
X490025Y718276D02*
X493073D01*
X491549Y716752D02*
Y719800D01*
X431476Y756313D02*
X434524D01*
X433000Y754789D02*
Y757837D01*
X508196Y678711D02*
X511245D01*
X509720Y677187D02*
Y680235D01*
X397754Y712722D02*
X400802D01*
X399278Y711198D02*
Y714246D01*
X382360Y666141D02*
X385408D01*
X383884Y664617D02*
Y667665D01*
X401133Y364041D02*
X404181D01*
X402657Y362517D02*
Y365565D01*
X382026Y361134D02*
X385074D01*
X383550Y359610D02*
Y362658D01*
X404929Y516190D02*
X407977D01*
X406453Y514666D02*
Y517714D01*
X404233Y489172D02*
X407281D01*
X405757Y487648D02*
Y490696D01*
X429886Y489006D02*
X432934D01*
X431410Y487482D02*
Y490530D01*
X418476Y475000D02*
X421524D01*
X420000Y473476D02*
Y476524D01*
X398476Y475000D02*
X401524D01*
X400000Y473476D02*
Y476524D01*
X522313Y409417D02*
X525361D01*
X523837Y407893D02*
Y410941D01*
X473438Y377500D02*
X476486D01*
X474962Y375976D02*
Y379024D01*
X479333Y383425D02*
X482381D01*
X480857Y381901D02*
Y384949D01*
X473116Y399762D02*
X476164D01*
X474640Y398238D02*
Y401286D01*
X479600Y395760D02*
X482649D01*
X481124Y394236D02*
Y397284D01*
X402269Y438621D02*
X405317D01*
X403793Y437097D02*
Y440145D01*
X436176Y378331D02*
X439224D01*
X437700Y376807D02*
Y379855D01*
X441470Y394206D02*
X444519D01*
X442994Y392682D02*
Y395730D01*
X499726Y489000D02*
X502774D01*
X501250Y487476D02*
Y490524D01*
X509408Y448537D02*
X512457D01*
X510933Y447013D02*
Y450061D01*
X511007Y461237D02*
X514055D01*
X512531Y459713D02*
Y462761D01*
X503326Y463500D02*
X506374D01*
X504850Y461976D02*
Y465024D01*
X525226Y423750D02*
X528274D01*
X526750Y422226D02*
Y425274D01*
X514726Y425750D02*
X517774D01*
X516250Y424226D02*
Y427274D01*
X502675Y433328D02*
X505723D01*
X504199Y431804D02*
Y434852D01*
X519532Y417250D02*
X522580D01*
X521056Y415726D02*
Y418774D01*
X407726Y463043D02*
X410774D01*
X409250Y461519D02*
Y464567D01*
X393000Y446871D02*
X396048D01*
X394524Y445347D02*
Y448395D01*
X401084Y448969D02*
X404132D01*
X402608Y447445D02*
Y450493D01*
X393034Y404264D02*
X396082D01*
X394558Y402741D02*
Y405788D01*
X473735Y355000D02*
X476783D01*
X475259Y353476D02*
Y356524D01*
X473851Y480293D02*
X476899D01*
X475375Y478769D02*
Y481817D01*
X464226Y336239D02*
X467274D01*
X465750Y334715D02*
Y337763D01*
X473976Y487250D02*
X477024D01*
X475500Y485726D02*
Y488774D01*
X473492Y280000D02*
X476540D01*
X475016Y278476D02*
Y281524D01*
X473492Y317000D02*
X476540D01*
X475016Y315476D02*
Y318524D01*
X464226Y328695D02*
X467274D01*
X465750Y327171D02*
Y330219D01*
X473537Y428907D02*
X476585D01*
X475061Y427383D02*
Y430431D01*
X473976Y473599D02*
X477024D01*
X475500Y472075D02*
Y475123D01*
X464226Y321645D02*
X467274D01*
X465750Y320121D02*
Y323169D01*
X473976Y466678D02*
X477024D01*
X475500Y465154D02*
Y468202D01*
X412791Y418946D02*
X415839D01*
X414315Y417422D02*
Y420470D01*
X423245Y429678D02*
X426293D01*
X424769Y428154D02*
Y431202D01*
X421250Y411476D02*
X424298D01*
X422774Y409952D02*
Y413000D01*
X444374Y449435D02*
X447422D01*
X445898Y447911D02*
Y450959D01*
X422255Y447899D02*
X425303D01*
X423779Y446375D02*
Y449423D01*
X433525Y449333D02*
X436573D01*
X435049Y447809D02*
Y450857D01*
X430576Y410472D02*
X433624D01*
X432100Y408948D02*
Y411996D01*
X438967Y413094D02*
X442015D01*
X440491Y411571D02*
Y414618D01*
X429687Y429500D02*
X432735D01*
X431211Y427976D02*
Y431024D01*
X436476Y433328D02*
X439524D01*
X438000Y431804D02*
Y434852D01*
X444476Y430250D02*
X447524D01*
X446000Y428726D02*
Y431774D01*
X502675Y449435D02*
X505723D01*
X504199Y447911D02*
Y450959D01*
X490259Y449333D02*
X493307D01*
X491783Y447809D02*
Y450857D01*
X476476Y449750D02*
X479524D01*
X478000Y448226D02*
Y451274D01*
X490345Y432216D02*
X493393D01*
X491869Y430692D02*
Y433740D01*
X478746Y433328D02*
X481794D01*
X480270Y431804D02*
Y434852D01*
X479333Y413094D02*
X482381D01*
X480857Y411571D02*
Y414618D01*
X62738Y908250D02*
X65786D01*
X64262Y906726D02*
Y909774D01*
X40956Y912000D02*
X44004D01*
X42480Y910476D02*
Y913524D01*
X429687Y323400D02*
X432735D01*
X431211Y321876D02*
Y324924D01*
X416226Y295000D02*
X419274D01*
X417750Y293476D02*
Y296524D01*
X391426Y338698D02*
X394474D01*
X392950Y337174D02*
Y340222D01*
X401226Y295543D02*
X404274D01*
X402750Y294019D02*
Y297067D01*
X369713Y353570D02*
X372761D01*
X371237Y352046D02*
Y355094D01*
X409031Y333388D02*
X412079D01*
X410555Y331864D02*
Y334912D01*
X416226Y348661D02*
X419274D01*
X417750Y347137D02*
Y350185D01*
X401226Y348332D02*
X404274D01*
X402750Y346809D02*
Y349856D01*
X376696Y331716D02*
X379744D01*
X378220Y330192D02*
Y333240D01*
X376576Y323386D02*
X379624D01*
X378100Y321862D02*
Y324911D01*
X392252Y298643D02*
X395300D01*
X393776Y297119D02*
Y300167D01*
X391726Y306245D02*
X394774D01*
X393250Y304721D02*
Y307769D01*
X382614Y306245D02*
X385662D01*
X384138Y304721D02*
Y307769D01*
X376696Y300750D02*
X379744D01*
X378220Y299226D02*
Y302274D01*
X18662Y919500D02*
X21710D01*
X20186Y917976D02*
Y921024D01*
X19328Y899257D02*
X22376D01*
X20852Y897733D02*
Y900781D01*
X5452Y927516D02*
X8500D01*
X6976Y925992D02*
Y929040D01*
X28497Y891014D02*
X31545D01*
X30021Y889490D02*
Y892538D01*
X33859Y921000D02*
X36907D01*
X35383Y919476D02*
Y922524D01*
X17166Y1013500D02*
X20214D01*
X18690Y1011976D02*
Y1015024D01*
X5452Y1020366D02*
X8500D01*
X6976Y1018842D02*
Y1021890D01*
X5452Y985389D02*
X8500D01*
X6976Y983865D02*
Y986913D01*
X142226Y1054226D02*
X145274D01*
X143750Y1052702D02*
Y1055750D01*
X27624Y1170750D02*
X30672D01*
X29148Y1169226D02*
Y1172274D01*
X48595Y1177500D02*
X51643D01*
X50119Y1175976D02*
Y1179024D01*
X71101Y1177500D02*
X74149D01*
X72625Y1175976D02*
Y1179024D01*
X87016Y1165250D02*
X90064D01*
X88540Y1163726D02*
Y1166774D01*
X73746Y1082700D02*
X76794D01*
X75270Y1081176D02*
Y1084224D01*
X55708Y1106866D02*
X58756D01*
X57232Y1105342D02*
Y1108390D01*
X55708Y1132444D02*
X58756D01*
X57232Y1130920D02*
Y1133968D01*
X49000Y1157750D02*
X52048D01*
X50524Y1156226D02*
Y1159274D01*
X5726Y1179500D02*
X8774D01*
X7250Y1177976D02*
Y1181024D01*
X27826Y1155623D02*
X30875D01*
X29351Y1154099D02*
Y1157147D01*
X80173Y1019732D02*
X83221D01*
X81697Y1018208D02*
Y1021256D01*
X124226Y1175750D02*
X127274D01*
X125750Y1174226D02*
Y1177274D01*
X123681Y1132795D02*
X126729D01*
X125205Y1131271D02*
Y1134319D01*
X123681Y1106866D02*
X126729D01*
X125205Y1105342D02*
Y1108390D01*
X120949Y1081000D02*
X123997D01*
X122473Y1079476D02*
Y1082524D01*
X109607Y1039090D02*
X112655D01*
X111131Y1037566D02*
Y1040614D01*
X130481Y1046000D02*
X133529D01*
X132005Y1044476D02*
Y1047524D01*
X120949Y1029203D02*
X123997D01*
X122473Y1027679D02*
Y1030727D01*
X97167Y1050792D02*
X100215D01*
X98691Y1049268D02*
Y1052316D01*
X111476Y1065550D02*
X114524D01*
X113000Y1064026D02*
Y1067074D01*
X128298Y1066000D02*
X131346D01*
X129822Y1064476D02*
Y1067524D01*
X86476Y1074710D02*
X89524D01*
X88000Y1073186D02*
Y1076234D01*
X86476Y1095250D02*
X89524D01*
X88000Y1093726D02*
Y1096774D01*
X86476Y1143815D02*
X89524D01*
X88000Y1142291D02*
Y1145339D01*
X86476Y1119716D02*
X89524D01*
X88000Y1118192D02*
Y1121240D01*
X140976Y1030000D02*
X144024D01*
X142500Y1028476D02*
Y1031524D01*
X155226Y1104901D02*
X158274D01*
X156750Y1103377D02*
Y1106425D01*
X154602Y1155000D02*
X157650D01*
X156126Y1153476D02*
Y1156524D01*
X155199Y1137798D02*
X158247D01*
X156723Y1136274D02*
Y1139322D01*
X155226Y1118714D02*
X158274D01*
X156750Y1117190D02*
Y1120238D01*
X155226Y1090805D02*
X158274D01*
X156750Y1089281D02*
Y1092329D01*
X155199Y1171401D02*
X158247D01*
X156723Y1169877D02*
Y1172925D01*
X113476Y1197500D02*
X116524D01*
X115000Y1195976D02*
Y1199024D01*
X98476Y1177500D02*
X101524D01*
X100000Y1175976D02*
Y1179024D01*
X98476Y1197500D02*
X101524D01*
X100000Y1195976D02*
Y1199024D01*
X78476Y1197500D02*
X81524D01*
X80000Y1195976D02*
Y1199024D01*
X58476Y1197500D02*
X61524D01*
X60000Y1195976D02*
Y1199024D01*
X104226Y1081634D02*
X107274D01*
X105750Y1080110D02*
Y1083158D01*
X104458Y1157981D02*
X107506D01*
X105982Y1156457D02*
Y1159505D01*
X104458Y1132444D02*
X107506D01*
X105982Y1130920D02*
Y1133968D01*
X104458Y1107227D02*
X107506D01*
X105982Y1105703D02*
Y1108751D01*
X68836Y1157981D02*
X71884D01*
X70360Y1156457D02*
Y1159505D01*
X73476Y1132547D02*
X76524D01*
X75000Y1131023D02*
Y1134071D01*
X72645Y1106750D02*
X75693D01*
X74169Y1105226D02*
Y1108274D01*
X57971Y1065550D02*
X61019D01*
X59495Y1064026D02*
Y1067074D01*
X57776Y1081634D02*
X60824D01*
X59300Y1080110D02*
Y1083158D01*
X39568Y1107227D02*
X42616D01*
X41092Y1105703D02*
Y1108751D01*
X37568Y1132547D02*
X40616D01*
X39092Y1131023D02*
Y1134071D01*
X72495Y819711D02*
X75542D01*
X74019Y818187D02*
Y821235D01*
X139389Y752663D02*
X142437D01*
X140913Y751139D02*
Y754187D01*
X66951Y834669D02*
X69999D01*
X68475Y833145D02*
Y836193D01*
X94834Y797218D02*
X97882D01*
X96358Y795694D02*
Y798742D01*
X169553Y722499D02*
X172601D01*
X171077Y720975D02*
Y724023D01*
X106514Y785538D02*
X109562D01*
X108038Y784014D02*
Y787062D01*
X82731Y809522D02*
X85779D01*
X84255Y807998D02*
Y811046D01*
X183275Y708778D02*
X186323D01*
X184799Y707254D02*
Y710302D01*
X72312Y828562D02*
X75360D01*
X73836Y827038D02*
Y830087D01*
X22270Y874750D02*
X25318D01*
X23794Y873226D02*
Y876274D01*
X42985Y874774D02*
X46033D01*
X44509Y873250D02*
Y876298D01*
X135742Y215402D02*
X138790D01*
X137266Y213878D02*
Y216926D01*
X159996Y213315D02*
X163044D01*
X161520Y211791D02*
Y214839D01*
X127226Y189159D02*
X130274D01*
X128750Y187635D02*
Y190683D01*
X56386Y319895D02*
X59434D01*
X57910Y318371D02*
Y321419D01*
X24206Y277555D02*
X27254D01*
X25730Y276031D02*
Y279079D01*
X37967Y297500D02*
X41015D01*
X39491Y295976D02*
Y299024D01*
X75676Y309951D02*
X78724D01*
X77200Y308428D02*
Y311476D01*
X91488Y285421D02*
X94536D01*
X93012Y283897D02*
Y286945D01*
X54647Y339736D02*
X57695D01*
X56171Y338212D02*
Y341260D01*
X86360Y369250D02*
X89408D01*
X87884Y367726D02*
Y370774D01*
X107226Y347892D02*
X110274D01*
X108750Y346368D02*
Y349416D01*
X503326Y238000D02*
X506374D01*
X504850Y236476D02*
Y239524D01*
X503275Y96232D02*
X506323D01*
X504799Y94708D02*
Y97756D01*
X549226Y70619D02*
X552274D01*
X550750Y69095D02*
Y72143D01*
X505976Y56887D02*
X509024D01*
X507500Y55363D02*
Y58411D01*
X461167Y96501D02*
X464216D01*
X462691Y94977D02*
Y98025D01*
X445602Y114464D02*
X448650D01*
X447126Y112940D02*
Y115988D01*
X440976Y70092D02*
X444024D01*
X442500Y68568D02*
Y71616D01*
X461385Y48203D02*
X464434D01*
X462910Y46679D02*
Y49727D01*
X480307Y42518D02*
X483355D01*
X481831Y40994D02*
Y44042D01*
X621566Y896250D02*
X624614D01*
X623090Y894726D02*
Y897774D01*
X612638Y889125D02*
X615686D01*
X614162Y887601D02*
Y890649D01*
X611372Y855250D02*
X614420D01*
X612896Y853726D02*
Y856774D01*
X602226Y875000D02*
X605274D01*
X603750Y873476D02*
Y876524D01*
X525539Y870000D02*
X528587D01*
X527063Y868476D02*
Y871524D01*
X519522Y864262D02*
X522570D01*
X521046Y862738D02*
Y865786D01*
X565476Y877961D02*
X568524D01*
X567000Y876437D02*
Y879485D01*
X592226Y877961D02*
X595274D01*
X593750Y876437D02*
Y879485D01*
X642519Y957777D02*
X645567D01*
X644043Y956254D02*
Y959302D01*
X628476Y995000D02*
X631524D01*
X630000Y993476D02*
Y996524D01*
X648476Y975000D02*
X651524D01*
X650000Y973476D02*
Y976524D01*
X43339Y920151D02*
X46387D01*
X44863Y918626D02*
Y921674D01*
X58046Y832812D02*
X61094D01*
X59570Y831288D02*
Y834335D01*
X50191Y832500D02*
X53239D01*
X51715Y830976D02*
Y834024D01*
X70232Y858232D02*
X73280D01*
X71756Y856708D02*
Y859756D01*
X152449Y856500D02*
X155497D01*
X153973Y854976D02*
Y858024D01*
X103018Y882500D02*
X106066D01*
X104542Y880976D02*
Y884024D01*
X70231Y866223D02*
X73279D01*
X71755Y864698D02*
Y867747D01*
X70976Y874750D02*
X74024D01*
X72500Y873226D02*
Y876274D01*
X119476Y1018504D02*
X122524D01*
X121000Y1016980D02*
Y1020028D01*
X130688Y1018504D02*
X133736D01*
X132212Y1016980D02*
Y1020028D01*
X152449Y1018750D02*
X155497D01*
X153973Y1017226D02*
Y1020274D01*
X75466Y1012000D02*
X78514D01*
X76990Y1010476D02*
Y1013524D01*
X12126Y994250D02*
X15174D01*
X13650Y992726D02*
Y995774D01*
X24495Y1050792D02*
X27543D01*
X26019Y1049268D02*
Y1052316D01*
X19546Y1155623D02*
X22594D01*
X21070Y1154099D02*
Y1157147D01*
X19051Y1114220D02*
X22099D01*
X20575Y1112696D02*
Y1115744D01*
X23856Y1107750D02*
X26904D01*
X25380Y1106226D02*
Y1109274D01*
X593976Y1002155D02*
X597024D01*
X595500Y1000631D02*
Y1003679D01*
X585726Y1004000D02*
X588774D01*
X587250Y1002476D02*
Y1005524D01*
X572476Y1040000D02*
X575524D01*
X574000Y1038476D02*
Y1041524D01*
X590976Y1013701D02*
X594024D01*
X592500Y1012177D02*
Y1015225D01*
X618476Y1014000D02*
X621524D01*
X620000Y1012476D02*
Y1015524D01*
X628226Y1038000D02*
X631274D01*
X629750Y1036476D02*
Y1039524D01*
X588476Y1035750D02*
X591524D01*
X590000Y1034226D02*
Y1037274D01*
X23856Y1095250D02*
X26904D01*
X25380Y1093726D02*
Y1096774D01*
X18976Y1088981D02*
X22024D01*
X20500Y1087457D02*
Y1090505D01*
X18976Y1101683D02*
X22024D01*
X20500Y1100159D02*
Y1103207D01*
X18976Y1126935D02*
X22024D01*
X20500Y1125411D02*
Y1128459D01*
X39096Y1066000D02*
X42144D01*
X40620Y1064476D02*
Y1067524D01*
X23715Y1074131D02*
X26763D01*
X25239Y1072607D02*
Y1075655D01*
X20982Y1058055D02*
X24030D01*
X22506Y1056531D02*
Y1059579D01*
X18433Y1136000D02*
X21481D01*
X19957Y1134476D02*
Y1137524D01*
X5283Y1043750D02*
X8331D01*
X6807Y1042226D02*
Y1045274D01*
X32195Y1013035D02*
X35243D01*
X33719Y1011511D02*
Y1014559D01*
X37471Y977681D02*
X40518D01*
X38995Y976157D02*
Y979205D01*
X19051Y1080750D02*
X22099D01*
X20575Y1079226D02*
Y1082274D01*
X21123Y960021D02*
X24171D01*
X22647Y958497D02*
Y961545D01*
X18900Y934750D02*
X21948D01*
X20424Y933226D02*
Y936274D01*
X143125Y1157750D02*
X146173D01*
X144649Y1156226D02*
Y1159274D01*
X143125Y1132250D02*
X146173D01*
X144649Y1130726D02*
Y1133774D01*
X143125Y1106750D02*
X146173D01*
X144649Y1105226D02*
Y1108274D01*
X5726Y1073750D02*
X8774D01*
X7250Y1072226D02*
Y1075274D01*
X5452Y1164250D02*
X8500D01*
X6976Y1162726D02*
Y1165774D01*
X8226Y1061432D02*
X11274D01*
X9750Y1059909D02*
Y1062956D01*
X155199Y1057739D02*
X158247D01*
X156723Y1056215D02*
Y1059263D01*
X155226Y1074250D02*
X158274D01*
X156750Y1072726D02*
Y1075774D01*
X143719Y1074250D02*
X146767D01*
X145243Y1072726D02*
Y1075774D01*
X128298Y1196217D02*
X131346D01*
X129822Y1194693D02*
Y1197741D01*
X143726Y1187750D02*
X146774D01*
X145250Y1186226D02*
Y1189274D01*
X155226Y1187500D02*
X158274D01*
X156750Y1185976D02*
Y1189024D01*
X39094Y1196217D02*
X42142D01*
X40618Y1194693D02*
Y1197741D01*
X23533Y1187750D02*
X26581D01*
X25057Y1186226D02*
Y1189274D01*
X7726Y1194000D02*
X10774D01*
X9250Y1192476D02*
Y1195524D01*
X18900Y1146200D02*
X21948D01*
X20424Y1144676D02*
Y1147724D01*
X189449Y851368D02*
X192497D01*
X190973Y849844D02*
Y852892D01*
X171143Y843616D02*
X174191D01*
X172667Y842092D02*
Y845140D01*
X177593Y847679D02*
X180641D01*
X179117Y846155D02*
Y849203D01*
X170726Y855540D02*
X173774D01*
X172250Y854016D02*
Y857064D01*
X160312Y855230D02*
X163360D01*
X161836Y853707D02*
Y856755D01*
X184259Y843624D02*
X187307D01*
X185783Y842100D02*
Y845147D01*
X233211Y845908D02*
X236259D01*
X234735Y844384D02*
Y847432D01*
X222669Y846307D02*
X225717D01*
X224193Y844783D02*
Y847831D01*
X221949Y854250D02*
X224997D01*
X223473Y852726D02*
Y855774D01*
X235226Y855137D02*
X238274D01*
X236750Y853613D02*
Y856661D01*
X245775Y849707D02*
X248823D01*
X247299Y848183D02*
Y851231D01*
X115199Y851539D02*
X118247D01*
X116723Y850015D02*
Y853063D01*
X519934Y540322D02*
X522982D01*
X521458Y538798D02*
Y541846D01*
X511170Y539339D02*
X514218D01*
X512694Y537815D02*
Y540863D01*
X398639Y778211D02*
X401687D01*
X400163Y776687D02*
Y779735D01*
X403976Y784000D02*
X407024D01*
X405500Y782476D02*
Y785524D01*
X115476Y979500D02*
X118524D01*
X117000Y977976D02*
Y981024D01*
X106976Y979750D02*
X110024D01*
X108500Y978226D02*
Y981274D01*
X401821Y914898D02*
X404869D01*
X403345Y913374D02*
Y916422D01*
X380219Y915250D02*
X383267D01*
X381743Y913726D02*
Y916774D01*
X383792Y976750D02*
X386840D01*
X385316Y975226D02*
Y978274D01*
X366478Y958361D02*
X369526D01*
X368002Y956837D02*
Y959885D01*
X380532Y964750D02*
X383580D01*
X382056Y963226D02*
Y966274D01*
X401424Y964675D02*
X404472D01*
X402948Y963151D02*
Y966199D01*
X406976Y939750D02*
X410024D01*
X408500Y938226D02*
Y941274D01*
X391226Y964250D02*
X394274D01*
X392750Y962726D02*
Y965774D01*
X356897Y964982D02*
X359945D01*
X358421Y963458D02*
Y966506D01*
X341162Y964982D02*
X344210D01*
X342686Y963458D02*
Y966506D01*
X373036Y908537D02*
X376084D01*
X374560Y907013D02*
Y910061D01*
X355552Y914805D02*
X358600D01*
X357076Y913281D02*
Y916329D01*
X340041Y940266D02*
X343089D01*
X341565Y938742D02*
Y941790D01*
X341092Y951991D02*
X344140D01*
X342616Y950467D02*
Y953515D01*
X356897Y952306D02*
X359945D01*
X358421Y950782D02*
Y953830D01*
X375281Y950713D02*
X378329D01*
X376805Y949189D02*
Y952237D01*
X375281Y928792D02*
X378329D01*
X376805Y927268D02*
Y930316D01*
X340826Y927907D02*
X343874D01*
X342350Y926384D02*
Y929432D01*
X356502Y927113D02*
X359550D01*
X358026Y925589D02*
Y928637D01*
X391226Y915148D02*
X394274D01*
X392750Y913624D02*
Y916672D01*
X69739Y1005237D02*
X72787D01*
X71263Y1003712D02*
Y1006760D01*
X258199Y1023711D02*
X261247D01*
X259723Y1022187D02*
Y1025235D01*
X273226Y856498D02*
X276274D01*
X274750Y854974D02*
Y858022D01*
X280699Y895500D02*
X283747D01*
X282223Y893976D02*
Y897024D01*
X272422Y885000D02*
X275470D01*
X273946Y883476D02*
Y886524D01*
X253476Y855000D02*
X256524D01*
X255000Y853476D02*
Y856524D01*
X348476Y870000D02*
X351524D01*
X350000Y868476D02*
Y871524D01*
X348476Y890000D02*
X351524D01*
X350000Y888476D02*
Y891524D01*
X368476Y890000D02*
X371524D01*
X370000Y888476D02*
Y891524D01*
X368476Y870000D02*
X371524D01*
X370000Y868476D02*
Y871524D01*
X408476Y870000D02*
X411524D01*
X410000Y868476D02*
Y871524D01*
X388476Y870000D02*
X391524D01*
X390000Y868476D02*
Y871524D01*
X388476Y890000D02*
X391524D01*
X390000Y888476D02*
Y891524D01*
X408476Y890000D02*
X411524D01*
X410000Y888476D02*
Y891524D01*
X200976Y895000D02*
X204024D01*
X202500Y893476D02*
Y896524D01*
X200976Y915000D02*
X204024D01*
X202500Y913476D02*
Y916524D01*
X200976Y935000D02*
X204024D01*
X202500Y933476D02*
Y936524D01*
X200976Y955000D02*
X204024D01*
X202500Y953476D02*
Y956524D01*
X173476Y910000D02*
X176524D01*
X175000Y908476D02*
Y911524D01*
X173476Y935000D02*
X176524D01*
X175000Y933476D02*
Y936524D01*
X173476Y955000D02*
X176524D01*
X175000Y953476D02*
Y956524D01*
X370568Y1030366D02*
X373616D01*
X372092Y1028842D02*
Y1031890D01*
X315976Y874000D02*
X319024D01*
X317500Y872476D02*
Y875524D01*
X408476Y910000D02*
X411524D01*
X410000Y908476D02*
Y911524D01*
X406674Y924770D02*
X409722D01*
X408198Y923246D02*
Y926294D01*
X272476Y1031250D02*
X275524D01*
X274000Y1029726D02*
Y1032774D01*
X288476Y1030000D02*
X291524D01*
X290000Y1028476D02*
Y1031524D01*
X308476Y1030000D02*
X311524D01*
X310000Y1028476D02*
Y1031524D01*
X328476Y1030000D02*
X331524D01*
X330000Y1028476D02*
Y1031524D01*
X408476Y1010000D02*
X411524D01*
X410000Y1008476D02*
Y1011524D01*
X408476Y990000D02*
X411524D01*
X410000Y988476D02*
Y991524D01*
X406674Y954500D02*
X409722D01*
X408198Y952976D02*
Y956024D01*
X388476Y1010000D02*
X391524D01*
X390000Y1008476D02*
Y1011524D01*
X388476Y990000D02*
X391524D01*
X390000Y988476D02*
Y991524D01*
X158476Y925000D02*
X161524D01*
X160000Y923476D02*
Y926524D01*
X158476Y945000D02*
X161524D01*
X160000Y943476D02*
Y946524D01*
X158476Y965000D02*
X161524D01*
X160000Y963476D02*
Y966524D01*
X138476Y965000D02*
X141524D01*
X140000Y963476D02*
Y966524D01*
X138476Y945000D02*
X141524D01*
X140000Y943476D02*
Y946524D01*
X340041Y994565D02*
X343089D01*
X341565Y993041D02*
Y996089D01*
X340138Y1006973D02*
X343186D01*
X341662Y1005449D02*
Y1008497D01*
X340514Y1018788D02*
X343562D01*
X342038Y1017263D02*
Y1020312D01*
X356502Y1020063D02*
X359550D01*
X358026Y1018539D02*
Y1021587D01*
X365750Y1018331D02*
X368798D01*
X367274Y1016807D02*
Y1019855D01*
X372905Y1010973D02*
X375953D01*
X374429Y1009449D02*
Y1012497D01*
X372460Y1003000D02*
X375508D01*
X373984Y1001476D02*
Y1004524D01*
X372354Y995029D02*
X375402D01*
X373878Y993505D02*
Y996553D01*
X372354Y986950D02*
X375402D01*
X373878Y985426D02*
Y988474D01*
X365199Y979815D02*
X368247D01*
X366723Y978291D02*
Y981339D01*
X332202Y969816D02*
X335250D01*
X333726Y968291D02*
Y971339D01*
X349252Y903854D02*
X352300D01*
X350776Y902330D02*
Y905378D01*
X337523Y897249D02*
X340571D01*
X339047Y895724D02*
Y898773D01*
X334855Y912732D02*
X337903D01*
X336379Y911208D02*
Y914256D01*
X340342Y918395D02*
X343390D01*
X341866Y916871D02*
Y919919D01*
X340994Y978866D02*
X344042D01*
X342518Y977342D02*
Y980390D01*
X356933Y978232D02*
X359981D01*
X358457Y976708D02*
Y979756D01*
X340787Y1027500D02*
X343835D01*
X342311Y1025976D02*
Y1029024D01*
X356933Y1029116D02*
X359981D01*
X358457Y1027592D02*
Y1030640D01*
X388476Y1030000D02*
X391524D01*
X390000Y1028476D02*
Y1031524D01*
X408476Y1030000D02*
X411524D01*
X410000Y1028476D02*
Y1031524D01*
X215226Y974750D02*
X218274D01*
X216750Y973226D02*
Y976274D01*
X200976Y977000D02*
X204024D01*
X202500Y975476D02*
Y978524D01*
X163476Y1018527D02*
X166524D01*
X165000Y1017003D02*
Y1020051D01*
X196976Y986777D02*
X200024D01*
X198500Y985253D02*
Y988301D01*
X197949Y995500D02*
X200997D01*
X199473Y993976D02*
Y997024D01*
X175736Y1028038D02*
X178784D01*
X177260Y1026514D02*
Y1029562D01*
X62976Y978000D02*
X66024D01*
X64500Y976476D02*
Y979524D01*
X112226Y960143D02*
X115274D01*
X113750Y958619D02*
Y961667D01*
X91976Y895345D02*
X95024D01*
X93500Y893821D02*
Y896869D01*
X91976Y916361D02*
X95024D01*
X93500Y914837D02*
Y917885D01*
X174699Y894250D02*
X177747D01*
X176222Y892726D02*
Y895774D01*
X165949Y895000D02*
X168997D01*
X167473Y893476D02*
Y896524D01*
X112226Y916611D02*
X115274D01*
X113750Y915087D02*
Y918135D01*
X111289Y936313D02*
X114337D01*
X112813Y934789D02*
Y937837D01*
X103018Y972000D02*
X106066D01*
X104542Y970476D02*
Y973524D01*
X89039Y958396D02*
X92087D01*
X90563Y956872D02*
Y959920D01*
X89579Y979801D02*
X92627D01*
X91103Y978277D02*
Y981325D01*
X97476Y979500D02*
X100524D01*
X99000Y977976D02*
Y981024D01*
X62738Y957211D02*
X65786D01*
X64262Y955687D02*
Y958735D01*
X54230Y969863D02*
X57278D01*
X55754Y968339D02*
Y971387D01*
X26768Y981951D02*
X29816D01*
X28292Y980427D02*
Y983475D01*
X21457Y975917D02*
X24505D01*
X22981Y974393D02*
Y977441D01*
X36267Y946537D02*
X39315D01*
X37791Y945014D02*
Y948062D01*
X318699Y855500D02*
X321747D01*
X320223Y853976D02*
Y857024D01*
X328699Y865500D02*
X331747D01*
X330223Y863976D02*
Y867024D01*
X318699Y1005500D02*
X321747D01*
X320223Y1003976D02*
Y1007024D01*
X327949Y959500D02*
X330997D01*
X329473Y957976D02*
Y961024D01*
X327949Y981750D02*
X330997D01*
X329473Y980226D02*
Y983274D01*
X327949Y992500D02*
X330997D01*
X329473Y990976D02*
Y994024D01*
X285949Y1019000D02*
X288997D01*
X287473Y1017476D02*
Y1020524D01*
X237199Y885000D02*
X240247D01*
X238723Y883476D02*
Y886524D01*
X216949Y885000D02*
X219997D01*
X218473Y883476D02*
Y886524D01*
X140199Y885000D02*
X143247D01*
X141723Y883476D02*
Y886524D01*
X102949Y990000D02*
X105997D01*
X104473Y988476D02*
Y991524D01*
X97699Y1019000D02*
X100747D01*
X99223Y1017476D02*
Y1020524D01*
X177199Y995500D02*
X180247D01*
X178723Y993976D02*
Y997024D01*
X235698Y1028000D02*
X238746D01*
X237222Y1026476D02*
Y1029524D01*
X215698Y1028000D02*
X218746D01*
X217222Y1026476D02*
Y1029524D01*
X195698Y1028000D02*
X198746D01*
X197222Y1026476D02*
Y1029524D01*
X142449Y853774D02*
X145497D01*
X143973Y852250D02*
Y855298D01*
X299226Y895750D02*
X302274D01*
X300750Y894226D02*
Y897274D01*
X289949Y906000D02*
X292997D01*
X291473Y904476D02*
Y907524D01*
X299226Y916611D02*
X302274D01*
X300750Y915087D02*
Y918135D01*
X289949Y926861D02*
X292997D01*
X291473Y925337D02*
Y928385D01*
X280699Y916361D02*
X283747D01*
X282223Y914837D02*
Y917885D01*
X299226Y937611D02*
X302274D01*
X300750Y936087D02*
Y939135D01*
X289949Y947861D02*
X292997D01*
X291473Y946337D02*
Y949385D01*
X280699Y937361D02*
X283747D01*
X282223Y935837D02*
Y938885D01*
X299226Y958611D02*
X302274D01*
X300750Y957087D02*
Y960135D01*
X289949Y968861D02*
X292997D01*
X291473Y967337D02*
Y970385D01*
X280699Y958361D02*
X283747D01*
X282223Y956837D02*
Y959885D01*
X299226Y979250D02*
X302274D01*
X300750Y977726D02*
Y980774D01*
X289949Y989500D02*
X292997D01*
X291473Y987976D02*
Y991024D01*
X280699Y979000D02*
X283747D01*
X282223Y977476D02*
Y980524D01*
X289949Y885000D02*
X292997D01*
X291473Y883476D02*
Y886524D01*
X327503Y948500D02*
X330551D01*
X329027Y946976D02*
Y950024D01*
X327503Y937500D02*
X330551D01*
X329027Y935976D02*
Y939024D01*
X327503Y926500D02*
X330551D01*
X329027Y924976D02*
Y928024D01*
X327503Y882500D02*
X330551D01*
X329027Y880976D02*
Y884024D01*
X120949Y990000D02*
X123997D01*
X122473Y988476D02*
Y991524D01*
X129976Y980750D02*
X133024D01*
X131500Y979226D02*
Y982274D01*
X139199Y990000D02*
X142247D01*
X140723Y988476D02*
Y991524D01*
X262976Y980750D02*
X266024D01*
X264500Y979226D02*
Y982274D01*
X187199Y995500D02*
X190247D01*
X188723Y993976D02*
Y997024D01*
X157226Y990000D02*
X160274D01*
X158750Y988476D02*
Y991524D01*
X166253Y980750D02*
X169301D01*
X167777Y979226D02*
Y982274D01*
X278699Y1023500D02*
X281747D01*
X280223Y1021976D02*
Y1025024D01*
X216699Y995500D02*
X219747D01*
X218223Y993976D02*
Y997024D01*
X237175Y994750D02*
X240223D01*
X238699Y993226D02*
Y996274D01*
X242717Y989157D02*
X245765D01*
X244241Y987633D02*
Y990681D01*
X248726Y995750D02*
X251774D01*
X250250Y994226D02*
Y997274D01*
X253949Y885000D02*
X256997D01*
X255473Y883476D02*
Y886524D01*
X254187Y989921D02*
X257235D01*
X255711Y988397D02*
Y991445D01*
X272199Y990000D02*
X275247D01*
X273723Y988476D02*
Y991524D01*
X262976Y894250D02*
X266024D01*
X264500Y892726D02*
Y895774D01*
X199449Y880250D02*
X202497D01*
X200973Y878726D02*
Y881774D01*
X226976Y980750D02*
X230024D01*
X228500Y979226D02*
Y982274D01*
X327503Y915500D02*
X330551D01*
X329027Y913976D02*
Y917024D01*
X327503Y893500D02*
X330551D01*
X329027Y891976D02*
Y895024D01*
X154602Y1043250D02*
X157650D01*
X156126Y1041726D02*
Y1044774D01*
X56506Y962282D02*
X59554D01*
X58030Y960759D02*
Y963807D01*
X48595Y962551D02*
X51643D01*
X50119Y961027D02*
Y964075D01*
X32790Y970068D02*
X35838D01*
X34314Y968544D02*
Y971592D01*
X51630Y946693D02*
X54678D01*
X53154Y945169D02*
Y948217D01*
X21135Y949229D02*
X24183D01*
X22659Y947705D02*
Y950753D01*
X93699Y937000D02*
X96747D01*
X95223Y935476D02*
Y938524D01*
X155949Y885000D02*
X158997D01*
X157473Y883476D02*
Y886524D01*
X112226Y895750D02*
X115274D01*
X113750Y894226D02*
Y897274D01*
X128976Y895345D02*
X132024D01*
X130500Y893821D02*
Y896869D01*
X102793Y944809D02*
X105841D01*
X104317Y943285D02*
Y946333D01*
X174988Y885000D02*
X178036D01*
X176512Y883476D02*
Y886524D01*
X103018Y926931D02*
X106066D01*
X104542Y925407D02*
Y928455D01*
X120949Y886123D02*
X123997D01*
X122473Y884599D02*
Y887647D01*
X29748Y931961D02*
X32796D01*
X31272Y930437D02*
Y933485D01*
X37622Y931961D02*
X40670D01*
X39146Y930437D02*
Y933485D01*
X135699Y913750D02*
X138747D01*
X137223Y912226D02*
Y915274D01*
X64902Y946289D02*
X67950D01*
X66426Y944765D02*
Y947813D01*
X58226Y941542D02*
X61274D01*
X59750Y940018D02*
Y943066D01*
X48551Y939434D02*
X51599D01*
X50075Y937910D02*
Y940958D01*
X40726Y900722D02*
X43774D01*
X42250Y899198D02*
Y902246D01*
X348630Y1033750D02*
X351678D01*
X350154Y1032226D02*
Y1035274D01*
X112558Y341053D02*
X115606D01*
X114082Y339529D02*
Y342577D01*
X120104Y339993D02*
X123152D01*
X121628Y338469D02*
Y341517D01*
X121792Y332000D02*
X124840D01*
X123316Y330476D02*
Y333524D01*
X95437Y326500D02*
X98485D01*
X96961Y324976D02*
Y328024D01*
X129624Y332221D02*
X132672D01*
X131148Y330697D02*
Y333745D01*
X137775Y324847D02*
X140823D01*
X139299Y323323D02*
Y326371D01*
X118726Y296500D02*
X121774D01*
X120250Y294976D02*
Y298024D01*
X118901Y304211D02*
X121949D01*
X120425Y302687D02*
Y305735D01*
X136757Y316656D02*
X139805D01*
X138281Y315132D02*
Y318180D01*
X182476Y313500D02*
X185524D01*
X184000Y311976D02*
Y315024D01*
X236400Y312957D02*
X239448D01*
X237924Y311433D02*
Y314481D01*
X144844Y312187D02*
X147892D01*
X146368Y310663D02*
Y313711D01*
X158226Y316998D02*
X161274D01*
X159750Y315474D02*
Y318522D01*
X450783Y120250D02*
X453831D01*
X452307Y118726D02*
Y121774D01*
X554976Y207500D02*
X558024D01*
X556500Y205976D02*
Y209024D01*
X548731Y218337D02*
X551779D01*
X550255Y216814D02*
Y219862D01*
X563976Y197789D02*
X567024D01*
X565500Y196265D02*
Y199313D01*
X538226Y189238D02*
X541274D01*
X539750Y187714D02*
Y190762D01*
X473492Y127155D02*
X476540D01*
X475016Y125631D02*
Y128679D01*
X457430Y103750D02*
X460479D01*
X458955Y102226D02*
Y105274D01*
X530726Y33750D02*
X533774D01*
X532250Y32226D02*
Y35274D01*
X374726Y99750D02*
X377774D01*
X376250Y98226D02*
Y101274D01*
X403976Y124250D02*
X407024D01*
X405500Y122726D02*
Y125774D01*
X159437Y131750D02*
X162485D01*
X160961Y130226D02*
Y133274D01*
X315851Y824041D02*
X318899D01*
X317375Y822517D02*
Y825565D01*
X326450Y824041D02*
X329498D01*
X327974Y822517D02*
Y825565D01*
X337226Y824041D02*
X340274D01*
X338750Y822517D02*
Y825565D01*
X308976Y759490D02*
X312024D01*
X310500Y757966D02*
Y761014D01*
X78269Y787599D02*
X81317D01*
X79793Y786075D02*
Y789123D01*
X408976Y790098D02*
X412024D01*
X410500Y788574D02*
Y791621D01*
X338726Y612500D02*
X341774D01*
X340250Y610976D02*
Y614024D01*
X267812Y742417D02*
X270860D01*
X269335Y740893D02*
Y743941D01*
X259501Y742417D02*
X262549D01*
X261025Y740893D02*
Y743941D01*
X205757Y701750D02*
X208805D01*
X207281Y700226D02*
Y703274D01*
X145465Y719668D02*
X148513D01*
X146989Y718144D02*
Y721192D01*
X133413Y721463D02*
X136461D01*
X134937Y719939D02*
Y722988D01*
X149750Y707057D02*
X152798D01*
X151274Y705533D02*
Y708581D01*
X141861Y707057D02*
X144909D01*
X143385Y705533D02*
Y708581D01*
X139122Y714439D02*
X142170D01*
X140646Y712915D02*
Y715963D01*
X158465Y707211D02*
X161513D01*
X159989Y705687D02*
Y708735D01*
X30582Y835250D02*
X33630D01*
X32106Y833726D02*
Y836774D01*
X23107Y853774D02*
X26155D01*
X24631Y852250D02*
Y855298D01*
X44378Y853774D02*
X47426D01*
X45902Y852250D02*
Y855298D01*
X5452Y1004750D02*
X8500D01*
X6976Y1003226D02*
Y1006274D01*
X5452Y943410D02*
X8500D01*
X6976Y941886D02*
Y944934D01*
X5452Y1035500D02*
X8500D01*
X6976Y1033976D02*
Y1037024D01*
X183226Y801280D02*
X186274D01*
X184750Y799756D02*
Y802804D01*
X137949Y818000D02*
X140997D01*
X139473Y816476D02*
Y819524D01*
X254699Y841000D02*
X257747D01*
X256223Y839476D02*
Y842524D01*
X244949Y837000D02*
X247997D01*
X246473Y835476D02*
Y838524D01*
X268927Y819000D02*
X271975D01*
X270451Y817476D02*
Y820524D01*
X305976Y821000D02*
X309024D01*
X307500Y819476D02*
Y822524D01*
X101123Y851063D02*
X104171D01*
X102647Y849539D02*
Y852587D01*
X207949Y830146D02*
X210997D01*
X209473Y828622D02*
Y831670D01*
X137949Y826562D02*
X140997D01*
X139473Y825039D02*
Y828086D01*
X269449Y811000D02*
X272497D01*
X270973Y809476D02*
Y812524D01*
X568765Y625406D02*
X571813D01*
X570289Y623882D02*
Y626930D01*
X198226Y565360D02*
X201274D01*
X199750Y563836D02*
Y566884D01*
X566722Y543509D02*
X569770D01*
X568246Y541985D02*
Y545033D01*
X559037Y545223D02*
X562085D01*
X560561Y543699D02*
Y546747D01*
X81985Y521415D02*
X85033D01*
X83509Y519891D02*
Y522939D01*
X122437Y627870D02*
X125485D01*
X123961Y626346D02*
Y629394D01*
X130311Y627814D02*
X133359D01*
X131835Y626290D02*
Y629338D01*
X67937Y523684D02*
X70985D01*
X69461Y522160D02*
Y525208D01*
X67937Y515697D02*
X70985D01*
X69461Y514173D02*
Y517221D01*
X98476Y512453D02*
X101524D01*
X100000Y510929D02*
Y513977D01*
X508050Y598985D02*
X511098D01*
X509574Y597461D02*
Y600509D01*
X124557Y523892D02*
X127605D01*
X126081Y522368D02*
Y525416D01*
X115320Y524250D02*
X118368D01*
X116844Y522726D02*
Y525774D01*
X157026Y515697D02*
X160074D01*
X158550Y514173D02*
Y517221D01*
X53967Y519620D02*
X57015D01*
X55491Y518096D02*
Y521144D01*
X150015Y615347D02*
X153063D01*
X151539Y613823D02*
Y616871D01*
X150875Y623173D02*
X153923D01*
X152399Y621650D02*
Y624697D01*
X610039Y528187D02*
X613087D01*
X611563Y526663D02*
Y529711D01*
X507976Y527969D02*
X511024D01*
X509500Y526445D02*
Y529493D01*
X569770Y522372D02*
X572818D01*
X571294Y520848D02*
Y523896D01*
X120322Y551319D02*
X123370D01*
X121846Y549795D02*
Y552843D01*
X128700Y635539D02*
X131748D01*
X130224Y634015D02*
Y637063D01*
X109973Y574461D02*
X113021D01*
X111497Y572937D02*
Y575985D01*
X109733Y582785D02*
X112781D01*
X111257Y581261D02*
Y584309D01*
X66470Y570922D02*
X69518D01*
X67994Y569398D02*
Y572446D01*
X62687Y560000D02*
X65735D01*
X64211Y558476D02*
Y561524D01*
X95476Y560000D02*
X98524D01*
X97000Y558476D02*
Y561524D01*
X113887Y555857D02*
X116935D01*
X115411Y554333D02*
Y557381D01*
X345226Y624250D02*
X348274D01*
X346750Y622726D02*
Y625774D01*
X266253Y695000D02*
X269301D01*
X267777Y693476D02*
Y696524D01*
X36726Y511000D02*
X39774D01*
X38250Y509476D02*
Y512524D01*
X40515Y560250D02*
X43563D01*
X42039Y558726D02*
Y561774D01*
X54485Y560886D02*
X57533D01*
X56009Y559362D02*
Y562410D01*
X194790Y366931D02*
X197838D01*
X196314Y365407D02*
Y368455D01*
X288726Y622250D02*
X291774D01*
X290250Y620726D02*
Y623774D01*
X321357Y605274D02*
X324406D01*
X322882Y603750D02*
Y606798D01*
X101079Y575207D02*
X104127D01*
X102603Y573683D02*
Y576731D01*
X535726Y646750D02*
X538774D01*
X537250Y645226D02*
Y648274D01*
X572558Y651759D02*
X575606D01*
X574082Y650235D02*
Y653283D01*
X544735Y489750D02*
X547783D01*
X546259Y488226D02*
Y491274D01*
X551457Y526767D02*
X554505D01*
X552981Y525243D02*
Y528291D01*
X544235Y512289D02*
X547283D01*
X545759Y510765D02*
Y513813D01*
X530265Y479065D02*
X533313D01*
X531789Y477541D02*
Y480589D01*
X487976Y361000D02*
X491024D01*
X489500Y359476D02*
Y362524D01*
X539358Y295543D02*
X542406D01*
X540882Y294019D02*
Y297067D01*
X539358Y286750D02*
X542406D01*
X540882Y285226D02*
Y288274D01*
X554726Y305250D02*
X557774D01*
X556250Y303726D02*
Y306774D01*
X556358Y331000D02*
X559406D01*
X557882Y329476D02*
Y332524D01*
X564976Y316000D02*
X568024D01*
X566500Y314476D02*
Y317524D01*
X489726Y590289D02*
X492774D01*
X491250Y588765D02*
Y591813D01*
X508931Y573322D02*
X511978D01*
X510454Y571799D02*
Y574846D01*
X584346Y665246D02*
X587394D01*
X585870Y663722D02*
Y666770D01*
X592226Y665000D02*
X595274D01*
X593750Y663476D02*
Y666524D01*
X84437Y635188D02*
X87485D01*
X85961Y633664D02*
Y636712D01*
X118258Y710694D02*
X121306D01*
X119782Y709170D02*
Y712218D01*
X110455Y709641D02*
X113503D01*
X111979Y708117D02*
Y711165D01*
X101424Y709437D02*
X104472D01*
X102948Y707913D02*
Y710961D01*
X73476Y560000D02*
X76524D01*
X75000Y558476D02*
Y561524D01*
X70427Y589800D02*
X73475D01*
X71951Y588276D02*
Y591324D01*
X66975Y581000D02*
X70023D01*
X68499Y579476D02*
Y582524D01*
X658476Y755000D02*
X661524D01*
X660000Y753476D02*
Y756524D01*
X598476Y755000D02*
X601524D01*
X600000Y753476D02*
Y756524D01*
X618476Y755000D02*
X621524D01*
X620000Y753476D02*
Y756524D01*
X618476Y675000D02*
X621524D01*
X620000Y673476D02*
Y676524D01*
X658476Y675000D02*
X661524D01*
X660000Y673476D02*
Y676524D01*
X638476Y675000D02*
X641524D01*
X640000Y673476D02*
Y676524D01*
X648476Y695000D02*
X651524D01*
X650000Y693476D02*
Y696524D01*
X628476Y695000D02*
X631524D01*
X630000Y693476D02*
Y696524D01*
X612113Y703371D02*
X615161D01*
X613637Y701847D02*
Y704895D01*
X611858Y717019D02*
X614906D01*
X613382Y715495D02*
Y718543D01*
X638476Y715000D02*
X641524D01*
X640000Y713476D02*
Y716524D01*
X658476Y715000D02*
X661524D01*
X660000Y713476D02*
Y716524D01*
X648476Y735000D02*
X651524D01*
X650000Y733476D02*
Y736524D01*
X628476Y735000D02*
X631524D01*
X630000Y733476D02*
Y736524D01*
X608476Y735000D02*
X611524D01*
X610000Y733476D02*
Y736524D01*
X584358Y734500D02*
X587406D01*
X585882Y732976D02*
Y736024D01*
X608476Y1055000D02*
X611524D01*
X610000Y1053476D02*
Y1056524D01*
X588476Y1055000D02*
X591524D01*
X590000Y1053476D02*
Y1056524D01*
X558476Y1035000D02*
X561524D01*
X560000Y1033476D02*
Y1036524D01*
X558476Y1005000D02*
X561524D01*
X560000Y1003476D02*
Y1006524D01*
X540994Y1029750D02*
X544042D01*
X542518Y1028226D02*
Y1031274D01*
X531476Y1018320D02*
X534524D01*
X533000Y1016796D02*
Y1019844D01*
X612726Y900500D02*
X615774D01*
X614250Y898976D02*
Y902024D01*
X612726Y912000D02*
X615774D01*
X614250Y910476D02*
Y913524D01*
X612726Y923500D02*
X615774D01*
X614250Y921976D02*
Y925024D01*
X592976Y920250D02*
X596024D01*
X594500Y918726D02*
Y921774D01*
X592976Y892250D02*
X596024D01*
X594500Y890726D02*
Y893774D01*
X572976Y892000D02*
X576024D01*
X574500Y890476D02*
Y893524D01*
X621566Y916517D02*
X624614D01*
X623090Y914993D02*
Y918041D01*
X650226Y949858D02*
X653274D01*
X651750Y948334D02*
Y951382D01*
X667726Y957777D02*
X670774D01*
X669250Y956254D02*
Y959302D01*
X659698Y949750D02*
X662746D01*
X661222Y948226D02*
Y951274D01*
X659698Y862750D02*
X662746D01*
X661222Y861226D02*
Y864274D01*
X642226Y854624D02*
X645274D01*
X643750Y853100D02*
Y856148D01*
X650226Y862750D02*
X653274D01*
X651750Y861226D02*
Y864274D01*
X639976Y874250D02*
X643024D01*
X641500Y872726D02*
Y875774D01*
X517782Y526544D02*
X520830D01*
X519306Y525020D02*
Y528068D01*
X531226Y331250D02*
X534274D01*
X532750Y329726D02*
Y332774D01*
X511858Y331250D02*
X514906D01*
X513382Y329726D02*
Y332774D01*
X653490Y448012D02*
X656538D01*
X655014Y446488D02*
Y449536D01*
X275899Y652007D02*
X278947D01*
X277423Y650483D02*
Y653531D01*
X670976Y855000D02*
X674024D01*
X672500Y853476D02*
Y856524D01*
X670976Y835000D02*
X674024D01*
X672500Y833476D02*
Y836524D01*
X670976Y815000D02*
X674024D01*
X672500Y813476D02*
Y816524D01*
X670976Y795000D02*
X674024D01*
X672500Y793476D02*
Y796524D01*
X670976Y775000D02*
X674024D01*
X672500Y773476D02*
Y776524D01*
X670976Y755000D02*
X674024D01*
X672500Y753476D02*
Y756524D01*
X670976Y735000D02*
X674024D01*
X672500Y733476D02*
Y736524D01*
X670976Y715000D02*
X674024D01*
X672500Y713476D02*
Y716524D01*
X670976Y695000D02*
X674024D01*
X672500Y693476D02*
Y696524D01*
X670976Y675000D02*
X674024D01*
X672500Y673476D02*
Y676524D01*
X670976Y635000D02*
X674024D01*
X672500Y633476D02*
Y636524D01*
X670976Y615000D02*
X674024D01*
X672500Y613476D02*
Y616524D01*
X670976Y595000D02*
X674024D01*
X672500Y593476D02*
Y596524D01*
X670976Y555000D02*
X674024D01*
X672500Y553476D02*
Y556524D01*
X670976Y535000D02*
X674024D01*
X672500Y533476D02*
Y536524D01*
X670976Y515000D02*
X674024D01*
X672500Y513476D02*
Y516524D01*
X670976Y495000D02*
X674024D01*
X672500Y493476D02*
Y496524D01*
X670976Y475000D02*
X674024D01*
X672500Y473476D02*
Y476524D01*
X670976Y455000D02*
X674024D01*
X672500Y453476D02*
Y456524D01*
X670976Y365000D02*
X674024D01*
X672500Y363476D02*
Y366524D01*
X670976Y345000D02*
X674024D01*
X672500Y343476D02*
Y346524D01*
X670976Y325000D02*
X674024D01*
X672500Y323476D02*
Y326524D01*
X670976Y305000D02*
X674024D01*
X672500Y303476D02*
Y306524D01*
X670976Y285000D02*
X674024D01*
X672500Y283476D02*
Y286524D01*
X670976Y265000D02*
X674024D01*
X672500Y263476D02*
Y266524D01*
X670976Y245000D02*
X674024D01*
X672500Y243476D02*
Y246524D01*
X670976Y225000D02*
X674024D01*
X672500Y223476D02*
Y226524D01*
X5976Y215000D02*
X9024D01*
X7500Y213476D02*
Y216524D01*
X5976Y235000D02*
X9024D01*
X7500Y233476D02*
Y236524D01*
X5976Y255000D02*
X9024D01*
X7500Y253476D02*
Y256524D01*
X5976Y275000D02*
X9024D01*
X7500Y273476D02*
Y276524D01*
X5976Y295000D02*
X9024D01*
X7500Y293476D02*
Y296524D01*
X5976Y315000D02*
X9024D01*
X7500Y313476D02*
Y316524D01*
X5976Y335000D02*
X9024D01*
X7500Y333476D02*
Y336524D01*
X5976Y355000D02*
X9024D01*
X7500Y353476D02*
Y356524D01*
X5976Y375000D02*
X9024D01*
X7500Y373476D02*
Y376524D01*
X5976Y395000D02*
X9024D01*
X7500Y393476D02*
Y396524D01*
X5976Y415000D02*
X9024D01*
X7500Y413476D02*
Y416524D01*
X5976Y435000D02*
X9024D01*
X7500Y433476D02*
Y436524D01*
X5976Y452500D02*
X9024D01*
X7500Y450976D02*
Y454024D01*
X5976Y475000D02*
X9024D01*
X7500Y473476D02*
Y476524D01*
X5976Y495000D02*
X9024D01*
X7500Y493476D02*
Y496524D01*
X5976Y515000D02*
X9024D01*
X7500Y513476D02*
Y516524D01*
X5976Y815000D02*
X9024D01*
X7500Y813476D02*
Y816524D01*
X5976Y635000D02*
X9024D01*
X7500Y633476D02*
Y636524D01*
X147738Y599559D02*
X150786D01*
X149262Y598035D02*
Y601083D01*
X91726Y432216D02*
X94774D01*
X93250Y430692D02*
Y433740D01*
X176437Y396969D02*
X179485D01*
X177961Y395445D02*
Y398493D01*
X180863Y471511D02*
X183911D01*
X182387Y469987D02*
Y473035D01*
X196831Y459824D02*
X199879D01*
X198355Y458300D02*
Y461348D01*
X258726Y701462D02*
X261774D01*
X260250Y699939D02*
Y702987D01*
X258726Y688254D02*
X261774D01*
X260250Y686730D02*
Y689779D01*
X262055Y708598D02*
X265103D01*
X263580Y707074D02*
Y710122D01*
X294226Y724654D02*
X297274D01*
X295750Y723130D02*
Y726178D01*
X312053Y724577D02*
X315101D01*
X313577Y723053D02*
Y726101D01*
X275976Y688500D02*
X279024D01*
X277500Y686976D02*
Y690024D01*
X258232Y677385D02*
X261280D01*
X259756Y675861D02*
Y678909D01*
X590858Y479293D02*
X593906D01*
X592382Y477769D02*
Y480817D01*
X607422Y491727D02*
X610470D01*
X608946Y490204D02*
Y493251D01*
X584422Y486250D02*
X587470D01*
X585946Y484726D02*
Y487774D01*
X532408Y256750D02*
X535456D01*
X533932Y255226D02*
Y258274D01*
X514108Y264160D02*
X517156D01*
X515632Y262636D02*
Y265684D01*
X487683Y352250D02*
X490731D01*
X489207Y350726D02*
Y353774D01*
X451476Y24203D02*
X454524D01*
X453000Y22679D02*
Y25727D01*
X459311Y27250D02*
X462359D01*
X460835Y25726D02*
Y28774D01*
X106495Y171500D02*
X109543D01*
X108019Y169976D02*
Y173024D01*
X101411Y160180D02*
X104459D01*
X102935Y158656D02*
Y161704D01*
X128476Y160000D02*
X131524D01*
X130000Y158476D02*
Y161524D01*
X178476Y131250D02*
X181524D01*
X180000Y129726D02*
Y132774D01*
X196376Y131250D02*
X199424D01*
X197900Y129726D02*
Y132774D01*
X158726Y103570D02*
X161774D01*
X160250Y102046D02*
Y105094D01*
X160976Y429211D02*
X164024D01*
X162500Y427687D02*
Y430735D01*
X160976Y413785D02*
X164024D01*
X162500Y412261D02*
Y415309D01*
X161007Y444250D02*
X164055D01*
X162531Y442726D02*
Y445774D01*
X158276Y45750D02*
X161324D01*
X159800Y44226D02*
Y47274D01*
X170576Y45750D02*
X173624D01*
X172100Y44226D02*
Y47274D01*
X196376Y45750D02*
X199424D01*
X197900Y44226D02*
Y47274D01*
X124726Y60250D02*
X127774D01*
X126250Y58726D02*
Y61774D01*
X131826Y74953D02*
X134874D01*
X133350Y73429D02*
Y76477D01*
X145576Y103570D02*
X148624D01*
X147100Y102046D02*
Y105094D01*
X509691Y305250D02*
X512739D01*
X511215Y303726D02*
Y306774D01*
X540226Y331250D02*
X543274D01*
X541750Y329726D02*
Y332774D01*
X548226Y331000D02*
X551274D01*
X549750Y329476D02*
Y332524D01*
X574476Y341793D02*
X577524D01*
X576000Y340269D02*
Y343317D01*
X639011Y454535D02*
X642059D01*
X640535Y453011D02*
Y456059D01*
X603608Y357250D02*
X606656D01*
X605132Y355726D02*
Y358774D01*
X603608Y349918D02*
X606656D01*
X605132Y348394D02*
Y351442D01*
X619858Y358793D02*
X622906D01*
X621382Y357269D02*
Y360317D01*
X89158Y665366D02*
X92206D01*
X90682Y663842D02*
Y666890D01*
X530976Y835000D02*
X534024D01*
X532500Y833476D02*
Y836524D01*
X571226Y843750D02*
X574274D01*
X572750Y842226D02*
Y845274D01*
X570976Y822250D02*
X574024D01*
X572500Y820726D02*
Y823774D01*
X586726Y832806D02*
X589774D01*
X588250Y831282D02*
Y834330D01*
X556226Y832806D02*
X559274D01*
X557750Y831282D02*
Y834330D01*
X592476Y855000D02*
X595524D01*
X594000Y853476D02*
Y856524D01*
X622976Y835750D02*
X626024D01*
X624500Y834226D02*
Y837274D01*
X630976Y835750D02*
X634024D01*
X632500Y834226D02*
Y837274D01*
X316015Y612054D02*
X319063D01*
X317539Y610530D02*
Y613578D01*
X305093Y610035D02*
X308141D01*
X306617Y608511D02*
Y611559D01*
X327118Y612285D02*
X330166D01*
X328642Y610761D02*
Y613809D01*
X332328Y605904D02*
X335376D01*
X333852Y604380D02*
Y607428D01*
X478476Y23750D02*
X481524D01*
X480000Y22226D02*
Y25274D01*
X671476Y977250D02*
X674524D01*
X673000Y975726D02*
Y978774D01*
X671476Y997250D02*
X674524D01*
X673000Y995726D02*
Y998774D01*
X671476Y1017250D02*
X674524D01*
X673000Y1015726D02*
Y1018774D01*
X671476Y1037250D02*
X674524D01*
X673000Y1035726D02*
Y1038774D01*
X671476Y1057250D02*
X674524D01*
X673000Y1055726D02*
Y1058774D01*
X542256Y1069000D02*
X545304D01*
X543780Y1067476D02*
Y1070524D01*
X551476Y1077250D02*
X554524D01*
X553000Y1075726D02*
Y1078774D01*
X571476Y1077250D02*
X574524D01*
X573000Y1075726D02*
Y1078774D01*
X591476Y1077250D02*
X594524D01*
X593000Y1075726D02*
Y1078774D01*
X611476Y1077250D02*
X614524D01*
X613000Y1075726D02*
Y1078774D01*
X631476Y1077250D02*
X634524D01*
X633000Y1075726D02*
Y1078774D01*
X651476Y1077250D02*
X654524D01*
X653000Y1075726D02*
Y1078774D01*
X671476Y1077250D02*
X674524D01*
X673000Y1075726D02*
Y1078774D01*
X86726Y682250D02*
X89774D01*
X88250Y680726D02*
Y683774D01*
X88906Y657496D02*
X91954D01*
X90430Y655972D02*
Y659020D01*
X147175Y608000D02*
X150223D01*
X148699Y606476D02*
Y609524D01*
X146726Y591750D02*
X149774D01*
X148250Y590226D02*
Y593274D01*
X146216Y531399D02*
X149264D01*
X147740Y529875D02*
Y532923D01*
X146726Y583876D02*
X149774D01*
X148250Y582352D02*
Y585400D01*
X114175Y596536D02*
X117223D01*
X115699Y595012D02*
Y598060D01*
X106476Y590000D02*
X109524D01*
X108000Y588476D02*
Y591524D01*
X423142Y383219D02*
X426190D01*
X424666Y381695D02*
Y384743D01*
X423476Y280000D02*
X426524D01*
X425000Y278476D02*
Y281524D01*
X323476Y380000D02*
X326524D01*
X325000Y378476D02*
Y381524D01*
X398476Y380000D02*
X401524D01*
X400000Y378476D02*
Y381524D01*
X373476Y380000D02*
X376524D01*
X375000Y378476D02*
Y381524D01*
X348476Y380000D02*
X351524D01*
X350000Y378476D02*
Y381524D01*
X323476Y280000D02*
X326524D01*
X325000Y278476D02*
Y281524D01*
X373476Y280000D02*
X376524D01*
X375000Y278476D02*
Y281524D01*
X348476Y280000D02*
X351524D01*
X350000Y278476D02*
Y281524D01*
X223476Y280000D02*
X226524D01*
X225000Y278476D02*
Y281524D01*
X298476Y405000D02*
X301524D01*
X300000Y403476D02*
Y406524D01*
X248476Y430000D02*
X251524D01*
X250000Y428476D02*
Y431524D01*
X248476Y405000D02*
X251524D01*
X250000Y403476D02*
Y406524D01*
X223476Y330000D02*
X226524D01*
X225000Y328476D02*
Y331524D01*
X223476Y355000D02*
X226524D01*
X225000Y353476D02*
Y356524D01*
X217302Y388000D02*
X220350D01*
X218826Y386476D02*
Y389524D01*
X84587Y591000D02*
X87635D01*
X86111Y589476D02*
Y592524D01*
X61990Y590514D02*
X65038D01*
X63514Y588990D02*
Y592038D01*
X74847Y678306D02*
X77895D01*
X76371Y676782D02*
Y679830D01*
X40515Y590500D02*
X43563D01*
X42039Y588976D02*
Y592024D01*
X40515Y568750D02*
X43563D01*
X42039Y567226D02*
Y570274D01*
X40515Y582250D02*
X43563D01*
X42039Y580726D02*
Y583774D01*
X668226Y414012D02*
X671274D01*
X669750Y412488D02*
Y415536D01*
X653490Y454750D02*
X656538D01*
X655014Y453226D02*
Y456274D01*
X668226Y440896D02*
X671274D01*
X669750Y439372D02*
Y442420D01*
X668226Y432943D02*
X671274D01*
X669750Y431419D02*
Y434467D01*
X668226Y424896D02*
X671274D01*
X669750Y423372D02*
Y426420D01*
X567226Y500500D02*
X570274D01*
X568750Y498976D02*
Y502024D01*
X558494Y491033D02*
X561542D01*
X560018Y489509D02*
Y492557D01*
X257922Y715300D02*
X260970D01*
X259446Y713775D02*
Y716824D01*
X258372Y723277D02*
X261420D01*
X259896Y721753D02*
Y724801D01*
X196863Y437737D02*
X199911D01*
X198387Y436213D02*
Y439261D01*
X666226Y655500D02*
X669274D01*
X667750Y653976D02*
Y657024D01*
X196376Y103570D02*
X199424D01*
X197900Y102046D02*
Y105094D01*
X17726Y619750D02*
X20774D01*
X19250Y618226D02*
Y621274D01*
X10726Y626250D02*
X13774D01*
X12250Y624726D02*
Y627774D01*
X25476Y626500D02*
X28524D01*
X27000Y624976D02*
Y628024D01*
X84476Y560000D02*
X87524D01*
X86000Y558476D02*
Y561524D01*
X120787Y600811D02*
X123835D01*
X122311Y599287D02*
Y602335D01*
X59976Y575500D02*
X63024D01*
X61500Y573976D02*
Y577024D01*
X18226Y531250D02*
X21274D01*
X19750Y529726D02*
Y532774D01*
X25476Y524750D02*
X28524D01*
X27000Y523226D02*
Y526274D01*
X10476Y524750D02*
X13524D01*
X12000Y523226D02*
Y526274D01*
X32226Y619750D02*
X35274D01*
X33750Y618226D02*
Y621274D01*
X32777Y532500D02*
X35825D01*
X34301Y530976D02*
Y534024D01*
X355976Y462719D02*
X359024D01*
X357500Y461195D02*
Y464243D01*
X338476Y392612D02*
X341524D01*
X340000Y391088D02*
Y394136D01*
X354226Y396189D02*
X357274D01*
X355750Y394665D02*
Y397713D01*
X319952Y398018D02*
X323000D01*
X321476Y396494D02*
Y399542D01*
X306494Y411476D02*
X309542D01*
X308018Y409952D02*
Y413000D01*
X301226Y430000D02*
X304274D01*
X302750Y428476D02*
Y431524D01*
X306494Y448695D02*
X309542D01*
X308018Y447171D02*
Y450219D01*
X319952Y461982D02*
X323000D01*
X321476Y460458D02*
Y463506D01*
X337726Y466982D02*
X340774D01*
X339250Y465458D02*
Y468506D01*
X607483Y511909D02*
X610531D01*
X609007Y510386D02*
Y513433D01*
X575033Y512093D02*
X578081D01*
X576557Y510569D02*
Y513617D01*
X599908Y498043D02*
X602956D01*
X601432Y496519D02*
Y499567D01*
X598921Y457230D02*
X601968D01*
X600444Y455706D02*
Y458755D01*
X574908Y491543D02*
X577956D01*
X576432Y490019D02*
Y493067D01*
X645358Y358793D02*
X648406D01*
X646882Y357269D02*
Y360317D01*
X633608Y351793D02*
X636656D01*
X635132Y350269D02*
Y353317D01*
X552976Y435750D02*
X556024D01*
X554500Y434226D02*
Y437274D01*
X105971Y418131D02*
X109019D01*
X107495Y416607D02*
Y419655D01*
X91726Y423832D02*
X94774D01*
X93250Y422308D02*
Y425356D01*
X91726Y440432D02*
X94774D01*
X93250Y438908D02*
Y441956D01*
X91726Y465203D02*
X94774D01*
X93250Y463679D02*
Y466727D01*
X91363Y391176D02*
X94411D01*
X92887Y389652D02*
Y392700D01*
X100476Y397762D02*
X103524D01*
X102000Y396238D02*
Y399286D01*
X101015Y381219D02*
X104063D01*
X102539Y379695D02*
Y382743D01*
X144572Y375819D02*
X147620D01*
X146096Y374295D02*
Y377343D01*
X191124Y381162D02*
X194172D01*
X192648Y379638D02*
Y382687D01*
X213226Y399250D02*
X216274D01*
X214750Y397726D02*
Y400774D01*
X168976Y371965D02*
X172024D01*
X170500Y370441D02*
Y373489D01*
X224226Y445500D02*
X227274D01*
X225750Y443976D02*
Y447024D01*
X101282Y490967D02*
X104330D01*
X102806Y489443D02*
Y492491D01*
X216874Y372750D02*
X219922D01*
X218398Y371226D02*
Y374274D01*
X51437Y591000D02*
X54485D01*
X52961Y589476D02*
Y592524D01*
X35976Y521671D02*
X39024D01*
X37500Y520148D02*
Y523195D01*
X190212Y397341D02*
X193260D01*
X191736Y395817D02*
Y398865D01*
X139476Y524500D02*
X142524D01*
X141000Y522976D02*
Y526024D01*
X130476Y444169D02*
X133524D01*
X132000Y442645D02*
Y445693D01*
X130536Y413779D02*
X133584D01*
X132060Y412255D02*
Y415303D01*
X130476Y428969D02*
X133524D01*
X132000Y427445D02*
Y430493D01*
X145726Y428969D02*
X148774D01*
X147250Y427445D02*
Y430493D01*
X194326Y328685D02*
X197374D01*
X195850Y327161D02*
Y330209D01*
X194790Y353526D02*
X197838D01*
X196314Y352002D02*
Y355050D01*
X408226Y804140D02*
X411274D01*
X409750Y802616D02*
Y805664D01*
X415478Y794539D02*
X418526D01*
X417002Y793015D02*
Y796063D01*
X5726Y912750D02*
X8774D01*
X7250Y911226D02*
Y914274D01*
X40956Y825000D02*
X44004D01*
X42480Y823476D02*
Y826524D01*
X198753Y418401D02*
X201801D01*
X200277Y416877D02*
Y419925D01*
X172976Y598000D02*
X176024D01*
X174500Y596476D02*
Y599524D01*
X178726Y564750D02*
X181774D01*
X180250Y563226D02*
Y566274D01*
X356476Y688500D02*
X359524D01*
X358000Y686976D02*
Y690024D01*
X296360Y652007D02*
X299408D01*
X297884Y650483D02*
Y653531D01*
X358568Y673616D02*
X361617D01*
X360093Y672092D02*
Y675140D01*
X54485Y511746D02*
X57533D01*
X56009Y510222D02*
Y513270D01*
X55087Y503862D02*
X58135D01*
X56611Y502337D02*
Y505386D01*
X70469Y500170D02*
X73517D01*
X71993Y498646D02*
Y501694D01*
X85187Y414672D02*
X88235D01*
X86711Y413148D02*
Y416196D01*
X392663Y412415D02*
X395711D01*
X394187Y410891D02*
Y413939D01*
X401226Y399611D02*
X404274D01*
X402750Y398087D02*
Y401135D01*
X371226Y447500D02*
X374274D01*
X372750Y445976D02*
Y449024D01*
X383226Y415250D02*
X386274D01*
X384750Y413726D02*
Y416774D01*
X365300Y404102D02*
X368348D01*
X366824Y402578D02*
Y405626D01*
X371226Y412415D02*
X374274D01*
X372750Y410891D02*
Y413939D01*
X383176Y444308D02*
X386224D01*
X384700Y442784D02*
Y445832D01*
X511527Y417371D02*
X514575D01*
X513051Y415847D02*
Y418895D01*
X444668Y355000D02*
X447716D01*
X446192Y353476D02*
Y356524D01*
X444476Y405523D02*
X447524D01*
X446000Y403999D02*
Y407047D01*
X444668Y280000D02*
X447716D01*
X446192Y278476D02*
Y281524D01*
X359202Y647218D02*
X362250D01*
X360726Y645694D02*
Y648742D01*
X543583Y526767D02*
X546631D01*
X545107Y525243D02*
Y528291D01*
X552015Y630969D02*
X555063D01*
X553539Y629445D02*
Y632493D01*
X639976Y938250D02*
X643024D01*
X641500Y936726D02*
Y939774D01*
X622226Y958146D02*
X625274D01*
X623750Y956622D02*
Y959670D01*
X291476Y670750D02*
X294524D01*
X293000Y669226D02*
Y672274D01*
X291476Y678833D02*
X294524D01*
X293000Y677309D02*
Y680357D01*
X348503Y688635D02*
X351551D01*
X350027Y687112D02*
Y690160D01*
X311976Y688635D02*
X315024D01*
X313500Y687112D02*
Y690160D01*
X305482Y646961D02*
X308530D01*
X307006Y645437D02*
Y648485D01*
X324081Y671254D02*
X327129D01*
X325605Y669730D02*
Y672778D01*
X329421Y677041D02*
X332469D01*
X330945Y675517D02*
Y678565D01*
X354690Y666017D02*
X357738D01*
X356214Y664493D02*
Y667541D01*
X346736Y666017D02*
X349784D01*
X348260Y664493D02*
Y667541D01*
X342148Y645464D02*
X345196D01*
X343672Y643940D02*
Y646988D01*
X370379Y623500D02*
X373428D01*
X371903Y621976D02*
Y625024D01*
X380999Y730261D02*
X384047D01*
X382523Y728737D02*
Y731785D01*
X376476Y584250D02*
X379524D01*
X378000Y582726D02*
Y585774D01*
X375982Y616506D02*
X379030D01*
X377506Y614982D02*
Y618030D01*
X355165Y608228D02*
X358213D01*
X356689Y606704D02*
Y609752D01*
X383976Y804500D02*
X387024D01*
X385500Y802976D02*
Y806024D01*
X376226Y804500D02*
X379274D01*
X377750Y802976D02*
Y806024D01*
X319591Y732750D02*
X322639D01*
X321115Y731226D02*
Y734274D01*
X478226Y798000D02*
X481274D01*
X479750Y796476D02*
Y799524D01*
X194790Y251696D02*
X197838D01*
X196314Y250172D02*
Y253220D01*
X315336Y149547D02*
X318384D01*
X316861Y148023D02*
Y151071D01*
X225336Y239547D02*
X228384D01*
X226861Y238023D02*
Y241071D01*
X285336Y179547D02*
X288384D01*
X286861Y178023D02*
Y181071D01*
X300336Y164547D02*
X303384D01*
X301861Y163023D02*
Y166071D01*
X194326Y275000D02*
X197374D01*
X195850Y273476D02*
Y276524D01*
X351244Y677259D02*
X354292D01*
X352768Y675735D02*
Y678783D01*
X513401Y694250D02*
X516449D01*
X514925Y692726D02*
Y695774D01*
X576476Y665500D02*
X579524D01*
X578000Y663976D02*
Y667024D01*
X500468Y940750D02*
X503516D01*
X501992Y939226D02*
Y942274D01*
X546945Y878000D02*
X549993D01*
X548469Y876476D02*
Y879524D01*
X539226Y878000D02*
X542274D01*
X540750Y876476D02*
Y879524D01*
X546945Y934500D02*
X549993D01*
X548469Y932976D02*
Y936024D01*
X572976Y920500D02*
X576024D01*
X574500Y918976D02*
Y922024D01*
X460476Y912500D02*
X463524D01*
X462000Y910976D02*
Y914024D01*
X524481Y904918D02*
X527529D01*
X526005Y903393D02*
Y906441D01*
X531726Y908000D02*
X534775D01*
X533251Y906476D02*
Y909524D01*
X632226Y511909D02*
X635274D01*
X633750Y510385D02*
Y513433D01*
X617714Y526431D02*
X620762D01*
X619238Y524907D02*
Y527955D01*
X630858Y463043D02*
X633906D01*
X632382Y461519D02*
Y464567D01*
X639476Y462793D02*
X642524D01*
X641000Y461269D02*
Y464317D01*
X641626Y490391D02*
X644674D01*
X643150Y488867D02*
Y491915D01*
X652651Y469000D02*
X655699D01*
X654175Y467476D02*
Y470524D01*
X317503Y761193D02*
X320551D01*
X319027Y759669D02*
Y762717D01*
X286963Y761193D02*
X290011D01*
X288487Y759669D02*
Y762717D01*
X250984Y750278D02*
X254032D01*
X252508Y748754D02*
Y751802D01*
X224259Y685077D02*
X227307D01*
X225784Y683553D02*
Y686601D01*
X243034Y749538D02*
X246082D01*
X244558Y748014D02*
Y751062D01*
X58584Y695184D02*
X61632D01*
X60108Y693660D02*
Y696708D01*
X65726Y698500D02*
X68774D01*
X67250Y696976D02*
Y700024D01*
X76648Y695686D02*
X79696D01*
X78172Y694162D02*
Y697209D01*
X74315Y686556D02*
X77363D01*
X75839Y685032D02*
Y688080D01*
X88476Y707500D02*
X91524D01*
X90000Y705976D02*
Y709024D01*
X480976Y932500D02*
X484024D01*
X482500Y930976D02*
Y934024D01*
X461226Y966750D02*
X464274D01*
X462750Y965226D02*
Y968274D01*
X481226Y967500D02*
X484274D01*
X482750Y965976D02*
Y969024D01*
X532726Y918922D02*
X535774D01*
X534250Y917398D02*
Y920446D01*
X480226Y946750D02*
X483274D01*
X481750Y945226D02*
Y948274D01*
X602226Y960000D02*
X605274D01*
X603750Y958476D02*
Y961524D01*
X591726Y957452D02*
X594774D01*
X593250Y955928D02*
Y958976D01*
X572476Y957452D02*
X575524D01*
X574000Y955928D02*
Y958976D01*
X562253Y957452D02*
X565301D01*
X563777Y955928D02*
Y958976D01*
X582226Y957452D02*
X585274D01*
X583750Y955928D02*
Y958976D01*
X539260Y934465D02*
X542309D01*
X540784Y932942D02*
Y935990D01*
X632226Y958146D02*
X635274D01*
X633750Y956622D02*
Y959670D01*
X519940Y960750D02*
X522988D01*
X521464Y959226D02*
Y962274D01*
X160416Y527891D02*
X163464D01*
X161940Y526367D02*
Y529415D01*
X178726Y608524D02*
X181774D01*
X180250Y607000D02*
Y610048D01*
X198264Y602336D02*
X201312D01*
X199788Y600812D02*
Y603860D01*
X95517Y835863D02*
X98565D01*
X97041Y834340D02*
Y837387D01*
X137368Y767221D02*
X140416D01*
X138892Y765697D02*
Y768745D01*
X5976Y775000D02*
X9024D01*
X7500Y773476D02*
Y776524D01*
X5976Y675000D02*
X9024D01*
X7500Y673476D02*
Y676524D01*
X5976Y795000D02*
X9024D01*
X7500Y793476D02*
Y796524D01*
X5976Y715000D02*
X9024D01*
X7500Y713476D02*
Y716524D01*
X5976Y755000D02*
X9024D01*
X7500Y753476D02*
Y756524D01*
X5976Y735000D02*
X9024D01*
X7500Y733476D02*
Y736524D01*
X5976Y695000D02*
X9024D01*
X7500Y693476D02*
Y696524D01*
X5817Y654881D02*
X8865D01*
X7341Y653357D02*
Y656405D01*
X76822Y643099D02*
X79870D01*
X78346Y641575D02*
Y644623D01*
X74560Y653084D02*
X77608D01*
X76084Y651560D02*
Y654608D01*
X98699Y627194D02*
X101747D01*
X100223Y625670D02*
Y628718D01*
X84515Y627000D02*
X87563D01*
X86039Y625476D02*
Y628524D01*
X71989Y703272D02*
X75037D01*
X73513Y701748D02*
Y704796D01*
X69602Y639955D02*
X72650D01*
X71126Y638431D02*
Y641479D01*
X55081Y640161D02*
X58129D01*
X56605Y638637D02*
Y641684D01*
X33937Y627750D02*
X36985D01*
X35461Y626226D02*
Y629274D01*
X44202Y630247D02*
X47250D01*
X45726Y628723D02*
Y631771D01*
X139448Y642211D02*
X142496D01*
X140972Y640687D02*
Y643735D01*
X197210Y642502D02*
X200258D01*
X198734Y640978D02*
Y644026D01*
X251437Y661789D02*
X254485D01*
X252961Y660265D02*
Y663313D01*
X223791Y693860D02*
X226839D01*
X225315Y692336D02*
Y695384D01*
X208645Y682750D02*
X211693D01*
X210169Y681226D02*
Y684274D01*
X200771Y682750D02*
X203819D01*
X202295Y681226D02*
Y684274D01*
X171375Y644363D02*
X174423D01*
X172899Y642839D02*
Y645887D01*
X165803Y654611D02*
X168851D01*
X167327Y653087D02*
Y656135D01*
X204567Y690349D02*
X207615D01*
X206091Y688825D02*
Y691873D01*
X178732Y647587D02*
X181780D01*
X180256Y646063D02*
Y649111D01*
X36277Y678063D02*
X39325D01*
X37801Y676539D02*
Y679587D01*
X27967Y668000D02*
X31015D01*
X29491Y666476D02*
Y669524D01*
X31476Y735131D02*
X34524D01*
X33000Y733607D02*
Y736655D01*
X22767Y734014D02*
X25815D01*
X24291Y732490D02*
Y735538D01*
X36494Y692097D02*
X39542D01*
X38018Y690573D02*
Y693621D01*
X43593Y683750D02*
X46641D01*
X45117Y682226D02*
Y685274D01*
X22476Y693500D02*
X25524D01*
X24000Y691976D02*
Y695024D01*
X31955Y726000D02*
X35003D01*
X33479Y724476D02*
Y727524D01*
X51976Y712631D02*
X55024D01*
X53500Y711107D02*
Y714155D01*
X66825Y754593D02*
X69873D01*
X68349Y753069D02*
Y756117D01*
X88906Y759490D02*
X91954D01*
X90430Y757966D02*
Y761014D01*
X72052Y740500D02*
X75100D01*
X73576Y738976D02*
Y742024D01*
X83051Y742828D02*
X86099D01*
X84575Y741304D02*
Y744352D01*
X303941Y618143D02*
X306989D01*
X305465Y616619D02*
Y619667D01*
X344075Y604886D02*
X347123D01*
X345599Y603362D02*
Y606410D01*
X421049Y605667D02*
X424097D01*
X422573Y604143D02*
Y607191D01*
X198459Y618831D02*
X201507D01*
X199983Y617307D02*
Y620355D01*
X171782Y617148D02*
X174830D01*
X173306Y615624D02*
Y618672D01*
X139226Y626250D02*
X142274D01*
X140750Y624726D02*
Y627774D01*
X151226Y637500D02*
X154274D01*
X152750Y635976D02*
Y639024D01*
X159638Y624743D02*
X162686D01*
X161162Y623219D02*
Y626267D01*
X5207Y966722D02*
X8255D01*
X6731Y965198D02*
Y968246D01*
X89976Y575461D02*
X93024D01*
X91500Y573937D02*
Y576985D01*
X137622Y474646D02*
X140670D01*
X139146Y473122D02*
Y476171D01*
X344199Y755995D02*
X347247D01*
X345723Y754471D02*
Y757519D01*
X395486Y621626D02*
X398534D01*
X397010Y620102D02*
Y623150D01*
X398993Y605274D02*
X402041D01*
X400517Y603750D02*
Y606798D01*
X387476Y621449D02*
X390524D01*
X389000Y619925D02*
Y622973D01*
X403394Y590586D02*
X406442D01*
X404918Y589062D02*
Y592110D01*
X395520Y590586D02*
X398568D01*
X397044Y589062D02*
Y592110D01*
X387800Y592138D02*
X390848D01*
X389324Y590614D02*
Y593662D01*
X200445Y658246D02*
X203493D01*
X201969Y656722D02*
Y659770D01*
X201201Y650163D02*
X204249D01*
X202725Y648639D02*
Y651687D01*
X300152Y678711D02*
X303200D01*
X301676Y677187D02*
Y680235D01*
X293976Y688500D02*
X297024D01*
X295500Y686976D02*
Y690024D01*
X312053Y707242D02*
X315101D01*
X313577Y705718D02*
Y708766D01*
X294426Y707242D02*
X297474D01*
X295949Y705718D02*
Y708766D01*
X371134Y701389D02*
X374182D01*
X372658Y699865D02*
Y702913D01*
X363036Y701596D02*
X366084D01*
X364560Y700072D02*
Y703120D01*
X161070Y564943D02*
X164118D01*
X162594Y563419D02*
Y566467D01*
X153199Y564739D02*
X156247D01*
X154723Y563215D02*
Y566263D01*
X104476Y471750D02*
X107524D01*
X106000Y470226D02*
Y473274D01*
X124485Y375500D02*
X127533D01*
X126009Y373976D02*
Y377024D01*
X542494Y1052032D02*
X545542D01*
X544018Y1050508D02*
Y1053556D01*
X667077Y404514D02*
X670126D01*
X668602Y402990D02*
Y406038D01*
X411976Y668750D02*
X415024D01*
X413500Y667226D02*
Y670274D01*
X430476Y668750D02*
X433524D01*
X432000Y667226D02*
Y670274D01*
X430476Y679606D02*
X433524D01*
X432000Y678082D02*
Y681130D01*
X421226Y674250D02*
X424274D01*
X422750Y672726D02*
Y675774D01*
X238395Y648167D02*
X241443D01*
X239919Y646643D02*
Y649691D01*
X541946Y473250D02*
X544994D01*
X543470Y471726D02*
Y474774D01*
X105016Y518737D02*
X108064D01*
X106540Y517213D02*
Y520261D01*
X123476Y509922D02*
X126524D01*
X125000Y508398D02*
Y511446D01*
X78937Y514139D02*
X81985D01*
X80461Y512615D02*
Y515663D01*
X67269Y507851D02*
X70317D01*
X68793Y506327D02*
Y509375D01*
X190363Y479988D02*
X193411D01*
X191887Y478464D02*
Y481512D01*
X147299Y508681D02*
X150347D01*
X148823Y507157D02*
Y510205D01*
X148090Y497759D02*
X151138D01*
X149614Y496235D02*
Y499283D01*
X170576Y538241D02*
X173624D01*
X172100Y536717D02*
Y539765D01*
X197925Y531500D02*
X200973D01*
X199449Y529976D02*
Y533024D01*
X321015Y564577D02*
X324063D01*
X322539Y563053D02*
Y566101D01*
X311839Y558307D02*
X314887D01*
X313363Y556783D02*
Y559831D01*
X293770Y592071D02*
X296818D01*
X295294Y590547D02*
Y593595D01*
X382937Y722626D02*
X385985D01*
X384461Y721102D02*
Y724150D01*
X357461Y728235D02*
X360508D01*
X358984Y726711D02*
Y729759D01*
X260449Y801750D02*
X263497D01*
X261973Y800226D02*
Y803274D01*
X252740Y803358D02*
X255788D01*
X254265Y801834D02*
Y804882D01*
X199868Y831080D02*
X202916D01*
X201392Y829556D02*
Y832604D01*
X198699Y839250D02*
X201747D01*
X200223Y837726D02*
Y840774D01*
X247081Y814301D02*
X250129D01*
X248605Y812777D02*
Y815825D01*
X240665Y630762D02*
X243713D01*
X242189Y629238D02*
Y632286D01*
X266692Y628250D02*
X269740D01*
X268216Y626726D02*
Y629774D01*
X263449Y611368D02*
X266497D01*
X264972Y609844D02*
Y612892D01*
X217452Y635596D02*
X220500D01*
X218976Y634072D02*
Y637120D01*
X410374Y734500D02*
X413422D01*
X411898Y732976D02*
Y736024D01*
X138726Y124913D02*
X141774D01*
X140250Y123389D02*
Y126437D01*
X171782Y530376D02*
X174830D01*
X173306Y528852D02*
Y531900D01*
X172275Y456041D02*
X175323D01*
X173799Y454517D02*
Y457565D01*
X487226Y911000D02*
X490274D01*
X488750Y909476D02*
Y912524D01*
X382056Y687250D02*
X385104D01*
X383580Y685726D02*
Y688774D01*
X367128Y583887D02*
X370176D01*
X368652Y582363D02*
Y585411D01*
X366501Y591753D02*
X369548D01*
X368024Y590229D02*
Y593277D01*
X373013Y596289D02*
X376061D01*
X374537Y594765D02*
Y597813D01*
X358930Y595298D02*
X361978D01*
X360454Y593774D02*
Y596822D01*
X359081Y587166D02*
X362129D01*
X360605Y585642D02*
Y588690D01*
X332435Y564039D02*
X335482D01*
X333959Y562515D02*
Y565564D01*
X327473Y555589D02*
X330521D01*
X328997Y554065D02*
Y557113D01*
X335340Y555259D02*
X338388D01*
X336864Y553735D02*
Y556783D01*
X439665Y669867D02*
X442713D01*
X441189Y668343D02*
Y671391D01*
X525726Y646750D02*
X528774D01*
X527250Y645226D02*
Y648274D01*
X530658Y641730D02*
X533706D01*
X532182Y640206D02*
Y643254D01*
X535726Y636750D02*
X538774D01*
X537250Y635226D02*
Y638274D01*
X472533Y691370D02*
X475581D01*
X474057Y689846D02*
Y692894D01*
X452976Y669655D02*
X456024D01*
X454500Y668131D02*
Y671179D01*
X411976Y679606D02*
X415024D01*
X413500Y678082D02*
Y681130D01*
X396726Y650515D02*
X399774D01*
X398250Y648991D02*
Y652039D01*
X436049Y650994D02*
X439097D01*
X437573Y649470D02*
Y652518D01*
X416476Y644224D02*
X419524D01*
X418000Y642700D02*
Y645748D01*
X409374Y644363D02*
X412422D01*
X410898Y642839D02*
Y645887D01*
X423476Y644363D02*
X426524D01*
X425000Y642839D02*
Y645887D01*
X368226Y804250D02*
X371274D01*
X369750Y802726D02*
Y805774D01*
X375917Y830603D02*
X378965D01*
X377441Y829079D02*
Y832127D01*
X446231Y669867D02*
X449279D01*
X447755Y668343D02*
Y671391D01*
X457583Y679706D02*
X460631D01*
X459107Y678182D02*
Y681230D01*
X525726Y636750D02*
X528774D01*
X527250Y635226D02*
Y638274D01*
X482514Y558327D02*
X485562D01*
X484038Y556803D02*
Y559851D01*
X482514Y566750D02*
X485562D01*
X484038Y565226D02*
Y568274D01*
X482514Y575750D02*
X485562D01*
X484038Y574226D02*
Y577274D01*
X481677Y583887D02*
X484725D01*
X483201Y582363D02*
Y585411D01*
X534384Y662373D02*
X537432D01*
X535908Y660849D02*
Y663897D01*
X670976Y575000D02*
X674024D01*
X672500Y573476D02*
Y576524D01*
X647726Y562750D02*
X650774D01*
X649250Y561226D02*
Y564274D01*
X518476Y1030000D02*
X521524D01*
X520000Y1028476D02*
Y1031524D01*
X498476Y1030000D02*
X501524D01*
X500000Y1028476D02*
Y1031524D01*
X478476Y1030000D02*
X481524D01*
X480000Y1028476D02*
Y1031524D01*
X458476Y1030000D02*
X461524D01*
X460000Y1028476D02*
Y1031524D01*
X438476Y1030000D02*
X441524D01*
X440000Y1028476D02*
Y1031524D01*
X418476Y1030000D02*
X421524D01*
X420000Y1028476D02*
Y1031524D01*
X513976Y856000D02*
X517024D01*
X515500Y854476D02*
Y857524D01*
X505034Y852782D02*
X508082D01*
X506558Y851258D02*
Y854306D01*
X490764Y816750D02*
X493812D01*
X492288Y815226D02*
Y818274D01*
X28867Y479100D02*
X31915D01*
X30391Y477576D02*
Y480624D01*
X20976Y492461D02*
X24024D01*
X22500Y490937D02*
Y493985D01*
X60476Y452750D02*
X63524D01*
X62000Y451226D02*
Y454274D01*
X60476Y460750D02*
X63524D01*
X62000Y459226D02*
Y462274D01*
X86491Y480000D02*
X89539D01*
X88015Y478476D02*
Y481524D01*
X71908Y488250D02*
X74956D01*
X73432Y486726D02*
Y489774D01*
X555047Y605256D02*
X558096D01*
X556572Y603732D02*
Y606780D01*
X103731Y828443D02*
X106779D01*
X105255Y826918D02*
Y829967D01*
X125546Y805835D02*
X128594D01*
X127070Y804311D02*
Y807359D01*
X376696Y552082D02*
X379744D01*
X378220Y550558D02*
Y553606D01*
X403932Y975000D02*
X406980D01*
X405456Y973476D02*
Y976524D01*
X418476Y950000D02*
X421524D01*
X420000Y948476D02*
Y951524D01*
X418476Y970000D02*
X421524D01*
X420000Y968476D02*
Y971524D01*
X418476Y990000D02*
X421524D01*
X420000Y988476D02*
Y991524D01*
X418476Y1010000D02*
X421524D01*
X420000Y1008476D02*
Y1011524D01*
X438476Y950000D02*
X441524D01*
X440000Y948476D02*
Y951524D01*
X438476Y970000D02*
X441524D01*
X440000Y968476D02*
Y971524D01*
X438476Y990000D02*
X441524D01*
X440000Y988476D02*
Y991524D01*
X438476Y1010000D02*
X441524D01*
X440000Y1008476D02*
Y1011524D01*
X518476Y990000D02*
X521524D01*
X520000Y988476D02*
Y991524D01*
X498476Y990000D02*
X501524D01*
X500000Y988476D02*
Y991524D01*
X478476Y990000D02*
X481524D01*
X480000Y988476D02*
Y991524D01*
X458476Y990000D02*
X461524D01*
X460000Y988476D02*
Y991524D01*
X518476Y1010000D02*
X521524D01*
X520000Y1008476D02*
Y1011524D01*
X498476Y1010000D02*
X501524D01*
X500000Y1008476D02*
Y1011524D01*
X478476Y1010000D02*
X481524D01*
X480000Y1008476D02*
Y1011524D01*
X458476Y1010000D02*
X461524D01*
X460000Y1008476D02*
Y1011524D01*
X370379Y502123D02*
X373428D01*
X371903Y500599D02*
Y503647D01*
X249452Y458883D02*
X252500D01*
X250976Y457359D02*
Y460407D01*
X124226Y494039D02*
X127274D01*
X125750Y492515D02*
Y495563D01*
X78079Y503154D02*
X81127D01*
X79603Y501630D02*
Y504678D01*
X88476Y497693D02*
X91524D01*
X90000Y496169D02*
Y499217D01*
X491094Y413094D02*
X494142D01*
X492618Y411571D02*
Y414618D01*
X503608Y412145D02*
X506656D01*
X505132Y410621D02*
Y413669D01*
X520726Y396768D02*
X523774D01*
X522250Y395243D02*
Y398292D01*
X418476Y930000D02*
X421524D01*
X420000Y928476D02*
Y931524D01*
X438476Y930000D02*
X441524D01*
X440000Y928476D02*
Y931524D01*
X458476Y930000D02*
X461524D01*
X460000Y928476D02*
Y931524D01*
X438476Y910000D02*
X441524D01*
X440000Y908476D02*
Y911524D01*
X418476Y910000D02*
X421524D01*
X420000Y908476D02*
Y911524D01*
X326226Y801500D02*
X329274D01*
X327750Y799976D02*
Y803024D01*
X305976Y812500D02*
X309024D01*
X307500Y810976D02*
Y814024D01*
X368226Y816250D02*
X371274D01*
X369750Y814726D02*
Y817774D01*
X355726Y822000D02*
X358774D01*
X357250Y820476D02*
Y823524D01*
X486476Y613250D02*
X489524D01*
X488000Y611726D02*
Y614774D01*
X495406Y650515D02*
X498454D01*
X496930Y648991D02*
Y652039D01*
X487510Y650304D02*
X490558D01*
X489034Y648780D02*
Y651828D01*
X482639Y642566D02*
X485687D01*
X484163Y641042D02*
Y644090D01*
X475779Y642827D02*
X478827D01*
X477303Y641303D02*
Y644351D01*
X492476Y617750D02*
X495524D01*
X494000Y616226D02*
Y619274D01*
X499077Y515523D02*
X502125D01*
X500601Y513999D02*
Y517047D01*
X507049Y512289D02*
X510097D01*
X508573Y510765D02*
Y513813D01*
X485976Y463811D02*
X489024D01*
X487500Y462287D02*
Y465335D01*
X398976Y498500D02*
X402024D01*
X400500Y496976D02*
Y500024D01*
X485976Y479293D02*
X489024D01*
X487500Y477769D02*
Y480817D01*
X28476Y455000D02*
X31524D01*
X30000Y453476D02*
Y456524D01*
X36476Y426750D02*
X39524D01*
X38000Y425226D02*
Y428274D01*
X36726Y404500D02*
X39774D01*
X38250Y402976D02*
Y406024D01*
X36976Y477750D02*
X40024D01*
X38500Y476226D02*
Y479274D01*
X34226Y503250D02*
X37274D01*
X35750Y501726D02*
Y504774D01*
X85476Y448500D02*
X88524D01*
X87000Y446976D02*
Y450024D01*
X61626Y406726D02*
X64674D01*
X63150Y405202D02*
Y408250D01*
X61476Y429750D02*
X64524D01*
X63000Y428226D02*
Y431274D01*
X418476Y890000D02*
X421524D01*
X420000Y888476D02*
Y891524D01*
X438476Y890000D02*
X441524D01*
X440000Y888476D02*
Y891524D01*
X418476Y870000D02*
X421524D01*
X420000Y868476D02*
Y871524D01*
X438476Y870000D02*
X441524D01*
X440000Y868476D02*
Y871524D01*
X358476Y850000D02*
X361524D01*
X360000Y848476D02*
Y851524D01*
X378476Y850000D02*
X381524D01*
X380000Y848476D02*
Y851524D01*
X398476Y850000D02*
X401524D01*
X400000Y848476D02*
Y851524D01*
X418476Y850000D02*
X421524D01*
X420000Y848476D02*
Y851524D01*
X438476Y850000D02*
X441524D01*
X440000Y848476D02*
Y851524D01*
X457476Y867250D02*
X460524D01*
X459000Y865726D02*
Y868774D01*
X538476Y990000D02*
X541524D01*
X540000Y988476D02*
Y991524D01*
X558476Y990000D02*
X561524D01*
X560000Y988476D02*
Y991524D01*
X538476Y1005000D02*
X541524D01*
X540000Y1003476D02*
Y1006524D01*
X588476Y980000D02*
X591524D01*
X590000Y978476D02*
Y981524D01*
X638476Y1060000D02*
X641524D01*
X640000Y1058476D02*
Y1061524D01*
X558476Y1060000D02*
X561524D01*
X560000Y1058476D02*
Y1061524D01*
X643476Y665000D02*
X646524D01*
X645000Y663476D02*
Y666524D01*
X546476Y455000D02*
X549524D01*
X548000Y453476D02*
Y456524D01*
X512515Y497735D02*
X515563D01*
X514039Y496211D02*
Y499259D01*
X531976Y498000D02*
X535024D01*
X533500Y496476D02*
Y499524D01*
X531458Y456308D02*
X534506D01*
X532982Y454784D02*
Y457832D01*
X551476Y389250D02*
X554524D01*
X553000Y387726D02*
Y390774D01*
X551476Y446750D02*
X554524D01*
X553000Y445226D02*
Y448274D01*
X551476Y424750D02*
X554524D01*
X553000Y423226D02*
Y426274D01*
X551476Y367000D02*
X554524D01*
X553000Y365476D02*
Y368524D01*
X508726Y360250D02*
X511774D01*
X510250Y358726D02*
Y361774D01*
X538976Y350000D02*
X542024D01*
X540500Y348476D02*
Y351524D01*
X411226Y597750D02*
X414274D01*
X412750Y596226D02*
Y599274D01*
X414226Y583250D02*
X417274D01*
X415750Y581726D02*
Y584774D01*
X93226Y772500D02*
X96274D01*
X94750Y770976D02*
Y774024D01*
X131041Y735014D02*
X134089D01*
X132565Y733490D02*
Y736537D01*
X398476Y830000D02*
X401524D01*
X400000Y828476D02*
Y831524D01*
X418476Y830000D02*
X421524D01*
X420000Y828476D02*
Y831524D01*
X418476Y810000D02*
X421524D01*
X420000Y808476D02*
Y811524D01*
X427071Y719715D02*
X430120D01*
X428596Y718191D02*
Y721239D01*
X391424Y724212D02*
X394472D01*
X392948Y722688D02*
Y725736D01*
X234160Y677659D02*
X237208D01*
X235684Y676135D02*
Y679183D01*
X111440Y475626D02*
X114488D01*
X112964Y474102D02*
Y477150D01*
X194790Y300359D02*
X197838D01*
X196314Y298835D02*
Y301883D01*
X350670Y349673D02*
X353718D01*
X352194Y348149D02*
Y351197D01*
X342726Y349673D02*
X345774D01*
X344250Y348149D02*
Y351197D01*
X335379Y298000D02*
X338427D01*
X336903Y296476D02*
Y299524D01*
X340976Y305991D02*
X344024D01*
X342500Y304467D02*
Y307515D01*
X292476Y288000D02*
X295524D01*
X294000Y286476D02*
Y289524D01*
X271976Y279000D02*
X275024D01*
X273500Y277476D02*
Y280524D01*
X280226Y284500D02*
X283274D01*
X281750Y282976D02*
Y286024D01*
X255981Y321750D02*
X259029D01*
X257505Y320226D02*
Y323274D01*
X277976Y320063D02*
X281024D01*
X279500Y318539D02*
Y321587D01*
X247439Y321750D02*
X250487D01*
X248963Y320226D02*
Y323274D01*
X292476Y305250D02*
X295524D01*
X294000Y303726D02*
Y306774D01*
X254007Y391713D02*
X257055D01*
X255531Y390189D02*
Y393237D01*
X286976Y329180D02*
X290024D01*
X288500Y327656D02*
Y330704D01*
X237476Y331492D02*
X240524D01*
X239000Y329968D02*
Y333016D01*
X287187Y370293D02*
X290235D01*
X288710Y368769D02*
Y371817D01*
X305817Y349673D02*
X308865D01*
X307341Y348149D02*
Y351197D01*
X301726Y338754D02*
X304774D01*
X303250Y337229D02*
Y340277D01*
X292476Y297255D02*
X295524D01*
X294000Y295731D02*
Y298779D01*
X301226Y288750D02*
X304274D01*
X302750Y287226D02*
Y290274D01*
X329918Y305991D02*
X332966D01*
X331442Y304467D02*
Y307515D01*
X325051Y327500D02*
X328099D01*
X326575Y325976D02*
Y329024D01*
X285336Y349526D02*
X288384D01*
X286861Y348003D02*
Y351050D01*
X249715Y473615D02*
X252764D01*
X251239Y472091D02*
Y475140D01*
X473677Y532503D02*
X476725D01*
X475201Y530979D02*
Y534027D01*
X236687Y372250D02*
X239735D01*
X238211Y370726D02*
Y373774D01*
X217687Y531619D02*
X220735D01*
X219211Y530095D02*
Y533143D01*
X532599Y593750D02*
X535647D01*
X534123Y592226D02*
Y595274D01*
X532279Y585882D02*
X535326D01*
X533802Y584358D02*
Y587406D01*
X563329Y590441D02*
X566377D01*
X564853Y588917D02*
Y591965D01*
X577015Y588709D02*
X580063D01*
X578539Y587185D02*
Y590233D01*
X569695Y585807D02*
X572743D01*
X571219Y584283D02*
Y587331D01*
X558226Y568500D02*
X561274D01*
X559750Y566976D02*
Y570024D01*
X185145Y372250D02*
X188193D01*
X186669Y370726D02*
Y373774D01*
X243226Y378750D02*
X246274D01*
X244750Y377226D02*
Y380274D01*
X323362Y352750D02*
X326410D01*
X324886Y351226D02*
Y354274D01*
X323976Y336673D02*
X327024D01*
X325500Y335149D02*
Y338197D01*
X313868Y368766D02*
X316916D01*
X315392Y367242D02*
Y370290D01*
X359568Y366250D02*
X362616D01*
X361092Y364726D02*
Y367774D01*
X274057Y430000D02*
X277105D01*
X275581Y428476D02*
Y431524D01*
X274057Y455000D02*
X277105D01*
X275581Y453476D02*
Y456524D01*
X274057Y405000D02*
X277105D01*
X275581Y403476D02*
Y406524D01*
X298519Y381162D02*
X301567D01*
X300043Y379638D02*
Y382687D01*
X295110Y370362D02*
X298158D01*
X296634Y368838D02*
Y371886D01*
X532359Y129250D02*
X535407D01*
X533883Y127726D02*
Y130774D01*
X528976Y218750D02*
X532024D01*
X530500Y217226D02*
Y220274D01*
X460726Y162500D02*
X463774D01*
X462250Y160976D02*
Y164024D01*
X462766Y169000D02*
X465813D01*
X464290Y167476D02*
Y170524D01*
X497976Y344500D02*
X501024D01*
X499500Y342976D02*
Y346024D01*
X193476Y10000D02*
X196524D01*
X195000Y8476D02*
Y11524D01*
X208476Y10000D02*
X211524D01*
X210000Y8476D02*
Y11524D01*
X228476Y10000D02*
X231524D01*
X230000Y8476D02*
Y11524D01*
X248476Y10000D02*
X251524D01*
X250000Y8476D02*
Y11524D01*
X268476Y10000D02*
X271524D01*
X270000Y8476D02*
Y11524D01*
X148476Y10000D02*
X151524D01*
X150000Y8476D02*
Y11524D01*
X128476Y10000D02*
X131524D01*
X130000Y8476D02*
Y11524D01*
X118476Y10000D02*
X121524D01*
X120000Y8476D02*
Y11524D01*
X98476Y30000D02*
X101524D01*
X100000Y28476D02*
Y31524D01*
X98476Y45000D02*
X101524D01*
X100000Y43476D02*
Y46524D01*
X98476Y65000D02*
X101524D01*
X100000Y63476D02*
Y66524D01*
X98476Y85000D02*
X101524D01*
X100000Y83476D02*
Y86524D01*
X118476Y85000D02*
X121524D01*
X120000Y83476D02*
Y86524D01*
X118088Y65779D02*
X121136D01*
X119612Y64255D02*
Y67303D01*
X118476Y45000D02*
X121524D01*
X120000Y43476D02*
Y46524D01*
X118476Y25000D02*
X121524D01*
X120000Y23476D02*
Y26524D01*
X138476Y45000D02*
X141524D01*
X140000Y43476D02*
Y46524D01*
X138476Y25000D02*
X141524D01*
X140000Y23476D02*
Y26524D01*
X98476Y105000D02*
X101524D01*
X100000Y103476D02*
Y106524D01*
X98476Y125000D02*
X101524D01*
X100000Y123476D02*
Y126524D01*
X118476Y105000D02*
X121524D01*
X120000Y103476D02*
Y106524D01*
X118476Y125000D02*
X121524D01*
X120000Y123476D02*
Y126524D01*
X78726Y145250D02*
X81774D01*
X80250Y143726D02*
Y146774D01*
X78476Y165000D02*
X81524D01*
X80000Y163476D02*
Y166524D01*
X78476Y185000D02*
X81524D01*
X80000Y183476D02*
Y186524D01*
X78476Y205000D02*
X81524D01*
X80000Y203476D02*
Y206524D01*
X98476Y205000D02*
X101524D01*
X100000Y203476D02*
Y206524D01*
X78476Y225000D02*
X81524D01*
X80000Y223476D02*
Y226524D01*
X58476Y225000D02*
X61524D01*
X60000Y223476D02*
Y226524D01*
X98476Y225000D02*
X101524D01*
X100000Y223476D02*
Y226524D01*
X118476Y225000D02*
X121524D01*
X120000Y223476D02*
Y226524D01*
X118476Y205000D02*
X121524D01*
X120000Y203476D02*
Y206524D01*
X58476Y245000D02*
X61524D01*
X60000Y243476D02*
Y246524D01*
X38476Y245000D02*
X41524D01*
X40000Y243476D02*
Y246524D01*
X18476Y245000D02*
X21524D01*
X20000Y243476D02*
Y246524D01*
X78476Y245000D02*
X81524D01*
X80000Y243476D02*
Y246524D01*
X98476Y245000D02*
X101524D01*
X100000Y243476D02*
Y246524D01*
X78476Y265000D02*
X81524D01*
X80000Y263476D02*
Y266524D01*
X58476Y265000D02*
X61524D01*
X60000Y263476D02*
Y266524D01*
X518532Y296250D02*
X521580D01*
X520056Y294726D02*
Y297774D01*
X518330Y246359D02*
X521378D01*
X519854Y244835D02*
Y247883D01*
X38476Y265000D02*
X41524D01*
X40000Y263476D02*
Y266524D01*
X18714Y305089D02*
X21762D01*
X20238Y303565D02*
Y306613D01*
X18476Y325000D02*
X21524D01*
X20000Y323476D02*
Y326524D01*
X38476Y345000D02*
X41524D01*
X40000Y343476D02*
Y346524D01*
X38476Y365000D02*
X41524D01*
X40000Y363476D02*
Y366524D01*
X18476Y365000D02*
X21524D01*
X20000Y363476D02*
Y366524D01*
X18476Y385000D02*
X21524D01*
X20000Y383476D02*
Y386524D01*
X38476Y385000D02*
X41524D01*
X40000Y383476D02*
Y386524D01*
X58476Y365000D02*
X61524D01*
X60000Y363476D02*
Y366524D01*
X58476Y385000D02*
X61524D01*
X60000Y383476D02*
Y386524D01*
X188476Y225000D02*
X191524D01*
X190000Y223476D02*
Y226524D01*
X188476Y205000D02*
X191524D01*
X190000Y203476D02*
Y206524D01*
X167804Y187331D02*
X170852D01*
X169328Y185807D02*
Y188855D01*
X168476Y165000D02*
X171524D01*
X170000Y163476D02*
Y166524D01*
X188476Y165000D02*
X191524D01*
X190000Y163476D02*
Y166524D01*
X208476Y165000D02*
X211524D01*
X210000Y163476D02*
Y166524D01*
X208476Y205000D02*
X211524D01*
X210000Y203476D02*
Y206524D01*
X208476Y125000D02*
X211524D01*
X210000Y123476D02*
Y126524D01*
X228476Y125000D02*
X231524D01*
X230000Y123476D02*
Y126524D01*
X228476Y145000D02*
X231524D01*
X230000Y143476D02*
Y146524D01*
X228476Y165000D02*
X231524D01*
X230000Y163476D02*
Y166524D01*
X228476Y185000D02*
X231524D01*
X230000Y183476D02*
Y186524D01*
X248476Y165000D02*
X251524D01*
X250000Y163476D02*
Y166524D01*
X248476Y145000D02*
X251524D01*
X250000Y143476D02*
Y146524D01*
X248476Y125000D02*
X251524D01*
X250000Y123476D02*
Y126524D01*
X248476Y105000D02*
X251524D01*
X250000Y103476D02*
Y106524D01*
X228476Y105000D02*
X231524D01*
X230000Y103476D02*
Y106524D01*
X208476Y85000D02*
X211524D01*
X210000Y83476D02*
Y86524D01*
X208476Y45000D02*
X211524D01*
X210000Y43476D02*
Y46524D01*
X228476Y25000D02*
X231524D01*
X230000Y23476D02*
Y26524D01*
X208476Y25000D02*
X211524D01*
X210000Y23476D02*
Y26524D01*
X273508Y56550D02*
X276556D01*
X275032Y55026D02*
Y58074D01*
X274476Y85500D02*
X277524D01*
X276000Y83976D02*
Y87024D01*
X268476Y25000D02*
X271524D01*
X270000Y23476D02*
Y26524D01*
X58476Y165000D02*
X61524D01*
X60000Y163476D02*
Y166524D01*
X18476Y165000D02*
X21524D01*
X20000Y163476D02*
Y166524D01*
X8476Y175000D02*
X11524D01*
X10000Y173476D02*
Y176524D01*
X168976Y279250D02*
X172024D01*
X170500Y277726D02*
Y280774D01*
X133476Y173938D02*
X136524D01*
X135000Y172414D02*
Y175462D01*
X170726Y28500D02*
X173774D01*
X172250Y26976D02*
Y30024D01*
X244226Y480612D02*
X247274D01*
X245750Y479088D02*
Y482136D01*
X543583Y655000D02*
X546631D01*
X545107Y653476D02*
Y656524D01*
X561535Y653450D02*
X564583D01*
X563059Y651926D02*
Y654974D01*
X562226Y673280D02*
X565274D01*
X563750Y671756D02*
Y674804D01*
X441804Y583211D02*
X444852D01*
X443328Y581687D02*
Y584735D01*
X490121Y550211D02*
X493169D01*
X491645Y548687D02*
Y551735D01*
X535358Y539300D02*
X538406D01*
X536882Y537776D02*
Y540824D01*
X513515Y558461D02*
X516563D01*
X515039Y556937D02*
Y559985D01*
X535765Y560580D02*
X538813D01*
X537289Y559056D02*
Y562104D01*
X566198Y568238D02*
X569246D01*
X567722Y566714D02*
Y569762D01*
X542006Y674038D02*
X545054D01*
X543530Y672514D02*
Y675562D01*
X479891Y666211D02*
X482939D01*
X481415Y664687D02*
Y667735D01*
X471515Y650737D02*
X474563D01*
X473039Y649213D02*
Y652261D01*
X404095Y674211D02*
X407143D01*
X405619Y672687D02*
Y675735D01*
X382210Y642813D02*
X385258D01*
X383734Y641289D02*
Y644337D01*
X313865Y738698D02*
X316913D01*
X315389Y737174D02*
Y740222D01*
X257910Y577379D02*
X260958D01*
X259435Y575855D02*
Y578903D01*
X79078Y708395D02*
X82126D01*
X80602Y706871D02*
Y709920D01*
X111846Y717897D02*
X114894D01*
X113370Y716373D02*
Y719421D01*
X107714Y738698D02*
X110762D01*
X109238Y737174D02*
Y740222D01*
X65532Y732711D02*
X68580D01*
X67056Y731187D02*
Y734235D01*
X40536Y725961D02*
X43584D01*
X42060Y724437D02*
Y727485D01*
X48316Y747081D02*
X51364D01*
X49840Y745557D02*
Y748605D01*
X28628Y748495D02*
X31676D01*
X30152Y746971D02*
Y750019D01*
X20628Y639602D02*
X23676D01*
X22152Y638078D02*
Y641126D01*
X18515Y827589D02*
X21563D01*
X20039Y826065D02*
Y829113D01*
X459476Y10000D02*
X462524D01*
X461000Y8476D02*
Y11524D01*
X488226Y7000D02*
X491274D01*
X489750Y5476D02*
Y8524D01*
X578476Y35000D02*
X581524D01*
X580000Y33476D02*
Y36524D01*
X578476Y55000D02*
X581524D01*
X580000Y53476D02*
Y56524D01*
X423476Y359000D02*
X426524D01*
X425000Y357476D02*
Y360524D01*
X352752Y324339D02*
X355800D01*
X354276Y322815D02*
Y325863D01*
X244552Y355587D02*
X247600D01*
X246076Y354063D02*
Y357111D01*
X277476Y382343D02*
X280524D01*
X279000Y380819D02*
Y383867D01*
X246568Y386500D02*
X249616D01*
X248092Y384976D02*
Y388024D01*
X138771Y152000D02*
X141819D01*
X140295Y150476D02*
Y153524D01*
X298476Y185000D02*
X301524D01*
X300000Y183476D02*
Y186524D01*
X298476Y205000D02*
X301524D01*
X300000Y203476D02*
Y206524D01*
X318476Y185000D02*
X321524D01*
X320000Y183476D02*
Y186524D01*
X318476Y205000D02*
X321524D01*
X320000Y203476D02*
Y206524D01*
X318476Y165000D02*
X321524D01*
X320000Y163476D02*
Y166524D01*
X338476Y165000D02*
X341524D01*
X340000Y163476D02*
Y166524D01*
X338476Y145000D02*
X341524D01*
X340000Y143476D02*
Y146524D01*
X338476Y185000D02*
X341524D01*
X340000Y183476D02*
Y186524D01*
X338476Y205000D02*
X341524D01*
X340000Y203476D02*
Y206524D01*
X318476Y225000D02*
X321524D01*
X320000Y223476D02*
Y226524D01*
X293976Y228750D02*
X297024D01*
X295500Y227226D02*
Y230274D01*
X358476Y205000D02*
X361524D01*
X360000Y203476D02*
Y206524D01*
X358476Y185000D02*
X361524D01*
X360000Y183476D02*
Y186524D01*
X358476Y165000D02*
X361524D01*
X360000Y163476D02*
Y166524D01*
X358476Y145000D02*
X361524D01*
X360000Y143476D02*
Y146524D01*
X358476Y125000D02*
X361524D01*
X360000Y123476D02*
Y126524D01*
X378476Y125000D02*
X381524D01*
X380000Y123476D02*
Y126524D01*
X378476Y145000D02*
X381524D01*
X380000Y143476D02*
Y146524D01*
X378476Y165000D02*
X381524D01*
X380000Y163476D02*
Y166524D01*
X378476Y185000D02*
X381524D01*
X380000Y183476D02*
Y186524D01*
X398476Y145000D02*
X401524D01*
X400000Y143476D02*
Y146524D01*
X398476Y165000D02*
X401524D01*
X400000Y163476D02*
Y166524D01*
X398476Y185000D02*
X401524D01*
X400000Y183476D02*
Y186524D01*
X398476Y205000D02*
X401524D01*
X400000Y203476D02*
Y206524D01*
X179945Y299500D02*
X182993D01*
X181469Y297976D02*
Y301024D01*
X288476Y125000D02*
X291524D01*
X290000Y123476D02*
Y126524D01*
X362976Y348250D02*
X366024D01*
X364500Y346726D02*
Y349774D01*
X201100Y489911D02*
X204148D01*
X202624Y488387D02*
Y491435D01*
X201785Y502364D02*
X204833D01*
X203309Y500840D02*
Y503888D01*
X471263Y500172D02*
X474311D01*
X472787Y498648D02*
Y501696D01*
X305390Y594592D02*
X308438D01*
X306914Y593068D02*
Y596116D01*
X327084Y730118D02*
X330132D01*
X328608Y728594D02*
Y731642D01*
X329663Y715754D02*
X332711D01*
X331187Y714230D02*
Y717279D01*
X322666Y719366D02*
X325714D01*
X324190Y717842D02*
Y720890D01*
X347686Y297255D02*
X350734D01*
X349210Y295731D02*
Y298779D01*
X115822Y748502D02*
X118870D01*
X117346Y746977D02*
Y750025D01*
X126687Y725558D02*
X129735D01*
X128211Y724034D02*
Y727082D01*
X262673Y840975D02*
X265721D01*
X264197Y839451D02*
Y842499D01*
X627540Y520811D02*
X630588D01*
X629064Y519287D02*
Y522335D01*
X562210Y479293D02*
X565258D01*
X563734Y477769D02*
Y480817D01*
X578158Y455685D02*
X581205D01*
X579682Y454161D02*
Y457209D01*
X604543Y451000D02*
X607591D01*
X606067Y449476D02*
Y452524D01*
X594937Y409250D02*
X597985D01*
X596461Y407726D02*
Y410774D01*
X623976Y455685D02*
X627024D01*
X625500Y454161D02*
Y457209D01*
X618976Y441250D02*
X622024D01*
X620500Y439726D02*
Y442774D01*
X618649Y386892D02*
X621697D01*
X620173Y385368D02*
Y388416D01*
X594026Y387250D02*
X597074D01*
X595550Y385726D02*
Y388774D01*
X583487Y397915D02*
X586535D01*
X585011Y396391D02*
Y399439D01*
X659476Y394750D02*
X662524D01*
X661000Y393226D02*
Y396274D01*
X646388Y407750D02*
X649436D01*
X647912Y406226D02*
Y409274D01*
X646388Y392206D02*
X649436D01*
X647912Y390682D02*
Y393730D01*
X646388Y373813D02*
X649436D01*
X647912Y372289D02*
Y375337D01*
X653726Y367750D02*
X656774D01*
X655250Y366226D02*
Y369274D01*
X669226Y377500D02*
X672274D01*
X670750Y375976D02*
Y379024D01*
X653726Y527969D02*
X656774D01*
X655250Y526445D02*
Y529493D01*
X594221Y450583D02*
X597270D01*
X595746Y449059D02*
Y452107D01*
X604064Y430750D02*
X607112D01*
X605588Y429226D02*
Y432274D01*
X503608Y398500D02*
X506656D01*
X505132Y396976D02*
Y400024D01*
X522425Y368685D02*
X525473D01*
X523949Y367161D02*
Y370209D01*
X648476Y995000D02*
X651524D01*
X650000Y993476D02*
Y996524D01*
X624226Y975000D02*
X627274D01*
X625750Y973476D02*
Y976524D01*
X601010Y997418D02*
X604058D01*
X602534Y995894D02*
Y998942D01*
X608226Y975000D02*
X611274D01*
X609750Y973476D02*
Y976524D01*
X579726Y997500D02*
X582774D01*
X581250Y995976D02*
Y999024D01*
X589476Y936500D02*
X592524D01*
X591000Y934976D02*
Y938024D01*
X618726Y936500D02*
X621774D01*
X620250Y934976D02*
Y938024D01*
X648476Y1035000D02*
X651524D01*
X650000Y1033476D02*
Y1036524D01*
X648476Y835000D02*
X651524D01*
X650000Y833476D02*
Y836524D01*
X618476Y815000D02*
X621524D01*
X620000Y813476D02*
Y816524D01*
X598476Y815000D02*
X601524D01*
X600000Y813476D02*
Y816524D01*
X598476Y795000D02*
X601524D01*
X600000Y793476D02*
Y796524D01*
X598476Y775000D02*
X601524D01*
X600000Y773476D02*
Y776524D01*
X578476Y795000D02*
X581524D01*
X580000Y793476D02*
Y796524D01*
X558476Y795000D02*
X561524D01*
X560000Y793476D02*
Y796524D01*
X538476Y795000D02*
X541524D01*
X540000Y793476D02*
Y796524D01*
X548476Y845000D02*
X551524D01*
X550000Y843476D02*
Y846524D01*
X531067Y858828D02*
X534115D01*
X532591Y857304D02*
Y860352D01*
X654667Y818270D02*
X657715D01*
X656191Y816746D02*
Y819794D01*
X648476Y615000D02*
X651524D01*
X650000Y613476D02*
Y616524D01*
X648476Y595000D02*
X651524D01*
X650000Y593476D02*
Y596524D01*
X648476Y575000D02*
X651524D01*
X650000Y573476D02*
Y576524D01*
X609770Y589253D02*
X612818D01*
X611294Y587729D02*
Y590777D01*
X492845Y698426D02*
X495893D01*
X494369Y696902D02*
Y699950D01*
X488476Y745000D02*
X491524D01*
X490000Y743476D02*
Y746524D01*
X488476Y765000D02*
X491524D01*
X490000Y763476D02*
Y766524D01*
X468476Y765000D02*
X471524D01*
X470000Y763476D02*
Y766524D01*
X468476Y745000D02*
X471524D01*
X470000Y743476D02*
Y746524D01*
X448476Y745000D02*
X451524D01*
X450000Y743476D02*
Y746524D01*
X448476Y765000D02*
X451524D01*
X450000Y763476D02*
Y766524D01*
X468476Y785000D02*
X471524D01*
X470000Y783476D02*
Y786524D01*
X488476Y785000D02*
X491524D01*
X490000Y783476D02*
Y786524D01*
X508476Y775000D02*
X511524D01*
X510000Y773476D02*
Y776524D01*
X476466Y822790D02*
X479514D01*
X477990Y821266D02*
Y824314D01*
X493426Y839768D02*
X496474D01*
X494950Y838244D02*
Y841292D01*
X638476Y624500D02*
X641524D01*
X640000Y622976D02*
Y626024D01*
X510976Y961250D02*
X514024D01*
X512500Y959726D02*
Y962774D01*
X516437Y947301D02*
X519485D01*
X517961Y945777D02*
Y948825D01*
X522476Y484000D02*
X525524D01*
X524000Y482476D02*
Y485524D01*
X590867Y533244D02*
X593915D01*
X592391Y531720D02*
Y534768D01*
X602297Y535508D02*
X605345D01*
X603821Y533984D02*
Y537032D01*
X578158Y550851D02*
X581205D01*
X579682Y549327D02*
Y552375D01*
X583812Y536741D02*
X586860D01*
X585336Y535217D02*
Y538265D01*
X576986Y532817D02*
X580034D01*
X578510Y531293D02*
Y534341D01*
X283226Y733750D02*
X286274D01*
X284750Y732226D02*
Y735274D01*
X276688Y707186D02*
X279736D01*
X278212Y705662D02*
Y708710D01*
X276688Y724654D02*
X279736D01*
X278212Y723130D02*
Y726178D01*
X271476Y350088D02*
X274524D01*
X273000Y348564D02*
Y351612D01*
X271476Y371500D02*
X274524D01*
X273000Y369976D02*
Y373024D01*
X366765Y730605D02*
X369813D01*
X368289Y729081D02*
Y732129D01*
X372650Y717480D02*
X375698D01*
X374174Y715956D02*
Y719004D01*
X346937Y711542D02*
X349985D01*
X348461Y710018D02*
Y713066D01*
X392876Y505610D02*
X395924D01*
X394400Y504086D02*
Y507133D01*
X303836Y558587D02*
X306884D01*
X305360Y557063D02*
Y560111D01*
X225398Y519769D02*
X228446D01*
X226922Y518245D02*
Y521293D01*
X234398Y526215D02*
X237446D01*
X235921Y524691D02*
Y527739D01*
X189863Y519928D02*
X192911D01*
X191387Y518404D02*
Y521452D01*
X226726Y601190D02*
X229774D01*
X228250Y599666D02*
Y602714D01*
X521726Y349673D02*
X524774D01*
X523250Y348149D02*
Y351197D01*
X408976Y544558D02*
X412024D01*
X410500Y543034D02*
Y546082D01*
X393971Y544750D02*
X397019D01*
X395495Y543226D02*
Y546274D01*
X385126Y552082D02*
X388174D01*
X386650Y550558D02*
Y553606D01*
X382614Y541160D02*
X385662D01*
X384138Y539636D02*
Y542684D01*
X366205Y523643D02*
X369253D01*
X367729Y522119D02*
Y525168D01*
X381476Y502364D02*
X384524D01*
X383000Y500840D02*
Y503888D01*
X352501Y566417D02*
X355550D01*
X354025Y564893D02*
Y567941D01*
X346441Y524185D02*
X349490D01*
X347966Y522661D02*
Y525709D01*
X288659Y532884D02*
X291707D01*
X290183Y531360D02*
Y534408D01*
X337364Y499261D02*
X340412D01*
X338888Y497737D02*
Y500785D01*
X240512Y566899D02*
X243560D01*
X242036Y565375D02*
Y568423D01*
X346736Y533455D02*
X349784D01*
X348260Y531931D02*
Y534979D01*
X335814Y532500D02*
X338862D01*
X337338Y530976D02*
Y534024D01*
X291744Y579254D02*
X294792D01*
X293269Y577729D02*
Y580778D01*
X283073Y583791D02*
X286121D01*
X284597Y582267D02*
Y585315D01*
X288226Y524185D02*
X291274D01*
X289750Y522661D02*
Y525709D01*
X482794Y622500D02*
X485842D01*
X484318Y620976D02*
Y624024D01*
X441765Y622211D02*
X444813D01*
X443289Y620687D02*
Y623735D01*
X217302Y519866D02*
X220350D01*
X218826Y518342D02*
Y521390D01*
X217508Y565561D02*
X220556D01*
X219032Y564037D02*
Y567085D01*
X156898Y654617D02*
X159946D01*
X158422Y653093D02*
Y656141D01*
X378476Y225000D02*
X381524D01*
X380000Y223476D02*
Y226524D01*
X398976Y245378D02*
X402024D01*
X400500Y243854D02*
Y246902D01*
X378476Y265000D02*
X381524D01*
X380000Y263476D02*
Y266524D01*
X347453Y261448D02*
X350501D01*
X348977Y259924D02*
Y262972D01*
X271226Y122000D02*
X274274D01*
X272750Y120476D02*
Y123524D01*
X271226Y142500D02*
X274274D01*
X272750Y140976D02*
Y144024D01*
X267476Y103750D02*
X270524D01*
X269000Y102226D02*
Y105274D01*
X418476Y185000D02*
X421524D01*
X420000Y183476D02*
Y186524D01*
X418476Y165000D02*
X421524D01*
X420000Y163476D02*
Y166524D01*
X438476Y185000D02*
X441524D01*
X440000Y183476D02*
Y186524D01*
X448476Y205000D02*
X451524D01*
X450000Y203476D02*
Y206524D01*
X515226Y184000D02*
X518274D01*
X516750Y182476D02*
Y185524D01*
X530726Y195250D02*
X533774D01*
X532250Y193726D02*
Y196774D01*
X521476Y159000D02*
X524524D01*
X523000Y157476D02*
Y160524D01*
X255976Y281250D02*
X259024D01*
X257500Y279726D02*
Y282774D01*
X322976Y301250D02*
X326024D01*
X324500Y299726D02*
Y302774D01*
X321476Y320250D02*
X324524D01*
X323000Y318726D02*
Y321774D01*
X312976Y344750D02*
X316024D01*
X314500Y343226D02*
Y346274D01*
X332726Y358000D02*
X335774D01*
X334250Y356476D02*
Y359524D01*
X298476Y455000D02*
X301524D01*
X300000Y453476D02*
Y456524D01*
X298476Y475000D02*
X301524D01*
X300000Y473476D02*
Y476524D01*
X278476Y475000D02*
X281524D01*
X280000Y473476D02*
Y476524D01*
X278476Y495000D02*
X281524D01*
X280000Y493476D02*
Y496524D01*
X298476Y495000D02*
X301524D01*
X300000Y493476D02*
Y496524D01*
X318476Y495000D02*
X321524D01*
X320000Y493476D02*
Y496524D01*
X318476Y475000D02*
X321524D01*
X320000Y473476D02*
Y476524D01*
X338476Y485000D02*
X341524D01*
X340000Y483476D02*
Y486524D01*
X358476Y475000D02*
X361524D01*
X360000Y473476D02*
Y476524D01*
X358476Y495000D02*
X361524D01*
X360000Y493476D02*
Y496524D01*
X378476Y495000D02*
X381524D01*
X380000Y493476D02*
Y496524D01*
X378476Y475000D02*
X381524D01*
X380000Y473476D02*
Y476524D01*
X378476Y455000D02*
X381524D01*
X380000Y453476D02*
Y456524D01*
X288476Y445000D02*
X291524D01*
X290000Y443476D02*
Y446524D01*
X288476Y415000D02*
X291524D01*
X290000Y413476D02*
Y416524D01*
X408476Y10000D02*
X411524D01*
X410000Y8476D02*
Y11524D01*
X408476Y35000D02*
X411524D01*
X410000Y33476D02*
Y36524D01*
X408476Y60000D02*
X411524D01*
X410000Y58476D02*
Y61524D01*
X578476Y75000D02*
X581524D01*
X580000Y73476D02*
Y76524D01*
X577758Y92500D02*
X580806D01*
X579282Y90976D02*
Y94024D01*
X579476Y118500D02*
X582524D01*
X581000Y116976D02*
Y120024D01*
X518476Y35000D02*
X521524D01*
X520000Y33476D02*
Y36524D01*
X518476Y15000D02*
X521524D01*
X520000Y13476D02*
Y16524D01*
X558476Y135000D02*
X561524D01*
X560000Y133476D02*
Y136524D01*
X578476Y135000D02*
X581524D01*
X580000Y133476D02*
Y136524D01*
X558476Y155000D02*
X561524D01*
X560000Y153476D02*
Y156524D01*
X578476Y155000D02*
X581524D01*
X580000Y153476D02*
Y156524D01*
X598476Y155000D02*
X601524D01*
X600000Y153476D02*
Y156524D01*
X598476Y175000D02*
X601524D01*
X600000Y173476D02*
Y176524D01*
X578476Y175000D02*
X581524D01*
X580000Y173476D02*
Y176524D01*
X558476Y175000D02*
X561524D01*
X560000Y173476D02*
Y176524D01*
X578476Y195000D02*
X581524D01*
X580000Y193476D02*
Y196524D01*
X598476Y195000D02*
X601524D01*
X600000Y193476D02*
Y196524D01*
X598476Y215000D02*
X601524D01*
X600000Y213476D02*
Y216524D01*
X578476Y215000D02*
X581524D01*
X580000Y213476D02*
Y216524D01*
X578476Y235000D02*
X581524D01*
X580000Y233476D02*
Y236524D01*
X558476Y235000D02*
X561524D01*
X560000Y233476D02*
Y236524D01*
X598476Y235000D02*
X601524D01*
X600000Y233476D02*
Y236524D01*
X618476Y235000D02*
X621524D01*
X620000Y233476D02*
Y236524D01*
X638476Y235000D02*
X641524D01*
X640000Y233476D02*
Y236524D01*
X638476Y255000D02*
X641524D01*
X640000Y253476D02*
Y256524D01*
X618476Y255000D02*
X621524D01*
X620000Y253476D02*
Y256524D01*
X598476Y255000D02*
X601524D01*
X600000Y253476D02*
Y256524D01*
X578476Y255000D02*
X581524D01*
X580000Y253476D02*
Y256524D01*
X558476Y255000D02*
X561524D01*
X560000Y253476D02*
Y256524D01*
X558476Y275000D02*
X561524D01*
X560000Y273476D02*
Y276524D01*
X618476Y275000D02*
X621524D01*
X620000Y273476D02*
Y276524D01*
X638476Y275000D02*
X641524D01*
X640000Y273476D02*
Y276524D01*
X658476Y275000D02*
X661524D01*
X660000Y273476D02*
Y276524D01*
X658476Y255000D02*
X661524D01*
X660000Y253476D02*
Y256524D01*
X658476Y235000D02*
X661524D01*
X660000Y233476D02*
Y236524D01*
X658476Y295000D02*
X661524D01*
X660000Y293476D02*
Y296524D01*
X658476Y315000D02*
X661524D01*
X660000Y313476D02*
Y316524D01*
X658476Y335000D02*
X661524D01*
X660000Y333476D02*
Y336524D01*
X638476Y335000D02*
X641524D01*
X640000Y333476D02*
Y336524D01*
X618476Y335000D02*
X621524D01*
X620000Y333476D02*
Y336524D01*
X618476Y315000D02*
X621524D01*
X620000Y313476D02*
Y316524D01*
X618476Y160000D02*
X621524D01*
X620000Y158476D02*
Y161524D01*
X418476Y500500D02*
X421524D01*
X420000Y498976D02*
Y502024D01*
X441726Y500500D02*
X444774D01*
X443250Y498976D02*
Y502024D01*
X444226Y462500D02*
X447274D01*
X445750Y460976D02*
Y464024D01*
X426609Y398763D02*
X429657D01*
X428133Y397239D02*
Y400287D01*
X382726Y395000D02*
X385774D01*
X384250Y393476D02*
Y396524D01*
X360226Y293000D02*
X363274D01*
X361750Y291476D02*
Y294524D01*
X413226Y556250D02*
X416274D01*
X414750Y554726D02*
Y557774D01*
X441726Y556500D02*
X444774D01*
X443250Y554976D02*
Y558024D01*
X427976Y545500D02*
X431024D01*
X429500Y543976D02*
Y547024D01*
X364226Y535563D02*
X367274D01*
X365750Y534039D02*
Y537087D01*
X365300Y553209D02*
X368348D01*
X366824Y551684D02*
Y554733D01*
X275491Y575290D02*
X278539D01*
X277015Y573766D02*
Y576814D01*
X242501Y604366D02*
X245549D01*
X244025Y602841D02*
Y605890D01*
X238976Y533250D02*
X242024D01*
X240500Y531726D02*
Y534774D01*
X274476Y533250D02*
X277524D01*
X276000Y531726D02*
Y534774D01*
X214226Y499000D02*
X217274D01*
X215750Y497476D02*
Y500524D01*
X225336Y486863D02*
X228384D01*
X226861Y485339D02*
Y488387D01*
X256226Y499000D02*
X259274D01*
X257750Y497476D02*
Y500524D01*
X255726Y466000D02*
X258774D01*
X257250Y464476D02*
Y467524D01*
X178699Y632762D02*
X181747D01*
X180223Y631238D02*
Y634286D01*
X266699Y600759D02*
X269747D01*
X268223Y599235D02*
Y602283D01*
X274748Y600516D02*
X277796D01*
X276272Y598992D02*
Y602040D01*
X516976Y933074D02*
X520024D01*
X518500Y931550D02*
Y934598D01*
X529476Y946750D02*
X532524D01*
X531000Y945226D02*
Y948274D01*
X487726Y955250D02*
X490774D01*
X489250Y953726D02*
Y956774D01*
X466976Y944750D02*
X470024D01*
X468500Y943226D02*
Y946274D01*
X538726Y818750D02*
X541774D01*
X540250Y817226D02*
Y820274D01*
X521226Y820500D02*
X524274D01*
X522750Y818976D02*
Y822024D01*
X512476Y803250D02*
X515524D01*
X514000Y801726D02*
Y804774D01*
X492226Y808000D02*
X495274D01*
X493750Y806476D02*
Y809524D01*
X591701Y291500D02*
X594749D01*
X593225Y289976D02*
Y293024D01*
X574908Y317306D02*
X577956D01*
X576432Y315782D02*
Y318830D01*
X594957Y350043D02*
X598005D01*
X596481Y348519D02*
Y351567D01*
X611128Y370412D02*
X614176D01*
X612652Y368888D02*
Y371936D01*
X571976Y365000D02*
X575024D01*
X573500Y363476D02*
Y366524D01*
X567763Y382750D02*
X570811D01*
X569287Y381226D02*
Y384274D01*
X552015Y408543D02*
X555063D01*
X553539Y407019D02*
Y410067D01*
X571438Y408543D02*
X574487D01*
X572962Y407019D02*
Y410067D01*
X571438Y424750D02*
X574487D01*
X572962Y423226D02*
Y426274D01*
X568156Y441793D02*
X571204D01*
X569680Y440269D02*
Y443317D01*
X593458Y365000D02*
X596506D01*
X594982Y363476D02*
Y366524D01*
X278270Y839417D02*
X281318D01*
X279794Y837893D02*
Y840941D01*
X268927Y827000D02*
X271975D01*
X270451Y825476D02*
Y828524D01*
X275699Y832000D02*
X278747D01*
X277223Y830476D02*
Y833524D01*
X398476Y225263D02*
X401524D01*
X400000Y223739D02*
Y226787D01*
X405578Y218000D02*
X408626D01*
X407102Y216476D02*
Y219524D01*
X448828Y225263D02*
X451876D01*
X450352Y223739D02*
Y226787D01*
X441525Y218000D02*
X444573D01*
X443049Y216476D02*
Y219524D01*
X447976Y245432D02*
X451024D01*
X449500Y243908D02*
Y246956D01*
X438275Y261024D02*
X441323D01*
X439799Y259500D02*
Y262548D01*
X408886Y261024D02*
X411934D01*
X410410Y259500D02*
Y262548D01*
X423476Y205000D02*
X426524D01*
X425000Y203476D02*
Y206524D01*
X430896Y212013D02*
X433944D01*
X432420Y210489D02*
Y213537D01*
X416226Y212013D02*
X419274D01*
X417750Y210489D02*
Y213537D01*
X448476Y235000D02*
X451524D01*
X450000Y233476D02*
Y236524D01*
X448476Y258020D02*
X451524D01*
X450000Y256496D02*
Y259544D01*
X398976Y258250D02*
X402024D01*
X400500Y256726D02*
Y259774D01*
X422976Y261024D02*
X426024D01*
X424500Y259500D02*
Y262548D01*
X398476Y235000D02*
X401524D01*
X400000Y233476D02*
Y236524D01*
X322927Y234836D02*
X325975D01*
X324451Y233312D02*
Y236360D01*
X323427Y258086D02*
X326475D01*
X324951Y256562D02*
Y259610D01*
X372927Y257856D02*
X375975D01*
X374451Y256332D02*
Y259380D01*
X372927Y234836D02*
X375975D01*
X374451Y233312D02*
Y236360D01*
X333337Y260860D02*
X336385D01*
X334861Y259336D02*
Y262384D01*
X362726Y260860D02*
X365774D01*
X364250Y259336D02*
Y262384D01*
X372427Y245268D02*
X375475D01*
X373951Y243744D02*
Y246792D01*
X323427Y245214D02*
X326475D01*
X324951Y243690D02*
Y246738D01*
X273508Y261092D02*
X276556D01*
X275032Y259568D02*
Y262616D01*
X299008Y258088D02*
X302056D01*
X300532Y256564D02*
Y259612D01*
X299008Y235068D02*
X302056D01*
X300532Y233544D02*
Y236592D01*
X259419Y261092D02*
X262467D01*
X260943Y259568D02*
Y262616D01*
X288807Y261092D02*
X291855D01*
X290331Y259568D02*
Y262616D01*
X298508Y245500D02*
X301556D01*
X300032Y243976D02*
Y247024D01*
X249508Y258318D02*
X252556D01*
X251032Y256794D02*
Y259842D01*
X238559Y295750D02*
X241607D01*
X240083Y294226D02*
Y297274D01*
X262726Y229250D02*
X265774D01*
X264250Y227726D02*
Y230774D01*
X239614Y226851D02*
X242662D01*
X241138Y225327D02*
Y228375D01*
X249226Y238250D02*
X252274D01*
X250750Y236726D02*
Y239774D01*
X248941Y247750D02*
X251989D01*
X250465Y246226D02*
Y249274D01*
X284328Y229351D02*
X287376D01*
X285852Y227827D02*
Y230875D01*
X273508Y219000D02*
X276556D01*
X275032Y217476D02*
Y220524D01*
X338077Y229351D02*
X341125D01*
X339601Y227827D02*
Y230875D01*
X357513Y229570D02*
X360561D01*
X359037Y228046D02*
Y231094D01*
X347976Y220750D02*
X351024D01*
X349500Y219226D02*
Y222274D01*
X356732Y221250D02*
X359780D01*
X358256Y219726D02*
Y222774D01*
X339584Y220989D02*
X342632D01*
X341108Y219465D02*
Y222513D01*
X231620Y261448D02*
X234668D01*
X233144Y259924D02*
Y262972D01*
X281016Y206500D02*
X284064D01*
X282540Y204976D02*
Y208024D01*
X296374Y274749D02*
X299422D01*
X297898Y273225D02*
Y276273D01*
X444668Y480000D02*
X447716D01*
X446192Y478476D02*
Y481524D01*
X537350Y740000D02*
X540398D01*
X538874Y738476D02*
Y741524D01*
X612638Y659250D02*
X615686D01*
X614162Y657726D02*
Y660774D01*
X563329Y605667D02*
X566377D01*
X564853Y604143D02*
Y607191D01*
X643476Y645000D02*
X646524D01*
X645000Y643476D02*
Y646524D01*
X632352Y499250D02*
X635400D01*
X633876Y497726D02*
Y500774D01*
X589603Y576711D02*
X592651D01*
X591127Y575187D02*
Y578235D01*
X605476Y550851D02*
X608524D01*
X607000Y549327D02*
Y552375D01*
X616594Y634466D02*
X619642D01*
X618118Y632942D02*
Y635990D01*
X616726Y642250D02*
X619774D01*
X618250Y640726D02*
Y643774D01*
X616594Y650000D02*
X619642D01*
X618118Y648476D02*
Y651524D01*
X628476Y575000D02*
X631524D01*
X630000Y573476D02*
Y576524D01*
X628596Y595000D02*
X631644D01*
X630120Y593476D02*
Y596524D01*
X616170Y614802D02*
X619218D01*
X617694Y613278D02*
Y616326D01*
X616100Y623250D02*
X619148D01*
X617624Y621726D02*
Y624774D01*
X118476Y245000D02*
X121524D01*
X120000Y243476D02*
Y246524D01*
X134857Y245000D02*
X137905D01*
X136381Y243476D02*
Y246524D01*
X168476Y245000D02*
X171524D01*
X170000Y243476D02*
Y246524D01*
X168476Y265168D02*
X171524D01*
X170000Y263644D02*
Y266692D01*
X168476Y229570D02*
X171524D01*
X170000Y228046D02*
Y231094D01*
X208476Y61250D02*
X211524D01*
X210000Y59726D02*
Y62774D01*
X178976Y105554D02*
X182024D01*
X180500Y104030D02*
Y107078D01*
X522606Y119500D02*
X525653D01*
X524129Y117976D02*
Y121024D01*
X460726Y175500D02*
X463774D01*
X462250Y173976D02*
Y177024D01*
X438476Y165000D02*
X441524D01*
X440000Y163476D02*
Y166524D01*
X467476Y27250D02*
X470524D01*
X469000Y25726D02*
Y28774D01*
X264104Y56550D02*
X267152D01*
X265628Y55026D02*
Y58074D01*
X231620Y48500D02*
X234668D01*
X233144Y46976D02*
Y50024D01*
X231263Y56550D02*
X234311D01*
X232787Y55026D02*
Y58074D01*
X234015Y85500D02*
X237063D01*
X235539Y83976D02*
Y87024D01*
X262476Y85500D02*
X265524D01*
X264000Y83976D02*
Y87024D01*
X232447Y65107D02*
X235495D01*
X233971Y63583D02*
Y66631D01*
X226309Y70000D02*
X229357D01*
X227833Y68476D02*
Y71524D01*
X265032Y77815D02*
X268080D01*
X266556Y76291D02*
Y79339D01*
X264287Y70000D02*
X267335D01*
X265811Y68476D02*
Y71524D01*
X268243Y63220D02*
X271291D01*
X269767Y61696D02*
Y64744D01*
X408476Y85000D02*
X411524D01*
X410000Y83476D02*
Y86524D01*
X563476Y100000D02*
X566524D01*
X565000Y98476D02*
Y101524D01*
X496476Y33000D02*
X499524D01*
X498000Y31476D02*
Y34524D01*
X453726Y142500D02*
X456774D01*
X455250Y140976D02*
Y144024D01*
X265726Y48500D02*
X268774D01*
X267250Y46976D02*
Y50024D01*
X310226Y801000D02*
X313274D01*
X311750Y799476D02*
Y802524D01*
X342726Y115000D02*
X345774D01*
X344250Y113476D02*
Y116524D01*
X330976Y133496D02*
X334024D01*
X332500Y131972D02*
Y135020D01*
X213476Y328685D02*
X216524D01*
X215000Y327161D02*
Y330209D01*
X213226Y251833D02*
X216274D01*
X214750Y250310D02*
Y253358D01*
X213462Y275000D02*
X216510D01*
X214986Y273476D02*
Y276524D01*
X213476Y301000D02*
X216524D01*
X215000Y299476D02*
Y302524D01*
X213476Y353570D02*
X216524D01*
X215000Y352046D02*
Y355094D01*
X184136Y486854D02*
X187184D01*
X185660Y485330D02*
Y488378D01*
X220037Y663781D02*
X223085D01*
X221561Y662257D02*
Y665305D01*
X219507Y672041D02*
X222555D01*
X221031Y670517D02*
Y673565D01*
X175011Y507026D02*
X178059D01*
X176535Y505502D02*
Y508550D01*
X166772Y494735D02*
X169820D01*
X168296Y493211D02*
Y496259D01*
X121578Y465543D02*
X124626D01*
X123102Y464019D02*
Y467067D01*
X131866Y480918D02*
X134914D01*
X133390Y479394D02*
Y482442D01*
X145863Y480500D02*
X148911D01*
X147387Y478976D02*
Y482024D01*
X145576Y342000D02*
X148624D01*
X147100Y340476D02*
Y343524D01*
X145765Y413779D02*
X148813D01*
X147289Y412255D02*
Y415303D01*
X145726Y444169D02*
X148774D01*
X147250Y442645D02*
Y445693D01*
X165933Y336270D02*
X168981D01*
X167457Y334746D02*
Y337794D01*
X267812Y636042D02*
X270860D01*
X269335Y634518D02*
Y637566D01*
X273238Y672499D02*
X276286D01*
X274762Y670975D02*
Y674023D01*
X250589Y630528D02*
X253637D01*
X252113Y629004D02*
Y632052D01*
X260002Y637250D02*
X263050D01*
X261526Y635726D02*
Y638774D01*
X597190Y690469D02*
X600238D01*
X598714Y688945D02*
Y691993D01*
X596726Y729649D02*
X599774D01*
X598250Y728125D02*
Y731173D01*
X563329Y692227D02*
X566377D01*
X564853Y690703D02*
Y693751D01*
X570715Y692227D02*
X573763D01*
X572239Y690703D02*
Y693751D01*
X563168Y685250D02*
X566216D01*
X564692Y683726D02*
Y686774D01*
X570783Y685250D02*
X573831D01*
X572307Y683726D02*
Y686774D01*
X92465Y590246D02*
X95513D01*
X93989Y588722D02*
Y591770D01*
X191226Y801000D02*
X194274D01*
X192750Y799476D02*
Y802524D01*
X207804Y813123D02*
X210852D01*
X209328Y811599D02*
Y814647D01*
X198699Y812029D02*
X201747D01*
X200223Y810505D02*
Y813553D01*
X152726Y840750D02*
X155774D01*
X154250Y839226D02*
Y842274D01*
X144232Y840750D02*
X147280D01*
X145756Y839226D02*
Y842274D01*
X31015Y652577D02*
X34063D01*
X32539Y651053D02*
Y654101D01*
X32976Y639369D02*
X36024D01*
X34500Y637845D02*
Y640893D01*
X398759Y641938D02*
X401807D01*
X400283Y640414D02*
Y643462D01*
X404726Y621691D02*
X407774D01*
X406250Y620167D02*
Y623215D01*
X179691Y346245D02*
X182739D01*
X181215Y344721D02*
Y347769D01*
X430476Y515396D02*
X433524D01*
X432000Y513871D02*
Y516920D01*
X500154Y307543D02*
X503202D01*
X501678Y306019D02*
Y309067D01*
X342726Y102500D02*
X345774D01*
X344250Y100976D02*
Y104024D01*
X384276Y69603D02*
X387324D01*
X385800Y68079D02*
Y71127D01*
X383476Y40000D02*
X386524D01*
X385000Y38476D02*
Y41524D01*
X348226Y80000D02*
X351274D01*
X349750Y78476D02*
Y81524D01*
X319476Y72250D02*
X322524D01*
X321000Y70726D02*
Y73774D01*
X288476Y30000D02*
X291524D01*
X290000Y28476D02*
Y31524D01*
X288476Y50000D02*
X291524D01*
X290000Y48476D02*
Y51524D01*
X383476Y15000D02*
X386524D01*
X385000Y13476D02*
Y16524D01*
X288476Y15000D02*
X291524D01*
X290000Y13476D02*
Y16524D01*
X375976Y76250D02*
X379024D01*
X377500Y74726D02*
Y77774D01*
X384276Y60750D02*
X387324D01*
X385800Y59226D02*
Y62274D01*
X375976Y54953D02*
X379024D01*
X377500Y53429D02*
Y56477D01*
X322726Y100250D02*
X325774D01*
X324250Y98726D02*
Y101774D01*
X346413Y33656D02*
X349462D01*
X347938Y32132D02*
Y35180D01*
X351976Y47750D02*
X355024D01*
X353500Y46226D02*
Y49274D01*
X351976Y40156D02*
X355024D01*
X353500Y38631D02*
Y41680D01*
X306488Y87750D02*
X309536D01*
X308012Y86226D02*
Y89274D01*
X314000Y87750D02*
X317048D01*
X315524Y86226D02*
Y89274D01*
X298976Y87750D02*
X302024D01*
X300500Y86226D02*
Y89274D01*
X295150Y79953D02*
X298198D01*
X296674Y78429D02*
Y81477D01*
X294416Y55708D02*
X297464D01*
X295940Y54184D02*
Y57232D01*
X308476Y110000D02*
X311524D01*
X310000Y108476D02*
Y111524D01*
X288476Y110000D02*
X291524D01*
X290000Y108476D02*
Y111524D01*
X358476Y110000D02*
X361524D01*
X360000Y108476D02*
Y111524D01*
M02*
