M48
;Layer_Color=9474304
;FILE_FORMAT=4:4
METRIC,LZ
;TYPE=PLATED
T1F00S00C0.3048
T2F00S00C0.7000
T4F00S00C1.0000
T5F00S00C1.2000
;TYPE=NON_PLATED
T6F00S00C1.0000
T7F00S00C1.0200
T8F00S00C3.7000
%
T01
X0055275Y0000775
X0058Y00035
Y00055
Y00075
X00579282Y000925
X00565Y001
X00581Y001185
X0058Y00135
X0056
Y00155
X0058
X006
X0062Y0016
X0055075Y00070619
X0053225Y0003375
X0052Y00035
Y00015
X0048975Y000075
X0048Y0002375
X00469Y0002725
X00460835
X00453Y00024203
X00461Y0001
X0044Y0000775
X0042Y000075
X0039975
X003795Y0000775
X00385Y0004
X003858Y0006075
Y00069603
X003775Y0007625
Y00054953
X0034875Y00055708
X003535Y0004775
Y00040156
X00347938Y00033656
X00316Y0003225
X0029Y0003
Y00015
X0027Y0001
Y00025
X0026725Y000485
X00265628Y0005655
X00275032
X00269767Y0006322
X00265811Y0007
X00266556Y00077815
X00264Y000855
X00235539
X00233971Y00065107
X00232787Y0005655
X00233144Y000485
X0021Y00045
X001979Y0004575
X001721
X001598
X0017225Y000285
X0015225Y0000825
X00195Y0001
X0021
Y00025
X0023
Y0001
X0025
X00288173Y00047
X002889Y00070835
X00298426
X00308168
X0032725Y000595
X0033525
X00350174Y00078436
X0034Y00097855
X00347411Y00121733
X0036125
X00376269Y00123221
X00375651Y00142758
X00361647Y00152656
X0035475Y00147873
Y00138898
X00339564Y00155886
X0030555Y00149945
X00304887Y00121733
X0030125Y001005
X00274445Y00108072
Y00127155
Y00145156
X002565Y0014825
X002373Y00144645
X0023925Y0016025
X00221
X0021475Y00139
X0021Y00125
X001979Y0013125
X0018
X00160961Y0013175
X0016025Y0010357
X001471
X00172Y0011275
X001805Y00105554
X001979Y0010357
X0021Y00085
X0021Y0006125
X00227833Y0007
X0023Y00105
X00249963Y00104183
X002555Y0012575
X00228964Y0012475
X0019625Y00165
X0017
X002735Y0016625
X0039875Y001715
X00402Y00154
X004005Y001355
X004Y0011375
X0037875Y0009975
X0041Y00085
Y0006
Y00035
X0046291Y00048203
X00481831Y00042518
X00498Y00033
X005075Y00056887
X00504799Y00096232
X005125Y00112
X00519093Y00114464
X00524129Y001195
X00533883Y0012925
X00515556Y00132156
X00523Y00159
X0046225Y001625
X0046429Y00169
X0044Y00165
X0042
X0042325Y00137
X00456161Y00141589
X00452307Y0012025
X00447126Y00114464
X00458955Y0010375
X00462691Y00096501
X00475016Y00127155
X00475Y00135
X004425Y00070092
X0013335Y00074953
X0012625Y0006025
X00119612Y00065779
X0012Y00085
X001
Y00065
Y00045
Y0003
X0012Y00025
Y00045
X0014
Y00025
X001355Y0000825
X0011525Y000075
X0012Y00105
X001
Y00125
X0012
X0013831Y00124913
Y00152
X0013Y0016
X00102935Y0016018
X00108019Y001715
X0008Y00165
X0008025Y0014525
X0006Y00165
X0002
X001385Y00098
X00135Y00173938
X0012875Y00189159
X0012Y00205
X001
Y00225
X0012
X00135517Y00215402
Y00252055
X00120253Y00254403
X0011252Y00261805
X00105Y00271031
X0011975Y00279305
X00119925Y00287016
X00094445Y00290584
X00096461Y00309305
X0008Y003
X00069337Y00311421
X00069443Y0033325
X0008333Y00322305
X00055273
X00035Y0032
X0002Y00325
X00020238Y00305089
X000075Y00315
Y00295
Y00275
Y00255
Y00235
Y00215
X00035Y0023
X0004Y00245
X0002
X0002573Y00277555
X0004Y00265
X00056009Y00266204
X00069475Y00255773
X0006Y00245
Y00225
X0008
Y0024
X00095Y0025
X00083166Y00266423
X00069337Y00277062
X0006Y0029
X00039491Y002975
X0003525Y0036225
X00025715Y0035525
X0002Y00365
X0002Y00385
X0004
X00049794Y00381312
X00057487
X0006Y00365
X00084382Y00353606
X00090564Y00374135
X0011325Y0036075
X00127468Y00362207
X00135776Y00364567
X00130056Y00339183
X00130648Y00315026
X00122816Y00314805
X00121128Y00322798
X00113582Y00323858
X00107717Y003305
X00138799Y00307652
X00137781Y00299461
X00127468Y00396973
X00114081Y00396261
X00114015Y004215
X00113582Y00444422
X00127715Y00446906
X0013225Y0042925
Y004145
X0013975Y00422
X00139754Y00475254
X00133703Y00481305
X0012575Y00494039
X00125Y00509922
X00126081Y00523892
X00121846Y00551319
X00115411Y00555857
X00097Y0056
X00086
X00075
X00064211
X00056009Y00560886
X00042039Y0056025
Y0056875
X00034301Y005325
X000375Y00521671
X0003825Y00511
X0003575Y0050325
X00056611Y00503862
X00056009Y00511746
X00055491Y0051962
X00069461Y00515697
Y00523684
X00083509Y00521415
X00080461Y00514139
X00079603Y00503154
X00071993Y0050017
X00068793Y00507851
X00073293Y0048825
X00088015Y0048
X0009Y00497693
X00102806Y00490967
X001Y00512453
X00107Y0046972
X00114904Y00469644
X00105Y00455674
X00084308Y00446048
X00085Y00425871
X00084631Y00415244
Y00405
X00062141Y00406726
X000615Y00426078
X00056406Y00454738
X00060674Y00471155
X0003875Y00477883
X00023407Y00486483
X000075Y00495
Y00475
Y004525
X00017166Y004465
X000075Y00435
Y00415
Y00395
Y00375
Y00355
Y00335
X0003825Y00404694
X00031941Y00431785
X00024476
X0003Y00455
X00041821Y00444011
X00027Y0052475
X0001975Y0053125
X00012Y0052475
X000075Y00515
X0001Y00175
X0008Y00185
Y00205
X0015875Y0021575
X001745Y002205
X00196942Y00222482
X00196875Y00239893
Y002565
X00196942Y0027486
X00215329Y00275
X0021524Y00251696
X0021575Y00238199
X0021524Y00220904
X00215329Y00200018
X00215Y00180555
X00237Y0017675
X00238333Y0019075
X002405Y001995
X00239131Y00210914
X00247213Y0021675
X00255755
X0027775Y00215063
X0028675Y0022418
X0029525Y00223
X003015Y00233754
X00305591Y00244673
X0031275Y0023975
X00323136Y0024775
X003325Y00253
X003425Y00244673
X00350444
X0036275Y0024325
X00369487Y0024857
X003818Y00256041
X00359342Y0026125
X00365Y0028
Y003
Y0032
Y0034
Y0036
X0037Y0037
Y00385
X00385
Y0037
X004
Y00385
X0040275Y00399611
X00394558Y00404264
X00394187Y00412415
X0038475Y0041525
X0037275Y00412415
X00366824Y00404102
X0035575Y00396189
X0034Y00392612
X00321476Y00398018
X00325Y0038
Y0036
Y0034
Y0032
Y003
Y0028
X00313642Y00263766
X00294884Y00265362
X00286961Y00265293
X00285Y0028
Y003
Y0032
Y0034
Y0036
Y0038
X003Y0039
Y00405
X00308018Y00411476
X0029Y00415
X00275581Y00405
Y0043
Y00455
X00257724Y0045779
X0025132Y00458883
X00257841Y00465409
X0025132Y00473615
X00240906Y00479594
X00226861Y00486863
X00218561Y00486
Y00492213
X00216208Y0049946
X00202999Y0049957
X00202624Y00489911
X0018625Y0048675
X00191887Y00479988
X00185537Y004715
X00198355Y00459824
X00209Y004655
X00215Y00448867
X00196875Y00437621
X0018475Y00438
X00164969Y00440891
X0015975Y0044775
X00146669Y00446866
X0014725Y004295
Y0041425
X0016575Y0041
X00165309Y00398978
X00157957Y00396973
X0016425Y00422
X00188549Y00413387
X0018925Y00405308
X00196942Y00387285
X002155Y00385
X0021525Y0037375
X00228Y0036925
X00239543Y00378331
X00250207Y0038
Y004
Y0042
X00239826Y00414397
X00239739Y00438374
X0025075Y0044275
X0029Y00445
X003Y00455
X00308018Y00448695
X0030275Y0043
X003Y00475
X0032
X00321476Y00461982
X0033925Y00466982
X0034Y00485
X00353463Y00497783
X00371903Y00502123
X00383Y00496076
X0040038Y00497581
X00405757Y00489172
X004Y00475
X00395787Y00460411
X00394524Y00446871
X00402608Y00448969
X00403793Y00438621
X00414916Y00441481
X00423779Y00447899
X00435049Y00449333
X00445898Y00449435
X0044575Y004625
X0043077Y00463499
X00416455Y00456476
X0040925Y00463043
X0042Y00475
X0042Y00500331
X0043141Y00489006
X00446192Y0048
X00443354Y00502214
X00436722Y00515
X00443887Y00527114
X0044325Y005565
X004295Y00546251
X004065Y0055575
X00394987Y00557
X00387367Y00557232
X003695Y00556
X0037825Y0054123
X00393467Y00536024
X00405757Y00535828
X00406453Y00513539
X00381795Y00523684
X00356699Y00535112
X00336232Y00523413
X00308407Y00535112
X00311827Y00561688
X003045Y00564296
X00323641Y00561688
X00329109Y00555857
X00334035Y00564296
X00354025Y00566417
X0036Y00475
X003575Y00462719
X0038Y00455
X0037275Y004475
X003847Y00444308
X0038Y00475
X0032Y00495
X0030175Y004985
X0028375Y00499
X00266Y0049925
Y0048675
X00291124Y00487221
X0028Y00475
X0025132Y00499
X00235018Y0049925
X00235686Y0052623
X00234787Y00534473
X002499Y00534752
X00266123Y00535112
X00285999Y00523651
X00226922Y00519769
X00218826Y00519866
X00219211Y00531619
X002Y005315
X0019025Y0051975
X00176535Y00507026
X00168152Y00494879
X00168Y00481
X00146669Y004805
X00149614Y00497759
X00148823Y00508681
X0015855Y00515697
X0016194Y00527891
X00173306Y00530376
X001721Y00538241
X0014774Y00531399
X00141Y005245
X00154723Y00564739
X00162594Y00564943
X0018025Y0056475
X002005Y0056525
X00219032Y00565561
X00242036Y00566899
X00207102Y00421152
X00216043Y00410828
X0022625Y003945
X00265Y0039
Y0037
Y0035
Y0033
Y0031
Y0029
X0025Y003
Y0032
Y0034
Y0036
X0022825Y00341
X002285Y0031625
X00215Y00328685
X00196931Y00327982
X00196234Y00353606
X00182248Y00356895
X001665Y00355
X00165288Y00347
X0017975Y0033725
X00166957Y00319075
X00146361Y00320598
X00146669Y00341
Y00363327
X00188798Y00371779
X00215Y0035357
Y00300208
X00196931Y00299461
X001835Y00296305
X0017225Y00286
X001675Y00279805
X00170147Y00262203
X0017575Y0024375
X001585Y00237
X00169328Y00187331
X0018475Y001945
X00196875Y00198268
X0023725Y00226492
X002325Y00251
X00247243Y00251742
X002485Y002735
X0024775Y0028175
X002285Y00288
X00271Y0026675
X0027125Y00245088
X0028511Y00244527
X0029225Y0020025
Y00192255
Y00183291
X00301Y0018375
X0030575Y0017725
X0031925Y00177
X00332763Y00173827
X00335658Y00181284
X00335153Y00193
X0034746Y00192255
X0034075Y00200991
X00329692
X0032275Y0019625
X0032125Y0021525
X00324825Y002225
X0032375Y00231673
X00352526Y00219339
X0037635Y00218386
X0037647Y00226716
X003912Y00233698
X00401Y00243333
X00416Y00243661
X00408805Y00228388
X0042325Y0022419
X00435Y0023
Y0025
X0045Y0026
Y0024
Y0022
Y002
X00435
X0043Y0018
X0045
X0046225Y001755
X004815Y00211957
X004785Y0021925
Y002405
X0050485Y00238
X00505Y00215
X005305Y0021875
X005345Y002375
X00533932Y0025675
X00519854Y00246359
X00515632Y0026416
X00520056Y0029625
X00511215Y0030525
X00501678Y00307543
X0047527Y003029
X0047375Y0029175
X0046391Y00307364
X0044475Y003
X004445Y0032125
X00444638Y0034075
X0046391Y00335683
X00475259Y00355
X00489207Y0035225
X004895Y00361
X0051025Y0036025
X00523949Y00368685
X0052325Y00349673
X0053275Y0033125
X00513382
X004995Y003445
X00474962Y003775
X00480857Y00383425
X00481124Y0039576
X0047464Y00399762
X00480857Y00413094
X00492618
X00505132Y00412145
X00513051Y00417371
X00521056Y0041725
X00523837Y00409417
X0052225Y00396768
X00505132Y003985
X00504199Y00433328
X00491869Y00432216
X0048027Y00433328
X00475061Y00428907
X00478Y0044975
X00491783Y00449333
X00504199Y00449435
X00510933Y00448537
X00512531Y00461237
X0050485Y004635
X00486285Y00463811
X004755Y00466678
Y00473599
X00475375Y00480293
X004755Y0048725
X00472787Y00502214
X00473357Y00515422
X00475201Y00532503
X00498Y00538
X00492113Y00550471
X00484388Y00558677
X00484038Y0056675
X00515039Y00558461
X00536919Y0056021
X00536882Y00539092
X00529682Y00526359
X00516508Y0052817
X00509734Y0052468
X00509189Y00513309
X00501663Y00512117
X00501493Y00504499
X00500997Y0049675
X0050125Y00489
X00486285Y00479293
X00524Y00484
X00532791Y00478063
X00532982Y00456308
X00526677Y00453534
X00525994Y00461237
X00527087Y00497793
X0052675Y0042375
X0051625Y0042575
X00446Y0043025
X00438Y00433328
X00431211Y004295
X00424769Y00429678
X00422774Y00411476
X004321Y00410472
X00440491Y00413094
X00446Y00405523
X00442994Y00394206
X00436757Y00388793
X004377Y00378331
X00424666Y00383219
X00428133Y00398763
X00414315Y00418946
X00385Y004
Y0035
Y0033
Y0031
Y0029
X00405Y0028
Y003
Y0032
Y0034
Y0036
X00415Y0037
X0043577Y00362278
X00425Y0035
Y0033
X00425524Y00310186
X00425Y0029
Y0027
X0044425Y00279
X004785Y0027025
X0051675Y00184
X0053225Y0019525
X00416Y0019
X00401Y00190543
X00392026Y00193643
X003915Y00201245
X00382388
X0037647Y0019575
X003805Y0017725
X003635Y00177
X0036Y00188
X00347526Y00174474
X0028Y001795
X0027175Y00174
X0025575Y0017625
X00305Y0029
Y0031
Y0033
Y0035
Y0037
X00345
Y0035
Y0033
Y0031
Y0029
X0015925Y00299804
X00145868Y00294992
X00146976Y00286513
X00540882Y0028675
Y00295543
X0054825Y0030875
X00557882Y00309813
X005655Y00316
X0054975Y00331
X0054175Y0033125
X005405Y0035
X00553Y00367
Y0038925
X00553539Y00408543
X00553Y0042475
X005545Y0043575
X00553Y0044675
X00548Y00455
X0054347Y0047325
X00549768Y00487993
X00559707Y00495
X00565134Y00501065
X005745Y004929
X00576882Y00482
X00585946Y0048625
X00591704Y00479206
X00593988Y00493573
X0061Y00494283
X00627618Y00492722
X0064315Y00490391
X00647801Y0050298
X00636685Y00504437
X00626235Y00516927
X00626296Y00524546
X00608555Y00534199
X00608115Y00548865
X00600444Y00553482
X0060731Y00567624
X00581882Y005685
X00567722Y00568238
X00552675Y00547915
X0055485Y00523859
X00547132Y00523991
X00566105Y0052354
X00576083Y00534944
X00581882Y0053
X00587723Y00524817
X00591933Y00531191
X00607824Y00513938
X0065097Y00515354
X006725Y00515
Y00495
Y00475
Y00455
X0066975Y00440896
Y00432943
Y00424896
Y00414012
X00668602Y00404514
X00661Y0039475
X00647912Y00392206
Y0040775
Y00373813
X0065525Y0036775
X00646882Y00358793
X00643341Y00350043
X00653168
X00635132Y00351793
X00636106Y00335
X0066Y00335
Y00315
Y00295
Y00275
Y00255
Y00235
X0064
X0062
X00618602Y00252638
X00636106Y00255
X00635106Y0027
X006725Y00265
Y00245
Y00225
Y00285
Y00305
Y00325
Y00345
Y00365
X0067075Y003775
X00620173Y00386892
X00612652Y00370412
X00621382Y00358793
X00612514Y00341189
X00612652Y0031825
X00605132Y00311961
Y00304401
X00633356Y00311563
X00594982Y00329661
Y00365
X005735
X00569287Y0038275
X00572962Y00408543
Y0042475
X0056968Y00441793
X00579682Y00455685
X00595746Y00450583
X00606067Y00451
X00600444Y0045723
X006255Y00455685
X00632382Y00463043
X00641Y00462793
X00640535Y00454535
X00655014Y0045475
Y00448012
X00654175Y00469
X006205Y0044125
X00605588Y0043075
X00596461Y0040925
X00585011Y00397915
X0059555Y0038725
X0059325Y0027875
X0056Y00275
Y00255
X00576106Y00255
X0058Y00235
X006
Y00215
Y00195
X0058
X005655Y00197789
X00563Y0020575
X0058Y00215
Y00175
X006
X0056
X0053975Y00189238
X0056Y00235
X00561763Y004795
X00538293Y00494
X006725Y00535
Y00555
X00649192Y00562692
X00651749Y00574548
X0064425
X00637
X00636685Y00584084
X00660023Y00586298
X006725Y00595
Y00575
Y00618
Y00635
X00661664Y00629814
X0065099Y00621699
Y00613807
X00642912Y00613767
Y00621422
X0064275Y00629
X00631618Y0063175
X00631726Y00624699
X0063325Y00617773
X00624182Y0061304
X00611381Y00612674
X00606951Y0062065
X00583199Y00627805
X00574222Y00634429
X00559927Y00629173
X00552757Y00631751
X00546221Y00627274
X00544177Y0065407
X00561907Y0066175
X00574003Y00660975
X00578605Y00674281
X00586474
X00594355Y00673329
X00602632Y0068125
X00610834
X00628Y0068088
X0063Y00695
X0065
X006725
Y00675
X0066Y00675
X0066775Y006555
X00644Y00661183
X00645Y00645
X006314Y00639
X00622243Y00636553
X00617166Y00643561
X00621982Y00658992
X00613637Y00703371
X00613382Y00717019
X0061Y00735
X0059825Y00729649
X00585882Y007345
X0057851Y0074625
X0056875Y00745449
X00555968Y0074625
X0055Y00754
Y00775
X0054Y00795
X0056
X0058
X006
Y00815
X0062
X006245Y0083575
X006325
X0065Y00835
X006725
Y00815
X00656191Y0081827
X006725Y00795
Y00775
Y00755
X0066
X0065Y00735
X0063
X0064Y00715
X0066
X006725Y00715
Y00735
X0062Y00755
X006
Y00775
X0058825Y00832806
X005725Y0082225
X0057275Y0084375
X0055Y00845
X0055775Y00832806
X0054025Y0081875
X0054075Y00878
X00548469
X00567Y00877961
X005745Y00892
X005945Y0089225
X0059375Y00877961
X0060375Y00875
X00620472Y00875884
X00614162Y00889125
X0061425Y009005
Y00912
Y009235
X0062309Y00916517
X00641597Y00916268
X00641447Y00896549
X0062309Y0089625
X006415Y0087425
X0065175Y0086275
X00661222Y0086275
X006725Y00855
X0064375Y00854624
X00612896Y0085525
X00594Y00855
X005945Y0092025
X00591Y009365
X0059325Y00957452
X0058375
X00574
X00565272Y00955957
X00548469Y009345
X00542282Y00932967
X005745Y009205
X0062025Y009365
X0064127Y00936136
X0065175Y00949858
X00661222Y0094975
X0066925Y00957777
X00644043
X00632793Y00958146
X0062375
X0060375Y0096
X00598714Y00690469
X00580318Y00685915
X00572307Y0068525
X00572239Y00692227
X00564853
X00564692Y0068525
X0056375Y00676517
X00551932Y00676238
X00540042Y00678042
X00540709Y00703466
X0054125Y00715
X00555968Y00707088
X0054075Y0074
X00562Y006115
X00563355Y00591839
X00567661Y00585553
X00575263Y00586077
X00588471Y00587055
X0059275Y0058075
X00599285Y00587049
X00610343Y00588489
X00609825Y00575
X00616262Y00576948
X00599055Y00572327
X0057625Y00604
X00534123Y0059375
X00533802Y00585882
X00537337Y00569043
X00510454Y00573322
X00509574Y00598985
X0049125Y00590289
X00483201Y00583887
X00484038Y0057575
X00488Y0061325
X00494Y0061775
X00484318Y006225
X00484163Y00642566
X00477303Y00642827
X00473039Y00650737
X00489034Y00650304
X00496811Y00650515
X00481415Y00666211
X004545Y00669655
X00447755Y00669867
Y00663038
X00432Y0066875
Y00679606
X0042275Y0067425
X004135Y00679606
Y0066875
X00405619Y00674211
X00399684Y0068125
X00405289Y00688227
X00399633Y0071
X00392645Y00726398
X00385563Y00723563
X0038311Y00731591
X00375518Y00730937
X00369173Y00726717
X00362526Y00741004
X00367429Y00753339
X00378429Y00758303
X00391637Y00754568
X00400163Y00778211
X004055Y00784
X004105Y00790098
X00417002Y00794539
X0040975Y0080414
X0042Y0081
Y0083
X00434125Y00825018
X0044Y0085
Y0087
Y0089
Y0091
Y0093
X0046
X00462Y009125
X00472543Y0091925
X004825Y009325
X0048175Y0094675
X004685Y0094475
X0048925Y0095525
X00501992Y0094075
X00517961Y00947301
X00531Y0094675
X00521464Y0096075
X005125Y00961004
X005185Y00933074
X0053425Y00918922
X00533251Y00908
X00526005Y00904918
X00527063Y0087
X00521046Y00864262
X005155Y00856
X00506558Y00852782
X0049495Y00839768
X00492288Y0081675
X0049375Y00808
X0047975Y00798
X00471953Y00784128
X0049Y00785
Y00765
Y00745
X0047
Y00765
X00452811Y00762189
X0045325Y0078004
X0045Y00745
X00430784Y00758529
X00410683Y00736996
X00415042Y00728372
X00406783Y00726576
X00428279Y00719399
X00470289Y0071748
X004895Y00718
X0049275Y0069675
X00474057Y0069137
X00459107Y00679706
X00437573Y00650994
X00440491Y00640995
X00442793Y00632914
X00444259Y00622035
X0044438Y00602053
X00443328Y00583211
X00435049Y005805
X0041575Y0058325
X004105Y00591175
Y00599285
X00423779Y00600787
X00424302Y00620916
X00413318Y00619809
X004025Y00616422
X00396479Y00610631
X0038917Y00612843
X00377793Y00613769
X003762Y00603355
X0036625Y006005
X00360454Y00595298
X00360605Y00587166
X003675Y00583103
X00353005Y00604949
X00334Y00606531
X00323094Y00606105
X00327974Y00612325
X0031756
X00306617Y00610035
X00305465Y00618143
X0029025Y0062225
X00289Y00639217
X00308009Y00643249
X00306273Y00656661
X00312031Y00661652
X00319651
X00301152Y00662304
X00284329Y00660783
X0026375
X00256223Y00663038
X00258991Y00671003
X00251385Y0067147
X00246457Y00677378
X0023982Y00685486
X00237305Y00671424
X002415Y00665885
X0022284Y00665335
X00220017Y00672438
X00218Y00659449
X00223029Y00653724
X00218913Y00636042
Y0061831
X002225Y00610054
X00219504Y00601689
X0022825Y0060119
X00244025Y00604366
X00268223Y00600759
X00276272Y00600516
X00264972Y00611368
X00268192Y00628095
X00269335Y00635629
X00258805
X0025112Y00629534
X00242416Y00630762
Y00646691
X002005Y0064225
Y00663
Y00682
X00180223Y0068075
X00184799Y00708778
X00178251Y00725048
X00171071Y00722497
X00159Y00734288
X00146989Y00719668
X00143385Y00707057
X00151274
X00159989Y00707211
X00157883Y00655457
X00164404Y00651
X00161706Y0064363
X00152146Y00636918
X00152399Y00623173
X00151539Y00615347
X00148699Y00608
X00149262Y00599559
X0014825Y0059175
Y00583876
X00174469Y00593612
X00182402Y00603631
X00182387Y00622421
X00173306Y00617148
X00161162Y00624743
X00178402Y00637555
X002005Y00619
Y0060175
X00259614Y00577559
X00277015Y0057529
X00295418Y00592195
X00306914Y00594592
X00344157Y00617401
X00347482Y00624786
X003435Y00642002
X00359542Y00645619
X00361714Y00659843
X00373421Y00658389
X00371383Y00665884
X00373555Y00673214
X00383432Y00665363
X00383407Y00648259
X00382644Y00634607
X00370732Y00625386
X00400839Y00641938
X00399669Y00650638
X00410898Y00644363
X00418Y00644224
X00425Y00644363
X00410016Y00633693
X00370641Y00696881
X00355815Y0070575
Y00714107
X0035058Y00724199
X00345Y00729649
X00343099Y0074575
X0035Y00750469
X00336675Y00751574
X00320136Y0074075
X00297654Y00739616
Y00724
X0031275
X003125Y00709212
X0031275Y0069425
X00297654
X0029725Y00708778
X002825Y00709465
X00268223
X00267919Y00696187
X00271555Y00682968
X0028275Y0069375
X00295136Y00677
X00323774Y00682968
X00351734Y00683001
X00342216Y0066875
X00327974Y00709212
X0028225Y00724199
X00271555Y00735229
X00257528Y00747964
X00243974Y00749585
X00232321Y00757465
X00225491Y00754087
X00218732
X0021296Y00729
X00226646Y00716103
X00187009Y00742838
X00187Y00769098
X0019775
X0019275Y00801
X0018475Y0080128
X00178803Y00796228
X00173545Y00801743
X00161681Y00804861
X0015375Y0080375
X0014575Y00803707
X001465Y00770989
X00149214Y00760605
X00149355Y00752986
X00145756Y0084075
X0015425
X00163131Y00835574
X00172667Y00843616
X00179117Y00847679
X00185783Y00843624
X00190973Y00851368
X00200223Y0083925
X00201392Y0083108
X00209473Y00830146
X00209328Y00813123
X00200223Y00812029
X00208946Y00800387
X00216169Y0079796
X00226583Y0079961
X00226461Y00790896
X00233962Y00797038
X00240275Y00801305
X0024475Y00794539
X00254265Y00803358
X00261973Y0080175
X00270973Y00811
X00270451Y00819
Y00827
X00277223Y00832
X00279794Y00839417
X00264197Y00840975
X00256223Y00841
X00246473Y00837
X00247299Y00849707
X00255Y00855
X0023675Y00855137
X00234735Y00845908
X00224193Y00846307
X00223473Y0085425
X00218473Y00885
X00238723
X00255473Y00885
X002645Y0089425
X00273946Y00885
X00291473Y00885
X00282223Y008955
X0030075Y0089575
X00291473Y00906
X00282223Y00916361
X00268325Y00914724
Y00934724
X00282223Y00937361
X0030075Y00937611
X00291473Y00947861
X00282223Y00958361
X00268325Y00954724
X00253152Y00944974
Y00964974
X00238719Y00953724
Y00933724
Y00913724
X00254084Y00904465
X00253152Y00924974
X00219965Y00923965
Y00943965
X002025Y00935
Y00955
X00175Y00955
Y00935
Y0091
X00176222Y0089425
X00167473Y00895
X00176512Y00885
X00157473
X00141723
X00143973Y00853774
X00152956Y00855
X00161836Y0085523
X0017225Y0085554
X00200973Y0088025
X002025Y00895
Y00915
X00219965Y00903965
X00152956Y00908
X0016Y00925
Y00945
Y00965
X0030075Y00958611
X00329473Y009595
X00329027Y009485
Y009375
Y009265
X00329027Y009155
X00336379Y00912732
X00341866Y00918395
X0034235Y00927907
X00341565Y00940266
X00342616Y00951991
X00342686Y00964982
X00358421
Y00952306
X0035875Y0093925
X00358026Y00927113
X00357076Y00914805
X00350776Y00903854
X0035Y0089
X00339047Y00897249
X00329027Y008935
Y008825
X00330223Y008655
X00320223Y008555
X003175Y00874
X0035Y0087
X0037
Y0089
X0039
Y0087
X0041025Y00866
X0040575Y00881
X0042Y0089
X00424Y00875
X0042Y0085
X004
X0038
X0036
X0035725Y00822
X0036975Y0081625
Y0080425
X0037775Y008045
X003855
X00377441Y00830603
X004Y0083
X0033875Y00824041
X00327974
X00317375
X003075Y00821
Y008125
X0031175Y00801
X0032775Y008015
X00355763Y00798805
X00311022Y00771054
X00303462Y00764373
X00310305Y00757108
X00291652Y0076818
X00243702Y00776272
X00248605Y00814301
X0027475Y00856498
X0030075Y00916611
X00291473Y00926861
X0037775Y0092475
X00374Y0094025
X0039025Y009395
X004085Y0093975
X00408198Y009545
X0042Y0095
X0044
X0042Y0093
X00408198Y0092477
X0039275Y00915148
X004035Y0090325
X0042Y0091
X0037456Y00908537
X0037975Y00952
X0037075Y0096325
X0039275Y0096425
X0048875Y00910958
X00485Y009
X00472543Y00892278
X00459Y0086725
X0047799Y0082279
X0052275Y008205
X005325Y00835
X00532591Y00858828
X00514Y0080325
X00527504Y00766795
X00523185Y00690947
X00514925Y0069425
X0050972Y00678711
X00523611Y00674889
X00535891Y00662356
X0053725Y0064675
Y0063675
X0052725
X00532182Y0064173
X0052725Y0064675
X00140972Y00642211
X0014075Y0062625
X00131835Y00627814
X00123961Y0062787
X00130224Y00635539
X00100223Y00627194
X00086039Y00627
X00085961Y00635188
X00078346Y00643099
X00071126Y00639955
X00056605Y00640161
X00045726Y00630247
X00035461Y0062775
X00027Y006265
X0003375Y0061975
X0001925
X0001225Y0062625
X000075Y00635
X00022152Y00639602
X000345Y00639369
X00032539Y00652577
X00029491Y00668
X00037801Y00678063
X00045117Y0068375
X00038018Y00692097
X00024Y006935
X000075Y00695
Y00675
X00007341Y00654881
X000075Y00715
Y00735
X00024291Y00734014
X00033Y00735131
X00033479Y00726
X0004206Y00725961
X000535Y00712631
X00060108Y00695184
X0006725Y006985
X00073513Y00703272
X00080602Y00708395
X0009Y007075
X00102948Y00709437
X00111979Y00709641
X00119782Y00710694
X0011337Y00717897
X00128211Y00725558
X00134937Y00721463
X00140646Y00714439
X00132565Y00735014
X00140913Y00752663
X00138892Y00767221
X00117346Y00748502
X00109238Y00738698
X00084575Y00742828
X00073576Y007405
X00067056Y00732711
X00068349Y00754593
X0004984Y00747081
X00030152Y00748495
X000075Y00755
Y00775
Y00795
Y00815
X00020039Y00827589
X0003025Y00835818
X0004248Y00825
X00051715Y008325
X0005957Y00832812
X00068475Y00834669
X00066216Y00843624
X00071756Y00858232
X00071755Y00866223
X00073432Y00874
X00044509Y00874774
X00023794Y0087475
X00024631Y00853774
X00045902
X0004225Y00900722
X00050269Y009131
X00052651Y00920999
X00053436Y00935
X0005198Y00942586
X00061384Y00941
X00067701Y00945262
X00052914Y00953
X00048293Y00962873
X00058707Y00962282
X00090563Y00958396
X0011375Y00960143
X00128444Y00954724
X0014Y00945
Y00965
X00137223Y0091375
X001305Y00895345
X0011375Y0089575
X00122473Y00886123
X00104542Y008825
X000935Y00895345
Y00916361
X0011375Y00916611
X00104542Y00926931
X00112813Y00936313
X00104317Y00944809
X00095223Y00937
X0004025Y00933001
X00037791Y00946537
X00024205Y00940837
X00021242Y00951188
X00023082Y00959481
X00020993Y0093
X00020186Y009195
X0003425Y00916
X00030021Y00891014
X00020852Y00899257
X000075Y0091275
X0000725Y009275
Y009435
X00064262Y0090825
X00073836Y00828562
X00074019Y00819711
X00084255Y00809522
X00096358Y00797218
X00108038Y00785538
X0009475Y007725
X0009043Y0075949
X00079793Y00787599
X00097041Y00835863
X00105255Y00828443
X00102647Y00851063
X00116723Y00851539
X00139473Y00826562
Y00818
X00127286Y00806051
X00078172Y00695686
X00075839Y00686556
X00076371Y00678306
X0008825Y0068225
X00090682Y00665366
X0009043Y00657496
X00076084Y00653084
X00071951Y005898
X00063514Y00590514
X00052961Y00591
X00042039Y005905
Y0058225
X000615Y005755
X00067994Y00570922
X00068499Y00581
X00086111Y00591
X00093989Y00590246
X00108Y0059
X00111257Y00582785
X00111497Y00574461
X00102603Y00575207
X000915Y00575461
X00115699Y00596536
X00122311Y00600811
X00117Y009795
X001085Y0097975
X00099Y009795
X00091103Y00979801
X00104542Y00972
X00104473Y0099
X00122473
X00140723
X001315Y0098075
X00132212Y01018504
X00121
X00122473Y01029203
X00114887Y0103909
X00099559Y010425
X0008854Y01054732
X00088Y0107471
X0007527Y010827
X00060354Y0108375
X0004125
X0001975Y01087
X00021032Y0109525
X00020816Y01103
Y0111075
X00028009Y01119485
X00041Y011165
X00039495Y01132547
X00020594Y0113
X00021924Y01140182
X00021549Y01148267
X00020816Y01161518
X00029523Y01155796
X00029148Y0117075
X0000725Y011705
X000075Y0118225
X0000925Y01194
X00024218Y0119775
X000405
X0003767Y0118575
X0005125Y0117425
X00050524Y0115775
X0007036Y01157981
X00064961Y01141945
X00060494Y01125
X00057232Y01106866
X00074169Y0110675
X0008925Y010965
X00105982Y01107227
Y01132444
X00125205Y01132795
X00129695Y0111125
X00120118Y0109425
X0012575Y0107725
Y010685
Y0106
X0014Y0105725
X00132005Y01046
X00113Y0106555
X0010575Y01081634
X00140204Y01083
X00139318Y0117425
X00121Y0116775
X00125205Y0118525
X001275Y01198
X00115Y011975
X001
X0008
X0006
X00065605Y0118575
X00072625Y011775
X001
X0008854Y0116525
X00088Y01143815
X0008375Y01125
X00105982Y01157981
X00140723Y01201375
X0003325Y011005
X0000725Y0108875
Y0107375
X00021032Y01074131
X000217Y010585
X00026019Y01050792
X000075Y010435
X0000725Y010345
Y010205
Y0100475
X0001365Y0099425
X0000725Y0098525
Y0096675
X00023794Y00967068
X00022981Y00975917
X00028292Y00981951
X00039051Y00977624
X000345Y00970931
X00049534Y00983111
X000645Y00978
X00060761Y00969863
X00064961Y00998486
X00071263Y01005237
X0007699Y01012
X00081697Y01019732
X0007005Y0101875
X00064262Y01027
X00048049Y01027565
X0003425Y01029
X00033719Y01013035
X0001869Y010135
X00050347Y01005053
X0007425Y0103725
Y0104675
X00066216Y010635
X00086795Y01029203
X00099223Y01019
X0000975Y01061432
X00156723Y01057739
X00156126Y0104325
X00153973Y0101875
X00165Y01018527
X0017726Y01028038
X00197222Y01028
X00217222
X00237222
X00259723Y01023711
X00280223Y010235
X00287473Y01019
X0029Y0103
X00274Y0103125
X0031Y0103
X0033
X00342311Y010275
X00342038Y01018788
X00341662Y01006973
X00341565Y00994565
X00329473Y009925
Y0098175
X00342518Y00978866
X00358457Y00978232
X00366723Y00979815
X00373878Y0098695
Y00995029
X00373984Y01003
X00374429Y01010973
X00367274Y01018331
X00358026Y01020063
X00358457Y01029116
X00350154Y0103375
X00372092Y01030366
X0039Y0103
Y0101
Y0099
X00385316Y0097675
X00405456Y00975
X0041Y0099
X0042
Y0101
X0041
Y0103
X0042
X0044
X0046
X0048
X005
X0052
X0052Y0101
Y0099
X005
Y0101
X0048
Y0099
X0046
Y0101
X0044
Y0099
Y0097
X0042
X0046275Y0096675
X0048275Y009675
X0053625Y010146
X00320223Y010055
X00291473Y009895
X00273723Y0099
X00255711Y00989921
X0025025Y0099575
X00238699Y0099475
X00244241Y00989157
X002285Y0098075
X0021675Y0097475
X002025Y00977
X001985Y00986777
X00199473Y009955
X00188723
X00178723
X0015875Y0099
X00167777Y0098075
X00218223Y009955
X002645Y0098075
X00282223Y00979
X0030075Y0097925
X00291473Y00968861
X00333726Y00969816
X001425Y0103
X0015675Y0107425
Y01090805
Y01104901
Y01118714
X00156723Y01137798
X00144649Y0113225
Y0115775
X00156126Y01155
X00156723Y01171401
X0015675Y011875
X00156126Y01201
X00144649Y0110675
X0054378Y010805
Y01069
X00544018Y01052032
X00562Y010545
X005625Y0103
X00542518Y0102975
X00550468Y010055
X0056476Y01010125
X0056Y0099
X0054
X0058125Y009975
X0059225Y010025
X0060025Y01003
X00608207Y01003186
X00608664Y0099475
X0060975Y00975
X0062575
X0065
Y00995
X00630682Y00995682
X00643381Y010105
X0065Y01035
X00673Y0103725
Y0101725
Y0099725
Y0097725
Y0105725
Y0107725
X00653
X00633
X00613
X00593
X00573
X0055575Y010805
X00579Y010385
X0059825Y01035
X0059225Y0101832
X00617166Y0101675
X0061Y01055
X0064Y0106
X0059Y0098
T02
X0045Y00085
X0049
X0053
T04
X0055Y000425
Y001025
X0043
Y000425
T05
X0034Y0043
T06
X0023984Y000396
X0026016
X0025Y000904
T07
X0015345Y0002977
X0019155
T08
X0004Y00195
X0064
Y00785
X0004
M30
