G04*
G04 #@! TF.GenerationSoftware,Altium Limited,Altium Designer,23.0.1 (38)*
G04*
G04 Layer_Color=8421504*
%FSLAX44Y44*%
%MOMM*%
G71*
G04*
G04 #@! TF.SameCoordinates,B12E620B-8F76-40C0-9090-1E76C6094A63*
G04*
G04*
G04 #@! TF.FilePolarity,Positive*
G04*
G01*
G75*
%ADD11C,0.1270*%
%ADD14C,0.2540*%
%ADD16C,0.2000*%
%ADD25R,4.8260X2.4130*%
%ADD26C,0.2997*%
%ADD27C,0.1778*%
%ADD28C,0.1250*%
%ADD29R,0.7500X1.5500*%
%ADD30R,1.5500X0.7500*%
%ADD31R,0.4000X0.4000*%
%ADD32R,0.5500X0.5200*%
%ADD33R,1.5500X1.0000*%
%ADD34R,1.0000X1.1000*%
%ADD35R,1.2000X1.1000*%
%ADD36R,0.6500X0.2200*%
%ADD37R,0.5500X0.2200*%
%ADD38R,0.2200X0.5500*%
%ADD39R,0.4400X0.9800*%
%ADD40R,1.6000X1.4000*%
%ADD41R,0.4000X1.3500*%
%ADD42R,1.9000X1.9000*%
%ADD43C,0.3500*%
%ADD44R,0.7000X0.3500*%
%ADD45R,1.0000X1.7000*%
%ADD46R,0.4500X0.3000*%
%ADD47R,0.5500X1.3000*%
%ADD48R,0.8000X0.9000*%
%ADD49R,0.3000X0.3600*%
%ADD50R,0.4000X0.5000*%
%ADD51R,1.8000X1.2000*%
%ADD52R,1.5500X0.6000*%
%ADD53R,0.3300X0.1500*%
%ADD54R,1.0500X1.0500*%
%ADD55R,1.4500X1.1500*%
%ADD56R,0.7500X0.9000*%
%ADD57O,0.2000X0.7000*%
%ADD58O,0.7000X0.2000*%
%ADD59O,0.2000X0.5500*%
%ADD60O,0.5500X0.2000*%
G04:AMPARAMS|DCode=61|XSize=1.68mm|YSize=1.68mm|CornerRadius=0.084mm|HoleSize=0mm|Usage=FLASHONLY|Rotation=180.000|XOffset=0mm|YOffset=0mm|HoleType=Round|Shape=RoundedRectangle|*
%AMROUNDEDRECTD61*
21,1,1.6800,1.5120,0,0,180.0*
21,1,1.5120,1.6800,0,0,180.0*
1,1,0.1680,-0.7560,0.7560*
1,1,0.1680,0.7560,0.7560*
1,1,0.1680,0.7560,-0.7560*
1,1,0.1680,-0.7560,-0.7560*
%
%ADD61ROUNDEDRECTD61*%
G04:AMPARAMS|DCode=62|XSize=0.6mm|YSize=0.24mm|CornerRadius=0.06mm|HoleSize=0mm|Usage=FLASHONLY|Rotation=180.000|XOffset=0mm|YOffset=0mm|HoleType=Round|Shape=RoundedRectangle|*
%AMROUNDEDRECTD62*
21,1,0.6000,0.1200,0,0,180.0*
21,1,0.4800,0.2400,0,0,180.0*
1,1,0.1200,-0.2400,0.0600*
1,1,0.1200,0.2400,0.0600*
1,1,0.1200,0.2400,-0.0600*
1,1,0.1200,-0.2400,-0.0600*
%
%ADD62ROUNDEDRECTD62*%
G04:AMPARAMS|DCode=63|XSize=0.6mm|YSize=0.24mm|CornerRadius=0.06mm|HoleSize=0mm|Usage=FLASHONLY|Rotation=270.000|XOffset=0mm|YOffset=0mm|HoleType=Round|Shape=RoundedRectangle|*
%AMROUNDEDRECTD63*
21,1,0.6000,0.1200,0,0,270.0*
21,1,0.4800,0.2400,0,0,270.0*
1,1,0.1200,-0.0600,-0.2400*
1,1,0.1200,-0.0600,0.2400*
1,1,0.1200,0.0600,0.2400*
1,1,0.1200,0.0600,-0.2400*
%
%ADD63ROUNDEDRECTD63*%
%ADD64R,0.8500X0.2000*%
%ADD65R,0.2000X0.8500*%
G04:AMPARAMS|DCode=66|XSize=0.3mm|YSize=0.375mm|CornerRadius=0.015mm|HoleSize=0mm|Usage=FLASHONLY|Rotation=0.000|XOffset=0mm|YOffset=0mm|HoleType=Round|Shape=RoundedRectangle|*
%AMROUNDEDRECTD66*
21,1,0.3000,0.3450,0,0,0.0*
21,1,0.2700,0.3750,0,0,0.0*
1,1,0.0300,0.1350,-0.1725*
1,1,0.0300,-0.1350,-0.1725*
1,1,0.0300,-0.1350,0.1725*
1,1,0.0300,0.1350,0.1725*
%
%ADD66ROUNDEDRECTD66*%
%ADD67R,0.6000X0.6000*%
%ADD68R,0.7000X0.7000*%
%ADD69R,0.7000X0.7000*%
%ADD70R,1.1500X0.7000*%
%ADD71R,0.7000X1.1500*%
%ADD72R,0.9000X0.7500*%
%ADD73R,0.2750X0.3000*%
%ADD74R,0.3000X0.3000*%
%ADD75R,0.3000X0.2750*%
%ADD76R,0.3000X0.2750*%
%ADD77R,0.3000X0.3000*%
%ADD78R,0.2750X0.3000*%
%ADD79R,0.8000X0.8000*%
%ADD80R,0.5200X0.4900*%
%ADD81R,0.5000X0.5500*%
%ADD82R,0.2500X0.3500*%
%ADD83R,0.3500X0.2500*%
G04:AMPARAMS|DCode=84|XSize=1.5mm|YSize=2.45mm|CornerRadius=0.075mm|HoleSize=0mm|Usage=FLASHONLY|Rotation=0.000|XOffset=0mm|YOffset=0mm|HoleType=Round|Shape=RoundedRectangle|*
%AMROUNDEDRECTD84*
21,1,1.5000,2.3000,0,0,0.0*
21,1,1.3500,2.4500,0,0,0.0*
1,1,0.1500,0.6750,-1.1500*
1,1,0.1500,-0.6750,-1.1500*
1,1,0.1500,-0.6750,1.1500*
1,1,0.1500,0.6750,1.1500*
%
%ADD84ROUNDEDRECTD84*%
G04:AMPARAMS|DCode=85|XSize=0.6mm|YSize=0.5mm|CornerRadius=0.025mm|HoleSize=0mm|Usage=FLASHONLY|Rotation=0.000|XOffset=0mm|YOffset=0mm|HoleType=Round|Shape=RoundedRectangle|*
%AMROUNDEDRECTD85*
21,1,0.6000,0.4500,0,0,0.0*
21,1,0.5500,0.5000,0,0,0.0*
1,1,0.0500,0.2750,-0.2250*
1,1,0.0500,-0.2750,-0.2250*
1,1,0.0500,-0.2750,0.2250*
1,1,0.0500,0.2750,0.2250*
%
%ADD85ROUNDEDRECTD85*%
%ADD86R,2.2000X1.2700*%
%ADD87R,1.2700X2.0320*%
%ADD88R,1.8000X1.3000*%
%ADD89R,1.1400X0.8000*%
%ADD90R,1.2500X1.8000*%
%ADD91R,0.7600X2.0300*%
G04:AMPARAMS|DCode=92|XSize=0.3mm|YSize=0.55mm|CornerRadius=0.015mm|HoleSize=0mm|Usage=FLASHONLY|Rotation=90.000|XOffset=0mm|YOffset=0mm|HoleType=Round|Shape=RoundedRectangle|*
%AMROUNDEDRECTD92*
21,1,0.3000,0.5200,0,0,90.0*
21,1,0.2700,0.5500,0,0,90.0*
1,1,0.0300,0.2600,0.1350*
1,1,0.0300,0.2600,-0.1350*
1,1,0.0300,-0.2600,-0.1350*
1,1,0.0300,-0.2600,0.1350*
%
%ADD92ROUNDEDRECTD92*%
%ADD93R,0.4500X0.6000*%
G04:AMPARAMS|DCode=94|XSize=1.61mm|YSize=2.36mm|CornerRadius=0mm|HoleSize=0mm|Usage=FLASHONLY|Rotation=270.000|XOffset=0mm|YOffset=0mm|HoleType=Round|Shape=RoundedRectangle|*
%AMROUNDEDRECTD94*
21,1,1.6100,2.3600,0,0,270.0*
21,1,1.6100,2.3600,0,0,270.0*
1,1,0.0000,-1.1800,-0.8050*
1,1,0.0000,-1.1800,0.8050*
1,1,0.0000,1.1800,0.8050*
1,1,0.0000,1.1800,-0.8050*
%
%ADD94ROUNDEDRECTD94*%
%ADD95R,0.5000X0.3500*%
%ADD96R,2.8000X1.4000*%
%ADD97R,1.0000X0.9500*%
%ADD98R,1.7000X0.8000*%
%ADD99R,2.8000X0.6000*%
%ADD100R,0.8000X0.3000*%
G04:AMPARAMS|DCode=101|XSize=1.145mm|YSize=0.55mm|CornerRadius=0.0275mm|HoleSize=0mm|Usage=FLASHONLY|Rotation=90.000|XOffset=0mm|YOffset=0mm|HoleType=Round|Shape=RoundedRectangle|*
%AMROUNDEDRECTD101*
21,1,1.1450,0.4950,0,0,90.0*
21,1,1.0900,0.5500,0,0,90.0*
1,1,0.0550,0.2475,0.5450*
1,1,0.0550,0.2475,-0.5450*
1,1,0.0550,-0.2475,-0.5450*
1,1,0.0550,-0.2475,0.5450*
%
%ADD101ROUNDEDRECTD101*%
G04:AMPARAMS|DCode=102|XSize=1.145mm|YSize=0.55mm|CornerRadius=0.0275mm|HoleSize=0mm|Usage=FLASHONLY|Rotation=180.000|XOffset=0mm|YOffset=0mm|HoleType=Round|Shape=RoundedRectangle|*
%AMROUNDEDRECTD102*
21,1,1.1450,0.4950,0,0,180.0*
21,1,1.0900,0.5500,0,0,180.0*
1,1,0.0550,-0.5450,0.2475*
1,1,0.0550,0.5450,0.2475*
1,1,0.0550,0.5450,-0.2475*
1,1,0.0550,-0.5450,-0.2475*
%
%ADD102ROUNDEDRECTD102*%
%ADD103R,0.9500X1.0000*%
%ADD104R,1.4000X2.8000*%
%ADD105R,0.5200X0.5500*%
G04:AMPARAMS|DCode=106|XSize=0.3mm|YSize=0.55mm|CornerRadius=0.015mm|HoleSize=0mm|Usage=FLASHONLY|Rotation=0.000|XOffset=0mm|YOffset=0mm|HoleType=Round|Shape=RoundedRectangle|*
%AMROUNDEDRECTD106*
21,1,0.3000,0.5200,0,0,0.0*
21,1,0.2700,0.5500,0,0,0.0*
1,1,0.0300,0.1350,-0.2600*
1,1,0.0300,-0.1350,-0.2600*
1,1,0.0300,-0.1350,0.2600*
1,1,0.0300,0.1350,0.2600*
%
%ADD106ROUNDEDRECTD106*%
%ADD107R,0.8500X0.6500*%
%ADD108R,0.3000X0.4500*%
%ADD109R,0.5500X0.5000*%
G04:AMPARAMS|DCode=110|XSize=0.55mm|YSize=0.52mm|CornerRadius=0mm|HoleSize=0mm|Usage=FLASHONLY|Rotation=45.000|XOffset=0mm|YOffset=0mm|HoleType=Round|Shape=Rectangle|*
%AMROTATEDRECTD110*
4,1,4,-0.0106,-0.3783,-0.3783,-0.0106,0.0106,0.3783,0.3783,0.0106,-0.0106,-0.3783,0.0*
%
%ADD110ROTATEDRECTD110*%

G04:AMPARAMS|DCode=111|XSize=0.55mm|YSize=0.52mm|CornerRadius=0mm|HoleSize=0mm|Usage=FLASHONLY|Rotation=315.000|XOffset=0mm|YOffset=0mm|HoleType=Round|Shape=Rectangle|*
%AMROTATEDRECTD111*
4,1,4,-0.3783,0.0106,-0.0106,0.3783,0.3783,-0.0106,0.0106,-0.3783,-0.3783,0.0106,0.0*
%
%ADD111ROTATEDRECTD111*%

%ADD112R,0.5000X0.4000*%
G36*
X325136Y736577D02*
Y726577D01*
X315136D01*
X315136Y736577D01*
X325136Y736577D01*
D02*
G37*
G36*
X310136D02*
Y726577D01*
X300136Y726577D01*
Y736577D01*
X310136Y736577D01*
D02*
G37*
G36*
X295136D02*
Y726577D01*
X285136Y726577D01*
X285136Y736577D01*
X295136Y736577D01*
D02*
G37*
G36*
X280136D02*
Y726577D01*
X270136D01*
Y736577D01*
X280136Y736577D01*
D02*
G37*
G36*
X325136Y711577D02*
X315136D01*
X315136Y721577D01*
X325136Y721577D01*
X325136Y711577D01*
D02*
G37*
G36*
X310136Y721577D02*
X310136Y711577D01*
X300136D01*
Y721577D01*
X310136Y721577D01*
D02*
G37*
G36*
X295136Y711577D02*
X285136D01*
X285136Y721577D01*
X295136Y721577D01*
Y711577D01*
D02*
G37*
G36*
X280136D02*
X270136D01*
Y721577D01*
X280136D01*
X280136Y711577D01*
D02*
G37*
G36*
X280136Y696577D02*
X270136D01*
Y706577D01*
X280136D01*
X280136Y696577D01*
D02*
G37*
G36*
X325136D02*
X315136Y696577D01*
X315136Y706577D01*
X325136D01*
X325136Y696577D01*
D02*
G37*
G36*
X310136D02*
X300136Y696577D01*
Y706577D01*
X310136D01*
X310136Y696577D01*
D02*
G37*
G36*
X295136Y696577D02*
X285136Y696577D01*
X285136Y706577D01*
X295136D01*
Y696577D01*
D02*
G37*
G36*
X325136Y681577D02*
X315136D01*
Y691577D01*
X325136D01*
Y681577D01*
D02*
G37*
G36*
X310136D02*
X300136D01*
Y691577D01*
X310136Y691577D01*
Y681577D01*
D02*
G37*
G36*
X295136Y691577D02*
Y681577D01*
X285136D01*
Y691577D01*
X295136Y691577D01*
D02*
G37*
G36*
X280136Y681577D02*
X270136D01*
Y691577D01*
X280136D01*
Y681577D01*
D02*
G37*
G36*
X132250Y674200D02*
X117650D01*
Y685800D01*
X132250Y685800D01*
X132250Y674200D01*
D02*
G37*
G36*
X114050Y685800D02*
X114050Y674200D01*
X99450D01*
Y685800D01*
X114050Y685800D01*
D02*
G37*
G36*
X591138Y670390D02*
X591278Y670249D01*
X591355Y670065D01*
Y669966D01*
Y668466D01*
Y668366D01*
X591278Y668183D01*
X591138Y668042D01*
X590954Y667966D01*
X589255D01*
X589071Y668042D01*
X588931Y668183D01*
X588855Y668366D01*
Y668466D01*
Y669966D01*
Y670065D01*
X588931Y670249D01*
X589071Y670390D01*
X589255Y670466D01*
X590954D01*
X591138Y670390D01*
D02*
G37*
G36*
X586138D02*
X586278Y670249D01*
X586355Y670065D01*
Y669966D01*
Y668466D01*
Y668366D01*
X586278Y668183D01*
X586138Y668042D01*
X585954Y667966D01*
X584255D01*
X584071Y668042D01*
X583931Y668183D01*
X583855Y668366D01*
Y668466D01*
Y669966D01*
Y670065D01*
X583931Y670249D01*
X584071Y670390D01*
X584255Y670466D01*
X585954D01*
X586138Y670390D01*
D02*
G37*
G36*
X581138D02*
X581278Y670249D01*
X581355Y670065D01*
Y669966D01*
Y668466D01*
Y668366D01*
X581278Y668183D01*
X581138Y668042D01*
X580954Y667966D01*
X579255D01*
X579071Y668042D01*
X578931Y668183D01*
X578855Y668366D01*
Y668466D01*
Y669966D01*
Y670065D01*
X578931Y670249D01*
X579071Y670390D01*
X579255Y670466D01*
X580954D01*
X581138Y670390D01*
D02*
G37*
G36*
X591138Y665390D02*
X591278Y665249D01*
X591355Y665065D01*
Y664966D01*
Y663466D01*
Y663366D01*
X591278Y663183D01*
X591138Y663042D01*
X590954Y662966D01*
X589255D01*
X589071Y663042D01*
X588931Y663183D01*
X588855Y663366D01*
Y663466D01*
Y664966D01*
Y665065D01*
X588931Y665249D01*
X589071Y665390D01*
X589255Y665466D01*
X590954D01*
X591138Y665390D01*
D02*
G37*
G36*
X586138D02*
X586278Y665249D01*
X586355Y665065D01*
Y664966D01*
Y663466D01*
Y663366D01*
X586278Y663183D01*
X586138Y663042D01*
X585954Y662966D01*
X584255D01*
X584071Y663042D01*
X583931Y663183D01*
X583855Y663366D01*
Y663466D01*
Y664966D01*
Y665065D01*
X583931Y665249D01*
X584071Y665390D01*
X584255Y665466D01*
X585954D01*
X586138Y665390D01*
D02*
G37*
G36*
X581138D02*
X581278Y665249D01*
X581355Y665065D01*
Y664966D01*
Y663466D01*
Y663366D01*
X581278Y663183D01*
X581138Y663042D01*
X580954Y662966D01*
X579255D01*
X579071Y663042D01*
X578931Y663183D01*
X578855Y663366D01*
Y663466D01*
Y664966D01*
Y665065D01*
X578931Y665249D01*
X579071Y665390D01*
X579255Y665466D01*
X580954D01*
X581138Y665390D01*
D02*
G37*
G36*
X114050Y659000D02*
X99450Y659000D01*
Y670600D01*
X114050D01*
X114050Y659000D01*
D02*
G37*
G36*
X132250Y659000D02*
X117650D01*
Y670600D01*
X132250D01*
Y659000D01*
D02*
G37*
G36*
X591138Y660390D02*
X591278Y660249D01*
X591355Y660065D01*
Y659966D01*
Y658466D01*
Y658366D01*
X591278Y658183D01*
X591138Y658042D01*
X590954Y657966D01*
X589255D01*
X589071Y658042D01*
X588931Y658183D01*
X588855Y658366D01*
Y658466D01*
Y659966D01*
Y660065D01*
X588931Y660249D01*
X589071Y660390D01*
X589255Y660466D01*
X590954D01*
X591138Y660390D01*
D02*
G37*
G36*
X586138D02*
X586278Y660249D01*
X586355Y660065D01*
Y659966D01*
Y658466D01*
Y658366D01*
X586278Y658183D01*
X586138Y658042D01*
X585954Y657966D01*
X584255D01*
X584071Y658042D01*
X583931Y658183D01*
X583855Y658366D01*
Y658466D01*
Y659966D01*
Y660065D01*
X583931Y660249D01*
X584071Y660390D01*
X584255Y660466D01*
X585954D01*
X586138Y660390D01*
D02*
G37*
G36*
X581138D02*
X581278Y660249D01*
X581355Y660065D01*
Y659966D01*
Y658466D01*
Y658366D01*
X581278Y658183D01*
X581138Y658042D01*
X580954Y657966D01*
X579255D01*
X579071Y658042D01*
X578931Y658183D01*
X578855Y658366D01*
Y658466D01*
Y659966D01*
Y660065D01*
X578931Y660249D01*
X579071Y660390D01*
X579255Y660466D01*
X580954D01*
X581138Y660390D01*
D02*
G37*
G36*
X396820Y632924D02*
X396961Y632783D01*
X397037Y632599D01*
Y632500D01*
Y631000D01*
Y630900D01*
X396961Y630717D01*
X396820Y630576D01*
X396636Y630500D01*
X394937D01*
X394754Y630576D01*
X394613Y630717D01*
X394537Y630900D01*
Y631000D01*
Y632500D01*
Y632599D01*
X394613Y632783D01*
X394754Y632924D01*
X394937Y633000D01*
X396636D01*
X396820Y632924D01*
D02*
G37*
G36*
X391820D02*
X391961Y632783D01*
X392037Y632599D01*
Y632500D01*
Y631000D01*
Y630900D01*
X391961Y630717D01*
X391820Y630576D01*
X391636Y630500D01*
X389937D01*
X389754Y630576D01*
X389613Y630717D01*
X389537Y630900D01*
Y631000D01*
Y632500D01*
Y632599D01*
X389613Y632783D01*
X389754Y632924D01*
X389937Y633000D01*
X391636D01*
X391820Y632924D01*
D02*
G37*
G36*
X396820Y627924D02*
X396961Y627783D01*
X397037Y627599D01*
Y627500D01*
Y626000D01*
Y625900D01*
X396961Y625717D01*
X396820Y625576D01*
X396636Y625500D01*
X394937D01*
X394754Y625576D01*
X394613Y625717D01*
X394537Y625900D01*
Y626000D01*
Y627500D01*
Y627599D01*
X394613Y627783D01*
X394754Y627924D01*
X394937Y628000D01*
X396636D01*
X396820Y627924D01*
D02*
G37*
G36*
X391820D02*
X391961Y627783D01*
X392037Y627599D01*
Y627500D01*
Y626000D01*
Y625900D01*
X391961Y625717D01*
X391820Y625576D01*
X391636Y625500D01*
X389937D01*
X389754Y625576D01*
X389613Y625717D01*
X389537Y625900D01*
Y626000D01*
Y627500D01*
Y627599D01*
X389613Y627783D01*
X389754Y627924D01*
X389937Y628000D01*
X391636D01*
X391820Y627924D01*
D02*
G37*
G36*
X600331Y627596D02*
X600472Y627455D01*
X600548Y627271D01*
Y627172D01*
Y627172D01*
Y625672D01*
Y625573D01*
X600472Y625389D01*
X600331Y625248D01*
X600148Y625172D01*
X600048D01*
Y625172D01*
X598449D01*
X598265Y625248D01*
X598124Y625389D01*
X598048Y625573D01*
Y625672D01*
Y627172D01*
Y627271D01*
X598124Y627455D01*
X598265Y627596D01*
X598449Y627672D01*
X598548D01*
X600048Y627672D01*
X600148D01*
X600331Y627596D01*
D02*
G37*
G36*
X595331D02*
X595472Y627455D01*
X595548Y627271D01*
Y627172D01*
Y627172D01*
Y625672D01*
Y625573D01*
X595472Y625389D01*
X595331Y625248D01*
X595148Y625172D01*
X595048D01*
Y625172D01*
X593449D01*
X593265Y625248D01*
X593124Y625389D01*
X593048Y625573D01*
Y625672D01*
Y627172D01*
Y627271D01*
X593124Y627455D01*
X593265Y627596D01*
X593449Y627672D01*
X593548D01*
X595048Y627672D01*
X595148D01*
X595331Y627596D01*
D02*
G37*
G36*
X590332D02*
X590472Y627455D01*
X590548Y627271D01*
Y627172D01*
Y627172D01*
Y625672D01*
Y625573D01*
X590472Y625389D01*
X590332Y625248D01*
X590148Y625172D01*
X590048D01*
Y625172D01*
X588449D01*
X588265Y625248D01*
X588125Y625389D01*
X588048Y625573D01*
Y625672D01*
Y627172D01*
Y627271D01*
X588125Y627455D01*
X588265Y627596D01*
X588449Y627672D01*
X588548D01*
X590048Y627672D01*
X590148D01*
X590332Y627596D01*
D02*
G37*
G36*
X396820Y622924D02*
X396961Y622783D01*
X397037Y622599D01*
Y622500D01*
Y621000D01*
Y620900D01*
X396961Y620717D01*
X396820Y620576D01*
X396636Y620500D01*
X394937D01*
X394754Y620576D01*
X394613Y620717D01*
X394537Y620900D01*
Y621000D01*
Y622500D01*
Y622599D01*
X394613Y622783D01*
X394754Y622924D01*
X394937Y623000D01*
X396636D01*
X396820Y622924D01*
D02*
G37*
G36*
X391820D02*
X391961Y622783D01*
X392037Y622599D01*
Y622500D01*
Y621000D01*
Y620900D01*
X391961Y620717D01*
X391820Y620576D01*
X391636Y620500D01*
X389937D01*
X389754Y620576D01*
X389613Y620717D01*
X389537Y620900D01*
Y621000D01*
Y622500D01*
Y622599D01*
X389613Y622783D01*
X389754Y622924D01*
X389937Y623000D01*
X391636D01*
X391820Y622924D01*
D02*
G37*
G36*
X600331Y622596D02*
X600472Y622455D01*
X600548Y622271D01*
Y622172D01*
Y620672D01*
Y620573D01*
X600472Y620389D01*
X600331Y620248D01*
X600148Y620172D01*
X598449D01*
X598265Y620248D01*
X598124Y620389D01*
X598048Y620573D01*
Y620672D01*
Y622172D01*
Y622271D01*
X598124Y622455D01*
X598265Y622596D01*
X598449Y622672D01*
X600148D01*
X600331Y622596D01*
D02*
G37*
G36*
X595331D02*
X595472Y622455D01*
X595548Y622271D01*
Y622172D01*
Y620672D01*
Y620573D01*
X595472Y620389D01*
X595331Y620248D01*
X595148Y620172D01*
X593449D01*
X593265Y620248D01*
X593124Y620389D01*
X593048Y620573D01*
Y620672D01*
Y622172D01*
Y622271D01*
X593124Y622455D01*
X593265Y622596D01*
X593449Y622672D01*
X595148D01*
X595331Y622596D01*
D02*
G37*
G36*
X590332D02*
X590472Y622455D01*
X590548Y622271D01*
Y622172D01*
X590548D01*
X590548Y620672D01*
Y620573D01*
X590472Y620389D01*
X590332Y620248D01*
X590148Y620172D01*
X588449D01*
X588265Y620248D01*
X588125Y620389D01*
X588048Y620573D01*
Y620672D01*
Y622172D01*
Y622271D01*
X588125Y622455D01*
X588265Y622596D01*
X588449Y622672D01*
X590148D01*
X590332Y622596D01*
D02*
G37*
G36*
X396820Y617924D02*
X396961Y617783D01*
X397037Y617599D01*
Y617500D01*
Y616000D01*
Y615900D01*
X396961Y615717D01*
X396820Y615576D01*
X396636Y615500D01*
X394937D01*
X394754Y615576D01*
X394613Y615717D01*
X394537Y615900D01*
Y616000D01*
Y617500D01*
Y617599D01*
X394613Y617783D01*
X394754Y617924D01*
X394937Y618000D01*
X396636D01*
X396820Y617924D01*
D02*
G37*
G36*
X391820D02*
X391961Y617783D01*
X392037Y617599D01*
Y617500D01*
Y616000D01*
Y615900D01*
X391961Y615717D01*
X391820Y615576D01*
X391636Y615500D01*
X389937D01*
X389754Y615576D01*
X389613Y615717D01*
X389537Y615900D01*
Y616000D01*
Y617500D01*
Y617599D01*
X389613Y617783D01*
X389754Y617924D01*
X389937Y618000D01*
X391636D01*
X391820Y617924D01*
D02*
G37*
G36*
X600331Y617596D02*
X600472Y617455D01*
X600548Y617271D01*
Y617172D01*
Y615672D01*
Y615573D01*
X600472Y615389D01*
X600331Y615248D01*
X600148Y615172D01*
X598449D01*
X598265Y615248D01*
X598124Y615389D01*
X598048Y615573D01*
Y615672D01*
Y617172D01*
Y617271D01*
X598124Y617455D01*
X598265Y617596D01*
X598449Y617672D01*
X600148D01*
X600331Y617596D01*
D02*
G37*
G36*
X595331D02*
X595472Y617455D01*
X595548Y617271D01*
Y617172D01*
Y615672D01*
Y615573D01*
X595472Y615389D01*
X595331Y615248D01*
X595148Y615172D01*
X593449D01*
X593265Y615248D01*
X593124Y615389D01*
X593048Y615573D01*
Y615672D01*
X593048D01*
X593048Y617172D01*
Y617271D01*
X593124Y617455D01*
X593265Y617596D01*
X593449Y617672D01*
X595148D01*
X595331Y617596D01*
D02*
G37*
G36*
X590332D02*
X590472Y617455D01*
X590548Y617271D01*
Y617172D01*
Y615672D01*
Y615573D01*
X590472Y615389D01*
X590332Y615248D01*
X590148Y615172D01*
X588449D01*
X588265Y615248D01*
X588125Y615389D01*
X588048Y615573D01*
Y615672D01*
X588048D01*
X588048Y617172D01*
Y617271D01*
X588125Y617455D01*
X588265Y617596D01*
X588449Y617672D01*
X590148D01*
X590332Y617596D01*
D02*
G37*
G36*
X600331Y612596D02*
X600472Y612455D01*
X600548Y612271D01*
Y612172D01*
Y610672D01*
Y610573D01*
X600472Y610389D01*
X600331Y610248D01*
X600148Y610172D01*
X598449D01*
X598265Y610248D01*
X598124Y610389D01*
X598048Y610573D01*
Y610672D01*
Y612172D01*
Y612271D01*
X598124Y612455D01*
X598265Y612596D01*
X598449Y612672D01*
X600148D01*
X600331Y612596D01*
D02*
G37*
G36*
X595331D02*
X595472Y612455D01*
X595548Y612271D01*
Y612172D01*
Y610672D01*
Y610573D01*
X595472Y610389D01*
X595331Y610248D01*
X595148Y610172D01*
X593449D01*
X593265Y610248D01*
X593124Y610389D01*
X593048Y610573D01*
Y610672D01*
X593048D01*
X593048Y612172D01*
Y612271D01*
X593124Y612455D01*
X593265Y612596D01*
X593449Y612672D01*
X595148D01*
X595331Y612596D01*
D02*
G37*
G36*
X590332D02*
X590472Y612455D01*
X590548Y612271D01*
Y612172D01*
Y610672D01*
Y610573D01*
X590472Y610389D01*
X590332Y610248D01*
X590148Y610172D01*
X588449D01*
X588265Y610248D01*
X588125Y610389D01*
X588048Y610573D01*
Y610672D01*
X588048D01*
X588048Y612172D01*
Y612271D01*
X588125Y612455D01*
X588265Y612596D01*
X588449Y612672D01*
X590148D01*
X590332Y612596D01*
D02*
G37*
G36*
X600331Y607596D02*
X600472Y607455D01*
X600548Y607271D01*
Y607172D01*
Y605672D01*
Y605573D01*
X600472Y605389D01*
X600331Y605248D01*
X600148Y605172D01*
X598449D01*
X598265Y605248D01*
X598124Y605389D01*
X598048Y605573D01*
Y605672D01*
Y607172D01*
Y607271D01*
X598124Y607455D01*
X598265Y607596D01*
X598449Y607672D01*
X600148D01*
X600331Y607596D01*
D02*
G37*
G36*
X595331D02*
X595472Y607455D01*
X595548Y607271D01*
Y607172D01*
Y605672D01*
Y605573D01*
X595472Y605389D01*
X595331Y605248D01*
X595148Y605172D01*
X593449D01*
X593265Y605248D01*
X593124Y605389D01*
X593048Y605573D01*
Y605672D01*
X593048D01*
X593048Y607172D01*
Y607271D01*
X593124Y607455D01*
X593265Y607596D01*
X593449Y607672D01*
X595148D01*
X595331Y607596D01*
D02*
G37*
G36*
X590332D02*
X590472Y607455D01*
X590548Y607271D01*
Y607172D01*
Y605672D01*
Y605573D01*
X590472Y605389D01*
X590332Y605248D01*
X590148Y605172D01*
X588449D01*
X588265Y605248D01*
X588125Y605389D01*
X588048Y605573D01*
Y605672D01*
Y605672D01*
Y607172D01*
Y607271D01*
X588125Y607455D01*
X588265Y607596D01*
X588449Y607672D01*
X590148D01*
X590332Y607596D01*
D02*
G37*
G36*
X396698Y606981D02*
X396839Y606840D01*
X396915Y606656D01*
Y606557D01*
Y605057D01*
Y604958D01*
X396839Y604774D01*
X396698Y604633D01*
X396514Y604557D01*
X394815D01*
X394632Y604633D01*
X394491Y604774D01*
X394415Y604958D01*
Y605057D01*
Y606557D01*
Y606656D01*
X394491Y606840D01*
X394632Y606981D01*
X394815Y607057D01*
X396514D01*
X396698Y606981D01*
D02*
G37*
G36*
X391698D02*
X391839Y606840D01*
X391915Y606656D01*
Y606557D01*
Y605057D01*
Y604958D01*
X391839Y604774D01*
X391698Y604633D01*
X391514Y604557D01*
X389815D01*
X389632Y604633D01*
X389491Y604774D01*
X389415Y604958D01*
Y605057D01*
Y606557D01*
Y606656D01*
X389491Y606840D01*
X389632Y606981D01*
X389815Y607057D01*
X391514D01*
X391698Y606981D01*
D02*
G37*
G36*
X396698Y601981D02*
X396839Y601840D01*
X396915Y601656D01*
Y601557D01*
Y600057D01*
Y599958D01*
X396839Y599774D01*
X396698Y599633D01*
X396514Y599557D01*
X396415D01*
Y599557D01*
X394915Y599557D01*
X394815D01*
X394632Y599633D01*
X394491Y599774D01*
X394415Y599958D01*
Y600057D01*
Y601557D01*
Y601656D01*
X394491Y601840D01*
X394632Y601981D01*
X394815Y602057D01*
X396514D01*
X396698Y601981D01*
D02*
G37*
G36*
X391698D02*
X391839Y601840D01*
X391915Y601656D01*
Y601557D01*
Y600057D01*
Y599958D01*
X391839Y599774D01*
X391698Y599633D01*
X391514Y599557D01*
X391415D01*
Y599557D01*
X389915Y599557D01*
X389815D01*
X389632Y599633D01*
X389491Y599774D01*
X389415Y599958D01*
Y600057D01*
X389415D01*
X389415Y601557D01*
Y601656D01*
X389491Y601840D01*
X389632Y601981D01*
X389815Y602057D01*
X391514D01*
X391698Y601981D01*
D02*
G37*
G36*
X396698Y596981D02*
X396839Y596840D01*
X396915Y596656D01*
Y596557D01*
Y595057D01*
Y594958D01*
X396839Y594774D01*
X396698Y594633D01*
X396514Y594557D01*
X394815D01*
X394632Y594633D01*
X394491Y594774D01*
X394415Y594958D01*
Y595057D01*
Y596557D01*
Y596656D01*
X394491Y596840D01*
X394632Y596981D01*
X394815Y597057D01*
X396514D01*
X396698Y596981D01*
D02*
G37*
G36*
X391698D02*
X391839Y596840D01*
X391915Y596656D01*
Y596557D01*
Y595057D01*
Y594958D01*
X391839Y594774D01*
X391698Y594633D01*
X391514Y594557D01*
X389815D01*
X389632Y594633D01*
X389491Y594774D01*
X389415Y594958D01*
Y595057D01*
X389415D01*
X389415Y596557D01*
Y596656D01*
X389491Y596840D01*
X389632Y596981D01*
X389815Y597057D01*
X391514D01*
X391698Y596981D01*
D02*
G37*
G36*
X396698Y591981D02*
X396839Y591840D01*
X396915Y591656D01*
Y591557D01*
Y590057D01*
Y589958D01*
X396839Y589774D01*
X396698Y589633D01*
X396514Y589557D01*
X394815D01*
X394632Y589633D01*
X394491Y589774D01*
X394415Y589958D01*
Y590057D01*
Y591557D01*
Y591656D01*
X394491Y591840D01*
X394632Y591981D01*
X394815Y592057D01*
X396514D01*
X396698Y591981D01*
D02*
G37*
G36*
X391698D02*
X391839Y591840D01*
X391915Y591656D01*
Y591557D01*
Y590057D01*
Y589958D01*
X391839Y589774D01*
X391698Y589633D01*
X391514Y589557D01*
X389815D01*
X389632Y589633D01*
X389491Y589774D01*
X389415Y589958D01*
Y590057D01*
X389415D01*
X389415Y591557D01*
Y591656D01*
X389491Y591840D01*
X389632Y591981D01*
X389815Y592057D01*
X391514D01*
X391698Y591981D01*
D02*
G37*
G36*
X522533Y515424D02*
X522674Y515283D01*
X522750Y515099D01*
Y515000D01*
Y513500D01*
Y513400D01*
X522674Y513217D01*
X522533Y513076D01*
X522350Y513000D01*
X520650D01*
X520467Y513076D01*
X520326Y513217D01*
X520250Y513400D01*
Y513500D01*
Y515000D01*
Y515099D01*
X520326Y515283D01*
X520467Y515424D01*
X520650Y515500D01*
X522350D01*
X522533Y515424D01*
D02*
G37*
G36*
X517533D02*
X517674Y515283D01*
X517750Y515099D01*
Y515000D01*
X517750D01*
X517750Y513500D01*
Y513400D01*
X517674Y513217D01*
X517533Y513076D01*
X517350Y513000D01*
X515651D01*
X515467Y513076D01*
X515326Y513217D01*
X515250Y513400D01*
Y513500D01*
Y515000D01*
Y515099D01*
X515326Y515283D01*
X515467Y515424D01*
X515651Y515500D01*
X517350D01*
X517533Y515424D01*
D02*
G37*
G36*
X555533Y514174D02*
X555674Y514033D01*
X555750Y513849D01*
Y513750D01*
X555750D01*
X555750Y512250D01*
Y512150D01*
X555674Y511967D01*
X555533Y511826D01*
X555349Y511750D01*
X553651D01*
X553467Y511826D01*
X553326Y511967D01*
X553250Y512150D01*
Y512250D01*
Y513750D01*
Y513849D01*
X553326Y514033D01*
X553467Y514174D01*
X553651Y514250D01*
X555349D01*
X555533Y514174D01*
D02*
G37*
G36*
X550533D02*
X550674Y514033D01*
X550750Y513849D01*
Y513750D01*
Y512250D01*
Y512150D01*
X550674Y511967D01*
X550533Y511826D01*
X550349Y511750D01*
X548651D01*
X548467Y511826D01*
X548326Y511967D01*
X548250Y512150D01*
Y512250D01*
Y513750D01*
Y513849D01*
X548326Y514033D01*
X548467Y514174D01*
X548651Y514250D01*
X550349D01*
X550533Y514174D01*
D02*
G37*
G36*
X586415Y513957D02*
X586556Y513816D01*
X586632Y513633D01*
Y513533D01*
Y513533D01*
Y512033D01*
Y511934D01*
X586556Y511750D01*
X586415Y511609D01*
X586231Y511533D01*
X584533D01*
X584349Y511609D01*
X584208Y511750D01*
X584132Y511934D01*
Y512033D01*
Y513533D01*
Y513633D01*
X584208Y513816D01*
X584349Y513957D01*
X584533Y514033D01*
X586231D01*
X586415Y513957D01*
D02*
G37*
G36*
X581415D02*
X581556Y513816D01*
X581632Y513633D01*
Y513533D01*
X581632D01*
X581632Y512033D01*
Y511934D01*
X581556Y511750D01*
X581415Y511609D01*
X581231Y511533D01*
X579533D01*
X579349Y511609D01*
X579208Y511750D01*
X579132Y511934D01*
Y512033D01*
Y513533D01*
Y513633D01*
X579208Y513816D01*
X579349Y513957D01*
X579533Y514033D01*
X581231D01*
X581415Y513957D01*
D02*
G37*
G36*
X622915Y513424D02*
X623056Y513283D01*
X623132Y513099D01*
Y513000D01*
Y511500D01*
Y511400D01*
X623056Y511217D01*
X622915Y511076D01*
X622732Y511000D01*
X621033D01*
X620849Y511076D01*
X620708Y511217D01*
X620632Y511400D01*
Y511500D01*
Y513000D01*
Y513099D01*
X620708Y513283D01*
X620849Y513424D01*
X621033Y513500D01*
X622732D01*
X622915Y513424D01*
D02*
G37*
G36*
X617915D02*
X618056Y513283D01*
X618132Y513099D01*
Y513000D01*
X618132D01*
X618132Y511500D01*
Y511400D01*
X618056Y511217D01*
X617915Y511076D01*
X617732Y511000D01*
X616033D01*
X615849Y511076D01*
X615708Y511217D01*
X615632Y511400D01*
Y511500D01*
Y513000D01*
Y513099D01*
X615708Y513283D01*
X615849Y513424D01*
X616033Y513500D01*
X617732D01*
X617915Y513424D01*
D02*
G37*
G36*
X522533Y510424D02*
X522674Y510283D01*
X522750Y510099D01*
Y510000D01*
Y508500D01*
Y508400D01*
X522674Y508217D01*
X522533Y508076D01*
X522350Y508000D01*
X522250D01*
Y508000D01*
X520750Y508000D01*
X520650D01*
X520467Y508076D01*
X520326Y508217D01*
X520250Y508400D01*
Y508500D01*
Y510000D01*
Y510099D01*
X520326Y510283D01*
X520467Y510424D01*
X520650Y510500D01*
X522350D01*
X522533Y510424D01*
D02*
G37*
G36*
X517533D02*
X517674Y510283D01*
X517750Y510099D01*
Y510000D01*
Y508500D01*
Y508400D01*
X517674Y508217D01*
X517533Y508076D01*
X517350Y508000D01*
X517250D01*
Y508000D01*
X515750Y508000D01*
X515651D01*
X515467Y508076D01*
X515326Y508217D01*
X515250Y508400D01*
Y508500D01*
X515250D01*
X515250Y510000D01*
Y510099D01*
X515326Y510283D01*
X515467Y510424D01*
X515651Y510500D01*
X517350D01*
X517533Y510424D01*
D02*
G37*
G36*
X555533Y509174D02*
X555674Y509033D01*
X555750Y508849D01*
Y508750D01*
X555750D01*
X555750Y507250D01*
Y507150D01*
X555674Y506967D01*
X555533Y506826D01*
X555349Y506750D01*
X553651D01*
X553467Y506826D01*
X553326Y506967D01*
X553250Y507150D01*
Y507250D01*
Y508750D01*
Y508849D01*
X553326Y509033D01*
X553467Y509174D01*
X553651Y509250D01*
X555349D01*
X555533Y509174D01*
D02*
G37*
G36*
X550533D02*
X550674Y509033D01*
X550750Y508849D01*
Y508750D01*
Y507250D01*
Y507150D01*
X550674Y506967D01*
X550533Y506826D01*
X550349Y506750D01*
X548651D01*
X548467Y506826D01*
X548326Y506967D01*
X548250Y507150D01*
Y507250D01*
Y508750D01*
Y508849D01*
X548326Y509033D01*
X548467Y509174D01*
X548651Y509250D01*
X550349D01*
X550533Y509174D01*
D02*
G37*
G36*
X586415Y508957D02*
X586556Y508816D01*
X586632Y508633D01*
Y508533D01*
X586632D01*
X586632Y507033D01*
Y506934D01*
X586556Y506750D01*
X586415Y506609D01*
X586231Y506533D01*
X584533D01*
X584349Y506609D01*
X584208Y506750D01*
X584132Y506934D01*
Y507033D01*
Y508533D01*
Y508633D01*
X584208Y508816D01*
X584349Y508957D01*
X584533Y509033D01*
X586231D01*
X586415Y508957D01*
D02*
G37*
G36*
X581415D02*
X581556Y508816D01*
X581632Y508633D01*
Y508533D01*
X581632D01*
X581632Y507033D01*
Y506934D01*
X581556Y506750D01*
X581415Y506609D01*
X581231Y506533D01*
X579533D01*
X579349Y506609D01*
X579208Y506750D01*
X579132Y506934D01*
Y507033D01*
Y508533D01*
Y508633D01*
X579208Y508816D01*
X579349Y508957D01*
X579533Y509033D01*
X581231D01*
X581415Y508957D01*
D02*
G37*
G36*
X622915Y508424D02*
X623056Y508283D01*
X623132Y508099D01*
Y508000D01*
Y506500D01*
Y506400D01*
X623056Y506217D01*
X622915Y506076D01*
X622732Y506000D01*
X622632D01*
Y506000D01*
X621132Y506000D01*
X621033D01*
X620849Y506076D01*
X620708Y506217D01*
X620632Y506400D01*
Y506500D01*
Y508000D01*
Y508099D01*
X620708Y508283D01*
X620849Y508424D01*
X621033Y508500D01*
X622732D01*
X622915Y508424D01*
D02*
G37*
G36*
X617915D02*
X618056Y508283D01*
X618132Y508099D01*
Y508000D01*
Y506500D01*
Y506400D01*
X618056Y506217D01*
X617915Y506076D01*
X617732Y506000D01*
X617632D01*
Y506000D01*
X616132Y506000D01*
X616033D01*
X615849Y506076D01*
X615708Y506217D01*
X615632Y506400D01*
Y506500D01*
X615632D01*
X615632Y508000D01*
Y508099D01*
X615708Y508283D01*
X615849Y508424D01*
X616033Y508500D01*
X617732D01*
X617915Y508424D01*
D02*
G37*
G36*
X555533Y504174D02*
X555674Y504033D01*
X555750Y503849D01*
Y503750D01*
X555750D01*
X555750Y502250D01*
Y502151D01*
X555674Y501967D01*
X555533Y501826D01*
X555349Y501750D01*
X553651D01*
X553467Y501826D01*
X553326Y501967D01*
X553250Y502151D01*
Y502250D01*
Y503750D01*
Y503849D01*
X553326Y504033D01*
X553467Y504174D01*
X553651Y504250D01*
X553750D01*
Y504250D01*
X555250Y504250D01*
X555349D01*
X555533Y504174D01*
D02*
G37*
G36*
X550533D02*
X550674Y504033D01*
X550750Y503849D01*
Y503750D01*
Y502250D01*
Y502151D01*
X550674Y501967D01*
X550533Y501826D01*
X550349Y501750D01*
X548651D01*
X548467Y501826D01*
X548326Y501967D01*
X548250Y502151D01*
Y502250D01*
Y503750D01*
Y503849D01*
X548326Y504033D01*
X548467Y504174D01*
X548651Y504250D01*
X548750D01*
Y504250D01*
X550250Y504250D01*
X550349D01*
X550533Y504174D01*
D02*
G37*
G36*
X522533Y505424D02*
X522674Y505283D01*
X522750Y505099D01*
Y505000D01*
Y503500D01*
Y503400D01*
X522674Y503217D01*
X522533Y503076D01*
X522350Y503000D01*
X520650D01*
X520467Y503076D01*
X520326Y503217D01*
X520250Y503400D01*
Y503500D01*
Y505000D01*
Y505099D01*
X520326Y505283D01*
X520467Y505424D01*
X520650Y505500D01*
X522350D01*
X522533Y505424D01*
D02*
G37*
G36*
X517533D02*
X517674Y505283D01*
X517750Y505099D01*
Y505000D01*
Y503500D01*
Y503400D01*
X517674Y503217D01*
X517533Y503076D01*
X517350Y503000D01*
X515651D01*
X515467Y503076D01*
X515326Y503217D01*
X515250Y503400D01*
Y503500D01*
X515250D01*
X515250Y505000D01*
Y505099D01*
X515326Y505283D01*
X515467Y505424D01*
X515651Y505500D01*
X517350D01*
X517533Y505424D01*
D02*
G37*
G36*
X586415Y503957D02*
X586556Y503816D01*
X586632Y503633D01*
Y503533D01*
X586632D01*
X586632Y502033D01*
Y501934D01*
X586556Y501750D01*
X586415Y501609D01*
X586231Y501533D01*
X584533D01*
X584349Y501609D01*
X584208Y501750D01*
X584132Y501934D01*
Y502033D01*
Y503533D01*
Y503633D01*
X584208Y503816D01*
X584349Y503957D01*
X584533Y504033D01*
X586231D01*
X586415Y503957D01*
D02*
G37*
G36*
X581415D02*
X581556Y503816D01*
X581632Y503633D01*
Y503533D01*
X581632D01*
X581632Y502033D01*
Y501934D01*
X581556Y501750D01*
X581415Y501609D01*
X581231Y501533D01*
X579533D01*
X579349Y501609D01*
X579208Y501750D01*
X579132Y501934D01*
Y502033D01*
Y503533D01*
Y503633D01*
X579208Y503816D01*
X579349Y503957D01*
X579533Y504033D01*
X581231D01*
X581415Y503957D01*
D02*
G37*
G36*
X622915Y503424D02*
X623056Y503283D01*
X623132Y503099D01*
Y503000D01*
Y501500D01*
Y501400D01*
X623056Y501217D01*
X622915Y501076D01*
X622732Y501000D01*
X621033D01*
X620849Y501076D01*
X620708Y501217D01*
X620632Y501400D01*
Y501500D01*
Y503000D01*
Y503099D01*
X620708Y503283D01*
X620849Y503424D01*
X621033Y503500D01*
X622732D01*
X622915Y503424D01*
D02*
G37*
G36*
X617915D02*
X618056Y503283D01*
X618132Y503099D01*
Y503000D01*
Y501500D01*
Y501400D01*
X618056Y501217D01*
X617915Y501076D01*
X617732Y501000D01*
X616033D01*
X615849Y501076D01*
X615708Y501217D01*
X615632Y501400D01*
Y501500D01*
X615632D01*
X615632Y503000D01*
Y503099D01*
X615708Y503283D01*
X615849Y503424D01*
X616033Y503500D01*
X617732D01*
X617915Y503424D01*
D02*
G37*
G36*
X522533Y500424D02*
X522674Y500283D01*
X522750Y500099D01*
Y500000D01*
Y498500D01*
Y498401D01*
X522674Y498217D01*
X522533Y498076D01*
X522350Y498000D01*
X520650D01*
X520467Y498076D01*
X520326Y498217D01*
X520250Y498401D01*
Y498500D01*
Y500000D01*
Y500099D01*
X520326Y500283D01*
X520467Y500424D01*
X520650Y500500D01*
X522350D01*
X522533Y500424D01*
D02*
G37*
G36*
X517533D02*
X517674Y500283D01*
X517750Y500099D01*
Y500000D01*
Y498500D01*
Y498401D01*
X517674Y498217D01*
X517533Y498076D01*
X517350Y498000D01*
X515651D01*
X515467Y498076D01*
X515326Y498217D01*
X515250Y498401D01*
Y498500D01*
X515250D01*
X515250Y500000D01*
Y500099D01*
X515326Y500283D01*
X515467Y500424D01*
X515651Y500500D01*
X517350D01*
X517533Y500424D01*
D02*
G37*
G36*
X555533Y499174D02*
X555674Y499033D01*
X555750Y498849D01*
Y498750D01*
Y497250D01*
Y497150D01*
X555674Y496967D01*
X555533Y496826D01*
X555349Y496750D01*
X553651D01*
X553467Y496826D01*
X553326Y496967D01*
X553250Y497150D01*
Y497250D01*
X553250D01*
X553250Y498750D01*
Y498849D01*
X553326Y499033D01*
X553467Y499174D01*
X553651Y499250D01*
X555349D01*
X555533Y499174D01*
D02*
G37*
G36*
X550533D02*
X550674Y499033D01*
X550750Y498849D01*
Y498750D01*
Y497250D01*
Y497150D01*
X550674Y496967D01*
X550533Y496826D01*
X550349Y496750D01*
X548651D01*
X548467Y496826D01*
X548326Y496967D01*
X548250Y497150D01*
Y497250D01*
Y498750D01*
Y498849D01*
X548326Y499033D01*
X548467Y499174D01*
X548651Y499250D01*
X550349D01*
X550533Y499174D01*
D02*
G37*
G36*
X586415Y498957D02*
X586556Y498816D01*
X586632Y498633D01*
Y498533D01*
Y497033D01*
Y496934D01*
X586556Y496750D01*
X586415Y496609D01*
X586231Y496533D01*
X584533D01*
X584349Y496609D01*
X584208Y496750D01*
X584132Y496934D01*
Y497033D01*
X584132D01*
X584132Y498533D01*
Y498633D01*
X584208Y498816D01*
X584349Y498957D01*
X584533Y499033D01*
X586231D01*
X586415Y498957D01*
D02*
G37*
G36*
X581415D02*
X581556Y498816D01*
X581632Y498633D01*
Y498533D01*
Y497033D01*
Y496934D01*
X581556Y496750D01*
X581415Y496609D01*
X581231Y496533D01*
X579533D01*
X579349Y496609D01*
X579208Y496750D01*
X579132Y496934D01*
Y497033D01*
Y498533D01*
Y498633D01*
X579208Y498816D01*
X579349Y498957D01*
X579533Y499033D01*
X581231D01*
X581415Y498957D01*
D02*
G37*
G36*
X622915Y498424D02*
X623056Y498283D01*
X623132Y498099D01*
Y498000D01*
Y496500D01*
Y496400D01*
X623056Y496217D01*
X622915Y496076D01*
X622732Y496000D01*
X621033D01*
X620849Y496076D01*
X620708Y496217D01*
X620632Y496400D01*
Y496500D01*
Y498000D01*
Y498099D01*
X620708Y498283D01*
X620849Y498424D01*
X621033Y498500D01*
X622732D01*
X622915Y498424D01*
D02*
G37*
G36*
X617915D02*
X618056Y498283D01*
X618132Y498099D01*
Y498000D01*
Y496500D01*
Y496400D01*
X618056Y496217D01*
X617915Y496076D01*
X617732Y496000D01*
X616033D01*
X615849Y496076D01*
X615708Y496217D01*
X615632Y496400D01*
Y496500D01*
X615632D01*
X615632Y498000D01*
Y498099D01*
X615708Y498283D01*
X615849Y498424D01*
X616033Y498500D01*
X617732D01*
X617915Y498424D01*
D02*
G37*
G36*
X649132Y443293D02*
X635132D01*
Y444293D01*
X626132D01*
Y449293D01*
X635132D01*
Y450293D01*
X649132D01*
Y443293D01*
D02*
G37*
G36*
X538132Y449293D02*
X547132D01*
Y444293D01*
X538132D01*
Y443293D01*
X524132D01*
Y450293D01*
X538132D01*
Y449293D01*
D02*
G37*
G36*
X393700Y441871D02*
X393700Y437871D01*
X389700Y437872D01*
X389700Y441872D01*
X393700Y441871D01*
D02*
G37*
G36*
X379700Y437872D02*
X375700Y437871D01*
X375700Y441871D01*
X379700Y441872D01*
X379700Y437872D01*
D02*
G37*
G36*
X515042Y433851D02*
X513692Y435078D01*
X512584Y435074D01*
X512581Y436580D01*
X513692Y436578D01*
X515042Y437806D01*
X515042Y433851D01*
D02*
G37*
G36*
X387450Y436371D02*
X382450D01*
Y439371D01*
X387450D01*
Y436371D01*
D02*
G37*
G36*
X159750Y441871D02*
Y431871D01*
X149750D01*
Y441871D01*
X159750Y441871D01*
D02*
G37*
G36*
X144750Y431871D02*
X134750D01*
Y441871D01*
X144750Y441871D01*
Y431871D01*
D02*
G37*
G36*
X129750D02*
X119750D01*
Y441871D01*
X129750D01*
Y431871D01*
D02*
G37*
G36*
X649132Y431793D02*
X635132D01*
Y432793D01*
X626132D01*
Y438793D01*
X635132D01*
Y439793D01*
X649132D01*
Y431793D01*
D02*
G37*
G36*
X538132Y438793D02*
X547132D01*
Y432793D01*
X538132D01*
Y431793D01*
X524132D01*
Y439793D01*
X538132D01*
Y438793D01*
D02*
G37*
G36*
X516542Y438078D02*
X517042Y437578D01*
Y434078D01*
X516542Y433578D01*
Y429328D01*
X515042D01*
Y442328D01*
X516542D01*
Y438078D01*
D02*
G37*
G36*
X416455Y430578D02*
X417563Y430583D01*
X417566Y429076D01*
X416455Y429078D01*
X415105Y427851D01*
X415105Y431806D01*
X416455Y430578D01*
D02*
G37*
G36*
X396200Y427871D02*
X393200D01*
Y431871D01*
X396200D01*
Y427871D01*
D02*
G37*
G36*
X376200D02*
X373200D01*
Y431871D01*
X376200D01*
Y427871D01*
D02*
G37*
G36*
X415105Y423328D02*
X413605D01*
Y427578D01*
X413105Y428078D01*
Y431578D01*
X413605Y432078D01*
Y436328D01*
X415105D01*
Y423328D01*
D02*
G37*
G36*
X649132Y420793D02*
X635132D01*
Y421793D01*
X626132D01*
Y427793D01*
X635132D01*
Y428793D01*
X649132D01*
Y420793D01*
D02*
G37*
G36*
X538132Y427793D02*
X547132D01*
Y421793D01*
X538132D01*
Y420793D01*
X524132D01*
Y428793D01*
X538132D01*
Y427793D01*
D02*
G37*
G36*
X387450Y420371D02*
X382450D01*
Y423371D01*
X387450D01*
Y420371D01*
D02*
G37*
G36*
X393700Y417871D02*
X389700Y417871D01*
X389700Y421871D01*
X393700Y421871D01*
X393700Y417871D01*
D02*
G37*
G36*
X379700Y421871D02*
X379700Y417871D01*
X375700Y417871D01*
X375700Y421871D01*
X379700Y421871D01*
D02*
G37*
G36*
X159750Y416871D02*
X149750D01*
Y426871D01*
X159750D01*
X159750Y416871D01*
D02*
G37*
G36*
X144750D02*
X134750D01*
Y426871D01*
X144750D01*
Y416871D01*
D02*
G37*
G36*
X129750D02*
X119750D01*
X119750Y426871D01*
X129750Y426871D01*
Y416871D01*
D02*
G37*
G36*
X538132Y416793D02*
X547132D01*
Y410793D01*
X538132D01*
Y409793D01*
X524132D01*
Y417793D01*
X538132D01*
Y416793D01*
D02*
G37*
G36*
X649132Y409793D02*
X635132D01*
Y410793D01*
X626132D01*
Y416793D01*
X635132D01*
Y417793D01*
X649132D01*
Y409793D01*
D02*
G37*
G36*
X159750Y401871D02*
X149750D01*
Y411871D01*
X159750D01*
X159750Y401871D01*
D02*
G37*
G36*
X144750D02*
X134750Y401871D01*
Y411871D01*
X144750D01*
X144750Y401871D01*
D02*
G37*
G36*
X129750Y401871D02*
X119750Y401871D01*
X119750Y411871D01*
X129750D01*
Y401871D01*
D02*
G37*
G36*
X649132Y398793D02*
X635132D01*
Y399793D01*
X626132D01*
Y405793D01*
X635132D01*
Y406793D01*
X649132D01*
Y398793D01*
D02*
G37*
G36*
X538132Y405793D02*
X547132D01*
Y399793D01*
X538132D01*
Y398793D01*
X524132D01*
Y406793D01*
X538132D01*
Y405793D01*
D02*
G37*
G36*
Y394793D02*
X547132D01*
Y388793D01*
X538132D01*
Y387793D01*
X524132D01*
Y395793D01*
X538132D01*
Y394793D01*
D02*
G37*
G36*
X649132Y387793D02*
X635132D01*
Y388793D01*
X626132D01*
Y394793D01*
X635132D01*
Y395793D01*
X649132D01*
Y387793D01*
D02*
G37*
G36*
Y376793D02*
X635132D01*
Y377793D01*
X626132D01*
Y383793D01*
X635132D01*
Y384793D01*
X649132D01*
Y376793D01*
D02*
G37*
G36*
X538132Y383793D02*
X547132D01*
Y377793D01*
X538132D01*
Y376793D01*
X524132D01*
Y384793D01*
X538132D01*
Y383793D01*
D02*
G37*
G36*
X649132Y365793D02*
X635132D01*
Y366793D01*
X626132D01*
Y372793D01*
X635132D01*
Y373793D01*
X649132D01*
Y365793D01*
D02*
G37*
G36*
X538132Y372793D02*
X547132D01*
Y366793D01*
X538132D01*
Y365793D01*
X524132D01*
Y373793D01*
X538132D01*
Y372793D01*
D02*
G37*
G36*
X649132Y355293D02*
X635132D01*
Y356293D01*
X626132D01*
Y361293D01*
X635132D01*
Y362293D01*
X649132D01*
Y355293D01*
D02*
G37*
G36*
X538132Y361293D02*
X547132D01*
Y356293D01*
X538132D01*
Y355293D01*
X524132D01*
Y362293D01*
X538132D01*
Y361293D01*
D02*
G37*
G36*
X381785Y28251D02*
X383544Y26493D01*
X384495Y24196D01*
Y22953D01*
Y10703D01*
Y9609D01*
X383658Y7587D01*
X382110Y6040D01*
X380089Y5203D01*
X367305D01*
X365953Y5472D01*
X364679Y5999D01*
X363533Y6765D01*
X362558Y7740D01*
X361792Y8887D01*
X361264Y10161D01*
X360995Y11513D01*
Y12203D01*
Y22203D01*
Y22892D01*
X361264Y24245D01*
X361792Y25519D01*
X362558Y26665D01*
X363533Y27640D01*
X364679Y28406D01*
X365953Y28934D01*
X367305Y29203D01*
X379488D01*
X381785Y28251D01*
D02*
G37*
G36*
X304047Y28929D02*
X305321Y28401D01*
X306467Y27635D01*
X307442Y26660D01*
X308208Y25514D01*
X308736Y24240D01*
X309005Y22887D01*
Y22198D01*
Y12198D01*
Y11508D01*
X308736Y10156D01*
X308208Y8882D01*
X307442Y7735D01*
X306467Y6761D01*
X305321Y5994D01*
X304047Y5467D01*
X302694Y5198D01*
X289911D01*
X287889Y6035D01*
X286342Y7582D01*
X285505Y9604D01*
Y10698D01*
Y22948D01*
Y24191D01*
X286457Y26488D01*
X288215Y28246D01*
X290512Y29198D01*
X302694D01*
X304047Y28929D01*
D02*
G37*
G36*
X1111121Y-194961D02*
X1110667D01*
Y-195414D01*
Y-195868D01*
X1110214D01*
Y-196322D01*
X1109760D01*
Y-196775D01*
X1109307D01*
Y-197229D01*
Y-197682D01*
X1108853D01*
Y-198136D01*
X1108400D01*
Y-198589D01*
Y-199043D01*
X1107946D01*
Y-199496D01*
X1107492D01*
Y-199950D01*
X1107039D01*
Y-200404D01*
Y-200857D01*
X1106585D01*
Y-201311D01*
X1106132D01*
Y-201764D01*
X1105678D01*
Y-202218D01*
Y-202671D01*
X1105225D01*
Y-203125D01*
X1104771D01*
Y-203578D01*
X1104317D01*
Y-204032D01*
Y-204486D01*
X1103864D01*
Y-204939D01*
X1103410D01*
Y-205393D01*
Y-205846D01*
X1102957D01*
Y-206300D01*
X1102503D01*
Y-206753D01*
X1102050D01*
Y-207207D01*
Y-207661D01*
X1101596D01*
Y-208114D01*
X1101143D01*
Y-208568D01*
X1100689D01*
Y-209021D01*
Y-209475D01*
X1100236D01*
Y-209928D01*
X1099782D01*
Y-210382D01*
Y-210835D01*
X1099328D01*
Y-211289D01*
X1098875D01*
Y-211742D01*
X1098421D01*
Y-212196D01*
Y-212650D01*
X1097968D01*
Y-213103D01*
X1097514D01*
Y-213557D01*
X1097061D01*
Y-214010D01*
Y-214464D01*
X1096607D01*
Y-214917D01*
X1096153D01*
Y-215371D01*
X1095700D01*
Y-215825D01*
Y-216278D01*
Y-216732D01*
X1096153D01*
Y-217185D01*
Y-217639D01*
X1096607D01*
Y-218092D01*
X1097061D01*
Y-218546D01*
X1097514D01*
Y-218999D01*
Y-219453D01*
X1097968D01*
Y-219907D01*
X1098421D01*
Y-220360D01*
X1098875D01*
Y-220814D01*
Y-221267D01*
X1099328D01*
Y-221721D01*
X1099782D01*
Y-222174D01*
Y-222628D01*
X1100236D01*
Y-223081D01*
X1100689D01*
Y-223535D01*
X1101143D01*
Y-223988D01*
Y-224442D01*
X1101596D01*
Y-224896D01*
X1102050D01*
Y-225349D01*
X1102503D01*
Y-225803D01*
Y-226256D01*
X1102957D01*
Y-226710D01*
X1103410D01*
Y-227163D01*
X1103864D01*
Y-227617D01*
Y-228071D01*
X1104317D01*
Y-228524D01*
X1104771D01*
Y-228978D01*
X1105225D01*
Y-229431D01*
Y-229885D01*
X1105678D01*
Y-230338D01*
X1106132D01*
Y-230792D01*
X1106585D01*
Y-231245D01*
Y-231699D01*
X1107039D01*
Y-232153D01*
X1107492D01*
Y-232606D01*
X1107946D01*
Y-233060D01*
Y-233513D01*
X1108400D01*
Y-233967D01*
X1108853D01*
Y-234420D01*
Y-234874D01*
X1109307D01*
Y-235327D01*
X1109760D01*
Y-235781D01*
X1110214D01*
Y-236234D01*
Y-236688D01*
X1110667D01*
Y-237142D01*
X1111121D01*
Y-237595D01*
X1111574D01*
Y-238049D01*
X1112028D01*
Y-238502D01*
X1097514D01*
Y-238049D01*
Y-237595D01*
X1097061D01*
Y-237142D01*
X1096607D01*
Y-236688D01*
X1096153D01*
Y-236234D01*
Y-235781D01*
X1095700D01*
Y-235327D01*
X1095246D01*
Y-234874D01*
X1094793D01*
Y-234420D01*
Y-233967D01*
X1094339D01*
Y-233513D01*
X1093886D01*
Y-233060D01*
Y-232606D01*
X1093432D01*
Y-232153D01*
X1092979D01*
Y-231699D01*
X1092525D01*
Y-231245D01*
Y-230792D01*
X1092072D01*
Y-230338D01*
X1091618D01*
Y-229885D01*
X1091164D01*
Y-229431D01*
Y-228978D01*
X1090711D01*
Y-228524D01*
X1090257D01*
Y-228071D01*
Y-227617D01*
X1089804D01*
Y-227163D01*
X1089350D01*
Y-226710D01*
X1088897D01*
Y-226256D01*
Y-225803D01*
X1088443D01*
Y-225349D01*
X1087990D01*
Y-224896D01*
X1087536D01*
Y-224442D01*
X1087082D01*
Y-224896D01*
Y-225349D01*
X1086629D01*
Y-225803D01*
X1086175D01*
Y-226256D01*
X1085722D01*
Y-226710D01*
Y-227163D01*
X1085268D01*
Y-227617D01*
X1084815D01*
Y-228071D01*
Y-228524D01*
X1084361D01*
Y-228978D01*
X1083907D01*
Y-229431D01*
X1083454D01*
Y-229885D01*
Y-230338D01*
X1083000D01*
Y-230792D01*
X1082547D01*
Y-231245D01*
Y-231699D01*
X1082093D01*
Y-232153D01*
X1081640D01*
Y-232606D01*
X1081186D01*
Y-233060D01*
Y-233513D01*
X1080733D01*
Y-233967D01*
X1080279D01*
Y-234420D01*
Y-234874D01*
X1079826D01*
Y-235327D01*
X1079372D01*
Y-235781D01*
X1078918D01*
Y-236234D01*
Y-236688D01*
X1078465D01*
Y-237142D01*
X1078011D01*
Y-237595D01*
Y-238049D01*
X1077558D01*
Y-238502D01*
X1064405D01*
Y-238049D01*
X1064858D01*
Y-237595D01*
X1065312D01*
Y-237142D01*
Y-236688D01*
X1065765D01*
Y-236234D01*
X1066219D01*
Y-235781D01*
X1066672D01*
Y-235327D01*
Y-234874D01*
X1067126D01*
Y-234420D01*
X1067579D01*
Y-233967D01*
Y-233513D01*
X1068033D01*
Y-233060D01*
X1068487D01*
Y-232606D01*
X1068940D01*
Y-232153D01*
X1069394D01*
Y-231699D01*
Y-231245D01*
X1069847D01*
Y-230792D01*
X1070301D01*
Y-230338D01*
Y-229885D01*
X1070754D01*
Y-229431D01*
X1071208D01*
Y-228978D01*
X1071662D01*
Y-228524D01*
Y-228071D01*
X1072115D01*
Y-227617D01*
X1072569D01*
Y-227163D01*
X1073022D01*
Y-226710D01*
Y-226256D01*
X1073476D01*
Y-225803D01*
X1073929D01*
Y-225349D01*
X1074383D01*
Y-224896D01*
Y-224442D01*
X1074836D01*
Y-223988D01*
X1075290D01*
Y-223535D01*
X1075743D01*
Y-223081D01*
Y-222628D01*
X1076197D01*
Y-222174D01*
X1076651D01*
Y-221721D01*
X1077104D01*
Y-221267D01*
Y-220814D01*
X1077558D01*
Y-220360D01*
X1078011D01*
Y-219907D01*
X1078465D01*
Y-219453D01*
Y-218999D01*
X1078918D01*
Y-218546D01*
X1079372D01*
Y-218092D01*
Y-217639D01*
X1079826D01*
Y-217185D01*
X1080279D01*
Y-216732D01*
X1080733D01*
Y-216278D01*
Y-215825D01*
X1080279D01*
Y-215371D01*
X1079826D01*
Y-214917D01*
X1079372D01*
Y-214464D01*
Y-214010D01*
X1078918D01*
Y-213557D01*
X1078465D01*
Y-213103D01*
X1078011D01*
Y-212650D01*
Y-212196D01*
X1077558D01*
Y-211742D01*
X1077104D01*
Y-211289D01*
Y-210835D01*
X1076651D01*
Y-210382D01*
X1076197D01*
Y-209928D01*
X1075743D01*
Y-209475D01*
Y-209021D01*
X1075290D01*
Y-208568D01*
X1074836D01*
Y-208114D01*
X1074383D01*
Y-207661D01*
Y-207207D01*
X1073929D01*
Y-206753D01*
X1073476D01*
Y-206300D01*
Y-205846D01*
X1073022D01*
Y-205393D01*
X1072569D01*
Y-204939D01*
X1072115D01*
Y-204486D01*
Y-204032D01*
X1071662D01*
Y-203578D01*
X1071208D01*
Y-203125D01*
X1070754D01*
Y-202671D01*
Y-202218D01*
X1070301D01*
Y-201764D01*
X1069847D01*
Y-201311D01*
Y-200857D01*
X1069394D01*
Y-200404D01*
X1068940D01*
Y-199950D01*
X1068487D01*
Y-199496D01*
Y-199043D01*
X1068033D01*
Y-198589D01*
X1067579D01*
Y-198136D01*
X1067126D01*
Y-197682D01*
Y-197229D01*
X1066672D01*
Y-196775D01*
X1066219D01*
Y-196322D01*
Y-195868D01*
X1065765D01*
Y-195414D01*
X1065312D01*
Y-194961D01*
X1064858D01*
Y-194507D01*
X1078918D01*
Y-194961D01*
X1079372D01*
Y-195414D01*
X1079826D01*
Y-195868D01*
Y-196322D01*
X1080279D01*
Y-196775D01*
X1080733D01*
Y-197229D01*
X1081186D01*
Y-197682D01*
Y-198136D01*
X1081640D01*
Y-198589D01*
X1082093D01*
Y-199043D01*
Y-199496D01*
X1082547D01*
Y-199950D01*
X1083000D01*
Y-200404D01*
Y-200857D01*
X1083454D01*
Y-201311D01*
X1083907D01*
Y-201764D01*
X1084361D01*
Y-202218D01*
Y-202671D01*
X1084815D01*
Y-203125D01*
X1085268D01*
Y-203578D01*
Y-204032D01*
X1085722D01*
Y-204486D01*
X1086175D01*
Y-204939D01*
X1086629D01*
Y-205393D01*
Y-205846D01*
X1087082D01*
Y-206300D01*
X1087536D01*
Y-206753D01*
Y-207207D01*
X1087990D01*
Y-207661D01*
X1088443D01*
Y-208114D01*
X1088897D01*
Y-207661D01*
X1089350D01*
Y-207207D01*
Y-206753D01*
X1089804D01*
Y-206300D01*
X1090257D01*
Y-205846D01*
X1090711D01*
Y-205393D01*
Y-204939D01*
X1091164D01*
Y-204486D01*
X1091618D01*
Y-204032D01*
Y-203578D01*
X1092072D01*
Y-203125D01*
X1092525D01*
Y-202671D01*
X1092979D01*
Y-202218D01*
Y-201764D01*
X1093432D01*
Y-201311D01*
X1093886D01*
Y-200857D01*
Y-200404D01*
X1094339D01*
Y-199950D01*
X1094793D01*
Y-199496D01*
X1095246D01*
Y-199043D01*
Y-198589D01*
X1095700D01*
Y-198136D01*
X1096153D01*
Y-197682D01*
Y-197229D01*
X1096607D01*
Y-196775D01*
X1097061D01*
Y-196322D01*
X1097514D01*
Y-195868D01*
Y-195414D01*
X1097968D01*
Y-194961D01*
X1098421D01*
Y-194507D01*
X1111121D01*
Y-194961D01*
D02*
G37*
G36*
X885250Y-150059D02*
X889786D01*
Y-150512D01*
X892507D01*
Y-150966D01*
X894775D01*
Y-151419D01*
X896589D01*
Y-151873D01*
X898403D01*
Y-152327D01*
X899764D01*
Y-152780D01*
X901124D01*
Y-153234D01*
X902485D01*
Y-153687D01*
X903392D01*
Y-154141D01*
X904753D01*
Y-154594D01*
X905660D01*
Y-155048D01*
X906567D01*
Y-155501D01*
X907474D01*
Y-155955D01*
X908381D01*
Y-156409D01*
X909288D01*
Y-156862D01*
X909742D01*
Y-157316D01*
X910649D01*
Y-157769D01*
X911556D01*
Y-158223D01*
X912010D01*
Y-158676D01*
X912917D01*
Y-159130D01*
X913371D01*
Y-159584D01*
X914278D01*
Y-160037D01*
X914731D01*
Y-160491D01*
X915185D01*
Y-160944D01*
X916092D01*
Y-161398D01*
X916545D01*
Y-161851D01*
X916999D01*
Y-162305D01*
X917452D01*
Y-162758D01*
X918360D01*
Y-163212D01*
X918813D01*
Y-163666D01*
X919267D01*
Y-164119D01*
X919720D01*
Y-164573D01*
X920174D01*
Y-165026D01*
X920627D01*
Y-165480D01*
X921081D01*
Y-165933D01*
X921535D01*
Y-166387D01*
X921988D01*
Y-166840D01*
X922442D01*
Y-167294D01*
X922895D01*
Y-167747D01*
X923349D01*
Y-168201D01*
Y-168655D01*
X923802D01*
Y-169108D01*
X924256D01*
Y-169562D01*
X924709D01*
Y-170015D01*
X925163D01*
Y-170469D01*
Y-170922D01*
X925617D01*
Y-171376D01*
X926070D01*
Y-171830D01*
X926524D01*
Y-172283D01*
Y-172737D01*
X926977D01*
Y-173190D01*
X927431D01*
Y-173644D01*
Y-174097D01*
X927884D01*
Y-174551D01*
X928338D01*
Y-175004D01*
Y-175458D01*
X928791D01*
Y-175912D01*
X929245D01*
Y-176365D01*
Y-176819D01*
X929698D01*
Y-177272D01*
Y-177726D01*
X930152D01*
Y-178179D01*
Y-178633D01*
X930606D01*
Y-179086D01*
Y-179540D01*
X931059D01*
Y-179993D01*
Y-180447D01*
X931513D01*
Y-180901D01*
Y-181354D01*
X931966D01*
Y-181808D01*
Y-182261D01*
X932420D01*
Y-182715D01*
Y-183168D01*
Y-183622D01*
X932873D01*
Y-184076D01*
Y-184529D01*
X933327D01*
Y-184983D01*
Y-185436D01*
Y-185890D01*
X933781D01*
Y-186343D01*
Y-186797D01*
Y-187250D01*
X934234D01*
Y-187704D01*
Y-188158D01*
Y-188611D01*
Y-189065D01*
X934688D01*
Y-189518D01*
Y-189972D01*
Y-190425D01*
Y-190879D01*
X935141D01*
Y-191332D01*
Y-191786D01*
Y-192240D01*
Y-192693D01*
X935595D01*
Y-193147D01*
Y-193600D01*
Y-194054D01*
Y-194507D01*
Y-194961D01*
Y-195414D01*
Y-195868D01*
X936048D01*
Y-196322D01*
Y-196775D01*
Y-197229D01*
Y-197682D01*
Y-198136D01*
Y-198589D01*
Y-199043D01*
Y-199496D01*
Y-199950D01*
Y-200404D01*
Y-200857D01*
X936502D01*
Y-201311D01*
Y-201764D01*
Y-202218D01*
Y-202671D01*
Y-203125D01*
Y-203578D01*
Y-204032D01*
Y-204486D01*
Y-204939D01*
Y-205393D01*
X936048D01*
Y-205846D01*
Y-206300D01*
Y-206753D01*
Y-207207D01*
Y-207661D01*
Y-208114D01*
Y-208568D01*
Y-209021D01*
Y-209475D01*
Y-209928D01*
Y-210382D01*
X935595D01*
Y-210835D01*
Y-211289D01*
Y-211742D01*
Y-212196D01*
Y-212650D01*
Y-213103D01*
X935141D01*
Y-213557D01*
Y-214010D01*
Y-214464D01*
Y-214917D01*
Y-215371D01*
X934688D01*
Y-215825D01*
Y-216278D01*
Y-216732D01*
Y-217185D01*
X934234D01*
Y-217639D01*
Y-218092D01*
Y-218546D01*
Y-218999D01*
X933781D01*
Y-219453D01*
Y-219907D01*
Y-220360D01*
X933327D01*
Y-220814D01*
Y-221267D01*
X932873D01*
Y-221721D01*
Y-222174D01*
Y-222628D01*
X932420D01*
Y-223081D01*
Y-223535D01*
X931966D01*
Y-223988D01*
Y-224442D01*
Y-224896D01*
X931513D01*
Y-225349D01*
Y-225803D01*
X931059D01*
Y-226256D01*
Y-226710D01*
X930606D01*
Y-227163D01*
Y-227617D01*
X930152D01*
Y-228071D01*
Y-228524D01*
X929698D01*
Y-228071D01*
Y-227617D01*
Y-227163D01*
Y-226710D01*
Y-226256D01*
Y-225803D01*
Y-225349D01*
Y-224896D01*
Y-224442D01*
Y-223988D01*
Y-223535D01*
Y-223081D01*
Y-222628D01*
Y-222174D01*
Y-221721D01*
Y-221267D01*
Y-220814D01*
Y-220360D01*
Y-219907D01*
Y-219453D01*
Y-218999D01*
Y-218546D01*
Y-218092D01*
Y-217639D01*
Y-217185D01*
Y-216732D01*
Y-216278D01*
Y-215825D01*
Y-215371D01*
Y-214917D01*
Y-214464D01*
Y-214010D01*
Y-213557D01*
Y-213103D01*
Y-212650D01*
Y-212196D01*
Y-211742D01*
Y-211289D01*
Y-210835D01*
Y-210382D01*
Y-209928D01*
Y-209475D01*
Y-209021D01*
Y-208568D01*
Y-208114D01*
Y-207661D01*
Y-207207D01*
Y-206753D01*
Y-206300D01*
Y-205846D01*
Y-205393D01*
Y-204939D01*
Y-204486D01*
Y-204032D01*
Y-203578D01*
Y-203125D01*
Y-202671D01*
Y-202218D01*
Y-201764D01*
Y-201311D01*
Y-200857D01*
Y-200404D01*
Y-199950D01*
Y-199496D01*
Y-199043D01*
Y-198589D01*
Y-198136D01*
Y-197682D01*
Y-197229D01*
Y-196775D01*
Y-196322D01*
Y-195868D01*
Y-195414D01*
Y-194961D01*
Y-194507D01*
Y-194054D01*
X916999D01*
Y-194507D01*
Y-194961D01*
Y-195414D01*
Y-195868D01*
Y-196322D01*
Y-196775D01*
Y-197229D01*
Y-197682D01*
Y-198136D01*
Y-198589D01*
Y-199043D01*
Y-199496D01*
Y-199950D01*
Y-200404D01*
Y-200857D01*
Y-201311D01*
Y-201764D01*
Y-202218D01*
Y-202671D01*
Y-203125D01*
Y-203578D01*
Y-204032D01*
Y-204486D01*
Y-204939D01*
Y-205393D01*
Y-205846D01*
Y-206300D01*
Y-206753D01*
Y-207207D01*
Y-207661D01*
Y-208114D01*
Y-208568D01*
Y-209021D01*
Y-209475D01*
Y-209928D01*
Y-210382D01*
Y-210835D01*
Y-211289D01*
Y-211742D01*
Y-212196D01*
Y-212650D01*
Y-213103D01*
Y-213557D01*
Y-214010D01*
Y-214464D01*
Y-214917D01*
Y-215371D01*
Y-215825D01*
Y-216278D01*
Y-216732D01*
Y-217185D01*
Y-217639D01*
Y-218092D01*
Y-218546D01*
Y-218999D01*
Y-219453D01*
Y-219907D01*
Y-220360D01*
Y-220814D01*
Y-221267D01*
Y-221721D01*
X916545D01*
Y-222174D01*
Y-222628D01*
Y-223081D01*
Y-223535D01*
X916092D01*
Y-223988D01*
Y-224442D01*
X915638D01*
Y-224896D01*
Y-225349D01*
X915185D01*
Y-225803D01*
X914731D01*
Y-226256D01*
X914278D01*
Y-226710D01*
X913824D01*
Y-227163D01*
X913371D01*
Y-227617D01*
X912463D01*
Y-228071D01*
X911103D01*
Y-228524D01*
X904753D01*
Y-228071D01*
X903392D01*
Y-227617D01*
X902485D01*
Y-227163D01*
X902032D01*
Y-226710D01*
X901578D01*
Y-226256D01*
X901124D01*
Y-225803D01*
Y-225349D01*
X900671D01*
Y-224896D01*
Y-224442D01*
X900217D01*
Y-223988D01*
Y-223535D01*
Y-223081D01*
Y-222628D01*
X899764D01*
Y-222174D01*
Y-221721D01*
Y-221267D01*
Y-220814D01*
Y-220360D01*
Y-219907D01*
Y-219453D01*
Y-218999D01*
Y-218546D01*
Y-218092D01*
Y-217639D01*
Y-217185D01*
Y-216732D01*
Y-216278D01*
Y-215825D01*
Y-215371D01*
Y-214917D01*
Y-214464D01*
Y-214010D01*
Y-213557D01*
Y-213103D01*
Y-212650D01*
Y-212196D01*
Y-211742D01*
Y-211289D01*
Y-210835D01*
Y-210382D01*
Y-209928D01*
Y-209475D01*
Y-209021D01*
Y-208568D01*
Y-208114D01*
Y-207661D01*
Y-207207D01*
Y-206753D01*
Y-206300D01*
Y-205846D01*
Y-205393D01*
Y-204939D01*
Y-204486D01*
Y-204032D01*
Y-203578D01*
Y-203125D01*
Y-202671D01*
Y-202218D01*
Y-201764D01*
Y-201311D01*
Y-200857D01*
Y-200404D01*
Y-199950D01*
Y-199496D01*
Y-199043D01*
Y-198589D01*
Y-198136D01*
Y-197682D01*
Y-197229D01*
Y-196775D01*
Y-196322D01*
Y-195868D01*
Y-195414D01*
Y-194961D01*
Y-194507D01*
Y-194054D01*
X887064D01*
Y-194507D01*
Y-194961D01*
Y-195414D01*
Y-195868D01*
Y-196322D01*
Y-196775D01*
Y-197229D01*
Y-197682D01*
Y-198136D01*
Y-198589D01*
Y-199043D01*
Y-199496D01*
Y-199950D01*
Y-200404D01*
Y-200857D01*
Y-201311D01*
Y-201764D01*
Y-202218D01*
Y-202671D01*
Y-203125D01*
Y-203578D01*
Y-204032D01*
Y-204486D01*
Y-204939D01*
Y-205393D01*
Y-205846D01*
Y-206300D01*
Y-206753D01*
Y-207207D01*
Y-207661D01*
Y-208114D01*
Y-208568D01*
Y-209021D01*
Y-209475D01*
Y-209928D01*
Y-210382D01*
Y-210835D01*
Y-211289D01*
Y-211742D01*
Y-212196D01*
Y-212650D01*
Y-213103D01*
Y-213557D01*
Y-214010D01*
Y-214464D01*
Y-214917D01*
Y-215371D01*
Y-215825D01*
Y-216278D01*
Y-216732D01*
Y-217185D01*
Y-217639D01*
Y-218092D01*
Y-218546D01*
Y-218999D01*
Y-219453D01*
Y-219907D01*
Y-220360D01*
Y-220814D01*
Y-221267D01*
Y-221721D01*
Y-222174D01*
Y-222628D01*
Y-223081D01*
Y-223535D01*
Y-223988D01*
Y-224442D01*
Y-224896D01*
Y-225349D01*
Y-225803D01*
Y-226256D01*
Y-226710D01*
Y-227163D01*
X887518D01*
Y-227617D01*
Y-228071D01*
Y-228524D01*
Y-228978D01*
X887971D01*
Y-229431D01*
Y-229885D01*
Y-230338D01*
X888425D01*
Y-230792D01*
Y-231245D01*
Y-231699D01*
X888878D01*
Y-232153D01*
Y-232606D01*
X889332D01*
Y-233060D01*
X889786D01*
Y-233513D01*
Y-233967D01*
X890239D01*
Y-234420D01*
X890693D01*
Y-234874D01*
X891146D01*
Y-235327D01*
X891600D01*
Y-235781D01*
X892053D01*
Y-236234D01*
X892507D01*
Y-236688D01*
X893414D01*
Y-237142D01*
X893868D01*
Y-237595D01*
X894775D01*
Y-238049D01*
X895682D01*
Y-238502D01*
X896589D01*
Y-238956D01*
X897950D01*
Y-239409D01*
X899764D01*
Y-239863D01*
X908835D01*
Y-239409D01*
X910649D01*
Y-238956D01*
X911556D01*
Y-238502D01*
X912917D01*
Y-238049D01*
X913371D01*
Y-237595D01*
X914278D01*
Y-237142D01*
X914731D01*
Y-236688D01*
X915185D01*
Y-236234D01*
X916092D01*
Y-235781D01*
X916545D01*
Y-235327D01*
X916999D01*
Y-234874D01*
Y-234420D01*
X917452D01*
Y-234874D01*
Y-235327D01*
Y-235781D01*
Y-236234D01*
Y-236688D01*
Y-237142D01*
Y-237595D01*
Y-238049D01*
Y-238502D01*
Y-238956D01*
X922442D01*
Y-239409D01*
X921988D01*
Y-239863D01*
X921535D01*
Y-240317D01*
X921081D01*
Y-240770D01*
X920627D01*
Y-241224D01*
X920174D01*
Y-241677D01*
X919720D01*
Y-242131D01*
X919267D01*
Y-242584D01*
X918813D01*
Y-243038D01*
X917906D01*
Y-243491D01*
X917452D01*
Y-243945D01*
X916999D01*
Y-244398D01*
X916545D01*
Y-244852D01*
X915638D01*
Y-245306D01*
X915185D01*
Y-245759D01*
X914731D01*
Y-246213D01*
X913824D01*
Y-246666D01*
X913371D01*
Y-247120D01*
X912463D01*
Y-247573D01*
X912010D01*
Y-248027D01*
X911103D01*
Y-248480D01*
X910649D01*
Y-248934D01*
X909742D01*
Y-249388D01*
X908835D01*
Y-249841D01*
X907928D01*
Y-250295D01*
X907474D01*
Y-250748D01*
X906567D01*
Y-251202D01*
X905206D01*
Y-251655D01*
X904299D01*
Y-252109D01*
X903392D01*
Y-252563D01*
X902032D01*
Y-253016D01*
X901124D01*
Y-253470D01*
X899764D01*
Y-253923D01*
X897950D01*
Y-254377D01*
X896589D01*
Y-254830D01*
X894775D01*
Y-255284D01*
X892053D01*
Y-255737D01*
X888878D01*
Y-256191D01*
X877086D01*
Y-255737D01*
X873911D01*
Y-255284D01*
X871643D01*
Y-254830D01*
X869829D01*
Y-254377D01*
X868015D01*
Y-253923D01*
X866654D01*
Y-253470D01*
X865294D01*
Y-253016D01*
X863933D01*
Y-252563D01*
X863026D01*
Y-252109D01*
X861665D01*
Y-251655D01*
X860758D01*
Y-251202D01*
X859851D01*
Y-250748D01*
X858944D01*
Y-250295D01*
X858037D01*
Y-249841D01*
X857130D01*
Y-249388D01*
X856222D01*
Y-248934D01*
X855769D01*
Y-248480D01*
X854862D01*
Y-248027D01*
X853955D01*
Y-247573D01*
X853501D01*
Y-247120D01*
X852594D01*
Y-246666D01*
X852140D01*
Y-246213D01*
X851687D01*
Y-245759D01*
X850780D01*
Y-245306D01*
X850326D01*
Y-244852D01*
X849873D01*
Y-244398D01*
X848966D01*
Y-243945D01*
X848512D01*
Y-243491D01*
X848058D01*
Y-243038D01*
X847605D01*
Y-242584D01*
X847151D01*
Y-242131D01*
X846698D01*
Y-241677D01*
X846244D01*
Y-241224D01*
X845791D01*
Y-240770D01*
X845337D01*
Y-240317D01*
X844883D01*
Y-239863D01*
X844430D01*
Y-239409D01*
X843976D01*
Y-238956D01*
X843523D01*
Y-238502D01*
X843069D01*
Y-238049D01*
X842616D01*
Y-237595D01*
X842162D01*
Y-237142D01*
X841709D01*
Y-236688D01*
Y-236234D01*
X841255D01*
Y-235781D01*
X840801D01*
Y-235327D01*
X840348D01*
Y-234874D01*
X839894D01*
Y-234420D01*
Y-233967D01*
X839441D01*
Y-233513D01*
X838987D01*
Y-233060D01*
Y-232606D01*
X838534D01*
Y-232153D01*
X838080D01*
Y-231699D01*
Y-231245D01*
X837627D01*
Y-230792D01*
X837173D01*
Y-230338D01*
Y-229885D01*
X836720D01*
Y-229431D01*
Y-228978D01*
X836266D01*
Y-228524D01*
Y-228071D01*
X835812D01*
Y-227617D01*
Y-227163D01*
X835359D01*
Y-226710D01*
Y-226256D01*
X834905D01*
Y-225803D01*
Y-225349D01*
X834452D01*
Y-224896D01*
Y-224442D01*
X833998D01*
Y-223988D01*
Y-223535D01*
X833545D01*
Y-223081D01*
Y-222628D01*
Y-222174D01*
X833091D01*
Y-221721D01*
Y-221267D01*
Y-220814D01*
X832637D01*
Y-220360D01*
Y-219907D01*
X832184D01*
Y-219453D01*
Y-218999D01*
Y-218546D01*
Y-218092D01*
X831730D01*
Y-217639D01*
Y-217185D01*
Y-216732D01*
X831277D01*
Y-216278D01*
Y-215825D01*
Y-215371D01*
Y-214917D01*
X830823D01*
Y-214464D01*
Y-214010D01*
Y-213557D01*
Y-213103D01*
Y-212650D01*
X830370D01*
Y-212196D01*
Y-211742D01*
Y-211289D01*
Y-210835D01*
Y-210382D01*
Y-209928D01*
Y-209475D01*
X829916D01*
Y-209021D01*
Y-208568D01*
Y-208114D01*
Y-207661D01*
Y-207207D01*
Y-206753D01*
Y-206300D01*
Y-205846D01*
Y-205393D01*
Y-204939D01*
X829463D01*
Y-204486D01*
Y-204032D01*
Y-203578D01*
Y-203125D01*
Y-202671D01*
Y-202218D01*
Y-201764D01*
Y-201311D01*
Y-200857D01*
X829916D01*
Y-200404D01*
Y-199950D01*
Y-199496D01*
Y-199043D01*
Y-198589D01*
Y-198136D01*
Y-197682D01*
Y-197229D01*
Y-196775D01*
X830370D01*
Y-196322D01*
Y-195868D01*
Y-195414D01*
Y-194961D01*
Y-194507D01*
Y-194054D01*
Y-193600D01*
X830823D01*
Y-193147D01*
Y-192693D01*
Y-192240D01*
Y-191786D01*
Y-191332D01*
X831277D01*
Y-190879D01*
Y-190425D01*
Y-189972D01*
Y-189518D01*
X831730D01*
Y-189065D01*
Y-188611D01*
Y-188158D01*
Y-187704D01*
X832184D01*
Y-187250D01*
Y-186797D01*
Y-186343D01*
X832637D01*
Y-185890D01*
Y-185436D01*
Y-184983D01*
X833091D01*
Y-184529D01*
Y-184076D01*
X833545D01*
Y-183622D01*
Y-183168D01*
Y-182715D01*
X833998D01*
Y-182261D01*
Y-181808D01*
X834452D01*
Y-181354D01*
Y-180901D01*
Y-180447D01*
X834905D01*
Y-179993D01*
Y-179540D01*
X835359D01*
Y-179086D01*
Y-178633D01*
X835812D01*
Y-178179D01*
Y-177726D01*
X836266D01*
Y-177272D01*
X836720D01*
Y-176819D01*
Y-176365D01*
X837173D01*
Y-175912D01*
Y-175458D01*
X837627D01*
Y-175004D01*
X838080D01*
Y-174551D01*
Y-174097D01*
X838534D01*
Y-173644D01*
X838987D01*
Y-173190D01*
Y-172737D01*
X839441D01*
Y-172283D01*
X839894D01*
Y-171830D01*
Y-171376D01*
X840348D01*
Y-170922D01*
X840801D01*
Y-170469D01*
X841255D01*
Y-170015D01*
Y-169562D01*
X841709D01*
Y-169108D01*
X842162D01*
Y-168655D01*
X842616D01*
Y-168201D01*
X843069D01*
Y-167747D01*
X843523D01*
Y-167294D01*
X843976D01*
Y-166840D01*
X844430D01*
Y-166387D01*
Y-165933D01*
X844883D01*
Y-165480D01*
X845337D01*
Y-165026D01*
X845791D01*
Y-164573D01*
X846698D01*
Y-164119D01*
X847151D01*
Y-163666D01*
X847605D01*
Y-163212D01*
X848058D01*
Y-162758D01*
X848512D01*
Y-162305D01*
X848966D01*
Y-161851D01*
X849419D01*
Y-161398D01*
X850326D01*
Y-160944D01*
X850780D01*
Y-160491D01*
X851233D01*
Y-160037D01*
X852140D01*
Y-159584D01*
X852594D01*
Y-159130D01*
X853501D01*
Y-158676D01*
X853955D01*
Y-158223D01*
X854862D01*
Y-157769D01*
X855315D01*
Y-157316D01*
X856222D01*
Y-156862D01*
X857130D01*
Y-156409D01*
X857583D01*
Y-155955D01*
X858944D01*
Y-155501D01*
X859851D01*
Y-155048D01*
X860758D01*
Y-154594D01*
X861665D01*
Y-154141D01*
X862572D01*
Y-153687D01*
X863933D01*
Y-153234D01*
X864840D01*
Y-152780D01*
X866201D01*
Y-152327D01*
X867561D01*
Y-151873D01*
X869376D01*
Y-151419D01*
X871190D01*
Y-150966D01*
X873457D01*
Y-150512D01*
X876632D01*
Y-150059D01*
X881168D01*
Y-149605D01*
X885250D01*
Y-150059D01*
D02*
G37*
G36*
X1009071Y-177272D02*
Y-177726D01*
Y-178179D01*
Y-178633D01*
Y-179086D01*
Y-179540D01*
Y-179993D01*
Y-180447D01*
Y-180901D01*
Y-181354D01*
Y-181808D01*
Y-182261D01*
Y-182715D01*
Y-183168D01*
Y-183622D01*
Y-184076D01*
Y-184529D01*
Y-184983D01*
Y-185436D01*
Y-185890D01*
Y-186343D01*
Y-186797D01*
Y-187250D01*
Y-187704D01*
Y-188158D01*
Y-188611D01*
Y-189065D01*
Y-189518D01*
Y-189972D01*
Y-190425D01*
Y-190879D01*
Y-191332D01*
Y-191786D01*
Y-192240D01*
Y-192693D01*
Y-193147D01*
Y-193600D01*
Y-194054D01*
Y-194507D01*
Y-194961D01*
Y-195414D01*
Y-195868D01*
Y-196322D01*
Y-196775D01*
Y-197229D01*
Y-197682D01*
Y-198136D01*
Y-198589D01*
Y-199043D01*
Y-199496D01*
Y-199950D01*
Y-200404D01*
Y-200857D01*
Y-201311D01*
Y-201764D01*
Y-202218D01*
Y-202671D01*
Y-203125D01*
Y-203578D01*
Y-204032D01*
Y-204486D01*
Y-204939D01*
Y-205393D01*
Y-205846D01*
Y-206300D01*
Y-206753D01*
Y-207207D01*
Y-207661D01*
Y-208114D01*
Y-208568D01*
Y-209021D01*
Y-209475D01*
Y-209928D01*
Y-210382D01*
Y-210835D01*
Y-211289D01*
Y-211742D01*
Y-212196D01*
Y-212650D01*
Y-213103D01*
Y-213557D01*
Y-214010D01*
Y-214464D01*
Y-214917D01*
Y-215371D01*
Y-215825D01*
Y-216278D01*
Y-216732D01*
Y-217185D01*
Y-217639D01*
Y-218092D01*
Y-218546D01*
Y-218999D01*
Y-219453D01*
Y-219907D01*
Y-220360D01*
Y-220814D01*
Y-221267D01*
Y-221721D01*
Y-222174D01*
Y-222628D01*
Y-223081D01*
Y-223535D01*
Y-223988D01*
Y-224442D01*
Y-224896D01*
Y-225349D01*
Y-225803D01*
Y-226256D01*
Y-226710D01*
Y-227163D01*
Y-227617D01*
Y-228071D01*
Y-228524D01*
Y-228978D01*
Y-229431D01*
Y-229885D01*
Y-230338D01*
Y-230792D01*
Y-231245D01*
Y-231699D01*
Y-232153D01*
Y-232606D01*
Y-233060D01*
Y-233513D01*
Y-233967D01*
Y-234420D01*
Y-234874D01*
Y-235327D01*
Y-235781D01*
Y-236234D01*
Y-236688D01*
Y-237142D01*
Y-237595D01*
Y-238049D01*
Y-238502D01*
X997732D01*
Y-238049D01*
Y-237595D01*
Y-237142D01*
Y-236688D01*
Y-236234D01*
Y-235781D01*
Y-235327D01*
Y-234874D01*
Y-234420D01*
Y-233967D01*
Y-233513D01*
Y-233060D01*
Y-232606D01*
Y-232153D01*
Y-231699D01*
Y-231245D01*
Y-230792D01*
Y-230338D01*
Y-229885D01*
Y-229431D01*
Y-228978D01*
Y-228524D01*
Y-228071D01*
Y-227617D01*
Y-227163D01*
Y-226710D01*
Y-226256D01*
Y-225803D01*
Y-225349D01*
Y-224896D01*
Y-224442D01*
Y-223988D01*
Y-223535D01*
Y-223081D01*
Y-222628D01*
Y-222174D01*
Y-221721D01*
Y-221267D01*
Y-220814D01*
Y-220360D01*
Y-219907D01*
Y-219453D01*
Y-218999D01*
Y-218546D01*
Y-218092D01*
Y-217639D01*
Y-217185D01*
Y-216732D01*
Y-216278D01*
Y-215825D01*
Y-215371D01*
Y-214917D01*
Y-214464D01*
Y-214010D01*
Y-213557D01*
Y-213103D01*
Y-212650D01*
Y-212196D01*
Y-211742D01*
Y-211289D01*
Y-210835D01*
Y-210382D01*
Y-209928D01*
Y-209475D01*
Y-209021D01*
Y-208568D01*
Y-208114D01*
Y-207661D01*
Y-207207D01*
Y-206753D01*
Y-206300D01*
Y-205846D01*
Y-205393D01*
Y-204939D01*
Y-204486D01*
Y-204032D01*
Y-203578D01*
Y-203125D01*
Y-202671D01*
Y-202218D01*
Y-201764D01*
Y-201311D01*
Y-200857D01*
Y-200404D01*
Y-199950D01*
Y-199496D01*
Y-199043D01*
Y-198589D01*
Y-198136D01*
Y-197682D01*
Y-197229D01*
Y-196775D01*
Y-196322D01*
Y-195868D01*
Y-195414D01*
Y-194961D01*
Y-194507D01*
Y-194054D01*
Y-193600D01*
Y-193147D01*
Y-192693D01*
Y-192240D01*
Y-191786D01*
Y-191332D01*
Y-190879D01*
Y-190425D01*
Y-189972D01*
Y-189518D01*
Y-189065D01*
Y-188611D01*
Y-188158D01*
Y-187704D01*
Y-187250D01*
Y-186797D01*
Y-186343D01*
Y-185890D01*
Y-185436D01*
Y-184983D01*
Y-184529D01*
Y-184076D01*
Y-183622D01*
Y-183168D01*
Y-182715D01*
Y-182261D01*
Y-181808D01*
Y-181354D01*
Y-180901D01*
Y-180447D01*
Y-179993D01*
Y-179540D01*
Y-179086D01*
Y-178633D01*
Y-178179D01*
Y-177726D01*
Y-177272D01*
Y-176819D01*
X1009071D01*
Y-177272D01*
D02*
G37*
G36*
X1045355Y-194054D02*
X1047623D01*
Y-194507D01*
X1048984D01*
Y-194961D01*
X1050344D01*
Y-195414D01*
X1051252D01*
Y-195868D01*
X1052159D01*
Y-196322D01*
X1053066D01*
Y-196775D01*
X1053973D01*
Y-197229D01*
X1054426D01*
Y-197682D01*
X1055333D01*
Y-198136D01*
X1055787D01*
Y-198589D01*
X1056241D01*
Y-199043D01*
X1056694D01*
Y-199496D01*
X1057148D01*
Y-199950D01*
X1057601D01*
Y-200404D01*
X1058055D01*
Y-200857D01*
X1058508D01*
Y-201311D01*
X1058962D01*
Y-201764D01*
Y-202218D01*
X1059416D01*
Y-202671D01*
X1059869D01*
Y-203125D01*
Y-203578D01*
X1060323D01*
Y-204032D01*
Y-204486D01*
X1060776D01*
Y-204939D01*
Y-205393D01*
X1061230D01*
Y-205846D01*
Y-206300D01*
X1061683D01*
Y-206753D01*
Y-207207D01*
Y-207661D01*
X1062137D01*
Y-208114D01*
Y-208568D01*
Y-209021D01*
Y-209475D01*
Y-209928D01*
X1062590D01*
Y-210382D01*
Y-210835D01*
Y-211289D01*
Y-211742D01*
Y-212196D01*
Y-212650D01*
Y-213103D01*
X1063044D01*
Y-213557D01*
Y-214010D01*
Y-214464D01*
Y-214917D01*
Y-215371D01*
Y-215825D01*
Y-216278D01*
Y-216732D01*
Y-217185D01*
Y-217639D01*
Y-218092D01*
Y-218546D01*
Y-218999D01*
Y-219453D01*
Y-219907D01*
X1062590D01*
Y-220360D01*
Y-220814D01*
Y-221267D01*
Y-221721D01*
Y-222174D01*
Y-222628D01*
Y-223081D01*
X1062137D01*
Y-223535D01*
Y-223988D01*
Y-224442D01*
Y-224896D01*
X1061683D01*
Y-225349D01*
Y-225803D01*
Y-226256D01*
X1061230D01*
Y-226710D01*
Y-227163D01*
Y-227617D01*
X1060776D01*
Y-228071D01*
Y-228524D01*
X1060323D01*
Y-228978D01*
Y-229431D01*
X1059869D01*
Y-229885D01*
Y-230338D01*
X1059416D01*
Y-230792D01*
X1058962D01*
Y-231245D01*
X1058508D01*
Y-231699D01*
Y-232153D01*
X1058055D01*
Y-232606D01*
X1057601D01*
Y-233060D01*
X1057148D01*
Y-233513D01*
X1056694D01*
Y-233967D01*
X1056241D01*
Y-234420D01*
X1055787D01*
Y-234874D01*
X1054880D01*
Y-235327D01*
X1054426D01*
Y-235781D01*
X1053519D01*
Y-236234D01*
X1053066D01*
Y-236688D01*
X1052159D01*
Y-237142D01*
X1051252D01*
Y-237595D01*
X1049891D01*
Y-238049D01*
X1048530D01*
Y-238502D01*
X1047169D01*
Y-238956D01*
X1044902D01*
Y-239409D01*
X1035377D01*
Y-238956D01*
X1032656D01*
Y-238502D01*
X1030841D01*
Y-238049D01*
X1029934D01*
Y-237595D01*
X1028574D01*
Y-237142D01*
X1027667D01*
Y-236688D01*
X1026759D01*
Y-236234D01*
X1026306D01*
Y-235781D01*
X1025399D01*
Y-235327D01*
X1024945D01*
Y-234874D01*
X1024038D01*
Y-234420D01*
X1023585D01*
Y-233967D01*
X1023131D01*
Y-233513D01*
X1022678D01*
Y-233060D01*
X1022224D01*
Y-232606D01*
X1021770D01*
Y-232153D01*
X1021317D01*
Y-231699D01*
Y-231245D01*
X1020863D01*
Y-230792D01*
X1020410D01*
Y-230338D01*
X1019956D01*
Y-229885D01*
Y-229431D01*
X1019503D01*
Y-228978D01*
Y-228524D01*
X1019049D01*
Y-228071D01*
Y-227617D01*
X1018595D01*
Y-227163D01*
Y-226710D01*
Y-226256D01*
X1018142D01*
Y-225803D01*
Y-225349D01*
Y-224896D01*
X1017688D01*
Y-224442D01*
Y-223988D01*
Y-223535D01*
Y-223081D01*
X1017235D01*
Y-222628D01*
Y-222174D01*
Y-221721D01*
Y-221267D01*
Y-220814D01*
Y-220360D01*
Y-219907D01*
Y-219453D01*
X1016781D01*
Y-218999D01*
Y-218546D01*
Y-218092D01*
Y-217639D01*
Y-217185D01*
Y-216732D01*
Y-216278D01*
Y-215825D01*
Y-215371D01*
Y-214917D01*
Y-214464D01*
Y-214010D01*
Y-213557D01*
X1017235D01*
Y-213103D01*
Y-212650D01*
Y-212196D01*
Y-211742D01*
Y-211289D01*
Y-210835D01*
Y-210382D01*
Y-209928D01*
X1017688D01*
Y-209475D01*
Y-209021D01*
Y-208568D01*
Y-208114D01*
X1018142D01*
Y-207661D01*
Y-207207D01*
Y-206753D01*
X1018595D01*
Y-206300D01*
Y-205846D01*
Y-205393D01*
X1019049D01*
Y-204939D01*
Y-204486D01*
X1019503D01*
Y-204032D01*
Y-203578D01*
X1019956D01*
Y-203125D01*
Y-202671D01*
X1020410D01*
Y-202218D01*
X1020863D01*
Y-201764D01*
Y-201311D01*
X1021317D01*
Y-200857D01*
X1021770D01*
Y-200404D01*
X1022224D01*
Y-199950D01*
X1022678D01*
Y-199496D01*
X1023131D01*
Y-199043D01*
X1023585D01*
Y-198589D01*
X1024038D01*
Y-198136D01*
X1024492D01*
Y-197682D01*
X1025399D01*
Y-197229D01*
X1025852D01*
Y-196775D01*
X1026759D01*
Y-196322D01*
X1027667D01*
Y-195868D01*
X1028574D01*
Y-195414D01*
X1029481D01*
Y-194961D01*
X1030841D01*
Y-194507D01*
X1032202D01*
Y-194054D01*
X1034470D01*
Y-193600D01*
X1045355D01*
Y-194054D01*
D02*
G37*
G36*
X955551Y-177272D02*
Y-177726D01*
Y-178179D01*
Y-178633D01*
Y-179086D01*
Y-179540D01*
Y-179993D01*
Y-180447D01*
Y-180901D01*
Y-181354D01*
Y-181808D01*
Y-182261D01*
Y-182715D01*
Y-183168D01*
Y-183622D01*
Y-184076D01*
Y-184529D01*
Y-184983D01*
Y-185436D01*
Y-185890D01*
Y-186343D01*
Y-186797D01*
Y-187250D01*
Y-187704D01*
Y-188158D01*
Y-188611D01*
Y-189065D01*
Y-189518D01*
Y-189972D01*
Y-190425D01*
Y-190879D01*
Y-191332D01*
Y-191786D01*
Y-192240D01*
Y-192693D01*
Y-193147D01*
Y-193600D01*
Y-194054D01*
Y-194507D01*
Y-194961D01*
Y-195414D01*
Y-195868D01*
Y-196322D01*
Y-196775D01*
Y-197229D01*
Y-197682D01*
Y-198136D01*
Y-198589D01*
Y-199043D01*
Y-199496D01*
X956458D01*
Y-199043D01*
X956912D01*
Y-198589D01*
X957365D01*
Y-198136D01*
X957819D01*
Y-197682D01*
X958272D01*
Y-197229D01*
X958726D01*
Y-196775D01*
X959180D01*
Y-196322D01*
X960087D01*
Y-195868D01*
X960540D01*
Y-195414D01*
X961447D01*
Y-194961D01*
X962355D01*
Y-194507D01*
X963715D01*
Y-194054D01*
X965529D01*
Y-193600D01*
X974147D01*
Y-194054D01*
X975961D01*
Y-194507D01*
X977322D01*
Y-194961D01*
X978682D01*
Y-195414D01*
X979590D01*
Y-195868D01*
X980043D01*
Y-196322D01*
X980950D01*
Y-196775D01*
X981404D01*
Y-197229D01*
X982311D01*
Y-197682D01*
X982765D01*
Y-198136D01*
X983218D01*
Y-198589D01*
X983672D01*
Y-199043D01*
X984125D01*
Y-199496D01*
X984579D01*
Y-199950D01*
Y-200404D01*
X985032D01*
Y-200857D01*
X985486D01*
Y-201311D01*
X985939D01*
Y-201764D01*
Y-202218D01*
X986393D01*
Y-202671D01*
Y-203125D01*
X986846D01*
Y-203578D01*
Y-204032D01*
X987300D01*
Y-204486D01*
Y-204939D01*
X987754D01*
Y-205393D01*
Y-205846D01*
Y-206300D01*
X988207D01*
Y-206753D01*
Y-207207D01*
Y-207661D01*
Y-208114D01*
X988661D01*
Y-208568D01*
Y-209021D01*
Y-209475D01*
Y-209928D01*
Y-210382D01*
X989114D01*
Y-210835D01*
Y-211289D01*
Y-211742D01*
Y-212196D01*
Y-212650D01*
Y-213103D01*
Y-213557D01*
Y-214010D01*
Y-214464D01*
X989568D01*
Y-214917D01*
X989114D01*
Y-215371D01*
Y-215825D01*
Y-216278D01*
Y-216732D01*
Y-217185D01*
Y-217639D01*
Y-218092D01*
Y-218546D01*
Y-218999D01*
Y-219453D01*
Y-219907D01*
Y-220360D01*
Y-220814D01*
Y-221267D01*
Y-221721D01*
Y-222174D01*
Y-222628D01*
X988661D01*
Y-223081D01*
Y-223535D01*
Y-223988D01*
Y-224442D01*
Y-224896D01*
X988207D01*
Y-225349D01*
Y-225803D01*
Y-226256D01*
X987754D01*
Y-226710D01*
Y-227163D01*
Y-227617D01*
X987300D01*
Y-228071D01*
Y-228524D01*
Y-228978D01*
X986846D01*
Y-229431D01*
Y-229885D01*
X986393D01*
Y-230338D01*
Y-230792D01*
X985939D01*
Y-231245D01*
X985486D01*
Y-231699D01*
Y-232153D01*
X985032D01*
Y-232606D01*
X984579D01*
Y-233060D01*
X984125D01*
Y-233513D01*
X983672D01*
Y-233967D01*
Y-234420D01*
X982765D01*
Y-234874D01*
X982311D01*
Y-235327D01*
X981857D01*
Y-235781D01*
X981404D01*
Y-236234D01*
X980497D01*
Y-236688D01*
X980043D01*
Y-237142D01*
X979136D01*
Y-237595D01*
X978229D01*
Y-238049D01*
X977322D01*
Y-238502D01*
X975961D01*
Y-238956D01*
X973693D01*
Y-239409D01*
X965983D01*
Y-238956D01*
X963715D01*
Y-238502D01*
X962808D01*
Y-238049D01*
X961447D01*
Y-237595D01*
X960994D01*
Y-237142D01*
X960087D01*
Y-236688D01*
X959633D01*
Y-236234D01*
X958726D01*
Y-235781D01*
X958272D01*
Y-235327D01*
X957819D01*
Y-234874D01*
X957365D01*
Y-234420D01*
X956912D01*
Y-233967D01*
X956458D01*
Y-233513D01*
X956005D01*
Y-233060D01*
Y-232606D01*
X955098D01*
Y-233060D01*
Y-233513D01*
Y-233967D01*
Y-234420D01*
Y-234874D01*
Y-235327D01*
Y-235781D01*
Y-236234D01*
Y-236688D01*
Y-237142D01*
Y-237595D01*
Y-238049D01*
Y-238502D01*
X943759D01*
Y-238049D01*
Y-237595D01*
Y-237142D01*
Y-236688D01*
Y-236234D01*
Y-235781D01*
Y-235327D01*
Y-234874D01*
Y-234420D01*
Y-233967D01*
Y-233513D01*
Y-233060D01*
Y-232606D01*
Y-232153D01*
Y-231699D01*
Y-231245D01*
Y-230792D01*
Y-230338D01*
Y-229885D01*
Y-229431D01*
Y-228978D01*
Y-228524D01*
Y-228071D01*
Y-227617D01*
Y-227163D01*
Y-226710D01*
Y-226256D01*
Y-225803D01*
Y-225349D01*
Y-224896D01*
Y-224442D01*
Y-223988D01*
Y-223535D01*
Y-223081D01*
Y-222628D01*
Y-222174D01*
Y-221721D01*
Y-221267D01*
Y-220814D01*
Y-220360D01*
Y-219907D01*
Y-219453D01*
Y-218999D01*
Y-218546D01*
Y-218092D01*
Y-217639D01*
Y-217185D01*
Y-216732D01*
Y-216278D01*
Y-215825D01*
Y-215371D01*
Y-214917D01*
Y-214464D01*
Y-214010D01*
Y-213557D01*
Y-213103D01*
Y-212650D01*
Y-212196D01*
Y-211742D01*
Y-211289D01*
Y-210835D01*
Y-210382D01*
Y-209928D01*
Y-209475D01*
Y-209021D01*
Y-208568D01*
Y-208114D01*
Y-207661D01*
Y-207207D01*
Y-206753D01*
Y-206300D01*
Y-205846D01*
Y-205393D01*
Y-204939D01*
Y-204486D01*
Y-204032D01*
Y-203578D01*
Y-203125D01*
Y-202671D01*
Y-202218D01*
Y-201764D01*
Y-201311D01*
Y-200857D01*
Y-200404D01*
Y-199950D01*
Y-199496D01*
Y-199043D01*
Y-198589D01*
Y-198136D01*
Y-197682D01*
Y-197229D01*
Y-196775D01*
Y-196322D01*
Y-195868D01*
Y-195414D01*
Y-194961D01*
Y-194507D01*
Y-194054D01*
Y-193600D01*
Y-193147D01*
Y-192693D01*
Y-192240D01*
Y-191786D01*
Y-191332D01*
Y-190879D01*
Y-190425D01*
Y-189972D01*
Y-189518D01*
Y-189065D01*
Y-188611D01*
Y-188158D01*
Y-187704D01*
Y-187250D01*
Y-186797D01*
Y-186343D01*
Y-185890D01*
Y-185436D01*
Y-184983D01*
Y-184529D01*
Y-184076D01*
Y-183622D01*
Y-183168D01*
Y-182715D01*
Y-182261D01*
Y-181808D01*
Y-181354D01*
Y-180901D01*
Y-180447D01*
Y-179993D01*
Y-179540D01*
Y-179086D01*
Y-178633D01*
Y-178179D01*
Y-177726D01*
Y-177272D01*
Y-176819D01*
X955551D01*
Y-177272D01*
D02*
G37*
%LPC*%
G36*
X873457Y-173644D02*
X871190D01*
Y-174097D01*
X869376D01*
Y-174551D01*
X868468D01*
Y-175004D01*
X867561D01*
Y-175458D01*
X866654D01*
Y-175912D01*
X866201D01*
Y-176365D01*
X865747D01*
Y-176819D01*
X865294D01*
Y-177272D01*
X864840D01*
Y-177726D01*
Y-178179D01*
X864386D01*
Y-178633D01*
X863933D01*
Y-179086D01*
Y-179540D01*
X863479D01*
Y-179993D01*
Y-180447D01*
Y-180901D01*
Y-181354D01*
X863026D01*
Y-181808D01*
Y-182261D01*
Y-182715D01*
Y-183168D01*
Y-183622D01*
Y-184076D01*
Y-184529D01*
Y-184983D01*
X863479D01*
Y-185436D01*
Y-185890D01*
Y-186343D01*
X863933D01*
Y-186797D01*
Y-187250D01*
X864386D01*
Y-187704D01*
Y-188158D01*
X864840D01*
Y-188611D01*
X865294D01*
Y-189065D01*
X865747D01*
Y-189518D01*
X866201D01*
Y-189972D01*
X866654D01*
Y-190425D01*
X867108D01*
Y-190879D01*
X868015D01*
Y-191332D01*
X868922D01*
Y-191786D01*
X870283D01*
Y-192240D01*
X874365D01*
Y-191786D01*
X875725D01*
Y-191332D01*
X876632D01*
Y-190879D01*
X877540D01*
Y-190425D01*
X877993D01*
Y-189972D01*
X878447D01*
Y-189518D01*
X879354D01*
Y-189065D01*
Y-188611D01*
X879807D01*
Y-188158D01*
X880261D01*
Y-187704D01*
Y-187250D01*
X880714D01*
Y-186797D01*
Y-186343D01*
X881168D01*
Y-185890D01*
Y-185436D01*
Y-184983D01*
X881622D01*
Y-184529D01*
Y-184076D01*
Y-183622D01*
Y-183168D01*
Y-182715D01*
Y-182261D01*
Y-181808D01*
Y-181354D01*
X881168D01*
Y-180901D01*
Y-180447D01*
Y-179993D01*
Y-179540D01*
X880714D01*
Y-179086D01*
Y-178633D01*
X880261D01*
Y-178179D01*
Y-177726D01*
X879807D01*
Y-177272D01*
X879354D01*
Y-176819D01*
X878900D01*
Y-176365D01*
X878447D01*
Y-175912D01*
X877993D01*
Y-175458D01*
X877086D01*
Y-175004D01*
X876632D01*
Y-174551D01*
X875272D01*
Y-174097D01*
X873457D01*
Y-173644D01*
D02*
G37*
G36*
X1042180Y-203578D02*
X1037645D01*
Y-204032D01*
X1035831D01*
Y-204486D01*
X1034470D01*
Y-204939D01*
X1033563D01*
Y-205393D01*
X1033109D01*
Y-205846D01*
X1032656D01*
Y-206300D01*
X1032202D01*
Y-206753D01*
X1031749D01*
Y-207207D01*
X1031295D01*
Y-207661D01*
X1030841D01*
Y-208114D01*
X1030388D01*
Y-208568D01*
Y-209021D01*
X1029934D01*
Y-209475D01*
Y-209928D01*
X1029481D01*
Y-210382D01*
Y-210835D01*
Y-211289D01*
X1029027D01*
Y-211742D01*
Y-212196D01*
Y-212650D01*
Y-213103D01*
Y-213557D01*
Y-214010D01*
Y-214464D01*
X1028574D01*
Y-214917D01*
Y-215371D01*
Y-215825D01*
Y-216278D01*
Y-216732D01*
Y-217185D01*
Y-217639D01*
Y-218092D01*
X1029027D01*
Y-218546D01*
Y-218999D01*
Y-219453D01*
Y-219907D01*
Y-220360D01*
Y-220814D01*
Y-221267D01*
X1029481D01*
Y-221721D01*
Y-222174D01*
Y-222628D01*
X1029934D01*
Y-223081D01*
Y-223535D01*
Y-223988D01*
X1030388D01*
Y-224442D01*
X1030841D01*
Y-224896D01*
Y-225349D01*
X1031295D01*
Y-225803D01*
X1031749D01*
Y-226256D01*
X1032202D01*
Y-226710D01*
X1032656D01*
Y-227163D01*
X1033109D01*
Y-227617D01*
X1034016D01*
Y-228071D01*
X1034923D01*
Y-228524D01*
X1036284D01*
Y-228978D01*
X1038552D01*
Y-229431D01*
X1041273D01*
Y-228978D01*
X1043541D01*
Y-228524D01*
X1044902D01*
Y-228071D01*
X1045809D01*
Y-227617D01*
X1046716D01*
Y-227163D01*
X1047169D01*
Y-226710D01*
X1047623D01*
Y-226256D01*
X1048077D01*
Y-225803D01*
X1048530D01*
Y-225349D01*
X1048984D01*
Y-224896D01*
Y-224442D01*
X1049437D01*
Y-223988D01*
X1049891D01*
Y-223535D01*
Y-223081D01*
Y-222628D01*
X1050344D01*
Y-222174D01*
Y-221721D01*
Y-221267D01*
X1050798D01*
Y-220814D01*
Y-220360D01*
Y-219907D01*
Y-219453D01*
Y-218999D01*
X1051252D01*
Y-218546D01*
Y-218092D01*
Y-217639D01*
Y-217185D01*
Y-216732D01*
Y-216278D01*
Y-215825D01*
Y-215371D01*
Y-214917D01*
Y-214464D01*
Y-214010D01*
X1050798D01*
Y-213557D01*
Y-213103D01*
Y-212650D01*
Y-212196D01*
Y-211742D01*
Y-211289D01*
X1050344D01*
Y-210835D01*
Y-210382D01*
Y-209928D01*
X1049891D01*
Y-209475D01*
Y-209021D01*
X1049437D01*
Y-208568D01*
Y-208114D01*
X1048984D01*
Y-207661D01*
X1048530D01*
Y-207207D01*
X1048077D01*
Y-206753D01*
X1047623D01*
Y-206300D01*
X1047169D01*
Y-205846D01*
X1046716D01*
Y-205393D01*
X1045809D01*
Y-204939D01*
X1045355D01*
Y-204486D01*
X1043995D01*
Y-204032D01*
X1042180D01*
Y-203578D01*
D02*
G37*
G36*
X968251D02*
X964169D01*
Y-204032D01*
X962355D01*
Y-204486D01*
X960994D01*
Y-204939D01*
X960087D01*
Y-205393D01*
X959633D01*
Y-205846D01*
X958726D01*
Y-206300D01*
X958272D01*
Y-206753D01*
X957819D01*
Y-207207D01*
Y-207661D01*
X957365D01*
Y-208114D01*
X956912D01*
Y-208568D01*
Y-209021D01*
X956458D01*
Y-209475D01*
Y-209928D01*
X956005D01*
Y-210382D01*
Y-210835D01*
Y-211289D01*
X955551D01*
Y-211742D01*
Y-212196D01*
Y-212650D01*
Y-213103D01*
Y-213557D01*
X955098D01*
Y-214010D01*
Y-214464D01*
Y-214917D01*
Y-215371D01*
Y-215825D01*
Y-216278D01*
Y-216732D01*
Y-217185D01*
Y-217639D01*
Y-218092D01*
Y-218546D01*
Y-218999D01*
Y-219453D01*
X955551D01*
Y-219907D01*
Y-220360D01*
Y-220814D01*
Y-221267D01*
Y-221721D01*
X956005D01*
Y-222174D01*
Y-222628D01*
Y-223081D01*
X956458D01*
Y-223535D01*
Y-223988D01*
X956912D01*
Y-224442D01*
Y-224896D01*
X957365D01*
Y-225349D01*
X957819D01*
Y-225803D01*
X958272D01*
Y-226256D01*
X958726D01*
Y-226710D01*
X959180D01*
Y-227163D01*
X959633D01*
Y-227617D01*
X960540D01*
Y-228071D01*
X961447D01*
Y-228524D01*
X962355D01*
Y-228978D01*
X964622D01*
Y-229431D01*
X967797D01*
Y-228978D01*
X970065D01*
Y-228524D01*
X971426D01*
Y-228071D01*
X972333D01*
Y-227617D01*
X972786D01*
Y-227163D01*
X973693D01*
Y-226710D01*
X974147D01*
Y-226256D01*
X974601D01*
Y-225803D01*
X975054D01*
Y-225349D01*
Y-224896D01*
X975508D01*
Y-224442D01*
X975961D01*
Y-223988D01*
Y-223535D01*
X976415D01*
Y-223081D01*
Y-222628D01*
Y-222174D01*
X976868D01*
Y-221721D01*
Y-221267D01*
Y-220814D01*
Y-220360D01*
X977322D01*
Y-219907D01*
Y-219453D01*
Y-218999D01*
Y-218546D01*
Y-218092D01*
Y-217639D01*
Y-217185D01*
Y-216732D01*
Y-216278D01*
Y-215825D01*
Y-215371D01*
Y-214917D01*
Y-214464D01*
Y-214010D01*
Y-213557D01*
Y-213103D01*
Y-212650D01*
Y-212196D01*
X976868D01*
Y-211742D01*
Y-211289D01*
Y-210835D01*
Y-210382D01*
X976415D01*
Y-209928D01*
Y-209475D01*
X975961D01*
Y-209021D01*
Y-208568D01*
X975508D01*
Y-208114D01*
Y-207661D01*
X975054D01*
Y-207207D01*
X974601D01*
Y-206753D01*
X974147D01*
Y-206300D01*
X973693D01*
Y-205846D01*
X973240D01*
Y-205393D01*
X972333D01*
Y-204939D01*
X971426D01*
Y-204486D01*
X970518D01*
Y-204032D01*
X968251D01*
Y-203578D01*
D02*
G37*
%LPD*%
D11*
X2114560Y382643D02*
Y372485D01*
X2111174Y382643D02*
X2117946D01*
X2121574Y379257D02*
X2120606Y378773D01*
X2119639Y377806D01*
X2119155Y376355D01*
Y375387D01*
X2119639Y373936D01*
X2120606Y372969D01*
X2121574Y372485D01*
X2123025D01*
X2123992Y372969D01*
X2124960Y373936D01*
X2125443Y375387D01*
Y376355D01*
X2124960Y377806D01*
X2123992Y378773D01*
X2123025Y379257D01*
X2121574D01*
X2127668D02*
Y369099D01*
Y377806D02*
X2128636Y378773D01*
X2129603Y379257D01*
X2131054D01*
X2132022Y378773D01*
X2132989Y377806D01*
X2133473Y376355D01*
Y375387D01*
X2132989Y373936D01*
X2132022Y372969D01*
X2131054Y372485D01*
X2129603D01*
X2128636Y372969D01*
X2127668Y373936D01*
X2143631Y377322D02*
X2147984D01*
X2149435Y377806D01*
X2149919Y378289D01*
X2150403Y379257D01*
Y380708D01*
X2149919Y381675D01*
X2149435Y382159D01*
X2147984Y382643D01*
X2143631D01*
Y372485D01*
X2158481Y379257D02*
Y372485D01*
Y377806D02*
X2157513Y378773D01*
X2156546Y379257D01*
X2155095D01*
X2154127Y378773D01*
X2153160Y377806D01*
X2152676Y376355D01*
Y375387D01*
X2153160Y373936D01*
X2154127Y372969D01*
X2155095Y372485D01*
X2156546D01*
X2157513Y372969D01*
X2158481Y373936D01*
X2166510Y377806D02*
X2166026Y378773D01*
X2164575Y379257D01*
X2163124D01*
X2161673Y378773D01*
X2161189Y377806D01*
X2161673Y376838D01*
X2162640Y376355D01*
X2165059Y375871D01*
X2166026Y375387D01*
X2166510Y374420D01*
Y373936D01*
X2166026Y372969D01*
X2164575Y372485D01*
X2163124D01*
X2161673Y372969D01*
X2161189Y373936D01*
X2170090Y382643D02*
Y374420D01*
X2170573Y372969D01*
X2171541Y372485D01*
X2172508D01*
X2168638Y379257D02*
X2172024D01*
X2173959Y376355D02*
X2179764D01*
Y377322D01*
X2179280Y378289D01*
X2178796Y378773D01*
X2177829Y379257D01*
X2176378D01*
X2175410Y378773D01*
X2174443Y377806D01*
X2173959Y376355D01*
Y375387D01*
X2174443Y373936D01*
X2175410Y372969D01*
X2176378Y372485D01*
X2177829D01*
X2178796Y372969D01*
X2179764Y373936D01*
X2227580Y1486408D02*
Y1524508D01*
X2057400Y1486408D02*
Y1524508D01*
X1470660Y1486408D02*
Y1524508D01*
X1562100Y1486408D02*
Y1524508D01*
Y1681988D01*
X1470660Y1524508D02*
Y1740408D01*
Y1524508D02*
X2344420D01*
X1470660Y1486408D02*
X2344420D01*
X1582360Y-165262D02*
Y-128686D01*
X1201360D02*
X1582360D01*
X772160D02*
X1201360D01*
X1582360Y-317662D02*
Y-165262D01*
X2115760Y-317662D02*
Y-187868D01*
X1201360Y-317662D02*
Y-128686D01*
X2344360Y-317662D02*
Y-128686D01*
X1582360D02*
X2344360D01*
X1201360Y-187106D02*
X2344360D01*
X1201360Y-250352D02*
X2344360D01*
X1201360Y-317662D02*
X2344360D01*
X772160D02*
Y-128686D01*
Y-317662D02*
X1201360D01*
X2227580Y1524508D02*
Y1681988D01*
X2057400Y1524508D02*
Y1681988D01*
X1470660D02*
X2344360D01*
X1470660Y1600708D02*
X2344360D01*
X1470660Y1638808D02*
X2344420D01*
X1470660Y1562608D02*
X2344360D01*
X-398780Y-367792D02*
X2395220D01*
X2344360Y171288D02*
X2395160D01*
X2344360Y711038D02*
X2395160D01*
X2344360Y1250788D02*
X2395160D01*
X2344360Y-317662D02*
Y1739738D01*
X2395220Y-367792D02*
Y1791208D01*
X-398780D02*
X2395220D01*
X1696660Y1739738D02*
Y1790538D01*
X998160Y1739738D02*
Y1790538D01*
X299660Y1739738D02*
Y1790538D01*
X-348040Y1739738D02*
X2344360D01*
X1696660Y-368462D02*
Y-317662D01*
X998160Y-368462D02*
Y-317662D01*
X299660Y-368462D02*
Y-317662D01*
X-398840Y171288D02*
X-348040D01*
X-398840Y711038D02*
X-348040D01*
X-398840Y1250788D02*
X-348040D01*
X-398780Y-367792D02*
Y1791208D01*
X-348040Y-317662D02*
Y1739738D01*
Y-317662D02*
X2344360D01*
X1588202Y-207172D02*
Y-194476D01*
X1594550D01*
X1596666Y-196592D01*
Y-200824D01*
X1594550Y-202940D01*
X1588202D01*
X1609362Y-196592D02*
X1607246Y-194476D01*
X1603014D01*
X1600898Y-196592D01*
Y-205056D01*
X1603014Y-207172D01*
X1607246D01*
X1609362Y-205056D01*
X1613594Y-194476D02*
Y-207172D01*
X1619942D01*
X1622058Y-205056D01*
Y-202940D01*
X1619942Y-200824D01*
X1613594D01*
X1619942D01*
X1622058Y-198708D01*
Y-196592D01*
X1619942Y-194476D01*
X1613594D01*
X1638985Y-207172D02*
Y-194476D01*
X1647449Y-207172D01*
Y-194476D01*
X1651681Y-207172D02*
Y-198708D01*
X1655913Y-194476D01*
X1660145Y-198708D01*
Y-207172D01*
Y-200824D01*
X1651681D01*
X1664377Y-207172D02*
Y-194476D01*
X1668609Y-198708D01*
X1672841Y-194476D01*
Y-207172D01*
X1685537Y-194476D02*
X1677073D01*
Y-207172D01*
X1685537D01*
X1677073Y-200824D02*
X1681305D01*
X1689769Y-198708D02*
X1691885D01*
Y-200824D01*
X1689769D01*
Y-198708D01*
Y-205056D02*
X1691885D01*
Y-207172D01*
X1689769D01*
Y-205056D01*
X2128542Y-262632D02*
X2126426Y-260516D01*
X2122194D01*
X2120078Y-262632D01*
Y-264748D01*
X2122194Y-266864D01*
X2126426D01*
X2128542Y-268980D01*
Y-271096D01*
X2126426Y-273212D01*
X2122194D01*
X2120078Y-271096D01*
X2141238Y-262632D02*
X2139122Y-260516D01*
X2134890D01*
X2132774Y-262632D01*
Y-271096D01*
X2134890Y-273212D01*
X2139122D01*
X2141238Y-271096D01*
X2145470Y-273212D02*
Y-264748D01*
X2149702Y-260516D01*
X2153934Y-264748D01*
Y-273212D01*
Y-266864D01*
X2145470D01*
X2158166Y-260516D02*
Y-273212D01*
X2166630D01*
X2179326Y-260516D02*
X2170862D01*
Y-273212D01*
X2179326D01*
X2170862Y-266864D02*
X2175094D01*
X2183557Y-264748D02*
X2185673D01*
Y-266864D01*
X2183557D01*
Y-264748D01*
Y-271096D02*
X2185673D01*
Y-273212D01*
X2183557D01*
Y-271096D01*
X1595964Y-258576D02*
X1587500D01*
Y-264924D01*
X1591732D01*
X1587500D01*
Y-271272D01*
X1600196Y-258576D02*
X1604428D01*
X1602312D01*
Y-271272D01*
X1600196D01*
X1604428D01*
X1610776Y-258576D02*
Y-271272D01*
X1619240D01*
X1631936Y-258576D02*
X1623472D01*
Y-271272D01*
X1631936D01*
X1623472Y-264924D02*
X1627704D01*
X1648864Y-271272D02*
Y-258576D01*
X1657327Y-271272D01*
Y-258576D01*
X1661559Y-271272D02*
Y-262808D01*
X1665791Y-258576D01*
X1670023Y-262808D01*
Y-271272D01*
Y-264924D01*
X1661559D01*
X1674255Y-271272D02*
Y-258576D01*
X1678487Y-262808D01*
X1682719Y-258576D01*
Y-271272D01*
X1695415Y-258576D02*
X1686951D01*
Y-271272D01*
X1695415D01*
X1686951Y-264924D02*
X1691183D01*
X1699647Y-262808D02*
X1701763D01*
Y-264924D01*
X1699647D01*
Y-262808D01*
Y-269156D02*
X1701763D01*
Y-271272D01*
X1699647D01*
Y-269156D01*
X1589472Y-152816D02*
Y-140120D01*
X1595820D01*
X1597936Y-142236D01*
Y-146468D01*
X1595820Y-148584D01*
X1589472D01*
X1602168Y-152816D02*
Y-140120D01*
X1608516D01*
X1610632Y-142236D01*
Y-146468D01*
X1608516Y-148584D01*
X1602168D01*
X1606400D02*
X1610632Y-152816D01*
X1621212Y-140120D02*
X1616980D01*
X1614864Y-142236D01*
Y-150700D01*
X1616980Y-152816D01*
X1621212D01*
X1623328Y-150700D01*
Y-142236D01*
X1621212Y-140120D01*
X1636024D02*
X1631792D01*
X1633908D01*
Y-150700D01*
X1631792Y-152816D01*
X1629676D01*
X1627560Y-150700D01*
X1648719Y-140120D02*
X1640255D01*
Y-152816D01*
X1648719D01*
X1640255Y-146468D02*
X1644487D01*
X1661415Y-142236D02*
X1659299Y-140120D01*
X1655067D01*
X1652951Y-142236D01*
Y-150700D01*
X1655067Y-152816D01*
X1659299D01*
X1661415Y-150700D01*
X1665647Y-140120D02*
X1674111D01*
X1669879D01*
Y-152816D01*
X1678343Y-144352D02*
X1680459D01*
Y-146468D01*
X1678343D01*
Y-144352D01*
Y-150700D02*
X1680459D01*
Y-152816D01*
X1678343D01*
Y-150700D01*
X1212872Y-140374D02*
X1204408D01*
Y-153070D01*
X1212872D01*
X1204408Y-146722D02*
X1208640D01*
X1217104Y-153070D02*
Y-140374D01*
X1225568Y-153070D01*
Y-140374D01*
X1238264Y-142490D02*
X1236148Y-140374D01*
X1231916D01*
X1229800Y-142490D01*
Y-150954D01*
X1231916Y-153070D01*
X1236148D01*
X1238264Y-150954D01*
Y-146722D01*
X1234032D01*
X1242496Y-140374D02*
X1246728D01*
X1244612D01*
Y-153070D01*
X1242496D01*
X1246728D01*
X1253076D02*
Y-140374D01*
X1261540Y-153070D01*
Y-140374D01*
X1274235D02*
X1265771D01*
Y-153070D01*
X1274235D01*
X1265771Y-146722D02*
X1270003D01*
X1286931Y-140374D02*
X1278467D01*
Y-153070D01*
X1286931D01*
X1278467Y-146722D02*
X1282699D01*
X1291163Y-153070D02*
Y-140374D01*
X1297511D01*
X1299627Y-142490D01*
Y-146722D01*
X1297511Y-148838D01*
X1291163D01*
X1295395D02*
X1299627Y-153070D01*
X1303859Y-144606D02*
X1305975D01*
Y-146722D01*
X1303859D01*
Y-144606D01*
Y-150954D02*
X1305975D01*
Y-153070D01*
X1303859D01*
Y-150954D01*
X1206500Y-258576D02*
Y-271272D01*
X1212848D01*
X1214964Y-269156D01*
Y-260692D01*
X1212848Y-258576D01*
X1206500D01*
X1219196D02*
Y-271272D01*
X1223428Y-267040D01*
X1227660Y-271272D01*
Y-258576D01*
X1240356Y-260692D02*
X1238240Y-258576D01*
X1234008D01*
X1231892Y-260692D01*
Y-269156D01*
X1234008Y-271272D01*
X1238240D01*
X1240356Y-269156D01*
Y-264924D01*
X1236124D01*
X1257283Y-271272D02*
Y-258576D01*
X1265748Y-271272D01*
Y-258576D01*
X1276327D02*
X1272095D01*
X1269979Y-260692D01*
Y-269156D01*
X1272095Y-271272D01*
X1276327D01*
X1278443Y-269156D01*
Y-260692D01*
X1276327Y-258576D01*
X1282675Y-262808D02*
X1284791D01*
Y-264924D01*
X1282675D01*
Y-262808D01*
Y-269156D02*
X1284791D01*
Y-271272D01*
X1282675D01*
Y-269156D01*
X2121348Y-210474D02*
Y-197778D01*
X2127696D01*
X2129812Y-199894D01*
Y-204126D01*
X2127696Y-206242D01*
X2121348D01*
X2125580D02*
X2129812Y-210474D01*
X2142508Y-197778D02*
X2134044D01*
Y-210474D01*
X2142508D01*
X2134044Y-204126D02*
X2138276D01*
X2146740Y-197778D02*
Y-206242D01*
X2150972Y-210474D01*
X2155204Y-206242D01*
Y-197778D01*
X2159436Y-202010D02*
X2161552D01*
Y-204126D01*
X2159436D01*
Y-202010D01*
Y-208358D02*
X2161552D01*
Y-210474D01*
X2159436D01*
Y-208358D01*
X1205170Y-195492D02*
Y-208188D01*
X1211518D01*
X1213634Y-206072D01*
Y-197608D01*
X1211518Y-195492D01*
X1205170D01*
X1217866Y-208188D02*
Y-199724D01*
X1222098Y-195492D01*
X1226330Y-199724D01*
Y-208188D01*
Y-201840D01*
X1217866D01*
X1230562Y-195492D02*
X1239026D01*
X1234794D01*
Y-208188D01*
X1251722Y-195492D02*
X1243258D01*
Y-208188D01*
X1251722D01*
X1243258Y-201840D02*
X1247490D01*
X1255954Y-199724D02*
X1258070D01*
Y-201840D01*
X1255954D01*
Y-199724D01*
Y-206072D02*
X1258070D01*
Y-208188D01*
X1255954D01*
Y-206072D01*
D14*
X2057834Y666617D02*
X2253414D01*
X2017194Y-103632D02*
Y711200D01*
X2304214D01*
Y-103632D02*
Y711200D01*
X2017194Y-103632D02*
X2304214D01*
X1490980Y1501648D02*
Y1514344D01*
X1497328D01*
X1499444Y1512228D01*
Y1507996D01*
X1497328Y1505880D01*
X1490980D01*
X1495212D02*
X1499444Y1501648D01*
X1510024D02*
X1505792D01*
X1503676Y1503764D01*
Y1507996D01*
X1505792Y1510112D01*
X1510024D01*
X1512140Y1507996D01*
Y1505880D01*
X1503676D01*
X1516372Y1510112D02*
X1520604Y1501648D01*
X1524836Y1510112D01*
X1541763Y1514344D02*
Y1501648D01*
X1548112D01*
X1550228Y1503764D01*
Y1512228D01*
X1548112Y1514344D01*
X1541763D01*
X1600200Y1501648D02*
Y1510112D01*
X1604432Y1514344D01*
X1608664Y1510112D01*
Y1501648D01*
Y1507996D01*
X1600200D01*
X1621360Y1514344D02*
Y1501648D01*
X1615012D01*
X1612896Y1503764D01*
Y1507996D01*
X1615012Y1510112D01*
X1621360D01*
X1634056Y1514344D02*
Y1501648D01*
X1627708D01*
X1625592Y1503764D01*
Y1507996D01*
X1627708Y1510112D01*
X1634056D01*
X1638288Y1501648D02*
X1642520D01*
X1640404D01*
Y1510112D01*
X1638288D01*
X1650983Y1512228D02*
Y1510112D01*
X1648868D01*
X1653100D01*
X1650983D01*
Y1503764D01*
X1653100Y1501648D01*
X1659447D02*
X1663680D01*
X1661564D01*
Y1510112D01*
X1659447D01*
X1672143Y1501648D02*
X1676375D01*
X1678491Y1503764D01*
Y1507996D01*
X1676375Y1510112D01*
X1672143D01*
X1670027Y1507996D01*
Y1503764D01*
X1672143Y1501648D01*
X1682723D02*
Y1510112D01*
X1689071D01*
X1691187Y1507996D01*
Y1501648D01*
X1710231D02*
X1714463D01*
X1716579Y1503764D01*
Y1507996D01*
X1714463Y1510112D01*
X1710231D01*
X1708115Y1507996D01*
Y1503764D01*
X1710231Y1501648D01*
X1722927D02*
Y1512228D01*
Y1507996D01*
X1720811D01*
X1725043D01*
X1722927D01*
Y1512228D01*
X1725043Y1514344D01*
X1744087Y1501648D02*
Y1514344D01*
X1750435D01*
X1752551Y1512228D01*
Y1507996D01*
X1750435Y1505880D01*
X1744087D01*
X1748319D02*
X1752551Y1501648D01*
X1756783Y1512228D02*
X1758899Y1514344D01*
X1763131D01*
X1765247Y1512228D01*
Y1510112D01*
X1763131Y1507996D01*
X1765247Y1505880D01*
Y1503764D01*
X1763131Y1501648D01*
X1758899D01*
X1756783Y1503764D01*
Y1505880D01*
X1758899Y1507996D01*
X1756783Y1510112D01*
Y1512228D01*
X1758899Y1507996D02*
X1763131D01*
X1769478Y1512228D02*
X1771595Y1514344D01*
X1775826D01*
X1777942Y1512228D01*
Y1510112D01*
X1775826Y1507996D01*
X1777942Y1505880D01*
Y1503764D01*
X1775826Y1501648D01*
X1771595D01*
X1769478Y1503764D01*
Y1505880D01*
X1771595Y1507996D01*
X1769478Y1510112D01*
Y1512228D01*
X1771595Y1507996D02*
X1775826D01*
X2077720Y1501648D02*
X2081952D01*
X2079836D01*
Y1514344D01*
X2077720Y1512228D01*
X2088300D02*
X2090416Y1514344D01*
X2094648D01*
X2096764Y1512228D01*
Y1503764D01*
X2094648Y1501648D01*
X2090416D01*
X2088300Y1503764D01*
Y1512228D01*
X2100996Y1501648D02*
X2109460Y1510112D01*
X2113692Y1501648D02*
X2117924D01*
X2115808D01*
Y1514344D01*
X2113692Y1512228D01*
X2124272D02*
X2126388Y1514344D01*
X2130620D01*
X2132735Y1512228D01*
Y1510112D01*
X2130620Y1507996D01*
X2132735Y1505880D01*
Y1503764D01*
X2130620Y1501648D01*
X2126388D01*
X2124272Y1503764D01*
Y1505880D01*
X2126388Y1507996D01*
X2124272Y1510112D01*
Y1512228D01*
X2126388Y1507996D02*
X2130620D01*
X2136967Y1501648D02*
X2145431Y1510112D01*
X2158127Y1501648D02*
X2149663D01*
X2158127Y1510112D01*
Y1512228D01*
X2156011Y1514344D01*
X2151779D01*
X2149663Y1512228D01*
X2162359D02*
X2164475Y1514344D01*
X2168707D01*
X2170823Y1512228D01*
Y1503764D01*
X2168707Y1501648D01*
X2164475D01*
X2162359Y1503764D01*
Y1512228D01*
X2183519Y1501648D02*
X2175055D01*
X2183519Y1510112D01*
Y1512228D01*
X2181403Y1514344D01*
X2177171D01*
X2175055Y1512228D01*
X2196215Y1501648D02*
X2187751D01*
X2196215Y1510112D01*
Y1512228D01*
X2194099Y1514344D01*
X2189867D01*
X2187751Y1512228D01*
X2253824Y1514344D02*
X2245360D01*
Y1501648D01*
X2253824D01*
X2245360Y1507996D02*
X2249592D01*
X2258056Y1501648D02*
Y1514344D01*
X2262288Y1510112D01*
X2266520Y1514344D01*
Y1501648D01*
X2277100Y1514344D02*
X2272868D01*
X2270752Y1512228D01*
Y1503764D01*
X2272868Y1501648D01*
X2277100D01*
X2279216Y1503764D01*
Y1512228D01*
X2277100Y1514344D01*
X2289796D02*
X2285564D01*
X2283448Y1512228D01*
Y1503764D01*
X2285564Y1501648D01*
X2289796D01*
X2291912Y1503764D01*
Y1512228D01*
X2289796Y1514344D01*
X1272540Y-286517D02*
Y-299213D01*
X1275079Y-301752D01*
X1280157D01*
X1282697Y-299213D01*
Y-286517D01*
X1287775D02*
Y-301752D01*
X1295393D01*
X1297932Y-299213D01*
Y-296674D01*
X1295393Y-294135D01*
X1287775D01*
X1295393D01*
X1297932Y-291595D01*
Y-289056D01*
X1295393Y-286517D01*
X1287775D01*
X1303010D02*
X1313167Y-301752D01*
Y-286517D02*
X1303010Y-301752D01*
X1318245Y-286517D02*
Y-301752D01*
Y-294135D01*
X1328402D01*
Y-286517D01*
Y-301752D01*
X1343637Y-286517D02*
X1338559Y-289056D01*
X1333480Y-294135D01*
Y-299213D01*
X1336019Y-301752D01*
X1341098D01*
X1343637Y-299213D01*
Y-296674D01*
X1341098Y-294135D01*
X1333480D01*
X1348715Y-289056D02*
X1351254Y-286517D01*
X1356333D01*
X1358872Y-289056D01*
Y-299213D01*
X1356333Y-301752D01*
X1351254D01*
X1348715Y-299213D01*
Y-289056D01*
X1363950Y-294135D02*
X1374107D01*
X1379185Y-289056D02*
X1381725Y-286517D01*
X1386803D01*
X1389342Y-289056D01*
Y-299213D01*
X1386803Y-301752D01*
X1381725D01*
X1379185Y-299213D01*
Y-289056D01*
X1394421D02*
X1396960Y-286517D01*
X1402038D01*
X1404577Y-289056D01*
Y-299213D01*
X1402038Y-301752D01*
X1396960D01*
X1394421Y-299213D01*
Y-289056D01*
X1409656D02*
X1412195Y-286517D01*
X1417273D01*
X1419812Y-289056D01*
Y-299213D01*
X1417273Y-301752D01*
X1412195D01*
X1409656Y-299213D01*
Y-289056D01*
X1424891D02*
X1427430Y-286517D01*
X1432508D01*
X1435047Y-289056D01*
Y-299213D01*
X1432508Y-301752D01*
X1427430D01*
X1424891Y-299213D01*
Y-289056D01*
X1440126Y-286517D02*
X1450282D01*
Y-289056D01*
X1440126Y-299213D01*
Y-301752D01*
X1455361Y-286517D02*
X1465518D01*
Y-289056D01*
X1455361Y-299213D01*
Y-301752D01*
X1470596Y-289056D02*
X1473135Y-286517D01*
X1478214D01*
X1480753Y-289056D01*
Y-291595D01*
X1478214Y-294135D01*
X1480753Y-296674D01*
Y-299213D01*
X1478214Y-301752D01*
X1473135D01*
X1470596Y-299213D01*
Y-296674D01*
X1473135Y-294135D01*
X1470596Y-291595D01*
Y-289056D01*
X1473135Y-294135D02*
X1478214D01*
X1712802Y-213704D02*
X1709417Y-210319D01*
X1702646D01*
X1699260Y-213704D01*
Y-227246D01*
X1702646Y-230632D01*
X1709417D01*
X1712802Y-227246D01*
X1733116Y-230632D02*
X1719573D01*
X1733116Y-217090D01*
Y-213704D01*
X1729730Y-210319D01*
X1722959D01*
X1719573Y-213704D01*
X1739887Y-230632D02*
X1746658D01*
X1743272D01*
Y-210319D01*
X1739887Y-213704D01*
X1756815D02*
X1760200Y-210319D01*
X1766971D01*
X1770357Y-213704D01*
Y-227246D01*
X1766971Y-230632D01*
X1760200D01*
X1756815Y-227246D01*
Y-213704D01*
X2193840Y-229422D02*
Y-209109D01*
X2203997D01*
X2207382Y-212494D01*
Y-219265D01*
X2203997Y-222651D01*
X2193840D01*
X2200611D02*
X2207382Y-229422D01*
X2224310D02*
X2217539D01*
X2214153Y-226036D01*
Y-219265D01*
X2217539Y-215880D01*
X2224310D01*
X2227696Y-219265D01*
Y-222651D01*
X2214153D01*
X2234467Y-215880D02*
X2241238Y-229422D01*
X2248009Y-215880D01*
X2275094Y-209109D02*
Y-229422D01*
X2285250D01*
X2288636Y-226036D01*
Y-212494D01*
X2285250Y-209109D01*
X2275094D01*
X1699260Y-149359D02*
X1712802Y-169672D01*
Y-149359D02*
X1699260Y-169672D01*
X1719573D02*
Y-149359D01*
X1729730D01*
X1733116Y-152744D01*
Y-159515D01*
X1729730Y-162901D01*
X1719573D01*
X1739887Y-149359D02*
Y-169672D01*
X1753429D01*
X1760200D02*
Y-149359D01*
X1770357D01*
X1773743Y-152744D01*
Y-159515D01*
X1770357Y-162901D01*
X1760200D01*
X1766971D02*
X1773743Y-169672D01*
X1780514Y-159515D02*
X1794056D01*
X1800827Y-149359D02*
X1807598D01*
X1804213D01*
Y-169672D01*
X1800827D01*
X1807598D01*
X1827912Y-149359D02*
X1821140D01*
X1817755Y-152744D01*
Y-166286D01*
X1821140Y-169672D01*
X1827912D01*
X1831297Y-166286D01*
Y-152744D01*
X1827912Y-149359D01*
X1838068D02*
X1851611D01*
X1844839D01*
Y-169672D01*
X1858382Y-159515D02*
X1871924D01*
X1878695Y-169672D02*
X1885466D01*
X1882081D01*
Y-149359D01*
X1878695Y-152744D01*
X1332650Y-151898D02*
X1320800D01*
Y-169672D01*
X1332650D01*
X1320800Y-160785D02*
X1326725D01*
X1338574Y-169672D02*
Y-151898D01*
X1344499Y-157823D01*
X1350424Y-151898D01*
Y-169672D01*
X1365236Y-151898D02*
X1359311D01*
X1356349Y-154860D01*
Y-166710D01*
X1359311Y-169672D01*
X1365236D01*
X1368198Y-166710D01*
Y-154860D01*
X1365236Y-151898D01*
X1383010D02*
X1377085D01*
X1374123Y-154860D01*
Y-166710D01*
X1377085Y-169672D01*
X1383010D01*
X1385972Y-166710D01*
Y-154860D01*
X1383010Y-151898D01*
X1277620Y-230632D02*
X1283545D01*
X1280582D01*
Y-212858D01*
X1277620Y-215820D01*
X1292432D02*
X1295394Y-212858D01*
X1301319D01*
X1304281Y-215820D01*
Y-227670D01*
X1301319Y-230632D01*
X1295394D01*
X1292432Y-227670D01*
Y-215820D01*
X1310206Y-230632D02*
X1322056Y-218783D01*
X1327980Y-230632D02*
X1333905D01*
X1330943D01*
Y-212858D01*
X1327980Y-215820D01*
X1342792D02*
X1345755Y-212858D01*
X1351679D01*
X1354642Y-215820D01*
Y-218783D01*
X1351679Y-221745D01*
X1354642Y-224707D01*
Y-227670D01*
X1351679Y-230632D01*
X1345755D01*
X1342792Y-227670D01*
Y-224707D01*
X1345755Y-221745D01*
X1342792Y-218783D01*
Y-215820D01*
X1345755Y-221745D02*
X1351679D01*
X1360567Y-230632D02*
X1372416Y-218783D01*
X1390190Y-230632D02*
X1378341D01*
X1390190Y-218783D01*
Y-215820D01*
X1387228Y-212858D01*
X1381303D01*
X1378341Y-215820D01*
X1396115D02*
X1399077Y-212858D01*
X1405002D01*
X1407965Y-215820D01*
Y-227670D01*
X1405002Y-230632D01*
X1399077D01*
X1396115Y-227670D01*
Y-215820D01*
X1425739Y-230632D02*
X1413889D01*
X1425739Y-218783D01*
Y-215820D01*
X1422776Y-212858D01*
X1416852D01*
X1413889Y-215820D01*
X1443513Y-230632D02*
X1431664D01*
X1443513Y-218783D01*
Y-215820D01*
X1440551Y-212858D01*
X1434626D01*
X1431664Y-215820D01*
X1620517Y-286516D02*
X1617977Y-283977D01*
X1612899D01*
X1610360Y-286516D01*
Y-296673D01*
X1612899Y-299212D01*
X1617977D01*
X1620517Y-296673D01*
X1635752Y-299212D02*
X1625595D01*
X1635752Y-289055D01*
Y-286516D01*
X1633213Y-283977D01*
X1628134D01*
X1625595Y-286516D01*
X1640830Y-299212D02*
X1645909D01*
X1643369D01*
Y-283977D01*
X1640830Y-286516D01*
X1653526D02*
X1656065Y-283977D01*
X1661144D01*
X1663683Y-286516D01*
Y-296673D01*
X1661144Y-299212D01*
X1656065D01*
X1653526Y-296673D01*
Y-286516D01*
X1668761Y-299212D02*
Y-296673D01*
X1671300D01*
Y-299212D01*
X1668761D01*
X1681457D02*
Y-283977D01*
X1689075D01*
X1691614Y-286516D01*
Y-291595D01*
X1689075Y-294134D01*
X1681457D01*
X1706849Y-289055D02*
X1699231D01*
X1696692Y-291595D01*
Y-296673D01*
X1699231Y-299212D01*
X1706849D01*
X1711927Y-283977D02*
Y-299212D01*
X1719545D01*
X1722084Y-296673D01*
Y-294134D01*
Y-291595D01*
X1719545Y-289055D01*
X1711927D01*
X1727162Y-283977D02*
Y-299212D01*
X1734780D01*
X1737319Y-296673D01*
Y-286516D01*
X1734780Y-283977D01*
X1727162D01*
X1744937Y-299212D02*
X1750015D01*
X1752554Y-296673D01*
Y-291595D01*
X1750015Y-289055D01*
X1744937D01*
X1742397Y-291595D01*
Y-296673D01*
X1744937Y-299212D01*
X1767789Y-289055D02*
X1760172D01*
X1757632Y-291595D01*
Y-296673D01*
X1760172Y-299212D01*
X1767789D01*
X924933Y-277057D02*
X923966Y-275123D01*
X922031Y-273188D01*
X920096Y-272220D01*
X916226D01*
X914292Y-273188D01*
X912357Y-275123D01*
X911389Y-277057D01*
X910422Y-279960D01*
Y-284797D01*
X911389Y-287699D01*
X912357Y-289634D01*
X914292Y-291569D01*
X916226Y-292536D01*
X920096D01*
X922031Y-291569D01*
X923966Y-289634D01*
X924933Y-287699D01*
X936445Y-272220D02*
X934510Y-273188D01*
X932576Y-275123D01*
X931608Y-277057D01*
X930641Y-279960D01*
Y-284797D01*
X931608Y-287699D01*
X932576Y-289634D01*
X934510Y-291569D01*
X936445Y-292536D01*
X940315D01*
X942250Y-291569D01*
X944185Y-289634D01*
X945152Y-287699D01*
X946120Y-284797D01*
Y-279960D01*
X945152Y-277057D01*
X944185Y-275123D01*
X942250Y-273188D01*
X940315Y-272220D01*
X936445D01*
X950860D02*
Y-292536D01*
Y-272220D02*
X964404Y-292536D01*
Y-272220D02*
Y-292536D01*
X970014Y-272220D02*
Y-292536D01*
Y-272220D02*
X982591D01*
X970014Y-281894D02*
X977754D01*
X984913Y-272220D02*
Y-292536D01*
X989169Y-272220D02*
Y-292536D01*
Y-272220D02*
X995941D01*
X998843Y-273188D01*
X1000778Y-275123D01*
X1001746Y-277057D01*
X1002713Y-279960D01*
Y-284797D01*
X1001746Y-287699D01*
X1000778Y-289634D01*
X998843Y-291569D01*
X995941Y-292536D01*
X989169D01*
X1019836Y-272220D02*
X1007260D01*
Y-292536D01*
X1019836D01*
X1007260Y-281894D02*
X1014999D01*
X1023222Y-272220D02*
Y-292536D01*
Y-272220D02*
X1036766Y-292536D01*
Y-272220D02*
Y-292536D01*
X1049149Y-272220D02*
Y-292536D01*
X1042377Y-272220D02*
X1055921D01*
X1058339D02*
Y-292536D01*
X1078074D02*
X1070335Y-272220D01*
X1062596Y-292536D01*
X1065498Y-285764D02*
X1075172D01*
X1082815Y-272220D02*
Y-292536D01*
X1094424D01*
X2253824Y1552444D02*
X2245360D01*
Y1539748D01*
X2253824D01*
X2245360Y1546096D02*
X2249592D01*
X2258056Y1539748D02*
Y1552444D01*
X2262288Y1548212D01*
X2266520Y1552444D01*
Y1539748D01*
X2277100Y1552444D02*
X2272868D01*
X2270752Y1550328D01*
Y1541864D01*
X2272868Y1539748D01*
X2277100D01*
X2279216Y1541864D01*
Y1550328D01*
X2277100Y1552444D01*
X2289796D02*
X2285564D01*
X2283448Y1550328D01*
Y1541864D01*
X2285564Y1539748D01*
X2289796D01*
X2291912Y1541864D01*
Y1550328D01*
X2289796Y1552444D01*
X2077720D02*
X2086184D01*
Y1550328D01*
X2077720Y1541864D01*
Y1539748D01*
X2090416D02*
X2098880Y1548212D01*
X2103112Y1539748D02*
X2107344D01*
X2105228D01*
Y1552444D01*
X2103112Y1550328D01*
X2113692D02*
X2115808Y1552444D01*
X2120040D01*
X2122156Y1550328D01*
Y1548212D01*
X2120040Y1546096D01*
X2117924D01*
X2120040D01*
X2122156Y1543980D01*
Y1541864D01*
X2120040Y1539748D01*
X2115808D01*
X2113692Y1541864D01*
X2126388Y1539748D02*
X2134852Y1548212D01*
X2147547Y1539748D02*
X2139084D01*
X2147547Y1548212D01*
Y1550328D01*
X2145431Y1552444D01*
X2141199D01*
X2139084Y1550328D01*
X2151779D02*
X2153895Y1552444D01*
X2158127D01*
X2160243Y1550328D01*
Y1541864D01*
X2158127Y1539748D01*
X2153895D01*
X2151779Y1541864D01*
Y1550328D01*
X2172939Y1539748D02*
X2164475D01*
X2172939Y1548212D01*
Y1550328D01*
X2170823Y1552444D01*
X2166591D01*
X2164475Y1550328D01*
X2185635Y1539748D02*
X2177171D01*
X2185635Y1548212D01*
Y1550328D01*
X2183519Y1552444D01*
X2179287D01*
X2177171Y1550328D01*
X1600200Y1552444D02*
X1604432D01*
X1602316D01*
Y1539748D01*
X1600200D01*
X1604432D01*
X1610780D02*
Y1548212D01*
X1617128D01*
X1619244Y1546096D01*
Y1539748D01*
X1623476D02*
X1627708D01*
X1625592D01*
Y1548212D01*
X1623476D01*
X1636172Y1550328D02*
Y1548212D01*
X1634056D01*
X1638288D01*
X1636172D01*
Y1541864D01*
X1638288Y1539748D01*
X1644636D02*
X1648868D01*
X1646752D01*
Y1548212D01*
X1644636D01*
X1657332D02*
X1661564D01*
X1663680Y1546096D01*
Y1539748D01*
X1657332D01*
X1655215Y1541864D01*
X1657332Y1543980D01*
X1663680D01*
X1667911Y1539748D02*
X1672143D01*
X1670027D01*
Y1552444D01*
X1667911D01*
X1691187Y1539748D02*
Y1552444D01*
X1697535D01*
X1699651Y1550328D01*
Y1546096D01*
X1697535Y1543980D01*
X1691187D01*
X1703883Y1548212D02*
Y1539748D01*
Y1543980D01*
X1705999Y1546096D01*
X1708115Y1548212D01*
X1710231D01*
X1718695Y1539748D02*
X1722927D01*
X1725043Y1541864D01*
Y1546096D01*
X1722927Y1548212D01*
X1718695D01*
X1716579Y1546096D01*
Y1541864D01*
X1718695Y1539748D01*
X1737739Y1552444D02*
Y1539748D01*
X1731391D01*
X1729275Y1541864D01*
Y1546096D01*
X1731391Y1548212D01*
X1737739D01*
X1741971D02*
Y1541864D01*
X1744087Y1539748D01*
X1750435D01*
Y1548212D01*
X1763131D02*
X1756783D01*
X1754667Y1546096D01*
Y1541864D01*
X1756783Y1539748D01*
X1763131D01*
X1769478Y1550328D02*
Y1548212D01*
X1767363D01*
X1771595D01*
X1769478D01*
Y1541864D01*
X1771595Y1539748D01*
X1777942D02*
X1782174D01*
X1780058D01*
Y1548212D01*
X1777942D01*
X1790638Y1539748D02*
X1794870D01*
X1796986Y1541864D01*
Y1546096D01*
X1794870Y1548212D01*
X1790638D01*
X1788522Y1546096D01*
Y1541864D01*
X1790638Y1539748D01*
X1801218D02*
Y1548212D01*
X1807566D01*
X1809682Y1546096D01*
Y1539748D01*
X1490980D02*
Y1552444D01*
X1497328D01*
X1499444Y1550328D01*
Y1546096D01*
X1497328Y1543980D01*
X1490980D01*
X1495212D02*
X1499444Y1539748D01*
X1510024D02*
X1505792D01*
X1503676Y1541864D01*
Y1546096D01*
X1505792Y1548212D01*
X1510024D01*
X1512140Y1546096D01*
Y1543980D01*
X1503676D01*
X1516372Y1548212D02*
X1520604Y1539748D01*
X1524836Y1548212D01*
X1550228Y1550328D02*
X1548112Y1552444D01*
X1543880D01*
X1541763Y1550328D01*
Y1541864D01*
X1543880Y1539748D01*
X1548112D01*
X1550228Y1541864D01*
X1490980Y1577848D02*
Y1590544D01*
X1497328D01*
X1499444Y1588428D01*
Y1584196D01*
X1497328Y1582080D01*
X1490980D01*
X1495212D02*
X1499444Y1577848D01*
X1510024D02*
X1505792D01*
X1503676Y1579964D01*
Y1584196D01*
X1505792Y1586312D01*
X1510024D01*
X1512140Y1584196D01*
Y1582080D01*
X1503676D01*
X1516372Y1586312D02*
X1520604Y1577848D01*
X1524836Y1586312D01*
X1541763Y1590544D02*
Y1577848D01*
X1548112D01*
X1550228Y1579964D01*
Y1582080D01*
X1548112Y1584196D01*
X1541763D01*
X1548112D01*
X1550228Y1586312D01*
Y1588428D01*
X1548112Y1590544D01*
X1541763D01*
X1608664D02*
X1600200D01*
Y1577848D01*
X1608664D01*
X1600200Y1584196D02*
X1604432D01*
X1612896Y1577848D02*
Y1586312D01*
X1619244D01*
X1621360Y1584196D01*
Y1577848D01*
X1629824Y1573616D02*
X1631940D01*
X1634056Y1575732D01*
Y1586312D01*
X1627708D01*
X1625592Y1584196D01*
Y1579964D01*
X1627708Y1577848D01*
X1634056D01*
X1638288D02*
X1642520D01*
X1640404D01*
Y1586312D01*
X1638288D01*
X1648868Y1577848D02*
Y1586312D01*
X1655215D01*
X1657332Y1584196D01*
Y1577848D01*
X1667911D02*
X1663679D01*
X1661564Y1579964D01*
Y1584196D01*
X1663679Y1586312D01*
X1667911D01*
X1670027Y1584196D01*
Y1582080D01*
X1661564D01*
X1680607Y1577848D02*
X1676375D01*
X1674259Y1579964D01*
Y1584196D01*
X1676375Y1586312D01*
X1680607D01*
X1682723Y1584196D01*
Y1582080D01*
X1674259D01*
X1686955Y1586312D02*
Y1577848D01*
Y1582080D01*
X1689071Y1584196D01*
X1691187Y1586312D01*
X1693303D01*
X1699651Y1577848D02*
X1703883D01*
X1701767D01*
Y1586312D01*
X1699651D01*
X1710231Y1577848D02*
Y1586312D01*
X1716579D01*
X1718695Y1584196D01*
Y1577848D01*
X1727159Y1573616D02*
X1729275D01*
X1731391Y1575732D01*
Y1586312D01*
X1725043D01*
X1722927Y1584196D01*
Y1579964D01*
X1725043Y1577848D01*
X1731391D01*
X1756783Y1588428D02*
X1754667Y1590544D01*
X1750435D01*
X1748319Y1588428D01*
Y1586312D01*
X1750435Y1584196D01*
X1754667D01*
X1756783Y1582080D01*
Y1579964D01*
X1754667Y1577848D01*
X1750435D01*
X1748319Y1579964D01*
X1763130Y1586312D02*
X1767363D01*
X1769478Y1584196D01*
Y1577848D01*
X1763130D01*
X1761015Y1579964D01*
X1763130Y1582080D01*
X1769478D01*
X1773710Y1577848D02*
Y1586312D01*
X1775826D01*
X1777942Y1584196D01*
Y1577848D01*
Y1584196D01*
X1780058Y1586312D01*
X1782174Y1584196D01*
Y1577848D01*
X1786406Y1573616D02*
Y1586312D01*
X1792754D01*
X1794870Y1584196D01*
Y1579964D01*
X1792754Y1577848D01*
X1786406D01*
X1799102D02*
X1803334D01*
X1801218D01*
Y1590544D01*
X1799102D01*
X1816030Y1577848D02*
X1811798D01*
X1809682Y1579964D01*
Y1584196D01*
X1811798Y1586312D01*
X1816030D01*
X1818146Y1584196D01*
Y1582080D01*
X1809682D01*
X2077720Y1579964D02*
X2079836Y1577848D01*
X2084068D01*
X2086184Y1579964D01*
Y1588428D01*
X2084068Y1590544D01*
X2079836D01*
X2077720Y1588428D01*
Y1586312D01*
X2079836Y1584196D01*
X2086184D01*
X2090416Y1577848D02*
X2098880Y1586312D01*
X2103112Y1577848D02*
X2107344D01*
X2105228D01*
Y1590544D01*
X2103112Y1588428D01*
X2122156Y1590544D02*
X2117924Y1588428D01*
X2113692Y1584196D01*
Y1579964D01*
X2115808Y1577848D01*
X2120040D01*
X2122156Y1579964D01*
Y1582080D01*
X2120040Y1584196D01*
X2113692D01*
X2126388Y1577848D02*
X2134852Y1586312D01*
X2147547Y1577848D02*
X2139084D01*
X2147547Y1586312D01*
Y1588428D01*
X2145431Y1590544D01*
X2141199D01*
X2139084Y1588428D01*
X2151779D02*
X2153895Y1590544D01*
X2158127D01*
X2160243Y1588428D01*
Y1579964D01*
X2158127Y1577848D01*
X2153895D01*
X2151779Y1579964D01*
Y1588428D01*
X2172939Y1577848D02*
X2164475D01*
X2172939Y1586312D01*
Y1588428D01*
X2170823Y1590544D01*
X2166591D01*
X2164475Y1588428D01*
X2177171Y1577848D02*
X2181403D01*
X2179287D01*
Y1590544D01*
X2177171Y1588428D01*
X2253824Y1590544D02*
X2245360D01*
Y1577848D01*
X2253824D01*
X2245360Y1584196D02*
X2249592D01*
X2258056Y1577848D02*
Y1590544D01*
X2262288Y1586312D01*
X2266520Y1590544D01*
Y1577848D01*
X2277100Y1590544D02*
X2272868D01*
X2270752Y1588428D01*
Y1579964D01*
X2272868Y1577848D01*
X2277100D01*
X2279216Y1579964D01*
Y1588428D01*
X2277100Y1590544D01*
X2289796D02*
X2285564D01*
X2283448Y1588428D01*
Y1579964D01*
X2285564Y1577848D01*
X2289796D01*
X2291912Y1579964D01*
Y1588428D01*
X2289796Y1590544D01*
X2253824Y1628644D02*
X2245360D01*
Y1615948D01*
X2253824D01*
X2245360Y1622296D02*
X2249592D01*
X2258056Y1615948D02*
Y1628644D01*
X2262288Y1624412D01*
X2266520Y1628644D01*
Y1615948D01*
X2277100Y1628644D02*
X2272868D01*
X2270752Y1626528D01*
Y1618064D01*
X2272868Y1615948D01*
X2277100D01*
X2279216Y1618064D01*
Y1626528D01*
X2277100Y1628644D01*
X2289796D02*
X2285564D01*
X2283448Y1626528D01*
Y1618064D01*
X2285564Y1615948D01*
X2289796D01*
X2291912Y1618064D01*
Y1626528D01*
X2289796Y1628644D01*
X2086184Y1626104D02*
X2077720D01*
Y1619756D01*
X2081952Y1621872D01*
X2084068D01*
X2086184Y1619756D01*
Y1615524D01*
X2084068Y1613408D01*
X2079836D01*
X2077720Y1615524D01*
X2090416Y1613408D02*
X2098880Y1621872D01*
X2109460Y1613408D02*
Y1626104D01*
X2103112Y1619756D01*
X2111576D01*
X2115808Y1613408D02*
X2124272Y1621872D01*
X2136967Y1613408D02*
X2128504D01*
X2136967Y1621872D01*
Y1623988D01*
X2134852Y1626104D01*
X2130620D01*
X2128504Y1623988D01*
X2141199D02*
X2143315Y1626104D01*
X2147547D01*
X2149663Y1623988D01*
Y1615524D01*
X2147547Y1613408D01*
X2143315D01*
X2141199Y1615524D01*
Y1623988D01*
X2162359Y1613408D02*
X2153895D01*
X2162359Y1621872D01*
Y1623988D01*
X2160243Y1626104D01*
X2156011D01*
X2153895Y1623988D01*
X2166591Y1613408D02*
X2170823D01*
X2168707D01*
Y1626104D01*
X2166591Y1623988D01*
X1600200Y1615948D02*
Y1628644D01*
X1606548D01*
X1608664Y1626528D01*
Y1622296D01*
X1606548Y1620180D01*
X1600200D01*
X1612896Y1624412D02*
Y1615948D01*
Y1620180D01*
X1615012Y1622296D01*
X1617128Y1624412D01*
X1619244D01*
X1627708Y1615948D02*
X1631940D01*
X1634056Y1618064D01*
Y1622296D01*
X1631940Y1624412D01*
X1627708D01*
X1625592Y1622296D01*
Y1618064D01*
X1627708Y1615948D01*
X1640404Y1626528D02*
Y1624412D01*
X1638288D01*
X1642520D01*
X1640404D01*
Y1618064D01*
X1642520Y1615948D01*
X1650983D02*
X1655215D01*
X1657332Y1618064D01*
Y1622296D01*
X1655215Y1624412D01*
X1650983D01*
X1648868Y1622296D01*
Y1618064D01*
X1650983Y1615948D01*
X1663679Y1626528D02*
Y1624412D01*
X1661564D01*
X1665795D01*
X1663679D01*
Y1618064D01*
X1665795Y1615948D01*
X1672143Y1624412D02*
Y1618064D01*
X1674259Y1615948D01*
X1680607D01*
Y1613832D01*
X1678491Y1611716D01*
X1676375D01*
X1680607Y1615948D02*
Y1624412D01*
X1684839Y1611716D02*
Y1624412D01*
X1691187D01*
X1693303Y1622296D01*
Y1618064D01*
X1691187Y1615948D01*
X1684839D01*
X1703883D02*
X1699651D01*
X1697535Y1618064D01*
Y1622296D01*
X1699651Y1624412D01*
X1703883D01*
X1705999Y1622296D01*
Y1620180D01*
X1697535D01*
X1722927Y1615948D02*
Y1628644D01*
X1729275D01*
X1731391Y1626528D01*
Y1622296D01*
X1729275Y1620180D01*
X1722927D01*
X1727159D02*
X1731391Y1615948D01*
X1741971D02*
X1737739D01*
X1735623Y1618064D01*
Y1622296D01*
X1737739Y1624412D01*
X1741971D01*
X1744087Y1622296D01*
Y1620180D01*
X1735623D01*
X1748319Y1615948D02*
X1752551D01*
X1750435D01*
Y1628644D01*
X1748319D01*
X1765246Y1615948D02*
X1761015D01*
X1758899Y1618064D01*
Y1622296D01*
X1761015Y1624412D01*
X1765246D01*
X1767363Y1622296D01*
Y1620180D01*
X1758899D01*
X1773710Y1624412D02*
X1777942D01*
X1780058Y1622296D01*
Y1615948D01*
X1773710D01*
X1771595Y1618064D01*
X1773710Y1620180D01*
X1780058D01*
X1784290Y1615948D02*
X1790638D01*
X1792754Y1618064D01*
X1790638Y1620180D01*
X1786406D01*
X1784290Y1622296D01*
X1786406Y1624412D01*
X1792754D01*
X1803334Y1615948D02*
X1799102D01*
X1796986Y1618064D01*
Y1622296D01*
X1799102Y1624412D01*
X1803334D01*
X1805450Y1622296D01*
Y1620180D01*
X1796986D01*
X1490980Y1615948D02*
Y1628644D01*
X1497328D01*
X1499444Y1626528D01*
Y1622296D01*
X1497328Y1620180D01*
X1490980D01*
X1495212D02*
X1499444Y1615948D01*
X1510024D02*
X1505792D01*
X1503676Y1618064D01*
Y1622296D01*
X1505792Y1624412D01*
X1510024D01*
X1512140Y1622296D01*
Y1620180D01*
X1503676D01*
X1516372Y1624412D02*
X1520604Y1615948D01*
X1524836Y1624412D01*
X1541763Y1615948D02*
Y1624412D01*
X1545995Y1628644D01*
X1550228Y1624412D01*
Y1615948D01*
Y1622296D01*
X1541763D01*
X2258060Y1669283D02*
Y1654048D01*
X2265677D01*
X2268217Y1656587D01*
Y1659126D01*
X2265677Y1661665D01*
X2258060D01*
X2265677D01*
X2268217Y1664205D01*
Y1666744D01*
X2265677Y1669283D01*
X2258060D01*
X2273295D02*
Y1666744D01*
X2278373Y1661665D01*
X2283452Y1666744D01*
Y1669283D01*
X2278373Y1661665D02*
Y1654048D01*
X2098040Y1669283D02*
Y1654048D01*
X2105658D01*
X2108197Y1656587D01*
Y1666744D01*
X2105658Y1669283D01*
X2098040D01*
X2113275Y1654048D02*
Y1664205D01*
X2118353Y1669283D01*
X2123432Y1664205D01*
Y1654048D01*
Y1661665D01*
X2113275D01*
X2128510Y1669283D02*
X2138667D01*
X2133589D01*
Y1654048D01*
X2153902Y1669283D02*
X2143745D01*
Y1654048D01*
X2153902D01*
X2143745Y1661665D02*
X2148824D01*
X1600200Y1669283D02*
Y1654048D01*
X1607818D01*
X1610357Y1656587D01*
Y1666744D01*
X1607818Y1669283D01*
X1600200D01*
X1625592D02*
X1615435D01*
Y1654048D01*
X1625592D01*
X1615435Y1661665D02*
X1620513D01*
X1640827Y1666744D02*
X1638288Y1669283D01*
X1633209D01*
X1630670Y1666744D01*
Y1664205D01*
X1633209Y1661665D01*
X1638288D01*
X1640827Y1659126D01*
Y1656587D01*
X1638288Y1654048D01*
X1633209D01*
X1630670Y1656587D01*
X1656062Y1666744D02*
X1653523Y1669283D01*
X1648444D01*
X1645905Y1666744D01*
Y1656587D01*
X1648444Y1654048D01*
X1653523D01*
X1656062Y1656587D01*
X1661140Y1654048D02*
Y1669283D01*
X1668758D01*
X1671297Y1666744D01*
Y1661665D01*
X1668758Y1659126D01*
X1661140D01*
X1666219D02*
X1671297Y1654048D01*
X1676375Y1669283D02*
X1681454D01*
X1678914D01*
Y1654048D01*
X1676375D01*
X1681454D01*
X1689071D02*
Y1669283D01*
X1696689D01*
X1699228Y1666744D01*
Y1661665D01*
X1696689Y1659126D01*
X1689071D01*
X1704306Y1669283D02*
X1714463D01*
X1709385D01*
Y1654048D01*
X1719541Y1669283D02*
X1724620D01*
X1722081D01*
Y1654048D01*
X1719541D01*
X1724620D01*
X1739855Y1669283D02*
X1734776D01*
X1732237Y1666744D01*
Y1656587D01*
X1734776Y1654048D01*
X1739855D01*
X1742394Y1656587D01*
Y1666744D01*
X1739855Y1669283D01*
X1747472Y1654048D02*
Y1669283D01*
X1757629Y1654048D01*
Y1669283D01*
X1490980Y1654048D02*
Y1669283D01*
X1498598D01*
X1501137Y1666744D01*
Y1661665D01*
X1498598Y1659126D01*
X1490980D01*
X1496058D02*
X1501137Y1654048D01*
X1516372Y1669283D02*
X1506215D01*
Y1654048D01*
X1516372D01*
X1506215Y1661665D02*
X1511293D01*
X1521450Y1669283D02*
Y1659126D01*
X1526528Y1654048D01*
X1531607Y1659126D01*
Y1669283D01*
X1849120Y1697228D02*
Y1717541D01*
X1859277D01*
X1862662Y1714156D01*
Y1707385D01*
X1859277Y1703999D01*
X1849120D01*
X1855891D02*
X1862662Y1697228D01*
X1882976Y1717541D02*
X1869433D01*
Y1697228D01*
X1882976D01*
X1869433Y1707385D02*
X1876205D01*
X1889747Y1717541D02*
Y1703999D01*
X1896518Y1697228D01*
X1903289Y1703999D01*
Y1717541D01*
X1910060D02*
X1916831D01*
X1913446D01*
Y1697228D01*
X1910060D01*
X1916831D01*
X1940530Y1714156D02*
X1937145Y1717541D01*
X1930374D01*
X1926988Y1714156D01*
Y1710770D01*
X1930374Y1707385D01*
X1937145D01*
X1940530Y1703999D01*
Y1700614D01*
X1937145Y1697228D01*
X1930374D01*
X1926988Y1700614D01*
X1947301Y1717541D02*
X1954073D01*
X1950687D01*
Y1697228D01*
X1947301D01*
X1954073D01*
X1974386Y1717541D02*
X1967615D01*
X1964229Y1714156D01*
Y1700614D01*
X1967615Y1697228D01*
X1974386D01*
X1977772Y1700614D01*
Y1714156D01*
X1974386Y1717541D01*
X1984543Y1697228D02*
Y1717541D01*
X1998085Y1697228D01*
Y1717541D01*
D16*
X2278814Y365627D02*
Y389757D01*
X2045134Y365627D02*
X2278814D01*
X2045134D02*
Y389757D01*
X2278814D01*
D25*
X2069264Y377692D02*
D03*
D26*
X2057834Y694045D02*
Y673729D01*
X2069443D01*
X2087147D02*
X2079407Y694045D01*
X2071668Y673729D01*
X2074570Y680501D02*
X2084244D01*
X2091887Y694045D02*
X2099626Y684370D01*
Y673729D01*
X2107366Y694045D02*
X2099626Y684370D01*
X2122554Y694045D02*
X2109978D01*
Y673729D01*
X2122554D01*
X2109978Y684370D02*
X2117717D01*
X2125940Y694045D02*
Y673729D01*
Y694045D02*
X2134647D01*
X2137549Y693077D01*
X2138516Y692110D01*
X2139484Y690175D01*
Y688240D01*
X2138516Y686305D01*
X2137549Y685338D01*
X2134647Y684370D01*
X2125940D01*
X2132712D02*
X2139484Y673729D01*
X2159993Y694045D02*
Y679533D01*
X2160960Y676631D01*
X2162895Y674696D01*
X2165797Y673729D01*
X2167732D01*
X2170634Y674696D01*
X2172569Y676631D01*
X2173537Y679533D01*
Y694045D01*
X2192691Y691142D02*
X2190757Y693077D01*
X2187854Y694045D01*
X2183985D01*
X2181082Y693077D01*
X2179147Y691142D01*
Y689208D01*
X2180115Y687273D01*
X2181082Y686305D01*
X2183017Y685338D01*
X2188822Y683403D01*
X2190757Y682436D01*
X2191724Y681468D01*
X2192691Y679533D01*
Y676631D01*
X2190757Y674696D01*
X2187854Y673729D01*
X2183985D01*
X2181082Y674696D01*
X2179147Y676631D01*
X2212717Y673729D02*
X2204977Y694045D01*
X2197238Y673729D01*
X2200140Y680501D02*
X2209814D01*
X2231968Y689208D02*
X2231001Y691142D01*
X2229066Y693077D01*
X2227131Y694045D01*
X2223262D01*
X2221327Y693077D01*
X2219392Y691142D01*
X2218424Y689208D01*
X2217457Y686305D01*
Y681468D01*
X2218424Y678566D01*
X2219392Y676631D01*
X2221327Y674696D01*
X2223262Y673729D01*
X2227131D01*
X2229066Y674696D01*
X2231001Y676631D01*
X2231968Y678566D01*
Y681468D01*
X2227131D02*
X2231968D01*
X2249188Y694045D02*
X2236612D01*
Y673729D01*
X2249188D01*
X2236612Y684370D02*
X2244351D01*
D27*
X2207200Y-300390D02*
X2211432D01*
X2209316D01*
Y-287694D01*
X2207200Y-289810D01*
X2217780Y-291926D02*
X2219896D01*
Y-294042D01*
X2217780D01*
Y-291926D01*
Y-298274D02*
X2219896D01*
Y-300390D01*
X2217780D01*
Y-298274D01*
X2228360Y-300390D02*
X2232592D01*
X2230476D01*
Y-287694D01*
X2228360Y-289810D01*
X2363410Y-102528D02*
Y-120304D01*
Y-102528D02*
X2369335D01*
X2371875Y-103374D01*
X2373568Y-105067D01*
X2374414Y-106760D01*
X2375261Y-109300D01*
Y-113532D01*
X2374414Y-116072D01*
X2373568Y-117765D01*
X2371875Y-119458D01*
X2369335Y-120304D01*
X2363410D01*
X2376107Y431720D02*
X2375261Y433413D01*
X2373568Y435106D01*
X2371875Y435952D01*
X2368489D01*
X2366796Y435106D01*
X2365103Y433413D01*
X2364256Y431720D01*
X2363410Y429180D01*
Y424948D01*
X2364256Y422408D01*
X2365103Y420715D01*
X2366796Y419022D01*
X2368489Y418176D01*
X2371875D01*
X2373568Y419022D01*
X2375261Y420715D01*
X2376107Y422408D01*
X2363410Y975702D02*
Y957926D01*
Y975702D02*
X2371028D01*
X2373568Y974856D01*
X2374414Y974009D01*
X2375261Y972316D01*
Y970623D01*
X2374414Y968930D01*
X2373568Y968084D01*
X2371028Y967237D01*
X2363410D02*
X2371028D01*
X2373568Y966391D01*
X2374414Y965544D01*
X2375261Y963851D01*
Y961312D01*
X2374414Y959619D01*
X2373568Y958773D01*
X2371028Y957926D01*
X2363410D01*
X2376954Y1497676D02*
X2370182Y1515452D01*
X2363410Y1497676D01*
X2365950Y1503601D02*
X2374414D01*
X2047520Y1774024D02*
X2039055Y1762173D01*
X2051752D01*
X2047520Y1774024D02*
Y1756248D01*
X1341991Y1774024D02*
X1351302D01*
X1346223Y1767252D01*
X1348763D01*
X1350456Y1766406D01*
X1351302Y1765559D01*
X1352149Y1763020D01*
Y1761327D01*
X1351302Y1758788D01*
X1349609Y1757095D01*
X1347070Y1756248D01*
X1344530D01*
X1341991Y1757095D01*
X1341145Y1757941D01*
X1340298Y1759634D01*
X643914Y1769792D02*
Y1770638D01*
X644761Y1772331D01*
X645608Y1773178D01*
X647300Y1774024D01*
X650686D01*
X652379Y1773178D01*
X653226Y1772331D01*
X654072Y1770638D01*
Y1768945D01*
X653226Y1767252D01*
X651533Y1764713D01*
X643068Y1756248D01*
X654919D01*
X-55600Y1770638D02*
X-53907Y1771485D01*
X-51368Y1774024D01*
Y1756248D01*
X2047520Y-334176D02*
X2039055Y-346027D01*
X2051752D01*
X2047520Y-334176D02*
Y-351952D01*
X1341991Y-334176D02*
X1351302D01*
X1346223Y-340948D01*
X1348763D01*
X1350456Y-341794D01*
X1351302Y-342641D01*
X1352149Y-345180D01*
Y-346873D01*
X1351302Y-349412D01*
X1349609Y-351105D01*
X1347070Y-351952D01*
X1344530D01*
X1341991Y-351105D01*
X1341145Y-350259D01*
X1340298Y-348566D01*
X643914Y-338408D02*
Y-337562D01*
X644761Y-335869D01*
X645608Y-335022D01*
X647300Y-334176D01*
X650686D01*
X652379Y-335022D01*
X653226Y-335869D01*
X654072Y-337562D01*
Y-339255D01*
X653226Y-340948D01*
X651533Y-343487D01*
X643068Y-351952D01*
X654919D01*
X-55600Y-337562D02*
X-53907Y-336715D01*
X-51368Y-334176D01*
Y-351952D01*
X-379790Y-102528D02*
Y-120304D01*
Y-102528D02*
X-373865D01*
X-371325Y-103374D01*
X-369632Y-105067D01*
X-368786Y-106760D01*
X-367939Y-109300D01*
Y-113532D01*
X-368786Y-116072D01*
X-369632Y-117765D01*
X-371325Y-119458D01*
X-373865Y-120304D01*
X-379790D01*
X-367093Y431720D02*
X-367939Y433413D01*
X-369632Y435106D01*
X-371325Y435952D01*
X-374711D01*
X-376404Y435106D01*
X-378097Y433413D01*
X-378943Y431720D01*
X-379790Y429180D01*
Y424948D01*
X-378943Y422408D01*
X-378097Y420715D01*
X-376404Y419022D01*
X-374711Y418176D01*
X-371325D01*
X-369632Y419022D01*
X-367939Y420715D01*
X-367093Y422408D01*
X-379790Y975702D02*
Y957926D01*
Y975702D02*
X-372172D01*
X-369632Y974856D01*
X-368786Y974009D01*
X-367939Y972316D01*
Y970623D01*
X-368786Y968930D01*
X-369632Y968084D01*
X-372172Y967237D01*
X-379790D02*
X-372172D01*
X-369632Y966391D01*
X-368786Y965544D01*
X-367939Y963851D01*
Y961312D01*
X-368786Y959619D01*
X-369632Y958773D01*
X-372172Y957926D01*
X-379790D01*
X-366246Y1497676D02*
X-373018Y1515452D01*
X-379790Y1497676D01*
X-377251Y1503601D02*
X-368786D01*
D28*
X474625Y418922D02*
G03*
X474625Y418922I-625J0D01*
G01*
X477453Y421750D02*
G03*
X477453Y421750I-625J0D01*
G01*
X474625Y424578D02*
G03*
X474625Y424578I-625J0D01*
G01*
X471797Y421750D02*
G03*
X471797Y421750I-625J0D01*
G01*
D29*
X307993Y1007500D02*
D03*
X296993D02*
D03*
X286000Y1007493D02*
D03*
X274993Y1007500D02*
D03*
X264000Y1007493D02*
D03*
X252993Y1007500D02*
D03*
X242000Y1007493D02*
D03*
X230993Y1007500D02*
D03*
X220000Y1007493D02*
D03*
X209000D02*
D03*
X197993Y1007500D02*
D03*
X187000Y1007493D02*
D03*
X175993Y1007500D02*
D03*
X165000Y1007493D02*
D03*
X153993Y1007500D02*
D03*
X143000Y1007493D02*
D03*
X132000D02*
D03*
X120993Y1007500D02*
D03*
X110000Y1007493D02*
D03*
X98993Y1007500D02*
D03*
X88000Y1007493D02*
D03*
Y867493D02*
D03*
X98993Y867500D02*
D03*
X110000Y867493D02*
D03*
X120993Y867500D02*
D03*
X132000Y867493D02*
D03*
X143000D02*
D03*
X153993Y867500D02*
D03*
X165000Y867493D02*
D03*
X175993Y867500D02*
D03*
X187000Y867493D02*
D03*
X197993Y867500D02*
D03*
X209000Y867493D02*
D03*
X220000D02*
D03*
X230993Y867500D02*
D03*
X242000Y867493D02*
D03*
X252993Y867500D02*
D03*
X264000Y867493D02*
D03*
X274993Y867500D02*
D03*
X286000Y867493D02*
D03*
X296993Y867500D02*
D03*
X307993D02*
D03*
D30*
X78000Y992493D02*
D03*
X78007Y981500D02*
D03*
X78000Y970493D02*
D03*
X78007Y959500D02*
D03*
X78000Y948493D02*
D03*
Y937493D02*
D03*
X78007Y926500D02*
D03*
X78000Y915493D02*
D03*
X78007Y904500D02*
D03*
X78000Y893493D02*
D03*
X78007Y882500D02*
D03*
X318007Y893500D02*
D03*
X318000Y904493D02*
D03*
X318007Y915500D02*
D03*
X318000Y882493D02*
D03*
Y926493D02*
D03*
X318007Y937500D02*
D03*
X318000Y948493D02*
D03*
Y959493D02*
D03*
Y970493D02*
D03*
Y981493D02*
D03*
X318007Y992500D02*
D03*
D31*
X224974Y822751D02*
D03*
X231972Y822747D02*
D03*
X321870Y633808D02*
D03*
X328855Y633807D02*
D03*
X321863Y584917D02*
D03*
X328863Y584919D02*
D03*
X59753Y661577D02*
D03*
X52748Y661573D02*
D03*
X178223Y822748D02*
D03*
X185223Y822752D02*
D03*
D32*
X206098Y428414D02*
D03*
Y436414D02*
D03*
X338026Y134250D02*
D03*
Y126250D02*
D03*
Y142225D02*
D03*
Y150225D02*
D03*
X288215Y54000D02*
D03*
Y62000D02*
D03*
X166500Y361296D02*
D03*
Y369296D02*
D03*
X119925Y269805D02*
D03*
Y261805D02*
D03*
X122750Y300490D02*
D03*
Y308490D02*
D03*
X210000Y77000D02*
D03*
Y69000D02*
D03*
X465100Y892250D02*
D03*
Y884250D02*
D03*
X637250Y531358D02*
D03*
Y523358D02*
D03*
X645250Y531319D02*
D03*
Y523319D02*
D03*
X615269Y557000D02*
D03*
Y549000D02*
D03*
X191500Y777000D02*
D03*
Y785000D02*
D03*
X200250Y777000D02*
D03*
Y785000D02*
D03*
X500750Y879250D02*
D03*
Y887250D02*
D03*
X509250D02*
D03*
Y879250D02*
D03*
X517750Y887250D02*
D03*
X517750Y879250D02*
D03*
X499028Y959250D02*
D03*
Y951250D02*
D03*
X481000Y891250D02*
D03*
Y883250D02*
D03*
X489750Y891250D02*
D03*
Y883250D02*
D03*
X520056Y455000D02*
D03*
Y447000D02*
D03*
X403845Y591382D02*
D03*
Y599382D02*
D03*
X382615Y595930D02*
D03*
Y603930D02*
D03*
X382761Y628254D02*
D03*
Y620254D02*
D03*
X403115Y623634D02*
D03*
Y631634D02*
D03*
X514250Y816500D02*
D03*
Y824500D02*
D03*
X349599Y812829D02*
D03*
Y820829D02*
D03*
X177327Y664750D02*
D03*
Y672750D02*
D03*
X169315Y664750D02*
D03*
Y672750D02*
D03*
X98250Y454750D02*
D03*
Y462750D02*
D03*
X115000Y368567D02*
D03*
Y376567D02*
D03*
X520646Y611150D02*
D03*
X520646Y619150D02*
D03*
X501214Y631400D02*
D03*
Y639400D02*
D03*
X509396Y631400D02*
D03*
Y639400D02*
D03*
X554750Y610222D02*
D03*
X554750Y602222D02*
D03*
X533932Y286750D02*
D03*
Y294750D02*
D03*
X554932Y654900D02*
D03*
X554932Y646900D02*
D03*
X362681Y625401D02*
D03*
X362681Y617401D02*
D03*
X354005Y625401D02*
D03*
X354005Y617401D02*
D03*
X375250Y632738D02*
D03*
X375250Y640738D02*
D03*
X534000Y136280D02*
D03*
Y144280D02*
D03*
X524250Y170250D02*
D03*
Y178250D02*
D03*
X618447Y267433D02*
D03*
X618447Y259433D02*
D03*
X130973Y825000D02*
D03*
Y817000D02*
D03*
X252961Y623859D02*
D03*
Y615859D02*
D03*
X282195Y617691D02*
D03*
Y625691D02*
D03*
X402750Y414793D02*
D03*
Y406793D02*
D03*
X80109Y480000D02*
D03*
Y488000D02*
D03*
X158550Y370084D02*
D03*
Y378084D02*
D03*
X116723Y845250D02*
D03*
Y837250D02*
D03*
X534364Y782211D02*
D03*
Y774211D02*
D03*
X17438Y431785D02*
D03*
X17438Y439785D02*
D03*
X64211Y381668D02*
D03*
Y373668D02*
D03*
X532500Y828250D02*
D03*
Y820250D02*
D03*
X600382Y463543D02*
D03*
X600382Y471543D02*
D03*
X297890Y622035D02*
D03*
X297890Y630035D02*
D03*
Y637520D02*
D03*
X297890Y645520D02*
D03*
X353005Y596688D02*
D03*
X353005Y588689D02*
D03*
Y581035D02*
D03*
X353005Y573035D02*
D03*
X624500Y850500D02*
D03*
Y842500D02*
D03*
X632750D02*
D03*
Y850500D02*
D03*
X154250Y826562D02*
D03*
Y834563D02*
D03*
X154252Y818000D02*
D03*
Y810000D02*
D03*
X256222Y811000D02*
D03*
Y819000D02*
D03*
Y834750D02*
D03*
X256223Y826750D02*
D03*
X619000Y666390D02*
D03*
X619000Y674390D02*
D03*
X610637Y674466D02*
D03*
X610637Y666466D02*
D03*
X133500Y68250D02*
D03*
Y60250D02*
D03*
X504132Y471293D02*
D03*
Y479293D02*
D03*
X495250Y471250D02*
D03*
X495250Y479250D02*
D03*
X493000Y516000D02*
D03*
Y524000D02*
D03*
X541750Y324063D02*
D03*
X541750Y316063D02*
D03*
X163399Y542500D02*
D03*
Y534500D02*
D03*
X557882Y324000D02*
D03*
Y316000D02*
D03*
X534882Y463793D02*
D03*
X534882Y471793D02*
D03*
X603870Y528817D02*
D03*
Y520817D02*
D03*
X63200Y488250D02*
D03*
Y496250D02*
D03*
X625882Y463293D02*
D03*
Y471293D02*
D03*
X496250Y352250D02*
D03*
X496250Y360250D02*
D03*
X572598Y499850D02*
D03*
X572598Y507850D02*
D03*
X593658Y499800D02*
D03*
Y507800D02*
D03*
X541250Y500090D02*
D03*
X541250Y508090D02*
D03*
X563382Y516033D02*
D03*
X563382Y508033D02*
D03*
X610000Y500750D02*
D03*
Y508750D02*
D03*
X629500Y501538D02*
D03*
X629500Y509538D02*
D03*
X86000Y700250D02*
D03*
Y692250D02*
D03*
X508208Y504500D02*
D03*
X508208Y496500D02*
D03*
X529682Y517360D02*
D03*
X529682Y509360D02*
D03*
X549750Y316063D02*
D03*
Y324063D02*
D03*
X155500Y542500D02*
D03*
X155500Y534500D02*
D03*
X513500Y315750D02*
D03*
X513500Y323750D02*
D03*
X505500Y315750D02*
D03*
Y323750D02*
D03*
X380750Y688750D02*
D03*
Y696750D02*
D03*
Y680996D02*
D03*
Y672996D02*
D03*
X420990Y722351D02*
D03*
Y714351D02*
D03*
X83986Y665577D02*
D03*
X83986Y673577D02*
D03*
X83745Y649580D02*
D03*
X83745Y657580D02*
D03*
X349239Y706088D02*
D03*
Y714088D02*
D03*
X246927Y700000D02*
D03*
Y692000D02*
D03*
X239000Y691827D02*
D03*
Y699827D02*
D03*
X317500Y759639D02*
D03*
Y767638D02*
D03*
X232860Y724603D02*
D03*
Y716603D02*
D03*
X233214Y740238D02*
D03*
Y732238D02*
D03*
X345250Y683238D02*
D03*
Y675238D02*
D03*
X145756Y810000D02*
D03*
Y818000D02*
D03*
Y826562D02*
D03*
Y834563D02*
D03*
X264223Y819000D02*
D03*
Y811000D02*
D03*
Y826750D02*
D03*
X264223Y834750D02*
D03*
X106540Y372417D02*
D03*
X106540Y380417D02*
D03*
X142250Y379000D02*
D03*
X142250Y371000D02*
D03*
X150431Y379087D02*
D03*
Y371087D02*
D03*
X123381Y368567D02*
D03*
X123381Y376567D02*
D03*
X249750Y748750D02*
D03*
Y740750D02*
D03*
X181469Y465500D02*
D03*
X181469Y457500D02*
D03*
X133905Y371000D02*
D03*
X133905Y379000D02*
D03*
X147387Y474344D02*
D03*
X147387Y466344D02*
D03*
X182111Y413459D02*
D03*
Y405459D02*
D03*
X58030Y900750D02*
D03*
Y892750D02*
D03*
X491250Y583000D02*
D03*
Y575000D02*
D03*
Y566500D02*
D03*
Y558500D02*
D03*
Y597500D02*
D03*
Y605500D02*
D03*
X301000Y780775D02*
D03*
Y772775D02*
D03*
X539132Y691706D02*
D03*
Y683706D02*
D03*
X530750Y691706D02*
D03*
Y683706D02*
D03*
X244750Y258750D02*
D03*
Y266750D02*
D03*
X627618Y674401D02*
D03*
Y666401D02*
D03*
X602632Y666466D02*
D03*
Y674466D02*
D03*
X569855Y676466D02*
D03*
Y668466D02*
D03*
X342405Y230091D02*
D03*
Y238091D02*
D03*
X332439Y234173D02*
D03*
Y242173D02*
D03*
X350444Y230091D02*
D03*
Y238091D02*
D03*
X416000Y237169D02*
D03*
Y229169D02*
D03*
X130648Y300490D02*
D03*
Y308490D02*
D03*
X15750Y968250D02*
D03*
Y960250D02*
D03*
X37750Y989000D02*
D03*
Y997000D02*
D03*
X46250Y989000D02*
D03*
Y997000D02*
D03*
X21250Y989250D02*
D03*
X21250Y997250D02*
D03*
X29250Y989250D02*
D03*
X29250Y997250D02*
D03*
X49745Y900750D02*
D03*
Y892750D02*
D03*
X90000Y454883D02*
D03*
Y462883D02*
D03*
X350250Y1011000D02*
D03*
Y1003000D02*
D03*
Y987016D02*
D03*
Y995016D02*
D03*
X401000Y228793D02*
D03*
Y236793D02*
D03*
X409000Y456750D02*
D03*
Y448750D02*
D03*
X232300Y652167D02*
D03*
Y644167D02*
D03*
X241466Y761917D02*
D03*
Y769917D02*
D03*
X284733Y776272D02*
D03*
Y768272D02*
D03*
X609762Y605000D02*
D03*
Y597000D02*
D03*
X618000Y613056D02*
D03*
Y605056D02*
D03*
Y588866D02*
D03*
Y596866D02*
D03*
X576355Y610150D02*
D03*
Y618150D02*
D03*
X547500Y683750D02*
D03*
Y691750D02*
D03*
X375389Y136627D02*
D03*
Y128627D02*
D03*
D33*
X165750Y553000D02*
D03*
Y579000D02*
D03*
D34*
X217096Y438164D02*
D03*
X217096Y422164D02*
D03*
X230096Y438164D02*
D03*
X230096Y422164D02*
D03*
D35*
X255921Y763989D02*
D03*
X272921D02*
D03*
X255921Y777989D02*
D03*
X272921D02*
D03*
D36*
X30863Y957000D02*
D03*
D37*
X30363Y953000D02*
D03*
Y949000D02*
D03*
Y945000D02*
D03*
X45863Y949000D02*
D03*
Y945000D02*
D03*
Y953000D02*
D03*
Y957000D02*
D03*
D38*
X32113Y939250D02*
D03*
X36113D02*
D03*
X40113D02*
D03*
X44113D02*
D03*
Y962750D02*
D03*
X40113D02*
D03*
X36113D02*
D03*
X32113D02*
D03*
D39*
X96800Y644750D02*
D03*
X109500D02*
D03*
X122200Y644750D02*
D03*
X134900Y644750D02*
D03*
X134900Y700050D02*
D03*
X122200Y700050D02*
D03*
X109500Y700050D02*
D03*
X96800D02*
D03*
D40*
X303000Y42953D02*
D03*
X367000D02*
D03*
D41*
X322000Y43953D02*
D03*
X328500D02*
D03*
X335000D02*
D03*
X341500D02*
D03*
X348000D02*
D03*
D42*
X347000Y17203D02*
D03*
X323000D02*
D03*
D43*
X39750Y1037250D02*
D03*
Y1046750D02*
D03*
Y1056250D02*
D03*
X62750D02*
D03*
Y1046750D02*
D03*
Y1037250D02*
D03*
X156405Y279805D02*
D03*
Y270305D02*
D03*
Y260805D02*
D03*
X133405D02*
D03*
Y270305D02*
D03*
Y279805D02*
D03*
D44*
X36000Y1037250D02*
D03*
Y1046750D02*
D03*
Y1056250D02*
D03*
X66500D02*
D03*
Y1046750D02*
D03*
Y1037250D02*
D03*
X160155Y279805D02*
D03*
Y270305D02*
D03*
Y260805D02*
D03*
X129655D02*
D03*
Y270305D02*
D03*
Y279805D02*
D03*
D45*
X51250Y1046750D02*
D03*
X144905Y270305D02*
D03*
D46*
X444000Y380000D02*
D03*
Y385000D02*
D03*
X444000Y375000D02*
D03*
X457500Y380000D02*
D03*
X457500Y385000D02*
D03*
X457500Y375000D02*
D03*
X520750Y315063D02*
D03*
X520750Y325063D02*
D03*
Y320063D02*
D03*
X534250Y315063D02*
D03*
X534250Y325063D02*
D03*
X244025Y468883D02*
D03*
Y463883D02*
D03*
Y458883D02*
D03*
X230525D02*
D03*
Y463883D02*
D03*
Y468883D02*
D03*
X354000Y634230D02*
D03*
Y639230D02*
D03*
Y644230D02*
D03*
X367500D02*
D03*
Y639230D02*
D03*
Y634230D02*
D03*
X260965Y618035D02*
D03*
Y623035D02*
D03*
Y628035D02*
D03*
X274466D02*
D03*
Y623035D02*
D03*
Y618035D02*
D03*
X505132Y390293D02*
D03*
Y385293D02*
D03*
Y380293D02*
D03*
X518632D02*
D03*
Y385293D02*
D03*
Y390293D02*
D03*
X525382Y477793D02*
D03*
Y472793D02*
D03*
Y467793D02*
D03*
X511882D02*
D03*
Y472793D02*
D03*
Y477793D02*
D03*
X517382Y360043D02*
D03*
Y355043D02*
D03*
Y350043D02*
D03*
X503882D02*
D03*
Y355043D02*
D03*
Y360043D02*
D03*
X655132Y384793D02*
D03*
Y389793D02*
D03*
X655132Y394793D02*
D03*
X668632D02*
D03*
X668632Y389793D02*
D03*
Y384793D02*
D03*
X145750Y305055D02*
D03*
Y310055D02*
D03*
Y315055D02*
D03*
X159250D02*
D03*
Y310055D02*
D03*
Y305055D02*
D03*
X512250Y286250D02*
D03*
Y291250D02*
D03*
Y296250D02*
D03*
X525750D02*
D03*
Y291250D02*
D03*
Y286250D02*
D03*
X598250Y1020000D02*
D03*
Y1025000D02*
D03*
Y1030000D02*
D03*
X611750D02*
D03*
Y1025000D02*
D03*
Y1020000D02*
D03*
D47*
X559250Y734082D02*
D03*
Y759082D02*
D03*
X578250D02*
D03*
Y734082D02*
D03*
X568750D02*
D03*
D48*
X399250Y734500D02*
D03*
X408750Y712500D02*
D03*
X389750Y712500D02*
D03*
D49*
X367000Y429743D02*
D03*
X367000Y421343D02*
D03*
D50*
X585500Y1010250D02*
D03*
X571500D02*
D03*
X109136Y160180D02*
D03*
X123136D02*
D03*
X560000Y188963D02*
D03*
X546000D02*
D03*
X623381Y1010250D02*
D03*
X637381D02*
D03*
D51*
X69500Y322305D02*
D03*
Y266305D02*
D03*
D52*
X108250Y279305D02*
D03*
X108250Y289305D02*
D03*
Y299305D02*
D03*
X108250Y309305D02*
D03*
D53*
X510942Y439328D02*
D03*
Y432328D02*
D03*
X520642D02*
D03*
Y439328D02*
D03*
X520642Y435828D02*
D03*
X510942D02*
D03*
X419205Y429828D02*
D03*
X409505D02*
D03*
Y426328D02*
D03*
Y433328D02*
D03*
X419205D02*
D03*
Y426328D02*
D03*
D54*
X95500Y885000D02*
D03*
Y906000D02*
D03*
Y927000D02*
D03*
Y948000D02*
D03*
Y969000D02*
D03*
Y990000D02*
D03*
X113500Y885000D02*
D03*
Y906000D02*
D03*
Y927000D02*
D03*
Y948000D02*
D03*
Y969000D02*
D03*
Y990000D02*
D03*
X131500Y885000D02*
D03*
Y990000D02*
D03*
X167500Y885000D02*
D03*
Y990000D02*
D03*
X228500Y885000D02*
D03*
Y990000D02*
D03*
X264500Y885000D02*
D03*
Y990000D02*
D03*
X282500Y885000D02*
D03*
Y906000D02*
D03*
Y927000D02*
D03*
Y948000D02*
D03*
Y969000D02*
D03*
Y990000D02*
D03*
X300500Y885000D02*
D03*
Y906000D02*
D03*
Y927000D02*
D03*
Y948000D02*
D03*
Y969000D02*
D03*
Y990000D02*
D03*
D55*
X647912Y585894D02*
D03*
Y603894D02*
D03*
D56*
X579975Y647750D02*
D03*
X592975D02*
D03*
X330000Y850000D02*
D03*
X343000D02*
D03*
D57*
X270136Y748077D02*
D03*
X265136D02*
D03*
X280136Y748077D02*
D03*
X275136D02*
D03*
X290136D02*
D03*
X285136D02*
D03*
X310136D02*
D03*
X305136D02*
D03*
X300136D02*
D03*
X295136D02*
D03*
X330136D02*
D03*
X325136D02*
D03*
X320136D02*
D03*
X315136D02*
D03*
X325136Y670077D02*
D03*
X330136D02*
D03*
X315136Y670077D02*
D03*
X320136D02*
D03*
X305136D02*
D03*
X310136D02*
D03*
X285136D02*
D03*
X290136D02*
D03*
X295136D02*
D03*
X300136D02*
D03*
X265136D02*
D03*
X270136D02*
D03*
X275136D02*
D03*
X280136D02*
D03*
D58*
X336636Y736577D02*
D03*
Y741577D02*
D03*
X336636Y726577D02*
D03*
Y731577D02*
D03*
Y716577D02*
D03*
Y721577D02*
D03*
Y696577D02*
D03*
Y701577D02*
D03*
Y706577D02*
D03*
Y711577D02*
D03*
Y676577D02*
D03*
Y681577D02*
D03*
Y686577D02*
D03*
Y691577D02*
D03*
X258636Y681577D02*
D03*
Y676577D02*
D03*
X258636Y691577D02*
D03*
Y686577D02*
D03*
Y701577D02*
D03*
Y696577D02*
D03*
Y721577D02*
D03*
Y716577D02*
D03*
Y711577D02*
D03*
Y706577D02*
D03*
Y741577D02*
D03*
Y736577D02*
D03*
Y731577D02*
D03*
Y726577D02*
D03*
D59*
X117250Y455121D02*
D03*
X112250D02*
D03*
X127250D02*
D03*
X122250D02*
D03*
X147250D02*
D03*
X142250D02*
D03*
X137250D02*
D03*
X132250D02*
D03*
X167250D02*
D03*
X162250D02*
D03*
X157250D02*
D03*
X152250D02*
D03*
X162250Y388621D02*
D03*
X167250D02*
D03*
X152250D02*
D03*
X157250D02*
D03*
X132250D02*
D03*
X137250D02*
D03*
X142250D02*
D03*
X147250D02*
D03*
X112250D02*
D03*
X117250D02*
D03*
X122250D02*
D03*
X127250D02*
D03*
D60*
X106500Y399371D02*
D03*
Y394371D02*
D03*
Y409371D02*
D03*
Y404371D02*
D03*
Y429371D02*
D03*
Y424371D02*
D03*
Y419371D02*
D03*
Y414371D02*
D03*
Y449371D02*
D03*
Y444371D02*
D03*
Y439371D02*
D03*
Y434371D02*
D03*
X173000Y444371D02*
D03*
Y449371D02*
D03*
Y434371D02*
D03*
Y439371D02*
D03*
Y414371D02*
D03*
Y419371D02*
D03*
Y424371D02*
D03*
Y429371D02*
D03*
Y394371D02*
D03*
Y399371D02*
D03*
Y404371D02*
D03*
Y409371D02*
D03*
D61*
X532182Y641730D02*
D03*
D62*
X546182Y634230D02*
D03*
X546182Y639230D02*
D03*
X546182Y649230D02*
D03*
X546182Y644230D02*
D03*
X518182Y649230D02*
D03*
Y644230D02*
D03*
Y634230D02*
D03*
Y639230D02*
D03*
D63*
X539682Y655730D02*
D03*
X534682Y655730D02*
D03*
X524682Y655730D02*
D03*
X529682Y655730D02*
D03*
X524682Y627730D02*
D03*
X529682D02*
D03*
X539682D02*
D03*
X534682D02*
D03*
D64*
X245973Y820250D02*
D03*
Y825250D02*
D03*
X210972D02*
D03*
Y820250D02*
D03*
X342863Y636307D02*
D03*
Y631307D02*
D03*
X307863D02*
D03*
Y636307D02*
D03*
X342863Y582417D02*
D03*
Y587417D02*
D03*
X307863D02*
D03*
Y582417D02*
D03*
X38750Y659077D02*
D03*
X38750Y664077D02*
D03*
X73750Y664077D02*
D03*
X73750Y659077D02*
D03*
X199223Y825250D02*
D03*
Y820250D02*
D03*
X164223D02*
D03*
Y825250D02*
D03*
D65*
X240973Y835250D02*
D03*
X225973Y835250D02*
D03*
X220973D02*
D03*
X215972D02*
D03*
Y810250D02*
D03*
X220973D02*
D03*
X225973D02*
D03*
X230973D02*
D03*
X235973D02*
D03*
X240973Y810250D02*
D03*
X235973Y835250D02*
D03*
X230973D02*
D03*
X312863Y646307D02*
D03*
X317863D02*
D03*
X322863Y646307D02*
D03*
X327863Y646307D02*
D03*
X332863Y646307D02*
D03*
X337863Y646307D02*
D03*
Y621307D02*
D03*
X332863D02*
D03*
X327863Y621307D02*
D03*
X322863Y621307D02*
D03*
X317863Y621307D02*
D03*
X312863Y621307D02*
D03*
X337863Y597417D02*
D03*
X332863Y597417D02*
D03*
X327863Y597417D02*
D03*
X322863Y597417D02*
D03*
X317863Y597417D02*
D03*
X312863D02*
D03*
Y572417D02*
D03*
X317863D02*
D03*
X322863Y572417D02*
D03*
X327863Y572417D02*
D03*
X332863Y572417D02*
D03*
X337863Y572417D02*
D03*
X48750Y649077D02*
D03*
X53750D02*
D03*
X58750Y649077D02*
D03*
X63750Y649077D02*
D03*
X68750Y649077D02*
D03*
X43750D02*
D03*
Y674077D02*
D03*
X48750Y674077D02*
D03*
X53750Y674077D02*
D03*
X58750Y674077D02*
D03*
X63750Y674077D02*
D03*
X68750D02*
D03*
X169223Y835250D02*
D03*
X174223Y835250D02*
D03*
X179223D02*
D03*
X184223D02*
D03*
X189223Y835250D02*
D03*
X194223D02*
D03*
Y810250D02*
D03*
X189223D02*
D03*
X184223Y810250D02*
D03*
X179223D02*
D03*
X174223D02*
D03*
X169223Y810250D02*
D03*
D66*
X424500Y419250D02*
D03*
X429500Y416375D02*
D03*
X434500D02*
D03*
X429500Y422125D02*
D03*
X434500Y422125D02*
D03*
X507750Y424625D02*
D03*
X502750D02*
D03*
X507750Y418875D02*
D03*
X502750D02*
D03*
X497750Y421750D02*
D03*
D67*
X75000Y581000D02*
D03*
Y570000D02*
D03*
X53000D02*
D03*
X12000Y531500D02*
D03*
X27000Y531500D02*
D03*
X42000Y531500D02*
D03*
X53000Y531500D02*
D03*
X64000Y531500D02*
D03*
X75000D02*
D03*
X86000D02*
D03*
X97000D02*
D03*
X130000Y531500D02*
D03*
X141000Y531500D02*
D03*
X12000Y542500D02*
D03*
X42000Y542500D02*
D03*
X64000D02*
D03*
X75000D02*
D03*
X86000D02*
D03*
X97000D02*
D03*
X108000D02*
D03*
X130000D02*
D03*
X42000Y553500D02*
D03*
X53000D02*
D03*
X64000D02*
D03*
X86000D02*
D03*
X97000D02*
D03*
X119000Y564500D02*
D03*
X130000D02*
D03*
X141000D02*
D03*
X42000Y575500D02*
D03*
X97000Y570000D02*
D03*
X119000Y575500D02*
D03*
X130000D02*
D03*
X119000Y586500D02*
D03*
X130000Y586500D02*
D03*
X141000Y586500D02*
D03*
X42000Y597500D02*
D03*
X53000Y597500D02*
D03*
X108000D02*
D03*
X130000D02*
D03*
X141000D02*
D03*
X12000Y608500D02*
D03*
X42000Y608500D02*
D03*
X53000D02*
D03*
X64000D02*
D03*
X86000D02*
D03*
X97000D02*
D03*
X108000D02*
D03*
X119000D02*
D03*
X130000Y608500D02*
D03*
X12000Y619500D02*
D03*
X27000Y619500D02*
D03*
X42000D02*
D03*
X53000Y619500D02*
D03*
X75000D02*
D03*
X86000D02*
D03*
X97000D02*
D03*
X108000D02*
D03*
X130000D02*
D03*
X141000Y619500D02*
D03*
X86000Y570000D02*
D03*
X53000Y581000D02*
D03*
X97000D02*
D03*
X86000D02*
D03*
X97000Y597500D02*
D03*
X141000Y575500D02*
D03*
X119000Y542500D02*
D03*
X75000Y608500D02*
D03*
Y597500D02*
D03*
X141000Y608500D02*
D03*
X86000Y597500D02*
D03*
X119000Y619500D02*
D03*
X53000Y542500D02*
D03*
X64000Y597500D02*
D03*
Y619500D02*
D03*
X108000Y553500D02*
D03*
X141000D02*
D03*
X130000D02*
D03*
X75000D02*
D03*
X141000Y542500D02*
D03*
X119000Y531500D02*
D03*
X108000D02*
D03*
D68*
X558250Y889750D02*
D03*
Y900750D02*
D03*
Y911750D02*
D03*
Y922750D02*
D03*
Y933750D02*
D03*
Y878750D02*
D03*
X643750Y862750D02*
D03*
X669250D02*
D03*
Y949750D02*
D03*
X643750D02*
D03*
D69*
X571500Y912000D02*
D03*
X583000D02*
D03*
Y900500D02*
D03*
Y889000D02*
D03*
X571500Y900500D02*
D03*
X594500D02*
D03*
Y912000D02*
D03*
X583000Y923500D02*
D03*
X606000D02*
D03*
Y912000D02*
D03*
Y900500D02*
D03*
Y889000D02*
D03*
D70*
X544500Y926250D02*
D03*
Y916250D02*
D03*
Y906250D02*
D03*
Y896250D02*
D03*
Y886250D02*
D03*
X633000D02*
D03*
Y896250D02*
D03*
Y906250D02*
D03*
Y916250D02*
D03*
Y926250D02*
D03*
D71*
X543750Y947500D02*
D03*
X553750D02*
D03*
X563750D02*
D03*
X573750D02*
D03*
X583750D02*
D03*
X593750D02*
D03*
X603750D02*
D03*
X613750D02*
D03*
X623750D02*
D03*
X633750D02*
D03*
Y865000D02*
D03*
X623750D02*
D03*
X613750D02*
D03*
X603750D02*
D03*
X593750D02*
D03*
X583750D02*
D03*
X573750D02*
D03*
X563750D02*
D03*
X553750D02*
D03*
X543750D02*
D03*
D72*
X147250Y663250D02*
D03*
Y676250D02*
D03*
X158500Y663250D02*
D03*
Y676250D02*
D03*
X327536Y759495D02*
D03*
Y772495D02*
D03*
X636750Y554500D02*
D03*
Y541500D02*
D03*
X649000Y541457D02*
D03*
Y554457D02*
D03*
X160250Y762750D02*
D03*
Y749750D02*
D03*
X171500Y749750D02*
D03*
Y762750D02*
D03*
X197169Y736544D02*
D03*
Y749544D02*
D03*
X208615D02*
D03*
Y736544D02*
D03*
X478500Y860750D02*
D03*
Y873750D02*
D03*
X490750D02*
D03*
Y860750D02*
D03*
X515500Y847500D02*
D03*
Y834500D02*
D03*
X549250Y269198D02*
D03*
Y256198D02*
D03*
D73*
X335750Y207500D02*
D03*
X340750D02*
D03*
X340750Y222500D02*
D03*
X335750D02*
D03*
D74*
X345750Y207500D02*
D03*
X345750Y222500D02*
D03*
X330750Y222500D02*
D03*
X330750Y207500D02*
D03*
D75*
X345750Y212500D02*
D03*
X345750Y217500D02*
D03*
X330750D02*
D03*
Y212500D02*
D03*
D76*
X270000Y195000D02*
D03*
Y190000D02*
D03*
X285000Y190000D02*
D03*
Y195000D02*
D03*
D77*
X270000Y185000D02*
D03*
X285000Y185000D02*
D03*
X285000Y200000D02*
D03*
X270000Y200000D02*
D03*
D78*
X275000Y185000D02*
D03*
X280000Y185000D02*
D03*
Y200000D02*
D03*
X275000D02*
D03*
D79*
X625500Y540250D02*
D03*
Y556250D02*
D03*
X466850Y875250D02*
D03*
Y859250D02*
D03*
D80*
X402750Y429921D02*
D03*
Y421821D02*
D03*
D81*
X367250Y1011250D02*
D03*
X358250D02*
D03*
X497570Y385293D02*
D03*
X488570D02*
D03*
X465000Y421750D02*
D03*
X456000Y421750D02*
D03*
D82*
X406000Y221050D02*
D03*
X411000Y221050D02*
D03*
X416000D02*
D03*
X416000Y195750D02*
D03*
X411000Y195750D02*
D03*
X406000Y195750D02*
D03*
D83*
X423650Y218400D02*
D03*
X423650Y213400D02*
D03*
X423650Y208400D02*
D03*
Y203400D02*
D03*
Y198400D02*
D03*
X398350Y198400D02*
D03*
Y203400D02*
D03*
Y208400D02*
D03*
Y213400D02*
D03*
Y218400D02*
D03*
D84*
X317336Y136131D02*
D03*
D85*
X329636Y144131D02*
D03*
Y128131D02*
D03*
Y136131D02*
D03*
X305036Y128131D02*
D03*
Y136131D02*
D03*
Y144131D02*
D03*
D86*
X610581Y278968D02*
D03*
X577581Y304368D02*
D03*
X610581Y329768D02*
D03*
X516500Y144350D02*
D03*
X483500Y169750D02*
D03*
X516500Y195150D02*
D03*
X572750Y832806D02*
D03*
X539750Y807406D02*
D03*
X572750Y782006D02*
D03*
X23849Y418785D02*
D03*
X56849Y393385D02*
D03*
Y444185D02*
D03*
X378250Y793186D02*
D03*
X345250Y767786D02*
D03*
X378250Y742386D02*
D03*
D87*
X446800Y355813D02*
D03*
X472200Y321523D02*
D03*
D88*
X139500Y1188500D02*
D03*
Y1071500D02*
D03*
X51500Y1188500D02*
D03*
Y1071500D02*
D03*
D89*
X10500Y1111000D02*
D03*
Y1098300D02*
D03*
Y1123700D02*
D03*
Y1136400D02*
D03*
Y1149100D02*
D03*
Y1161800D02*
D03*
D90*
X633000Y652307D02*
D03*
X605000D02*
D03*
D91*
X147100Y60000D02*
D03*
X159800D02*
D03*
X172100D02*
D03*
X197900D02*
D03*
X185200D02*
D03*
X147100Y89600D02*
D03*
X159800D02*
D03*
X172100D02*
D03*
X197900D02*
D03*
X185200D02*
D03*
D92*
X182500Y778000D02*
D03*
Y783000D02*
D03*
Y788000D02*
D03*
X170000Y783000D02*
D03*
X170000Y788000D02*
D03*
Y778000D02*
D03*
D93*
X422750Y688000D02*
D03*
X413250Y660500D02*
D03*
X432250D02*
D03*
X413250Y688000D02*
D03*
X432250D02*
D03*
X422750Y660500D02*
D03*
D94*
Y674250D02*
D03*
D95*
X347439Y126532D02*
D03*
Y133032D02*
D03*
Y139532D02*
D03*
X347439Y146032D02*
D03*
X367939D02*
D03*
Y139532D02*
D03*
Y133032D02*
D03*
X367939Y126532D02*
D03*
D96*
X473551Y703480D02*
D03*
Y731480D02*
D03*
X327974Y785304D02*
D03*
Y813304D02*
D03*
X442250Y703500D02*
D03*
Y731500D02*
D03*
D97*
X222817Y729782D02*
D03*
Y745782D02*
D03*
X218561Y460883D02*
D03*
Y476883D02*
D03*
X289250Y849000D02*
D03*
Y833000D02*
D03*
X229250Y697250D02*
D03*
Y681250D02*
D03*
D98*
X630000Y1057000D02*
D03*
Y1023000D02*
D03*
X580000Y1057000D02*
D03*
Y1023000D02*
D03*
D99*
X37750Y845000D02*
D03*
Y883000D02*
D03*
D100*
X60750Y854000D02*
D03*
Y859000D02*
D03*
Y864000D02*
D03*
Y869000D02*
D03*
Y874000D02*
D03*
D101*
X294750Y233698D02*
D03*
X286750Y233698D02*
D03*
X278750Y233698D02*
D03*
X270750Y233698D02*
D03*
X262750Y233698D02*
D03*
X254750Y233698D02*
D03*
X254750Y255648D02*
D03*
X262750Y255648D02*
D03*
X270750Y255648D02*
D03*
X278750D02*
D03*
X286750Y255648D02*
D03*
X294750Y255648D02*
D03*
D102*
X253775Y244673D02*
D03*
X295725Y244673D02*
D03*
D103*
X360500Y65250D02*
D03*
X376500D02*
D03*
X298467Y59500D02*
D03*
X314467D02*
D03*
D104*
X569202Y710381D02*
D03*
X597202Y710381D02*
D03*
D105*
X129405Y290673D02*
D03*
X137405D02*
D03*
X459039Y111750D02*
D03*
X467039D02*
D03*
X459039Y120250D02*
D03*
X467039D02*
D03*
X459039Y128750D02*
D03*
X467039D02*
D03*
X154422Y779073D02*
D03*
X162422D02*
D03*
X234250Y777500D02*
D03*
X226250D02*
D03*
X382650Y582964D02*
D03*
X390650D02*
D03*
X383000Y642000D02*
D03*
X391000D02*
D03*
X418500Y607984D02*
D03*
X410500D02*
D03*
X541005Y246185D02*
D03*
X549005D02*
D03*
X240761Y450500D02*
D03*
X248761D02*
D03*
X98750Y405000D02*
D03*
X90750D02*
D03*
X98750Y389084D02*
D03*
X90750D02*
D03*
X181607Y380569D02*
D03*
X189607D02*
D03*
X98750Y446371D02*
D03*
X90750D02*
D03*
X98750Y381162D02*
D03*
X90750D02*
D03*
X98750Y397060D02*
D03*
X90750D02*
D03*
X95425Y821000D02*
D03*
X87425D02*
D03*
X519646Y664900D02*
D03*
X527646D02*
D03*
X529896Y618627D02*
D03*
X537896Y618627D02*
D03*
X546576Y618627D02*
D03*
X554576Y618627D02*
D03*
X517750Y305250D02*
D03*
X525750D02*
D03*
X551032Y532250D02*
D03*
X559032D02*
D03*
X517250Y256750D02*
D03*
X525250D02*
D03*
X249713Y206903D02*
D03*
X257713D02*
D03*
X249713Y195750D02*
D03*
X257713D02*
D03*
X269750Y208500D02*
D03*
X277750D02*
D03*
X166531Y608750D02*
D03*
X158531D02*
D03*
X166531Y600289D02*
D03*
X158531D02*
D03*
X618602Y311563D02*
D03*
X626602D02*
D03*
X655014Y440896D02*
D03*
X663014D02*
D03*
X655014Y432896D02*
D03*
X663014D02*
D03*
X655014Y424896D02*
D03*
X663014Y424896D02*
D03*
X405250Y651250D02*
D03*
X413250D02*
D03*
X452250Y679606D02*
D03*
X444250D02*
D03*
X430573Y651730D02*
D03*
X422573D02*
D03*
X452250Y687637D02*
D03*
X444250D02*
D03*
X131500Y517382D02*
D03*
X139500Y517382D02*
D03*
X483250Y421750D02*
D03*
X491250D02*
D03*
X140500Y488500D02*
D03*
X132500D02*
D03*
X248346Y716577D02*
D03*
X240346D02*
D03*
X496618Y402793D02*
D03*
X488618Y402793D02*
D03*
X277750Y821000D02*
D03*
X285750D02*
D03*
X301000D02*
D03*
X293000D02*
D03*
Y812500D02*
D03*
X301000D02*
D03*
X285750D02*
D03*
X277750D02*
D03*
X302973Y801750D02*
D03*
X294973D02*
D03*
X272000Y801750D02*
D03*
X280000D02*
D03*
X499132Y369543D02*
D03*
X491132Y369543D02*
D03*
X515132Y369543D02*
D03*
X507132Y369543D02*
D03*
X655382Y375043D02*
D03*
X663382D02*
D03*
X655234Y404543D02*
D03*
X663234Y404543D02*
D03*
X440750Y421750D02*
D03*
X448750D02*
D03*
X488763Y393521D02*
D03*
X496763D02*
D03*
X663132Y413793D02*
D03*
X655132Y413793D02*
D03*
X516632Y487493D02*
D03*
X508632D02*
D03*
X207222Y850500D02*
D03*
X199223D02*
D03*
X504500Y277500D02*
D03*
X512500Y277500D02*
D03*
X87647Y851063D02*
D03*
X95647D02*
D03*
X250250Y657000D02*
D03*
X242250Y657000D02*
D03*
X270250Y660500D02*
D03*
X278250Y660500D02*
D03*
X294961Y757054D02*
D03*
X286962D02*
D03*
X90750Y413094D02*
D03*
X98750Y413094D02*
D03*
X98750Y438250D02*
D03*
X90750D02*
D03*
X190387Y452969D02*
D03*
X198387Y452969D02*
D03*
X187887Y397341D02*
D03*
X195887Y397341D02*
D03*
X174469Y363548D02*
D03*
X182469Y363548D02*
D03*
X182402Y371779D02*
D03*
X174402Y371779D02*
D03*
X202387Y470469D02*
D03*
X194387D02*
D03*
X98750Y430000D02*
D03*
X90750D02*
D03*
X190298Y444169D02*
D03*
X198298D02*
D03*
X230596Y448969D02*
D03*
X222596D02*
D03*
X223816Y410999D02*
D03*
X231816Y410999D02*
D03*
X90750Y422078D02*
D03*
X98750D02*
D03*
X107000Y463232D02*
D03*
X115000D02*
D03*
X115381Y171500D02*
D03*
X123381D02*
D03*
X556500Y200000D02*
D03*
X548500D02*
D03*
X242000Y243000D02*
D03*
X234000D02*
D03*
X166531Y592000D02*
D03*
X158531D02*
D03*
X519185Y572948D02*
D03*
X527185D02*
D03*
X519185Y582596D02*
D03*
X527185D02*
D03*
X519185Y591750D02*
D03*
X527185D02*
D03*
X407250Y744882D02*
D03*
X399250D02*
D03*
X262995Y266668D02*
D03*
X254995Y266668D02*
D03*
X158422Y617204D02*
D03*
X166422D02*
D03*
X507000Y685750D02*
D03*
X515000D02*
D03*
X252750Y186250D02*
D03*
X260750D02*
D03*
X234000Y234500D02*
D03*
X242000D02*
D03*
X383162Y226823D02*
D03*
X391162D02*
D03*
Y218500D02*
D03*
X383162D02*
D03*
X79270Y1027000D02*
D03*
X71270D02*
D03*
X49662Y970068D02*
D03*
X41662D02*
D03*
X17250Y1026750D02*
D03*
X25250D02*
D03*
X366750Y1003000D02*
D03*
X358750D02*
D03*
X358750Y995050D02*
D03*
X366750Y995050D02*
D03*
X24993Y1035750D02*
D03*
X16993D02*
D03*
X24993Y1044500D02*
D03*
X16993D02*
D03*
X81000Y1037250D02*
D03*
X89000D02*
D03*
X81000Y1046750D02*
D03*
X89000D02*
D03*
X16000Y1053000D02*
D03*
X8000D02*
D03*
X265723Y1023500D02*
D03*
X273723D02*
D03*
X181607Y388621D02*
D03*
X189607D02*
D03*
X366750Y986950D02*
D03*
X358750D02*
D03*
X608500Y1010250D02*
D03*
X616500Y1010250D02*
D03*
X592500D02*
D03*
X600500D02*
D03*
X449750Y394250D02*
D03*
X457750D02*
D03*
X548500Y721250D02*
D03*
X556500D02*
D03*
X550182Y761296D02*
D03*
X542182D02*
D03*
X610000Y628544D02*
D03*
X618000D02*
D03*
X621750Y620699D02*
D03*
X613750D02*
D03*
X615757Y636553D02*
D03*
X607757D02*
D03*
X588882Y635000D02*
D03*
X580882D02*
D03*
X626644Y597669D02*
D03*
X634644D02*
D03*
X559972Y668784D02*
D03*
X551972D02*
D03*
X634726Y605766D02*
D03*
X626726D02*
D03*
X568098Y626402D02*
D03*
X576098D02*
D03*
D106*
X209415Y777488D02*
D03*
X214415D02*
D03*
X219415D02*
D03*
X214415Y789988D02*
D03*
X219415D02*
D03*
X209415D02*
D03*
X168545Y657250D02*
D03*
X178545D02*
D03*
X173545D02*
D03*
X178545Y644750D02*
D03*
X173545Y644750D02*
D03*
X168545Y644750D02*
D03*
X477750Y912500D02*
D03*
X472750D02*
D03*
X467750D02*
D03*
X472750Y900000D02*
D03*
X467750D02*
D03*
X477750D02*
D03*
X645250Y470500D02*
D03*
X635250D02*
D03*
X640250D02*
D03*
X635250Y483000D02*
D03*
X640250D02*
D03*
X645250D02*
D03*
D107*
X513500Y910750D02*
D03*
Y902250D02*
D03*
X499000D02*
D03*
Y910750D02*
D03*
D108*
X517500Y954250D02*
D03*
X512500D02*
D03*
X507500D02*
D03*
Y940750D02*
D03*
X512500D02*
D03*
X517500D02*
D03*
X121723Y815750D02*
D03*
X116723D02*
D03*
X111723D02*
D03*
Y829250D02*
D03*
X116723D02*
D03*
X121723D02*
D03*
X141500Y509711D02*
D03*
X136500D02*
D03*
X131500D02*
D03*
Y496211D02*
D03*
X136500D02*
D03*
X141500D02*
D03*
X86425Y842812D02*
D03*
X91425D02*
D03*
X96425D02*
D03*
Y829313D02*
D03*
X91425D02*
D03*
X86425D02*
D03*
X389987Y688750D02*
D03*
X394987D02*
D03*
X399987D02*
D03*
Y702250D02*
D03*
X394987D02*
D03*
X389987D02*
D03*
X510632Y566198D02*
D03*
X505632D02*
D03*
X500632D02*
D03*
Y579698D02*
D03*
X505632D02*
D03*
X510632D02*
D03*
Y591750D02*
D03*
X505632D02*
D03*
X500632D02*
D03*
Y605250D02*
D03*
X505632D02*
D03*
X510632D02*
D03*
X242310Y623512D02*
D03*
X237310D02*
D03*
X232310Y623512D02*
D03*
Y637012D02*
D03*
X237310Y637012D02*
D03*
X242310D02*
D03*
X521500Y277500D02*
D03*
X526500D02*
D03*
X531500D02*
D03*
Y264000D02*
D03*
X526500D02*
D03*
X521500D02*
D03*
D109*
X551382Y471793D02*
D03*
Y462793D02*
D03*
X559882Y471793D02*
D03*
Y462793D02*
D03*
X583316Y472043D02*
D03*
Y463043D02*
D03*
X591632Y472043D02*
D03*
Y463043D02*
D03*
X609007Y471793D02*
D03*
Y462793D02*
D03*
X617382Y471793D02*
D03*
Y462793D02*
D03*
D110*
X417931Y405025D02*
D03*
X412274Y410682D02*
D03*
D111*
X473582Y409023D02*
D03*
X467925Y403367D02*
D03*
D112*
X146861Y124913D02*
D03*
Y110913D02*
D03*
X160250Y124913D02*
D03*
Y110913D02*
D03*
X180000Y124913D02*
D03*
Y110913D02*
D03*
X197900Y124913D02*
D03*
Y110913D02*
D03*
M02*
