G04*
G04 #@! TF.GenerationSoftware,Altium Limited,Altium Designer,23.0.1 (38)*
G04*
G04 Layer_Color=39423*
%FSLAX44Y44*%
%MOMM*%
G71*
G04*
G04 #@! TF.SameCoordinates,B12E620B-8F76-40C0-9090-1E76C6094A63*
G04*
G04*
G04 #@! TF.FilePolarity,Positive*
G04*
G01*
G75*
%ADD11C,0.1270*%
%ADD14C,0.2540*%
%ADD16C,0.2000*%
%ADD17C,0.1000*%
%ADD25R,4.8260X2.4130*%
%ADD26C,0.2997*%
%ADD27C,0.1778*%
%ADD297C,0.0508*%
%ADD325C,0.0500*%
G36*
X885250Y-150059D02*
X889786D01*
Y-150512D01*
X892507D01*
Y-150966D01*
X894775D01*
Y-151419D01*
X896589D01*
Y-151873D01*
X898403D01*
Y-152327D01*
X899764D01*
Y-152780D01*
X901124D01*
Y-153234D01*
X902485D01*
Y-153687D01*
X903392D01*
Y-154141D01*
X904753D01*
Y-154594D01*
X905660D01*
Y-155048D01*
X906567D01*
Y-155501D01*
X907474D01*
Y-155955D01*
X908381D01*
Y-156409D01*
X909288D01*
Y-156862D01*
X909742D01*
Y-157316D01*
X910649D01*
Y-157769D01*
X911556D01*
Y-158223D01*
X912010D01*
Y-158676D01*
X912917D01*
Y-159130D01*
X913371D01*
Y-159584D01*
X914278D01*
Y-160037D01*
X914731D01*
Y-160491D01*
X915185D01*
Y-160944D01*
X916092D01*
Y-161398D01*
X916545D01*
Y-161851D01*
X916999D01*
Y-162305D01*
X917452D01*
Y-162758D01*
X918360D01*
Y-163212D01*
X918813D01*
Y-163666D01*
X919267D01*
Y-164119D01*
X919720D01*
Y-164573D01*
X920174D01*
Y-165026D01*
X920627D01*
Y-165480D01*
X921081D01*
Y-165933D01*
X921535D01*
Y-166387D01*
X921988D01*
Y-166840D01*
X922442D01*
Y-167294D01*
X922895D01*
Y-167747D01*
X923349D01*
Y-168201D01*
Y-168655D01*
X923802D01*
Y-169108D01*
X924256D01*
Y-169562D01*
X924709D01*
Y-170015D01*
X925163D01*
Y-170469D01*
Y-170922D01*
X925617D01*
Y-171376D01*
X926070D01*
Y-171830D01*
X926524D01*
Y-172283D01*
Y-172737D01*
X926977D01*
Y-173190D01*
X927431D01*
Y-173644D01*
Y-174097D01*
X927884D01*
Y-174551D01*
X928338D01*
Y-175004D01*
Y-175458D01*
X928791D01*
Y-175912D01*
X929245D01*
Y-176365D01*
Y-176819D01*
X929698D01*
Y-177272D01*
Y-177726D01*
X930152D01*
Y-178179D01*
Y-178633D01*
X930606D01*
Y-179086D01*
Y-179540D01*
X931059D01*
Y-179993D01*
Y-180447D01*
X931513D01*
Y-180901D01*
Y-181354D01*
X931966D01*
Y-181808D01*
Y-182261D01*
X932420D01*
Y-182715D01*
Y-183168D01*
Y-183622D01*
X932873D01*
Y-184076D01*
Y-184529D01*
X933327D01*
Y-184983D01*
Y-185436D01*
Y-185890D01*
X933781D01*
Y-186343D01*
Y-186797D01*
Y-187250D01*
X934234D01*
Y-187704D01*
Y-188158D01*
Y-188611D01*
Y-189065D01*
X934688D01*
Y-189518D01*
Y-189972D01*
Y-190425D01*
Y-190879D01*
X935141D01*
Y-191332D01*
Y-191786D01*
Y-192240D01*
Y-192693D01*
X935595D01*
Y-193147D01*
Y-193600D01*
Y-194054D01*
Y-194507D01*
Y-194961D01*
Y-195414D01*
Y-195868D01*
X936048D01*
Y-196322D01*
Y-196775D01*
Y-197229D01*
Y-197682D01*
Y-198136D01*
Y-198589D01*
Y-199043D01*
Y-199496D01*
Y-199950D01*
Y-200404D01*
Y-200857D01*
X936502D01*
Y-201311D01*
Y-201764D01*
Y-202218D01*
Y-202671D01*
Y-203125D01*
Y-203578D01*
Y-204032D01*
Y-204486D01*
Y-204939D01*
Y-205393D01*
X936048D01*
Y-205846D01*
Y-206300D01*
Y-206753D01*
Y-207207D01*
Y-207661D01*
Y-208114D01*
Y-208568D01*
Y-209021D01*
Y-209475D01*
Y-209928D01*
Y-210382D01*
X935595D01*
Y-210835D01*
Y-211289D01*
Y-211742D01*
Y-212196D01*
Y-212650D01*
Y-213103D01*
X935141D01*
Y-213557D01*
Y-214010D01*
Y-214464D01*
Y-214917D01*
Y-215371D01*
X934688D01*
Y-215825D01*
Y-216278D01*
Y-216732D01*
Y-217185D01*
X934234D01*
Y-217639D01*
Y-218092D01*
Y-218546D01*
Y-218999D01*
X933781D01*
Y-219453D01*
Y-219907D01*
Y-220360D01*
X933327D01*
Y-220814D01*
Y-221267D01*
X932873D01*
Y-221721D01*
Y-222174D01*
Y-222628D01*
X932420D01*
Y-223081D01*
Y-223535D01*
X931966D01*
Y-223988D01*
Y-224442D01*
Y-224896D01*
X931513D01*
Y-225349D01*
Y-225803D01*
X931059D01*
Y-226256D01*
Y-226710D01*
X930606D01*
Y-227163D01*
Y-227617D01*
X930152D01*
Y-228071D01*
Y-228524D01*
X929698D01*
Y-228071D01*
Y-227617D01*
Y-227163D01*
Y-226710D01*
Y-226256D01*
Y-225803D01*
Y-225349D01*
Y-224896D01*
Y-224442D01*
Y-223988D01*
Y-223535D01*
Y-223081D01*
Y-222628D01*
Y-222174D01*
Y-221721D01*
Y-221267D01*
Y-220814D01*
Y-220360D01*
Y-219907D01*
Y-219453D01*
Y-218999D01*
Y-218546D01*
Y-218092D01*
Y-217639D01*
Y-217185D01*
Y-216732D01*
Y-216278D01*
Y-215825D01*
Y-215371D01*
Y-214917D01*
Y-214464D01*
Y-214010D01*
Y-213557D01*
Y-213103D01*
Y-212650D01*
Y-212196D01*
Y-211742D01*
Y-211289D01*
Y-210835D01*
Y-210382D01*
Y-209928D01*
Y-209475D01*
Y-209021D01*
Y-208568D01*
Y-208114D01*
Y-207661D01*
Y-207207D01*
Y-206753D01*
Y-206300D01*
Y-205846D01*
Y-205393D01*
Y-204939D01*
Y-204486D01*
Y-204032D01*
Y-203578D01*
Y-203125D01*
Y-202671D01*
Y-202218D01*
Y-201764D01*
Y-201311D01*
Y-200857D01*
Y-200404D01*
Y-199950D01*
Y-199496D01*
Y-199043D01*
Y-198589D01*
Y-198136D01*
Y-197682D01*
Y-197229D01*
Y-196775D01*
Y-196322D01*
Y-195868D01*
Y-195414D01*
Y-194961D01*
Y-194507D01*
Y-194054D01*
X916999D01*
Y-194507D01*
Y-194961D01*
Y-195414D01*
Y-195868D01*
Y-196322D01*
Y-196775D01*
Y-197229D01*
Y-197682D01*
Y-198136D01*
Y-198589D01*
Y-199043D01*
Y-199496D01*
Y-199950D01*
Y-200404D01*
Y-200857D01*
Y-201311D01*
Y-201764D01*
Y-202218D01*
Y-202671D01*
Y-203125D01*
Y-203578D01*
Y-204032D01*
Y-204486D01*
Y-204939D01*
Y-205393D01*
Y-205846D01*
Y-206300D01*
Y-206753D01*
Y-207207D01*
Y-207661D01*
Y-208114D01*
Y-208568D01*
Y-209021D01*
Y-209475D01*
Y-209928D01*
Y-210382D01*
Y-210835D01*
Y-211289D01*
Y-211742D01*
Y-212196D01*
Y-212650D01*
Y-213103D01*
Y-213557D01*
Y-214010D01*
Y-214464D01*
Y-214917D01*
Y-215371D01*
Y-215825D01*
Y-216278D01*
Y-216732D01*
Y-217185D01*
Y-217639D01*
Y-218092D01*
Y-218546D01*
Y-218999D01*
Y-219453D01*
Y-219907D01*
Y-220360D01*
Y-220814D01*
Y-221267D01*
Y-221721D01*
X916545D01*
Y-222174D01*
Y-222628D01*
Y-223081D01*
Y-223535D01*
X916092D01*
Y-223988D01*
Y-224442D01*
X915638D01*
Y-224896D01*
Y-225349D01*
X915185D01*
Y-225803D01*
X914731D01*
Y-226256D01*
X914278D01*
Y-226710D01*
X913824D01*
Y-227163D01*
X913371D01*
Y-227617D01*
X912463D01*
Y-228071D01*
X911103D01*
Y-228524D01*
X904753D01*
Y-228071D01*
X903392D01*
Y-227617D01*
X902485D01*
Y-227163D01*
X902032D01*
Y-226710D01*
X901578D01*
Y-226256D01*
X901124D01*
Y-225803D01*
Y-225349D01*
X900671D01*
Y-224896D01*
Y-224442D01*
X900217D01*
Y-223988D01*
Y-223535D01*
Y-223081D01*
Y-222628D01*
X899764D01*
Y-222174D01*
Y-221721D01*
Y-221267D01*
Y-220814D01*
Y-220360D01*
Y-219907D01*
Y-219453D01*
Y-218999D01*
Y-218546D01*
Y-218092D01*
Y-217639D01*
Y-217185D01*
Y-216732D01*
Y-216278D01*
Y-215825D01*
Y-215371D01*
Y-214917D01*
Y-214464D01*
Y-214010D01*
Y-213557D01*
Y-213103D01*
Y-212650D01*
Y-212196D01*
Y-211742D01*
Y-211289D01*
Y-210835D01*
Y-210382D01*
Y-209928D01*
Y-209475D01*
Y-209021D01*
Y-208568D01*
Y-208114D01*
Y-207661D01*
Y-207207D01*
Y-206753D01*
Y-206300D01*
Y-205846D01*
Y-205393D01*
Y-204939D01*
Y-204486D01*
Y-204032D01*
Y-203578D01*
Y-203125D01*
Y-202671D01*
Y-202218D01*
Y-201764D01*
Y-201311D01*
Y-200857D01*
Y-200404D01*
Y-199950D01*
Y-199496D01*
Y-199043D01*
Y-198589D01*
Y-198136D01*
Y-197682D01*
Y-197229D01*
Y-196775D01*
Y-196322D01*
Y-195868D01*
Y-195414D01*
Y-194961D01*
Y-194507D01*
Y-194054D01*
X887064D01*
Y-194507D01*
Y-194961D01*
Y-195414D01*
Y-195868D01*
Y-196322D01*
Y-196775D01*
Y-197229D01*
Y-197682D01*
Y-198136D01*
Y-198589D01*
Y-199043D01*
Y-199496D01*
Y-199950D01*
Y-200404D01*
Y-200857D01*
Y-201311D01*
Y-201764D01*
Y-202218D01*
Y-202671D01*
Y-203125D01*
Y-203578D01*
Y-204032D01*
Y-204486D01*
Y-204939D01*
Y-205393D01*
Y-205846D01*
Y-206300D01*
Y-206753D01*
Y-207207D01*
Y-207661D01*
Y-208114D01*
Y-208568D01*
Y-209021D01*
Y-209475D01*
Y-209928D01*
Y-210382D01*
Y-210835D01*
Y-211289D01*
Y-211742D01*
Y-212196D01*
Y-212650D01*
Y-213103D01*
Y-213557D01*
Y-214010D01*
Y-214464D01*
Y-214917D01*
Y-215371D01*
Y-215825D01*
Y-216278D01*
Y-216732D01*
Y-217185D01*
Y-217639D01*
Y-218092D01*
Y-218546D01*
Y-218999D01*
Y-219453D01*
Y-219907D01*
Y-220360D01*
Y-220814D01*
Y-221267D01*
Y-221721D01*
Y-222174D01*
Y-222628D01*
Y-223081D01*
Y-223535D01*
Y-223988D01*
Y-224442D01*
Y-224896D01*
Y-225349D01*
Y-225803D01*
Y-226256D01*
Y-226710D01*
Y-227163D01*
X887518D01*
Y-227617D01*
Y-228071D01*
Y-228524D01*
Y-228978D01*
X887971D01*
Y-229431D01*
Y-229885D01*
Y-230338D01*
X888425D01*
Y-230792D01*
Y-231245D01*
Y-231699D01*
X888878D01*
Y-232153D01*
Y-232606D01*
X889332D01*
Y-233060D01*
X889786D01*
Y-233513D01*
Y-233967D01*
X890239D01*
Y-234420D01*
X890693D01*
Y-234874D01*
X891146D01*
Y-235327D01*
X891600D01*
Y-235781D01*
X892053D01*
Y-236234D01*
X892507D01*
Y-236688D01*
X893414D01*
Y-237142D01*
X893868D01*
Y-237595D01*
X894775D01*
Y-238049D01*
X895682D01*
Y-238502D01*
X896589D01*
Y-238956D01*
X897950D01*
Y-239409D01*
X899764D01*
Y-239863D01*
X908835D01*
Y-239409D01*
X910649D01*
Y-238956D01*
X911556D01*
Y-238502D01*
X912917D01*
Y-238049D01*
X913371D01*
Y-237595D01*
X914278D01*
Y-237142D01*
X914731D01*
Y-236688D01*
X915185D01*
Y-236234D01*
X916092D01*
Y-235781D01*
X916545D01*
Y-235327D01*
X916999D01*
Y-234874D01*
Y-234420D01*
X917452D01*
Y-234874D01*
Y-235327D01*
Y-235781D01*
Y-236234D01*
Y-236688D01*
Y-237142D01*
Y-237595D01*
Y-238049D01*
Y-238502D01*
Y-238956D01*
X922442D01*
Y-239409D01*
X921988D01*
Y-239863D01*
X921535D01*
Y-240317D01*
X921081D01*
Y-240770D01*
X920627D01*
Y-241224D01*
X920174D01*
Y-241677D01*
X919720D01*
Y-242131D01*
X919267D01*
Y-242584D01*
X918813D01*
Y-243038D01*
X917906D01*
Y-243491D01*
X917452D01*
Y-243945D01*
X916999D01*
Y-244398D01*
X916545D01*
Y-244852D01*
X915638D01*
Y-245306D01*
X915185D01*
Y-245759D01*
X914731D01*
Y-246213D01*
X913824D01*
Y-246666D01*
X913371D01*
Y-247120D01*
X912463D01*
Y-247573D01*
X912010D01*
Y-248027D01*
X911103D01*
Y-248480D01*
X910649D01*
Y-248934D01*
X909742D01*
Y-249388D01*
X908835D01*
Y-249841D01*
X907928D01*
Y-250295D01*
X907474D01*
Y-250748D01*
X906567D01*
Y-251202D01*
X905206D01*
Y-251655D01*
X904299D01*
Y-252109D01*
X903392D01*
Y-252563D01*
X902032D01*
Y-253016D01*
X901124D01*
Y-253470D01*
X899764D01*
Y-253923D01*
X897950D01*
Y-254377D01*
X896589D01*
Y-254830D01*
X894775D01*
Y-255284D01*
X892053D01*
Y-255737D01*
X888878D01*
Y-256191D01*
X877086D01*
Y-255737D01*
X873911D01*
Y-255284D01*
X871643D01*
Y-254830D01*
X869829D01*
Y-254377D01*
X868015D01*
Y-253923D01*
X866654D01*
Y-253470D01*
X865294D01*
Y-253016D01*
X863933D01*
Y-252563D01*
X863026D01*
Y-252109D01*
X861665D01*
Y-251655D01*
X860758D01*
Y-251202D01*
X859851D01*
Y-250748D01*
X858944D01*
Y-250295D01*
X858037D01*
Y-249841D01*
X857130D01*
Y-249388D01*
X856222D01*
Y-248934D01*
X855769D01*
Y-248480D01*
X854862D01*
Y-248027D01*
X853955D01*
Y-247573D01*
X853501D01*
Y-247120D01*
X852594D01*
Y-246666D01*
X852140D01*
Y-246213D01*
X851687D01*
Y-245759D01*
X850780D01*
Y-245306D01*
X850326D01*
Y-244852D01*
X849873D01*
Y-244398D01*
X848966D01*
Y-243945D01*
X848512D01*
Y-243491D01*
X848058D01*
Y-243038D01*
X847605D01*
Y-242584D01*
X847151D01*
Y-242131D01*
X846698D01*
Y-241677D01*
X846244D01*
Y-241224D01*
X845791D01*
Y-240770D01*
X845337D01*
Y-240317D01*
X844883D01*
Y-239863D01*
X844430D01*
Y-239409D01*
X843976D01*
Y-238956D01*
X843523D01*
Y-238502D01*
X843069D01*
Y-238049D01*
X842616D01*
Y-237595D01*
X842162D01*
Y-237142D01*
X841709D01*
Y-236688D01*
Y-236234D01*
X841255D01*
Y-235781D01*
X840801D01*
Y-235327D01*
X840348D01*
Y-234874D01*
X839894D01*
Y-234420D01*
Y-233967D01*
X839441D01*
Y-233513D01*
X838987D01*
Y-233060D01*
Y-232606D01*
X838534D01*
Y-232153D01*
X838080D01*
Y-231699D01*
Y-231245D01*
X837627D01*
Y-230792D01*
X837173D01*
Y-230338D01*
Y-229885D01*
X836720D01*
Y-229431D01*
Y-228978D01*
X836266D01*
Y-228524D01*
Y-228071D01*
X835812D01*
Y-227617D01*
Y-227163D01*
X835359D01*
Y-226710D01*
Y-226256D01*
X834905D01*
Y-225803D01*
Y-225349D01*
X834452D01*
Y-224896D01*
Y-224442D01*
X833998D01*
Y-223988D01*
Y-223535D01*
X833545D01*
Y-223081D01*
Y-222628D01*
Y-222174D01*
X833091D01*
Y-221721D01*
Y-221267D01*
Y-220814D01*
X832637D01*
Y-220360D01*
Y-219907D01*
X832184D01*
Y-219453D01*
Y-218999D01*
Y-218546D01*
Y-218092D01*
X831730D01*
Y-217639D01*
Y-217185D01*
Y-216732D01*
X831277D01*
Y-216278D01*
Y-215825D01*
Y-215371D01*
Y-214917D01*
X830823D01*
Y-214464D01*
Y-214010D01*
Y-213557D01*
Y-213103D01*
Y-212650D01*
X830370D01*
Y-212196D01*
Y-211742D01*
Y-211289D01*
Y-210835D01*
Y-210382D01*
Y-209928D01*
Y-209475D01*
X829916D01*
Y-209021D01*
Y-208568D01*
Y-208114D01*
Y-207661D01*
Y-207207D01*
Y-206753D01*
Y-206300D01*
Y-205846D01*
Y-205393D01*
Y-204939D01*
X829463D01*
Y-204486D01*
Y-204032D01*
Y-203578D01*
Y-203125D01*
Y-202671D01*
Y-202218D01*
Y-201764D01*
Y-201311D01*
Y-200857D01*
X829916D01*
Y-200404D01*
Y-199950D01*
Y-199496D01*
Y-199043D01*
Y-198589D01*
Y-198136D01*
Y-197682D01*
Y-197229D01*
Y-196775D01*
X830370D01*
Y-196322D01*
Y-195868D01*
Y-195414D01*
Y-194961D01*
Y-194507D01*
Y-194054D01*
Y-193600D01*
X830823D01*
Y-193147D01*
Y-192693D01*
Y-192240D01*
Y-191786D01*
Y-191332D01*
X831277D01*
Y-190879D01*
Y-190425D01*
Y-189972D01*
Y-189518D01*
X831730D01*
Y-189065D01*
Y-188611D01*
Y-188158D01*
Y-187704D01*
X832184D01*
Y-187250D01*
Y-186797D01*
Y-186343D01*
X832637D01*
Y-185890D01*
Y-185436D01*
Y-184983D01*
X833091D01*
Y-184529D01*
Y-184076D01*
X833545D01*
Y-183622D01*
Y-183168D01*
Y-182715D01*
X833998D01*
Y-182261D01*
Y-181808D01*
X834452D01*
Y-181354D01*
Y-180901D01*
Y-180447D01*
X834905D01*
Y-179993D01*
Y-179540D01*
X835359D01*
Y-179086D01*
Y-178633D01*
X835812D01*
Y-178179D01*
Y-177726D01*
X836266D01*
Y-177272D01*
X836720D01*
Y-176819D01*
Y-176365D01*
X837173D01*
Y-175912D01*
Y-175458D01*
X837627D01*
Y-175004D01*
X838080D01*
Y-174551D01*
Y-174097D01*
X838534D01*
Y-173644D01*
X838987D01*
Y-173190D01*
Y-172737D01*
X839441D01*
Y-172283D01*
X839894D01*
Y-171830D01*
Y-171376D01*
X840348D01*
Y-170922D01*
X840801D01*
Y-170469D01*
X841255D01*
Y-170015D01*
Y-169562D01*
X841709D01*
Y-169108D01*
X842162D01*
Y-168655D01*
X842616D01*
Y-168201D01*
X843069D01*
Y-167747D01*
X843523D01*
Y-167294D01*
X843976D01*
Y-166840D01*
X844430D01*
Y-166387D01*
Y-165933D01*
X844883D01*
Y-165480D01*
X845337D01*
Y-165026D01*
X845791D01*
Y-164573D01*
X846698D01*
Y-164119D01*
X847151D01*
Y-163666D01*
X847605D01*
Y-163212D01*
X848058D01*
Y-162758D01*
X848512D01*
Y-162305D01*
X848966D01*
Y-161851D01*
X849419D01*
Y-161398D01*
X850326D01*
Y-160944D01*
X850780D01*
Y-160491D01*
X851233D01*
Y-160037D01*
X852140D01*
Y-159584D01*
X852594D01*
Y-159130D01*
X853501D01*
Y-158676D01*
X853955D01*
Y-158223D01*
X854862D01*
Y-157769D01*
X855315D01*
Y-157316D01*
X856222D01*
Y-156862D01*
X857130D01*
Y-156409D01*
X857583D01*
Y-155955D01*
X858944D01*
Y-155501D01*
X859851D01*
Y-155048D01*
X860758D01*
Y-154594D01*
X861665D01*
Y-154141D01*
X862572D01*
Y-153687D01*
X863933D01*
Y-153234D01*
X864840D01*
Y-152780D01*
X866201D01*
Y-152327D01*
X867561D01*
Y-151873D01*
X869376D01*
Y-151419D01*
X871190D01*
Y-150966D01*
X873457D01*
Y-150512D01*
X876632D01*
Y-150059D01*
X881168D01*
Y-149605D01*
X885250D01*
Y-150059D01*
D02*
G37*
G36*
X955551Y-177272D02*
Y-177726D01*
Y-178179D01*
Y-178633D01*
Y-179086D01*
Y-179540D01*
Y-179993D01*
Y-180447D01*
Y-180901D01*
Y-181354D01*
Y-181808D01*
Y-182261D01*
Y-182715D01*
Y-183168D01*
Y-183622D01*
Y-184076D01*
Y-184529D01*
Y-184983D01*
Y-185436D01*
Y-185890D01*
Y-186343D01*
Y-186797D01*
Y-187250D01*
Y-187704D01*
Y-188158D01*
Y-188611D01*
Y-189065D01*
Y-189518D01*
Y-189972D01*
Y-190425D01*
Y-190879D01*
Y-191332D01*
Y-191786D01*
Y-192240D01*
Y-192693D01*
Y-193147D01*
Y-193600D01*
Y-194054D01*
Y-194507D01*
Y-194961D01*
Y-195414D01*
Y-195868D01*
Y-196322D01*
Y-196775D01*
Y-197229D01*
Y-197682D01*
Y-198136D01*
Y-198589D01*
Y-199043D01*
Y-199496D01*
X956458D01*
Y-199043D01*
X956912D01*
Y-198589D01*
X957365D01*
Y-198136D01*
X957819D01*
Y-197682D01*
X958272D01*
Y-197229D01*
X958726D01*
Y-196775D01*
X959180D01*
Y-196322D01*
X960087D01*
Y-195868D01*
X960540D01*
Y-195414D01*
X961447D01*
Y-194961D01*
X962355D01*
Y-194507D01*
X963715D01*
Y-194054D01*
X965529D01*
Y-193600D01*
X974147D01*
Y-194054D01*
X975961D01*
Y-194507D01*
X977322D01*
Y-194961D01*
X978682D01*
Y-195414D01*
X979590D01*
Y-195868D01*
X980043D01*
Y-196322D01*
X980950D01*
Y-196775D01*
X981404D01*
Y-197229D01*
X982311D01*
Y-197682D01*
X982765D01*
Y-198136D01*
X983218D01*
Y-198589D01*
X983672D01*
Y-199043D01*
X984125D01*
Y-199496D01*
X984579D01*
Y-199950D01*
Y-200404D01*
X985032D01*
Y-200857D01*
X985486D01*
Y-201311D01*
X985939D01*
Y-201764D01*
Y-202218D01*
X986393D01*
Y-202671D01*
Y-203125D01*
X986846D01*
Y-203578D01*
Y-204032D01*
X987300D01*
Y-204486D01*
Y-204939D01*
X987754D01*
Y-205393D01*
Y-205846D01*
Y-206300D01*
X988207D01*
Y-206753D01*
Y-207207D01*
Y-207661D01*
Y-208114D01*
X988661D01*
Y-208568D01*
Y-209021D01*
Y-209475D01*
Y-209928D01*
Y-210382D01*
X989114D01*
Y-210835D01*
Y-211289D01*
Y-211742D01*
Y-212196D01*
Y-212650D01*
Y-213103D01*
Y-213557D01*
Y-214010D01*
Y-214464D01*
X989568D01*
Y-214917D01*
X989114D01*
Y-215371D01*
Y-215825D01*
Y-216278D01*
Y-216732D01*
Y-217185D01*
Y-217639D01*
Y-218092D01*
Y-218546D01*
Y-218999D01*
Y-219453D01*
Y-219907D01*
Y-220360D01*
Y-220814D01*
Y-221267D01*
Y-221721D01*
Y-222174D01*
Y-222628D01*
X988661D01*
Y-223081D01*
Y-223535D01*
Y-223988D01*
Y-224442D01*
Y-224896D01*
X988207D01*
Y-225349D01*
Y-225803D01*
Y-226256D01*
X987754D01*
Y-226710D01*
Y-227163D01*
Y-227617D01*
X987300D01*
Y-228071D01*
Y-228524D01*
Y-228978D01*
X986846D01*
Y-229431D01*
Y-229885D01*
X986393D01*
Y-230338D01*
Y-230792D01*
X985939D01*
Y-231245D01*
X985486D01*
Y-231699D01*
Y-232153D01*
X985032D01*
Y-232606D01*
X984579D01*
Y-233060D01*
X984125D01*
Y-233513D01*
X983672D01*
Y-233967D01*
Y-234420D01*
X982765D01*
Y-234874D01*
X982311D01*
Y-235327D01*
X981857D01*
Y-235781D01*
X981404D01*
Y-236234D01*
X980497D01*
Y-236688D01*
X980043D01*
Y-237142D01*
X979136D01*
Y-237595D01*
X978229D01*
Y-238049D01*
X977322D01*
Y-238502D01*
X975961D01*
Y-238956D01*
X973693D01*
Y-239409D01*
X965983D01*
Y-238956D01*
X963715D01*
Y-238502D01*
X962808D01*
Y-238049D01*
X961447D01*
Y-237595D01*
X960994D01*
Y-237142D01*
X960087D01*
Y-236688D01*
X959633D01*
Y-236234D01*
X958726D01*
Y-235781D01*
X958272D01*
Y-235327D01*
X957819D01*
Y-234874D01*
X957365D01*
Y-234420D01*
X956912D01*
Y-233967D01*
X956458D01*
Y-233513D01*
X956005D01*
Y-233060D01*
Y-232606D01*
X955098D01*
Y-233060D01*
Y-233513D01*
Y-233967D01*
Y-234420D01*
Y-234874D01*
Y-235327D01*
Y-235781D01*
Y-236234D01*
Y-236688D01*
Y-237142D01*
Y-237595D01*
Y-238049D01*
Y-238502D01*
X943759D01*
Y-238049D01*
Y-237595D01*
Y-237142D01*
Y-236688D01*
Y-236234D01*
Y-235781D01*
Y-235327D01*
Y-234874D01*
Y-234420D01*
Y-233967D01*
Y-233513D01*
Y-233060D01*
Y-232606D01*
Y-232153D01*
Y-231699D01*
Y-231245D01*
Y-230792D01*
Y-230338D01*
Y-229885D01*
Y-229431D01*
Y-228978D01*
Y-228524D01*
Y-228071D01*
Y-227617D01*
Y-227163D01*
Y-226710D01*
Y-226256D01*
Y-225803D01*
Y-225349D01*
Y-224896D01*
Y-224442D01*
Y-223988D01*
Y-223535D01*
Y-223081D01*
Y-222628D01*
Y-222174D01*
Y-221721D01*
Y-221267D01*
Y-220814D01*
Y-220360D01*
Y-219907D01*
Y-219453D01*
Y-218999D01*
Y-218546D01*
Y-218092D01*
Y-217639D01*
Y-217185D01*
Y-216732D01*
Y-216278D01*
Y-215825D01*
Y-215371D01*
Y-214917D01*
Y-214464D01*
Y-214010D01*
Y-213557D01*
Y-213103D01*
Y-212650D01*
Y-212196D01*
Y-211742D01*
Y-211289D01*
Y-210835D01*
Y-210382D01*
Y-209928D01*
Y-209475D01*
Y-209021D01*
Y-208568D01*
Y-208114D01*
Y-207661D01*
Y-207207D01*
Y-206753D01*
Y-206300D01*
Y-205846D01*
Y-205393D01*
Y-204939D01*
Y-204486D01*
Y-204032D01*
Y-203578D01*
Y-203125D01*
Y-202671D01*
Y-202218D01*
Y-201764D01*
Y-201311D01*
Y-200857D01*
Y-200404D01*
Y-199950D01*
Y-199496D01*
Y-199043D01*
Y-198589D01*
Y-198136D01*
Y-197682D01*
Y-197229D01*
Y-196775D01*
Y-196322D01*
Y-195868D01*
Y-195414D01*
Y-194961D01*
Y-194507D01*
Y-194054D01*
Y-193600D01*
Y-193147D01*
Y-192693D01*
Y-192240D01*
Y-191786D01*
Y-191332D01*
Y-190879D01*
Y-190425D01*
Y-189972D01*
Y-189518D01*
Y-189065D01*
Y-188611D01*
Y-188158D01*
Y-187704D01*
Y-187250D01*
Y-186797D01*
Y-186343D01*
Y-185890D01*
Y-185436D01*
Y-184983D01*
Y-184529D01*
Y-184076D01*
Y-183622D01*
Y-183168D01*
Y-182715D01*
Y-182261D01*
Y-181808D01*
Y-181354D01*
Y-180901D01*
Y-180447D01*
Y-179993D01*
Y-179540D01*
Y-179086D01*
Y-178633D01*
Y-178179D01*
Y-177726D01*
Y-177272D01*
Y-176819D01*
X955551D01*
Y-177272D01*
D02*
G37*
G36*
X1009071D02*
Y-177726D01*
Y-178179D01*
Y-178633D01*
Y-179086D01*
Y-179540D01*
Y-179993D01*
Y-180447D01*
Y-180901D01*
Y-181354D01*
Y-181808D01*
Y-182261D01*
Y-182715D01*
Y-183168D01*
Y-183622D01*
Y-184076D01*
Y-184529D01*
Y-184983D01*
Y-185436D01*
Y-185890D01*
Y-186343D01*
Y-186797D01*
Y-187250D01*
Y-187704D01*
Y-188158D01*
Y-188611D01*
Y-189065D01*
Y-189518D01*
Y-189972D01*
Y-190425D01*
Y-190879D01*
Y-191332D01*
Y-191786D01*
Y-192240D01*
Y-192693D01*
Y-193147D01*
Y-193600D01*
Y-194054D01*
Y-194507D01*
Y-194961D01*
Y-195414D01*
Y-195868D01*
Y-196322D01*
Y-196775D01*
Y-197229D01*
Y-197682D01*
Y-198136D01*
Y-198589D01*
Y-199043D01*
Y-199496D01*
Y-199950D01*
Y-200404D01*
Y-200857D01*
Y-201311D01*
Y-201764D01*
Y-202218D01*
Y-202671D01*
Y-203125D01*
Y-203578D01*
Y-204032D01*
Y-204486D01*
Y-204939D01*
Y-205393D01*
Y-205846D01*
Y-206300D01*
Y-206753D01*
Y-207207D01*
Y-207661D01*
Y-208114D01*
Y-208568D01*
Y-209021D01*
Y-209475D01*
Y-209928D01*
Y-210382D01*
Y-210835D01*
Y-211289D01*
Y-211742D01*
Y-212196D01*
Y-212650D01*
Y-213103D01*
Y-213557D01*
Y-214010D01*
Y-214464D01*
Y-214917D01*
Y-215371D01*
Y-215825D01*
Y-216278D01*
Y-216732D01*
Y-217185D01*
Y-217639D01*
Y-218092D01*
Y-218546D01*
Y-218999D01*
Y-219453D01*
Y-219907D01*
Y-220360D01*
Y-220814D01*
Y-221267D01*
Y-221721D01*
Y-222174D01*
Y-222628D01*
Y-223081D01*
Y-223535D01*
Y-223988D01*
Y-224442D01*
Y-224896D01*
Y-225349D01*
Y-225803D01*
Y-226256D01*
Y-226710D01*
Y-227163D01*
Y-227617D01*
Y-228071D01*
Y-228524D01*
Y-228978D01*
Y-229431D01*
Y-229885D01*
Y-230338D01*
Y-230792D01*
Y-231245D01*
Y-231699D01*
Y-232153D01*
Y-232606D01*
Y-233060D01*
Y-233513D01*
Y-233967D01*
Y-234420D01*
Y-234874D01*
Y-235327D01*
Y-235781D01*
Y-236234D01*
Y-236688D01*
Y-237142D01*
Y-237595D01*
Y-238049D01*
Y-238502D01*
X997732D01*
Y-238049D01*
Y-237595D01*
Y-237142D01*
Y-236688D01*
Y-236234D01*
Y-235781D01*
Y-235327D01*
Y-234874D01*
Y-234420D01*
Y-233967D01*
Y-233513D01*
Y-233060D01*
Y-232606D01*
Y-232153D01*
Y-231699D01*
Y-231245D01*
Y-230792D01*
Y-230338D01*
Y-229885D01*
Y-229431D01*
Y-228978D01*
Y-228524D01*
Y-228071D01*
Y-227617D01*
Y-227163D01*
Y-226710D01*
Y-226256D01*
Y-225803D01*
Y-225349D01*
Y-224896D01*
Y-224442D01*
Y-223988D01*
Y-223535D01*
Y-223081D01*
Y-222628D01*
Y-222174D01*
Y-221721D01*
Y-221267D01*
Y-220814D01*
Y-220360D01*
Y-219907D01*
Y-219453D01*
Y-218999D01*
Y-218546D01*
Y-218092D01*
Y-217639D01*
Y-217185D01*
Y-216732D01*
Y-216278D01*
Y-215825D01*
Y-215371D01*
Y-214917D01*
Y-214464D01*
Y-214010D01*
Y-213557D01*
Y-213103D01*
Y-212650D01*
Y-212196D01*
Y-211742D01*
Y-211289D01*
Y-210835D01*
Y-210382D01*
Y-209928D01*
Y-209475D01*
Y-209021D01*
Y-208568D01*
Y-208114D01*
Y-207661D01*
Y-207207D01*
Y-206753D01*
Y-206300D01*
Y-205846D01*
Y-205393D01*
Y-204939D01*
Y-204486D01*
Y-204032D01*
Y-203578D01*
Y-203125D01*
Y-202671D01*
Y-202218D01*
Y-201764D01*
Y-201311D01*
Y-200857D01*
Y-200404D01*
Y-199950D01*
Y-199496D01*
Y-199043D01*
Y-198589D01*
Y-198136D01*
Y-197682D01*
Y-197229D01*
Y-196775D01*
Y-196322D01*
Y-195868D01*
Y-195414D01*
Y-194961D01*
Y-194507D01*
Y-194054D01*
Y-193600D01*
Y-193147D01*
Y-192693D01*
Y-192240D01*
Y-191786D01*
Y-191332D01*
Y-190879D01*
Y-190425D01*
Y-189972D01*
Y-189518D01*
Y-189065D01*
Y-188611D01*
Y-188158D01*
Y-187704D01*
Y-187250D01*
Y-186797D01*
Y-186343D01*
Y-185890D01*
Y-185436D01*
Y-184983D01*
Y-184529D01*
Y-184076D01*
Y-183622D01*
Y-183168D01*
Y-182715D01*
Y-182261D01*
Y-181808D01*
Y-181354D01*
Y-180901D01*
Y-180447D01*
Y-179993D01*
Y-179540D01*
Y-179086D01*
Y-178633D01*
Y-178179D01*
Y-177726D01*
Y-177272D01*
Y-176819D01*
X1009071D01*
Y-177272D01*
D02*
G37*
G36*
X1045355Y-194054D02*
X1047623D01*
Y-194507D01*
X1048984D01*
Y-194961D01*
X1050344D01*
Y-195414D01*
X1051252D01*
Y-195868D01*
X1052159D01*
Y-196322D01*
X1053066D01*
Y-196775D01*
X1053973D01*
Y-197229D01*
X1054426D01*
Y-197682D01*
X1055333D01*
Y-198136D01*
X1055787D01*
Y-198589D01*
X1056241D01*
Y-199043D01*
X1056694D01*
Y-199496D01*
X1057148D01*
Y-199950D01*
X1057601D01*
Y-200404D01*
X1058055D01*
Y-200857D01*
X1058508D01*
Y-201311D01*
X1058962D01*
Y-201764D01*
Y-202218D01*
X1059416D01*
Y-202671D01*
X1059869D01*
Y-203125D01*
Y-203578D01*
X1060323D01*
Y-204032D01*
Y-204486D01*
X1060776D01*
Y-204939D01*
Y-205393D01*
X1061230D01*
Y-205846D01*
Y-206300D01*
X1061683D01*
Y-206753D01*
Y-207207D01*
Y-207661D01*
X1062137D01*
Y-208114D01*
Y-208568D01*
Y-209021D01*
Y-209475D01*
Y-209928D01*
X1062590D01*
Y-210382D01*
Y-210835D01*
Y-211289D01*
Y-211742D01*
Y-212196D01*
Y-212650D01*
Y-213103D01*
X1063044D01*
Y-213557D01*
Y-214010D01*
Y-214464D01*
Y-214917D01*
Y-215371D01*
Y-215825D01*
Y-216278D01*
Y-216732D01*
Y-217185D01*
Y-217639D01*
Y-218092D01*
Y-218546D01*
Y-218999D01*
Y-219453D01*
Y-219907D01*
X1062590D01*
Y-220360D01*
Y-220814D01*
Y-221267D01*
Y-221721D01*
Y-222174D01*
Y-222628D01*
Y-223081D01*
X1062137D01*
Y-223535D01*
Y-223988D01*
Y-224442D01*
Y-224896D01*
X1061683D01*
Y-225349D01*
Y-225803D01*
Y-226256D01*
X1061230D01*
Y-226710D01*
Y-227163D01*
Y-227617D01*
X1060776D01*
Y-228071D01*
Y-228524D01*
X1060323D01*
Y-228978D01*
Y-229431D01*
X1059869D01*
Y-229885D01*
Y-230338D01*
X1059416D01*
Y-230792D01*
X1058962D01*
Y-231245D01*
X1058508D01*
Y-231699D01*
Y-232153D01*
X1058055D01*
Y-232606D01*
X1057601D01*
Y-233060D01*
X1057148D01*
Y-233513D01*
X1056694D01*
Y-233967D01*
X1056241D01*
Y-234420D01*
X1055787D01*
Y-234874D01*
X1054880D01*
Y-235327D01*
X1054426D01*
Y-235781D01*
X1053519D01*
Y-236234D01*
X1053066D01*
Y-236688D01*
X1052159D01*
Y-237142D01*
X1051252D01*
Y-237595D01*
X1049891D01*
Y-238049D01*
X1048530D01*
Y-238502D01*
X1047169D01*
Y-238956D01*
X1044902D01*
Y-239409D01*
X1035377D01*
Y-238956D01*
X1032656D01*
Y-238502D01*
X1030841D01*
Y-238049D01*
X1029934D01*
Y-237595D01*
X1028574D01*
Y-237142D01*
X1027667D01*
Y-236688D01*
X1026759D01*
Y-236234D01*
X1026306D01*
Y-235781D01*
X1025399D01*
Y-235327D01*
X1024945D01*
Y-234874D01*
X1024038D01*
Y-234420D01*
X1023585D01*
Y-233967D01*
X1023131D01*
Y-233513D01*
X1022678D01*
Y-233060D01*
X1022224D01*
Y-232606D01*
X1021770D01*
Y-232153D01*
X1021317D01*
Y-231699D01*
Y-231245D01*
X1020863D01*
Y-230792D01*
X1020410D01*
Y-230338D01*
X1019956D01*
Y-229885D01*
Y-229431D01*
X1019503D01*
Y-228978D01*
Y-228524D01*
X1019049D01*
Y-228071D01*
Y-227617D01*
X1018595D01*
Y-227163D01*
Y-226710D01*
Y-226256D01*
X1018142D01*
Y-225803D01*
Y-225349D01*
Y-224896D01*
X1017688D01*
Y-224442D01*
Y-223988D01*
Y-223535D01*
Y-223081D01*
X1017235D01*
Y-222628D01*
Y-222174D01*
Y-221721D01*
Y-221267D01*
Y-220814D01*
Y-220360D01*
Y-219907D01*
Y-219453D01*
X1016781D01*
Y-218999D01*
Y-218546D01*
Y-218092D01*
Y-217639D01*
Y-217185D01*
Y-216732D01*
Y-216278D01*
Y-215825D01*
Y-215371D01*
Y-214917D01*
Y-214464D01*
Y-214010D01*
Y-213557D01*
X1017235D01*
Y-213103D01*
Y-212650D01*
Y-212196D01*
Y-211742D01*
Y-211289D01*
Y-210835D01*
Y-210382D01*
Y-209928D01*
X1017688D01*
Y-209475D01*
Y-209021D01*
Y-208568D01*
Y-208114D01*
X1018142D01*
Y-207661D01*
Y-207207D01*
Y-206753D01*
X1018595D01*
Y-206300D01*
Y-205846D01*
Y-205393D01*
X1019049D01*
Y-204939D01*
Y-204486D01*
X1019503D01*
Y-204032D01*
Y-203578D01*
X1019956D01*
Y-203125D01*
Y-202671D01*
X1020410D01*
Y-202218D01*
X1020863D01*
Y-201764D01*
Y-201311D01*
X1021317D01*
Y-200857D01*
X1021770D01*
Y-200404D01*
X1022224D01*
Y-199950D01*
X1022678D01*
Y-199496D01*
X1023131D01*
Y-199043D01*
X1023585D01*
Y-198589D01*
X1024038D01*
Y-198136D01*
X1024492D01*
Y-197682D01*
X1025399D01*
Y-197229D01*
X1025852D01*
Y-196775D01*
X1026759D01*
Y-196322D01*
X1027667D01*
Y-195868D01*
X1028574D01*
Y-195414D01*
X1029481D01*
Y-194961D01*
X1030841D01*
Y-194507D01*
X1032202D01*
Y-194054D01*
X1034470D01*
Y-193600D01*
X1045355D01*
Y-194054D01*
D02*
G37*
G36*
X1111121Y-194961D02*
X1110667D01*
Y-195414D01*
Y-195868D01*
X1110214D01*
Y-196322D01*
X1109760D01*
Y-196775D01*
X1109307D01*
Y-197229D01*
Y-197682D01*
X1108853D01*
Y-198136D01*
X1108400D01*
Y-198589D01*
Y-199043D01*
X1107946D01*
Y-199496D01*
X1107492D01*
Y-199950D01*
X1107039D01*
Y-200404D01*
Y-200857D01*
X1106585D01*
Y-201311D01*
X1106132D01*
Y-201764D01*
X1105678D01*
Y-202218D01*
Y-202671D01*
X1105225D01*
Y-203125D01*
X1104771D01*
Y-203578D01*
X1104317D01*
Y-204032D01*
Y-204486D01*
X1103864D01*
Y-204939D01*
X1103410D01*
Y-205393D01*
Y-205846D01*
X1102957D01*
Y-206300D01*
X1102503D01*
Y-206753D01*
X1102050D01*
Y-207207D01*
Y-207661D01*
X1101596D01*
Y-208114D01*
X1101143D01*
Y-208568D01*
X1100689D01*
Y-209021D01*
Y-209475D01*
X1100236D01*
Y-209928D01*
X1099782D01*
Y-210382D01*
Y-210835D01*
X1099328D01*
Y-211289D01*
X1098875D01*
Y-211742D01*
X1098421D01*
Y-212196D01*
Y-212650D01*
X1097968D01*
Y-213103D01*
X1097514D01*
Y-213557D01*
X1097061D01*
Y-214010D01*
Y-214464D01*
X1096607D01*
Y-214917D01*
X1096153D01*
Y-215371D01*
X1095700D01*
Y-215825D01*
Y-216278D01*
Y-216732D01*
X1096153D01*
Y-217185D01*
Y-217639D01*
X1096607D01*
Y-218092D01*
X1097061D01*
Y-218546D01*
X1097514D01*
Y-218999D01*
Y-219453D01*
X1097968D01*
Y-219907D01*
X1098421D01*
Y-220360D01*
X1098875D01*
Y-220814D01*
Y-221267D01*
X1099328D01*
Y-221721D01*
X1099782D01*
Y-222174D01*
Y-222628D01*
X1100236D01*
Y-223081D01*
X1100689D01*
Y-223535D01*
X1101143D01*
Y-223988D01*
Y-224442D01*
X1101596D01*
Y-224896D01*
X1102050D01*
Y-225349D01*
X1102503D01*
Y-225803D01*
Y-226256D01*
X1102957D01*
Y-226710D01*
X1103410D01*
Y-227163D01*
X1103864D01*
Y-227617D01*
Y-228071D01*
X1104317D01*
Y-228524D01*
X1104771D01*
Y-228978D01*
X1105225D01*
Y-229431D01*
Y-229885D01*
X1105678D01*
Y-230338D01*
X1106132D01*
Y-230792D01*
X1106585D01*
Y-231245D01*
Y-231699D01*
X1107039D01*
Y-232153D01*
X1107492D01*
Y-232606D01*
X1107946D01*
Y-233060D01*
Y-233513D01*
X1108400D01*
Y-233967D01*
X1108853D01*
Y-234420D01*
Y-234874D01*
X1109307D01*
Y-235327D01*
X1109760D01*
Y-235781D01*
X1110214D01*
Y-236234D01*
Y-236688D01*
X1110667D01*
Y-237142D01*
X1111121D01*
Y-237595D01*
X1111574D01*
Y-238049D01*
X1112028D01*
Y-238502D01*
X1097514D01*
Y-238049D01*
Y-237595D01*
X1097061D01*
Y-237142D01*
X1096607D01*
Y-236688D01*
X1096153D01*
Y-236234D01*
Y-235781D01*
X1095700D01*
Y-235327D01*
X1095246D01*
Y-234874D01*
X1094793D01*
Y-234420D01*
Y-233967D01*
X1094339D01*
Y-233513D01*
X1093886D01*
Y-233060D01*
Y-232606D01*
X1093432D01*
Y-232153D01*
X1092979D01*
Y-231699D01*
X1092525D01*
Y-231245D01*
Y-230792D01*
X1092072D01*
Y-230338D01*
X1091618D01*
Y-229885D01*
X1091164D01*
Y-229431D01*
Y-228978D01*
X1090711D01*
Y-228524D01*
X1090257D01*
Y-228071D01*
Y-227617D01*
X1089804D01*
Y-227163D01*
X1089350D01*
Y-226710D01*
X1088897D01*
Y-226256D01*
Y-225803D01*
X1088443D01*
Y-225349D01*
X1087990D01*
Y-224896D01*
X1087536D01*
Y-224442D01*
X1087082D01*
Y-224896D01*
Y-225349D01*
X1086629D01*
Y-225803D01*
X1086175D01*
Y-226256D01*
X1085722D01*
Y-226710D01*
Y-227163D01*
X1085268D01*
Y-227617D01*
X1084815D01*
Y-228071D01*
Y-228524D01*
X1084361D01*
Y-228978D01*
X1083907D01*
Y-229431D01*
X1083454D01*
Y-229885D01*
Y-230338D01*
X1083000D01*
Y-230792D01*
X1082547D01*
Y-231245D01*
Y-231699D01*
X1082093D01*
Y-232153D01*
X1081640D01*
Y-232606D01*
X1081186D01*
Y-233060D01*
Y-233513D01*
X1080733D01*
Y-233967D01*
X1080279D01*
Y-234420D01*
Y-234874D01*
X1079826D01*
Y-235327D01*
X1079372D01*
Y-235781D01*
X1078918D01*
Y-236234D01*
Y-236688D01*
X1078465D01*
Y-237142D01*
X1078011D01*
Y-237595D01*
Y-238049D01*
X1077558D01*
Y-238502D01*
X1064405D01*
Y-238049D01*
X1064858D01*
Y-237595D01*
X1065312D01*
Y-237142D01*
Y-236688D01*
X1065765D01*
Y-236234D01*
X1066219D01*
Y-235781D01*
X1066672D01*
Y-235327D01*
Y-234874D01*
X1067126D01*
Y-234420D01*
X1067579D01*
Y-233967D01*
Y-233513D01*
X1068033D01*
Y-233060D01*
X1068487D01*
Y-232606D01*
X1068940D01*
Y-232153D01*
X1069394D01*
Y-231699D01*
Y-231245D01*
X1069847D01*
Y-230792D01*
X1070301D01*
Y-230338D01*
Y-229885D01*
X1070754D01*
Y-229431D01*
X1071208D01*
Y-228978D01*
X1071662D01*
Y-228524D01*
Y-228071D01*
X1072115D01*
Y-227617D01*
X1072569D01*
Y-227163D01*
X1073022D01*
Y-226710D01*
Y-226256D01*
X1073476D01*
Y-225803D01*
X1073929D01*
Y-225349D01*
X1074383D01*
Y-224896D01*
Y-224442D01*
X1074836D01*
Y-223988D01*
X1075290D01*
Y-223535D01*
X1075743D01*
Y-223081D01*
Y-222628D01*
X1076197D01*
Y-222174D01*
X1076651D01*
Y-221721D01*
X1077104D01*
Y-221267D01*
Y-220814D01*
X1077558D01*
Y-220360D01*
X1078011D01*
Y-219907D01*
X1078465D01*
Y-219453D01*
Y-218999D01*
X1078918D01*
Y-218546D01*
X1079372D01*
Y-218092D01*
Y-217639D01*
X1079826D01*
Y-217185D01*
X1080279D01*
Y-216732D01*
X1080733D01*
Y-216278D01*
Y-215825D01*
X1080279D01*
Y-215371D01*
X1079826D01*
Y-214917D01*
X1079372D01*
Y-214464D01*
Y-214010D01*
X1078918D01*
Y-213557D01*
X1078465D01*
Y-213103D01*
X1078011D01*
Y-212650D01*
Y-212196D01*
X1077558D01*
Y-211742D01*
X1077104D01*
Y-211289D01*
Y-210835D01*
X1076651D01*
Y-210382D01*
X1076197D01*
Y-209928D01*
X1075743D01*
Y-209475D01*
Y-209021D01*
X1075290D01*
Y-208568D01*
X1074836D01*
Y-208114D01*
X1074383D01*
Y-207661D01*
Y-207207D01*
X1073929D01*
Y-206753D01*
X1073476D01*
Y-206300D01*
Y-205846D01*
X1073022D01*
Y-205393D01*
X1072569D01*
Y-204939D01*
X1072115D01*
Y-204486D01*
Y-204032D01*
X1071662D01*
Y-203578D01*
X1071208D01*
Y-203125D01*
X1070754D01*
Y-202671D01*
Y-202218D01*
X1070301D01*
Y-201764D01*
X1069847D01*
Y-201311D01*
Y-200857D01*
X1069394D01*
Y-200404D01*
X1068940D01*
Y-199950D01*
X1068487D01*
Y-199496D01*
Y-199043D01*
X1068033D01*
Y-198589D01*
X1067579D01*
Y-198136D01*
X1067126D01*
Y-197682D01*
Y-197229D01*
X1066672D01*
Y-196775D01*
X1066219D01*
Y-196322D01*
Y-195868D01*
X1065765D01*
Y-195414D01*
X1065312D01*
Y-194961D01*
X1064858D01*
Y-194507D01*
X1078918D01*
Y-194961D01*
X1079372D01*
Y-195414D01*
X1079826D01*
Y-195868D01*
Y-196322D01*
X1080279D01*
Y-196775D01*
X1080733D01*
Y-197229D01*
X1081186D01*
Y-197682D01*
Y-198136D01*
X1081640D01*
Y-198589D01*
X1082093D01*
Y-199043D01*
Y-199496D01*
X1082547D01*
Y-199950D01*
X1083000D01*
Y-200404D01*
Y-200857D01*
X1083454D01*
Y-201311D01*
X1083907D01*
Y-201764D01*
X1084361D01*
Y-202218D01*
Y-202671D01*
X1084815D01*
Y-203125D01*
X1085268D01*
Y-203578D01*
Y-204032D01*
X1085722D01*
Y-204486D01*
X1086175D01*
Y-204939D01*
X1086629D01*
Y-205393D01*
Y-205846D01*
X1087082D01*
Y-206300D01*
X1087536D01*
Y-206753D01*
Y-207207D01*
X1087990D01*
Y-207661D01*
X1088443D01*
Y-208114D01*
X1088897D01*
Y-207661D01*
X1089350D01*
Y-207207D01*
Y-206753D01*
X1089804D01*
Y-206300D01*
X1090257D01*
Y-205846D01*
X1090711D01*
Y-205393D01*
Y-204939D01*
X1091164D01*
Y-204486D01*
X1091618D01*
Y-204032D01*
Y-203578D01*
X1092072D01*
Y-203125D01*
X1092525D01*
Y-202671D01*
X1092979D01*
Y-202218D01*
Y-201764D01*
X1093432D01*
Y-201311D01*
X1093886D01*
Y-200857D01*
Y-200404D01*
X1094339D01*
Y-199950D01*
X1094793D01*
Y-199496D01*
X1095246D01*
Y-199043D01*
Y-198589D01*
X1095700D01*
Y-198136D01*
X1096153D01*
Y-197682D01*
Y-197229D01*
X1096607D01*
Y-196775D01*
X1097061D01*
Y-196322D01*
X1097514D01*
Y-195868D01*
Y-195414D01*
X1097968D01*
Y-194961D01*
X1098421D01*
Y-194507D01*
X1111121D01*
Y-194961D01*
D02*
G37*
%LPC*%
G36*
X873457Y-173644D02*
X871190D01*
Y-174097D01*
X869376D01*
Y-174551D01*
X868468D01*
Y-175004D01*
X867561D01*
Y-175458D01*
X866654D01*
Y-175912D01*
X866201D01*
Y-176365D01*
X865747D01*
Y-176819D01*
X865294D01*
Y-177272D01*
X864840D01*
Y-177726D01*
Y-178179D01*
X864386D01*
Y-178633D01*
X863933D01*
Y-179086D01*
Y-179540D01*
X863479D01*
Y-179993D01*
Y-180447D01*
Y-180901D01*
Y-181354D01*
X863026D01*
Y-181808D01*
Y-182261D01*
Y-182715D01*
Y-183168D01*
Y-183622D01*
Y-184076D01*
Y-184529D01*
Y-184983D01*
X863479D01*
Y-185436D01*
Y-185890D01*
Y-186343D01*
X863933D01*
Y-186797D01*
Y-187250D01*
X864386D01*
Y-187704D01*
Y-188158D01*
X864840D01*
Y-188611D01*
X865294D01*
Y-189065D01*
X865747D01*
Y-189518D01*
X866201D01*
Y-189972D01*
X866654D01*
Y-190425D01*
X867108D01*
Y-190879D01*
X868015D01*
Y-191332D01*
X868922D01*
Y-191786D01*
X870283D01*
Y-192240D01*
X874365D01*
Y-191786D01*
X875725D01*
Y-191332D01*
X876632D01*
Y-190879D01*
X877540D01*
Y-190425D01*
X877993D01*
Y-189972D01*
X878447D01*
Y-189518D01*
X879354D01*
Y-189065D01*
Y-188611D01*
X879807D01*
Y-188158D01*
X880261D01*
Y-187704D01*
Y-187250D01*
X880714D01*
Y-186797D01*
Y-186343D01*
X881168D01*
Y-185890D01*
Y-185436D01*
Y-184983D01*
X881622D01*
Y-184529D01*
Y-184076D01*
Y-183622D01*
Y-183168D01*
Y-182715D01*
Y-182261D01*
Y-181808D01*
Y-181354D01*
X881168D01*
Y-180901D01*
Y-180447D01*
Y-179993D01*
Y-179540D01*
X880714D01*
Y-179086D01*
Y-178633D01*
X880261D01*
Y-178179D01*
Y-177726D01*
X879807D01*
Y-177272D01*
X879354D01*
Y-176819D01*
X878900D01*
Y-176365D01*
X878447D01*
Y-175912D01*
X877993D01*
Y-175458D01*
X877086D01*
Y-175004D01*
X876632D01*
Y-174551D01*
X875272D01*
Y-174097D01*
X873457D01*
Y-173644D01*
D02*
G37*
G36*
X968251Y-203578D02*
X964169D01*
Y-204032D01*
X962355D01*
Y-204486D01*
X960994D01*
Y-204939D01*
X960087D01*
Y-205393D01*
X959633D01*
Y-205846D01*
X958726D01*
Y-206300D01*
X958272D01*
Y-206753D01*
X957819D01*
Y-207207D01*
Y-207661D01*
X957365D01*
Y-208114D01*
X956912D01*
Y-208568D01*
Y-209021D01*
X956458D01*
Y-209475D01*
Y-209928D01*
X956005D01*
Y-210382D01*
Y-210835D01*
Y-211289D01*
X955551D01*
Y-211742D01*
Y-212196D01*
Y-212650D01*
Y-213103D01*
Y-213557D01*
X955098D01*
Y-214010D01*
Y-214464D01*
Y-214917D01*
Y-215371D01*
Y-215825D01*
Y-216278D01*
Y-216732D01*
Y-217185D01*
Y-217639D01*
Y-218092D01*
Y-218546D01*
Y-218999D01*
Y-219453D01*
X955551D01*
Y-219907D01*
Y-220360D01*
Y-220814D01*
Y-221267D01*
Y-221721D01*
X956005D01*
Y-222174D01*
Y-222628D01*
Y-223081D01*
X956458D01*
Y-223535D01*
Y-223988D01*
X956912D01*
Y-224442D01*
Y-224896D01*
X957365D01*
Y-225349D01*
X957819D01*
Y-225803D01*
X958272D01*
Y-226256D01*
X958726D01*
Y-226710D01*
X959180D01*
Y-227163D01*
X959633D01*
Y-227617D01*
X960540D01*
Y-228071D01*
X961447D01*
Y-228524D01*
X962355D01*
Y-228978D01*
X964622D01*
Y-229431D01*
X967797D01*
Y-228978D01*
X970065D01*
Y-228524D01*
X971426D01*
Y-228071D01*
X972333D01*
Y-227617D01*
X972786D01*
Y-227163D01*
X973693D01*
Y-226710D01*
X974147D01*
Y-226256D01*
X974601D01*
Y-225803D01*
X975054D01*
Y-225349D01*
Y-224896D01*
X975508D01*
Y-224442D01*
X975961D01*
Y-223988D01*
Y-223535D01*
X976415D01*
Y-223081D01*
Y-222628D01*
Y-222174D01*
X976868D01*
Y-221721D01*
Y-221267D01*
Y-220814D01*
Y-220360D01*
X977322D01*
Y-219907D01*
Y-219453D01*
Y-218999D01*
Y-218546D01*
Y-218092D01*
Y-217639D01*
Y-217185D01*
Y-216732D01*
Y-216278D01*
Y-215825D01*
Y-215371D01*
Y-214917D01*
Y-214464D01*
Y-214010D01*
Y-213557D01*
Y-213103D01*
Y-212650D01*
Y-212196D01*
X976868D01*
Y-211742D01*
Y-211289D01*
Y-210835D01*
Y-210382D01*
X976415D01*
Y-209928D01*
Y-209475D01*
X975961D01*
Y-209021D01*
Y-208568D01*
X975508D01*
Y-208114D01*
Y-207661D01*
X975054D01*
Y-207207D01*
X974601D01*
Y-206753D01*
X974147D01*
Y-206300D01*
X973693D01*
Y-205846D01*
X973240D01*
Y-205393D01*
X972333D01*
Y-204939D01*
X971426D01*
Y-204486D01*
X970518D01*
Y-204032D01*
X968251D01*
Y-203578D01*
D02*
G37*
G36*
X1042180D02*
X1037645D01*
Y-204032D01*
X1035831D01*
Y-204486D01*
X1034470D01*
Y-204939D01*
X1033563D01*
Y-205393D01*
X1033109D01*
Y-205846D01*
X1032656D01*
Y-206300D01*
X1032202D01*
Y-206753D01*
X1031749D01*
Y-207207D01*
X1031295D01*
Y-207661D01*
X1030841D01*
Y-208114D01*
X1030388D01*
Y-208568D01*
Y-209021D01*
X1029934D01*
Y-209475D01*
Y-209928D01*
X1029481D01*
Y-210382D01*
Y-210835D01*
Y-211289D01*
X1029027D01*
Y-211742D01*
Y-212196D01*
Y-212650D01*
Y-213103D01*
Y-213557D01*
Y-214010D01*
Y-214464D01*
X1028574D01*
Y-214917D01*
Y-215371D01*
Y-215825D01*
Y-216278D01*
Y-216732D01*
Y-217185D01*
Y-217639D01*
Y-218092D01*
X1029027D01*
Y-218546D01*
Y-218999D01*
Y-219453D01*
Y-219907D01*
Y-220360D01*
Y-220814D01*
Y-221267D01*
X1029481D01*
Y-221721D01*
Y-222174D01*
Y-222628D01*
X1029934D01*
Y-223081D01*
Y-223535D01*
Y-223988D01*
X1030388D01*
Y-224442D01*
X1030841D01*
Y-224896D01*
Y-225349D01*
X1031295D01*
Y-225803D01*
X1031749D01*
Y-226256D01*
X1032202D01*
Y-226710D01*
X1032656D01*
Y-227163D01*
X1033109D01*
Y-227617D01*
X1034016D01*
Y-228071D01*
X1034923D01*
Y-228524D01*
X1036284D01*
Y-228978D01*
X1038552D01*
Y-229431D01*
X1041273D01*
Y-228978D01*
X1043541D01*
Y-228524D01*
X1044902D01*
Y-228071D01*
X1045809D01*
Y-227617D01*
X1046716D01*
Y-227163D01*
X1047169D01*
Y-226710D01*
X1047623D01*
Y-226256D01*
X1048077D01*
Y-225803D01*
X1048530D01*
Y-225349D01*
X1048984D01*
Y-224896D01*
Y-224442D01*
X1049437D01*
Y-223988D01*
X1049891D01*
Y-223535D01*
Y-223081D01*
Y-222628D01*
X1050344D01*
Y-222174D01*
Y-221721D01*
Y-221267D01*
X1050798D01*
Y-220814D01*
Y-220360D01*
Y-219907D01*
Y-219453D01*
Y-218999D01*
X1051252D01*
Y-218546D01*
Y-218092D01*
Y-217639D01*
Y-217185D01*
Y-216732D01*
Y-216278D01*
Y-215825D01*
Y-215371D01*
Y-214917D01*
Y-214464D01*
Y-214010D01*
X1050798D01*
Y-213557D01*
Y-213103D01*
Y-212650D01*
Y-212196D01*
Y-211742D01*
Y-211289D01*
X1050344D01*
Y-210835D01*
Y-210382D01*
Y-209928D01*
X1049891D01*
Y-209475D01*
Y-209021D01*
X1049437D01*
Y-208568D01*
Y-208114D01*
X1048984D01*
Y-207661D01*
X1048530D01*
Y-207207D01*
X1048077D01*
Y-206753D01*
X1047623D01*
Y-206300D01*
X1047169D01*
Y-205846D01*
X1046716D01*
Y-205393D01*
X1045809D01*
Y-204939D01*
X1045355D01*
Y-204486D01*
X1043995D01*
Y-204032D01*
X1042180D01*
Y-203578D01*
D02*
G37*
%LPD*%
D11*
X393700Y435621D02*
X396200Y438121D01*
X393950Y424121D02*
X396178Y421399D01*
X373200Y418371D02*
X396200D01*
X373200D02*
Y441371D01*
X396200D01*
Y418371D02*
Y441371D01*
X148500Y1068250D02*
Y1192250D01*
X7500D02*
X148500D01*
X7500Y1068250D02*
Y1192250D01*
Y1068250D02*
X148500D01*
X204000Y-13250D02*
Y96250D01*
X141000D02*
X204000D01*
X141000Y-13250D02*
X204000D01*
X141000D02*
Y96250D01*
X2118913Y493643D02*
X2115044Y503801D01*
X2111174Y493643D01*
X2112625Y497029D02*
X2117462D01*
X2126604Y498964D02*
X2126121Y499931D01*
X2124669Y500415D01*
X2123218D01*
X2121767Y499931D01*
X2121284Y498964D01*
X2121767Y497996D01*
X2122735Y497513D01*
X2125153Y497029D01*
X2126121Y496545D01*
X2126604Y495578D01*
Y495094D01*
X2126121Y494127D01*
X2124669Y493643D01*
X2123218D01*
X2121767Y494127D01*
X2121284Y495094D01*
X2134053Y498964D02*
X2133570Y499931D01*
X2132119Y500415D01*
X2130668D01*
X2129216Y499931D01*
X2128733Y498964D01*
X2129216Y497996D01*
X2130184Y497513D01*
X2132602Y497029D01*
X2133570Y496545D01*
X2134053Y495578D01*
Y495094D01*
X2133570Y494127D01*
X2132119Y493643D01*
X2130668D01*
X2129216Y494127D01*
X2128733Y495094D01*
X2136182Y497513D02*
X2141986D01*
Y498480D01*
X2141503Y499448D01*
X2141019Y499931D01*
X2140051Y500415D01*
X2138600D01*
X2137633Y499931D01*
X2136665Y498964D01*
X2136182Y497513D01*
Y496545D01*
X2136665Y495094D01*
X2137633Y494127D01*
X2138600Y493643D01*
X2140051D01*
X2141019Y494127D01*
X2141986Y495094D01*
X2144163Y500415D02*
Y493643D01*
Y498480D02*
X2145614Y499931D01*
X2146581Y500415D01*
X2148033D01*
X2149000Y499931D01*
X2149484Y498480D01*
Y493643D01*
Y498480D02*
X2150935Y499931D01*
X2151902Y500415D01*
X2153353D01*
X2154321Y499931D01*
X2154804Y498480D01*
Y493643D01*
X2157997Y503801D02*
Y493643D01*
Y498964D02*
X2158964Y499931D01*
X2159932Y500415D01*
X2161383D01*
X2162350Y499931D01*
X2163318Y498964D01*
X2163801Y497513D01*
Y496545D01*
X2163318Y495094D01*
X2162350Y494127D01*
X2161383Y493643D01*
X2159932D01*
X2158964Y494127D01*
X2157997Y495094D01*
X2165978Y503801D02*
Y493643D01*
X2168590Y500415D02*
X2171492Y493643D01*
X2174395Y500415D02*
X2171492Y493643D01*
X2170525Y491708D01*
X2169557Y490741D01*
X2168590Y490257D01*
X2168106D01*
X2187455Y503801D02*
Y493643D01*
X2184069Y503801D02*
X2190840D01*
X2194468Y500415D02*
X2193501Y499931D01*
X2192533Y498964D01*
X2192050Y497513D01*
Y496545D01*
X2192533Y495094D01*
X2193501Y494127D01*
X2194468Y493643D01*
X2195919D01*
X2196887Y494127D01*
X2197854Y495094D01*
X2198338Y496545D01*
Y497513D01*
X2197854Y498964D01*
X2196887Y499931D01*
X2195919Y500415D01*
X2194468D01*
X2200563D02*
Y490257D01*
Y498964D02*
X2201530Y499931D01*
X2202498Y500415D01*
X2203949D01*
X2204916Y499931D01*
X2205884Y498964D01*
X2206367Y497513D01*
Y496545D01*
X2205884Y495094D01*
X2204916Y494127D01*
X2203949Y493643D01*
X2202498D01*
X2201530Y494127D01*
X2200563Y495094D01*
X2227580Y1486408D02*
Y1524508D01*
X2057400Y1486408D02*
Y1524508D01*
X1470660Y1486408D02*
Y1524508D01*
X1562100Y1486408D02*
Y1524508D01*
Y1681988D01*
X1470660Y1524508D02*
Y1740408D01*
Y1524508D02*
X2344420D01*
X1470660Y1486408D02*
X2344420D01*
X1582360Y-165262D02*
Y-128686D01*
X1201360D02*
X1582360D01*
X772160D02*
X1201360D01*
X1582360Y-317662D02*
Y-165262D01*
X2115760Y-317662D02*
Y-187868D01*
X1201360Y-317662D02*
Y-128686D01*
X2344360Y-317662D02*
Y-128686D01*
X1582360D02*
X2344360D01*
X1201360Y-187106D02*
X2344360D01*
X1201360Y-250352D02*
X2344360D01*
X1201360Y-317662D02*
X2344360D01*
X772160D02*
Y-128686D01*
Y-317662D02*
X1201360D01*
X2227580Y1524508D02*
Y1681988D01*
X2057400Y1524508D02*
Y1681988D01*
X1470660D02*
X2344360D01*
X1470660Y1600708D02*
X2344360D01*
X1470660Y1638808D02*
X2344420D01*
X1470660Y1562608D02*
X2344360D01*
X-398780Y-367792D02*
X2395220D01*
X2344360Y171288D02*
X2395160D01*
X2344360Y711038D02*
X2395160D01*
X2344360Y1250788D02*
X2395160D01*
X2344360Y-317662D02*
Y1739738D01*
X2395220Y-367792D02*
Y1791208D01*
X-398780D02*
X2395220D01*
X1696660Y1739738D02*
Y1790538D01*
X998160Y1739738D02*
Y1790538D01*
X299660Y1739738D02*
Y1790538D01*
X-348040Y1739738D02*
X2344360D01*
X1696660Y-368462D02*
Y-317662D01*
X998160Y-368462D02*
Y-317662D01*
X299660Y-368462D02*
Y-317662D01*
X-398840Y171288D02*
X-348040D01*
X-398840Y711038D02*
X-348040D01*
X-398840Y1250788D02*
X-348040D01*
X-398780Y-367792D02*
Y1791208D01*
X-348040Y-317662D02*
Y1739738D01*
Y-317662D02*
X2344360D01*
X1588202Y-207172D02*
Y-194476D01*
X1594550D01*
X1596666Y-196592D01*
Y-200824D01*
X1594550Y-202940D01*
X1588202D01*
X1609362Y-196592D02*
X1607246Y-194476D01*
X1603014D01*
X1600898Y-196592D01*
Y-205056D01*
X1603014Y-207172D01*
X1607246D01*
X1609362Y-205056D01*
X1613594Y-194476D02*
Y-207172D01*
X1619942D01*
X1622058Y-205056D01*
Y-202940D01*
X1619942Y-200824D01*
X1613594D01*
X1619942D01*
X1622058Y-198708D01*
Y-196592D01*
X1619942Y-194476D01*
X1613594D01*
X1638985Y-207172D02*
Y-194476D01*
X1647449Y-207172D01*
Y-194476D01*
X1651681Y-207172D02*
Y-198708D01*
X1655913Y-194476D01*
X1660145Y-198708D01*
Y-207172D01*
Y-200824D01*
X1651681D01*
X1664377Y-207172D02*
Y-194476D01*
X1668609Y-198708D01*
X1672841Y-194476D01*
Y-207172D01*
X1685537Y-194476D02*
X1677073D01*
Y-207172D01*
X1685537D01*
X1677073Y-200824D02*
X1681305D01*
X1689769Y-198708D02*
X1691885D01*
Y-200824D01*
X1689769D01*
Y-198708D01*
Y-205056D02*
X1691885D01*
Y-207172D01*
X1689769D01*
Y-205056D01*
X2128542Y-262632D02*
X2126426Y-260516D01*
X2122194D01*
X2120078Y-262632D01*
Y-264748D01*
X2122194Y-266864D01*
X2126426D01*
X2128542Y-268980D01*
Y-271096D01*
X2126426Y-273212D01*
X2122194D01*
X2120078Y-271096D01*
X2141238Y-262632D02*
X2139122Y-260516D01*
X2134890D01*
X2132774Y-262632D01*
Y-271096D01*
X2134890Y-273212D01*
X2139122D01*
X2141238Y-271096D01*
X2145470Y-273212D02*
Y-264748D01*
X2149702Y-260516D01*
X2153934Y-264748D01*
Y-273212D01*
Y-266864D01*
X2145470D01*
X2158166Y-260516D02*
Y-273212D01*
X2166630D01*
X2179326Y-260516D02*
X2170862D01*
Y-273212D01*
X2179326D01*
X2170862Y-266864D02*
X2175094D01*
X2183557Y-264748D02*
X2185673D01*
Y-266864D01*
X2183557D01*
Y-264748D01*
Y-271096D02*
X2185673D01*
Y-273212D01*
X2183557D01*
Y-271096D01*
X1595964Y-258576D02*
X1587500D01*
Y-264924D01*
X1591732D01*
X1587500D01*
Y-271272D01*
X1600196Y-258576D02*
X1604428D01*
X1602312D01*
Y-271272D01*
X1600196D01*
X1604428D01*
X1610776Y-258576D02*
Y-271272D01*
X1619240D01*
X1631936Y-258576D02*
X1623472D01*
Y-271272D01*
X1631936D01*
X1623472Y-264924D02*
X1627704D01*
X1648864Y-271272D02*
Y-258576D01*
X1657327Y-271272D01*
Y-258576D01*
X1661559Y-271272D02*
Y-262808D01*
X1665791Y-258576D01*
X1670023Y-262808D01*
Y-271272D01*
Y-264924D01*
X1661559D01*
X1674255Y-271272D02*
Y-258576D01*
X1678487Y-262808D01*
X1682719Y-258576D01*
Y-271272D01*
X1695415Y-258576D02*
X1686951D01*
Y-271272D01*
X1695415D01*
X1686951Y-264924D02*
X1691183D01*
X1699647Y-262808D02*
X1701763D01*
Y-264924D01*
X1699647D01*
Y-262808D01*
Y-269156D02*
X1701763D01*
Y-271272D01*
X1699647D01*
Y-269156D01*
X1589472Y-152816D02*
Y-140120D01*
X1595820D01*
X1597936Y-142236D01*
Y-146468D01*
X1595820Y-148584D01*
X1589472D01*
X1602168Y-152816D02*
Y-140120D01*
X1608516D01*
X1610632Y-142236D01*
Y-146468D01*
X1608516Y-148584D01*
X1602168D01*
X1606400D02*
X1610632Y-152816D01*
X1621212Y-140120D02*
X1616980D01*
X1614864Y-142236D01*
Y-150700D01*
X1616980Y-152816D01*
X1621212D01*
X1623328Y-150700D01*
Y-142236D01*
X1621212Y-140120D01*
X1636024D02*
X1631792D01*
X1633908D01*
Y-150700D01*
X1631792Y-152816D01*
X1629676D01*
X1627560Y-150700D01*
X1648719Y-140120D02*
X1640255D01*
Y-152816D01*
X1648719D01*
X1640255Y-146468D02*
X1644487D01*
X1661415Y-142236D02*
X1659299Y-140120D01*
X1655067D01*
X1652951Y-142236D01*
Y-150700D01*
X1655067Y-152816D01*
X1659299D01*
X1661415Y-150700D01*
X1665647Y-140120D02*
X1674111D01*
X1669879D01*
Y-152816D01*
X1678343Y-144352D02*
X1680459D01*
Y-146468D01*
X1678343D01*
Y-144352D01*
Y-150700D02*
X1680459D01*
Y-152816D01*
X1678343D01*
Y-150700D01*
X1212872Y-140374D02*
X1204408D01*
Y-153070D01*
X1212872D01*
X1204408Y-146722D02*
X1208640D01*
X1217104Y-153070D02*
Y-140374D01*
X1225568Y-153070D01*
Y-140374D01*
X1238264Y-142490D02*
X1236148Y-140374D01*
X1231916D01*
X1229800Y-142490D01*
Y-150954D01*
X1231916Y-153070D01*
X1236148D01*
X1238264Y-150954D01*
Y-146722D01*
X1234032D01*
X1242496Y-140374D02*
X1246728D01*
X1244612D01*
Y-153070D01*
X1242496D01*
X1246728D01*
X1253076D02*
Y-140374D01*
X1261540Y-153070D01*
Y-140374D01*
X1274235D02*
X1265771D01*
Y-153070D01*
X1274235D01*
X1265771Y-146722D02*
X1270003D01*
X1286931Y-140374D02*
X1278467D01*
Y-153070D01*
X1286931D01*
X1278467Y-146722D02*
X1282699D01*
X1291163Y-153070D02*
Y-140374D01*
X1297511D01*
X1299627Y-142490D01*
Y-146722D01*
X1297511Y-148838D01*
X1291163D01*
X1295395D02*
X1299627Y-153070D01*
X1303859Y-144606D02*
X1305975D01*
Y-146722D01*
X1303859D01*
Y-144606D01*
Y-150954D02*
X1305975D01*
Y-153070D01*
X1303859D01*
Y-150954D01*
X1206500Y-258576D02*
Y-271272D01*
X1212848D01*
X1214964Y-269156D01*
Y-260692D01*
X1212848Y-258576D01*
X1206500D01*
X1219196D02*
Y-271272D01*
X1223428Y-267040D01*
X1227660Y-271272D01*
Y-258576D01*
X1240356Y-260692D02*
X1238240Y-258576D01*
X1234008D01*
X1231892Y-260692D01*
Y-269156D01*
X1234008Y-271272D01*
X1238240D01*
X1240356Y-269156D01*
Y-264924D01*
X1236124D01*
X1257283Y-271272D02*
Y-258576D01*
X1265748Y-271272D01*
Y-258576D01*
X1276327D02*
X1272095D01*
X1269979Y-260692D01*
Y-269156D01*
X1272095Y-271272D01*
X1276327D01*
X1278443Y-269156D01*
Y-260692D01*
X1276327Y-258576D01*
X1282675Y-262808D02*
X1284791D01*
Y-264924D01*
X1282675D01*
Y-262808D01*
Y-269156D02*
X1284791D01*
Y-271272D01*
X1282675D01*
Y-269156D01*
X2121348Y-210474D02*
Y-197778D01*
X2127696D01*
X2129812Y-199894D01*
Y-204126D01*
X2127696Y-206242D01*
X2121348D01*
X2125580D02*
X2129812Y-210474D01*
X2142508Y-197778D02*
X2134044D01*
Y-210474D01*
X2142508D01*
X2134044Y-204126D02*
X2138276D01*
X2146740Y-197778D02*
Y-206242D01*
X2150972Y-210474D01*
X2155204Y-206242D01*
Y-197778D01*
X2159436Y-202010D02*
X2161552D01*
Y-204126D01*
X2159436D01*
Y-202010D01*
Y-208358D02*
X2161552D01*
Y-210474D01*
X2159436D01*
Y-208358D01*
X1205170Y-195492D02*
Y-208188D01*
X1211518D01*
X1213634Y-206072D01*
Y-197608D01*
X1211518Y-195492D01*
X1205170D01*
X1217866Y-208188D02*
Y-199724D01*
X1222098Y-195492D01*
X1226330Y-199724D01*
Y-208188D01*
Y-201840D01*
X1217866D01*
X1230562Y-195492D02*
X1239026D01*
X1234794D01*
Y-208188D01*
X1251722Y-195492D02*
X1243258D01*
Y-208188D01*
X1251722D01*
X1243258Y-201840D02*
X1247490D01*
X1255954Y-199724D02*
X1258070D01*
Y-201840D01*
X1255954D01*
Y-199724D01*
Y-206072D02*
X1258070D01*
Y-208188D01*
X1255954D01*
Y-206072D01*
D14*
X599548Y606422D02*
G03*
X599548Y606422I-250J0D01*
G01*
X634962Y358793D02*
G03*
X634962Y358793I-830J0D01*
G01*
X2057834Y666617D02*
X2253414D01*
X2017194Y-103632D02*
Y711200D01*
X2304214D01*
Y-103632D02*
Y711200D01*
X2017194Y-103632D02*
X2304214D01*
X1490980Y1501648D02*
Y1514344D01*
X1497328D01*
X1499444Y1512228D01*
Y1507996D01*
X1497328Y1505880D01*
X1490980D01*
X1495212D02*
X1499444Y1501648D01*
X1510024D02*
X1505792D01*
X1503676Y1503764D01*
Y1507996D01*
X1505792Y1510112D01*
X1510024D01*
X1512140Y1507996D01*
Y1505880D01*
X1503676D01*
X1516372Y1510112D02*
X1520604Y1501648D01*
X1524836Y1510112D01*
X1541763Y1514344D02*
Y1501648D01*
X1548112D01*
X1550228Y1503764D01*
Y1512228D01*
X1548112Y1514344D01*
X1541763D01*
X1600200Y1501648D02*
Y1510112D01*
X1604432Y1514344D01*
X1608664Y1510112D01*
Y1501648D01*
Y1507996D01*
X1600200D01*
X1621360Y1514344D02*
Y1501648D01*
X1615012D01*
X1612896Y1503764D01*
Y1507996D01*
X1615012Y1510112D01*
X1621360D01*
X1634056Y1514344D02*
Y1501648D01*
X1627708D01*
X1625592Y1503764D01*
Y1507996D01*
X1627708Y1510112D01*
X1634056D01*
X1638288Y1501648D02*
X1642520D01*
X1640404D01*
Y1510112D01*
X1638288D01*
X1650983Y1512228D02*
Y1510112D01*
X1648868D01*
X1653100D01*
X1650983D01*
Y1503764D01*
X1653100Y1501648D01*
X1659447D02*
X1663680D01*
X1661564D01*
Y1510112D01*
X1659447D01*
X1672143Y1501648D02*
X1676375D01*
X1678491Y1503764D01*
Y1507996D01*
X1676375Y1510112D01*
X1672143D01*
X1670027Y1507996D01*
Y1503764D01*
X1672143Y1501648D01*
X1682723D02*
Y1510112D01*
X1689071D01*
X1691187Y1507996D01*
Y1501648D01*
X1710231D02*
X1714463D01*
X1716579Y1503764D01*
Y1507996D01*
X1714463Y1510112D01*
X1710231D01*
X1708115Y1507996D01*
Y1503764D01*
X1710231Y1501648D01*
X1722927D02*
Y1512228D01*
Y1507996D01*
X1720811D01*
X1725043D01*
X1722927D01*
Y1512228D01*
X1725043Y1514344D01*
X1744087Y1501648D02*
Y1514344D01*
X1750435D01*
X1752551Y1512228D01*
Y1507996D01*
X1750435Y1505880D01*
X1744087D01*
X1748319D02*
X1752551Y1501648D01*
X1756783Y1512228D02*
X1758899Y1514344D01*
X1763131D01*
X1765247Y1512228D01*
Y1510112D01*
X1763131Y1507996D01*
X1765247Y1505880D01*
Y1503764D01*
X1763131Y1501648D01*
X1758899D01*
X1756783Y1503764D01*
Y1505880D01*
X1758899Y1507996D01*
X1756783Y1510112D01*
Y1512228D01*
X1758899Y1507996D02*
X1763131D01*
X1769478Y1512228D02*
X1771595Y1514344D01*
X1775826D01*
X1777942Y1512228D01*
Y1510112D01*
X1775826Y1507996D01*
X1777942Y1505880D01*
Y1503764D01*
X1775826Y1501648D01*
X1771595D01*
X1769478Y1503764D01*
Y1505880D01*
X1771595Y1507996D01*
X1769478Y1510112D01*
Y1512228D01*
X1771595Y1507996D02*
X1775826D01*
X2077720Y1501648D02*
X2081952D01*
X2079836D01*
Y1514344D01*
X2077720Y1512228D01*
X2088300D02*
X2090416Y1514344D01*
X2094648D01*
X2096764Y1512228D01*
Y1503764D01*
X2094648Y1501648D01*
X2090416D01*
X2088300Y1503764D01*
Y1512228D01*
X2100996Y1501648D02*
X2109460Y1510112D01*
X2113692Y1501648D02*
X2117924D01*
X2115808D01*
Y1514344D01*
X2113692Y1512228D01*
X2124272D02*
X2126388Y1514344D01*
X2130620D01*
X2132735Y1512228D01*
Y1510112D01*
X2130620Y1507996D01*
X2132735Y1505880D01*
Y1503764D01*
X2130620Y1501648D01*
X2126388D01*
X2124272Y1503764D01*
Y1505880D01*
X2126388Y1507996D01*
X2124272Y1510112D01*
Y1512228D01*
X2126388Y1507996D02*
X2130620D01*
X2136967Y1501648D02*
X2145431Y1510112D01*
X2158127Y1501648D02*
X2149663D01*
X2158127Y1510112D01*
Y1512228D01*
X2156011Y1514344D01*
X2151779D01*
X2149663Y1512228D01*
X2162359D02*
X2164475Y1514344D01*
X2168707D01*
X2170823Y1512228D01*
Y1503764D01*
X2168707Y1501648D01*
X2164475D01*
X2162359Y1503764D01*
Y1512228D01*
X2183519Y1501648D02*
X2175055D01*
X2183519Y1510112D01*
Y1512228D01*
X2181403Y1514344D01*
X2177171D01*
X2175055Y1512228D01*
X2196215Y1501648D02*
X2187751D01*
X2196215Y1510112D01*
Y1512228D01*
X2194099Y1514344D01*
X2189867D01*
X2187751Y1512228D01*
X2253824Y1514344D02*
X2245360D01*
Y1501648D01*
X2253824D01*
X2245360Y1507996D02*
X2249592D01*
X2258056Y1501648D02*
Y1514344D01*
X2262288Y1510112D01*
X2266520Y1514344D01*
Y1501648D01*
X2277100Y1514344D02*
X2272868D01*
X2270752Y1512228D01*
Y1503764D01*
X2272868Y1501648D01*
X2277100D01*
X2279216Y1503764D01*
Y1512228D01*
X2277100Y1514344D01*
X2289796D02*
X2285564D01*
X2283448Y1512228D01*
Y1503764D01*
X2285564Y1501648D01*
X2289796D01*
X2291912Y1503764D01*
Y1512228D01*
X2289796Y1514344D01*
X1272540Y-286517D02*
Y-299213D01*
X1275079Y-301752D01*
X1280157D01*
X1282697Y-299213D01*
Y-286517D01*
X1287775D02*
Y-301752D01*
X1295393D01*
X1297932Y-299213D01*
Y-296674D01*
X1295393Y-294135D01*
X1287775D01*
X1295393D01*
X1297932Y-291595D01*
Y-289056D01*
X1295393Y-286517D01*
X1287775D01*
X1303010D02*
X1313167Y-301752D01*
Y-286517D02*
X1303010Y-301752D01*
X1318245Y-286517D02*
Y-301752D01*
Y-294135D01*
X1328402D01*
Y-286517D01*
Y-301752D01*
X1343637Y-286517D02*
X1338559Y-289056D01*
X1333480Y-294135D01*
Y-299213D01*
X1336019Y-301752D01*
X1341098D01*
X1343637Y-299213D01*
Y-296674D01*
X1341098Y-294135D01*
X1333480D01*
X1348715Y-289056D02*
X1351254Y-286517D01*
X1356333D01*
X1358872Y-289056D01*
Y-299213D01*
X1356333Y-301752D01*
X1351254D01*
X1348715Y-299213D01*
Y-289056D01*
X1363950Y-294135D02*
X1374107D01*
X1379185Y-289056D02*
X1381725Y-286517D01*
X1386803D01*
X1389342Y-289056D01*
Y-299213D01*
X1386803Y-301752D01*
X1381725D01*
X1379185Y-299213D01*
Y-289056D01*
X1394421D02*
X1396960Y-286517D01*
X1402038D01*
X1404577Y-289056D01*
Y-299213D01*
X1402038Y-301752D01*
X1396960D01*
X1394421Y-299213D01*
Y-289056D01*
X1409656D02*
X1412195Y-286517D01*
X1417273D01*
X1419812Y-289056D01*
Y-299213D01*
X1417273Y-301752D01*
X1412195D01*
X1409656Y-299213D01*
Y-289056D01*
X1424891D02*
X1427430Y-286517D01*
X1432508D01*
X1435047Y-289056D01*
Y-299213D01*
X1432508Y-301752D01*
X1427430D01*
X1424891Y-299213D01*
Y-289056D01*
X1440126Y-286517D02*
X1450282D01*
Y-289056D01*
X1440126Y-299213D01*
Y-301752D01*
X1455361Y-286517D02*
X1465518D01*
Y-289056D01*
X1455361Y-299213D01*
Y-301752D01*
X1470596Y-289056D02*
X1473135Y-286517D01*
X1478214D01*
X1480753Y-289056D01*
Y-291595D01*
X1478214Y-294135D01*
X1480753Y-296674D01*
Y-299213D01*
X1478214Y-301752D01*
X1473135D01*
X1470596Y-299213D01*
Y-296674D01*
X1473135Y-294135D01*
X1470596Y-291595D01*
Y-289056D01*
X1473135Y-294135D02*
X1478214D01*
X1712802Y-213704D02*
X1709417Y-210319D01*
X1702646D01*
X1699260Y-213704D01*
Y-227246D01*
X1702646Y-230632D01*
X1709417D01*
X1712802Y-227246D01*
X1733116Y-230632D02*
X1719573D01*
X1733116Y-217090D01*
Y-213704D01*
X1729730Y-210319D01*
X1722959D01*
X1719573Y-213704D01*
X1739887Y-230632D02*
X1746658D01*
X1743272D01*
Y-210319D01*
X1739887Y-213704D01*
X1756815D02*
X1760200Y-210319D01*
X1766971D01*
X1770357Y-213704D01*
Y-227246D01*
X1766971Y-230632D01*
X1760200D01*
X1756815Y-227246D01*
Y-213704D01*
X2193840Y-229422D02*
Y-209109D01*
X2203997D01*
X2207382Y-212494D01*
Y-219265D01*
X2203997Y-222651D01*
X2193840D01*
X2200611D02*
X2207382Y-229422D01*
X2224310D02*
X2217539D01*
X2214153Y-226036D01*
Y-219265D01*
X2217539Y-215880D01*
X2224310D01*
X2227696Y-219265D01*
Y-222651D01*
X2214153D01*
X2234467Y-215880D02*
X2241238Y-229422D01*
X2248009Y-215880D01*
X2275094Y-209109D02*
Y-229422D01*
X2285250D01*
X2288636Y-226036D01*
Y-212494D01*
X2285250Y-209109D01*
X2275094D01*
X1699260Y-149359D02*
X1712802Y-169672D01*
Y-149359D02*
X1699260Y-169672D01*
X1719573D02*
Y-149359D01*
X1729730D01*
X1733116Y-152744D01*
Y-159515D01*
X1729730Y-162901D01*
X1719573D01*
X1739887Y-149359D02*
Y-169672D01*
X1753429D01*
X1760200D02*
Y-149359D01*
X1770357D01*
X1773743Y-152744D01*
Y-159515D01*
X1770357Y-162901D01*
X1760200D01*
X1766971D02*
X1773743Y-169672D01*
X1780514Y-159515D02*
X1794056D01*
X1800827Y-149359D02*
X1807598D01*
X1804213D01*
Y-169672D01*
X1800827D01*
X1807598D01*
X1827912Y-149359D02*
X1821140D01*
X1817755Y-152744D01*
Y-166286D01*
X1821140Y-169672D01*
X1827912D01*
X1831297Y-166286D01*
Y-152744D01*
X1827912Y-149359D01*
X1838068D02*
X1851611D01*
X1844839D01*
Y-169672D01*
X1858382Y-159515D02*
X1871924D01*
X1878695Y-169672D02*
X1885466D01*
X1882081D01*
Y-149359D01*
X1878695Y-152744D01*
X1332650Y-151898D02*
X1320800D01*
Y-169672D01*
X1332650D01*
X1320800Y-160785D02*
X1326725D01*
X1338574Y-169672D02*
Y-151898D01*
X1344499Y-157823D01*
X1350424Y-151898D01*
Y-169672D01*
X1365236Y-151898D02*
X1359311D01*
X1356349Y-154860D01*
Y-166710D01*
X1359311Y-169672D01*
X1365236D01*
X1368198Y-166710D01*
Y-154860D01*
X1365236Y-151898D01*
X1383010D02*
X1377085D01*
X1374123Y-154860D01*
Y-166710D01*
X1377085Y-169672D01*
X1383010D01*
X1385972Y-166710D01*
Y-154860D01*
X1383010Y-151898D01*
X1277620Y-230632D02*
X1283545D01*
X1280582D01*
Y-212858D01*
X1277620Y-215820D01*
X1292432D02*
X1295394Y-212858D01*
X1301319D01*
X1304281Y-215820D01*
Y-227670D01*
X1301319Y-230632D01*
X1295394D01*
X1292432Y-227670D01*
Y-215820D01*
X1310206Y-230632D02*
X1322056Y-218783D01*
X1327980Y-230632D02*
X1333905D01*
X1330943D01*
Y-212858D01*
X1327980Y-215820D01*
X1342792D02*
X1345755Y-212858D01*
X1351679D01*
X1354642Y-215820D01*
Y-218783D01*
X1351679Y-221745D01*
X1354642Y-224707D01*
Y-227670D01*
X1351679Y-230632D01*
X1345755D01*
X1342792Y-227670D01*
Y-224707D01*
X1345755Y-221745D01*
X1342792Y-218783D01*
Y-215820D01*
X1345755Y-221745D02*
X1351679D01*
X1360567Y-230632D02*
X1372416Y-218783D01*
X1390190Y-230632D02*
X1378341D01*
X1390190Y-218783D01*
Y-215820D01*
X1387228Y-212858D01*
X1381303D01*
X1378341Y-215820D01*
X1396115D02*
X1399077Y-212858D01*
X1405002D01*
X1407965Y-215820D01*
Y-227670D01*
X1405002Y-230632D01*
X1399077D01*
X1396115Y-227670D01*
Y-215820D01*
X1425739Y-230632D02*
X1413889D01*
X1425739Y-218783D01*
Y-215820D01*
X1422776Y-212858D01*
X1416852D01*
X1413889Y-215820D01*
X1443513Y-230632D02*
X1431664D01*
X1443513Y-218783D01*
Y-215820D01*
X1440551Y-212858D01*
X1434626D01*
X1431664Y-215820D01*
X1620517Y-286516D02*
X1617977Y-283977D01*
X1612899D01*
X1610360Y-286516D01*
Y-296673D01*
X1612899Y-299212D01*
X1617977D01*
X1620517Y-296673D01*
X1635752Y-299212D02*
X1625595D01*
X1635752Y-289055D01*
Y-286516D01*
X1633213Y-283977D01*
X1628134D01*
X1625595Y-286516D01*
X1640830Y-299212D02*
X1645909D01*
X1643369D01*
Y-283977D01*
X1640830Y-286516D01*
X1653526D02*
X1656065Y-283977D01*
X1661144D01*
X1663683Y-286516D01*
Y-296673D01*
X1661144Y-299212D01*
X1656065D01*
X1653526Y-296673D01*
Y-286516D01*
X1668761Y-299212D02*
Y-296673D01*
X1671300D01*
Y-299212D01*
X1668761D01*
X1681457D02*
Y-283977D01*
X1689075D01*
X1691614Y-286516D01*
Y-291595D01*
X1689075Y-294134D01*
X1681457D01*
X1706849Y-289055D02*
X1699231D01*
X1696692Y-291595D01*
Y-296673D01*
X1699231Y-299212D01*
X1706849D01*
X1711927Y-283977D02*
Y-299212D01*
X1719545D01*
X1722084Y-296673D01*
Y-294134D01*
Y-291595D01*
X1719545Y-289055D01*
X1711927D01*
X1727162Y-283977D02*
Y-299212D01*
X1734780D01*
X1737319Y-296673D01*
Y-286516D01*
X1734780Y-283977D01*
X1727162D01*
X1744937Y-299212D02*
X1750015D01*
X1752554Y-296673D01*
Y-291595D01*
X1750015Y-289055D01*
X1744937D01*
X1742397Y-291595D01*
Y-296673D01*
X1744937Y-299212D01*
X1767789Y-289055D02*
X1760172D01*
X1757632Y-291595D01*
Y-296673D01*
X1760172Y-299212D01*
X1767789D01*
X924933Y-277057D02*
X923966Y-275123D01*
X922031Y-273188D01*
X920096Y-272220D01*
X916226D01*
X914292Y-273188D01*
X912357Y-275123D01*
X911389Y-277057D01*
X910422Y-279960D01*
Y-284797D01*
X911389Y-287699D01*
X912357Y-289634D01*
X914292Y-291569D01*
X916226Y-292536D01*
X920096D01*
X922031Y-291569D01*
X923966Y-289634D01*
X924933Y-287699D01*
X936445Y-272220D02*
X934510Y-273188D01*
X932576Y-275123D01*
X931608Y-277057D01*
X930641Y-279960D01*
Y-284797D01*
X931608Y-287699D01*
X932576Y-289634D01*
X934510Y-291569D01*
X936445Y-292536D01*
X940315D01*
X942250Y-291569D01*
X944185Y-289634D01*
X945152Y-287699D01*
X946120Y-284797D01*
Y-279960D01*
X945152Y-277057D01*
X944185Y-275123D01*
X942250Y-273188D01*
X940315Y-272220D01*
X936445D01*
X950860D02*
Y-292536D01*
Y-272220D02*
X964404Y-292536D01*
Y-272220D02*
Y-292536D01*
X970014Y-272220D02*
Y-292536D01*
Y-272220D02*
X982591D01*
X970014Y-281894D02*
X977754D01*
X984913Y-272220D02*
Y-292536D01*
X989169Y-272220D02*
Y-292536D01*
Y-272220D02*
X995941D01*
X998843Y-273188D01*
X1000778Y-275123D01*
X1001746Y-277057D01*
X1002713Y-279960D01*
Y-284797D01*
X1001746Y-287699D01*
X1000778Y-289634D01*
X998843Y-291569D01*
X995941Y-292536D01*
X989169D01*
X1019836Y-272220D02*
X1007260D01*
Y-292536D01*
X1019836D01*
X1007260Y-281894D02*
X1014999D01*
X1023222Y-272220D02*
Y-292536D01*
Y-272220D02*
X1036766Y-292536D01*
Y-272220D02*
Y-292536D01*
X1049149Y-272220D02*
Y-292536D01*
X1042377Y-272220D02*
X1055921D01*
X1058339D02*
Y-292536D01*
X1078074D02*
X1070335Y-272220D01*
X1062596Y-292536D01*
X1065498Y-285764D02*
X1075172D01*
X1082815Y-272220D02*
Y-292536D01*
X1094424D01*
X2253824Y1552444D02*
X2245360D01*
Y1539748D01*
X2253824D01*
X2245360Y1546096D02*
X2249592D01*
X2258056Y1539748D02*
Y1552444D01*
X2262288Y1548212D01*
X2266520Y1552444D01*
Y1539748D01*
X2277100Y1552444D02*
X2272868D01*
X2270752Y1550328D01*
Y1541864D01*
X2272868Y1539748D01*
X2277100D01*
X2279216Y1541864D01*
Y1550328D01*
X2277100Y1552444D01*
X2289796D02*
X2285564D01*
X2283448Y1550328D01*
Y1541864D01*
X2285564Y1539748D01*
X2289796D01*
X2291912Y1541864D01*
Y1550328D01*
X2289796Y1552444D01*
X2077720D02*
X2086184D01*
Y1550328D01*
X2077720Y1541864D01*
Y1539748D01*
X2090416D02*
X2098880Y1548212D01*
X2103112Y1539748D02*
X2107344D01*
X2105228D01*
Y1552444D01*
X2103112Y1550328D01*
X2113692D02*
X2115808Y1552444D01*
X2120040D01*
X2122156Y1550328D01*
Y1548212D01*
X2120040Y1546096D01*
X2117924D01*
X2120040D01*
X2122156Y1543980D01*
Y1541864D01*
X2120040Y1539748D01*
X2115808D01*
X2113692Y1541864D01*
X2126388Y1539748D02*
X2134852Y1548212D01*
X2147547Y1539748D02*
X2139084D01*
X2147547Y1548212D01*
Y1550328D01*
X2145431Y1552444D01*
X2141199D01*
X2139084Y1550328D01*
X2151779D02*
X2153895Y1552444D01*
X2158127D01*
X2160243Y1550328D01*
Y1541864D01*
X2158127Y1539748D01*
X2153895D01*
X2151779Y1541864D01*
Y1550328D01*
X2172939Y1539748D02*
X2164475D01*
X2172939Y1548212D01*
Y1550328D01*
X2170823Y1552444D01*
X2166591D01*
X2164475Y1550328D01*
X2185635Y1539748D02*
X2177171D01*
X2185635Y1548212D01*
Y1550328D01*
X2183519Y1552444D01*
X2179287D01*
X2177171Y1550328D01*
X1600200Y1552444D02*
X1604432D01*
X1602316D01*
Y1539748D01*
X1600200D01*
X1604432D01*
X1610780D02*
Y1548212D01*
X1617128D01*
X1619244Y1546096D01*
Y1539748D01*
X1623476D02*
X1627708D01*
X1625592D01*
Y1548212D01*
X1623476D01*
X1636172Y1550328D02*
Y1548212D01*
X1634056D01*
X1638288D01*
X1636172D01*
Y1541864D01*
X1638288Y1539748D01*
X1644636D02*
X1648868D01*
X1646752D01*
Y1548212D01*
X1644636D01*
X1657332D02*
X1661564D01*
X1663680Y1546096D01*
Y1539748D01*
X1657332D01*
X1655215Y1541864D01*
X1657332Y1543980D01*
X1663680D01*
X1667911Y1539748D02*
X1672143D01*
X1670027D01*
Y1552444D01*
X1667911D01*
X1691187Y1539748D02*
Y1552444D01*
X1697535D01*
X1699651Y1550328D01*
Y1546096D01*
X1697535Y1543980D01*
X1691187D01*
X1703883Y1548212D02*
Y1539748D01*
Y1543980D01*
X1705999Y1546096D01*
X1708115Y1548212D01*
X1710231D01*
X1718695Y1539748D02*
X1722927D01*
X1725043Y1541864D01*
Y1546096D01*
X1722927Y1548212D01*
X1718695D01*
X1716579Y1546096D01*
Y1541864D01*
X1718695Y1539748D01*
X1737739Y1552444D02*
Y1539748D01*
X1731391D01*
X1729275Y1541864D01*
Y1546096D01*
X1731391Y1548212D01*
X1737739D01*
X1741971D02*
Y1541864D01*
X1744087Y1539748D01*
X1750435D01*
Y1548212D01*
X1763131D02*
X1756783D01*
X1754667Y1546096D01*
Y1541864D01*
X1756783Y1539748D01*
X1763131D01*
X1769478Y1550328D02*
Y1548212D01*
X1767363D01*
X1771595D01*
X1769478D01*
Y1541864D01*
X1771595Y1539748D01*
X1777942D02*
X1782174D01*
X1780058D01*
Y1548212D01*
X1777942D01*
X1790638Y1539748D02*
X1794870D01*
X1796986Y1541864D01*
Y1546096D01*
X1794870Y1548212D01*
X1790638D01*
X1788522Y1546096D01*
Y1541864D01*
X1790638Y1539748D01*
X1801218D02*
Y1548212D01*
X1807566D01*
X1809682Y1546096D01*
Y1539748D01*
X1490980D02*
Y1552444D01*
X1497328D01*
X1499444Y1550328D01*
Y1546096D01*
X1497328Y1543980D01*
X1490980D01*
X1495212D02*
X1499444Y1539748D01*
X1510024D02*
X1505792D01*
X1503676Y1541864D01*
Y1546096D01*
X1505792Y1548212D01*
X1510024D01*
X1512140Y1546096D01*
Y1543980D01*
X1503676D01*
X1516372Y1548212D02*
X1520604Y1539748D01*
X1524836Y1548212D01*
X1550228Y1550328D02*
X1548112Y1552444D01*
X1543880D01*
X1541763Y1550328D01*
Y1541864D01*
X1543880Y1539748D01*
X1548112D01*
X1550228Y1541864D01*
X1490980Y1577848D02*
Y1590544D01*
X1497328D01*
X1499444Y1588428D01*
Y1584196D01*
X1497328Y1582080D01*
X1490980D01*
X1495212D02*
X1499444Y1577848D01*
X1510024D02*
X1505792D01*
X1503676Y1579964D01*
Y1584196D01*
X1505792Y1586312D01*
X1510024D01*
X1512140Y1584196D01*
Y1582080D01*
X1503676D01*
X1516372Y1586312D02*
X1520604Y1577848D01*
X1524836Y1586312D01*
X1541763Y1590544D02*
Y1577848D01*
X1548112D01*
X1550228Y1579964D01*
Y1582080D01*
X1548112Y1584196D01*
X1541763D01*
X1548112D01*
X1550228Y1586312D01*
Y1588428D01*
X1548112Y1590544D01*
X1541763D01*
X1608664D02*
X1600200D01*
Y1577848D01*
X1608664D01*
X1600200Y1584196D02*
X1604432D01*
X1612896Y1577848D02*
Y1586312D01*
X1619244D01*
X1621360Y1584196D01*
Y1577848D01*
X1629824Y1573616D02*
X1631940D01*
X1634056Y1575732D01*
Y1586312D01*
X1627708D01*
X1625592Y1584196D01*
Y1579964D01*
X1627708Y1577848D01*
X1634056D01*
X1638288D02*
X1642520D01*
X1640404D01*
Y1586312D01*
X1638288D01*
X1648868Y1577848D02*
Y1586312D01*
X1655215D01*
X1657332Y1584196D01*
Y1577848D01*
X1667911D02*
X1663679D01*
X1661564Y1579964D01*
Y1584196D01*
X1663679Y1586312D01*
X1667911D01*
X1670027Y1584196D01*
Y1582080D01*
X1661564D01*
X1680607Y1577848D02*
X1676375D01*
X1674259Y1579964D01*
Y1584196D01*
X1676375Y1586312D01*
X1680607D01*
X1682723Y1584196D01*
Y1582080D01*
X1674259D01*
X1686955Y1586312D02*
Y1577848D01*
Y1582080D01*
X1689071Y1584196D01*
X1691187Y1586312D01*
X1693303D01*
X1699651Y1577848D02*
X1703883D01*
X1701767D01*
Y1586312D01*
X1699651D01*
X1710231Y1577848D02*
Y1586312D01*
X1716579D01*
X1718695Y1584196D01*
Y1577848D01*
X1727159Y1573616D02*
X1729275D01*
X1731391Y1575732D01*
Y1586312D01*
X1725043D01*
X1722927Y1584196D01*
Y1579964D01*
X1725043Y1577848D01*
X1731391D01*
X1756783Y1588428D02*
X1754667Y1590544D01*
X1750435D01*
X1748319Y1588428D01*
Y1586312D01*
X1750435Y1584196D01*
X1754667D01*
X1756783Y1582080D01*
Y1579964D01*
X1754667Y1577848D01*
X1750435D01*
X1748319Y1579964D01*
X1763130Y1586312D02*
X1767363D01*
X1769478Y1584196D01*
Y1577848D01*
X1763130D01*
X1761015Y1579964D01*
X1763130Y1582080D01*
X1769478D01*
X1773710Y1577848D02*
Y1586312D01*
X1775826D01*
X1777942Y1584196D01*
Y1577848D01*
Y1584196D01*
X1780058Y1586312D01*
X1782174Y1584196D01*
Y1577848D01*
X1786406Y1573616D02*
Y1586312D01*
X1792754D01*
X1794870Y1584196D01*
Y1579964D01*
X1792754Y1577848D01*
X1786406D01*
X1799102D02*
X1803334D01*
X1801218D01*
Y1590544D01*
X1799102D01*
X1816030Y1577848D02*
X1811798D01*
X1809682Y1579964D01*
Y1584196D01*
X1811798Y1586312D01*
X1816030D01*
X1818146Y1584196D01*
Y1582080D01*
X1809682D01*
X2077720Y1579964D02*
X2079836Y1577848D01*
X2084068D01*
X2086184Y1579964D01*
Y1588428D01*
X2084068Y1590544D01*
X2079836D01*
X2077720Y1588428D01*
Y1586312D01*
X2079836Y1584196D01*
X2086184D01*
X2090416Y1577848D02*
X2098880Y1586312D01*
X2103112Y1577848D02*
X2107344D01*
X2105228D01*
Y1590544D01*
X2103112Y1588428D01*
X2122156Y1590544D02*
X2117924Y1588428D01*
X2113692Y1584196D01*
Y1579964D01*
X2115808Y1577848D01*
X2120040D01*
X2122156Y1579964D01*
Y1582080D01*
X2120040Y1584196D01*
X2113692D01*
X2126388Y1577848D02*
X2134852Y1586312D01*
X2147547Y1577848D02*
X2139084D01*
X2147547Y1586312D01*
Y1588428D01*
X2145431Y1590544D01*
X2141199D01*
X2139084Y1588428D01*
X2151779D02*
X2153895Y1590544D01*
X2158127D01*
X2160243Y1588428D01*
Y1579964D01*
X2158127Y1577848D01*
X2153895D01*
X2151779Y1579964D01*
Y1588428D01*
X2172939Y1577848D02*
X2164475D01*
X2172939Y1586312D01*
Y1588428D01*
X2170823Y1590544D01*
X2166591D01*
X2164475Y1588428D01*
X2177171Y1577848D02*
X2181403D01*
X2179287D01*
Y1590544D01*
X2177171Y1588428D01*
X2253824Y1590544D02*
X2245360D01*
Y1577848D01*
X2253824D01*
X2245360Y1584196D02*
X2249592D01*
X2258056Y1577848D02*
Y1590544D01*
X2262288Y1586312D01*
X2266520Y1590544D01*
Y1577848D01*
X2277100Y1590544D02*
X2272868D01*
X2270752Y1588428D01*
Y1579964D01*
X2272868Y1577848D01*
X2277100D01*
X2279216Y1579964D01*
Y1588428D01*
X2277100Y1590544D01*
X2289796D02*
X2285564D01*
X2283448Y1588428D01*
Y1579964D01*
X2285564Y1577848D01*
X2289796D01*
X2291912Y1579964D01*
Y1588428D01*
X2289796Y1590544D01*
X2253824Y1628644D02*
X2245360D01*
Y1615948D01*
X2253824D01*
X2245360Y1622296D02*
X2249592D01*
X2258056Y1615948D02*
Y1628644D01*
X2262288Y1624412D01*
X2266520Y1628644D01*
Y1615948D01*
X2277100Y1628644D02*
X2272868D01*
X2270752Y1626528D01*
Y1618064D01*
X2272868Y1615948D01*
X2277100D01*
X2279216Y1618064D01*
Y1626528D01*
X2277100Y1628644D01*
X2289796D02*
X2285564D01*
X2283448Y1626528D01*
Y1618064D01*
X2285564Y1615948D01*
X2289796D01*
X2291912Y1618064D01*
Y1626528D01*
X2289796Y1628644D01*
X2086184Y1626104D02*
X2077720D01*
Y1619756D01*
X2081952Y1621872D01*
X2084068D01*
X2086184Y1619756D01*
Y1615524D01*
X2084068Y1613408D01*
X2079836D01*
X2077720Y1615524D01*
X2090416Y1613408D02*
X2098880Y1621872D01*
X2109460Y1613408D02*
Y1626104D01*
X2103112Y1619756D01*
X2111576D01*
X2115808Y1613408D02*
X2124272Y1621872D01*
X2136967Y1613408D02*
X2128504D01*
X2136967Y1621872D01*
Y1623988D01*
X2134852Y1626104D01*
X2130620D01*
X2128504Y1623988D01*
X2141199D02*
X2143315Y1626104D01*
X2147547D01*
X2149663Y1623988D01*
Y1615524D01*
X2147547Y1613408D01*
X2143315D01*
X2141199Y1615524D01*
Y1623988D01*
X2162359Y1613408D02*
X2153895D01*
X2162359Y1621872D01*
Y1623988D01*
X2160243Y1626104D01*
X2156011D01*
X2153895Y1623988D01*
X2166591Y1613408D02*
X2170823D01*
X2168707D01*
Y1626104D01*
X2166591Y1623988D01*
X1600200Y1615948D02*
Y1628644D01*
X1606548D01*
X1608664Y1626528D01*
Y1622296D01*
X1606548Y1620180D01*
X1600200D01*
X1612896Y1624412D02*
Y1615948D01*
Y1620180D01*
X1615012Y1622296D01*
X1617128Y1624412D01*
X1619244D01*
X1627708Y1615948D02*
X1631940D01*
X1634056Y1618064D01*
Y1622296D01*
X1631940Y1624412D01*
X1627708D01*
X1625592Y1622296D01*
Y1618064D01*
X1627708Y1615948D01*
X1640404Y1626528D02*
Y1624412D01*
X1638288D01*
X1642520D01*
X1640404D01*
Y1618064D01*
X1642520Y1615948D01*
X1650983D02*
X1655215D01*
X1657332Y1618064D01*
Y1622296D01*
X1655215Y1624412D01*
X1650983D01*
X1648868Y1622296D01*
Y1618064D01*
X1650983Y1615948D01*
X1663679Y1626528D02*
Y1624412D01*
X1661564D01*
X1665795D01*
X1663679D01*
Y1618064D01*
X1665795Y1615948D01*
X1672143Y1624412D02*
Y1618064D01*
X1674259Y1615948D01*
X1680607D01*
Y1613832D01*
X1678491Y1611716D01*
X1676375D01*
X1680607Y1615948D02*
Y1624412D01*
X1684839Y1611716D02*
Y1624412D01*
X1691187D01*
X1693303Y1622296D01*
Y1618064D01*
X1691187Y1615948D01*
X1684839D01*
X1703883D02*
X1699651D01*
X1697535Y1618064D01*
Y1622296D01*
X1699651Y1624412D01*
X1703883D01*
X1705999Y1622296D01*
Y1620180D01*
X1697535D01*
X1722927Y1615948D02*
Y1628644D01*
X1729275D01*
X1731391Y1626528D01*
Y1622296D01*
X1729275Y1620180D01*
X1722927D01*
X1727159D02*
X1731391Y1615948D01*
X1741971D02*
X1737739D01*
X1735623Y1618064D01*
Y1622296D01*
X1737739Y1624412D01*
X1741971D01*
X1744087Y1622296D01*
Y1620180D01*
X1735623D01*
X1748319Y1615948D02*
X1752551D01*
X1750435D01*
Y1628644D01*
X1748319D01*
X1765246Y1615948D02*
X1761015D01*
X1758899Y1618064D01*
Y1622296D01*
X1761015Y1624412D01*
X1765246D01*
X1767363Y1622296D01*
Y1620180D01*
X1758899D01*
X1773710Y1624412D02*
X1777942D01*
X1780058Y1622296D01*
Y1615948D01*
X1773710D01*
X1771595Y1618064D01*
X1773710Y1620180D01*
X1780058D01*
X1784290Y1615948D02*
X1790638D01*
X1792754Y1618064D01*
X1790638Y1620180D01*
X1786406D01*
X1784290Y1622296D01*
X1786406Y1624412D01*
X1792754D01*
X1803334Y1615948D02*
X1799102D01*
X1796986Y1618064D01*
Y1622296D01*
X1799102Y1624412D01*
X1803334D01*
X1805450Y1622296D01*
Y1620180D01*
X1796986D01*
X1490980Y1615948D02*
Y1628644D01*
X1497328D01*
X1499444Y1626528D01*
Y1622296D01*
X1497328Y1620180D01*
X1490980D01*
X1495212D02*
X1499444Y1615948D01*
X1510024D02*
X1505792D01*
X1503676Y1618064D01*
Y1622296D01*
X1505792Y1624412D01*
X1510024D01*
X1512140Y1622296D01*
Y1620180D01*
X1503676D01*
X1516372Y1624412D02*
X1520604Y1615948D01*
X1524836Y1624412D01*
X1541763Y1615948D02*
Y1624412D01*
X1545995Y1628644D01*
X1550228Y1624412D01*
Y1615948D01*
Y1622296D01*
X1541763D01*
X2258060Y1669283D02*
Y1654048D01*
X2265677D01*
X2268217Y1656587D01*
Y1659126D01*
X2265677Y1661665D01*
X2258060D01*
X2265677D01*
X2268217Y1664205D01*
Y1666744D01*
X2265677Y1669283D01*
X2258060D01*
X2273295D02*
Y1666744D01*
X2278373Y1661665D01*
X2283452Y1666744D01*
Y1669283D01*
X2278373Y1661665D02*
Y1654048D01*
X2098040Y1669283D02*
Y1654048D01*
X2105658D01*
X2108197Y1656587D01*
Y1666744D01*
X2105658Y1669283D01*
X2098040D01*
X2113275Y1654048D02*
Y1664205D01*
X2118353Y1669283D01*
X2123432Y1664205D01*
Y1654048D01*
Y1661665D01*
X2113275D01*
X2128510Y1669283D02*
X2138667D01*
X2133589D01*
Y1654048D01*
X2153902Y1669283D02*
X2143745D01*
Y1654048D01*
X2153902D01*
X2143745Y1661665D02*
X2148824D01*
X1600200Y1669283D02*
Y1654048D01*
X1607818D01*
X1610357Y1656587D01*
Y1666744D01*
X1607818Y1669283D01*
X1600200D01*
X1625592D02*
X1615435D01*
Y1654048D01*
X1625592D01*
X1615435Y1661665D02*
X1620513D01*
X1640827Y1666744D02*
X1638288Y1669283D01*
X1633209D01*
X1630670Y1666744D01*
Y1664205D01*
X1633209Y1661665D01*
X1638288D01*
X1640827Y1659126D01*
Y1656587D01*
X1638288Y1654048D01*
X1633209D01*
X1630670Y1656587D01*
X1656062Y1666744D02*
X1653523Y1669283D01*
X1648444D01*
X1645905Y1666744D01*
Y1656587D01*
X1648444Y1654048D01*
X1653523D01*
X1656062Y1656587D01*
X1661140Y1654048D02*
Y1669283D01*
X1668758D01*
X1671297Y1666744D01*
Y1661665D01*
X1668758Y1659126D01*
X1661140D01*
X1666219D02*
X1671297Y1654048D01*
X1676375Y1669283D02*
X1681454D01*
X1678914D01*
Y1654048D01*
X1676375D01*
X1681454D01*
X1689071D02*
Y1669283D01*
X1696689D01*
X1699228Y1666744D01*
Y1661665D01*
X1696689Y1659126D01*
X1689071D01*
X1704306Y1669283D02*
X1714463D01*
X1709385D01*
Y1654048D01*
X1719541Y1669283D02*
X1724620D01*
X1722081D01*
Y1654048D01*
X1719541D01*
X1724620D01*
X1739855Y1669283D02*
X1734776D01*
X1732237Y1666744D01*
Y1656587D01*
X1734776Y1654048D01*
X1739855D01*
X1742394Y1656587D01*
Y1666744D01*
X1739855Y1669283D01*
X1747472Y1654048D02*
Y1669283D01*
X1757629Y1654048D01*
Y1669283D01*
X1490980Y1654048D02*
Y1669283D01*
X1498598D01*
X1501137Y1666744D01*
Y1661665D01*
X1498598Y1659126D01*
X1490980D01*
X1496058D02*
X1501137Y1654048D01*
X1516372Y1669283D02*
X1506215D01*
Y1654048D01*
X1516372D01*
X1506215Y1661665D02*
X1511293D01*
X1521450Y1669283D02*
Y1659126D01*
X1526528Y1654048D01*
X1531607Y1659126D01*
Y1669283D01*
X1849120Y1697228D02*
Y1717541D01*
X1859277D01*
X1862662Y1714156D01*
Y1707385D01*
X1859277Y1703999D01*
X1849120D01*
X1855891D02*
X1862662Y1697228D01*
X1882976Y1717541D02*
X1869433D01*
Y1697228D01*
X1882976D01*
X1869433Y1707385D02*
X1876205D01*
X1889747Y1717541D02*
Y1703999D01*
X1896518Y1697228D01*
X1903289Y1703999D01*
Y1717541D01*
X1910060D02*
X1916831D01*
X1913446D01*
Y1697228D01*
X1910060D01*
X1916831D01*
X1940530Y1714156D02*
X1937145Y1717541D01*
X1930374D01*
X1926988Y1714156D01*
Y1710770D01*
X1930374Y1707385D01*
X1937145D01*
X1940530Y1703999D01*
Y1700614D01*
X1937145Y1697228D01*
X1930374D01*
X1926988Y1700614D01*
X1947301Y1717541D02*
X1954073D01*
X1950687D01*
Y1697228D01*
X1947301D01*
X1954073D01*
X1974386Y1717541D02*
X1967615D01*
X1964229Y1714156D01*
Y1700614D01*
X1967615Y1697228D01*
X1974386D01*
X1977772Y1700614D01*
Y1714156D01*
X1974386Y1717541D01*
X1984543Y1697228D02*
Y1717541D01*
X1998085Y1697228D01*
Y1717541D01*
D16*
X11500Y1098300D02*
G03*
X11500Y1098300I-1000J0D01*
G01*
X2045134Y510915D02*
X2278814D01*
X2045134Y486785D02*
Y510915D01*
Y486785D02*
X2278814D01*
Y510915D01*
D17*
X622132Y497250D02*
G03*
X622132Y497250I-250J0D01*
G01*
X471750Y321668D02*
G03*
X471750Y321668I-250J0D01*
G01*
X580205Y669216D02*
G03*
X580205Y669216I-100J0D01*
G01*
X474100Y418922D02*
G03*
X474100Y418922I-100J0D01*
G01*
X60860Y873906D02*
G03*
X60860Y873906I-250J0D01*
G01*
X391037Y631750D02*
G03*
X391037Y631750I-250J0D01*
G01*
X395915Y590807D02*
G03*
X395915Y590807I-250J0D01*
G01*
X521750Y499250D02*
G03*
X521750Y499250I-250J0D01*
G01*
X549750Y513000D02*
G03*
X549750Y513000I-250J0D01*
G01*
X580632Y512783D02*
G03*
X580632Y512783I-250J0D01*
G01*
X295500Y46959D02*
X374750D01*
X295500Y-9797D02*
Y46959D01*
X374750Y-9797D02*
Y46959D01*
X295500Y-9797D02*
X374750D01*
X535750Y856250D02*
Y956250D01*
X675750D01*
Y856250D02*
Y956250D01*
X535750Y856250D02*
X675750D01*
D25*
X2069264Y498850D02*
D03*
D26*
X2057834Y694045D02*
Y673729D01*
X2069443D01*
X2087147D02*
X2079407Y694045D01*
X2071668Y673729D01*
X2074570Y680501D02*
X2084244D01*
X2091887Y694045D02*
X2099626Y684370D01*
Y673729D01*
X2107366Y694045D02*
X2099626Y684370D01*
X2122554Y694045D02*
X2109978D01*
Y673729D01*
X2122554D01*
X2109978Y684370D02*
X2117717D01*
X2125940Y694045D02*
Y673729D01*
Y694045D02*
X2134647D01*
X2137549Y693077D01*
X2138516Y692110D01*
X2139484Y690175D01*
Y688240D01*
X2138516Y686305D01*
X2137549Y685338D01*
X2134647Y684370D01*
X2125940D01*
X2132712D02*
X2139484Y673729D01*
X2159993Y694045D02*
Y679533D01*
X2160960Y676631D01*
X2162895Y674696D01*
X2165797Y673729D01*
X2167732D01*
X2170634Y674696D01*
X2172569Y676631D01*
X2173537Y679533D01*
Y694045D01*
X2192691Y691142D02*
X2190757Y693077D01*
X2187854Y694045D01*
X2183985D01*
X2181082Y693077D01*
X2179147Y691142D01*
Y689208D01*
X2180115Y687273D01*
X2181082Y686305D01*
X2183017Y685338D01*
X2188822Y683403D01*
X2190757Y682436D01*
X2191724Y681468D01*
X2192691Y679533D01*
Y676631D01*
X2190757Y674696D01*
X2187854Y673729D01*
X2183985D01*
X2181082Y674696D01*
X2179147Y676631D01*
X2212717Y673729D02*
X2204977Y694045D01*
X2197238Y673729D01*
X2200140Y680501D02*
X2209814D01*
X2231968Y689208D02*
X2231001Y691142D01*
X2229066Y693077D01*
X2227131Y694045D01*
X2223262D01*
X2221327Y693077D01*
X2219392Y691142D01*
X2218424Y689208D01*
X2217457Y686305D01*
Y681468D01*
X2218424Y678566D01*
X2219392Y676631D01*
X2221327Y674696D01*
X2223262Y673729D01*
X2227131D01*
X2229066Y674696D01*
X2231001Y676631D01*
X2231968Y678566D01*
Y681468D01*
X2227131D02*
X2231968D01*
X2249188Y694045D02*
X2236612D01*
Y673729D01*
X2249188D01*
X2236612Y684370D02*
X2244351D01*
D27*
X2207200Y-300390D02*
X2211432D01*
X2209316D01*
Y-287694D01*
X2207200Y-289810D01*
X2217780Y-291926D02*
X2219896D01*
Y-294042D01*
X2217780D01*
Y-291926D01*
Y-298274D02*
X2219896D01*
Y-300390D01*
X2217780D01*
Y-298274D01*
X2228360Y-300390D02*
X2232592D01*
X2230476D01*
Y-287694D01*
X2228360Y-289810D01*
X2363410Y-102528D02*
Y-120304D01*
Y-102528D02*
X2369335D01*
X2371875Y-103374D01*
X2373568Y-105067D01*
X2374414Y-106760D01*
X2375261Y-109300D01*
Y-113532D01*
X2374414Y-116072D01*
X2373568Y-117765D01*
X2371875Y-119458D01*
X2369335Y-120304D01*
X2363410D01*
X2376107Y431720D02*
X2375261Y433413D01*
X2373568Y435106D01*
X2371875Y435952D01*
X2368489D01*
X2366796Y435106D01*
X2365103Y433413D01*
X2364256Y431720D01*
X2363410Y429180D01*
Y424948D01*
X2364256Y422408D01*
X2365103Y420715D01*
X2366796Y419022D01*
X2368489Y418176D01*
X2371875D01*
X2373568Y419022D01*
X2375261Y420715D01*
X2376107Y422408D01*
X2363410Y975702D02*
Y957926D01*
Y975702D02*
X2371028D01*
X2373568Y974856D01*
X2374414Y974009D01*
X2375261Y972316D01*
Y970623D01*
X2374414Y968930D01*
X2373568Y968084D01*
X2371028Y967237D01*
X2363410D02*
X2371028D01*
X2373568Y966391D01*
X2374414Y965544D01*
X2375261Y963851D01*
Y961312D01*
X2374414Y959619D01*
X2373568Y958773D01*
X2371028Y957926D01*
X2363410D01*
X2376954Y1497676D02*
X2370182Y1515452D01*
X2363410Y1497676D01*
X2365950Y1503601D02*
X2374414D01*
X2047520Y1774024D02*
X2039055Y1762173D01*
X2051752D01*
X2047520Y1774024D02*
Y1756248D01*
X1341991Y1774024D02*
X1351302D01*
X1346223Y1767252D01*
X1348763D01*
X1350456Y1766406D01*
X1351302Y1765559D01*
X1352149Y1763020D01*
Y1761327D01*
X1351302Y1758788D01*
X1349609Y1757095D01*
X1347070Y1756248D01*
X1344530D01*
X1341991Y1757095D01*
X1341145Y1757941D01*
X1340298Y1759634D01*
X643914Y1769792D02*
Y1770638D01*
X644761Y1772331D01*
X645608Y1773178D01*
X647300Y1774024D01*
X650686D01*
X652379Y1773178D01*
X653226Y1772331D01*
X654072Y1770638D01*
Y1768945D01*
X653226Y1767252D01*
X651533Y1764713D01*
X643068Y1756248D01*
X654919D01*
X-55600Y1770638D02*
X-53907Y1771485D01*
X-51368Y1774024D01*
Y1756248D01*
X2047520Y-334176D02*
X2039055Y-346027D01*
X2051752D01*
X2047520Y-334176D02*
Y-351952D01*
X1341991Y-334176D02*
X1351302D01*
X1346223Y-340948D01*
X1348763D01*
X1350456Y-341794D01*
X1351302Y-342641D01*
X1352149Y-345180D01*
Y-346873D01*
X1351302Y-349412D01*
X1349609Y-351105D01*
X1347070Y-351952D01*
X1344530D01*
X1341991Y-351105D01*
X1341145Y-350259D01*
X1340298Y-348566D01*
X643914Y-338408D02*
Y-337562D01*
X644761Y-335869D01*
X645608Y-335022D01*
X647300Y-334176D01*
X650686D01*
X652379Y-335022D01*
X653226Y-335869D01*
X654072Y-337562D01*
Y-339255D01*
X653226Y-340948D01*
X651533Y-343487D01*
X643068Y-351952D01*
X654919D01*
X-55600Y-337562D02*
X-53907Y-336715D01*
X-51368Y-334176D01*
Y-351952D01*
X-379790Y-102528D02*
Y-120304D01*
Y-102528D02*
X-373865D01*
X-371325Y-103374D01*
X-369632Y-105067D01*
X-368786Y-106760D01*
X-367939Y-109300D01*
Y-113532D01*
X-368786Y-116072D01*
X-369632Y-117765D01*
X-371325Y-119458D01*
X-373865Y-120304D01*
X-379790D01*
X-367093Y431720D02*
X-367939Y433413D01*
X-369632Y435106D01*
X-371325Y435952D01*
X-374711D01*
X-376404Y435106D01*
X-378097Y433413D01*
X-378943Y431720D01*
X-379790Y429180D01*
Y424948D01*
X-378943Y422408D01*
X-378097Y420715D01*
X-376404Y419022D01*
X-374711Y418176D01*
X-371325D01*
X-369632Y419022D01*
X-367939Y420715D01*
X-367093Y422408D01*
X-379790Y975702D02*
Y957926D01*
Y975702D02*
X-372172D01*
X-369632Y974856D01*
X-368786Y974009D01*
X-367939Y972316D01*
Y970623D01*
X-368786Y968930D01*
X-369632Y968084D01*
X-372172Y967237D01*
X-379790D02*
X-372172D01*
X-369632Y966391D01*
X-368786Y965544D01*
X-367939Y963851D01*
Y961312D01*
X-368786Y959619D01*
X-369632Y958773D01*
X-372172Y957926D01*
X-379790D01*
X-366246Y1497676D02*
X-373018Y1515452D01*
X-379790Y1497676D01*
X-377251Y1503601D02*
X-368786D01*
D297*
X568681Y266268D02*
X619481D01*
X568681D02*
Y342468D01*
X619481D01*
X474600Y131650D02*
X525400D01*
X474600D02*
Y207850D01*
X525400D01*
X530850Y845506D02*
X581650D01*
X530850Y769306D02*
Y845506D01*
Y769306D02*
X581650D01*
X14949Y380685D02*
X65749D01*
X14949D02*
Y456885D01*
X65750D01*
X336350Y805886D02*
X387150D01*
X336350Y729686D02*
Y805886D01*
Y729686D02*
X387150D01*
D325*
X31113Y957000D02*
G03*
X31113Y957000I-100J0D01*
G01*
X99198Y649540D02*
G03*
X99198Y649540I-2652J0D01*
G01*
X64351Y1037250D02*
G03*
X64351Y1037250I-1601J0D01*
G01*
X436000Y815000D02*
G03*
X436000Y815000I-6000J0D01*
G01*
X262700Y26900D02*
G03*
X269050Y33250I0J6350D01*
G01*
X230950D02*
G03*
X237300Y26900I6350J0D01*
G01*
X255080Y100560D02*
G03*
X244920Y100560I-5080J-3810D01*
G01*
X269050Y77700D02*
G03*
X267780Y81510I-6350J0D01*
G01*
X232220D02*
G03*
X230950Y77700I5080J-3810D01*
G01*
X448190Y386350D02*
G03*
X448190Y386350I-1250J0D01*
G01*
X512042Y439328D02*
G03*
X512042Y439328I-250J0D01*
G01*
X260475Y741577D02*
G03*
X260475Y741577I-339J0D01*
G01*
X167589Y455121D02*
G03*
X167589Y455121I-339J0D01*
G01*
X545115Y630554D02*
G03*
X545115Y630554I-1250J0D01*
G01*
X244973Y829000D02*
G03*
X244973Y829000I-2000J0D01*
G01*
X393085Y429225D02*
G03*
X393085Y430639I707J707D01*
G01*
X347101Y207750D02*
G03*
X347101Y207750I-1601J0D01*
G01*
X271851Y185250D02*
G03*
X271851Y185250I-1601J0D01*
G01*
X405351Y215650D02*
G03*
X405351Y215650I-1601J0D01*
G01*
X437014Y686250D02*
G03*
X437014Y686250I-2264J0D01*
G01*
X271227Y475035D02*
G03*
X271227Y475035I-6000J0D01*
G01*
X185500Y277805D02*
G03*
X185500Y277805I-6000J0D01*
G01*
X424593Y121000D02*
G03*
X424593Y121000I-6000J0D01*
G01*
X516996Y771054D02*
G03*
X516996Y771054I-6000J0D01*
G01*
X246000Y490000D02*
G03*
X246000Y490000I-6000J0D01*
G01*
X86000Y732500D02*
G03*
X86000Y732500I-6000J0D01*
G01*
X26000Y702500D02*
G03*
X26000Y702500I-6000J0D01*
G01*
Y662500D02*
G03*
X26000Y662500I-6000J0D01*
G01*
Y682500D02*
G03*
X26000Y682500I-6000J0D01*
G01*
X46000Y702500D02*
G03*
X46000Y702500I-6000J0D01*
G01*
X135006Y279805D02*
G03*
X135006Y279805I-1601J0D01*
G01*
X513464Y912342D02*
G03*
X513464Y912342I-1626J0D01*
G01*
X520100Y951310D02*
G03*
X520100Y951310I-1250J0D01*
G01*
X481000Y975000D02*
G03*
X481000Y975000I-6000J0D01*
G01*
X461000D02*
G03*
X461000Y975000I-6000J0D01*
G01*
Y955000D02*
G03*
X461000Y955000I-6000J0D01*
G01*
X481000D02*
G03*
X481000Y955000I-6000J0D01*
G01*
X234715Y470233D02*
G03*
X234715Y470233I-1250J0D01*
G01*
X365810Y632880D02*
G03*
X365810Y632880I-1250J0D01*
G01*
X375015Y717480D02*
G03*
X375015Y717480I-6000J0D01*
G01*
X111000Y240000D02*
G03*
X111000Y240000I-6000J0D01*
G01*
X136000D02*
G03*
X136000Y240000I-6000J0D01*
G01*
X226000Y265000D02*
G03*
X226000Y265000I-6000J0D01*
G01*
X246000Y110000D02*
G03*
X246000Y110000I-6000J0D01*
G01*
X124323Y826310D02*
G03*
X124323Y826310I-1250J0D01*
G01*
X272776Y616685D02*
G03*
X272776Y616685I-1250J0D01*
G01*
X144100Y506771D02*
G03*
X144100Y506771I-1250J0D01*
G01*
X428500Y632500D02*
G03*
X428500Y632500I-6000J0D01*
G01*
X666000Y480000D02*
G03*
X666000Y480000I-6000J0D01*
G01*
Y500000D02*
G03*
X666000Y500000I-6000J0D01*
G01*
X436000Y775000D02*
G03*
X436000Y775000I-6000J0D01*
G01*
Y795000D02*
G03*
X436000Y795000I-6000J0D01*
G01*
X139000Y839797D02*
G03*
X139000Y839797I-6000J0D01*
G01*
X312000Y835815D02*
G03*
X312000Y835815I-6000J0D01*
G01*
X417814Y388000D02*
G03*
X417814Y388000I-6000J0D01*
G01*
X596500Y247250D02*
G03*
X596500Y247250I-6000J0D01*
G01*
X573000Y647900D02*
G03*
X573000Y647900I-6000J0D01*
G01*
X541000Y975000D02*
G03*
X541000Y975000I-6000J0D01*
G01*
X561000D02*
G03*
X561000Y975000I-6000J0D01*
G01*
X521000D02*
G03*
X521000Y975000I-6000J0D01*
G01*
X501000D02*
G03*
X501000Y975000I-6000J0D01*
G01*
X312863Y627557D02*
G03*
X312863Y627557I-2000J0D01*
G01*
X341863Y591167D02*
G03*
X341863Y591167I-2000J0D01*
G01*
X509322Y391643D02*
G03*
X509322Y391643I-1250J0D01*
G01*
X516072Y479143D02*
G03*
X516072Y479143I-1250J0D01*
G01*
X508072Y361393D02*
G03*
X508072Y361393I-1250J0D01*
G01*
X72750Y667827D02*
G03*
X72750Y667827I-2000J0D01*
G01*
X169223Y816500D02*
G03*
X169223Y816500I-2000J0D01*
G01*
X86325Y832253D02*
G03*
X86325Y832253I-1250J0D01*
G01*
X389887Y691690D02*
G03*
X389887Y691690I-1250J0D01*
G01*
X666942Y383443D02*
G03*
X666942Y383443I-1250J0D01*
G01*
X471000Y665000D02*
G03*
X471000Y665000I-6000J0D01*
G01*
X647250Y671466D02*
G03*
X647250Y671466I-6000J0D01*
G01*
X436250Y371537D02*
G03*
X436250Y371537I-6000J0D01*
G01*
X157560Y303705D02*
G03*
X157560Y303705I-1250J0D01*
G01*
X401000Y255000D02*
G03*
X401000Y255000I-6000J0D01*
G01*
X513232Y576758D02*
G03*
X513232Y576758I-1250J0D01*
G01*
Y602310D02*
G03*
X513232Y602310I-1250J0D01*
G01*
X244910Y634072D02*
G03*
X244910Y634072I-1250J0D01*
G01*
X86000Y752500D02*
G03*
X86000Y752500I-6000J0D01*
G01*
X106000Y732500D02*
G03*
X106000Y732500I-6000J0D01*
G01*
Y752500D02*
G03*
X106000Y752500I-6000J0D01*
G01*
X26000Y742500D02*
G03*
X26000Y742500I-6000J0D01*
G01*
X46000D02*
G03*
X46000Y742500I-6000J0D01*
G01*
X66000D02*
G03*
X66000Y742500I-6000J0D01*
G01*
Y722500D02*
G03*
X66000Y722500I-6000J0D01*
G01*
X524060Y284900D02*
G03*
X524060Y284900I-1250J0D01*
G01*
X521400Y266940D02*
G03*
X521400Y266940I-1250J0D01*
G01*
X31000Y345000D02*
G03*
X31000Y345000I-6000J0D01*
G01*
X136000Y110000D02*
G03*
X136000Y110000I-6000J0D01*
G01*
X163500Y150000D02*
G03*
X163500Y150000I-6000J0D01*
G01*
X191000D02*
G03*
X191000Y150000I-6000J0D01*
G01*
X221000Y110000D02*
G03*
X221000Y110000I-6000J0D01*
G01*
X63500Y1015500D02*
G03*
X63500Y1015500I-6000J0D01*
G01*
X610060Y1018650D02*
G03*
X610060Y1018650I-1250J0D01*
G01*
X418605Y426328D02*
G03*
X418605Y426328I-250J0D01*
G01*
X556000Y570000D02*
G03*
X556000Y570000I-6000J0D01*
G01*
X441000Y592500D02*
G03*
X441000Y592500I-6000J0D01*
G01*
X553500Y215000D02*
G03*
X553500Y215000I-6000J0D01*
G01*
X191000Y205000D02*
G03*
X191000Y205000I-6000J0D01*
G01*
X473500Y575000D02*
G03*
X473500Y575000I-6000J0D01*
G01*
Y547500D02*
G03*
X473500Y547500I-6000J0D01*
G01*
Y602500D02*
G03*
X473500Y602500I-6000J0D01*
G01*
X436000Y835000D02*
G03*
X436000Y835000I-6000J0D01*
G01*
X203097Y426914D02*
X203097Y437914D01*
X209097D02*
X209097Y426914D01*
X203097D02*
X209097D01*
X203097Y437914D02*
X209097D01*
X173750Y549500D02*
X173750Y582500D01*
X157750Y549500D02*
Y582500D01*
X173750D01*
X157750Y549500D02*
X173750D01*
X213096Y443164D02*
X213096Y417164D01*
X234096D01*
X234096Y443164D02*
X234096Y417164D01*
X213096Y443164D02*
X234096D01*
X277421Y760489D02*
Y781489D01*
X251421Y760489D02*
X277421D01*
X251421D02*
Y781489D01*
X277421D01*
X29113Y938000D02*
X47113D01*
Y964000D01*
X29113D02*
X47113D01*
X29113Y938000D02*
Y964000D01*
X90850Y642400D02*
Y702400D01*
X140850D01*
Y642400D02*
Y702400D01*
X90850Y642400D02*
X140850D01*
X614882Y514250D02*
X623882D01*
X614882Y495250D02*
Y514250D01*
Y495250D02*
X623882D01*
Y514250D01*
X66250Y1031750D02*
Y1061750D01*
X36250Y1031750D02*
X66250D01*
X36250D02*
Y1061750D01*
X66250D01*
X230950Y33250D02*
Y77700D01*
X269050Y33250D02*
Y77700D01*
X237300Y26900D02*
X262700D01*
X255080Y100560D02*
X267780Y81510D01*
X232220D02*
X244920Y100560D01*
X444500Y371750D02*
X457000Y371750D01*
X444500Y388250D02*
X457000Y388250D01*
Y371750D02*
Y388250D01*
X444500Y371750D02*
X444500Y388250D01*
X520750Y311563D02*
Y328563D01*
X534250D02*
X534250Y311563D01*
X520750Y328563D02*
X534250D01*
X520750Y311563D02*
X534250Y311563D01*
X554250Y732582D02*
Y760582D01*
X583250D01*
Y732582D02*
Y760582D01*
X554250Y732582D02*
X583250D01*
X414500Y716500D02*
Y730500D01*
X384000Y716500D02*
Y730500D01*
X414500Y730500D01*
X384000Y716500D02*
X414500Y716500D01*
X370250Y420293D02*
X370250Y430793D01*
X363750Y430793D02*
X370250Y430793D01*
X363750Y420293D02*
Y430793D01*
Y420293D02*
X370250Y420293D01*
X584500Y1006250D02*
Y1014250D01*
X572500D02*
X584500D01*
X572500Y1006250D02*
Y1014250D01*
Y1006250D02*
X584500D01*
X112051Y264305D02*
Y324305D01*
X62500D02*
X112051D01*
X62500Y264305D02*
Y324305D01*
Y264305D02*
X112051D01*
X510792Y430828D02*
Y440828D01*
X520792D01*
Y430828D02*
Y440828D01*
X510792Y430828D02*
X520792D01*
X640662Y583894D02*
Y605894D01*
X655162Y583894D02*
Y605894D01*
X640662Y583894D02*
X655162D01*
X640662Y605894D02*
X655162D01*
X577975Y643000D02*
Y652500D01*
X594975Y643000D02*
Y652500D01*
X577975D02*
X594975D01*
X577975Y643000D02*
X594975D01*
X335026Y135750D02*
X341026D01*
X335026Y124750D02*
X341026D01*
X341026Y135750D02*
X341026Y124750D01*
X335026D02*
Y135750D01*
X257636Y669077D02*
Y749077D01*
X337636Y669077D02*
Y749077D01*
X257636D02*
X337636D01*
X257636Y669077D02*
X337636D01*
X104750Y456871D02*
X174750D01*
X104750Y386871D02*
X174750D01*
Y456871D01*
X104750Y386871D02*
Y456871D01*
X517004Y626490D02*
Y656940D01*
X547425D01*
X517004Y626490D02*
X547425D01*
Y656940D01*
X246473Y809750D02*
Y835750D01*
X210473Y809750D02*
Y835750D01*
Y809750D02*
X246473D01*
X210473Y835750D02*
X246473D01*
X436500Y424750D02*
X436500Y413750D01*
X422500Y424750D02*
X436500Y424750D01*
X422500Y424750D02*
X422500Y413750D01*
X436500Y413750D01*
X141000Y627500D02*
X148500Y620500D01*
X5500Y627500D02*
X148500D01*
X5500Y523500D02*
Y627500D01*
Y523500D02*
X148500D01*
Y627500D01*
X142750Y661250D02*
Y678250D01*
X151750Y661250D02*
Y678250D01*
X142750Y661250D02*
X151750D01*
X142750Y678250D02*
X151750D01*
X154000Y661250D02*
Y678250D01*
X163000Y661250D02*
Y678250D01*
X154000Y661250D02*
X163000D01*
X154000Y678250D02*
X163000D01*
X328000Y854500D02*
X345000D01*
X328000Y845500D02*
X345000D01*
X328000D02*
Y854500D01*
X345000Y845500D02*
Y854500D01*
X328250Y225000D02*
X348250Y225000D01*
X328250Y225000D02*
X328250Y205000D01*
X348250Y205000D01*
X348250Y225000D02*
X348250Y205000D01*
X287500Y202500D02*
X287500Y182500D01*
X267500Y202500D02*
X287500Y202500D01*
X267500Y202500D02*
X267500Y182500D01*
X287500Y182500D01*
X629500Y540250D02*
Y556250D01*
X621500D02*
X629500D01*
X621500Y540250D02*
Y556250D01*
Y540250D02*
X629500D01*
X622960Y546980D02*
X628040D01*
X625500D02*
X628040Y549520D01*
X622960D02*
X625500Y546980D01*
X622960Y549520D02*
X628040D01*
X405500Y420621D02*
X405500Y431121D01*
X400000Y420621D02*
X400000Y431121D01*
X405500D01*
X400000Y420621D02*
X405500D01*
X368000Y1008500D02*
Y1014000D01*
X357500Y1008500D02*
Y1014000D01*
Y1008500D02*
X368000D01*
X357500Y1014000D02*
X368000D01*
X396000Y193400D02*
X426000D01*
Y223400D01*
X396000D02*
X426000D01*
X396000Y193400D02*
Y223400D01*
X304836Y123631D02*
Y148631D01*
X329836D01*
Y123631D02*
Y148631D01*
X304836Y123631D02*
X329836D01*
X619481Y266268D02*
X619481Y342468D01*
X435370Y351368D02*
X484900D01*
X435370Y325968D02*
Y351368D01*
X484900Y325968D02*
Y351368D01*
X435370Y325968D02*
X484900D01*
X602000Y643557D02*
X636000D01*
X602000Y661057D02*
X636000D01*
Y643557D02*
Y661057D01*
X602000Y643557D02*
Y661057D01*
X168000Y791000D02*
X184250D01*
X168000Y775000D02*
Y791000D01*
Y775000D02*
X184250D01*
Y791000D01*
X530000Y-50000D02*
Y40000D01*
X450000Y-50000D02*
X530000D01*
X450000D02*
Y40000D01*
X421000Y105000D02*
X559000D01*
Y40000D02*
Y105000D01*
X421000Y40000D02*
X559000D01*
X421000D02*
Y105000D01*
X407250Y658750D02*
Y689750D01*
X438250Y658750D02*
Y689750D01*
X407250Y658750D02*
X438250D01*
X407250Y689750D02*
X438250D01*
X349869Y123782D02*
X370189Y123782D01*
X345189Y128462D02*
X349869Y123782D01*
X345189Y148782D02*
X345189Y128462D01*
X345189Y148782D02*
X370189D01*
Y123782D02*
Y148782D01*
X460051Y700480D02*
X487051D01*
X460051Y734480D02*
X487051D01*
X460051Y700480D02*
Y734480D01*
X487051Y700480D02*
Y734480D01*
X322786Y757245D02*
X332286D01*
X322786Y774745D02*
X332286Y774745D01*
X322786Y757245D02*
Y774745D01*
X332286Y757245D02*
X332286Y774745D01*
X341026Y151725D02*
X341026Y140725D01*
X335026D02*
X341026D01*
X335026D02*
X335026Y151725D01*
X341026D01*
X584298Y629422D02*
X604298D01*
X584298Y603422D02*
Y629422D01*
Y603422D02*
X604298D01*
Y629422D01*
X577105Y656216D02*
Y672216D01*
X593105D01*
Y656216D02*
Y672216D01*
X577105Y656216D02*
X593105D01*
X226817Y729782D02*
Y745782D01*
X218817Y729782D02*
Y745782D01*
X226817D01*
X218817Y729782D02*
X226817D01*
X474000Y426700D02*
X478950Y421750D01*
X474000Y416800D02*
X478950Y421750D01*
X469050D02*
X474000Y416800D01*
X469050Y421750D02*
X474000Y426700D01*
X642500Y1020000D02*
Y1060000D01*
X617500Y1060000D02*
X642500Y1060000D01*
X617500Y1020000D02*
X642500Y1020000D01*
X617500Y1060000D02*
X617500Y1048500D01*
X617500Y1020000D02*
X617500Y1031500D01*
X617501Y1031502D01*
X617500Y1048500D02*
X617501Y1031502D01*
X23500Y842000D02*
Y886000D01*
Y842000D02*
X64000D01*
X23500Y886000D02*
X64000D01*
Y842000D02*
Y886000D01*
X249750Y229673D02*
X249750Y259673D01*
X299750Y259673D01*
X299750Y229673D02*
X299750Y259673D01*
X249750Y229673D02*
X299750Y229673D01*
X376500Y61250D02*
Y69250D01*
X360500Y61250D02*
Y69250D01*
Y61250D02*
X376500D01*
X360500Y69250D02*
X376500D01*
X314467Y55500D02*
Y63500D01*
X298467Y55500D02*
Y63500D01*
Y55500D02*
X314467D01*
X298467Y63500D02*
X314467D01*
X291215Y63500D02*
X291215Y52500D01*
X285215D02*
X291215D01*
X285215D02*
X285215Y63500D01*
X291215D01*
X163500Y359796D02*
X169500D01*
X163500Y370796D02*
X169500D01*
X163500D02*
X163500Y359796D01*
X169500D02*
X169500Y370796D01*
X566202Y723881D02*
X566202Y696881D01*
X600202Y723881D02*
X600202Y696881D01*
X566202Y723881D02*
X600202D01*
X566202Y696881D02*
X600202D01*
X127905Y287673D02*
Y293673D01*
Y287673D02*
X138905D01*
Y293673D01*
X127905D02*
X138905D01*
X116925Y271305D02*
X122925D01*
X116925Y260305D02*
X116925Y271305D01*
X116925Y260305D02*
X122925D01*
X122925Y271305D02*
X122925Y260305D01*
X119750Y298990D02*
X125750D01*
X125750Y309990D01*
X119750D02*
X125750D01*
X119750D02*
X119750Y298990D01*
X457539Y114750D02*
X468540Y114750D01*
X457539Y108750D02*
X468540Y108750D01*
X457539Y108750D02*
Y114750D01*
X468540Y108750D02*
Y114750D01*
X457539Y123250D02*
X468540Y123250D01*
X457539Y117250D02*
X468540Y117250D01*
X457539Y117250D02*
Y123250D01*
X468540Y117250D02*
Y123250D01*
X457539Y125750D02*
Y131750D01*
X468540Y125750D02*
Y131750D01*
X457539Y131750D02*
X468540Y131750D01*
X457539Y125750D02*
X468540Y125750D01*
X207000Y78500D02*
X213000D01*
X207000Y67500D02*
Y78500D01*
Y67500D02*
X213000D01*
Y78500D01*
X525400Y131650D02*
X525400Y207850D01*
X222415Y775738D02*
Y791988D01*
X206415D02*
X222415D01*
X206415Y775738D02*
Y791988D01*
Y775738D02*
X222415D01*
X129905Y255305D02*
Y285305D01*
X159905D01*
Y255305D02*
Y285305D01*
X129905Y255305D02*
X159905D01*
X468100Y882750D02*
Y893750D01*
X462100Y882750D02*
Y893750D01*
X468100D01*
X462100Y882750D02*
X468100D01*
X634250Y532858D02*
X640250D01*
X634250Y521858D02*
X640250D01*
X640250Y532858D02*
X640250Y521858D01*
X634250D02*
X634250Y532858D01*
X642250Y532819D02*
X648250D01*
X642250Y521819D02*
X648250D01*
X648250Y532819D02*
X648250Y521819D01*
X642250D02*
X642250Y532819D01*
X612268Y558500D02*
X618269D01*
X612268Y547500D02*
X618269D01*
X618269Y558500D02*
X618269Y547500D01*
X612268D02*
X612268Y558500D01*
X152922Y776073D02*
Y782073D01*
X163922Y776073D02*
Y782073D01*
X152922Y782073D02*
X163922Y782073D01*
X152922Y776073D02*
X163922Y776073D01*
X188500Y775500D02*
X194500D01*
X188500Y786500D02*
X194500D01*
X188500D02*
X188500Y775500D01*
X194500D02*
X194500Y786500D01*
X235750Y774500D02*
Y780500D01*
X224750Y774500D02*
Y780500D01*
Y774500D02*
X235750Y774500D01*
X224750Y780500D02*
X235750Y780500D01*
X197250Y775500D02*
X203250D01*
X197250Y786500D02*
X203250D01*
X197250D02*
X197250Y775500D01*
X203250D02*
X203250Y786500D01*
X165545Y643000D02*
X181545D01*
X165545D02*
Y659250D01*
X181545D01*
Y643000D02*
Y659250D01*
X464750Y898000D02*
Y914250D01*
Y898000D02*
X480750D01*
Y914250D01*
X464750D02*
X480750D01*
X632250Y484750D02*
X648250D01*
Y468500D02*
Y484750D01*
X632250Y468500D02*
X648250D01*
X632250D02*
Y484750D01*
X464310Y868520D02*
X469390D01*
X464310D02*
X466850Y865980D01*
X469390Y868520D01*
X464310Y865980D02*
X469390D01*
X462850Y859250D02*
X470850D01*
X462850D02*
Y875250D01*
X470850D01*
Y859250D02*
Y875250D01*
X641250Y539500D02*
Y556500D01*
X632250Y539500D02*
Y556500D01*
X641250D01*
X632250Y539500D02*
X641250D01*
X644500Y539457D02*
X653500D01*
X644500Y556457D02*
X653500D01*
X644500Y539457D02*
Y556457D01*
X653500Y539457D02*
Y556457D01*
X155750Y764750D02*
X164750D01*
X155750Y747750D02*
X164750D01*
Y764750D01*
X155750Y747750D02*
Y764750D01*
X167000Y747750D02*
Y764750D01*
X176000Y747750D02*
Y764750D01*
X167000Y747750D02*
X176000D01*
X167000Y764750D02*
X176000D01*
X192669Y734544D02*
Y751544D01*
X201669Y734544D02*
Y751544D01*
X192669Y734544D02*
X201669D01*
X192669Y751544D02*
X201669D01*
X204115D02*
X213115D01*
X204115Y734544D02*
X213115D01*
Y751544D01*
X204115Y734544D02*
Y751544D01*
X497750Y877750D02*
X503750D01*
X497750Y888750D02*
X503750D01*
X497750D02*
X497750Y877750D01*
X503750D02*
X503750Y888750D01*
X512250Y877750D02*
X512250Y888750D01*
X506250D02*
X506250Y877750D01*
X506250Y888750D02*
X512250D01*
X506250Y877750D02*
X512250D01*
X497950Y914800D02*
X514550D01*
Y898200D02*
Y914800D01*
X497950Y898200D02*
X514550D01*
X497950D02*
Y914800D01*
X520750Y877750D02*
X520750Y888750D01*
X514750Y877750D02*
X514750Y888750D01*
X520750Y888750D01*
X514750Y877750D02*
X520750D01*
X496028Y960750D02*
X502028D01*
X496028Y949750D02*
X502028D01*
X502028Y960750D02*
X502028Y949750D01*
X496028D02*
X496028Y960750D01*
X504250Y953750D02*
X520750D01*
X504250Y941250D02*
X520750D01*
Y953750D01*
X504250Y941250D02*
Y953750D01*
X474000Y858750D02*
Y875750D01*
X483000Y858750D02*
Y875750D01*
X474000Y858750D02*
X483000D01*
X474000Y875750D02*
X483000D01*
X486250D02*
X495250D01*
X486250Y858750D02*
X495250D01*
Y875750D01*
X486250Y858750D02*
Y875750D01*
X484000Y881750D02*
X484000Y892750D01*
X478000D02*
X478000Y881750D01*
X478000Y892750D02*
X484000D01*
X478000Y881750D02*
X484000D01*
X492750D02*
Y892750D01*
X486750Y881750D02*
Y892750D01*
X492750D01*
X486750Y881750D02*
X492750D01*
X517056Y456500D02*
X523056D01*
X517056Y445500D02*
X517056Y456500D01*
X517056Y445500D02*
X523056D01*
X523056Y456500D02*
X523056Y445500D01*
X381150Y579964D02*
Y585964D01*
X392150Y579964D02*
Y585964D01*
X381150Y585964D02*
X392150Y585964D01*
X381150Y579964D02*
X392150Y579964D01*
X381500Y639000D02*
Y645000D01*
X392500Y639000D02*
Y645000D01*
X381500Y645000D02*
X392500Y645000D01*
X381500Y639000D02*
X392500Y639000D01*
X420000Y604984D02*
Y610984D01*
X409000Y604984D02*
Y610984D01*
Y604984D02*
X420000Y604984D01*
X409000Y610984D02*
X420000Y610984D01*
X400845Y589882D02*
X406845D01*
X406845Y600882D01*
X400845D02*
X406845D01*
X400845D02*
X400845Y589882D01*
X379615Y594430D02*
X385615D01*
X385615Y605430D01*
X379615D02*
X385615D01*
X379615D02*
X379615Y594430D01*
X379761Y629754D02*
X385761D01*
X379761Y618754D02*
X379761Y629754D01*
X379761Y618754D02*
X385761D01*
X385761Y629754D02*
X385761Y618754D01*
X400115Y622134D02*
X406115D01*
X406115Y633134D01*
X400115D02*
X406115D01*
X400115D02*
X400115Y622134D01*
X511250Y815000D02*
X511250Y826000D01*
X517250D02*
X517250Y815000D01*
X511250D02*
X517250D01*
X511250Y826000D02*
X517250D01*
X539505Y249185D02*
X550505Y249185D01*
X539505Y243185D02*
X550505Y243185D01*
X539505Y243185D02*
Y249185D01*
X550505Y243185D02*
Y249185D01*
X346599Y811329D02*
X346599Y822329D01*
X352599D02*
X352599Y811329D01*
X346599D02*
X352599D01*
X346599Y822329D02*
X352599D01*
X174327Y663250D02*
X174327Y674250D01*
X180327D02*
X180327Y663250D01*
X174327D02*
X180327D01*
X174327Y674250D02*
X180327D01*
X166315Y663250D02*
X166315Y674250D01*
X172315D02*
X172315Y663250D01*
X166315D02*
X172315D01*
X166315Y674250D02*
X172315D01*
X520000Y832500D02*
Y849500D01*
X511000Y832500D02*
Y849500D01*
X520000D01*
X511000Y832500D02*
X520000D01*
X553750Y254198D02*
Y271198D01*
X544750Y254198D02*
Y271198D01*
X553750D01*
X544750Y254198D02*
X553750D01*
X239261Y453500D02*
X250261D01*
X239261Y447500D02*
X250261D01*
X239261D02*
Y453500D01*
X250261Y447500D02*
Y453500D01*
X231025Y455633D02*
X243525D01*
X231025Y472133D02*
X243525D01*
Y455633D02*
Y472133D01*
X231025Y455633D02*
Y472133D01*
X214561Y476883D02*
X222561D01*
X214561Y460883D02*
X222561D01*
Y476883D01*
X214561Y460883D02*
Y476883D01*
X89250Y402000D02*
X100250Y402000D01*
X89250Y408000D02*
X100250Y408000D01*
Y402000D02*
Y408000D01*
X89250Y402000D02*
Y408000D01*
Y386084D02*
X100250Y386084D01*
X89250Y392084D02*
X100250Y392084D01*
Y386084D02*
Y392084D01*
X89250Y386084D02*
Y392084D01*
X180107Y383569D02*
X191107Y383569D01*
X180107Y377569D02*
X191107Y377569D01*
X180107Y377569D02*
Y383569D01*
X191107Y377569D02*
Y383569D01*
X89250Y443371D02*
X100250Y443371D01*
X89250Y449371D02*
X100250Y449371D01*
Y443371D02*
Y449371D01*
X89250Y443371D02*
Y449371D01*
Y378162D02*
X100250Y378162D01*
X89250Y384162D02*
X100250Y384162D01*
Y378162D02*
Y384162D01*
X89250Y378162D02*
Y384162D01*
X95250Y453250D02*
X95250Y464250D01*
X101250D02*
X101250Y453250D01*
X95250D02*
X101250D01*
X95250Y464250D02*
X101250D01*
X89250Y394059D02*
X100250Y394059D01*
X89250Y400059D02*
X100250Y400059D01*
Y394059D02*
Y400059D01*
X89250Y394059D02*
Y400059D01*
X112000Y367067D02*
X112000Y378067D01*
X118000D02*
X118000Y367067D01*
X112000D02*
X118000D01*
X112000Y378067D02*
X118000D01*
X517646Y609650D02*
X523646D01*
X523646Y620650D01*
X517646Y620650D02*
X523646Y620650D01*
X517646Y609650D02*
Y620650D01*
X498214Y629900D02*
X504214D01*
X504214Y640900D01*
X498214D02*
X504214D01*
X498214D02*
X498214Y629900D01*
X506396D02*
X512396D01*
X512396Y640900D01*
X506396D02*
X512396D01*
X506396Y629900D02*
Y640900D01*
X96925Y818000D02*
X96925Y824000D01*
X85925Y818000D02*
Y824000D01*
Y818000D02*
X96925Y818000D01*
X85925Y824000D02*
X96925Y824000D01*
X518146Y667900D02*
X529146Y667900D01*
X518146Y661900D02*
X529146Y661900D01*
X518146Y661900D02*
Y667900D01*
X529146Y661900D02*
Y667900D01*
X528396Y621627D02*
X539396Y621627D01*
X528396Y615627D02*
X539396Y615627D01*
X528396Y621627D02*
X528396Y615627D01*
X539396Y615627D02*
Y621627D01*
X545076Y621627D02*
X556077Y621627D01*
X545076Y615627D02*
X556077D01*
X545076Y621627D02*
X545076Y615627D01*
X556077D02*
Y621627D01*
X557750Y600722D02*
Y611722D01*
X551750Y600722D02*
Y611722D01*
X557750Y611722D01*
X551750Y600722D02*
X557750D01*
X516250Y308250D02*
X527250Y308250D01*
X516250Y302250D02*
X527250Y302250D01*
X516250Y302250D02*
Y308250D01*
X527250Y302250D02*
Y308250D01*
X549532Y535250D02*
X560532Y535250D01*
X549532Y529250D02*
X560532Y529250D01*
X549532Y529250D02*
Y535250D01*
X560532Y529250D02*
Y535250D01*
X530932Y285250D02*
X530932Y296250D01*
X536932D02*
X536932Y285250D01*
X530932D02*
X536932D01*
X530932Y296250D02*
X536932D01*
X515750Y259750D02*
X526750Y259750D01*
X515750Y253750D02*
X526750Y253750D01*
X515750Y253750D02*
Y259750D01*
X526750Y253750D02*
Y259750D01*
X248213Y203903D02*
Y209903D01*
Y203903D02*
X259213D01*
Y209903D01*
X248213D02*
X259213D01*
X248213Y192750D02*
Y198750D01*
Y192750D02*
X259213D01*
Y198750D01*
X248213D02*
X259213D01*
X279250Y205500D02*
Y211500D01*
X268250Y211500D02*
X279250Y211500D01*
X268250Y205500D02*
Y211500D01*
Y205500D02*
X279250Y205500D01*
X157031Y605750D02*
X168031Y605750D01*
X157031Y611750D02*
X168031Y611750D01*
Y605750D02*
Y611750D01*
X157031Y605750D02*
Y611750D01*
Y597289D02*
X168031Y597289D01*
X157031Y603288D02*
X168031Y603288D01*
Y597289D02*
Y603288D01*
X157031Y597289D02*
Y603288D01*
X551932Y656400D02*
X557932D01*
X551932Y645400D02*
Y656400D01*
Y645400D02*
X557932Y645400D01*
X557932Y656400D02*
X557932Y645400D01*
X365681Y615901D02*
Y626901D01*
X359681Y615901D02*
X359681Y626901D01*
X365681Y626901D01*
X359681Y615901D02*
X365681D01*
X354500Y647480D02*
X367000D01*
X354500Y630980D02*
X367000D01*
X354500D02*
Y647480D01*
X367000Y630980D02*
Y647480D01*
X357005Y615901D02*
Y626901D01*
X351005Y615901D02*
X351005Y626901D01*
X357005Y626901D01*
X351005Y615901D02*
X357005D01*
X372250Y631238D02*
Y642238D01*
X378250D02*
X378250Y631238D01*
X372250Y631238D02*
X378250Y631238D01*
X372250Y642238D02*
X378250D01*
X617102Y308563D02*
Y314563D01*
Y308563D02*
X628102Y308563D01*
Y314563D01*
X617102Y314563D02*
X628102Y314563D01*
X653514Y437896D02*
Y443896D01*
Y437896D02*
X664514Y437896D01*
Y443896D01*
X653514Y443896D02*
X664514Y443896D01*
X653514Y429896D02*
Y435896D01*
Y429896D02*
X664514Y429896D01*
Y435896D01*
X653514Y435896D02*
X664514Y435896D01*
X531000Y134780D02*
X537000D01*
Y145780D01*
X531000D02*
X537000D01*
X531000D02*
X531000Y134780D01*
X527250Y179750D02*
X527250Y168750D01*
X521250D02*
X527250D01*
X521250D02*
Y179750D01*
X527250D01*
X615447Y257933D02*
Y268933D01*
X621447Y268933D01*
X621447Y257933D01*
X615447Y257933D02*
X621447Y257933D01*
X653514Y421896D02*
X664514D01*
X653514Y427896D02*
X653514Y421896D01*
X653514Y427896D02*
X664514Y427896D01*
Y421896D02*
Y427896D01*
X403750Y654250D02*
X414750Y654250D01*
Y648250D02*
Y654250D01*
X403750Y648250D02*
X414750Y648250D01*
X403750Y648250D02*
Y654250D01*
X442750Y676606D02*
X453750Y676606D01*
X442750Y676606D02*
Y682606D01*
X453750Y682606D01*
Y676606D02*
Y682606D01*
X421073Y648730D02*
Y654730D01*
Y648730D02*
X432073Y648730D01*
Y654730D01*
X421073Y654730D02*
X432073Y654730D01*
X442750Y684637D02*
Y690637D01*
Y684637D02*
X453750Y684637D01*
Y690637D01*
X442750Y690637D02*
X453750Y690637D01*
X108473Y816250D02*
Y828750D01*
X124973Y816250D02*
Y828750D01*
X108473Y816250D02*
X124973D01*
X108473Y828750D02*
X124973D01*
X127973Y826500D02*
X133973D01*
X127973Y815500D02*
X133973D01*
Y826500D01*
X127973Y815500D02*
Y826500D01*
X261465Y631285D02*
X273965D01*
X261465Y614785D02*
X273965D01*
X261465D02*
Y631285D01*
X273965Y614785D02*
Y631285D01*
X249961Y625359D02*
X255961D01*
X249961Y614360D02*
X255961D01*
X255961Y625359D02*
X255961Y614360D01*
X249961D02*
X249961Y625359D01*
X279195Y616191D02*
X285195D01*
X279195Y627191D02*
X285195D01*
X279195D02*
X279195Y616191D01*
X285195D02*
X285195Y627191D01*
X130000Y514382D02*
X130000Y520382D01*
X130000Y514382D02*
X141000Y514382D01*
Y520382D01*
X130000Y520382D02*
X141000Y520382D01*
X548632Y472543D02*
X554132D01*
X548632Y462043D02*
X554132D01*
Y472543D01*
X548632Y462043D02*
Y472543D01*
X557132D02*
X562632D01*
X557132Y462043D02*
X562632D01*
Y472543D01*
X557132Y462043D02*
Y472543D01*
X495750Y416250D02*
X509750Y416250D01*
X495750Y416250D02*
X495750Y427250D01*
X509750Y427250D01*
X509750Y416250D02*
X509750Y427250D01*
X399750Y416293D02*
X405750D01*
X399750Y405293D02*
Y416293D01*
Y405293D02*
X405750D01*
X405750Y416293D02*
X405750Y405293D01*
X416870Y401843D02*
X421113Y406086D01*
X413335Y413864D02*
X421113Y406086D01*
X409092Y409621D02*
X413335Y413864D01*
X409092Y409621D02*
X416870Y401843D01*
X481750Y424750D02*
X481750Y418750D01*
X492750Y418750D01*
X492750Y424750D01*
X481750D02*
X492750D01*
X77109Y478500D02*
X83109D01*
X77109Y489500D02*
X83109D01*
X77109D02*
X77109Y478500D01*
X83109D02*
X83109Y489500D01*
X131000Y485500D02*
X142000Y485500D01*
X131000Y491500D02*
X142000D01*
Y485500D02*
Y491500D01*
X131000D02*
X131000Y485500D01*
X128250Y509211D02*
X144750D01*
X128250Y496711D02*
X144750D01*
Y509211D01*
X128250Y496711D02*
Y509211D01*
X580566Y472793D02*
X586066D01*
X580566Y462293D02*
X586066D01*
Y472793D01*
X580566Y462293D02*
Y472793D01*
X588882D02*
X594382D01*
X588882Y462293D02*
X594382D01*
Y472793D01*
X588882Y462293D02*
Y472793D01*
X606257Y472543D02*
X611757D01*
X606257Y462043D02*
X611757D01*
Y472543D01*
X606257Y462043D02*
Y472543D01*
X614632D02*
X620132D01*
X614632Y462043D02*
X620132D01*
Y472543D01*
X614632Y462043D02*
Y472543D01*
X238846Y713577D02*
X249846Y713577D01*
X238846Y719577D02*
X249846Y719577D01*
Y713577D02*
Y719577D01*
X238846Y713577D02*
Y719577D01*
X155550Y368584D02*
X155550Y379584D01*
X161550D02*
X161550Y368584D01*
X155550D02*
X161550D01*
X155550Y379584D02*
X161550D01*
X113723Y846750D02*
X119722D01*
X113723Y835750D02*
X119723D01*
X119722Y846750D02*
X119723Y835750D01*
X113723D02*
X113723Y846750D01*
X531364Y772711D02*
X537364D01*
X537364Y783711D01*
X531364D02*
X537364D01*
X531364D02*
X531364Y772711D01*
X14438Y441285D02*
X20438D01*
X14438Y430285D02*
X14438Y441285D01*
X14438Y430285D02*
X20438Y430285D01*
X20438Y441285D02*
X20438Y430285D01*
X61211Y372168D02*
X67211Y372168D01*
Y383168D01*
X61211D02*
X67211D01*
X61211D02*
X61211Y372168D01*
X529500Y829750D02*
X535500D01*
X529500Y818750D02*
X529500Y829750D01*
X529500Y818750D02*
X535500D01*
X535500Y829750D02*
X535500Y818750D01*
X581650Y769306D02*
X581650Y845506D01*
X65749Y380685D02*
X65750Y456885D01*
X597382Y462043D02*
X603382Y462043D01*
X597382Y473043D02*
X603382D01*
X597382Y462043D02*
X597382Y473043D01*
X603382Y462043D02*
X603382Y473043D01*
X294890Y620535D02*
X300890Y620535D01*
X300890Y631535D01*
X294890Y631535D02*
X300890Y631535D01*
X294890Y620535D02*
X294890Y631535D01*
Y636020D02*
X300891Y636020D01*
X300891Y647020D01*
X294890D02*
X300891D01*
X294890Y636020D02*
X294890Y647020D01*
X307363Y620807D02*
X343363D01*
X307363Y646807D02*
X343363Y646807D01*
X343363Y620807D01*
X307363D02*
Y646807D01*
X343363Y571917D02*
Y597917D01*
X307363D02*
X307363Y571917D01*
X343363Y571917D01*
X307363Y597917D02*
X343363D01*
X350005Y598189D02*
X356005D01*
X350005D02*
X350005Y587188D01*
X356005Y587188D01*
Y598189D01*
X350005Y582535D02*
X356005D01*
X350005D02*
X350005Y571535D01*
X356005Y571535D01*
Y582535D01*
X621500Y852000D02*
X627500D01*
X621500Y841000D02*
X621500Y852000D01*
X621500Y841000D02*
X627500D01*
X627500Y852000D02*
X627500Y841000D01*
X629750D02*
X635750Y841000D01*
X635750Y852000D01*
X629750D02*
X635750D01*
X629750D02*
X629750Y841000D01*
X314474Y782304D02*
Y816304D01*
X341474Y782304D02*
Y816304D01*
X314474Y782304D02*
X341474D01*
X314474Y816304D02*
X341474D01*
X464743Y404427D02*
X472522Y412205D01*
X476764Y407963D01*
X468986Y400185D02*
X476764Y407963D01*
X464743Y404427D02*
X468986Y400185D01*
X487118Y405793D02*
X498118Y405793D01*
Y399793D02*
Y405793D01*
X487118Y399793D02*
X498118Y399793D01*
X487118Y405793D02*
X487118Y399793D01*
X428750Y700500D02*
X455750D01*
X428750Y734500D02*
X455750D01*
X428750Y700500D02*
Y734500D01*
X455750Y700500D02*
Y734500D01*
X151250Y825062D02*
X157250D01*
Y836062D01*
X151250D02*
X157250D01*
X151250Y825062D02*
Y836062D01*
X151252Y819500D02*
X157252D01*
X151252Y808500D02*
X151252Y819500D01*
X151252Y808500D02*
X157252D01*
X157252Y819500D02*
X157252Y808500D01*
X253223Y809500D02*
X259223D01*
Y820500D01*
X253223D02*
X259223D01*
X253223D02*
X253223Y809500D01*
Y836250D02*
X259223D01*
X253223Y825250D02*
X253223Y836250D01*
X253223Y825250D02*
X259223D01*
Y836250D01*
X622000Y675890D02*
X622000Y664890D01*
X616000D02*
X622000D01*
X616000D02*
X616000Y675890D01*
X622000D01*
X607637Y675966D02*
X607637Y664966D01*
X607637Y675966D02*
X613637D01*
X613637Y664966D02*
X613637Y675966D01*
X607637Y664966D02*
X613637Y664966D01*
X285250Y833000D02*
X293250D01*
X285250Y849000D02*
X293250D01*
X285250Y833000D02*
Y849000D01*
X293250Y833000D02*
Y849000D01*
X276250Y818000D02*
X287250Y818000D01*
X276250Y818000D02*
Y824000D01*
X287250Y824000D01*
Y818000D02*
Y824000D01*
X291500D02*
X302500Y824000D01*
Y818000D02*
Y824000D01*
X291500Y818000D02*
X302500Y818000D01*
X291500Y818000D02*
Y824000D01*
X291500Y809500D02*
X302500Y809500D01*
X291500Y809500D02*
Y815500D01*
X302500Y815500D01*
Y809500D02*
Y815500D01*
X276250D02*
X287250Y815500D01*
Y809500D02*
Y815500D01*
X276250Y809500D02*
X287250Y809500D01*
X276250Y809500D02*
Y815500D01*
X304473Y798750D02*
Y804750D01*
X293473D02*
X304473D01*
X293473Y798750D02*
Y804750D01*
Y798750D02*
X304473D01*
X270500Y798750D02*
Y804750D01*
Y798750D02*
X281500D01*
Y804750D01*
X270500D02*
X281500D01*
X130500Y58750D02*
Y69750D01*
X136500D01*
Y58750D02*
Y69750D01*
X130500Y58750D02*
X136500D01*
X500632Y372543D02*
X500632Y366543D01*
X489632Y366543D02*
Y372543D01*
Y366543D02*
X500632Y366543D01*
X489632Y372543D02*
X500632Y372543D01*
X505632Y366543D02*
X516632Y366543D01*
X505632Y372543D02*
X516632Y372543D01*
X516632Y366543D02*
X516632Y372543D01*
X505632Y372543D02*
X505632Y366543D01*
X501132Y469793D02*
X507132Y469793D01*
X501132Y480793D02*
X507132Y480793D01*
X501132Y480793D02*
X501132Y469793D01*
X507132Y469793D02*
X507132Y480793D01*
X492250Y469750D02*
X498250Y469750D01*
X492250Y480750D02*
X498250D01*
X492250D02*
X492250Y469750D01*
X498250Y469750D02*
X498250Y480750D01*
X653882Y378043D02*
X653882Y372043D01*
X664882D02*
X664882Y378043D01*
X653882Y378043D02*
X664882Y378043D01*
X653882Y372043D02*
X664882D01*
X490000Y514500D02*
X496000Y514500D01*
X490000Y525500D02*
X496000D01*
X490000D02*
X490000Y514500D01*
X496000Y525500D02*
X496000Y514500D01*
X653734Y401543D02*
X653734Y407543D01*
X664734Y401543D02*
X664734Y407543D01*
X653734Y407543D02*
X664734Y407543D01*
X653734Y401543D02*
X664734Y401543D01*
X505632Y377043D02*
Y393543D01*
X518132Y377043D02*
Y393543D01*
X505632D02*
X518132D01*
X505632Y377043D02*
X518132D01*
X498320Y382543D02*
X498320Y388043D01*
X487820Y382543D02*
Y388043D01*
Y382543D02*
X498320D01*
X487820Y388043D02*
X498320Y388043D01*
X465750Y419000D02*
Y424500D01*
X455250D02*
X455250Y419000D01*
X465750D01*
X455250Y424500D02*
X465750D01*
X439250Y424750D02*
X439250Y418750D01*
X450250Y418750D01*
Y424750D01*
X439250Y424750D02*
X450250Y424750D01*
X487263Y396521D02*
X487263Y390521D01*
X498264Y390521D01*
X498264Y396521D02*
X498264Y390521D01*
X487263Y396521D02*
X498264Y396521D01*
X538750Y325563D02*
X538750Y314563D01*
X538750Y325563D02*
X544750Y325563D01*
X544750Y314563D02*
X544750Y325563D01*
X538750Y314563D02*
X544750D01*
X166399Y544000D02*
X166399Y533000D01*
X160399D02*
X166399D01*
X160399D02*
X160399Y544000D01*
X166399D01*
X653632Y416793D02*
X664632Y416793D01*
X664632Y410793D02*
X664632Y416793D01*
X653632Y410793D02*
X664632Y410793D01*
X653632Y410793D02*
X653632Y416793D01*
X554882Y325500D02*
X560882D01*
X554882Y314500D02*
X554882Y325500D01*
X554882Y314500D02*
X560882D01*
X560882Y325500D02*
X560882Y314500D01*
X518132Y484493D02*
X518132Y490493D01*
X507132Y490493D02*
X507132Y484493D01*
X518132Y484493D01*
X507132Y490493D02*
X518132Y490493D01*
X531882Y462293D02*
X537882D01*
X531882Y473293D02*
X537882Y473293D01*
X531882Y462293D02*
Y473293D01*
X537882Y462293D02*
X537882Y473293D01*
X606870Y519317D02*
Y530317D01*
X600870Y519317D02*
X600870Y530317D01*
X606870Y530317D01*
X600870Y519317D02*
X606870Y519317D01*
X60200Y486750D02*
X66200D01*
X60200Y497750D02*
X66200D01*
X60200D02*
X60200Y486750D01*
X66200D02*
X66200Y497750D01*
X197722Y847500D02*
X208722Y847500D01*
X197722Y853500D02*
X208722Y853500D01*
Y847500D02*
Y853500D01*
X197722Y847500D02*
Y853500D01*
X622882Y461793D02*
X628882Y461793D01*
X622882Y472793D02*
X628882D01*
X622882D02*
X622882Y461793D01*
X628882Y472793D02*
X628882Y461793D01*
X493250Y350750D02*
X499250Y350750D01*
X493250Y361750D02*
X499250D01*
X493250D02*
X493250Y350750D01*
X499250Y350750D02*
Y361750D01*
X512382Y464543D02*
X524882D01*
X512382Y481043D02*
X524882D01*
Y464543D02*
Y481043D01*
X512382Y464543D02*
Y481043D01*
X504382Y346793D02*
X516882D01*
X504382Y363293D02*
X516882D01*
Y346793D02*
Y363293D01*
X504382Y346793D02*
Y363293D01*
X575598Y509350D02*
X575598Y498349D01*
X569598Y498349D02*
X575598Y498349D01*
X569598Y498349D02*
X569598Y509350D01*
X575598Y509350D01*
X596657Y509300D02*
X596658Y498300D01*
X590658Y498300D02*
X596658Y498300D01*
X590658Y498300D02*
X590658Y509300D01*
X596657Y509300D01*
X544250Y509590D02*
X544250Y498590D01*
X538250Y498590D02*
X544250Y498590D01*
X538250Y498590D02*
X538250Y509590D01*
X544250Y509590D01*
X560382Y517533D02*
X560382Y506533D01*
X560382Y517533D02*
X566382D01*
X566382Y506533D02*
X566382Y517533D01*
X560382Y506533D02*
X566382Y506533D01*
X613000Y510250D02*
X613000Y499250D01*
X607000Y499250D02*
X613000Y499250D01*
X607000Y510250D02*
X607000Y499250D01*
X607000Y510250D02*
X613000Y510250D01*
X632500Y511038D02*
X632500Y500038D01*
X626500Y500038D02*
X632500Y500038D01*
X626500Y500038D02*
Y511038D01*
X632500Y511038D01*
X503000Y280500D02*
X503000Y274500D01*
X514000D02*
Y280500D01*
X503000D02*
X514000D01*
X503000Y274500D02*
X514000D01*
X89000Y701750D02*
X89000Y690750D01*
X83000D02*
X89000D01*
X83000D02*
X83000Y701750D01*
X89000D01*
X505208Y506000D02*
X505208Y495000D01*
X505208Y506000D02*
X511208Y506000D01*
Y495000D02*
Y506000D01*
X505208Y495000D02*
X511208Y495000D01*
X526682Y518859D02*
X526682Y507859D01*
X526682Y518859D02*
X532682Y518859D01*
X532682Y507859D02*
X532682Y518859D01*
X526682Y507859D02*
X532682Y507859D01*
X552750Y325563D02*
X552750Y314563D01*
X546750Y314563D02*
X552750Y314563D01*
X546750Y314563D02*
X546750Y325563D01*
X552750Y325563D01*
X158500Y533000D02*
Y544000D01*
X152500Y533000D02*
X158500D01*
X152500D02*
X152500Y544000D01*
X158500Y544000D01*
X516500Y314250D02*
Y325250D01*
X510500Y314250D02*
X516500Y314250D01*
X510500Y314250D02*
X510500Y325250D01*
X516500Y325250D01*
X508500Y314250D02*
Y325250D01*
X502500Y314250D02*
X508500Y314250D01*
X502500Y314250D02*
X502500Y325250D01*
X508500Y325250D01*
X38250Y674577D02*
X74250Y674577D01*
X38250Y648577D02*
X74250Y648577D01*
X38250Y674577D02*
X38250Y648577D01*
X74250Y648577D02*
Y674577D01*
X163723Y809750D02*
X199723D01*
X163723Y835750D02*
X199723D01*
Y809750D02*
Y835750D01*
X163723Y809750D02*
Y835750D01*
X377750Y687250D02*
X377750Y698250D01*
X383750D02*
X383750Y687250D01*
X377750D02*
X383750D01*
X377750Y698250D02*
X383750D01*
X86147Y848063D02*
Y854062D01*
X97147Y848063D02*
Y854063D01*
X86147Y854062D02*
X97147Y854063D01*
X86147Y848063D02*
X97147Y848063D01*
X240750Y654000D02*
X251750Y654000D01*
X240750Y660000D02*
X251750Y660000D01*
Y654000D02*
Y660000D01*
X240750Y660000D02*
X240750Y654000D01*
X383750Y671496D02*
X383750Y682496D01*
X377750D02*
X377750Y671496D01*
X377750Y682496D02*
X383750D01*
X377750Y671496D02*
X383750D01*
X417990Y723851D02*
X423990D01*
X417990Y712851D02*
X423990D01*
Y723851D01*
X417990Y712851D02*
Y723851D01*
X99675Y829812D02*
Y842312D01*
X83175Y829812D02*
Y842312D01*
X99675D01*
X83175Y829812D02*
X99675D01*
X386737Y689250D02*
X403237D01*
X386737Y701750D02*
X403237D01*
X386737Y689250D02*
Y701750D01*
X403237Y689250D02*
Y701750D01*
X86986Y664077D02*
X86986Y675077D01*
X80986Y664077D02*
X86986D01*
X80986D02*
X80986Y675077D01*
X86986Y675077D01*
X86745Y648080D02*
X86745Y659080D01*
X80745Y648080D02*
X86745D01*
X80745D02*
X80745Y659080D01*
X86745Y659080D01*
X346239Y704588D02*
X352239Y704588D01*
X352239Y715588D02*
X352239Y704588D01*
X346239Y715588D02*
X352239D01*
X346239D02*
X346239Y704588D01*
X268750Y663500D02*
X268750Y657500D01*
X279750Y657500D01*
Y663500D01*
X268750Y663500D02*
X279750Y663500D01*
X243927Y701500D02*
X249927Y701500D01*
X243927Y690500D02*
Y701500D01*
Y690500D02*
X249927D01*
X249927Y701500D02*
X249927Y690500D01*
X236000Y690327D02*
X242000D01*
Y701327D01*
X236000D02*
X242000D01*
X236000Y690327D02*
Y701327D01*
X314500Y758139D02*
X320500Y758139D01*
X320500Y769139D01*
X314500D02*
X320500D01*
X314500Y758139D02*
X314500Y769139D01*
X296462Y760054D02*
X296462Y754054D01*
X285462Y760054D02*
X296462Y760054D01*
X285462Y754054D02*
Y760054D01*
Y754054D02*
X296462Y754054D01*
X229860Y726103D02*
X235860D01*
X229860Y715103D02*
X229860Y726103D01*
X229860Y715103D02*
X235860D01*
X235860Y726103D02*
X235860Y715103D01*
X230214Y741738D02*
X236214D01*
X230214Y730738D02*
Y741738D01*
Y730738D02*
X236214D01*
Y741738D01*
X342250Y684738D02*
X348250D01*
X342250Y673738D02*
Y684738D01*
Y673738D02*
X348250D01*
Y684738D01*
X142756Y808500D02*
X148756D01*
Y819500D01*
X142756D02*
X148756D01*
X142756Y808500D02*
Y819500D01*
Y825062D02*
X148756D01*
Y836062D01*
X142756D02*
X148756D01*
X142756Y825062D02*
Y836062D01*
X261223Y820500D02*
X267222D01*
X261223Y809500D02*
X261223Y820500D01*
X261223Y809500D02*
X267223D01*
X267222Y820500D02*
X267223Y809500D01*
X261223Y825250D02*
X267222D01*
X267223Y836250D01*
X261223D02*
X267223D01*
X261223D02*
X261223Y825250D01*
X103540Y370917D02*
X109540Y370917D01*
X103540Y381917D02*
X109540D01*
X103540Y370917D02*
X103540Y381917D01*
X109540Y370917D02*
X109540Y381917D01*
X89250Y416095D02*
X89250Y410094D01*
X100250Y410094D02*
Y416095D01*
X89250Y416095D02*
X100250Y416095D01*
X89250Y410094D02*
X100250Y410094D01*
X100250Y435250D02*
X100250Y441250D01*
X89250Y435250D02*
Y441250D01*
Y435250D02*
X100250Y435250D01*
X89250Y441250D02*
X100250D01*
X139250Y380500D02*
X145250Y380500D01*
X139250Y369500D02*
X145250D01*
X145250Y380500D02*
X145250Y369500D01*
X139250Y380500D02*
X139250Y369500D01*
X188887Y455969D02*
X199887Y455969D01*
X188887Y449969D02*
X199887Y449969D01*
X188887Y449969D02*
Y455969D01*
X199887Y449969D02*
Y455969D01*
X147431Y380587D02*
X153431Y380587D01*
X147431Y369587D02*
X153431D01*
X153431Y380587D02*
X153431Y369587D01*
X147431Y380587D02*
X147431Y369587D01*
X120381Y367067D02*
X126381Y367067D01*
X120381Y378067D02*
X126381D01*
X120381Y367067D02*
X120381Y378067D01*
X126381Y367067D02*
X126381Y378067D01*
X186387Y400341D02*
X197387Y400341D01*
X186387Y394341D02*
X197387Y394341D01*
X186387Y400341D02*
X186387Y394341D01*
X197387Y394341D02*
X197387Y400341D01*
X172969Y360549D02*
Y366548D01*
X183969Y366549D02*
X183969Y360549D01*
X172969Y366548D02*
X183969Y366549D01*
X172969Y360549D02*
X183969Y360549D01*
X183902Y368779D02*
Y374779D01*
X172902Y368779D02*
X172902Y374779D01*
X172902Y368779D02*
X183902Y368779D01*
X172902Y374779D02*
X183902D01*
X203887Y467469D02*
Y473469D01*
X192887D02*
X203887D01*
X192887Y467469D02*
Y473469D01*
Y467469D02*
X203887D01*
X246750Y739250D02*
Y750250D01*
X252750D01*
Y739250D02*
Y750250D01*
X246750Y739250D02*
X252750D01*
X89250Y433000D02*
X100250Y433000D01*
Y427000D02*
Y433000D01*
X89250Y427000D02*
X100250D01*
X89250D02*
X89250Y433000D01*
X188798Y441169D02*
X199798D01*
X188798D02*
Y447169D01*
X199798Y447169D01*
X199798Y441169D01*
X232096Y445969D02*
Y451969D01*
X221096D02*
X232096D01*
X221096Y445969D02*
Y451969D01*
Y445969D02*
X232096Y445969D01*
X222316Y407999D02*
Y413999D01*
Y407999D02*
X233316Y407999D01*
X233316Y413999D02*
X233316Y407999D01*
X222316Y413999D02*
X233316Y413999D01*
X178469Y467000D02*
X184469D01*
X178469Y456000D02*
X178469Y467000D01*
X178469Y456000D02*
X184469Y456000D01*
X184469Y467000D02*
X184469Y456000D01*
X130905Y369500D02*
X136905D01*
X136905Y380500D01*
X130905D02*
X136905D01*
X130905D02*
X130905Y369500D01*
X89250Y419078D02*
Y425078D01*
Y419078D02*
X100250Y419078D01*
Y425078D01*
X89250Y425078D02*
X100250Y425078D01*
X105500Y460233D02*
Y466232D01*
Y460233D02*
X116500D01*
X116500Y466232D01*
X105500D02*
X116500D01*
X144387Y475844D02*
X150387Y475844D01*
X144387Y464844D02*
X144387Y475844D01*
X144387Y464844D02*
X150387D01*
X150387Y475844D02*
X150387Y464844D01*
X179111Y414959D02*
X179111Y403959D01*
X179111Y414959D02*
X185110D01*
X185110Y403959D02*
X185110Y414959D01*
X179111Y403959D02*
X185110Y403959D01*
X55030Y891250D02*
Y902250D01*
X61030D01*
Y891250D02*
Y902250D01*
X55030Y891250D02*
X61030D01*
X655632Y398043D02*
X668132Y398043D01*
X655632Y381543D02*
X668132Y381543D01*
X655632Y398043D02*
X655632Y381543D01*
X668132Y381543D02*
Y398043D01*
X113881Y174500D02*
X124881Y174500D01*
X113881Y168500D02*
X124881Y168500D01*
X113881Y168500D02*
Y174500D01*
X124881Y168500D02*
Y174500D01*
X547000Y197000D02*
X558000Y197000D01*
X547000Y203000D02*
X558000Y203000D01*
Y197000D02*
Y203000D01*
X547000Y197000D02*
Y203000D01*
X146250Y318305D02*
X158750D01*
X146250Y301805D02*
X158750D01*
X146250D02*
Y318305D01*
X158750Y301805D02*
Y318305D01*
X110136Y156180D02*
X122136D01*
X110136D02*
Y164180D01*
X122136D01*
Y156180D02*
Y164180D01*
X547000Y192963D02*
X559000D01*
Y184963D02*
Y192963D01*
X547000Y184963D02*
X559000D01*
X547000D02*
Y192963D01*
X243500Y240000D02*
Y246000D01*
X232500Y240000D02*
Y246000D01*
Y240000D02*
X243500Y240000D01*
X232500Y246000D02*
X243500Y246000D01*
X168031Y589000D02*
Y595000D01*
X157031Y589000D02*
Y595000D01*
Y589000D02*
X168031Y589000D01*
X157031Y595000D02*
X168031Y595000D01*
X497382Y566698D02*
Y579198D01*
X513882Y566698D02*
Y579198D01*
X497382Y566698D02*
X513882D01*
X497382Y579198D02*
X513882D01*
X497382Y592250D02*
Y604750D01*
X513882Y592250D02*
Y604750D01*
X497382Y592250D02*
X513882D01*
X497382Y604750D02*
X513882D01*
X517685Y569949D02*
Y575948D01*
X528685Y569948D02*
Y575948D01*
X517685Y575948D02*
X528685Y575948D01*
X517685Y569949D02*
X528685Y569948D01*
X517685Y579596D02*
Y585596D01*
X528685Y579596D02*
Y585596D01*
X517685Y585596D02*
X528685Y585596D01*
X517685Y579596D02*
X528685Y579596D01*
X517685Y588750D02*
Y594750D01*
X528685Y588750D02*
Y594750D01*
X517685Y594750D02*
X528685Y594750D01*
X517685Y588750D02*
X528685Y588750D01*
X488250Y584500D02*
X494250D01*
X488250Y573500D02*
X494250D01*
X494250Y584500D02*
X494250Y573500D01*
X488250D02*
X488250Y584500D01*
Y568000D02*
X494250D01*
X488250Y557000D02*
X494250D01*
X494250Y568000D02*
X494250Y557000D01*
X488250D02*
X488250Y568000D01*
Y596000D02*
X494250D01*
X488250Y607000D02*
X494250D01*
X488250D02*
X488250Y596000D01*
X494250D02*
X494250Y607000D01*
X229060Y624012D02*
Y636512D01*
X245560Y624012D02*
X245560Y636512D01*
X229060Y624012D02*
X245560D01*
X229060Y636512D02*
X245560Y636512D01*
X408750Y741882D02*
Y747882D01*
X397750Y747882D02*
X408750Y747882D01*
X397750Y741882D02*
Y747882D01*
Y741882D02*
X408750Y741882D01*
X298000Y782275D02*
X298000Y771275D01*
X298000Y782275D02*
X304000D01*
X304000Y771275D02*
X304000Y782275D01*
X298000Y771275D02*
X304000D01*
X387150Y729686D02*
X387150Y805886D01*
X542132Y682206D02*
X542132Y693206D01*
X536132D02*
X536132Y682206D01*
X536132Y693206D02*
X542132D01*
X536132Y682206D02*
X542132D01*
X533750D02*
X533750Y693206D01*
X527750D02*
X527750Y682206D01*
X527750Y693206D02*
X533750D01*
X527750Y682206D02*
X533750D01*
X241750Y257250D02*
X247750D01*
X247750Y268250D01*
X241750D02*
X247750D01*
X241750D02*
X241750Y257250D01*
X264496Y263668D02*
Y269668D01*
X253496Y269668D02*
X264496Y269668D01*
X253496Y269668D02*
X253496Y263668D01*
X264496Y263668D01*
X512750Y299500D02*
X525250D01*
X512750Y283000D02*
X525250D01*
X512750D02*
Y299500D01*
X525250Y283000D02*
Y299500D01*
X534750Y264500D02*
Y277000D01*
X518250Y264500D02*
Y277000D01*
X534750D01*
X518250Y264500D02*
X534750D01*
X142861Y111913D02*
Y123913D01*
X150861D01*
Y111913D02*
Y123913D01*
X142861Y111913D02*
X150861D01*
X156250Y111913D02*
Y123913D01*
X164250D01*
Y111913D02*
Y123913D01*
X156250Y111913D02*
X164250D01*
X176000Y111913D02*
Y123913D01*
X184000D01*
Y111913D02*
Y123913D01*
X176000Y111913D02*
X184000D01*
X193900Y111913D02*
Y123913D01*
X201900D01*
Y111913D02*
Y123913D01*
X193900Y111913D02*
X201900D01*
X624618Y675901D02*
X624618Y664901D01*
X624618Y675901D02*
X630618D01*
X630618Y664901D02*
X630618Y675901D01*
X624618Y664901D02*
X630618D01*
X605632Y675966D02*
X605632Y664966D01*
X599632D02*
X605632D01*
X599632D02*
X599632Y675966D01*
X605632D01*
X156922Y620204D02*
X167922Y620204D01*
X156922Y614204D02*
X167922Y614204D01*
X156922Y614204D02*
Y620204D01*
X167922Y614204D02*
Y620204D01*
X566855Y677966D02*
X572855D01*
X566855Y666966D02*
X572855D01*
X572855Y677966D02*
X572855Y666966D01*
X566855D02*
X566855Y677966D01*
X505500Y682750D02*
Y688750D01*
X516500Y682750D02*
Y688750D01*
X505500Y688750D02*
X516500Y688750D01*
X505500Y682750D02*
X516500Y682750D01*
X339405Y228591D02*
X345405D01*
X345405Y239591D01*
X339405D02*
X345405D01*
X339405D02*
X339405Y228591D01*
X329439Y232673D02*
X335439D01*
Y243673D01*
X329439D02*
X335439D01*
X329439Y232673D02*
Y243673D01*
X347444Y228591D02*
X353444D01*
X353444Y239591D01*
X347444D02*
X353444D01*
X347444D02*
X347444Y228591D01*
X251250Y189250D02*
X262250Y189250D01*
X251250Y183250D02*
X262250Y183250D01*
X251250Y183250D02*
Y189250D01*
X262250Y183250D02*
Y189250D01*
X232500Y237500D02*
X243500Y237500D01*
X232500Y231500D02*
X243500Y231500D01*
X232500Y231500D02*
Y237500D01*
X243500Y231500D02*
Y237500D01*
X381662Y223823D02*
Y229823D01*
Y223823D02*
X392662Y223823D01*
Y229823D01*
X381662Y229823D02*
X392662Y229823D01*
X381662Y221500D02*
X392662Y221500D01*
Y215500D02*
Y221500D01*
X381662Y215500D02*
X392662Y215500D01*
X381662Y215500D02*
Y221500D01*
X413000Y238669D02*
X419000D01*
X413000Y227669D02*
X413000Y238669D01*
X413000Y227669D02*
X419000D01*
X419000Y238669D02*
X419000Y227669D01*
X127648Y298990D02*
X133648D01*
X133648Y309990D01*
X127648D02*
X133648D01*
X127648D02*
X127648Y298990D01*
X18750Y958750D02*
X18750Y969750D01*
X12750D02*
X12750Y958750D01*
X12750Y969750D02*
X18750D01*
X12750Y958750D02*
X18750D01*
X40750Y998500D02*
X40750Y987500D01*
X34750D02*
X40750D01*
X34750D02*
X34750Y998500D01*
X40750D01*
X49250Y987500D02*
Y998500D01*
X43250Y987500D02*
X49250D01*
X43250D02*
Y998500D01*
X49250D01*
X80770Y1024000D02*
Y1030000D01*
X69770Y1030000D02*
X80770Y1030000D01*
X69770Y1024000D02*
Y1030000D01*
Y1024000D02*
X80770Y1024000D01*
X51162Y967068D02*
Y973068D01*
X40162Y973068D02*
X51162Y973068D01*
X40162Y967068D02*
Y973068D01*
Y967068D02*
X51162Y967068D01*
X24250Y998750D02*
X24250Y987750D01*
X18250D02*
X24250D01*
X18250D02*
X18250Y998750D01*
X24250D01*
X32250Y987750D02*
Y998750D01*
X26250Y987750D02*
X32250Y987750D01*
X26250Y987750D02*
X26250Y998750D01*
X32250D01*
X15750Y1023750D02*
Y1029750D01*
Y1023750D02*
X26750Y1023750D01*
Y1029750D01*
X15750Y1029750D02*
X26750Y1029750D01*
X46745Y902250D02*
X52745D01*
X46745Y891250D02*
X46745Y902250D01*
X46745Y891250D02*
X52745D01*
X52745Y902250D02*
X52745Y891250D01*
X368250Y1000000D02*
Y1006000D01*
X357250Y1000000D02*
Y1006000D01*
Y1000000D02*
X368250Y1000000D01*
X357250Y1006000D02*
X368250Y1006000D01*
X357250Y992050D02*
Y998050D01*
X368250Y992050D02*
Y998050D01*
X357250Y998050D02*
X368250Y998050D01*
X357250Y992050D02*
X368250Y992050D01*
X15493Y1038750D02*
X26493Y1038750D01*
Y1032750D02*
Y1038750D01*
X15493Y1032750D02*
X26493Y1032750D01*
X15493Y1032750D02*
Y1038750D01*
Y1047500D02*
X26493Y1047500D01*
Y1041500D02*
Y1047500D01*
X15493Y1041500D02*
X26493Y1041500D01*
X15493Y1041500D02*
Y1047500D01*
X79500Y1034250D02*
X90500Y1034250D01*
X79500Y1034250D02*
Y1040250D01*
X90500Y1040250D01*
Y1034250D02*
Y1040250D01*
X79500Y1043750D02*
X90500Y1043750D01*
X79500Y1043750D02*
Y1049750D01*
X90500Y1049750D01*
Y1043750D02*
Y1049750D01*
X6500Y1056000D02*
X17500Y1056000D01*
Y1050000D02*
Y1056000D01*
X6500Y1050000D02*
X17500Y1050000D01*
X6500Y1050000D02*
Y1056000D01*
X264223Y1020500D02*
X275223Y1020500D01*
X264223Y1020500D02*
Y1026500D01*
X275223Y1026500D01*
Y1020500D02*
Y1026500D01*
X87000Y453383D02*
X87000Y464383D01*
X93000D02*
X93000Y453383D01*
X87000D02*
X93000D01*
X87000Y464383D02*
X93000D01*
X180107Y391621D02*
X191107Y391621D01*
X180107Y385621D02*
X191107Y385621D01*
X180107Y385621D02*
Y391621D01*
X191107Y385621D02*
Y391621D01*
X347250Y1012500D02*
X353250D01*
X347250Y1001500D02*
X347250Y1012500D01*
X347250Y1001500D02*
X353250D01*
X353250Y1012500D02*
X353250Y1001500D01*
X347250Y985516D02*
X347250Y996516D01*
X353250D02*
X353250Y985516D01*
X347250D02*
X353250D01*
X347250Y996516D02*
X353250D01*
X357250Y983950D02*
X368250D01*
X357250Y989950D02*
X368250D01*
Y983950D02*
Y989950D01*
X357250Y983950D02*
Y989950D01*
X624381Y1006250D02*
Y1014250D01*
Y1006250D02*
X636381D01*
Y1014250D01*
X624381D02*
X636381D01*
X598750Y1033250D02*
X611250D01*
X598750Y1016750D02*
X611250D01*
X598750D02*
Y1033250D01*
X611250Y1016750D02*
Y1033250D01*
X607000Y1013250D02*
X607000Y1007250D01*
X618000Y1007250D02*
Y1013250D01*
X607000Y1013250D02*
X618000Y1013250D01*
X607000Y1007250D02*
X618000Y1007250D01*
X591000Y1013250D02*
X602000D01*
X591000Y1007250D02*
X602000Y1007250D01*
X591000Y1007250D02*
Y1013250D01*
X602000Y1007250D02*
X602000Y1013250D01*
X592500Y1020000D02*
Y1060000D01*
X567500Y1060000D02*
X592500Y1060000D01*
X567500Y1020000D02*
X592500Y1020000D01*
X567500Y1060000D02*
X567500Y1048500D01*
X567500Y1020000D02*
X567500Y1031500D01*
X567501Y1031502D01*
X567500Y1048500D02*
X567501Y1031502D01*
X404000Y238293D02*
X404000Y227293D01*
X398000D02*
X404000D01*
X398000D02*
X398000Y238293D01*
X404000D01*
X448250Y397250D02*
X459250Y397250D01*
X448250Y391250D02*
X459250Y391250D01*
X448250Y391250D02*
Y397250D01*
X459250Y391250D02*
Y397250D01*
X409355Y434828D02*
X419355D01*
X409355Y424828D02*
Y434828D01*
Y424828D02*
X419355D01*
Y434828D01*
X406000Y458250D02*
X412000D01*
X406000Y447250D02*
X412000D01*
X412000Y458250D02*
X412000Y447250D01*
X406000D02*
X406000Y458250D01*
X547000Y718250D02*
X558000Y718250D01*
X547000Y718250D02*
Y724250D01*
X558000Y724250D01*
Y718250D02*
Y724250D01*
X540682Y764296D02*
X551682Y764296D01*
Y758296D02*
Y764296D01*
X540682Y758296D02*
X551682Y758296D01*
X540682Y758296D02*
Y764296D01*
X229300Y653667D02*
X229300Y642667D01*
X229300Y653667D02*
X235300D01*
X235300Y642667D02*
X235300Y653667D01*
X229300Y642667D02*
X235300D01*
X244466Y771417D02*
X244466Y760417D01*
X238466D02*
X244466D01*
X238466D02*
X238466Y771417D01*
X244466D01*
X281733Y777772D02*
X281733Y766772D01*
X281733Y777772D02*
X287733D01*
X287733Y766772D02*
X287733Y777772D01*
X281733Y766772D02*
X287733D01*
X225250Y681250D02*
Y697250D01*
X233250Y681250D02*
Y697250D01*
X225250Y681250D02*
X233250D01*
X225250Y697250D02*
X233250D01*
X608500Y625544D02*
X619500Y625544D01*
X608500Y625544D02*
Y631544D01*
X619500Y631544D01*
Y625544D02*
Y631544D01*
X612250Y623699D02*
X623250Y623699D01*
Y617699D02*
Y623699D01*
X612250Y617699D02*
X623250Y617699D01*
X612250Y617699D02*
Y623699D01*
X606257Y639553D02*
X617257Y639553D01*
Y633553D02*
Y639553D01*
X606257Y633553D02*
X617257Y633553D01*
X606257Y633553D02*
Y639553D01*
X606762Y606500D02*
X606762Y595500D01*
X606762Y606500D02*
X612762D01*
X612762Y595500D02*
X612762Y606500D01*
X606762Y595500D02*
X612762D01*
X615000Y614556D02*
X615000Y603556D01*
X615000Y614556D02*
X621000D01*
X621000Y603556D02*
X621000Y614556D01*
X615000Y603556D02*
X621000D01*
Y598366D02*
X621000Y587366D01*
X615000D02*
X621000D01*
X615000D02*
X615000Y598366D01*
X621000D01*
X579382Y638000D02*
X590382Y638000D01*
Y632000D02*
Y638000D01*
X579382Y632000D02*
X590382Y632000D01*
X579382Y632000D02*
Y638000D01*
X579355Y608650D02*
Y619650D01*
X573355Y608650D02*
X579355D01*
X573355D02*
Y619650D01*
X579355D01*
X625144Y594669D02*
Y600669D01*
X636144Y594669D02*
Y600669D01*
X625144Y600669D02*
X636144Y600669D01*
X625144Y594669D02*
X636144Y594669D01*
X561472Y665785D02*
Y671784D01*
X550472Y665784D02*
Y671784D01*
Y665784D02*
X561472Y665785D01*
X550472Y671784D02*
X561472Y671784D01*
X625226Y602766D02*
X636226Y602766D01*
X625226Y608766D02*
X636226Y608766D01*
Y602766D02*
Y608766D01*
X625226Y602766D02*
Y608766D01*
X544500Y682250D02*
X550500D01*
X544500Y693250D02*
X550500D01*
X544500D02*
X544500Y682250D01*
X550500D02*
X550500Y693250D01*
X566598Y623402D02*
Y629402D01*
X577598Y623402D02*
Y629402D01*
X566598D02*
X577598D01*
X566598Y623402D02*
X577598D01*
X388787Y614750D02*
X397787D01*
Y633750D01*
X388787D02*
X397787D01*
X388787Y614750D02*
Y633750D01*
X388665Y607807D02*
X397665D01*
X388665Y588807D02*
Y607807D01*
Y588807D02*
X397665D01*
Y607807D01*
X514500Y516250D02*
X523500D01*
X514500Y497250D02*
Y516250D01*
Y497250D02*
X523500D01*
Y516250D01*
X547500Y496000D02*
X556500D01*
Y515000D01*
X547500D02*
X556500D01*
X547500Y496000D02*
Y515000D01*
X578382Y495783D02*
X587382D01*
Y514783D01*
X578382D02*
X587382D01*
X578382Y495783D02*
Y514783D01*
X372389Y127127D02*
Y138127D01*
X378389D01*
Y127127D02*
Y138127D01*
X372389Y127127D02*
X378389D01*
M02*
