G04*
G04 #@! TF.GenerationSoftware,Altium Limited,Altium Designer,23.0.1 (38)*
G04*
G04 Layer_Color=32768*
%FSLAX44Y44*%
%MOMM*%
G71*
G04*
G04 #@! TF.SameCoordinates,B12E620B-8F76-40C0-9090-1E76C6094A63*
G04*
G04*
G04 #@! TF.FilePolarity,Positive*
G04*
G01*
G75*
%ADD11C,0.1270*%
%ADD14C,0.2540*%
%ADD16C,0.2000*%
%ADD17C,0.1000*%
%ADD25R,4.8260X2.4130*%
%ADD26C,0.2997*%
%ADD27C,0.1778*%
%ADD297C,0.0508*%
%ADD323C,0.0100*%
%ADD325C,0.0500*%
%ADD328C,0.0635*%
%ADD329C,0.0050*%
G36*
X885250Y-150059D02*
X889786D01*
Y-150512D01*
X892507D01*
Y-150966D01*
X894775D01*
Y-151419D01*
X896589D01*
Y-151873D01*
X898403D01*
Y-152327D01*
X899764D01*
Y-152780D01*
X901124D01*
Y-153234D01*
X902485D01*
Y-153687D01*
X903392D01*
Y-154141D01*
X904753D01*
Y-154594D01*
X905660D01*
Y-155048D01*
X906567D01*
Y-155501D01*
X907474D01*
Y-155955D01*
X908381D01*
Y-156409D01*
X909288D01*
Y-156862D01*
X909742D01*
Y-157316D01*
X910649D01*
Y-157769D01*
X911556D01*
Y-158223D01*
X912010D01*
Y-158676D01*
X912917D01*
Y-159130D01*
X913371D01*
Y-159584D01*
X914278D01*
Y-160037D01*
X914731D01*
Y-160491D01*
X915185D01*
Y-160944D01*
X916092D01*
Y-161398D01*
X916545D01*
Y-161851D01*
X916999D01*
Y-162305D01*
X917452D01*
Y-162758D01*
X918360D01*
Y-163212D01*
X918813D01*
Y-163666D01*
X919267D01*
Y-164119D01*
X919720D01*
Y-164573D01*
X920174D01*
Y-165026D01*
X920627D01*
Y-165480D01*
X921081D01*
Y-165933D01*
X921535D01*
Y-166387D01*
X921988D01*
Y-166840D01*
X922442D01*
Y-167294D01*
X922895D01*
Y-167747D01*
X923349D01*
Y-168201D01*
Y-168655D01*
X923802D01*
Y-169108D01*
X924256D01*
Y-169562D01*
X924709D01*
Y-170015D01*
X925163D01*
Y-170469D01*
Y-170922D01*
X925617D01*
Y-171376D01*
X926070D01*
Y-171830D01*
X926524D01*
Y-172283D01*
Y-172737D01*
X926977D01*
Y-173190D01*
X927431D01*
Y-173644D01*
Y-174097D01*
X927884D01*
Y-174551D01*
X928338D01*
Y-175004D01*
Y-175458D01*
X928791D01*
Y-175912D01*
X929245D01*
Y-176365D01*
Y-176819D01*
X929698D01*
Y-177272D01*
Y-177726D01*
X930152D01*
Y-178179D01*
Y-178633D01*
X930606D01*
Y-179086D01*
Y-179540D01*
X931059D01*
Y-179993D01*
Y-180447D01*
X931513D01*
Y-180901D01*
Y-181354D01*
X931966D01*
Y-181808D01*
Y-182261D01*
X932420D01*
Y-182715D01*
Y-183168D01*
Y-183622D01*
X932873D01*
Y-184076D01*
Y-184529D01*
X933327D01*
Y-184983D01*
Y-185436D01*
Y-185890D01*
X933781D01*
Y-186343D01*
Y-186797D01*
Y-187250D01*
X934234D01*
Y-187704D01*
Y-188158D01*
Y-188611D01*
Y-189065D01*
X934688D01*
Y-189518D01*
Y-189972D01*
Y-190425D01*
Y-190879D01*
X935141D01*
Y-191332D01*
Y-191786D01*
Y-192240D01*
Y-192693D01*
X935595D01*
Y-193147D01*
Y-193600D01*
Y-194054D01*
Y-194507D01*
Y-194961D01*
Y-195414D01*
Y-195868D01*
X936048D01*
Y-196322D01*
Y-196775D01*
Y-197229D01*
Y-197682D01*
Y-198136D01*
Y-198589D01*
Y-199043D01*
Y-199496D01*
Y-199950D01*
Y-200404D01*
Y-200857D01*
X936502D01*
Y-201311D01*
Y-201764D01*
Y-202218D01*
Y-202671D01*
Y-203125D01*
Y-203578D01*
Y-204032D01*
Y-204486D01*
Y-204939D01*
Y-205393D01*
X936048D01*
Y-205846D01*
Y-206300D01*
Y-206753D01*
Y-207207D01*
Y-207661D01*
Y-208114D01*
Y-208568D01*
Y-209021D01*
Y-209475D01*
Y-209928D01*
Y-210382D01*
X935595D01*
Y-210835D01*
Y-211289D01*
Y-211742D01*
Y-212196D01*
Y-212650D01*
Y-213103D01*
X935141D01*
Y-213557D01*
Y-214010D01*
Y-214464D01*
Y-214917D01*
Y-215371D01*
X934688D01*
Y-215825D01*
Y-216278D01*
Y-216732D01*
Y-217185D01*
X934234D01*
Y-217639D01*
Y-218092D01*
Y-218546D01*
Y-218999D01*
X933781D01*
Y-219453D01*
Y-219907D01*
Y-220360D01*
X933327D01*
Y-220814D01*
Y-221267D01*
X932873D01*
Y-221721D01*
Y-222174D01*
Y-222628D01*
X932420D01*
Y-223081D01*
Y-223535D01*
X931966D01*
Y-223988D01*
Y-224442D01*
Y-224896D01*
X931513D01*
Y-225349D01*
Y-225803D01*
X931059D01*
Y-226256D01*
Y-226710D01*
X930606D01*
Y-227163D01*
Y-227617D01*
X930152D01*
Y-228071D01*
Y-228524D01*
X929698D01*
Y-228071D01*
Y-227617D01*
Y-227163D01*
Y-226710D01*
Y-226256D01*
Y-225803D01*
Y-225349D01*
Y-224896D01*
Y-224442D01*
Y-223988D01*
Y-223535D01*
Y-223081D01*
Y-222628D01*
Y-222174D01*
Y-221721D01*
Y-221267D01*
Y-220814D01*
Y-220360D01*
Y-219907D01*
Y-219453D01*
Y-218999D01*
Y-218546D01*
Y-218092D01*
Y-217639D01*
Y-217185D01*
Y-216732D01*
Y-216278D01*
Y-215825D01*
Y-215371D01*
Y-214917D01*
Y-214464D01*
Y-214010D01*
Y-213557D01*
Y-213103D01*
Y-212650D01*
Y-212196D01*
Y-211742D01*
Y-211289D01*
Y-210835D01*
Y-210382D01*
Y-209928D01*
Y-209475D01*
Y-209021D01*
Y-208568D01*
Y-208114D01*
Y-207661D01*
Y-207207D01*
Y-206753D01*
Y-206300D01*
Y-205846D01*
Y-205393D01*
Y-204939D01*
Y-204486D01*
Y-204032D01*
Y-203578D01*
Y-203125D01*
Y-202671D01*
Y-202218D01*
Y-201764D01*
Y-201311D01*
Y-200857D01*
Y-200404D01*
Y-199950D01*
Y-199496D01*
Y-199043D01*
Y-198589D01*
Y-198136D01*
Y-197682D01*
Y-197229D01*
Y-196775D01*
Y-196322D01*
Y-195868D01*
Y-195414D01*
Y-194961D01*
Y-194507D01*
Y-194054D01*
X916999D01*
Y-194507D01*
Y-194961D01*
Y-195414D01*
Y-195868D01*
Y-196322D01*
Y-196775D01*
Y-197229D01*
Y-197682D01*
Y-198136D01*
Y-198589D01*
Y-199043D01*
Y-199496D01*
Y-199950D01*
Y-200404D01*
Y-200857D01*
Y-201311D01*
Y-201764D01*
Y-202218D01*
Y-202671D01*
Y-203125D01*
Y-203578D01*
Y-204032D01*
Y-204486D01*
Y-204939D01*
Y-205393D01*
Y-205846D01*
Y-206300D01*
Y-206753D01*
Y-207207D01*
Y-207661D01*
Y-208114D01*
Y-208568D01*
Y-209021D01*
Y-209475D01*
Y-209928D01*
Y-210382D01*
Y-210835D01*
Y-211289D01*
Y-211742D01*
Y-212196D01*
Y-212650D01*
Y-213103D01*
Y-213557D01*
Y-214010D01*
Y-214464D01*
Y-214917D01*
Y-215371D01*
Y-215825D01*
Y-216278D01*
Y-216732D01*
Y-217185D01*
Y-217639D01*
Y-218092D01*
Y-218546D01*
Y-218999D01*
Y-219453D01*
Y-219907D01*
Y-220360D01*
Y-220814D01*
Y-221267D01*
Y-221721D01*
X916545D01*
Y-222174D01*
Y-222628D01*
Y-223081D01*
Y-223535D01*
X916092D01*
Y-223988D01*
Y-224442D01*
X915638D01*
Y-224896D01*
Y-225349D01*
X915185D01*
Y-225803D01*
X914731D01*
Y-226256D01*
X914278D01*
Y-226710D01*
X913824D01*
Y-227163D01*
X913371D01*
Y-227617D01*
X912463D01*
Y-228071D01*
X911103D01*
Y-228524D01*
X904753D01*
Y-228071D01*
X903392D01*
Y-227617D01*
X902485D01*
Y-227163D01*
X902032D01*
Y-226710D01*
X901578D01*
Y-226256D01*
X901124D01*
Y-225803D01*
Y-225349D01*
X900671D01*
Y-224896D01*
Y-224442D01*
X900217D01*
Y-223988D01*
Y-223535D01*
Y-223081D01*
Y-222628D01*
X899764D01*
Y-222174D01*
Y-221721D01*
Y-221267D01*
Y-220814D01*
Y-220360D01*
Y-219907D01*
Y-219453D01*
Y-218999D01*
Y-218546D01*
Y-218092D01*
Y-217639D01*
Y-217185D01*
Y-216732D01*
Y-216278D01*
Y-215825D01*
Y-215371D01*
Y-214917D01*
Y-214464D01*
Y-214010D01*
Y-213557D01*
Y-213103D01*
Y-212650D01*
Y-212196D01*
Y-211742D01*
Y-211289D01*
Y-210835D01*
Y-210382D01*
Y-209928D01*
Y-209475D01*
Y-209021D01*
Y-208568D01*
Y-208114D01*
Y-207661D01*
Y-207207D01*
Y-206753D01*
Y-206300D01*
Y-205846D01*
Y-205393D01*
Y-204939D01*
Y-204486D01*
Y-204032D01*
Y-203578D01*
Y-203125D01*
Y-202671D01*
Y-202218D01*
Y-201764D01*
Y-201311D01*
Y-200857D01*
Y-200404D01*
Y-199950D01*
Y-199496D01*
Y-199043D01*
Y-198589D01*
Y-198136D01*
Y-197682D01*
Y-197229D01*
Y-196775D01*
Y-196322D01*
Y-195868D01*
Y-195414D01*
Y-194961D01*
Y-194507D01*
Y-194054D01*
X887064D01*
Y-194507D01*
Y-194961D01*
Y-195414D01*
Y-195868D01*
Y-196322D01*
Y-196775D01*
Y-197229D01*
Y-197682D01*
Y-198136D01*
Y-198589D01*
Y-199043D01*
Y-199496D01*
Y-199950D01*
Y-200404D01*
Y-200857D01*
Y-201311D01*
Y-201764D01*
Y-202218D01*
Y-202671D01*
Y-203125D01*
Y-203578D01*
Y-204032D01*
Y-204486D01*
Y-204939D01*
Y-205393D01*
Y-205846D01*
Y-206300D01*
Y-206753D01*
Y-207207D01*
Y-207661D01*
Y-208114D01*
Y-208568D01*
Y-209021D01*
Y-209475D01*
Y-209928D01*
Y-210382D01*
Y-210835D01*
Y-211289D01*
Y-211742D01*
Y-212196D01*
Y-212650D01*
Y-213103D01*
Y-213557D01*
Y-214010D01*
Y-214464D01*
Y-214917D01*
Y-215371D01*
Y-215825D01*
Y-216278D01*
Y-216732D01*
Y-217185D01*
Y-217639D01*
Y-218092D01*
Y-218546D01*
Y-218999D01*
Y-219453D01*
Y-219907D01*
Y-220360D01*
Y-220814D01*
Y-221267D01*
Y-221721D01*
Y-222174D01*
Y-222628D01*
Y-223081D01*
Y-223535D01*
Y-223988D01*
Y-224442D01*
Y-224896D01*
Y-225349D01*
Y-225803D01*
Y-226256D01*
Y-226710D01*
Y-227163D01*
X887518D01*
Y-227617D01*
Y-228071D01*
Y-228524D01*
Y-228978D01*
X887971D01*
Y-229431D01*
Y-229885D01*
Y-230338D01*
X888425D01*
Y-230792D01*
Y-231245D01*
Y-231699D01*
X888878D01*
Y-232153D01*
Y-232606D01*
X889332D01*
Y-233060D01*
X889786D01*
Y-233513D01*
Y-233967D01*
X890239D01*
Y-234420D01*
X890693D01*
Y-234874D01*
X891146D01*
Y-235327D01*
X891600D01*
Y-235781D01*
X892053D01*
Y-236234D01*
X892507D01*
Y-236688D01*
X893414D01*
Y-237142D01*
X893868D01*
Y-237595D01*
X894775D01*
Y-238049D01*
X895682D01*
Y-238502D01*
X896589D01*
Y-238956D01*
X897950D01*
Y-239409D01*
X899764D01*
Y-239863D01*
X908835D01*
Y-239409D01*
X910649D01*
Y-238956D01*
X911556D01*
Y-238502D01*
X912917D01*
Y-238049D01*
X913371D01*
Y-237595D01*
X914278D01*
Y-237142D01*
X914731D01*
Y-236688D01*
X915185D01*
Y-236234D01*
X916092D01*
Y-235781D01*
X916545D01*
Y-235327D01*
X916999D01*
Y-234874D01*
Y-234420D01*
X917452D01*
Y-234874D01*
Y-235327D01*
Y-235781D01*
Y-236234D01*
Y-236688D01*
Y-237142D01*
Y-237595D01*
Y-238049D01*
Y-238502D01*
Y-238956D01*
X922442D01*
Y-239409D01*
X921988D01*
Y-239863D01*
X921535D01*
Y-240317D01*
X921081D01*
Y-240770D01*
X920627D01*
Y-241224D01*
X920174D01*
Y-241677D01*
X919720D01*
Y-242131D01*
X919267D01*
Y-242584D01*
X918813D01*
Y-243038D01*
X917906D01*
Y-243491D01*
X917452D01*
Y-243945D01*
X916999D01*
Y-244398D01*
X916545D01*
Y-244852D01*
X915638D01*
Y-245306D01*
X915185D01*
Y-245759D01*
X914731D01*
Y-246213D01*
X913824D01*
Y-246666D01*
X913371D01*
Y-247120D01*
X912463D01*
Y-247573D01*
X912010D01*
Y-248027D01*
X911103D01*
Y-248480D01*
X910649D01*
Y-248934D01*
X909742D01*
Y-249388D01*
X908835D01*
Y-249841D01*
X907928D01*
Y-250295D01*
X907474D01*
Y-250748D01*
X906567D01*
Y-251202D01*
X905206D01*
Y-251655D01*
X904299D01*
Y-252109D01*
X903392D01*
Y-252563D01*
X902032D01*
Y-253016D01*
X901124D01*
Y-253470D01*
X899764D01*
Y-253923D01*
X897950D01*
Y-254377D01*
X896589D01*
Y-254830D01*
X894775D01*
Y-255284D01*
X892053D01*
Y-255737D01*
X888878D01*
Y-256191D01*
X877086D01*
Y-255737D01*
X873911D01*
Y-255284D01*
X871643D01*
Y-254830D01*
X869829D01*
Y-254377D01*
X868015D01*
Y-253923D01*
X866654D01*
Y-253470D01*
X865294D01*
Y-253016D01*
X863933D01*
Y-252563D01*
X863026D01*
Y-252109D01*
X861665D01*
Y-251655D01*
X860758D01*
Y-251202D01*
X859851D01*
Y-250748D01*
X858944D01*
Y-250295D01*
X858037D01*
Y-249841D01*
X857130D01*
Y-249388D01*
X856222D01*
Y-248934D01*
X855769D01*
Y-248480D01*
X854862D01*
Y-248027D01*
X853955D01*
Y-247573D01*
X853501D01*
Y-247120D01*
X852594D01*
Y-246666D01*
X852140D01*
Y-246213D01*
X851687D01*
Y-245759D01*
X850780D01*
Y-245306D01*
X850326D01*
Y-244852D01*
X849873D01*
Y-244398D01*
X848966D01*
Y-243945D01*
X848512D01*
Y-243491D01*
X848058D01*
Y-243038D01*
X847605D01*
Y-242584D01*
X847151D01*
Y-242131D01*
X846698D01*
Y-241677D01*
X846244D01*
Y-241224D01*
X845791D01*
Y-240770D01*
X845337D01*
Y-240317D01*
X844883D01*
Y-239863D01*
X844430D01*
Y-239409D01*
X843976D01*
Y-238956D01*
X843523D01*
Y-238502D01*
X843069D01*
Y-238049D01*
X842616D01*
Y-237595D01*
X842162D01*
Y-237142D01*
X841709D01*
Y-236688D01*
Y-236234D01*
X841255D01*
Y-235781D01*
X840801D01*
Y-235327D01*
X840348D01*
Y-234874D01*
X839894D01*
Y-234420D01*
Y-233967D01*
X839441D01*
Y-233513D01*
X838987D01*
Y-233060D01*
Y-232606D01*
X838534D01*
Y-232153D01*
X838080D01*
Y-231699D01*
Y-231245D01*
X837627D01*
Y-230792D01*
X837173D01*
Y-230338D01*
Y-229885D01*
X836720D01*
Y-229431D01*
Y-228978D01*
X836266D01*
Y-228524D01*
Y-228071D01*
X835812D01*
Y-227617D01*
Y-227163D01*
X835359D01*
Y-226710D01*
Y-226256D01*
X834905D01*
Y-225803D01*
Y-225349D01*
X834452D01*
Y-224896D01*
Y-224442D01*
X833998D01*
Y-223988D01*
Y-223535D01*
X833545D01*
Y-223081D01*
Y-222628D01*
Y-222174D01*
X833091D01*
Y-221721D01*
Y-221267D01*
Y-220814D01*
X832637D01*
Y-220360D01*
Y-219907D01*
X832184D01*
Y-219453D01*
Y-218999D01*
Y-218546D01*
Y-218092D01*
X831730D01*
Y-217639D01*
Y-217185D01*
Y-216732D01*
X831277D01*
Y-216278D01*
Y-215825D01*
Y-215371D01*
Y-214917D01*
X830823D01*
Y-214464D01*
Y-214010D01*
Y-213557D01*
Y-213103D01*
Y-212650D01*
X830370D01*
Y-212196D01*
Y-211742D01*
Y-211289D01*
Y-210835D01*
Y-210382D01*
Y-209928D01*
Y-209475D01*
X829916D01*
Y-209021D01*
Y-208568D01*
Y-208114D01*
Y-207661D01*
Y-207207D01*
Y-206753D01*
Y-206300D01*
Y-205846D01*
Y-205393D01*
Y-204939D01*
X829463D01*
Y-204486D01*
Y-204032D01*
Y-203578D01*
Y-203125D01*
Y-202671D01*
Y-202218D01*
Y-201764D01*
Y-201311D01*
Y-200857D01*
X829916D01*
Y-200404D01*
Y-199950D01*
Y-199496D01*
Y-199043D01*
Y-198589D01*
Y-198136D01*
Y-197682D01*
Y-197229D01*
Y-196775D01*
X830370D01*
Y-196322D01*
Y-195868D01*
Y-195414D01*
Y-194961D01*
Y-194507D01*
Y-194054D01*
Y-193600D01*
X830823D01*
Y-193147D01*
Y-192693D01*
Y-192240D01*
Y-191786D01*
Y-191332D01*
X831277D01*
Y-190879D01*
Y-190425D01*
Y-189972D01*
Y-189518D01*
X831730D01*
Y-189065D01*
Y-188611D01*
Y-188158D01*
Y-187704D01*
X832184D01*
Y-187250D01*
Y-186797D01*
Y-186343D01*
X832637D01*
Y-185890D01*
Y-185436D01*
Y-184983D01*
X833091D01*
Y-184529D01*
Y-184076D01*
X833545D01*
Y-183622D01*
Y-183168D01*
Y-182715D01*
X833998D01*
Y-182261D01*
Y-181808D01*
X834452D01*
Y-181354D01*
Y-180901D01*
Y-180447D01*
X834905D01*
Y-179993D01*
Y-179540D01*
X835359D01*
Y-179086D01*
Y-178633D01*
X835812D01*
Y-178179D01*
Y-177726D01*
X836266D01*
Y-177272D01*
X836720D01*
Y-176819D01*
Y-176365D01*
X837173D01*
Y-175912D01*
Y-175458D01*
X837627D01*
Y-175004D01*
X838080D01*
Y-174551D01*
Y-174097D01*
X838534D01*
Y-173644D01*
X838987D01*
Y-173190D01*
Y-172737D01*
X839441D01*
Y-172283D01*
X839894D01*
Y-171830D01*
Y-171376D01*
X840348D01*
Y-170922D01*
X840801D01*
Y-170469D01*
X841255D01*
Y-170015D01*
Y-169562D01*
X841709D01*
Y-169108D01*
X842162D01*
Y-168655D01*
X842616D01*
Y-168201D01*
X843069D01*
Y-167747D01*
X843523D01*
Y-167294D01*
X843976D01*
Y-166840D01*
X844430D01*
Y-166387D01*
Y-165933D01*
X844883D01*
Y-165480D01*
X845337D01*
Y-165026D01*
X845791D01*
Y-164573D01*
X846698D01*
Y-164119D01*
X847151D01*
Y-163666D01*
X847605D01*
Y-163212D01*
X848058D01*
Y-162758D01*
X848512D01*
Y-162305D01*
X848966D01*
Y-161851D01*
X849419D01*
Y-161398D01*
X850326D01*
Y-160944D01*
X850780D01*
Y-160491D01*
X851233D01*
Y-160037D01*
X852140D01*
Y-159584D01*
X852594D01*
Y-159130D01*
X853501D01*
Y-158676D01*
X853955D01*
Y-158223D01*
X854862D01*
Y-157769D01*
X855315D01*
Y-157316D01*
X856222D01*
Y-156862D01*
X857130D01*
Y-156409D01*
X857583D01*
Y-155955D01*
X858944D01*
Y-155501D01*
X859851D01*
Y-155048D01*
X860758D01*
Y-154594D01*
X861665D01*
Y-154141D01*
X862572D01*
Y-153687D01*
X863933D01*
Y-153234D01*
X864840D01*
Y-152780D01*
X866201D01*
Y-152327D01*
X867561D01*
Y-151873D01*
X869376D01*
Y-151419D01*
X871190D01*
Y-150966D01*
X873457D01*
Y-150512D01*
X876632D01*
Y-150059D01*
X881168D01*
Y-149605D01*
X885250D01*
Y-150059D01*
D02*
G37*
G36*
X955551Y-177272D02*
Y-177726D01*
Y-178179D01*
Y-178633D01*
Y-179086D01*
Y-179540D01*
Y-179993D01*
Y-180447D01*
Y-180901D01*
Y-181354D01*
Y-181808D01*
Y-182261D01*
Y-182715D01*
Y-183168D01*
Y-183622D01*
Y-184076D01*
Y-184529D01*
Y-184983D01*
Y-185436D01*
Y-185890D01*
Y-186343D01*
Y-186797D01*
Y-187250D01*
Y-187704D01*
Y-188158D01*
Y-188611D01*
Y-189065D01*
Y-189518D01*
Y-189972D01*
Y-190425D01*
Y-190879D01*
Y-191332D01*
Y-191786D01*
Y-192240D01*
Y-192693D01*
Y-193147D01*
Y-193600D01*
Y-194054D01*
Y-194507D01*
Y-194961D01*
Y-195414D01*
Y-195868D01*
Y-196322D01*
Y-196775D01*
Y-197229D01*
Y-197682D01*
Y-198136D01*
Y-198589D01*
Y-199043D01*
Y-199496D01*
X956458D01*
Y-199043D01*
X956912D01*
Y-198589D01*
X957365D01*
Y-198136D01*
X957819D01*
Y-197682D01*
X958272D01*
Y-197229D01*
X958726D01*
Y-196775D01*
X959180D01*
Y-196322D01*
X960087D01*
Y-195868D01*
X960540D01*
Y-195414D01*
X961447D01*
Y-194961D01*
X962355D01*
Y-194507D01*
X963715D01*
Y-194054D01*
X965529D01*
Y-193600D01*
X974147D01*
Y-194054D01*
X975961D01*
Y-194507D01*
X977322D01*
Y-194961D01*
X978682D01*
Y-195414D01*
X979590D01*
Y-195868D01*
X980043D01*
Y-196322D01*
X980950D01*
Y-196775D01*
X981404D01*
Y-197229D01*
X982311D01*
Y-197682D01*
X982765D01*
Y-198136D01*
X983218D01*
Y-198589D01*
X983672D01*
Y-199043D01*
X984125D01*
Y-199496D01*
X984579D01*
Y-199950D01*
Y-200404D01*
X985032D01*
Y-200857D01*
X985486D01*
Y-201311D01*
X985939D01*
Y-201764D01*
Y-202218D01*
X986393D01*
Y-202671D01*
Y-203125D01*
X986846D01*
Y-203578D01*
Y-204032D01*
X987300D01*
Y-204486D01*
Y-204939D01*
X987754D01*
Y-205393D01*
Y-205846D01*
Y-206300D01*
X988207D01*
Y-206753D01*
Y-207207D01*
Y-207661D01*
Y-208114D01*
X988661D01*
Y-208568D01*
Y-209021D01*
Y-209475D01*
Y-209928D01*
Y-210382D01*
X989114D01*
Y-210835D01*
Y-211289D01*
Y-211742D01*
Y-212196D01*
Y-212650D01*
Y-213103D01*
Y-213557D01*
Y-214010D01*
Y-214464D01*
X989568D01*
Y-214917D01*
X989114D01*
Y-215371D01*
Y-215825D01*
Y-216278D01*
Y-216732D01*
Y-217185D01*
Y-217639D01*
Y-218092D01*
Y-218546D01*
Y-218999D01*
Y-219453D01*
Y-219907D01*
Y-220360D01*
Y-220814D01*
Y-221267D01*
Y-221721D01*
Y-222174D01*
Y-222628D01*
X988661D01*
Y-223081D01*
Y-223535D01*
Y-223988D01*
Y-224442D01*
Y-224896D01*
X988207D01*
Y-225349D01*
Y-225803D01*
Y-226256D01*
X987754D01*
Y-226710D01*
Y-227163D01*
Y-227617D01*
X987300D01*
Y-228071D01*
Y-228524D01*
Y-228978D01*
X986846D01*
Y-229431D01*
Y-229885D01*
X986393D01*
Y-230338D01*
Y-230792D01*
X985939D01*
Y-231245D01*
X985486D01*
Y-231699D01*
Y-232153D01*
X985032D01*
Y-232606D01*
X984579D01*
Y-233060D01*
X984125D01*
Y-233513D01*
X983672D01*
Y-233967D01*
Y-234420D01*
X982765D01*
Y-234874D01*
X982311D01*
Y-235327D01*
X981857D01*
Y-235781D01*
X981404D01*
Y-236234D01*
X980497D01*
Y-236688D01*
X980043D01*
Y-237142D01*
X979136D01*
Y-237595D01*
X978229D01*
Y-238049D01*
X977322D01*
Y-238502D01*
X975961D01*
Y-238956D01*
X973693D01*
Y-239409D01*
X965983D01*
Y-238956D01*
X963715D01*
Y-238502D01*
X962808D01*
Y-238049D01*
X961447D01*
Y-237595D01*
X960994D01*
Y-237142D01*
X960087D01*
Y-236688D01*
X959633D01*
Y-236234D01*
X958726D01*
Y-235781D01*
X958272D01*
Y-235327D01*
X957819D01*
Y-234874D01*
X957365D01*
Y-234420D01*
X956912D01*
Y-233967D01*
X956458D01*
Y-233513D01*
X956005D01*
Y-233060D01*
Y-232606D01*
X955098D01*
Y-233060D01*
Y-233513D01*
Y-233967D01*
Y-234420D01*
Y-234874D01*
Y-235327D01*
Y-235781D01*
Y-236234D01*
Y-236688D01*
Y-237142D01*
Y-237595D01*
Y-238049D01*
Y-238502D01*
X943759D01*
Y-238049D01*
Y-237595D01*
Y-237142D01*
Y-236688D01*
Y-236234D01*
Y-235781D01*
Y-235327D01*
Y-234874D01*
Y-234420D01*
Y-233967D01*
Y-233513D01*
Y-233060D01*
Y-232606D01*
Y-232153D01*
Y-231699D01*
Y-231245D01*
Y-230792D01*
Y-230338D01*
Y-229885D01*
Y-229431D01*
Y-228978D01*
Y-228524D01*
Y-228071D01*
Y-227617D01*
Y-227163D01*
Y-226710D01*
Y-226256D01*
Y-225803D01*
Y-225349D01*
Y-224896D01*
Y-224442D01*
Y-223988D01*
Y-223535D01*
Y-223081D01*
Y-222628D01*
Y-222174D01*
Y-221721D01*
Y-221267D01*
Y-220814D01*
Y-220360D01*
Y-219907D01*
Y-219453D01*
Y-218999D01*
Y-218546D01*
Y-218092D01*
Y-217639D01*
Y-217185D01*
Y-216732D01*
Y-216278D01*
Y-215825D01*
Y-215371D01*
Y-214917D01*
Y-214464D01*
Y-214010D01*
Y-213557D01*
Y-213103D01*
Y-212650D01*
Y-212196D01*
Y-211742D01*
Y-211289D01*
Y-210835D01*
Y-210382D01*
Y-209928D01*
Y-209475D01*
Y-209021D01*
Y-208568D01*
Y-208114D01*
Y-207661D01*
Y-207207D01*
Y-206753D01*
Y-206300D01*
Y-205846D01*
Y-205393D01*
Y-204939D01*
Y-204486D01*
Y-204032D01*
Y-203578D01*
Y-203125D01*
Y-202671D01*
Y-202218D01*
Y-201764D01*
Y-201311D01*
Y-200857D01*
Y-200404D01*
Y-199950D01*
Y-199496D01*
Y-199043D01*
Y-198589D01*
Y-198136D01*
Y-197682D01*
Y-197229D01*
Y-196775D01*
Y-196322D01*
Y-195868D01*
Y-195414D01*
Y-194961D01*
Y-194507D01*
Y-194054D01*
Y-193600D01*
Y-193147D01*
Y-192693D01*
Y-192240D01*
Y-191786D01*
Y-191332D01*
Y-190879D01*
Y-190425D01*
Y-189972D01*
Y-189518D01*
Y-189065D01*
Y-188611D01*
Y-188158D01*
Y-187704D01*
Y-187250D01*
Y-186797D01*
Y-186343D01*
Y-185890D01*
Y-185436D01*
Y-184983D01*
Y-184529D01*
Y-184076D01*
Y-183622D01*
Y-183168D01*
Y-182715D01*
Y-182261D01*
Y-181808D01*
Y-181354D01*
Y-180901D01*
Y-180447D01*
Y-179993D01*
Y-179540D01*
Y-179086D01*
Y-178633D01*
Y-178179D01*
Y-177726D01*
Y-177272D01*
Y-176819D01*
X955551D01*
Y-177272D01*
D02*
G37*
G36*
X1009071D02*
Y-177726D01*
Y-178179D01*
Y-178633D01*
Y-179086D01*
Y-179540D01*
Y-179993D01*
Y-180447D01*
Y-180901D01*
Y-181354D01*
Y-181808D01*
Y-182261D01*
Y-182715D01*
Y-183168D01*
Y-183622D01*
Y-184076D01*
Y-184529D01*
Y-184983D01*
Y-185436D01*
Y-185890D01*
Y-186343D01*
Y-186797D01*
Y-187250D01*
Y-187704D01*
Y-188158D01*
Y-188611D01*
Y-189065D01*
Y-189518D01*
Y-189972D01*
Y-190425D01*
Y-190879D01*
Y-191332D01*
Y-191786D01*
Y-192240D01*
Y-192693D01*
Y-193147D01*
Y-193600D01*
Y-194054D01*
Y-194507D01*
Y-194961D01*
Y-195414D01*
Y-195868D01*
Y-196322D01*
Y-196775D01*
Y-197229D01*
Y-197682D01*
Y-198136D01*
Y-198589D01*
Y-199043D01*
Y-199496D01*
Y-199950D01*
Y-200404D01*
Y-200857D01*
Y-201311D01*
Y-201764D01*
Y-202218D01*
Y-202671D01*
Y-203125D01*
Y-203578D01*
Y-204032D01*
Y-204486D01*
Y-204939D01*
Y-205393D01*
Y-205846D01*
Y-206300D01*
Y-206753D01*
Y-207207D01*
Y-207661D01*
Y-208114D01*
Y-208568D01*
Y-209021D01*
Y-209475D01*
Y-209928D01*
Y-210382D01*
Y-210835D01*
Y-211289D01*
Y-211742D01*
Y-212196D01*
Y-212650D01*
Y-213103D01*
Y-213557D01*
Y-214010D01*
Y-214464D01*
Y-214917D01*
Y-215371D01*
Y-215825D01*
Y-216278D01*
Y-216732D01*
Y-217185D01*
Y-217639D01*
Y-218092D01*
Y-218546D01*
Y-218999D01*
Y-219453D01*
Y-219907D01*
Y-220360D01*
Y-220814D01*
Y-221267D01*
Y-221721D01*
Y-222174D01*
Y-222628D01*
Y-223081D01*
Y-223535D01*
Y-223988D01*
Y-224442D01*
Y-224896D01*
Y-225349D01*
Y-225803D01*
Y-226256D01*
Y-226710D01*
Y-227163D01*
Y-227617D01*
Y-228071D01*
Y-228524D01*
Y-228978D01*
Y-229431D01*
Y-229885D01*
Y-230338D01*
Y-230792D01*
Y-231245D01*
Y-231699D01*
Y-232153D01*
Y-232606D01*
Y-233060D01*
Y-233513D01*
Y-233967D01*
Y-234420D01*
Y-234874D01*
Y-235327D01*
Y-235781D01*
Y-236234D01*
Y-236688D01*
Y-237142D01*
Y-237595D01*
Y-238049D01*
Y-238502D01*
X997732D01*
Y-238049D01*
Y-237595D01*
Y-237142D01*
Y-236688D01*
Y-236234D01*
Y-235781D01*
Y-235327D01*
Y-234874D01*
Y-234420D01*
Y-233967D01*
Y-233513D01*
Y-233060D01*
Y-232606D01*
Y-232153D01*
Y-231699D01*
Y-231245D01*
Y-230792D01*
Y-230338D01*
Y-229885D01*
Y-229431D01*
Y-228978D01*
Y-228524D01*
Y-228071D01*
Y-227617D01*
Y-227163D01*
Y-226710D01*
Y-226256D01*
Y-225803D01*
Y-225349D01*
Y-224896D01*
Y-224442D01*
Y-223988D01*
Y-223535D01*
Y-223081D01*
Y-222628D01*
Y-222174D01*
Y-221721D01*
Y-221267D01*
Y-220814D01*
Y-220360D01*
Y-219907D01*
Y-219453D01*
Y-218999D01*
Y-218546D01*
Y-218092D01*
Y-217639D01*
Y-217185D01*
Y-216732D01*
Y-216278D01*
Y-215825D01*
Y-215371D01*
Y-214917D01*
Y-214464D01*
Y-214010D01*
Y-213557D01*
Y-213103D01*
Y-212650D01*
Y-212196D01*
Y-211742D01*
Y-211289D01*
Y-210835D01*
Y-210382D01*
Y-209928D01*
Y-209475D01*
Y-209021D01*
Y-208568D01*
Y-208114D01*
Y-207661D01*
Y-207207D01*
Y-206753D01*
Y-206300D01*
Y-205846D01*
Y-205393D01*
Y-204939D01*
Y-204486D01*
Y-204032D01*
Y-203578D01*
Y-203125D01*
Y-202671D01*
Y-202218D01*
Y-201764D01*
Y-201311D01*
Y-200857D01*
Y-200404D01*
Y-199950D01*
Y-199496D01*
Y-199043D01*
Y-198589D01*
Y-198136D01*
Y-197682D01*
Y-197229D01*
Y-196775D01*
Y-196322D01*
Y-195868D01*
Y-195414D01*
Y-194961D01*
Y-194507D01*
Y-194054D01*
Y-193600D01*
Y-193147D01*
Y-192693D01*
Y-192240D01*
Y-191786D01*
Y-191332D01*
Y-190879D01*
Y-190425D01*
Y-189972D01*
Y-189518D01*
Y-189065D01*
Y-188611D01*
Y-188158D01*
Y-187704D01*
Y-187250D01*
Y-186797D01*
Y-186343D01*
Y-185890D01*
Y-185436D01*
Y-184983D01*
Y-184529D01*
Y-184076D01*
Y-183622D01*
Y-183168D01*
Y-182715D01*
Y-182261D01*
Y-181808D01*
Y-181354D01*
Y-180901D01*
Y-180447D01*
Y-179993D01*
Y-179540D01*
Y-179086D01*
Y-178633D01*
Y-178179D01*
Y-177726D01*
Y-177272D01*
Y-176819D01*
X1009071D01*
Y-177272D01*
D02*
G37*
G36*
X1045355Y-194054D02*
X1047623D01*
Y-194507D01*
X1048984D01*
Y-194961D01*
X1050344D01*
Y-195414D01*
X1051252D01*
Y-195868D01*
X1052159D01*
Y-196322D01*
X1053066D01*
Y-196775D01*
X1053973D01*
Y-197229D01*
X1054426D01*
Y-197682D01*
X1055333D01*
Y-198136D01*
X1055787D01*
Y-198589D01*
X1056241D01*
Y-199043D01*
X1056694D01*
Y-199496D01*
X1057148D01*
Y-199950D01*
X1057601D01*
Y-200404D01*
X1058055D01*
Y-200857D01*
X1058508D01*
Y-201311D01*
X1058962D01*
Y-201764D01*
Y-202218D01*
X1059416D01*
Y-202671D01*
X1059869D01*
Y-203125D01*
Y-203578D01*
X1060323D01*
Y-204032D01*
Y-204486D01*
X1060776D01*
Y-204939D01*
Y-205393D01*
X1061230D01*
Y-205846D01*
Y-206300D01*
X1061683D01*
Y-206753D01*
Y-207207D01*
Y-207661D01*
X1062137D01*
Y-208114D01*
Y-208568D01*
Y-209021D01*
Y-209475D01*
Y-209928D01*
X1062590D01*
Y-210382D01*
Y-210835D01*
Y-211289D01*
Y-211742D01*
Y-212196D01*
Y-212650D01*
Y-213103D01*
X1063044D01*
Y-213557D01*
Y-214010D01*
Y-214464D01*
Y-214917D01*
Y-215371D01*
Y-215825D01*
Y-216278D01*
Y-216732D01*
Y-217185D01*
Y-217639D01*
Y-218092D01*
Y-218546D01*
Y-218999D01*
Y-219453D01*
Y-219907D01*
X1062590D01*
Y-220360D01*
Y-220814D01*
Y-221267D01*
Y-221721D01*
Y-222174D01*
Y-222628D01*
Y-223081D01*
X1062137D01*
Y-223535D01*
Y-223988D01*
Y-224442D01*
Y-224896D01*
X1061683D01*
Y-225349D01*
Y-225803D01*
Y-226256D01*
X1061230D01*
Y-226710D01*
Y-227163D01*
Y-227617D01*
X1060776D01*
Y-228071D01*
Y-228524D01*
X1060323D01*
Y-228978D01*
Y-229431D01*
X1059869D01*
Y-229885D01*
Y-230338D01*
X1059416D01*
Y-230792D01*
X1058962D01*
Y-231245D01*
X1058508D01*
Y-231699D01*
Y-232153D01*
X1058055D01*
Y-232606D01*
X1057601D01*
Y-233060D01*
X1057148D01*
Y-233513D01*
X1056694D01*
Y-233967D01*
X1056241D01*
Y-234420D01*
X1055787D01*
Y-234874D01*
X1054880D01*
Y-235327D01*
X1054426D01*
Y-235781D01*
X1053519D01*
Y-236234D01*
X1053066D01*
Y-236688D01*
X1052159D01*
Y-237142D01*
X1051252D01*
Y-237595D01*
X1049891D01*
Y-238049D01*
X1048530D01*
Y-238502D01*
X1047169D01*
Y-238956D01*
X1044902D01*
Y-239409D01*
X1035377D01*
Y-238956D01*
X1032656D01*
Y-238502D01*
X1030841D01*
Y-238049D01*
X1029934D01*
Y-237595D01*
X1028574D01*
Y-237142D01*
X1027667D01*
Y-236688D01*
X1026759D01*
Y-236234D01*
X1026306D01*
Y-235781D01*
X1025399D01*
Y-235327D01*
X1024945D01*
Y-234874D01*
X1024038D01*
Y-234420D01*
X1023585D01*
Y-233967D01*
X1023131D01*
Y-233513D01*
X1022678D01*
Y-233060D01*
X1022224D01*
Y-232606D01*
X1021770D01*
Y-232153D01*
X1021317D01*
Y-231699D01*
Y-231245D01*
X1020863D01*
Y-230792D01*
X1020410D01*
Y-230338D01*
X1019956D01*
Y-229885D01*
Y-229431D01*
X1019503D01*
Y-228978D01*
Y-228524D01*
X1019049D01*
Y-228071D01*
Y-227617D01*
X1018595D01*
Y-227163D01*
Y-226710D01*
Y-226256D01*
X1018142D01*
Y-225803D01*
Y-225349D01*
Y-224896D01*
X1017688D01*
Y-224442D01*
Y-223988D01*
Y-223535D01*
Y-223081D01*
X1017235D01*
Y-222628D01*
Y-222174D01*
Y-221721D01*
Y-221267D01*
Y-220814D01*
Y-220360D01*
Y-219907D01*
Y-219453D01*
X1016781D01*
Y-218999D01*
Y-218546D01*
Y-218092D01*
Y-217639D01*
Y-217185D01*
Y-216732D01*
Y-216278D01*
Y-215825D01*
Y-215371D01*
Y-214917D01*
Y-214464D01*
Y-214010D01*
Y-213557D01*
X1017235D01*
Y-213103D01*
Y-212650D01*
Y-212196D01*
Y-211742D01*
Y-211289D01*
Y-210835D01*
Y-210382D01*
Y-209928D01*
X1017688D01*
Y-209475D01*
Y-209021D01*
Y-208568D01*
Y-208114D01*
X1018142D01*
Y-207661D01*
Y-207207D01*
Y-206753D01*
X1018595D01*
Y-206300D01*
Y-205846D01*
Y-205393D01*
X1019049D01*
Y-204939D01*
Y-204486D01*
X1019503D01*
Y-204032D01*
Y-203578D01*
X1019956D01*
Y-203125D01*
Y-202671D01*
X1020410D01*
Y-202218D01*
X1020863D01*
Y-201764D01*
Y-201311D01*
X1021317D01*
Y-200857D01*
X1021770D01*
Y-200404D01*
X1022224D01*
Y-199950D01*
X1022678D01*
Y-199496D01*
X1023131D01*
Y-199043D01*
X1023585D01*
Y-198589D01*
X1024038D01*
Y-198136D01*
X1024492D01*
Y-197682D01*
X1025399D01*
Y-197229D01*
X1025852D01*
Y-196775D01*
X1026759D01*
Y-196322D01*
X1027667D01*
Y-195868D01*
X1028574D01*
Y-195414D01*
X1029481D01*
Y-194961D01*
X1030841D01*
Y-194507D01*
X1032202D01*
Y-194054D01*
X1034470D01*
Y-193600D01*
X1045355D01*
Y-194054D01*
D02*
G37*
G36*
X1111121Y-194961D02*
X1110667D01*
Y-195414D01*
Y-195868D01*
X1110214D01*
Y-196322D01*
X1109760D01*
Y-196775D01*
X1109307D01*
Y-197229D01*
Y-197682D01*
X1108853D01*
Y-198136D01*
X1108400D01*
Y-198589D01*
Y-199043D01*
X1107946D01*
Y-199496D01*
X1107492D01*
Y-199950D01*
X1107039D01*
Y-200404D01*
Y-200857D01*
X1106585D01*
Y-201311D01*
X1106132D01*
Y-201764D01*
X1105678D01*
Y-202218D01*
Y-202671D01*
X1105225D01*
Y-203125D01*
X1104771D01*
Y-203578D01*
X1104317D01*
Y-204032D01*
Y-204486D01*
X1103864D01*
Y-204939D01*
X1103410D01*
Y-205393D01*
Y-205846D01*
X1102957D01*
Y-206300D01*
X1102503D01*
Y-206753D01*
X1102050D01*
Y-207207D01*
Y-207661D01*
X1101596D01*
Y-208114D01*
X1101143D01*
Y-208568D01*
X1100689D01*
Y-209021D01*
Y-209475D01*
X1100236D01*
Y-209928D01*
X1099782D01*
Y-210382D01*
Y-210835D01*
X1099328D01*
Y-211289D01*
X1098875D01*
Y-211742D01*
X1098421D01*
Y-212196D01*
Y-212650D01*
X1097968D01*
Y-213103D01*
X1097514D01*
Y-213557D01*
X1097061D01*
Y-214010D01*
Y-214464D01*
X1096607D01*
Y-214917D01*
X1096153D01*
Y-215371D01*
X1095700D01*
Y-215825D01*
Y-216278D01*
Y-216732D01*
X1096153D01*
Y-217185D01*
Y-217639D01*
X1096607D01*
Y-218092D01*
X1097061D01*
Y-218546D01*
X1097514D01*
Y-218999D01*
Y-219453D01*
X1097968D01*
Y-219907D01*
X1098421D01*
Y-220360D01*
X1098875D01*
Y-220814D01*
Y-221267D01*
X1099328D01*
Y-221721D01*
X1099782D01*
Y-222174D01*
Y-222628D01*
X1100236D01*
Y-223081D01*
X1100689D01*
Y-223535D01*
X1101143D01*
Y-223988D01*
Y-224442D01*
X1101596D01*
Y-224896D01*
X1102050D01*
Y-225349D01*
X1102503D01*
Y-225803D01*
Y-226256D01*
X1102957D01*
Y-226710D01*
X1103410D01*
Y-227163D01*
X1103864D01*
Y-227617D01*
Y-228071D01*
X1104317D01*
Y-228524D01*
X1104771D01*
Y-228978D01*
X1105225D01*
Y-229431D01*
Y-229885D01*
X1105678D01*
Y-230338D01*
X1106132D01*
Y-230792D01*
X1106585D01*
Y-231245D01*
Y-231699D01*
X1107039D01*
Y-232153D01*
X1107492D01*
Y-232606D01*
X1107946D01*
Y-233060D01*
Y-233513D01*
X1108400D01*
Y-233967D01*
X1108853D01*
Y-234420D01*
Y-234874D01*
X1109307D01*
Y-235327D01*
X1109760D01*
Y-235781D01*
X1110214D01*
Y-236234D01*
Y-236688D01*
X1110667D01*
Y-237142D01*
X1111121D01*
Y-237595D01*
X1111574D01*
Y-238049D01*
X1112028D01*
Y-238502D01*
X1097514D01*
Y-238049D01*
Y-237595D01*
X1097061D01*
Y-237142D01*
X1096607D01*
Y-236688D01*
X1096153D01*
Y-236234D01*
Y-235781D01*
X1095700D01*
Y-235327D01*
X1095246D01*
Y-234874D01*
X1094793D01*
Y-234420D01*
Y-233967D01*
X1094339D01*
Y-233513D01*
X1093886D01*
Y-233060D01*
Y-232606D01*
X1093432D01*
Y-232153D01*
X1092979D01*
Y-231699D01*
X1092525D01*
Y-231245D01*
Y-230792D01*
X1092072D01*
Y-230338D01*
X1091618D01*
Y-229885D01*
X1091164D01*
Y-229431D01*
Y-228978D01*
X1090711D01*
Y-228524D01*
X1090257D01*
Y-228071D01*
Y-227617D01*
X1089804D01*
Y-227163D01*
X1089350D01*
Y-226710D01*
X1088897D01*
Y-226256D01*
Y-225803D01*
X1088443D01*
Y-225349D01*
X1087990D01*
Y-224896D01*
X1087536D01*
Y-224442D01*
X1087082D01*
Y-224896D01*
Y-225349D01*
X1086629D01*
Y-225803D01*
X1086175D01*
Y-226256D01*
X1085722D01*
Y-226710D01*
Y-227163D01*
X1085268D01*
Y-227617D01*
X1084815D01*
Y-228071D01*
Y-228524D01*
X1084361D01*
Y-228978D01*
X1083907D01*
Y-229431D01*
X1083454D01*
Y-229885D01*
Y-230338D01*
X1083000D01*
Y-230792D01*
X1082547D01*
Y-231245D01*
Y-231699D01*
X1082093D01*
Y-232153D01*
X1081640D01*
Y-232606D01*
X1081186D01*
Y-233060D01*
Y-233513D01*
X1080733D01*
Y-233967D01*
X1080279D01*
Y-234420D01*
Y-234874D01*
X1079826D01*
Y-235327D01*
X1079372D01*
Y-235781D01*
X1078918D01*
Y-236234D01*
Y-236688D01*
X1078465D01*
Y-237142D01*
X1078011D01*
Y-237595D01*
Y-238049D01*
X1077558D01*
Y-238502D01*
X1064405D01*
Y-238049D01*
X1064858D01*
Y-237595D01*
X1065312D01*
Y-237142D01*
Y-236688D01*
X1065765D01*
Y-236234D01*
X1066219D01*
Y-235781D01*
X1066672D01*
Y-235327D01*
Y-234874D01*
X1067126D01*
Y-234420D01*
X1067579D01*
Y-233967D01*
Y-233513D01*
X1068033D01*
Y-233060D01*
X1068487D01*
Y-232606D01*
X1068940D01*
Y-232153D01*
X1069394D01*
Y-231699D01*
Y-231245D01*
X1069847D01*
Y-230792D01*
X1070301D01*
Y-230338D01*
Y-229885D01*
X1070754D01*
Y-229431D01*
X1071208D01*
Y-228978D01*
X1071662D01*
Y-228524D01*
Y-228071D01*
X1072115D01*
Y-227617D01*
X1072569D01*
Y-227163D01*
X1073022D01*
Y-226710D01*
Y-226256D01*
X1073476D01*
Y-225803D01*
X1073929D01*
Y-225349D01*
X1074383D01*
Y-224896D01*
Y-224442D01*
X1074836D01*
Y-223988D01*
X1075290D01*
Y-223535D01*
X1075743D01*
Y-223081D01*
Y-222628D01*
X1076197D01*
Y-222174D01*
X1076651D01*
Y-221721D01*
X1077104D01*
Y-221267D01*
Y-220814D01*
X1077558D01*
Y-220360D01*
X1078011D01*
Y-219907D01*
X1078465D01*
Y-219453D01*
Y-218999D01*
X1078918D01*
Y-218546D01*
X1079372D01*
Y-218092D01*
Y-217639D01*
X1079826D01*
Y-217185D01*
X1080279D01*
Y-216732D01*
X1080733D01*
Y-216278D01*
Y-215825D01*
X1080279D01*
Y-215371D01*
X1079826D01*
Y-214917D01*
X1079372D01*
Y-214464D01*
Y-214010D01*
X1078918D01*
Y-213557D01*
X1078465D01*
Y-213103D01*
X1078011D01*
Y-212650D01*
Y-212196D01*
X1077558D01*
Y-211742D01*
X1077104D01*
Y-211289D01*
Y-210835D01*
X1076651D01*
Y-210382D01*
X1076197D01*
Y-209928D01*
X1075743D01*
Y-209475D01*
Y-209021D01*
X1075290D01*
Y-208568D01*
X1074836D01*
Y-208114D01*
X1074383D01*
Y-207661D01*
Y-207207D01*
X1073929D01*
Y-206753D01*
X1073476D01*
Y-206300D01*
Y-205846D01*
X1073022D01*
Y-205393D01*
X1072569D01*
Y-204939D01*
X1072115D01*
Y-204486D01*
Y-204032D01*
X1071662D01*
Y-203578D01*
X1071208D01*
Y-203125D01*
X1070754D01*
Y-202671D01*
Y-202218D01*
X1070301D01*
Y-201764D01*
X1069847D01*
Y-201311D01*
Y-200857D01*
X1069394D01*
Y-200404D01*
X1068940D01*
Y-199950D01*
X1068487D01*
Y-199496D01*
Y-199043D01*
X1068033D01*
Y-198589D01*
X1067579D01*
Y-198136D01*
X1067126D01*
Y-197682D01*
Y-197229D01*
X1066672D01*
Y-196775D01*
X1066219D01*
Y-196322D01*
Y-195868D01*
X1065765D01*
Y-195414D01*
X1065312D01*
Y-194961D01*
X1064858D01*
Y-194507D01*
X1078918D01*
Y-194961D01*
X1079372D01*
Y-195414D01*
X1079826D01*
Y-195868D01*
Y-196322D01*
X1080279D01*
Y-196775D01*
X1080733D01*
Y-197229D01*
X1081186D01*
Y-197682D01*
Y-198136D01*
X1081640D01*
Y-198589D01*
X1082093D01*
Y-199043D01*
Y-199496D01*
X1082547D01*
Y-199950D01*
X1083000D01*
Y-200404D01*
Y-200857D01*
X1083454D01*
Y-201311D01*
X1083907D01*
Y-201764D01*
X1084361D01*
Y-202218D01*
Y-202671D01*
X1084815D01*
Y-203125D01*
X1085268D01*
Y-203578D01*
Y-204032D01*
X1085722D01*
Y-204486D01*
X1086175D01*
Y-204939D01*
X1086629D01*
Y-205393D01*
Y-205846D01*
X1087082D01*
Y-206300D01*
X1087536D01*
Y-206753D01*
Y-207207D01*
X1087990D01*
Y-207661D01*
X1088443D01*
Y-208114D01*
X1088897D01*
Y-207661D01*
X1089350D01*
Y-207207D01*
Y-206753D01*
X1089804D01*
Y-206300D01*
X1090257D01*
Y-205846D01*
X1090711D01*
Y-205393D01*
Y-204939D01*
X1091164D01*
Y-204486D01*
X1091618D01*
Y-204032D01*
Y-203578D01*
X1092072D01*
Y-203125D01*
X1092525D01*
Y-202671D01*
X1092979D01*
Y-202218D01*
Y-201764D01*
X1093432D01*
Y-201311D01*
X1093886D01*
Y-200857D01*
Y-200404D01*
X1094339D01*
Y-199950D01*
X1094793D01*
Y-199496D01*
X1095246D01*
Y-199043D01*
Y-198589D01*
X1095700D01*
Y-198136D01*
X1096153D01*
Y-197682D01*
Y-197229D01*
X1096607D01*
Y-196775D01*
X1097061D01*
Y-196322D01*
X1097514D01*
Y-195868D01*
Y-195414D01*
X1097968D01*
Y-194961D01*
X1098421D01*
Y-194507D01*
X1111121D01*
Y-194961D01*
D02*
G37*
%LPC*%
G36*
X873457Y-173644D02*
X871190D01*
Y-174097D01*
X869376D01*
Y-174551D01*
X868468D01*
Y-175004D01*
X867561D01*
Y-175458D01*
X866654D01*
Y-175912D01*
X866201D01*
Y-176365D01*
X865747D01*
Y-176819D01*
X865294D01*
Y-177272D01*
X864840D01*
Y-177726D01*
Y-178179D01*
X864386D01*
Y-178633D01*
X863933D01*
Y-179086D01*
Y-179540D01*
X863479D01*
Y-179993D01*
Y-180447D01*
Y-180901D01*
Y-181354D01*
X863026D01*
Y-181808D01*
Y-182261D01*
Y-182715D01*
Y-183168D01*
Y-183622D01*
Y-184076D01*
Y-184529D01*
Y-184983D01*
X863479D01*
Y-185436D01*
Y-185890D01*
Y-186343D01*
X863933D01*
Y-186797D01*
Y-187250D01*
X864386D01*
Y-187704D01*
Y-188158D01*
X864840D01*
Y-188611D01*
X865294D01*
Y-189065D01*
X865747D01*
Y-189518D01*
X866201D01*
Y-189972D01*
X866654D01*
Y-190425D01*
X867108D01*
Y-190879D01*
X868015D01*
Y-191332D01*
X868922D01*
Y-191786D01*
X870283D01*
Y-192240D01*
X874365D01*
Y-191786D01*
X875725D01*
Y-191332D01*
X876632D01*
Y-190879D01*
X877540D01*
Y-190425D01*
X877993D01*
Y-189972D01*
X878447D01*
Y-189518D01*
X879354D01*
Y-189065D01*
Y-188611D01*
X879807D01*
Y-188158D01*
X880261D01*
Y-187704D01*
Y-187250D01*
X880714D01*
Y-186797D01*
Y-186343D01*
X881168D01*
Y-185890D01*
Y-185436D01*
Y-184983D01*
X881622D01*
Y-184529D01*
Y-184076D01*
Y-183622D01*
Y-183168D01*
Y-182715D01*
Y-182261D01*
Y-181808D01*
Y-181354D01*
X881168D01*
Y-180901D01*
Y-180447D01*
Y-179993D01*
Y-179540D01*
X880714D01*
Y-179086D01*
Y-178633D01*
X880261D01*
Y-178179D01*
Y-177726D01*
X879807D01*
Y-177272D01*
X879354D01*
Y-176819D01*
X878900D01*
Y-176365D01*
X878447D01*
Y-175912D01*
X877993D01*
Y-175458D01*
X877086D01*
Y-175004D01*
X876632D01*
Y-174551D01*
X875272D01*
Y-174097D01*
X873457D01*
Y-173644D01*
D02*
G37*
G36*
X968251Y-203578D02*
X964169D01*
Y-204032D01*
X962355D01*
Y-204486D01*
X960994D01*
Y-204939D01*
X960087D01*
Y-205393D01*
X959633D01*
Y-205846D01*
X958726D01*
Y-206300D01*
X958272D01*
Y-206753D01*
X957819D01*
Y-207207D01*
Y-207661D01*
X957365D01*
Y-208114D01*
X956912D01*
Y-208568D01*
Y-209021D01*
X956458D01*
Y-209475D01*
Y-209928D01*
X956005D01*
Y-210382D01*
Y-210835D01*
Y-211289D01*
X955551D01*
Y-211742D01*
Y-212196D01*
Y-212650D01*
Y-213103D01*
Y-213557D01*
X955098D01*
Y-214010D01*
Y-214464D01*
Y-214917D01*
Y-215371D01*
Y-215825D01*
Y-216278D01*
Y-216732D01*
Y-217185D01*
Y-217639D01*
Y-218092D01*
Y-218546D01*
Y-218999D01*
Y-219453D01*
X955551D01*
Y-219907D01*
Y-220360D01*
Y-220814D01*
Y-221267D01*
Y-221721D01*
X956005D01*
Y-222174D01*
Y-222628D01*
Y-223081D01*
X956458D01*
Y-223535D01*
Y-223988D01*
X956912D01*
Y-224442D01*
Y-224896D01*
X957365D01*
Y-225349D01*
X957819D01*
Y-225803D01*
X958272D01*
Y-226256D01*
X958726D01*
Y-226710D01*
X959180D01*
Y-227163D01*
X959633D01*
Y-227617D01*
X960540D01*
Y-228071D01*
X961447D01*
Y-228524D01*
X962355D01*
Y-228978D01*
X964622D01*
Y-229431D01*
X967797D01*
Y-228978D01*
X970065D01*
Y-228524D01*
X971426D01*
Y-228071D01*
X972333D01*
Y-227617D01*
X972786D01*
Y-227163D01*
X973693D01*
Y-226710D01*
X974147D01*
Y-226256D01*
X974601D01*
Y-225803D01*
X975054D01*
Y-225349D01*
Y-224896D01*
X975508D01*
Y-224442D01*
X975961D01*
Y-223988D01*
Y-223535D01*
X976415D01*
Y-223081D01*
Y-222628D01*
Y-222174D01*
X976868D01*
Y-221721D01*
Y-221267D01*
Y-220814D01*
Y-220360D01*
X977322D01*
Y-219907D01*
Y-219453D01*
Y-218999D01*
Y-218546D01*
Y-218092D01*
Y-217639D01*
Y-217185D01*
Y-216732D01*
Y-216278D01*
Y-215825D01*
Y-215371D01*
Y-214917D01*
Y-214464D01*
Y-214010D01*
Y-213557D01*
Y-213103D01*
Y-212650D01*
Y-212196D01*
X976868D01*
Y-211742D01*
Y-211289D01*
Y-210835D01*
Y-210382D01*
X976415D01*
Y-209928D01*
Y-209475D01*
X975961D01*
Y-209021D01*
Y-208568D01*
X975508D01*
Y-208114D01*
Y-207661D01*
X975054D01*
Y-207207D01*
X974601D01*
Y-206753D01*
X974147D01*
Y-206300D01*
X973693D01*
Y-205846D01*
X973240D01*
Y-205393D01*
X972333D01*
Y-204939D01*
X971426D01*
Y-204486D01*
X970518D01*
Y-204032D01*
X968251D01*
Y-203578D01*
D02*
G37*
G36*
X1042180D02*
X1037645D01*
Y-204032D01*
X1035831D01*
Y-204486D01*
X1034470D01*
Y-204939D01*
X1033563D01*
Y-205393D01*
X1033109D01*
Y-205846D01*
X1032656D01*
Y-206300D01*
X1032202D01*
Y-206753D01*
X1031749D01*
Y-207207D01*
X1031295D01*
Y-207661D01*
X1030841D01*
Y-208114D01*
X1030388D01*
Y-208568D01*
Y-209021D01*
X1029934D01*
Y-209475D01*
Y-209928D01*
X1029481D01*
Y-210382D01*
Y-210835D01*
Y-211289D01*
X1029027D01*
Y-211742D01*
Y-212196D01*
Y-212650D01*
Y-213103D01*
Y-213557D01*
Y-214010D01*
Y-214464D01*
X1028574D01*
Y-214917D01*
Y-215371D01*
Y-215825D01*
Y-216278D01*
Y-216732D01*
Y-217185D01*
Y-217639D01*
Y-218092D01*
X1029027D01*
Y-218546D01*
Y-218999D01*
Y-219453D01*
Y-219907D01*
Y-220360D01*
Y-220814D01*
Y-221267D01*
X1029481D01*
Y-221721D01*
Y-222174D01*
Y-222628D01*
X1029934D01*
Y-223081D01*
Y-223535D01*
Y-223988D01*
X1030388D01*
Y-224442D01*
X1030841D01*
Y-224896D01*
Y-225349D01*
X1031295D01*
Y-225803D01*
X1031749D01*
Y-226256D01*
X1032202D01*
Y-226710D01*
X1032656D01*
Y-227163D01*
X1033109D01*
Y-227617D01*
X1034016D01*
Y-228071D01*
X1034923D01*
Y-228524D01*
X1036284D01*
Y-228978D01*
X1038552D01*
Y-229431D01*
X1041273D01*
Y-228978D01*
X1043541D01*
Y-228524D01*
X1044902D01*
Y-228071D01*
X1045809D01*
Y-227617D01*
X1046716D01*
Y-227163D01*
X1047169D01*
Y-226710D01*
X1047623D01*
Y-226256D01*
X1048077D01*
Y-225803D01*
X1048530D01*
Y-225349D01*
X1048984D01*
Y-224896D01*
Y-224442D01*
X1049437D01*
Y-223988D01*
X1049891D01*
Y-223535D01*
Y-223081D01*
Y-222628D01*
X1050344D01*
Y-222174D01*
Y-221721D01*
Y-221267D01*
X1050798D01*
Y-220814D01*
Y-220360D01*
Y-219907D01*
Y-219453D01*
Y-218999D01*
X1051252D01*
Y-218546D01*
Y-218092D01*
Y-217639D01*
Y-217185D01*
Y-216732D01*
Y-216278D01*
Y-215825D01*
Y-215371D01*
Y-214917D01*
Y-214464D01*
Y-214010D01*
X1050798D01*
Y-213557D01*
Y-213103D01*
Y-212650D01*
Y-212196D01*
Y-211742D01*
Y-211289D01*
X1050344D01*
Y-210835D01*
Y-210382D01*
Y-209928D01*
X1049891D01*
Y-209475D01*
Y-209021D01*
X1049437D01*
Y-208568D01*
Y-208114D01*
X1048984D01*
Y-207661D01*
X1048530D01*
Y-207207D01*
X1048077D01*
Y-206753D01*
X1047623D01*
Y-206300D01*
X1047169D01*
Y-205846D01*
X1046716D01*
Y-205393D01*
X1045809D01*
Y-204939D01*
X1045355D01*
Y-204486D01*
X1043995D01*
Y-204032D01*
X1042180D01*
Y-203578D01*
D02*
G37*
%LPD*%
D11*
X250000Y62460D02*
Y67540D01*
X247460Y65000D02*
X252540D01*
X64420Y294305D02*
X74580D01*
X69500Y289225D02*
Y299385D01*
X2118430Y440930D02*
X2117946Y441898D01*
X2116978Y442865D01*
X2116011Y443349D01*
X2114076D01*
X2113109Y442865D01*
X2112141Y441898D01*
X2111658Y440930D01*
X2111174Y439479D01*
Y437061D01*
X2111658Y435610D01*
X2112141Y434642D01*
X2113109Y433675D01*
X2114076Y433191D01*
X2116011D01*
X2116978Y433675D01*
X2117946Y434642D01*
X2118430Y435610D01*
X2123702Y439963D02*
X2122735Y439479D01*
X2121767Y438512D01*
X2121284Y437061D01*
Y436093D01*
X2121767Y434642D01*
X2122735Y433675D01*
X2123702Y433191D01*
X2125153D01*
X2126120Y433675D01*
X2127088Y434642D01*
X2127572Y436093D01*
Y437061D01*
X2127088Y438512D01*
X2126120Y439479D01*
X2125153Y439963D01*
X2123702D01*
X2129797D02*
Y435126D01*
X2130280Y433675D01*
X2131248Y433191D01*
X2132699D01*
X2133666Y433675D01*
X2135117Y435126D01*
Y439963D02*
Y433191D01*
X2137778Y439963D02*
Y433191D01*
Y437061D02*
X2138262Y438512D01*
X2139229Y439479D01*
X2140196Y439963D01*
X2141647D01*
X2144018Y443349D02*
Y435126D01*
X2144501Y433675D01*
X2145469Y433191D01*
X2146436D01*
X2142567Y439963D02*
X2145952D01*
X2148371D02*
X2151273Y433191D01*
X2154176Y439963D02*
X2151273Y433191D01*
X2150306Y431256D01*
X2149338Y430289D01*
X2148371Y429805D01*
X2147887D01*
X2161673Y439963D02*
Y433191D01*
Y438512D02*
X2160706Y439479D01*
X2159738Y439963D01*
X2158287D01*
X2157320Y439479D01*
X2156352Y438512D01*
X2155868Y437061D01*
Y436093D01*
X2156352Y434642D01*
X2157320Y433675D01*
X2158287Y433191D01*
X2159738D01*
X2160706Y433675D01*
X2161673Y434642D01*
X2164382Y439963D02*
Y433191D01*
Y437061D02*
X2164865Y438512D01*
X2165833Y439479D01*
X2166800Y439963D01*
X2168251D01*
X2174975Y443349D02*
Y433191D01*
Y438512D02*
X2174007Y439479D01*
X2173040Y439963D01*
X2171589D01*
X2170621Y439479D01*
X2169654Y438512D01*
X2169170Y437061D01*
Y436093D01*
X2169654Y434642D01*
X2170621Y433675D01*
X2171589Y433191D01*
X2173040D01*
X2174007Y433675D01*
X2174975Y434642D01*
X2189051Y443349D02*
Y433191D01*
X2185665Y443349D02*
X2192437D01*
X2196064Y439963D02*
X2195097Y439479D01*
X2194129Y438512D01*
X2193646Y437061D01*
Y436093D01*
X2194129Y434642D01*
X2195097Y433675D01*
X2196064Y433191D01*
X2197516D01*
X2198483Y433675D01*
X2199450Y434642D01*
X2199934Y436093D01*
Y437061D01*
X2199450Y438512D01*
X2198483Y439479D01*
X2197516Y439963D01*
X2196064D01*
X2202159D02*
Y429805D01*
Y438512D02*
X2203127Y439479D01*
X2204094Y439963D01*
X2205545D01*
X2206512Y439479D01*
X2207480Y438512D01*
X2207964Y437061D01*
Y436093D01*
X2207480Y434642D01*
X2206512Y433675D01*
X2205545Y433191D01*
X2204094D01*
X2203127Y433675D01*
X2202159Y434642D01*
X2227580Y1486408D02*
Y1524508D01*
X2057400Y1486408D02*
Y1524508D01*
X1470660Y1486408D02*
Y1524508D01*
X1562100Y1486408D02*
Y1524508D01*
Y1681988D01*
X1470660Y1524508D02*
Y1740408D01*
Y1524508D02*
X2344420D01*
X1470660Y1486408D02*
X2344420D01*
X1582360Y-165262D02*
Y-128686D01*
X1201360D02*
X1582360D01*
X772160D02*
X1201360D01*
X1582360Y-317662D02*
Y-165262D01*
X2115760Y-317662D02*
Y-187868D01*
X1201360Y-317662D02*
Y-128686D01*
X2344360Y-317662D02*
Y-128686D01*
X1582360D02*
X2344360D01*
X1201360Y-187106D02*
X2344360D01*
X1201360Y-250352D02*
X2344360D01*
X1201360Y-317662D02*
X2344360D01*
X772160D02*
Y-128686D01*
Y-317662D02*
X1201360D01*
X2227580Y1524508D02*
Y1681988D01*
X2057400Y1524508D02*
Y1681988D01*
X1470660D02*
X2344360D01*
X1470660Y1600708D02*
X2344360D01*
X1470660Y1638808D02*
X2344420D01*
X1470660Y1562608D02*
X2344360D01*
X-398780Y-367792D02*
X2395220D01*
X2344360Y171288D02*
X2395160D01*
X2344360Y711038D02*
X2395160D01*
X2344360Y1250788D02*
X2395160D01*
X2344360Y-317662D02*
Y1739738D01*
X2395220Y-367792D02*
Y1791208D01*
X-398780D02*
X2395220D01*
X1696660Y1739738D02*
Y1790538D01*
X998160Y1739738D02*
Y1790538D01*
X299660Y1739738D02*
Y1790538D01*
X-348040Y1739738D02*
X2344360D01*
X1696660Y-368462D02*
Y-317662D01*
X998160Y-368462D02*
Y-317662D01*
X299660Y-368462D02*
Y-317662D01*
X-398840Y171288D02*
X-348040D01*
X-398840Y711038D02*
X-348040D01*
X-398840Y1250788D02*
X-348040D01*
X-398780Y-367792D02*
Y1791208D01*
X-348040Y-317662D02*
Y1739738D01*
Y-317662D02*
X2344360D01*
X1588202Y-207172D02*
Y-194476D01*
X1594550D01*
X1596666Y-196592D01*
Y-200824D01*
X1594550Y-202940D01*
X1588202D01*
X1609362Y-196592D02*
X1607246Y-194476D01*
X1603014D01*
X1600898Y-196592D01*
Y-205056D01*
X1603014Y-207172D01*
X1607246D01*
X1609362Y-205056D01*
X1613594Y-194476D02*
Y-207172D01*
X1619942D01*
X1622058Y-205056D01*
Y-202940D01*
X1619942Y-200824D01*
X1613594D01*
X1619942D01*
X1622058Y-198708D01*
Y-196592D01*
X1619942Y-194476D01*
X1613594D01*
X1638985Y-207172D02*
Y-194476D01*
X1647449Y-207172D01*
Y-194476D01*
X1651681Y-207172D02*
Y-198708D01*
X1655913Y-194476D01*
X1660145Y-198708D01*
Y-207172D01*
Y-200824D01*
X1651681D01*
X1664377Y-207172D02*
Y-194476D01*
X1668609Y-198708D01*
X1672841Y-194476D01*
Y-207172D01*
X1685537Y-194476D02*
X1677073D01*
Y-207172D01*
X1685537D01*
X1677073Y-200824D02*
X1681305D01*
X1689769Y-198708D02*
X1691885D01*
Y-200824D01*
X1689769D01*
Y-198708D01*
Y-205056D02*
X1691885D01*
Y-207172D01*
X1689769D01*
Y-205056D01*
X2128542Y-262632D02*
X2126426Y-260516D01*
X2122194D01*
X2120078Y-262632D01*
Y-264748D01*
X2122194Y-266864D01*
X2126426D01*
X2128542Y-268980D01*
Y-271096D01*
X2126426Y-273212D01*
X2122194D01*
X2120078Y-271096D01*
X2141238Y-262632D02*
X2139122Y-260516D01*
X2134890D01*
X2132774Y-262632D01*
Y-271096D01*
X2134890Y-273212D01*
X2139122D01*
X2141238Y-271096D01*
X2145470Y-273212D02*
Y-264748D01*
X2149702Y-260516D01*
X2153934Y-264748D01*
Y-273212D01*
Y-266864D01*
X2145470D01*
X2158166Y-260516D02*
Y-273212D01*
X2166630D01*
X2179326Y-260516D02*
X2170862D01*
Y-273212D01*
X2179326D01*
X2170862Y-266864D02*
X2175094D01*
X2183557Y-264748D02*
X2185673D01*
Y-266864D01*
X2183557D01*
Y-264748D01*
Y-271096D02*
X2185673D01*
Y-273212D01*
X2183557D01*
Y-271096D01*
X1595964Y-258576D02*
X1587500D01*
Y-264924D01*
X1591732D01*
X1587500D01*
Y-271272D01*
X1600196Y-258576D02*
X1604428D01*
X1602312D01*
Y-271272D01*
X1600196D01*
X1604428D01*
X1610776Y-258576D02*
Y-271272D01*
X1619240D01*
X1631936Y-258576D02*
X1623472D01*
Y-271272D01*
X1631936D01*
X1623472Y-264924D02*
X1627704D01*
X1648864Y-271272D02*
Y-258576D01*
X1657327Y-271272D01*
Y-258576D01*
X1661559Y-271272D02*
Y-262808D01*
X1665791Y-258576D01*
X1670023Y-262808D01*
Y-271272D01*
Y-264924D01*
X1661559D01*
X1674255Y-271272D02*
Y-258576D01*
X1678487Y-262808D01*
X1682719Y-258576D01*
Y-271272D01*
X1695415Y-258576D02*
X1686951D01*
Y-271272D01*
X1695415D01*
X1686951Y-264924D02*
X1691183D01*
X1699647Y-262808D02*
X1701763D01*
Y-264924D01*
X1699647D01*
Y-262808D01*
Y-269156D02*
X1701763D01*
Y-271272D01*
X1699647D01*
Y-269156D01*
X1589472Y-152816D02*
Y-140120D01*
X1595820D01*
X1597936Y-142236D01*
Y-146468D01*
X1595820Y-148584D01*
X1589472D01*
X1602168Y-152816D02*
Y-140120D01*
X1608516D01*
X1610632Y-142236D01*
Y-146468D01*
X1608516Y-148584D01*
X1602168D01*
X1606400D02*
X1610632Y-152816D01*
X1621212Y-140120D02*
X1616980D01*
X1614864Y-142236D01*
Y-150700D01*
X1616980Y-152816D01*
X1621212D01*
X1623328Y-150700D01*
Y-142236D01*
X1621212Y-140120D01*
X1636024D02*
X1631792D01*
X1633908D01*
Y-150700D01*
X1631792Y-152816D01*
X1629676D01*
X1627560Y-150700D01*
X1648719Y-140120D02*
X1640255D01*
Y-152816D01*
X1648719D01*
X1640255Y-146468D02*
X1644487D01*
X1661415Y-142236D02*
X1659299Y-140120D01*
X1655067D01*
X1652951Y-142236D01*
Y-150700D01*
X1655067Y-152816D01*
X1659299D01*
X1661415Y-150700D01*
X1665647Y-140120D02*
X1674111D01*
X1669879D01*
Y-152816D01*
X1678343Y-144352D02*
X1680459D01*
Y-146468D01*
X1678343D01*
Y-144352D01*
Y-150700D02*
X1680459D01*
Y-152816D01*
X1678343D01*
Y-150700D01*
X1212872Y-140374D02*
X1204408D01*
Y-153070D01*
X1212872D01*
X1204408Y-146722D02*
X1208640D01*
X1217104Y-153070D02*
Y-140374D01*
X1225568Y-153070D01*
Y-140374D01*
X1238264Y-142490D02*
X1236148Y-140374D01*
X1231916D01*
X1229800Y-142490D01*
Y-150954D01*
X1231916Y-153070D01*
X1236148D01*
X1238264Y-150954D01*
Y-146722D01*
X1234032D01*
X1242496Y-140374D02*
X1246728D01*
X1244612D01*
Y-153070D01*
X1242496D01*
X1246728D01*
X1253076D02*
Y-140374D01*
X1261540Y-153070D01*
Y-140374D01*
X1274235D02*
X1265771D01*
Y-153070D01*
X1274235D01*
X1265771Y-146722D02*
X1270003D01*
X1286931Y-140374D02*
X1278467D01*
Y-153070D01*
X1286931D01*
X1278467Y-146722D02*
X1282699D01*
X1291163Y-153070D02*
Y-140374D01*
X1297511D01*
X1299627Y-142490D01*
Y-146722D01*
X1297511Y-148838D01*
X1291163D01*
X1295395D02*
X1299627Y-153070D01*
X1303859Y-144606D02*
X1305975D01*
Y-146722D01*
X1303859D01*
Y-144606D01*
Y-150954D02*
X1305975D01*
Y-153070D01*
X1303859D01*
Y-150954D01*
X1206500Y-258576D02*
Y-271272D01*
X1212848D01*
X1214964Y-269156D01*
Y-260692D01*
X1212848Y-258576D01*
X1206500D01*
X1219196D02*
Y-271272D01*
X1223428Y-267040D01*
X1227660Y-271272D01*
Y-258576D01*
X1240356Y-260692D02*
X1238240Y-258576D01*
X1234008D01*
X1231892Y-260692D01*
Y-269156D01*
X1234008Y-271272D01*
X1238240D01*
X1240356Y-269156D01*
Y-264924D01*
X1236124D01*
X1257283Y-271272D02*
Y-258576D01*
X1265748Y-271272D01*
Y-258576D01*
X1276327D02*
X1272095D01*
X1269979Y-260692D01*
Y-269156D01*
X1272095Y-271272D01*
X1276327D01*
X1278443Y-269156D01*
Y-260692D01*
X1276327Y-258576D01*
X1282675Y-262808D02*
X1284791D01*
Y-264924D01*
X1282675D01*
Y-262808D01*
Y-269156D02*
X1284791D01*
Y-271272D01*
X1282675D01*
Y-269156D01*
X2121348Y-210474D02*
Y-197778D01*
X2127696D01*
X2129812Y-199894D01*
Y-204126D01*
X2127696Y-206242D01*
X2121348D01*
X2125580D02*
X2129812Y-210474D01*
X2142508Y-197778D02*
X2134044D01*
Y-210474D01*
X2142508D01*
X2134044Y-204126D02*
X2138276D01*
X2146740Y-197778D02*
Y-206242D01*
X2150972Y-210474D01*
X2155204Y-206242D01*
Y-197778D01*
X2159436Y-202010D02*
X2161552D01*
Y-204126D01*
X2159436D01*
Y-202010D01*
Y-208358D02*
X2161552D01*
Y-210474D01*
X2159436D01*
Y-208358D01*
X1205170Y-195492D02*
Y-208188D01*
X1211518D01*
X1213634Y-206072D01*
Y-197608D01*
X1211518Y-195492D01*
X1205170D01*
X1217866Y-208188D02*
Y-199724D01*
X1222098Y-195492D01*
X1226330Y-199724D01*
Y-208188D01*
Y-201840D01*
X1217866D01*
X1230562Y-195492D02*
X1239026D01*
X1234794D01*
Y-208188D01*
X1251722Y-195492D02*
X1243258D01*
Y-208188D01*
X1251722D01*
X1243258Y-201840D02*
X1247490D01*
X1255954Y-199724D02*
X1258070D01*
Y-201840D01*
X1255954D01*
Y-199724D01*
Y-206072D02*
X1258070D01*
Y-208188D01*
X1255954D01*
Y-206072D01*
D14*
X2057834Y666617D02*
X2253414D01*
X2017194Y-103632D02*
Y711200D01*
X2304214D01*
Y-103632D02*
Y711200D01*
X2017194Y-103632D02*
X2304214D01*
X1490980Y1501648D02*
Y1514344D01*
X1497328D01*
X1499444Y1512228D01*
Y1507996D01*
X1497328Y1505880D01*
X1490980D01*
X1495212D02*
X1499444Y1501648D01*
X1510024D02*
X1505792D01*
X1503676Y1503764D01*
Y1507996D01*
X1505792Y1510112D01*
X1510024D01*
X1512140Y1507996D01*
Y1505880D01*
X1503676D01*
X1516372Y1510112D02*
X1520604Y1501648D01*
X1524836Y1510112D01*
X1541763Y1514344D02*
Y1501648D01*
X1548112D01*
X1550228Y1503764D01*
Y1512228D01*
X1548112Y1514344D01*
X1541763D01*
X1600200Y1501648D02*
Y1510112D01*
X1604432Y1514344D01*
X1608664Y1510112D01*
Y1501648D01*
Y1507996D01*
X1600200D01*
X1621360Y1514344D02*
Y1501648D01*
X1615012D01*
X1612896Y1503764D01*
Y1507996D01*
X1615012Y1510112D01*
X1621360D01*
X1634056Y1514344D02*
Y1501648D01*
X1627708D01*
X1625592Y1503764D01*
Y1507996D01*
X1627708Y1510112D01*
X1634056D01*
X1638288Y1501648D02*
X1642520D01*
X1640404D01*
Y1510112D01*
X1638288D01*
X1650983Y1512228D02*
Y1510112D01*
X1648868D01*
X1653100D01*
X1650983D01*
Y1503764D01*
X1653100Y1501648D01*
X1659447D02*
X1663680D01*
X1661564D01*
Y1510112D01*
X1659447D01*
X1672143Y1501648D02*
X1676375D01*
X1678491Y1503764D01*
Y1507996D01*
X1676375Y1510112D01*
X1672143D01*
X1670027Y1507996D01*
Y1503764D01*
X1672143Y1501648D01*
X1682723D02*
Y1510112D01*
X1689071D01*
X1691187Y1507996D01*
Y1501648D01*
X1710231D02*
X1714463D01*
X1716579Y1503764D01*
Y1507996D01*
X1714463Y1510112D01*
X1710231D01*
X1708115Y1507996D01*
Y1503764D01*
X1710231Y1501648D01*
X1722927D02*
Y1512228D01*
Y1507996D01*
X1720811D01*
X1725043D01*
X1722927D01*
Y1512228D01*
X1725043Y1514344D01*
X1744087Y1501648D02*
Y1514344D01*
X1750435D01*
X1752551Y1512228D01*
Y1507996D01*
X1750435Y1505880D01*
X1744087D01*
X1748319D02*
X1752551Y1501648D01*
X1756783Y1512228D02*
X1758899Y1514344D01*
X1763131D01*
X1765247Y1512228D01*
Y1510112D01*
X1763131Y1507996D01*
X1765247Y1505880D01*
Y1503764D01*
X1763131Y1501648D01*
X1758899D01*
X1756783Y1503764D01*
Y1505880D01*
X1758899Y1507996D01*
X1756783Y1510112D01*
Y1512228D01*
X1758899Y1507996D02*
X1763131D01*
X1769478Y1512228D02*
X1771595Y1514344D01*
X1775826D01*
X1777942Y1512228D01*
Y1510112D01*
X1775826Y1507996D01*
X1777942Y1505880D01*
Y1503764D01*
X1775826Y1501648D01*
X1771595D01*
X1769478Y1503764D01*
Y1505880D01*
X1771595Y1507996D01*
X1769478Y1510112D01*
Y1512228D01*
X1771595Y1507996D02*
X1775826D01*
X2077720Y1501648D02*
X2081952D01*
X2079836D01*
Y1514344D01*
X2077720Y1512228D01*
X2088300D02*
X2090416Y1514344D01*
X2094648D01*
X2096764Y1512228D01*
Y1503764D01*
X2094648Y1501648D01*
X2090416D01*
X2088300Y1503764D01*
Y1512228D01*
X2100996Y1501648D02*
X2109460Y1510112D01*
X2113692Y1501648D02*
X2117924D01*
X2115808D01*
Y1514344D01*
X2113692Y1512228D01*
X2124272D02*
X2126388Y1514344D01*
X2130620D01*
X2132735Y1512228D01*
Y1510112D01*
X2130620Y1507996D01*
X2132735Y1505880D01*
Y1503764D01*
X2130620Y1501648D01*
X2126388D01*
X2124272Y1503764D01*
Y1505880D01*
X2126388Y1507996D01*
X2124272Y1510112D01*
Y1512228D01*
X2126388Y1507996D02*
X2130620D01*
X2136967Y1501648D02*
X2145431Y1510112D01*
X2158127Y1501648D02*
X2149663D01*
X2158127Y1510112D01*
Y1512228D01*
X2156011Y1514344D01*
X2151779D01*
X2149663Y1512228D01*
X2162359D02*
X2164475Y1514344D01*
X2168707D01*
X2170823Y1512228D01*
Y1503764D01*
X2168707Y1501648D01*
X2164475D01*
X2162359Y1503764D01*
Y1512228D01*
X2183519Y1501648D02*
X2175055D01*
X2183519Y1510112D01*
Y1512228D01*
X2181403Y1514344D01*
X2177171D01*
X2175055Y1512228D01*
X2196215Y1501648D02*
X2187751D01*
X2196215Y1510112D01*
Y1512228D01*
X2194099Y1514344D01*
X2189867D01*
X2187751Y1512228D01*
X2253824Y1514344D02*
X2245360D01*
Y1501648D01*
X2253824D01*
X2245360Y1507996D02*
X2249592D01*
X2258056Y1501648D02*
Y1514344D01*
X2262288Y1510112D01*
X2266520Y1514344D01*
Y1501648D01*
X2277100Y1514344D02*
X2272868D01*
X2270752Y1512228D01*
Y1503764D01*
X2272868Y1501648D01*
X2277100D01*
X2279216Y1503764D01*
Y1512228D01*
X2277100Y1514344D01*
X2289796D02*
X2285564D01*
X2283448Y1512228D01*
Y1503764D01*
X2285564Y1501648D01*
X2289796D01*
X2291912Y1503764D01*
Y1512228D01*
X2289796Y1514344D01*
X1272540Y-286517D02*
Y-299213D01*
X1275079Y-301752D01*
X1280157D01*
X1282697Y-299213D01*
Y-286517D01*
X1287775D02*
Y-301752D01*
X1295393D01*
X1297932Y-299213D01*
Y-296674D01*
X1295393Y-294135D01*
X1287775D01*
X1295393D01*
X1297932Y-291595D01*
Y-289056D01*
X1295393Y-286517D01*
X1287775D01*
X1303010D02*
X1313167Y-301752D01*
Y-286517D02*
X1303010Y-301752D01*
X1318245Y-286517D02*
Y-301752D01*
Y-294135D01*
X1328402D01*
Y-286517D01*
Y-301752D01*
X1343637Y-286517D02*
X1338559Y-289056D01*
X1333480Y-294135D01*
Y-299213D01*
X1336019Y-301752D01*
X1341098D01*
X1343637Y-299213D01*
Y-296674D01*
X1341098Y-294135D01*
X1333480D01*
X1348715Y-289056D02*
X1351254Y-286517D01*
X1356333D01*
X1358872Y-289056D01*
Y-299213D01*
X1356333Y-301752D01*
X1351254D01*
X1348715Y-299213D01*
Y-289056D01*
X1363950Y-294135D02*
X1374107D01*
X1379185Y-289056D02*
X1381725Y-286517D01*
X1386803D01*
X1389342Y-289056D01*
Y-299213D01*
X1386803Y-301752D01*
X1381725D01*
X1379185Y-299213D01*
Y-289056D01*
X1394421D02*
X1396960Y-286517D01*
X1402038D01*
X1404577Y-289056D01*
Y-299213D01*
X1402038Y-301752D01*
X1396960D01*
X1394421Y-299213D01*
Y-289056D01*
X1409656D02*
X1412195Y-286517D01*
X1417273D01*
X1419812Y-289056D01*
Y-299213D01*
X1417273Y-301752D01*
X1412195D01*
X1409656Y-299213D01*
Y-289056D01*
X1424891D02*
X1427430Y-286517D01*
X1432508D01*
X1435047Y-289056D01*
Y-299213D01*
X1432508Y-301752D01*
X1427430D01*
X1424891Y-299213D01*
Y-289056D01*
X1440126Y-286517D02*
X1450282D01*
Y-289056D01*
X1440126Y-299213D01*
Y-301752D01*
X1455361Y-286517D02*
X1465518D01*
Y-289056D01*
X1455361Y-299213D01*
Y-301752D01*
X1470596Y-289056D02*
X1473135Y-286517D01*
X1478214D01*
X1480753Y-289056D01*
Y-291595D01*
X1478214Y-294135D01*
X1480753Y-296674D01*
Y-299213D01*
X1478214Y-301752D01*
X1473135D01*
X1470596Y-299213D01*
Y-296674D01*
X1473135Y-294135D01*
X1470596Y-291595D01*
Y-289056D01*
X1473135Y-294135D02*
X1478214D01*
X1712802Y-213704D02*
X1709417Y-210319D01*
X1702646D01*
X1699260Y-213704D01*
Y-227246D01*
X1702646Y-230632D01*
X1709417D01*
X1712802Y-227246D01*
X1733116Y-230632D02*
X1719573D01*
X1733116Y-217090D01*
Y-213704D01*
X1729730Y-210319D01*
X1722959D01*
X1719573Y-213704D01*
X1739887Y-230632D02*
X1746658D01*
X1743272D01*
Y-210319D01*
X1739887Y-213704D01*
X1756815D02*
X1760200Y-210319D01*
X1766971D01*
X1770357Y-213704D01*
Y-227246D01*
X1766971Y-230632D01*
X1760200D01*
X1756815Y-227246D01*
Y-213704D01*
X2193840Y-229422D02*
Y-209109D01*
X2203997D01*
X2207382Y-212494D01*
Y-219265D01*
X2203997Y-222651D01*
X2193840D01*
X2200611D02*
X2207382Y-229422D01*
X2224310D02*
X2217539D01*
X2214153Y-226036D01*
Y-219265D01*
X2217539Y-215880D01*
X2224310D01*
X2227696Y-219265D01*
Y-222651D01*
X2214153D01*
X2234467Y-215880D02*
X2241238Y-229422D01*
X2248009Y-215880D01*
X2275094Y-209109D02*
Y-229422D01*
X2285250D01*
X2288636Y-226036D01*
Y-212494D01*
X2285250Y-209109D01*
X2275094D01*
X1699260Y-149359D02*
X1712802Y-169672D01*
Y-149359D02*
X1699260Y-169672D01*
X1719573D02*
Y-149359D01*
X1729730D01*
X1733116Y-152744D01*
Y-159515D01*
X1729730Y-162901D01*
X1719573D01*
X1739887Y-149359D02*
Y-169672D01*
X1753429D01*
X1760200D02*
Y-149359D01*
X1770357D01*
X1773743Y-152744D01*
Y-159515D01*
X1770357Y-162901D01*
X1760200D01*
X1766971D02*
X1773743Y-169672D01*
X1780514Y-159515D02*
X1794056D01*
X1800827Y-149359D02*
X1807598D01*
X1804213D01*
Y-169672D01*
X1800827D01*
X1807598D01*
X1827912Y-149359D02*
X1821140D01*
X1817755Y-152744D01*
Y-166286D01*
X1821140Y-169672D01*
X1827912D01*
X1831297Y-166286D01*
Y-152744D01*
X1827912Y-149359D01*
X1838068D02*
X1851611D01*
X1844839D01*
Y-169672D01*
X1858382Y-159515D02*
X1871924D01*
X1878695Y-169672D02*
X1885466D01*
X1882081D01*
Y-149359D01*
X1878695Y-152744D01*
X1332650Y-151898D02*
X1320800D01*
Y-169672D01*
X1332650D01*
X1320800Y-160785D02*
X1326725D01*
X1338574Y-169672D02*
Y-151898D01*
X1344499Y-157823D01*
X1350424Y-151898D01*
Y-169672D01*
X1365236Y-151898D02*
X1359311D01*
X1356349Y-154860D01*
Y-166710D01*
X1359311Y-169672D01*
X1365236D01*
X1368198Y-166710D01*
Y-154860D01*
X1365236Y-151898D01*
X1383010D02*
X1377085D01*
X1374123Y-154860D01*
Y-166710D01*
X1377085Y-169672D01*
X1383010D01*
X1385972Y-166710D01*
Y-154860D01*
X1383010Y-151898D01*
X1277620Y-230632D02*
X1283545D01*
X1280582D01*
Y-212858D01*
X1277620Y-215820D01*
X1292432D02*
X1295394Y-212858D01*
X1301319D01*
X1304281Y-215820D01*
Y-227670D01*
X1301319Y-230632D01*
X1295394D01*
X1292432Y-227670D01*
Y-215820D01*
X1310206Y-230632D02*
X1322056Y-218783D01*
X1327980Y-230632D02*
X1333905D01*
X1330943D01*
Y-212858D01*
X1327980Y-215820D01*
X1342792D02*
X1345755Y-212858D01*
X1351679D01*
X1354642Y-215820D01*
Y-218783D01*
X1351679Y-221745D01*
X1354642Y-224707D01*
Y-227670D01*
X1351679Y-230632D01*
X1345755D01*
X1342792Y-227670D01*
Y-224707D01*
X1345755Y-221745D01*
X1342792Y-218783D01*
Y-215820D01*
X1345755Y-221745D02*
X1351679D01*
X1360567Y-230632D02*
X1372416Y-218783D01*
X1390190Y-230632D02*
X1378341D01*
X1390190Y-218783D01*
Y-215820D01*
X1387228Y-212858D01*
X1381303D01*
X1378341Y-215820D01*
X1396115D02*
X1399077Y-212858D01*
X1405002D01*
X1407965Y-215820D01*
Y-227670D01*
X1405002Y-230632D01*
X1399077D01*
X1396115Y-227670D01*
Y-215820D01*
X1425739Y-230632D02*
X1413889D01*
X1425739Y-218783D01*
Y-215820D01*
X1422776Y-212858D01*
X1416852D01*
X1413889Y-215820D01*
X1443513Y-230632D02*
X1431664D01*
X1443513Y-218783D01*
Y-215820D01*
X1440551Y-212858D01*
X1434626D01*
X1431664Y-215820D01*
X1620517Y-286516D02*
X1617977Y-283977D01*
X1612899D01*
X1610360Y-286516D01*
Y-296673D01*
X1612899Y-299212D01*
X1617977D01*
X1620517Y-296673D01*
X1635752Y-299212D02*
X1625595D01*
X1635752Y-289055D01*
Y-286516D01*
X1633213Y-283977D01*
X1628134D01*
X1625595Y-286516D01*
X1640830Y-299212D02*
X1645909D01*
X1643369D01*
Y-283977D01*
X1640830Y-286516D01*
X1653526D02*
X1656065Y-283977D01*
X1661144D01*
X1663683Y-286516D01*
Y-296673D01*
X1661144Y-299212D01*
X1656065D01*
X1653526Y-296673D01*
Y-286516D01*
X1668761Y-299212D02*
Y-296673D01*
X1671300D01*
Y-299212D01*
X1668761D01*
X1681457D02*
Y-283977D01*
X1689075D01*
X1691614Y-286516D01*
Y-291595D01*
X1689075Y-294134D01*
X1681457D01*
X1706849Y-289055D02*
X1699231D01*
X1696692Y-291595D01*
Y-296673D01*
X1699231Y-299212D01*
X1706849D01*
X1711927Y-283977D02*
Y-299212D01*
X1719545D01*
X1722084Y-296673D01*
Y-294134D01*
Y-291595D01*
X1719545Y-289055D01*
X1711927D01*
X1727162Y-283977D02*
Y-299212D01*
X1734780D01*
X1737319Y-296673D01*
Y-286516D01*
X1734780Y-283977D01*
X1727162D01*
X1744937Y-299212D02*
X1750015D01*
X1752554Y-296673D01*
Y-291595D01*
X1750015Y-289055D01*
X1744937D01*
X1742397Y-291595D01*
Y-296673D01*
X1744937Y-299212D01*
X1767789Y-289055D02*
X1760172D01*
X1757632Y-291595D01*
Y-296673D01*
X1760172Y-299212D01*
X1767789D01*
X924933Y-277057D02*
X923966Y-275123D01*
X922031Y-273188D01*
X920096Y-272220D01*
X916226D01*
X914292Y-273188D01*
X912357Y-275123D01*
X911389Y-277057D01*
X910422Y-279960D01*
Y-284797D01*
X911389Y-287699D01*
X912357Y-289634D01*
X914292Y-291569D01*
X916226Y-292536D01*
X920096D01*
X922031Y-291569D01*
X923966Y-289634D01*
X924933Y-287699D01*
X936445Y-272220D02*
X934510Y-273188D01*
X932576Y-275123D01*
X931608Y-277057D01*
X930641Y-279960D01*
Y-284797D01*
X931608Y-287699D01*
X932576Y-289634D01*
X934510Y-291569D01*
X936445Y-292536D01*
X940315D01*
X942250Y-291569D01*
X944185Y-289634D01*
X945152Y-287699D01*
X946120Y-284797D01*
Y-279960D01*
X945152Y-277057D01*
X944185Y-275123D01*
X942250Y-273188D01*
X940315Y-272220D01*
X936445D01*
X950860D02*
Y-292536D01*
Y-272220D02*
X964404Y-292536D01*
Y-272220D02*
Y-292536D01*
X970014Y-272220D02*
Y-292536D01*
Y-272220D02*
X982591D01*
X970014Y-281894D02*
X977754D01*
X984913Y-272220D02*
Y-292536D01*
X989169Y-272220D02*
Y-292536D01*
Y-272220D02*
X995941D01*
X998843Y-273188D01*
X1000778Y-275123D01*
X1001746Y-277057D01*
X1002713Y-279960D01*
Y-284797D01*
X1001746Y-287699D01*
X1000778Y-289634D01*
X998843Y-291569D01*
X995941Y-292536D01*
X989169D01*
X1019836Y-272220D02*
X1007260D01*
Y-292536D01*
X1019836D01*
X1007260Y-281894D02*
X1014999D01*
X1023222Y-272220D02*
Y-292536D01*
Y-272220D02*
X1036766Y-292536D01*
Y-272220D02*
Y-292536D01*
X1049149Y-272220D02*
Y-292536D01*
X1042377Y-272220D02*
X1055921D01*
X1058339D02*
Y-292536D01*
X1078074D02*
X1070335Y-272220D01*
X1062596Y-292536D01*
X1065498Y-285764D02*
X1075172D01*
X1082815Y-272220D02*
Y-292536D01*
X1094424D01*
X2253824Y1552444D02*
X2245360D01*
Y1539748D01*
X2253824D01*
X2245360Y1546096D02*
X2249592D01*
X2258056Y1539748D02*
Y1552444D01*
X2262288Y1548212D01*
X2266520Y1552444D01*
Y1539748D01*
X2277100Y1552444D02*
X2272868D01*
X2270752Y1550328D01*
Y1541864D01*
X2272868Y1539748D01*
X2277100D01*
X2279216Y1541864D01*
Y1550328D01*
X2277100Y1552444D01*
X2289796D02*
X2285564D01*
X2283448Y1550328D01*
Y1541864D01*
X2285564Y1539748D01*
X2289796D01*
X2291912Y1541864D01*
Y1550328D01*
X2289796Y1552444D01*
X2077720D02*
X2086184D01*
Y1550328D01*
X2077720Y1541864D01*
Y1539748D01*
X2090416D02*
X2098880Y1548212D01*
X2103112Y1539748D02*
X2107344D01*
X2105228D01*
Y1552444D01*
X2103112Y1550328D01*
X2113692D02*
X2115808Y1552444D01*
X2120040D01*
X2122156Y1550328D01*
Y1548212D01*
X2120040Y1546096D01*
X2117924D01*
X2120040D01*
X2122156Y1543980D01*
Y1541864D01*
X2120040Y1539748D01*
X2115808D01*
X2113692Y1541864D01*
X2126388Y1539748D02*
X2134852Y1548212D01*
X2147547Y1539748D02*
X2139084D01*
X2147547Y1548212D01*
Y1550328D01*
X2145431Y1552444D01*
X2141199D01*
X2139084Y1550328D01*
X2151779D02*
X2153895Y1552444D01*
X2158127D01*
X2160243Y1550328D01*
Y1541864D01*
X2158127Y1539748D01*
X2153895D01*
X2151779Y1541864D01*
Y1550328D01*
X2172939Y1539748D02*
X2164475D01*
X2172939Y1548212D01*
Y1550328D01*
X2170823Y1552444D01*
X2166591D01*
X2164475Y1550328D01*
X2185635Y1539748D02*
X2177171D01*
X2185635Y1548212D01*
Y1550328D01*
X2183519Y1552444D01*
X2179287D01*
X2177171Y1550328D01*
X1600200Y1552444D02*
X1604432D01*
X1602316D01*
Y1539748D01*
X1600200D01*
X1604432D01*
X1610780D02*
Y1548212D01*
X1617128D01*
X1619244Y1546096D01*
Y1539748D01*
X1623476D02*
X1627708D01*
X1625592D01*
Y1548212D01*
X1623476D01*
X1636172Y1550328D02*
Y1548212D01*
X1634056D01*
X1638288D01*
X1636172D01*
Y1541864D01*
X1638288Y1539748D01*
X1644636D02*
X1648868D01*
X1646752D01*
Y1548212D01*
X1644636D01*
X1657332D02*
X1661564D01*
X1663680Y1546096D01*
Y1539748D01*
X1657332D01*
X1655215Y1541864D01*
X1657332Y1543980D01*
X1663680D01*
X1667911Y1539748D02*
X1672143D01*
X1670027D01*
Y1552444D01*
X1667911D01*
X1691187Y1539748D02*
Y1552444D01*
X1697535D01*
X1699651Y1550328D01*
Y1546096D01*
X1697535Y1543980D01*
X1691187D01*
X1703883Y1548212D02*
Y1539748D01*
Y1543980D01*
X1705999Y1546096D01*
X1708115Y1548212D01*
X1710231D01*
X1718695Y1539748D02*
X1722927D01*
X1725043Y1541864D01*
Y1546096D01*
X1722927Y1548212D01*
X1718695D01*
X1716579Y1546096D01*
Y1541864D01*
X1718695Y1539748D01*
X1737739Y1552444D02*
Y1539748D01*
X1731391D01*
X1729275Y1541864D01*
Y1546096D01*
X1731391Y1548212D01*
X1737739D01*
X1741971D02*
Y1541864D01*
X1744087Y1539748D01*
X1750435D01*
Y1548212D01*
X1763131D02*
X1756783D01*
X1754667Y1546096D01*
Y1541864D01*
X1756783Y1539748D01*
X1763131D01*
X1769478Y1550328D02*
Y1548212D01*
X1767363D01*
X1771595D01*
X1769478D01*
Y1541864D01*
X1771595Y1539748D01*
X1777942D02*
X1782174D01*
X1780058D01*
Y1548212D01*
X1777942D01*
X1790638Y1539748D02*
X1794870D01*
X1796986Y1541864D01*
Y1546096D01*
X1794870Y1548212D01*
X1790638D01*
X1788522Y1546096D01*
Y1541864D01*
X1790638Y1539748D01*
X1801218D02*
Y1548212D01*
X1807566D01*
X1809682Y1546096D01*
Y1539748D01*
X1490980D02*
Y1552444D01*
X1497328D01*
X1499444Y1550328D01*
Y1546096D01*
X1497328Y1543980D01*
X1490980D01*
X1495212D02*
X1499444Y1539748D01*
X1510024D02*
X1505792D01*
X1503676Y1541864D01*
Y1546096D01*
X1505792Y1548212D01*
X1510024D01*
X1512140Y1546096D01*
Y1543980D01*
X1503676D01*
X1516372Y1548212D02*
X1520604Y1539748D01*
X1524836Y1548212D01*
X1550228Y1550328D02*
X1548112Y1552444D01*
X1543880D01*
X1541763Y1550328D01*
Y1541864D01*
X1543880Y1539748D01*
X1548112D01*
X1550228Y1541864D01*
X1490980Y1577848D02*
Y1590544D01*
X1497328D01*
X1499444Y1588428D01*
Y1584196D01*
X1497328Y1582080D01*
X1490980D01*
X1495212D02*
X1499444Y1577848D01*
X1510024D02*
X1505792D01*
X1503676Y1579964D01*
Y1584196D01*
X1505792Y1586312D01*
X1510024D01*
X1512140Y1584196D01*
Y1582080D01*
X1503676D01*
X1516372Y1586312D02*
X1520604Y1577848D01*
X1524836Y1586312D01*
X1541763Y1590544D02*
Y1577848D01*
X1548112D01*
X1550228Y1579964D01*
Y1582080D01*
X1548112Y1584196D01*
X1541763D01*
X1548112D01*
X1550228Y1586312D01*
Y1588428D01*
X1548112Y1590544D01*
X1541763D01*
X1608664D02*
X1600200D01*
Y1577848D01*
X1608664D01*
X1600200Y1584196D02*
X1604432D01*
X1612896Y1577848D02*
Y1586312D01*
X1619244D01*
X1621360Y1584196D01*
Y1577848D01*
X1629824Y1573616D02*
X1631940D01*
X1634056Y1575732D01*
Y1586312D01*
X1627708D01*
X1625592Y1584196D01*
Y1579964D01*
X1627708Y1577848D01*
X1634056D01*
X1638288D02*
X1642520D01*
X1640404D01*
Y1586312D01*
X1638288D01*
X1648868Y1577848D02*
Y1586312D01*
X1655215D01*
X1657332Y1584196D01*
Y1577848D01*
X1667911D02*
X1663679D01*
X1661564Y1579964D01*
Y1584196D01*
X1663679Y1586312D01*
X1667911D01*
X1670027Y1584196D01*
Y1582080D01*
X1661564D01*
X1680607Y1577848D02*
X1676375D01*
X1674259Y1579964D01*
Y1584196D01*
X1676375Y1586312D01*
X1680607D01*
X1682723Y1584196D01*
Y1582080D01*
X1674259D01*
X1686955Y1586312D02*
Y1577848D01*
Y1582080D01*
X1689071Y1584196D01*
X1691187Y1586312D01*
X1693303D01*
X1699651Y1577848D02*
X1703883D01*
X1701767D01*
Y1586312D01*
X1699651D01*
X1710231Y1577848D02*
Y1586312D01*
X1716579D01*
X1718695Y1584196D01*
Y1577848D01*
X1727159Y1573616D02*
X1729275D01*
X1731391Y1575732D01*
Y1586312D01*
X1725043D01*
X1722927Y1584196D01*
Y1579964D01*
X1725043Y1577848D01*
X1731391D01*
X1756783Y1588428D02*
X1754667Y1590544D01*
X1750435D01*
X1748319Y1588428D01*
Y1586312D01*
X1750435Y1584196D01*
X1754667D01*
X1756783Y1582080D01*
Y1579964D01*
X1754667Y1577848D01*
X1750435D01*
X1748319Y1579964D01*
X1763130Y1586312D02*
X1767363D01*
X1769478Y1584196D01*
Y1577848D01*
X1763130D01*
X1761015Y1579964D01*
X1763130Y1582080D01*
X1769478D01*
X1773710Y1577848D02*
Y1586312D01*
X1775826D01*
X1777942Y1584196D01*
Y1577848D01*
Y1584196D01*
X1780058Y1586312D01*
X1782174Y1584196D01*
Y1577848D01*
X1786406Y1573616D02*
Y1586312D01*
X1792754D01*
X1794870Y1584196D01*
Y1579964D01*
X1792754Y1577848D01*
X1786406D01*
X1799102D02*
X1803334D01*
X1801218D01*
Y1590544D01*
X1799102D01*
X1816030Y1577848D02*
X1811798D01*
X1809682Y1579964D01*
Y1584196D01*
X1811798Y1586312D01*
X1816030D01*
X1818146Y1584196D01*
Y1582080D01*
X1809682D01*
X2077720Y1579964D02*
X2079836Y1577848D01*
X2084068D01*
X2086184Y1579964D01*
Y1588428D01*
X2084068Y1590544D01*
X2079836D01*
X2077720Y1588428D01*
Y1586312D01*
X2079836Y1584196D01*
X2086184D01*
X2090416Y1577848D02*
X2098880Y1586312D01*
X2103112Y1577848D02*
X2107344D01*
X2105228D01*
Y1590544D01*
X2103112Y1588428D01*
X2122156Y1590544D02*
X2117924Y1588428D01*
X2113692Y1584196D01*
Y1579964D01*
X2115808Y1577848D01*
X2120040D01*
X2122156Y1579964D01*
Y1582080D01*
X2120040Y1584196D01*
X2113692D01*
X2126388Y1577848D02*
X2134852Y1586312D01*
X2147547Y1577848D02*
X2139084D01*
X2147547Y1586312D01*
Y1588428D01*
X2145431Y1590544D01*
X2141199D01*
X2139084Y1588428D01*
X2151779D02*
X2153895Y1590544D01*
X2158127D01*
X2160243Y1588428D01*
Y1579964D01*
X2158127Y1577848D01*
X2153895D01*
X2151779Y1579964D01*
Y1588428D01*
X2172939Y1577848D02*
X2164475D01*
X2172939Y1586312D01*
Y1588428D01*
X2170823Y1590544D01*
X2166591D01*
X2164475Y1588428D01*
X2177171Y1577848D02*
X2181403D01*
X2179287D01*
Y1590544D01*
X2177171Y1588428D01*
X2253824Y1590544D02*
X2245360D01*
Y1577848D01*
X2253824D01*
X2245360Y1584196D02*
X2249592D01*
X2258056Y1577848D02*
Y1590544D01*
X2262288Y1586312D01*
X2266520Y1590544D01*
Y1577848D01*
X2277100Y1590544D02*
X2272868D01*
X2270752Y1588428D01*
Y1579964D01*
X2272868Y1577848D01*
X2277100D01*
X2279216Y1579964D01*
Y1588428D01*
X2277100Y1590544D01*
X2289796D02*
X2285564D01*
X2283448Y1588428D01*
Y1579964D01*
X2285564Y1577848D01*
X2289796D01*
X2291912Y1579964D01*
Y1588428D01*
X2289796Y1590544D01*
X2253824Y1628644D02*
X2245360D01*
Y1615948D01*
X2253824D01*
X2245360Y1622296D02*
X2249592D01*
X2258056Y1615948D02*
Y1628644D01*
X2262288Y1624412D01*
X2266520Y1628644D01*
Y1615948D01*
X2277100Y1628644D02*
X2272868D01*
X2270752Y1626528D01*
Y1618064D01*
X2272868Y1615948D01*
X2277100D01*
X2279216Y1618064D01*
Y1626528D01*
X2277100Y1628644D01*
X2289796D02*
X2285564D01*
X2283448Y1626528D01*
Y1618064D01*
X2285564Y1615948D01*
X2289796D01*
X2291912Y1618064D01*
Y1626528D01*
X2289796Y1628644D01*
X2086184Y1626104D02*
X2077720D01*
Y1619756D01*
X2081952Y1621872D01*
X2084068D01*
X2086184Y1619756D01*
Y1615524D01*
X2084068Y1613408D01*
X2079836D01*
X2077720Y1615524D01*
X2090416Y1613408D02*
X2098880Y1621872D01*
X2109460Y1613408D02*
Y1626104D01*
X2103112Y1619756D01*
X2111576D01*
X2115808Y1613408D02*
X2124272Y1621872D01*
X2136967Y1613408D02*
X2128504D01*
X2136967Y1621872D01*
Y1623988D01*
X2134852Y1626104D01*
X2130620D01*
X2128504Y1623988D01*
X2141199D02*
X2143315Y1626104D01*
X2147547D01*
X2149663Y1623988D01*
Y1615524D01*
X2147547Y1613408D01*
X2143315D01*
X2141199Y1615524D01*
Y1623988D01*
X2162359Y1613408D02*
X2153895D01*
X2162359Y1621872D01*
Y1623988D01*
X2160243Y1626104D01*
X2156011D01*
X2153895Y1623988D01*
X2166591Y1613408D02*
X2170823D01*
X2168707D01*
Y1626104D01*
X2166591Y1623988D01*
X1600200Y1615948D02*
Y1628644D01*
X1606548D01*
X1608664Y1626528D01*
Y1622296D01*
X1606548Y1620180D01*
X1600200D01*
X1612896Y1624412D02*
Y1615948D01*
Y1620180D01*
X1615012Y1622296D01*
X1617128Y1624412D01*
X1619244D01*
X1627708Y1615948D02*
X1631940D01*
X1634056Y1618064D01*
Y1622296D01*
X1631940Y1624412D01*
X1627708D01*
X1625592Y1622296D01*
Y1618064D01*
X1627708Y1615948D01*
X1640404Y1626528D02*
Y1624412D01*
X1638288D01*
X1642520D01*
X1640404D01*
Y1618064D01*
X1642520Y1615948D01*
X1650983D02*
X1655215D01*
X1657332Y1618064D01*
Y1622296D01*
X1655215Y1624412D01*
X1650983D01*
X1648868Y1622296D01*
Y1618064D01*
X1650983Y1615948D01*
X1663679Y1626528D02*
Y1624412D01*
X1661564D01*
X1665795D01*
X1663679D01*
Y1618064D01*
X1665795Y1615948D01*
X1672143Y1624412D02*
Y1618064D01*
X1674259Y1615948D01*
X1680607D01*
Y1613832D01*
X1678491Y1611716D01*
X1676375D01*
X1680607Y1615948D02*
Y1624412D01*
X1684839Y1611716D02*
Y1624412D01*
X1691187D01*
X1693303Y1622296D01*
Y1618064D01*
X1691187Y1615948D01*
X1684839D01*
X1703883D02*
X1699651D01*
X1697535Y1618064D01*
Y1622296D01*
X1699651Y1624412D01*
X1703883D01*
X1705999Y1622296D01*
Y1620180D01*
X1697535D01*
X1722927Y1615948D02*
Y1628644D01*
X1729275D01*
X1731391Y1626528D01*
Y1622296D01*
X1729275Y1620180D01*
X1722927D01*
X1727159D02*
X1731391Y1615948D01*
X1741971D02*
X1737739D01*
X1735623Y1618064D01*
Y1622296D01*
X1737739Y1624412D01*
X1741971D01*
X1744087Y1622296D01*
Y1620180D01*
X1735623D01*
X1748319Y1615948D02*
X1752551D01*
X1750435D01*
Y1628644D01*
X1748319D01*
X1765246Y1615948D02*
X1761015D01*
X1758899Y1618064D01*
Y1622296D01*
X1761015Y1624412D01*
X1765246D01*
X1767363Y1622296D01*
Y1620180D01*
X1758899D01*
X1773710Y1624412D02*
X1777942D01*
X1780058Y1622296D01*
Y1615948D01*
X1773710D01*
X1771595Y1618064D01*
X1773710Y1620180D01*
X1780058D01*
X1784290Y1615948D02*
X1790638D01*
X1792754Y1618064D01*
X1790638Y1620180D01*
X1786406D01*
X1784290Y1622296D01*
X1786406Y1624412D01*
X1792754D01*
X1803334Y1615948D02*
X1799102D01*
X1796986Y1618064D01*
Y1622296D01*
X1799102Y1624412D01*
X1803334D01*
X1805450Y1622296D01*
Y1620180D01*
X1796986D01*
X1490980Y1615948D02*
Y1628644D01*
X1497328D01*
X1499444Y1626528D01*
Y1622296D01*
X1497328Y1620180D01*
X1490980D01*
X1495212D02*
X1499444Y1615948D01*
X1510024D02*
X1505792D01*
X1503676Y1618064D01*
Y1622296D01*
X1505792Y1624412D01*
X1510024D01*
X1512140Y1622296D01*
Y1620180D01*
X1503676D01*
X1516372Y1624412D02*
X1520604Y1615948D01*
X1524836Y1624412D01*
X1541763Y1615948D02*
Y1624412D01*
X1545995Y1628644D01*
X1550228Y1624412D01*
Y1615948D01*
Y1622296D01*
X1541763D01*
X2258060Y1669283D02*
Y1654048D01*
X2265677D01*
X2268217Y1656587D01*
Y1659126D01*
X2265677Y1661665D01*
X2258060D01*
X2265677D01*
X2268217Y1664205D01*
Y1666744D01*
X2265677Y1669283D01*
X2258060D01*
X2273295D02*
Y1666744D01*
X2278373Y1661665D01*
X2283452Y1666744D01*
Y1669283D01*
X2278373Y1661665D02*
Y1654048D01*
X2098040Y1669283D02*
Y1654048D01*
X2105658D01*
X2108197Y1656587D01*
Y1666744D01*
X2105658Y1669283D01*
X2098040D01*
X2113275Y1654048D02*
Y1664205D01*
X2118353Y1669283D01*
X2123432Y1664205D01*
Y1654048D01*
Y1661665D01*
X2113275D01*
X2128510Y1669283D02*
X2138667D01*
X2133589D01*
Y1654048D01*
X2153902Y1669283D02*
X2143745D01*
Y1654048D01*
X2153902D01*
X2143745Y1661665D02*
X2148824D01*
X1600200Y1669283D02*
Y1654048D01*
X1607818D01*
X1610357Y1656587D01*
Y1666744D01*
X1607818Y1669283D01*
X1600200D01*
X1625592D02*
X1615435D01*
Y1654048D01*
X1625592D01*
X1615435Y1661665D02*
X1620513D01*
X1640827Y1666744D02*
X1638288Y1669283D01*
X1633209D01*
X1630670Y1666744D01*
Y1664205D01*
X1633209Y1661665D01*
X1638288D01*
X1640827Y1659126D01*
Y1656587D01*
X1638288Y1654048D01*
X1633209D01*
X1630670Y1656587D01*
X1656062Y1666744D02*
X1653523Y1669283D01*
X1648444D01*
X1645905Y1666744D01*
Y1656587D01*
X1648444Y1654048D01*
X1653523D01*
X1656062Y1656587D01*
X1661140Y1654048D02*
Y1669283D01*
X1668758D01*
X1671297Y1666744D01*
Y1661665D01*
X1668758Y1659126D01*
X1661140D01*
X1666219D02*
X1671297Y1654048D01*
X1676375Y1669283D02*
X1681454D01*
X1678914D01*
Y1654048D01*
X1676375D01*
X1681454D01*
X1689071D02*
Y1669283D01*
X1696689D01*
X1699228Y1666744D01*
Y1661665D01*
X1696689Y1659126D01*
X1689071D01*
X1704306Y1669283D02*
X1714463D01*
X1709385D01*
Y1654048D01*
X1719541Y1669283D02*
X1724620D01*
X1722081D01*
Y1654048D01*
X1719541D01*
X1724620D01*
X1739855Y1669283D02*
X1734776D01*
X1732237Y1666744D01*
Y1656587D01*
X1734776Y1654048D01*
X1739855D01*
X1742394Y1656587D01*
Y1666744D01*
X1739855Y1669283D01*
X1747472Y1654048D02*
Y1669283D01*
X1757629Y1654048D01*
Y1669283D01*
X1490980Y1654048D02*
Y1669283D01*
X1498598D01*
X1501137Y1666744D01*
Y1661665D01*
X1498598Y1659126D01*
X1490980D01*
X1496058D02*
X1501137Y1654048D01*
X1516372Y1669283D02*
X1506215D01*
Y1654048D01*
X1516372D01*
X1506215Y1661665D02*
X1511293D01*
X1521450Y1669283D02*
Y1659126D01*
X1526528Y1654048D01*
X1531607Y1659126D01*
Y1669283D01*
X1849120Y1697228D02*
Y1717541D01*
X1859277D01*
X1862662Y1714156D01*
Y1707385D01*
X1859277Y1703999D01*
X1849120D01*
X1855891D02*
X1862662Y1697228D01*
X1882976Y1717541D02*
X1869433D01*
Y1697228D01*
X1882976D01*
X1869433Y1707385D02*
X1876205D01*
X1889747Y1717541D02*
Y1703999D01*
X1896518Y1697228D01*
X1903289Y1703999D01*
Y1717541D01*
X1910060D02*
X1916831D01*
X1913446D01*
Y1697228D01*
X1910060D01*
X1916831D01*
X1940530Y1714156D02*
X1937145Y1717541D01*
X1930374D01*
X1926988Y1714156D01*
Y1710770D01*
X1930374Y1707385D01*
X1937145D01*
X1940530Y1703999D01*
Y1700614D01*
X1937145Y1697228D01*
X1930374D01*
X1926988Y1700614D01*
X1947301Y1717541D02*
X1954073D01*
X1950687D01*
Y1697228D01*
X1947301D01*
X1954073D01*
X1974386Y1717541D02*
X1967615D01*
X1964229Y1714156D01*
Y1700614D01*
X1967615Y1697228D01*
X1974386D01*
X1977772Y1700614D01*
Y1714156D01*
X1974386Y1717541D01*
X1984543Y1697228D02*
Y1717541D01*
X1998085Y1697228D01*
Y1717541D01*
D16*
X2045134Y450463D02*
X2278814D01*
Y426333D02*
Y450463D01*
X2045134Y426333D02*
Y450463D01*
Y426333D02*
X2278814D01*
D17*
X335000Y12203D02*
Y22203D01*
X330000Y17203D02*
X340000D01*
X284200Y2703D02*
X385800D01*
X522500Y320063D02*
X532500Y320063D01*
X527500Y315063D02*
Y325063D01*
X54500Y334305D02*
X124500D01*
Y254305D02*
Y334305D01*
X54500Y254305D02*
X124500D01*
X54500D02*
Y334305D01*
X198000Y937500D02*
Y942500D01*
Y932500D02*
Y937500D01*
X193000D02*
X203000D01*
X292636Y709077D02*
X302636D01*
X297636Y704077D02*
Y714077D01*
X139750Y416871D02*
Y426871D01*
X134750Y421871D02*
X144750D01*
X223473Y822750D02*
X233473D01*
X228473Y817750D02*
Y827750D01*
X651632Y347793D02*
Y457793D01*
X521632D02*
X651632D01*
X521632Y347793D02*
Y457793D01*
Y347793D02*
X651632D01*
X586632Y397793D02*
Y402793D01*
X591632D01*
X581632D02*
X586632D01*
Y407793D01*
X417750Y674250D02*
X427750D01*
X422750Y669250D02*
Y679250D01*
X473551Y712480D02*
Y722480D01*
X468551Y717480D02*
X478551D01*
X578202Y710381D02*
X588202D01*
X583202Y705381D02*
Y715381D01*
X325363Y628807D02*
X325363Y638807D01*
X320363Y633807D02*
X330363Y633807D01*
X320363Y584917D02*
X330363Y584917D01*
X325363Y579917D02*
X325363Y589917D01*
X322974Y799304D02*
X332974D01*
X327974Y794304D02*
Y804304D01*
X442250Y712500D02*
Y722500D01*
X437250Y717500D02*
X447250D01*
X56250Y656577D02*
X56250Y666577D01*
X51250Y661577D02*
X61250Y661577D01*
X181723Y817750D02*
Y827750D01*
X176723Y822750D02*
X186723D01*
X208997Y936500D02*
X200666D01*
X199000Y934834D01*
Y931501D01*
X200666Y929835D01*
X208997D01*
X199000Y926503D02*
Y923171D01*
Y924837D01*
X208997D01*
X207331Y926503D01*
X607500Y917247D02*
Y908916D01*
X609166Y907250D01*
X612498D01*
X614165Y908916D01*
Y917247D01*
X617497Y915581D02*
X619163Y917247D01*
X622495D01*
X624161Y915581D01*
Y913914D01*
X622495Y912248D01*
X620829D01*
X622495D01*
X624161Y910582D01*
Y908916D01*
X622495Y907250D01*
X619163D01*
X617497Y908916D01*
X587632Y413790D02*
Y405459D01*
X589298Y403793D01*
X592631D01*
X594297Y405459D01*
Y413790D01*
X604293Y403793D02*
X597629D01*
X604293Y410457D01*
Y412124D01*
X602627Y413790D01*
X599295D01*
X597629Y412124D01*
X612624Y403793D02*
Y413790D01*
X607626Y408791D01*
X614290D01*
D25*
X2069264Y438398D02*
D03*
D26*
X2057834Y694045D02*
Y673729D01*
X2069443D01*
X2087147D02*
X2079407Y694045D01*
X2071668Y673729D01*
X2074570Y680501D02*
X2084244D01*
X2091887Y694045D02*
X2099626Y684370D01*
Y673729D01*
X2107366Y694045D02*
X2099626Y684370D01*
X2122554Y694045D02*
X2109978D01*
Y673729D01*
X2122554D01*
X2109978Y684370D02*
X2117717D01*
X2125940Y694045D02*
Y673729D01*
Y694045D02*
X2134647D01*
X2137549Y693077D01*
X2138516Y692110D01*
X2139484Y690175D01*
Y688240D01*
X2138516Y686305D01*
X2137549Y685338D01*
X2134647Y684370D01*
X2125940D01*
X2132712D02*
X2139484Y673729D01*
X2159993Y694045D02*
Y679533D01*
X2160960Y676631D01*
X2162895Y674696D01*
X2165797Y673729D01*
X2167732D01*
X2170634Y674696D01*
X2172569Y676631D01*
X2173537Y679533D01*
Y694045D01*
X2192691Y691142D02*
X2190757Y693077D01*
X2187854Y694045D01*
X2183985D01*
X2181082Y693077D01*
X2179147Y691142D01*
Y689208D01*
X2180115Y687273D01*
X2181082Y686305D01*
X2183017Y685338D01*
X2188822Y683403D01*
X2190757Y682436D01*
X2191724Y681468D01*
X2192691Y679533D01*
Y676631D01*
X2190757Y674696D01*
X2187854Y673729D01*
X2183985D01*
X2181082Y674696D01*
X2179147Y676631D01*
X2212717Y673729D02*
X2204977Y694045D01*
X2197238Y673729D01*
X2200140Y680501D02*
X2209814D01*
X2231968Y689208D02*
X2231001Y691142D01*
X2229066Y693077D01*
X2227131Y694045D01*
X2223262D01*
X2221327Y693077D01*
X2219392Y691142D01*
X2218424Y689208D01*
X2217457Y686305D01*
Y681468D01*
X2218424Y678566D01*
X2219392Y676631D01*
X2221327Y674696D01*
X2223262Y673729D01*
X2227131D01*
X2229066Y674696D01*
X2231001Y676631D01*
X2231968Y678566D01*
Y681468D01*
X2227131D02*
X2231968D01*
X2249188Y694045D02*
X2236612D01*
Y673729D01*
X2249188D01*
X2236612Y684370D02*
X2244351D01*
D27*
X2207200Y-300390D02*
X2211432D01*
X2209316D01*
Y-287694D01*
X2207200Y-289810D01*
X2217780Y-291926D02*
X2219896D01*
Y-294042D01*
X2217780D01*
Y-291926D01*
Y-298274D02*
X2219896D01*
Y-300390D01*
X2217780D01*
Y-298274D01*
X2228360Y-300390D02*
X2232592D01*
X2230476D01*
Y-287694D01*
X2228360Y-289810D01*
X2363410Y-102528D02*
Y-120304D01*
Y-102528D02*
X2369335D01*
X2371875Y-103374D01*
X2373568Y-105067D01*
X2374414Y-106760D01*
X2375261Y-109300D01*
Y-113532D01*
X2374414Y-116072D01*
X2373568Y-117765D01*
X2371875Y-119458D01*
X2369335Y-120304D01*
X2363410D01*
X2376107Y431720D02*
X2375261Y433413D01*
X2373568Y435106D01*
X2371875Y435952D01*
X2368489D01*
X2366796Y435106D01*
X2365103Y433413D01*
X2364256Y431720D01*
X2363410Y429180D01*
Y424948D01*
X2364256Y422408D01*
X2365103Y420715D01*
X2366796Y419022D01*
X2368489Y418176D01*
X2371875D01*
X2373568Y419022D01*
X2375261Y420715D01*
X2376107Y422408D01*
X2363410Y975702D02*
Y957926D01*
Y975702D02*
X2371028D01*
X2373568Y974856D01*
X2374414Y974009D01*
X2375261Y972316D01*
Y970623D01*
X2374414Y968930D01*
X2373568Y968084D01*
X2371028Y967237D01*
X2363410D02*
X2371028D01*
X2373568Y966391D01*
X2374414Y965544D01*
X2375261Y963851D01*
Y961312D01*
X2374414Y959619D01*
X2373568Y958773D01*
X2371028Y957926D01*
X2363410D01*
X2376954Y1497676D02*
X2370182Y1515452D01*
X2363410Y1497676D01*
X2365950Y1503601D02*
X2374414D01*
X2047520Y1774024D02*
X2039055Y1762173D01*
X2051752D01*
X2047520Y1774024D02*
Y1756248D01*
X1341991Y1774024D02*
X1351302D01*
X1346223Y1767252D01*
X1348763D01*
X1350456Y1766406D01*
X1351302Y1765559D01*
X1352149Y1763020D01*
Y1761327D01*
X1351302Y1758788D01*
X1349609Y1757095D01*
X1347070Y1756248D01*
X1344530D01*
X1341991Y1757095D01*
X1341145Y1757941D01*
X1340298Y1759634D01*
X643914Y1769792D02*
Y1770638D01*
X644761Y1772331D01*
X645608Y1773178D01*
X647300Y1774024D01*
X650686D01*
X652379Y1773178D01*
X653226Y1772331D01*
X654072Y1770638D01*
Y1768945D01*
X653226Y1767252D01*
X651533Y1764713D01*
X643068Y1756248D01*
X654919D01*
X-55600Y1770638D02*
X-53907Y1771485D01*
X-51368Y1774024D01*
Y1756248D01*
X2047520Y-334176D02*
X2039055Y-346027D01*
X2051752D01*
X2047520Y-334176D02*
Y-351952D01*
X1341991Y-334176D02*
X1351302D01*
X1346223Y-340948D01*
X1348763D01*
X1350456Y-341794D01*
X1351302Y-342641D01*
X1352149Y-345180D01*
Y-346873D01*
X1351302Y-349412D01*
X1349609Y-351105D01*
X1347070Y-351952D01*
X1344530D01*
X1341991Y-351105D01*
X1341145Y-350259D01*
X1340298Y-348566D01*
X643914Y-338408D02*
Y-337562D01*
X644761Y-335869D01*
X645608Y-335022D01*
X647300Y-334176D01*
X650686D01*
X652379Y-335022D01*
X653226Y-335869D01*
X654072Y-337562D01*
Y-339255D01*
X653226Y-340948D01*
X651533Y-343487D01*
X643068Y-351952D01*
X654919D01*
X-55600Y-337562D02*
X-53907Y-336715D01*
X-51368Y-334176D01*
Y-351952D01*
X-379790Y-102528D02*
Y-120304D01*
Y-102528D02*
X-373865D01*
X-371325Y-103374D01*
X-369632Y-105067D01*
X-368786Y-106760D01*
X-367939Y-109300D01*
Y-113532D01*
X-368786Y-116072D01*
X-369632Y-117765D01*
X-371325Y-119458D01*
X-373865Y-120304D01*
X-379790D01*
X-367093Y431720D02*
X-367939Y433413D01*
X-369632Y435106D01*
X-371325Y435952D01*
X-374711D01*
X-376404Y435106D01*
X-378097Y433413D01*
X-378943Y431720D01*
X-379790Y429180D01*
Y424948D01*
X-378943Y422408D01*
X-378097Y420715D01*
X-376404Y419022D01*
X-374711Y418176D01*
X-371325D01*
X-369632Y419022D01*
X-367939Y420715D01*
X-367093Y422408D01*
X-379790Y975702D02*
Y957926D01*
Y975702D02*
X-372172D01*
X-369632Y974856D01*
X-368786Y974009D01*
X-367939Y972316D01*
Y970623D01*
X-368786Y968930D01*
X-369632Y968084D01*
X-372172Y967237D01*
X-379790D02*
X-372172D01*
X-369632Y966391D01*
X-368786Y965544D01*
X-367939Y963851D01*
Y961312D01*
X-368786Y959619D01*
X-369632Y958773D01*
X-372172Y957926D01*
X-379790D01*
X-366246Y1497676D02*
X-373018Y1515452D01*
X-379790Y1497676D01*
X-377251Y1503601D02*
X-368786D01*
D297*
X565081Y264368D02*
X623081Y264368D01*
Y344368D01*
X565081Y344368D02*
X623081Y344368D01*
X565081Y264368D02*
X565081Y344368D01*
X471000Y129750D02*
X529000D01*
Y209750D01*
X471000D02*
X529000D01*
X471000Y129750D02*
Y209750D01*
X527250Y767406D02*
Y847406D01*
X585250D01*
Y767406D02*
Y847406D01*
X527250Y767406D02*
X585250D01*
X11349Y378785D02*
X69349D01*
Y458784D01*
X11349D02*
X69349D01*
X11349Y378785D02*
Y458784D01*
X332750Y727786D02*
Y807786D01*
X390750D01*
Y727786D02*
Y807786D01*
X332750Y727786D02*
X390750D01*
D323*
X338026Y143225D02*
Y149225D01*
X335026Y146225D02*
X341026Y146225D01*
X288215Y55000D02*
Y61000D01*
X285215Y58000D02*
X291215D01*
X133405Y287673D02*
Y293673D01*
X130405Y290673D02*
X136405D01*
X116925Y265805D02*
X122925D01*
X119925Y262805D02*
Y268805D01*
X119750Y304490D02*
X125750D01*
X122750Y301490D02*
Y307490D01*
X207000Y73000D02*
X213000D01*
X210000Y70000D02*
Y76000D01*
X517056Y451000D02*
X523056D01*
X520056Y448000D02*
Y454000D01*
X400845Y595382D02*
X406845D01*
X403845Y592382D02*
Y598382D01*
X379615Y599930D02*
X385615D01*
X382615Y596930D02*
Y602930D01*
X379761Y624254D02*
X385761D01*
X382761Y621254D02*
Y627254D01*
X400115Y627634D02*
X406115D01*
X403115Y624634D02*
Y630634D01*
X517646Y615150D02*
X523646D01*
X520646Y612150D02*
Y618150D01*
X498214Y635400D02*
X504214D01*
X501214Y632400D02*
Y638400D01*
X506396Y635400D02*
X512396D01*
X509396Y632400D02*
X509396Y638400D01*
X253713Y203903D02*
Y209903D01*
X250713Y206903D02*
X256713D01*
X253713Y192750D02*
Y198750D01*
X250713Y195750D02*
X256713D01*
X273750Y205500D02*
Y211500D01*
X270750Y208500D02*
X276750D01*
X551932Y650900D02*
X557932D01*
X554932Y647900D02*
Y653900D01*
X622602Y308563D02*
Y314563D01*
X619602Y311563D02*
X625602D01*
X659014Y437896D02*
Y443896D01*
X656014Y440896D02*
X662014D01*
X659014Y429896D02*
Y435896D01*
X656014Y432896D02*
X662014D01*
X531000Y140280D02*
X537000D01*
X534000Y137280D02*
Y143280D01*
X524250Y171250D02*
Y177250D01*
X521250Y174250D02*
X527250D01*
X618447Y260433D02*
X618447Y266433D01*
X615447Y263433D02*
X621447Y263433D01*
X656014Y424896D02*
X662014D01*
X659014Y421896D02*
Y427896D01*
X406250Y651250D02*
X412250D01*
X409250Y648250D02*
Y654250D01*
X445250Y679606D02*
X451250D01*
X448250Y676606D02*
Y682606D01*
X426573Y648730D02*
Y654730D01*
X423573Y651730D02*
X429573D01*
X448250Y684637D02*
Y690637D01*
X445250Y687637D02*
X451250D01*
X135500Y514382D02*
Y520382D01*
X132500Y517382D02*
X138500D01*
X399750Y410793D02*
X405750D01*
X402750Y407793D02*
Y413793D01*
X412981Y405732D02*
X417224Y409975D01*
X412981D02*
X417224Y405732D01*
X487250Y418750D02*
Y424750D01*
X484250Y421750D02*
X490250D01*
X531364Y778211D02*
X537364D01*
X534364Y775211D02*
Y781211D01*
X14438Y435784D02*
X20438D01*
X17438Y432785D02*
Y438785D01*
X61211Y377668D02*
X67211Y377668D01*
X64211Y374668D02*
X64211Y380668D01*
X529500Y824250D02*
X535500D01*
X532500Y821250D02*
Y827250D01*
X294890Y626035D02*
X300891D01*
X297890Y623035D02*
Y629035D01*
X294890Y641520D02*
X300891Y641520D01*
X297890Y638520D02*
Y644520D01*
X350005Y592688D02*
X356005D01*
X353005Y589688D02*
X353005Y595689D01*
X350005Y577035D02*
X356005D01*
X353005Y580035D02*
X353005Y574035D01*
X621500Y846500D02*
X627500D01*
X624500Y849500D02*
X624500Y843500D01*
X629750Y846500D02*
X635750D01*
X632750Y843500D02*
Y849500D01*
X468633Y404074D02*
X472875Y408316D01*
X468633D02*
X472875Y404074D01*
X489618Y402793D02*
X495618D01*
X492618Y399793D02*
Y405793D01*
X151250Y830563D02*
X157250D01*
X154250Y827562D02*
Y833562D01*
X151252Y814000D02*
X157252D01*
X154252Y811000D02*
Y817000D01*
X253223Y815000D02*
X259223D01*
X256223Y812000D02*
Y818000D01*
X253223Y830750D02*
X259223D01*
X256222Y833750D02*
X256222Y827750D01*
X619000Y667390D02*
Y673390D01*
X616000Y670390D02*
X622000D01*
X610637Y667466D02*
Y673466D01*
X607637Y670466D02*
X613637D01*
X278750Y821000D02*
X284750D01*
X281750Y818000D02*
Y824000D01*
X294000Y821000D02*
X300000D01*
X297000Y818000D02*
Y824000D01*
X294000Y812500D02*
X300000D01*
X297000Y809500D02*
Y815500D01*
X278750Y812500D02*
X284750D01*
X281750Y809500D02*
Y815500D01*
X298973Y798750D02*
Y804750D01*
X295973Y801750D02*
X301973D01*
X276000Y798750D02*
Y804750D01*
X273000Y801750D02*
X279000D01*
X133500Y61250D02*
Y67250D01*
X130500Y64250D02*
X136500D01*
X444750Y424750D02*
X444750Y418750D01*
X441750Y421750D02*
X447750D01*
X492763Y390521D02*
Y396521D01*
X489763Y393521D02*
X495763Y393521D01*
X541750Y317063D02*
Y323063D01*
X538750Y320063D02*
X544750Y320063D01*
X163399Y535500D02*
Y541500D01*
X160399Y538500D02*
X166399D01*
X656132Y413793D02*
X662132D01*
X659132Y416793D02*
X659132Y410793D01*
X554882Y320000D02*
X560882D01*
X557882Y317000D02*
Y323000D01*
X572598Y506850D02*
X572598Y500849D01*
X569598Y503849D02*
X575598Y503849D01*
X593658Y500800D02*
Y506800D01*
X590658Y503800D02*
X596658D01*
X541250Y501090D02*
Y507090D01*
X538250Y504090D02*
X544250D01*
X563382Y509033D02*
Y515033D01*
X560382Y512033D02*
X566382D01*
X610000Y507750D02*
X610000Y501750D01*
X607000Y504750D02*
X613000Y504750D01*
X629500Y502538D02*
X629500Y508538D01*
X626500Y505538D02*
X632500D01*
X86000Y693250D02*
Y699250D01*
X83000Y696250D02*
X89000D01*
X508208Y497500D02*
X508208Y503500D01*
X505208Y500500D02*
X511208D01*
X529682Y510359D02*
X529682Y516359D01*
X526682Y513359D02*
X532682Y513359D01*
X549750Y317063D02*
X549750Y323063D01*
X546750Y320063D02*
X552750Y320063D01*
X155500Y535500D02*
X155500Y541500D01*
X152500Y538500D02*
X158500Y538500D01*
X513500Y316750D02*
X513500Y322750D01*
X510500Y319750D02*
X516500Y319750D01*
X505500Y316750D02*
X505500Y322750D01*
X502500Y319750D02*
X508500Y319750D01*
X83986Y666577D02*
Y672577D01*
X80986Y669577D02*
X86986D01*
X83745Y650580D02*
Y656580D01*
X80745Y653580D02*
X86745D01*
X346239Y710088D02*
X352238D01*
X349239Y707088D02*
Y713088D01*
X274250Y657500D02*
Y663500D01*
X271250Y660500D02*
X277250D01*
X243927Y696000D02*
X249927D01*
X246927Y693000D02*
Y699000D01*
X236000Y695827D02*
X242000D01*
X239000Y692827D02*
Y698827D01*
X314500Y763639D02*
X320500D01*
X317500Y760639D02*
Y766639D01*
X290961Y754054D02*
Y760054D01*
X287962Y757054D02*
X293961D01*
X229860Y720603D02*
X235860D01*
X232860Y717603D02*
Y723603D01*
X230214Y736238D02*
X236214D01*
X233214Y733238D02*
Y739239D01*
X342250Y679238D02*
X348250D01*
X345250Y676238D02*
Y682238D01*
X142756Y814000D02*
X148756D01*
X145756Y811000D02*
Y817000D01*
X142756Y830563D02*
X148756D01*
X145756Y827562D02*
Y833562D01*
X261223Y815000D02*
X267222D01*
X264223Y812000D02*
Y818000D01*
X261223Y830750D02*
X267222D01*
X264223Y827750D02*
Y833750D01*
X198387Y467469D02*
Y473469D01*
X195387Y470469D02*
X201387D01*
X249750Y741750D02*
Y747750D01*
X246750Y744750D02*
X252750D01*
X91750Y430000D02*
X97750D01*
X94750Y427000D02*
Y433000D01*
X191298Y444169D02*
X197298D01*
X194298Y441169D02*
Y447169D01*
X226596Y445969D02*
Y451969D01*
X223596Y448969D02*
X229596Y448969D01*
X227816Y407999D02*
X227816Y413999D01*
X224816Y410999D02*
X230816D01*
X178469Y461500D02*
X184469D01*
X181469Y458500D02*
Y464500D01*
X130905Y375000D02*
X136905D01*
X133905Y372000D02*
Y378000D01*
X94750Y419078D02*
X94750Y425078D01*
X91750Y422078D02*
X97750D01*
X111000Y460233D02*
Y466232D01*
X108000Y463232D02*
X114000D01*
X144387Y470344D02*
X150387D01*
X147387Y467344D02*
Y473344D01*
X182111Y406459D02*
Y412459D01*
X179111Y409459D02*
X185110D01*
X58030Y893750D02*
Y899750D01*
X55030Y896750D02*
X61030D01*
X403250Y741882D02*
Y747882D01*
X400250Y744882D02*
X406250D01*
X301000Y773775D02*
Y779775D01*
X298000Y776775D02*
X304000D01*
X241750Y262750D02*
X247750D01*
X244750Y259750D02*
Y265750D01*
X258995Y263668D02*
X258995Y269668D01*
X255996Y266668D02*
X261996D01*
X627618Y667401D02*
Y673401D01*
X624618Y670401D02*
X630618D01*
X602632Y667466D02*
Y673466D01*
X599632Y670466D02*
X605632D01*
X339405Y234091D02*
X345405D01*
X342405Y231091D02*
Y237091D01*
X329439Y238173D02*
X335439D01*
X332439Y235173D02*
Y241173D01*
X347444Y234091D02*
X353444D01*
X350444Y231091D02*
Y237091D01*
X387162Y223823D02*
Y229823D01*
X384162Y226823D02*
X390162D01*
X384162Y218500D02*
X390162D01*
X387162Y215500D02*
Y221500D01*
X413000Y233169D02*
X419000D01*
X416000Y230169D02*
Y236169D01*
X127648Y304490D02*
X133648D01*
X130648Y301490D02*
Y307490D01*
X37750Y990000D02*
Y996000D01*
X34750Y993000D02*
X40750D01*
X46250Y990000D02*
Y996000D01*
X43250Y993000D02*
X49250D01*
X75270Y1024000D02*
X75270Y1030000D01*
X72270Y1027000D02*
X78270D01*
X45662Y967068D02*
Y973068D01*
X42662Y970068D02*
X48662D01*
X21250Y990250D02*
Y996250D01*
X18250Y993250D02*
X24250D01*
X29250Y996250D02*
X29250Y990250D01*
X26250Y993250D02*
X32250D01*
X21250Y1023750D02*
Y1029750D01*
X18250Y1026750D02*
X24250D01*
X46745Y896750D02*
X52745D01*
X49745Y893750D02*
Y899750D01*
X17993Y1035750D02*
X23993D01*
X20993Y1032750D02*
Y1038750D01*
X17993Y1044500D02*
X23993D01*
X20993Y1041500D02*
Y1047500D01*
X82000Y1037250D02*
X88000D01*
X85000Y1034250D02*
Y1040250D01*
X82000Y1046750D02*
X88000D01*
X85000Y1043750D02*
Y1049750D01*
X9000Y1053000D02*
X15000D01*
X12000Y1050000D02*
Y1056000D01*
X266723Y1023500D02*
X272723D01*
X269723Y1020500D02*
Y1026500D01*
X347250Y1007000D02*
X353250D01*
X350250Y1004000D02*
Y1010000D01*
X401000Y229793D02*
Y235793D01*
X398000Y232793D02*
X404000D01*
X549500Y721250D02*
X555500Y721250D01*
X552500Y718250D02*
Y724250D01*
X543182Y761296D02*
X549182Y761296D01*
X546182Y758296D02*
Y764296D01*
X232300Y645167D02*
Y651167D01*
X229300Y648167D02*
X235300D01*
X241466Y762917D02*
Y768917D01*
X238466Y765917D02*
X244466D01*
X284733Y769272D02*
Y775272D01*
X281733Y772272D02*
X287733D01*
X611000Y628544D02*
X617000D01*
X614000Y625544D02*
Y631544D01*
X614750Y620699D02*
X620750D01*
X617750Y617699D02*
Y623699D01*
X608757Y636553D02*
X614757D01*
X611757Y633553D02*
Y639553D01*
X609762Y598000D02*
Y604000D01*
X606762Y601000D02*
X612762D01*
X618000Y606056D02*
Y612056D01*
X615000Y609056D02*
X621000D01*
X618000Y589866D02*
Y595866D01*
X615000Y592866D02*
X621000D01*
X581882Y635000D02*
X587882D01*
X584882Y632000D02*
Y638000D01*
X576355Y611150D02*
Y617150D01*
X573355Y614150D02*
X579355D01*
X375389Y129627D02*
Y135627D01*
X372389Y132627D02*
X378389D01*
D325*
X230950Y33250D02*
G03*
X237300Y26900I6350J0D01*
G01*
X262700D02*
G03*
X269050Y33250I0J6350D01*
G01*
X232220Y81510D02*
G03*
X230950Y77700I5080J-3810D01*
G01*
X269050D02*
G03*
X267780Y81510I-6350J0D01*
G01*
X255080Y100560D02*
G03*
X244920Y100560I-5080J-3810D01*
G01*
X203097Y432414D02*
X209097D01*
X206098Y429414D02*
Y435414D01*
X202097Y424414D02*
Y440414D01*
X210098Y424414D02*
Y440414D01*
X202097Y424414D02*
X210098D01*
X202097Y440414D02*
X210098D01*
X160750Y566000D02*
X170750D01*
X165750Y561000D02*
Y571000D01*
X175000Y546000D02*
Y586000D01*
X156250Y546000D02*
Y586000D01*
X175000D01*
X156250Y546000D02*
X175000D01*
X211096Y415664D02*
X236096D01*
X236096Y444664D02*
X236096Y415664D01*
X211096Y444664D02*
X236096Y444664D01*
X211096Y415664D02*
Y444664D01*
X220596Y430164D02*
X226596D01*
X223596Y427164D02*
Y433164D01*
X261421Y770989D02*
X267421D01*
X264421Y767989D02*
Y773989D01*
X248671Y784739D02*
X280171D01*
Y757239D02*
Y784739D01*
X248671Y757239D02*
X280171D01*
X248671D02*
Y784739D01*
X25613Y934000D02*
X50613D01*
Y968000D01*
X25613D02*
X50613D01*
X25613Y934000D02*
Y968000D01*
X35613Y951000D02*
X40613D01*
X38113Y950000D02*
Y952000D01*
Y948500D02*
Y953500D01*
X89942Y638364D02*
Y706436D01*
X141758D01*
Y638364D02*
Y706436D01*
X89942Y638364D02*
X141758D01*
X115850Y668900D02*
Y675900D01*
X112350Y672400D02*
X119350D01*
X287000Y55708D02*
X383000D01*
X287000Y-10032D02*
X383000D01*
X287000D02*
X287005Y55708D01*
X383000Y-10032D02*
Y55708D01*
X613382Y493750D02*
X625382Y493750D01*
Y515750D01*
X613382Y515750D02*
X625382Y515750D01*
X613382Y493750D02*
Y515750D01*
X617382Y504750D02*
X621382D01*
X619382Y502750D02*
Y506750D01*
X51250Y1044250D02*
Y1049250D01*
Y1045750D02*
Y1047750D01*
X48750Y1046750D02*
X53750D01*
X73750Y1029250D02*
Y1064250D01*
X28750Y1029250D02*
X73750D01*
X28750D02*
Y1064250D01*
X73750D01*
X230950Y33250D02*
Y77700D01*
X269050Y33250D02*
Y77700D01*
X237300Y26900D02*
X262700D01*
X232220Y81510D02*
X244920Y100560D01*
X255080D02*
X267780Y81510D01*
X450750Y375000D02*
Y385000D01*
X445750Y380000D02*
X455750D01*
X440250Y370500D02*
X461250D01*
X440250Y389500D02*
X461250D01*
Y370500D02*
Y389500D01*
X440250D02*
X440250Y370500D01*
X517250Y309813D02*
Y330313D01*
X537750Y309813D02*
Y330313D01*
X517250D02*
X537750D01*
X517250Y309813D02*
X537750Y309813D01*
X553750Y725582D02*
X583750D01*
X553750D02*
Y767582D01*
X583750Y725582D02*
Y767582D01*
X553750D02*
X583750D01*
X568750Y744582D02*
Y748582D01*
X566750Y746582D02*
X570750D01*
X394250Y723500D02*
X404250Y723500D01*
X399250Y728500D02*
X399250Y718500D01*
X415250Y740500D02*
X415250Y706500D01*
X383250Y740500D02*
X383250Y706500D01*
X383250Y740500D02*
X415250Y740500D01*
X383250Y706500D02*
X415250Y706500D01*
X363000Y433043D02*
X371000Y433043D01*
X363000Y418543D02*
X371000Y418543D01*
X371000Y433043D02*
X371000Y418543D01*
X363000Y433043D02*
X363000Y418543D01*
X367000Y422293D02*
X367000Y428543D01*
X363750Y425543D02*
X369750Y425543D01*
X567750Y1004250D02*
X589250D01*
X567750D02*
Y1016250D01*
X589250D01*
Y1004250D02*
Y1016250D01*
X515792Y433328D02*
Y438328D01*
Y434828D02*
Y436828D01*
X513292Y435828D02*
X518292D01*
X507792Y428828D02*
Y442828D01*
X523792D01*
Y428828D02*
Y442828D01*
X507792Y428828D02*
X523792D01*
X338000Y847500D02*
Y1027500D01*
X58000Y847500D02*
X338000D01*
X58000D02*
Y1027500D01*
X338000D01*
X642912Y594894D02*
X652912D01*
X647912Y589894D02*
Y599894D01*
X637912Y577394D02*
Y612394D01*
X657912Y577394D02*
Y612394D01*
X637912Y577394D02*
X657912D01*
X637912Y612394D02*
X657912D01*
X574474Y641750D02*
Y653750D01*
X598475Y641750D02*
Y653750D01*
X574474D02*
X598475D01*
X574474Y641750D02*
X598475D01*
X581725Y647750D02*
X591225D01*
X586474Y643000D02*
Y652500D01*
X334026Y138250D02*
X342026Y138250D01*
X334026Y122250D02*
X342026Y122250D01*
Y138250D01*
X334026Y122250D02*
Y138250D01*
X338026Y127250D02*
Y133250D01*
X335026Y130250D02*
X341026D01*
X252636Y664077D02*
Y754077D01*
X342636Y664077D02*
Y754077D01*
X252636D02*
X342636D01*
X252636Y664077D02*
X342636D01*
X94750Y466871D02*
X184750D01*
X94750Y376871D02*
X184750D01*
Y466871D01*
X94750Y376871D02*
Y466871D01*
X528682Y641730D02*
X535682D01*
X532182Y638230D02*
Y645230D01*
X549682Y624230D02*
Y659230D01*
X514682D02*
X549682D01*
X514682Y624230D02*
Y659230D01*
Y624230D02*
X549682D01*
X251973Y804250D02*
Y841250D01*
X204973D02*
X204973Y804250D01*
X251973D01*
X204973Y841250D02*
X251973D01*
X429500Y417250D02*
Y421250D01*
X427500Y419250D02*
X431500Y419250D01*
X421500Y412250D02*
Y426250D01*
Y412250D02*
X437500D01*
Y426250D01*
X421500Y426250D02*
X437500Y426250D01*
X3500Y521500D02*
X150500D01*
X3500D02*
Y629500D01*
X72000Y571500D02*
Y581500D01*
X67000Y576500D02*
X77000D01*
X150500Y521500D02*
Y629500D01*
X3500D02*
X150500D01*
X533750Y958250D02*
X677750D01*
X533750Y854250D02*
Y958250D01*
X606500Y901250D02*
Y911250D01*
X533750Y854250D02*
X677750D01*
Y958250D01*
X601500Y906250D02*
X611500D01*
X384700Y426871D02*
Y432871D01*
X381700Y429871D02*
X387700D01*
X142500Y669750D02*
X152000D01*
X147250Y665000D02*
Y674500D01*
X141250Y657750D02*
Y681750D01*
X153250Y657750D02*
Y681750D01*
X141250Y657750D02*
X153250D01*
X141250Y681750D02*
X153250D01*
X153750Y669750D02*
X163250D01*
X158500Y665000D02*
Y674500D01*
X152500Y657750D02*
Y681750D01*
X164500Y657750D02*
Y681750D01*
X152500Y657750D02*
X164500D01*
X152500Y681750D02*
X164500D01*
X336500Y845250D02*
Y854750D01*
X331750Y850000D02*
X341250D01*
X324500Y856000D02*
X348500D01*
X324500Y844000D02*
X348500D01*
X324500D02*
Y856000D01*
X348500Y844000D02*
Y856000D01*
X326250Y227000D02*
X350250Y227000D01*
X326250Y203000D02*
X326250Y227000D01*
X326250Y203000D02*
X350250Y203000D01*
X350250Y227000D01*
X335750Y215000D02*
X340750Y215000D01*
X338250Y214000D02*
X338250Y216000D01*
X338250Y217500D02*
X338250Y212500D01*
X289500Y180500D02*
X289500Y204500D01*
X265500Y204500D02*
X289500Y204500D01*
X265500Y180500D02*
X265500Y204500D01*
X265500Y180500D02*
X289500Y180500D01*
X277500Y195000D02*
X277500Y190000D01*
X276500Y192500D02*
X278500Y192500D01*
X275000D02*
X280000Y192500D01*
X619700Y534150D02*
Y562250D01*
X631400D01*
Y534150D02*
Y562250D01*
X619700Y534150D02*
X631400D01*
X622960Y548250D02*
X628040D01*
X625500Y545710D02*
Y550790D01*
X400000Y425871D02*
X405500D01*
X402750Y423121D02*
Y428621D01*
X406750Y418371D02*
X406750Y433371D01*
X398750Y418371D02*
Y433371D01*
X406750D01*
X398750Y418371D02*
X406750Y418371D01*
X370750Y1007250D02*
Y1015250D01*
X354750Y1007250D02*
Y1015250D01*
Y1007250D02*
X370750D01*
X354750Y1015250D02*
X370750D01*
X360000Y1011250D02*
X365500D01*
X362750Y1008500D02*
Y1014000D01*
X393500Y190900D02*
X428500D01*
Y225900D01*
X393500D02*
X428500D01*
X393500Y190900D02*
Y225900D01*
X408500Y208400D02*
X413500D01*
X411000Y207400D02*
Y209400D01*
Y205900D02*
Y210900D01*
X334836Y121131D02*
Y151131D01*
X299836Y121131D02*
X334836Y121131D01*
X299836Y121131D02*
Y151131D01*
X334836Y151131D01*
X317336Y134131D02*
Y138131D01*
X315336Y136131D02*
X319336D01*
X457500Y338668D02*
X461500D01*
X459500Y336668D02*
Y340668D01*
X447500Y323668D02*
X471500Y323668D01*
Y353669D01*
X447500Y353668D02*
X471500Y353669D01*
X447500Y323668D02*
Y353668D01*
X-31500Y1059000D02*
X163500D01*
Y1201000D01*
X-31500D02*
X163500D01*
X-31500Y1059000D02*
Y1201000D01*
X51500Y1127500D02*
Y1132500D01*
X50500Y1130000D02*
X52500D01*
X49000D02*
X54000D01*
X619000Y647307D02*
Y657307D01*
X614000Y652307D02*
X624000D01*
X595500Y640307D02*
X642500D01*
X595500Y664307D02*
X642500D01*
Y640307D02*
Y664307D01*
X595500Y640307D02*
Y664307D01*
X169500Y30000D02*
X175500D01*
X172500Y27000D02*
Y33000D01*
X174250Y783000D02*
X178250D01*
X176250Y781000D02*
Y785000D01*
X165250Y774000D02*
X187250D01*
Y792000D01*
X165250D02*
X187250D01*
X165250Y774000D02*
Y792000D01*
X562000Y-53000D02*
Y114007D01*
X418007D02*
X562000D01*
X418000Y-53000D02*
X562000D01*
X418000D02*
Y31000D01*
Y114000D01*
X404750Y655250D02*
Y693250D01*
X440750Y655250D02*
Y693250D01*
X404750Y655250D02*
X440750D01*
X404750Y693250D02*
X440750D01*
X371939Y122782D02*
Y149782D01*
X343439Y122782D02*
X371939D01*
X354189Y136282D02*
X361189D01*
X357689Y132782D02*
Y139782D01*
X343439Y149782D02*
X371939D01*
X343439Y122782D02*
Y149782D01*
X457551Y693980D02*
X489551D01*
X457551Y740980D02*
X489551D01*
X457551Y693980D02*
Y740980D01*
X489551Y693980D02*
Y740980D01*
X321536Y753995D02*
X333536D01*
X321536Y777995D02*
X333536D01*
X321536Y753995D02*
Y777995D01*
X333536Y753995D02*
Y777995D01*
X327536Y761245D02*
Y770745D01*
X322786Y765995D02*
X332286D01*
X592298Y616422D02*
X596298D01*
X594298Y614422D02*
Y618422D01*
X582298Y601422D02*
X606298Y601422D01*
Y631422D01*
X582298Y631422D02*
X606298Y631422D01*
X582298Y601422D02*
Y631422D01*
X595105Y654216D02*
Y674216D01*
X575105Y654216D02*
X595105Y654216D01*
X575105Y654216D02*
Y674216D01*
X595105Y674216D01*
X585105Y662216D02*
Y666216D01*
X583105Y664216D02*
X587105D01*
X217817Y737782D02*
X227817D01*
X222817Y732782D02*
Y742782D01*
X230317Y722282D02*
Y753282D01*
X215317Y722282D02*
Y753282D01*
X230317D01*
X215317Y722282D02*
X230317D01*
X466929Y421750D02*
X474000Y414679D01*
X466929Y421750D02*
X474000Y428821D01*
X481071Y421750D01*
X474000Y414679D02*
X481071Y421750D01*
X472586Y423164D02*
X475414Y420336D01*
X472586D02*
X475414Y423164D01*
X616000Y1017000D02*
X643750Y1017000D01*
X643750Y1063000D01*
X616000D02*
X643750D01*
X616000D02*
X616000Y1017000D01*
X625000Y1040000D02*
X635000D01*
X630000Y1035000D02*
Y1045000D01*
X37750Y862000D02*
Y866000D01*
X35750Y864000D02*
X39750D01*
X67750Y839000D02*
X67750Y889000D01*
X20250D02*
X67750D01*
X20250D02*
X20250Y839000D01*
X67750D01*
X303500Y264673D02*
X303500Y224423D01*
X246000Y224423D02*
X303500Y224423D01*
X246000Y264673D02*
X246000Y224423D01*
X246000Y264673D02*
X303500Y264673D01*
X274750Y242673D02*
Y246673D01*
X272750Y244673D02*
X276750D01*
X384000Y57750D02*
Y72750D01*
X353000Y57750D02*
Y72750D01*
Y57750D02*
X384000D01*
X353000Y72750D02*
X384000D01*
X363500Y65250D02*
X373500D01*
X368500Y60250D02*
Y70250D01*
X321967Y52000D02*
Y67000D01*
X290967Y52000D02*
Y67000D01*
Y52000D02*
X321967D01*
X290967Y67000D02*
X321967D01*
X301467Y59500D02*
X311467D01*
X306467Y54500D02*
Y64500D01*
X162500Y357296D02*
X170500D01*
X162500Y373296D02*
X170500D01*
X162500Y357296D02*
Y373296D01*
X170500Y357296D02*
Y373296D01*
X166500Y362296D02*
Y368296D01*
X163500Y365296D02*
X169500D01*
X559702Y694381D02*
X559702Y726381D01*
X606702Y694381D02*
X606702Y726381D01*
X559702Y726381D02*
X606702Y726381D01*
X559702Y694381D02*
X606702Y694381D01*
X463040Y108750D02*
Y114750D01*
X460039Y111750D02*
X466040D01*
X455039Y115750D02*
X471040D01*
X455039Y107750D02*
X471040D01*
X455039D02*
Y115750D01*
X471040Y107750D02*
Y115750D01*
X463040Y117250D02*
Y123250D01*
X460039Y120250D02*
X466040D01*
X455039Y124250D02*
X471040D01*
X455039Y116250D02*
X471040D01*
X455039D02*
Y124250D01*
X471040Y116250D02*
Y124250D01*
X455039Y124750D02*
Y132750D01*
X471040Y124750D02*
Y132750D01*
X455039D02*
X471040D01*
X455039Y124750D02*
X471040D01*
X460039Y128750D02*
X466040D01*
X463040Y125750D02*
Y131750D01*
X214415Y781738D02*
Y785738D01*
X212415Y783738D02*
X216415D01*
X205415Y772738D02*
Y794738D01*
Y772738D02*
X223415D01*
Y794738D01*
X205415D02*
X223415D01*
X144905Y267805D02*
Y272805D01*
Y269305D02*
Y271305D01*
X142405Y270305D02*
X147405D01*
X122405Y252805D02*
Y287805D01*
X167405D01*
Y252805D02*
Y287805D01*
X122405Y252805D02*
X167405D01*
X462100Y888250D02*
X468100D01*
X465100Y885250D02*
Y891250D01*
X469100Y880250D02*
Y896250D01*
X461100Y880250D02*
Y896250D01*
X469100D01*
X461100Y880250D02*
X469100D01*
X633250Y535358D02*
X641250D01*
X633250Y519358D02*
X641250D01*
Y535358D01*
X633250Y519358D02*
Y535358D01*
X637250Y524358D02*
Y530358D01*
X634250Y527358D02*
X640250D01*
X641250Y535319D02*
X649250D01*
X641250Y519319D02*
X649250D01*
Y535319D01*
X641250Y519319D02*
Y535319D01*
X645250Y524319D02*
Y530319D01*
X642250Y527319D02*
X648250D01*
X611269Y561000D02*
X619268D01*
X611269Y545000D02*
X619268D01*
Y561000D01*
X611269Y545000D02*
Y561000D01*
X615269Y550000D02*
Y556000D01*
X612268Y553000D02*
X618269D01*
X150422Y775073D02*
Y783073D01*
X166422Y775073D02*
Y783073D01*
X150422D02*
X166422D01*
X150422Y775073D02*
X166422D01*
X155422Y779073D02*
X161422D01*
X158422Y776073D02*
Y782073D01*
X187500Y773000D02*
X195500D01*
X187500Y789000D02*
X195500D01*
X187500Y773000D02*
Y789000D01*
X195500Y773000D02*
Y789000D01*
X191500Y778000D02*
Y784000D01*
X188500Y781000D02*
X194500D01*
X238250Y773500D02*
Y781500D01*
X222250Y773500D02*
Y781500D01*
Y773500D02*
X238250D01*
X222250Y781500D02*
X238250D01*
X227250Y777500D02*
X233250D01*
X230250Y774500D02*
Y780500D01*
X196250Y773000D02*
X204250D01*
X196250Y789000D02*
X204250D01*
X196250Y773000D02*
Y789000D01*
X204250Y773000D02*
Y789000D01*
X200250Y778000D02*
Y784000D01*
X197250Y781000D02*
X203250D01*
X164545Y662000D02*
X182545D01*
Y640000D02*
Y662000D01*
X164545Y640000D02*
X182545D01*
X164545D02*
Y662000D01*
X171545Y651000D02*
X175545D01*
X173545Y649000D02*
Y653000D01*
X472750Y904250D02*
Y908250D01*
X470750Y906250D02*
X474750D01*
X481750Y895250D02*
Y917250D01*
X463750D02*
X481750D01*
X463750Y895250D02*
Y917250D01*
Y895250D02*
X481750D01*
X631250Y465750D02*
X649250D01*
X631250D02*
Y487750D01*
X649250D01*
Y465750D02*
Y487750D01*
X638250Y476750D02*
X642250D01*
X640250Y474750D02*
Y478750D01*
X466850Y864710D02*
Y869790D01*
X464310Y867250D02*
X469390D01*
X461050Y853150D02*
X472750D01*
Y881250D01*
X461050D02*
X472750D01*
X461050Y853150D02*
Y881250D01*
X632000Y548000D02*
X641500D01*
X636750Y543250D02*
Y552750D01*
X642750Y536000D02*
Y560000D01*
X630750Y536000D02*
Y560000D01*
X642750D01*
X630750Y536000D02*
X642750D01*
X643000Y535957D02*
X655000D01*
X643000Y559957D02*
X655000D01*
X643000Y535957D02*
Y559957D01*
X655000Y535957D02*
Y559957D01*
X649000Y543207D02*
Y552707D01*
X644250Y547957D02*
X653750D01*
X154250Y768250D02*
X166250D01*
X154250Y744250D02*
X166250D01*
Y768250D01*
X154250Y744250D02*
Y768250D01*
X160250Y751500D02*
Y761000D01*
X155500Y756250D02*
X165000D01*
X166750Y756250D02*
X176250D01*
X171500Y751500D02*
Y761000D01*
X165500Y744250D02*
Y768250D01*
X177500Y744250D02*
Y768250D01*
X165500Y744250D02*
X177500D01*
X165500Y768250D02*
X177500D01*
X192419Y743044D02*
X201919D01*
X197169Y738293D02*
Y747794D01*
X191169Y731043D02*
Y755043D01*
X203169Y731043D02*
Y755043D01*
X191169Y731043D02*
X203169D01*
X191169Y755043D02*
X203169D01*
X202615D02*
X214615D01*
X202615Y731043D02*
X214615D01*
Y755043D01*
X202615Y731043D02*
Y755043D01*
X208615Y738293D02*
Y747794D01*
X203865Y743044D02*
X213365D01*
X496750Y875250D02*
X504750D01*
X496750Y891250D02*
X504750D01*
X496750Y875250D02*
Y891250D01*
X504750Y875250D02*
Y891250D01*
X500750Y880250D02*
Y886250D01*
X497750Y883250D02*
X503750D01*
X506250D02*
X512250D01*
X509250Y880250D02*
Y886250D01*
X513250Y875250D02*
Y891250D01*
X505250Y875250D02*
Y891250D01*
X513250D01*
X505250Y875250D02*
X513250D01*
X491264Y917422D02*
X521236D01*
Y895578D02*
Y917422D01*
X491264Y895578D02*
X521236D01*
X491264D02*
Y917422D01*
X506250Y903000D02*
Y910000D01*
X502750Y906500D02*
X509750D01*
X514750Y883250D02*
X520750D01*
X517750Y880250D02*
Y886250D01*
X521750Y875250D02*
Y891250D01*
X513750Y875250D02*
Y891250D01*
X521750D01*
X513750Y875250D02*
X521750D01*
X495028Y963250D02*
X503028D01*
X495028Y947250D02*
X503028D01*
Y963250D01*
X495028Y947250D02*
Y963250D01*
X499028Y952250D02*
Y958250D01*
X496028Y955250D02*
X502028D01*
X503000Y958000D02*
X522000Y958000D01*
X503000Y937000D02*
X522000D01*
Y958000D01*
X503000Y937000D02*
Y958000D01*
X512500Y942500D02*
Y952500D01*
X507500Y947500D02*
X517500D01*
X473750Y867250D02*
X483250D01*
X478500Y862500D02*
Y872000D01*
X472500Y855250D02*
Y879250D01*
X484500Y855250D02*
Y879250D01*
X472500Y855250D02*
X484500D01*
X472500Y879250D02*
X484500D01*
X484750D02*
X496750D01*
X484750Y855250D02*
X496750D01*
Y879250D01*
X484750Y855250D02*
Y879250D01*
X490750Y862500D02*
Y872000D01*
X486000Y867250D02*
X495500D01*
X478000Y887250D02*
X484000D01*
X481000Y884250D02*
Y890250D01*
X485000Y879250D02*
Y895250D01*
X477000Y879250D02*
Y895250D01*
X485000D01*
X477000Y879250D02*
X485000D01*
X486750Y887250D02*
X492750D01*
X489750Y884250D02*
Y890250D01*
X493750Y879250D02*
Y895250D01*
X485750Y879250D02*
Y895250D01*
X493750D01*
X485750Y879250D02*
X493750D01*
X378650Y578964D02*
Y586964D01*
X394650Y578964D02*
Y586964D01*
X378650D02*
X394650D01*
X378650Y578964D02*
X394650D01*
X383650Y582964D02*
X389650D01*
X386650Y579964D02*
Y585964D01*
X379000Y638000D02*
Y646000D01*
X395000Y638000D02*
Y646000D01*
X379000D02*
X395000D01*
X379000Y638000D02*
X395000D01*
X384000Y642000D02*
X390000D01*
X387000Y639000D02*
Y645000D01*
X422500Y603984D02*
Y611984D01*
X406500Y603984D02*
Y611984D01*
Y603984D02*
X422500D01*
X406500Y611984D02*
X422500D01*
X411500Y607984D02*
X417500D01*
X414500Y604984D02*
Y610984D01*
X511250Y820500D02*
X517250D01*
X514250Y817500D02*
Y823500D01*
X510250Y812500D02*
Y828500D01*
X518250Y812500D02*
Y828500D01*
X510250Y812500D02*
X518250D01*
X510250Y828500D02*
X518250D01*
X545005Y243185D02*
Y249185D01*
X542005Y246185D02*
X548005D01*
X537005Y250185D02*
X553005D01*
X537005Y242185D02*
X553005D01*
X537005D02*
Y250185D01*
X553005Y242185D02*
Y250185D01*
X346599Y816829D02*
X352599D01*
X349599Y813829D02*
Y819829D01*
X345599Y808829D02*
Y824829D01*
X353599Y808829D02*
Y824829D01*
X345599Y808829D02*
X353599D01*
X345599Y824829D02*
X353599D01*
X174327Y668750D02*
X180327D01*
X177327Y665750D02*
Y671750D01*
X173327Y660750D02*
Y676750D01*
X181327Y660750D02*
Y676750D01*
X173327Y660750D02*
X181327D01*
X173327Y676750D02*
X181327D01*
X166315Y668750D02*
X172315D01*
X169315Y665750D02*
Y671750D01*
X165315Y660750D02*
Y676750D01*
X173315Y660750D02*
Y676750D01*
X165315Y660750D02*
X173315D01*
X165315Y676750D02*
X173315D01*
X510750Y841000D02*
X520250D01*
X515500Y836250D02*
Y845750D01*
X521500Y829000D02*
Y853000D01*
X509500Y829000D02*
Y853000D01*
X521500D01*
X509500Y829000D02*
X521500D01*
X544500Y262698D02*
X554000D01*
X549250Y257948D02*
Y267448D01*
X555250Y250698D02*
Y274698D01*
X543250Y250698D02*
Y274698D01*
X555250D01*
X543250Y250698D02*
X555250D01*
X244761Y447500D02*
Y453500D01*
X241761Y450500D02*
X247761D01*
X236761Y454500D02*
X252761D01*
X236761Y446500D02*
X252761D01*
X236761D02*
Y454500D01*
X252761Y446500D02*
Y454500D01*
X237275Y458883D02*
Y468883D01*
X232275Y463883D02*
X242275D01*
X226775Y454383D02*
X247775D01*
X226775Y473383D02*
X247775D01*
Y454383D02*
Y473383D01*
X226775Y454383D02*
Y473383D01*
X211061Y484383D02*
X226061D01*
X211061Y453383D02*
X226061D01*
Y484383D01*
X211061Y453383D02*
Y484383D01*
X218561Y463883D02*
Y473883D01*
X213561Y468883D02*
X223561D01*
X94750Y402000D02*
Y408000D01*
X91750Y405000D02*
X97750D01*
X86750Y401000D02*
X102750D01*
X86750Y409000D02*
X102750D01*
Y401000D02*
Y409000D01*
X86750Y401000D02*
Y409000D01*
X94750Y386084D02*
Y392084D01*
X91750Y389084D02*
X97750D01*
X86750Y385084D02*
X102750D01*
X86750Y393084D02*
X102750D01*
Y385084D02*
Y393084D01*
X86750Y385084D02*
Y393084D01*
X185607Y377569D02*
Y383569D01*
X182607Y380569D02*
X188607D01*
X177607Y384569D02*
X193607D01*
X177607Y376569D02*
X193607D01*
X177607D02*
Y384569D01*
X193607Y376569D02*
Y384569D01*
X94750Y443371D02*
Y449371D01*
X91750Y446371D02*
X97750D01*
X86750Y442371D02*
X102750D01*
X86750Y450371D02*
X102750D01*
Y442371D02*
Y450371D01*
X86750Y442371D02*
Y450371D01*
X94750Y378162D02*
Y384162D01*
X91750Y381162D02*
X97750D01*
X86750Y377162D02*
X102750D01*
X86750Y385163D02*
X102750D01*
Y377162D02*
Y385163D01*
X86750Y377162D02*
Y385163D01*
X95250Y458750D02*
X101250D01*
X98250Y455750D02*
Y461750D01*
X94250Y450750D02*
Y466750D01*
X102250Y450750D02*
Y466750D01*
X94250Y450750D02*
X102250D01*
X94250Y466750D02*
X102250D01*
X94750Y394059D02*
Y400059D01*
X91750Y397060D02*
X97750D01*
X86750Y393059D02*
X102750D01*
X86750Y401059D02*
X102750D01*
Y393059D02*
Y401059D01*
X86750Y393059D02*
Y401059D01*
X112000Y372567D02*
X118000D01*
X115000Y369567D02*
Y375567D01*
X111000Y364567D02*
Y380567D01*
X119000Y364567D02*
Y380567D01*
X111000Y364567D02*
X119000D01*
X111000Y380567D02*
X119000D01*
X99425Y817000D02*
Y825000D01*
X83425Y817000D02*
Y825000D01*
Y817000D02*
X99425D01*
X83425Y825000D02*
X99425D01*
X88425Y821000D02*
X94425D01*
X91425Y818000D02*
Y824000D01*
X523646Y661900D02*
Y667900D01*
X520646Y664900D02*
X526646D01*
X515646Y668900D02*
X531646D01*
X515646Y660900D02*
X531646D01*
X515646D02*
Y668900D01*
X531646Y660900D02*
Y668900D01*
X533896Y615627D02*
Y621627D01*
X530896Y618627D02*
X536896D01*
X525896Y622627D02*
X541896D01*
X525896Y614627D02*
X541896D01*
X525896D02*
Y622627D01*
X541896Y614627D02*
Y622627D01*
X550577Y615627D02*
Y621627D01*
X547576Y618627D02*
X553577D01*
X542576Y622627D02*
X558577D01*
X542576Y614627D02*
X558577D01*
X542576D02*
Y622627D01*
X558577Y614627D02*
Y622627D01*
X551750Y606222D02*
X557750D01*
X554750Y603222D02*
X554750Y609222D01*
X558750Y598222D02*
Y614222D01*
X550750Y598222D02*
Y614222D01*
X558750D01*
X550750Y598222D02*
X558750D01*
X521750Y302250D02*
Y308250D01*
X518750Y305250D02*
X524750D01*
X513750Y309250D02*
X529750D01*
X513750Y301250D02*
X529750D01*
X513750D02*
Y309250D01*
X529750Y301250D02*
Y309250D01*
X555032Y529250D02*
Y535250D01*
X552032Y532250D02*
X558032D01*
X547032Y536250D02*
X563032D01*
X547032Y528250D02*
X563032D01*
X547032D02*
Y536250D01*
X563032Y528250D02*
Y536250D01*
X530932Y290750D02*
X536932D01*
X533932Y287750D02*
Y293750D01*
X529932Y282750D02*
Y298750D01*
X537932Y282750D02*
Y298750D01*
X529932Y282750D02*
X537932D01*
X529932Y298750D02*
X537932D01*
X521250Y253750D02*
Y259750D01*
X518250Y256750D02*
X524250D01*
X513250Y260750D02*
X529250D01*
X513250Y252750D02*
X529250D01*
X513250D02*
Y260750D01*
X529250Y252750D02*
Y260750D01*
X162531Y605750D02*
Y611750D01*
X159531Y608750D02*
X165531D01*
X154531Y604750D02*
X170531D01*
X154531Y612750D02*
X170531D01*
Y604750D02*
Y612750D01*
X154531Y604750D02*
Y612750D01*
X162531Y597289D02*
Y603288D01*
X159531Y600289D02*
X165531D01*
X154531Y596288D02*
X170531D01*
X154531Y604288D02*
X170531D01*
Y596288D02*
Y604288D01*
X154531Y596288D02*
Y604288D01*
X359681Y621401D02*
X365681D01*
X362681Y618401D02*
Y624401D01*
X366681Y613401D02*
Y629401D01*
X358681Y613401D02*
Y629401D01*
X366681D01*
X358681Y613401D02*
X366681D01*
X360750Y634230D02*
Y644230D01*
X355750Y639230D02*
X365750D01*
X350250Y648730D02*
X371250D01*
X350250Y629730D02*
X371250D01*
X350250D02*
Y648730D01*
X371250Y629730D02*
Y648730D01*
X351005Y621401D02*
X357005D01*
X354005Y618401D02*
Y624401D01*
X358005Y613401D02*
Y629401D01*
X350005Y613401D02*
Y629401D01*
X358005D01*
X350005Y613401D02*
X358005D01*
X372250Y636738D02*
X378250D01*
X375250Y633738D02*
Y639738D01*
X371250Y628738D02*
X371250Y644738D01*
X379250D02*
X379250Y628738D01*
X371250D02*
X379250D01*
X371250Y644738D02*
X379250D01*
X111723Y822500D02*
X121723D01*
X116723Y817500D02*
Y827500D01*
X107223Y812000D02*
Y833000D01*
X126223Y812000D02*
Y833000D01*
X107223Y812000D02*
X126223D01*
X107223Y833000D02*
X126223D01*
X126973Y829000D02*
X134973D01*
X126973Y813000D02*
X134973D01*
Y829000D01*
X126973Y813000D02*
Y829000D01*
X130973Y818000D02*
Y824000D01*
X127973Y821000D02*
X133973D01*
X267715Y618035D02*
Y628035D01*
X262716Y623035D02*
X272716D01*
X257216Y632535D02*
X278216D01*
X257216Y613535D02*
X278216D01*
X257216D02*
Y632535D01*
X278216D02*
X278216Y613535D01*
X248961Y627859D02*
X256961D01*
X248961Y611860D02*
X256961D01*
Y627859D01*
X248961Y611860D02*
Y627859D01*
X252961Y616860D02*
Y622859D01*
X249961Y619860D02*
X255961D01*
X278195Y613691D02*
X286195D01*
X278195Y629691D02*
X286195D01*
X278195Y613691D02*
Y629691D01*
X286195Y613691D02*
Y629691D01*
X282195Y618691D02*
Y624691D01*
X279195Y621691D02*
X285195D01*
X547382Y475293D02*
X555382D01*
X547382Y459293D02*
X555382D01*
Y475293D01*
X547382Y459293D02*
Y475293D01*
X551382Y464543D02*
Y470043D01*
X548632Y467293D02*
X554132D01*
X555882Y475293D02*
X563882D01*
X555882Y459293D02*
X563882D01*
Y475293D01*
X555882Y459293D02*
Y475293D01*
X559882Y464543D02*
Y470043D01*
X557132Y467293D02*
X562632D01*
X494750Y428750D02*
X510750Y428750D01*
X510750Y414750D02*
X510750Y428750D01*
X494750Y414750D02*
X510750Y414750D01*
X494750Y414750D02*
X494750Y428750D01*
X500750Y421750D02*
X504750D01*
X502750Y419750D02*
Y423750D01*
X76109Y476000D02*
X84109D01*
X76109Y492000D02*
X84109D01*
X76109Y476000D02*
Y492000D01*
X84109Y476000D02*
Y492000D01*
X80109Y481000D02*
Y487000D01*
X77109Y484000D02*
X83109D01*
X136500Y485500D02*
Y491500D01*
X133500Y488500D02*
X139500D01*
X128500Y484500D02*
X144500D01*
X128500Y492500D02*
X144500D01*
Y484500D02*
Y492500D01*
X128500Y484500D02*
Y492500D01*
X127000Y513461D02*
X146000D01*
X127000Y492461D02*
X146000D01*
Y513461D01*
X127000Y492461D02*
Y513461D01*
X136500Y497961D02*
Y507961D01*
X131500Y502961D02*
X141500D01*
X579316Y475543D02*
X587316D01*
X579316Y459543D02*
X587316D01*
Y475543D01*
X579316Y459543D02*
Y475543D01*
X583316Y464793D02*
Y470293D01*
X580566Y467543D02*
X586066D01*
X587632Y475543D02*
X595632D01*
X587632Y459543D02*
X595632D01*
Y475543D01*
X587632Y459543D02*
Y475543D01*
X591632Y464793D02*
Y470293D01*
X588882Y467543D02*
X594382D01*
X605007Y475293D02*
X613007D01*
X605007Y459293D02*
X613007D01*
Y475293D01*
X605007Y459293D02*
Y475293D01*
X609007Y464543D02*
Y470043D01*
X606257Y467293D02*
X611757D01*
X613382Y475293D02*
X621382D01*
X613382Y459293D02*
X621382D01*
Y475293D01*
X613382Y459293D02*
Y475293D01*
X617382Y464543D02*
Y470043D01*
X614632Y467293D02*
X620132D01*
X244346Y713577D02*
Y719577D01*
X241346Y716577D02*
X247346D01*
X236346Y712577D02*
X252346D01*
X236346Y720577D02*
X252346D01*
Y712577D02*
Y720577D01*
X236346Y712577D02*
Y720577D01*
X155550Y374084D02*
X161550D01*
X158550Y371084D02*
Y377084D01*
X154550Y366084D02*
Y382084D01*
X162550Y366084D02*
Y382084D01*
X154550Y366084D02*
X162550D01*
X154550Y382084D02*
X162550D01*
X112723Y849250D02*
X120723D01*
X112723Y833250D02*
X120723D01*
Y849250D01*
X112723Y833250D02*
Y849250D01*
X116723Y838250D02*
Y844250D01*
X113723Y841250D02*
X119722D01*
X596382Y459543D02*
X604382D01*
X596382Y475543D02*
X604382D01*
X596382Y459543D02*
Y475543D01*
X604382Y459543D02*
Y475543D01*
X600382Y464543D02*
Y470543D01*
X597382Y467543D02*
X603382D01*
X301863Y615307D02*
X348863Y615307D01*
X301863Y652307D02*
X348863D01*
X348863Y615307D02*
X348863Y652307D01*
X301863D02*
X301863Y615307D01*
X348863Y566417D02*
Y603417D01*
X301863Y566417D02*
X301863Y603417D01*
X301863Y566417D02*
X348863D01*
X301863Y603417D02*
X348863D01*
X311974Y775804D02*
Y822804D01*
X343974Y775804D02*
Y822804D01*
X311974Y775804D02*
X343974D01*
X311974Y822804D02*
X343974D01*
X426250Y694000D02*
X458250D01*
X426250Y741000D02*
X458250D01*
X426250Y694000D02*
Y741000D01*
X458250Y694000D02*
Y741000D01*
X281750Y825500D02*
X296750D01*
X281750Y856500D02*
X296750D01*
X281750Y825500D02*
Y856500D01*
X296750Y825500D02*
Y856500D01*
X289250Y836000D02*
Y846000D01*
X284250Y841000D02*
X294250D01*
X503132Y365543D02*
Y373543D01*
X487132Y365543D02*
Y373543D01*
Y365543D02*
X503132D01*
X487132Y373543D02*
X503132D01*
X492132Y369543D02*
X498132D01*
X495132Y366543D02*
Y372543D01*
X511132Y366543D02*
Y372543D01*
X508132Y369543D02*
X514132Y369543D01*
X503132Y365543D02*
X519132Y365543D01*
X503132Y373543D02*
X519132Y373543D01*
X519132Y365543D02*
X519132Y373543D01*
X503132Y373543D02*
X503132Y365543D01*
X500132Y467293D02*
X508132D01*
X500132Y483293D02*
X508132D01*
X500132Y467293D02*
Y483293D01*
X508132Y467293D02*
Y483293D01*
X504132Y472293D02*
X504132Y478293D01*
X501132Y475293D02*
X507132D01*
X491250Y467250D02*
X499250D01*
X491250Y483250D02*
X499250D01*
X491250Y467250D02*
X491250Y483250D01*
X499250Y467250D02*
X499250Y483250D01*
X495250Y472250D02*
Y478250D01*
X492250Y475250D02*
X498250Y475250D01*
X651382Y371043D02*
Y379043D01*
X667382Y371043D02*
X667382Y379043D01*
X651382Y379043D02*
X667382Y379043D01*
X651382Y371043D02*
X667382D01*
X656382Y375043D02*
X662382Y375043D01*
X659382Y378043D02*
X659382Y372043D01*
X489000Y512000D02*
X497000Y512000D01*
X489000Y528000D02*
X497000D01*
X489000Y512000D02*
X489000Y528000D01*
X497000D02*
X497000Y512000D01*
X493000Y517000D02*
Y523000D01*
X490000Y520000D02*
X496000Y520000D01*
X651234Y408543D02*
X651234Y400543D01*
X667234Y400543D02*
X667234Y408543D01*
X651234D02*
X667234D01*
X651234Y400543D02*
X667234Y400543D01*
X656234Y404543D02*
X662234Y404543D01*
X659234Y401543D02*
Y407543D01*
X501382Y394793D02*
X501382Y375793D01*
X522382D02*
Y394793D01*
X501382D02*
X522382D01*
X501382Y375793D02*
X522382D01*
X506882Y385293D02*
X516882D01*
X511882Y380293D02*
Y390293D01*
X501070Y381293D02*
X501070Y389293D01*
X485070Y381293D02*
X485070Y389293D01*
X485070Y381293D02*
X501070Y381293D01*
X485070Y389293D02*
X501070Y389293D01*
X490320Y385293D02*
X495820Y385293D01*
X493070Y382543D02*
Y388043D01*
X468500Y417750D02*
X468500Y425750D01*
X452500Y417750D02*
X452500Y425750D01*
X452500Y417750D02*
X468500Y417750D01*
X452500Y425750D02*
X468500Y425750D01*
X457750Y421750D02*
X463250Y421750D01*
X460500Y419000D02*
Y424500D01*
X520632Y491493D02*
X520632Y483493D01*
X504632Y491493D02*
X504632Y483493D01*
X520632Y483493D01*
X504632Y491493D02*
X520632Y491493D01*
X509632Y487493D02*
X515632D01*
X512632Y490493D02*
X512632Y484493D01*
X530882Y459793D02*
X538882Y459793D01*
X530882Y475793D02*
X538882Y475793D01*
X530882Y475793D02*
X530882Y459793D01*
X538882Y459793D02*
X538882Y475793D01*
X534882Y464793D02*
X534882Y470793D01*
X531882Y467793D02*
X537882D01*
X600870Y524817D02*
X606870D01*
X603870Y521817D02*
Y527817D01*
X607870Y532817D02*
X607870Y516817D01*
X599870Y516817D02*
X599870Y532817D01*
X607870Y532817D01*
X599870Y516817D02*
X607870Y516817D01*
X59200Y484250D02*
X67200D01*
X59200Y500250D02*
X67200D01*
X59200Y484250D02*
Y500250D01*
X67200Y484250D02*
Y500250D01*
X63200Y489250D02*
Y495250D01*
X60200Y492250D02*
X66200D01*
X203223Y847500D02*
X203223Y853500D01*
X200223Y850500D02*
X206222Y850500D01*
X195222Y846500D02*
X211223D01*
X195222Y854500D02*
X211223D01*
Y846500D02*
Y854500D01*
X195222Y846500D02*
Y854500D01*
X621882Y459293D02*
X629882D01*
X621882Y475293D02*
X629882D01*
X621882Y459293D02*
Y475293D01*
X629882Y459293D02*
Y475293D01*
X625882Y464293D02*
Y470293D01*
X622882Y467293D02*
X628882D01*
X492250Y348250D02*
X500250Y348250D01*
X492250Y364250D02*
X500250Y364250D01*
X492250Y348250D02*
X492250Y364250D01*
X500250Y348250D02*
Y364250D01*
X496250Y353250D02*
X496250Y359250D01*
X493250Y356250D02*
X499250Y356250D01*
X518632Y467793D02*
Y477793D01*
X513632Y472793D02*
X523632D01*
X508132Y463293D02*
X529132D01*
X508132Y482293D02*
X529132D01*
Y463293D02*
Y482293D01*
X508132D02*
X508132Y463293D01*
X510632Y350043D02*
Y360043D01*
X505632Y355043D02*
X515632D01*
X500132Y345543D02*
X521132D01*
X500132Y364543D02*
X521132D01*
Y345543D02*
Y364543D01*
X500132Y345543D02*
Y364543D01*
X500500Y273500D02*
X500500Y281500D01*
X516500Y281500D02*
X516500Y273500D01*
X500500Y281500D02*
X516500Y281500D01*
X500500Y273500D02*
X516500Y273500D01*
X505500Y277500D02*
X511500D01*
X508500Y274500D02*
X508500Y280500D01*
X32750Y680077D02*
X79750Y680077D01*
X32750Y643077D02*
X79750D01*
X32750D02*
X32750Y680077D01*
X79750Y643077D02*
Y680077D01*
X158223Y804250D02*
X205223D01*
X158223Y841250D02*
X205223D01*
Y804250D02*
Y841250D01*
X158223Y804250D02*
Y841250D01*
X377750Y692750D02*
X383750D01*
X380750Y689750D02*
Y695750D01*
X376750Y684750D02*
Y700750D01*
X384750Y684750D02*
Y700750D01*
X376750Y684750D02*
X384750D01*
X376750Y700750D02*
X384750D01*
X83647Y847063D02*
Y855063D01*
X99647Y847063D02*
Y855063D01*
X83647D02*
X99647D01*
X83647Y847063D02*
X99647D01*
X88647Y851063D02*
X94647D01*
X91647Y848063D02*
Y854062D01*
X246250Y654000D02*
Y660000D01*
X243250Y657000D02*
X249250D01*
X238250Y653000D02*
X254250D01*
X238250Y661000D02*
X254250D01*
Y653000D02*
Y661000D01*
X238250Y653000D02*
Y661000D01*
X377750Y676996D02*
X383750D01*
X380750Y679996D02*
X380750Y673996D01*
X384750Y668996D02*
Y684996D01*
X376750Y668996D02*
Y684996D01*
X384750D01*
X376750Y668996D02*
X384750D01*
X416990Y726351D02*
X424990Y726351D01*
X416990Y710351D02*
X424990D01*
Y726351D01*
X416990Y710351D02*
Y726351D01*
X420990Y715351D02*
Y721351D01*
X417990Y718351D02*
X423990D01*
X86425Y836062D02*
X96425D01*
X91425Y831062D02*
Y841062D01*
X100925Y825563D02*
Y846562D01*
X81925Y825563D02*
Y846562D01*
X100925D01*
X81925Y825563D02*
X100925Y825563D01*
X385487Y685000D02*
X404487Y685000D01*
X385487Y706000D02*
X404487D01*
X385487Y685000D02*
Y706000D01*
X404487Y685000D02*
Y706000D01*
X394987Y690500D02*
Y700500D01*
X389987Y695500D02*
X399987D01*
X102540Y368417D02*
X110540D01*
X102540Y384417D02*
X110540D01*
X102540Y368417D02*
Y384417D01*
X110540Y368417D02*
Y384417D01*
X106540Y373417D02*
Y379417D01*
X103540Y376417D02*
X109540D01*
X86750Y409095D02*
Y417094D01*
X102750Y409095D02*
Y417094D01*
X86750D02*
X102750D01*
X86750Y409095D02*
X102750D01*
X91750Y413094D02*
X97750D01*
X94750Y410094D02*
Y416094D01*
X102750Y434250D02*
Y442250D01*
X86750Y434250D02*
Y442250D01*
Y434250D02*
X102750D01*
X86750Y442250D02*
X102750D01*
X91750Y438250D02*
X97750D01*
X94750Y435250D02*
Y441250D01*
X138250Y383000D02*
X146250D01*
X138250Y367000D02*
X146250D01*
Y383000D01*
X138250Y367000D02*
Y383000D01*
X142250Y372000D02*
Y378000D01*
X139250Y375000D02*
X145250D01*
X194387Y449969D02*
Y455969D01*
X191387Y452969D02*
X197387D01*
X186387Y456969D02*
X202387D01*
X186387Y448969D02*
X202387D01*
X186387D02*
Y456969D01*
X202387Y448969D02*
Y456969D01*
X146431Y383087D02*
X154431D01*
X146431Y367087D02*
X154431D01*
Y383087D01*
X146431Y367087D02*
Y383087D01*
X150431Y372087D02*
Y378087D01*
X147431Y375087D02*
X153431D01*
X119381Y364567D02*
X127381D01*
X119381Y380567D02*
X127381D01*
X119381Y364567D02*
Y380567D01*
X127381Y364567D02*
Y380567D01*
X123381Y369567D02*
Y375567D01*
X120381Y372567D02*
X126381D01*
X191887Y394341D02*
Y400341D01*
X188887Y397341D02*
X194887Y397341D01*
X183887Y401341D02*
X199887D01*
X183887Y393341D02*
X199887Y393341D01*
X183887Y393341D02*
Y401341D01*
X199887D02*
X199887Y393341D01*
X170469Y359548D02*
Y367548D01*
X186469Y359548D02*
Y367548D01*
X170469D02*
X186469D01*
X170469Y359548D02*
X186469D01*
X175469Y363548D02*
X181469D01*
X178469Y360549D02*
Y366548D01*
X186402Y367779D02*
X186402Y375779D01*
X170402Y367779D02*
Y375779D01*
Y367779D02*
X186402Y367779D01*
X170402Y375779D02*
X186402Y375779D01*
X175402Y371779D02*
X181402D01*
X178402Y368779D02*
Y374779D01*
X661882Y384793D02*
Y394793D01*
X656882Y389793D02*
X666882D01*
X651382Y399293D02*
X672382D01*
X651382Y380293D02*
X672382D01*
X651382D02*
Y399293D01*
X672382Y380293D02*
X672382Y399293D01*
X119381Y168500D02*
Y174500D01*
X116381Y171500D02*
X122381D01*
X111381Y175500D02*
X127381D01*
X111381Y167500D02*
X127381D01*
X111381D02*
Y175500D01*
X127381Y167500D02*
Y175500D01*
X552500Y197000D02*
Y203000D01*
X549500Y200000D02*
X555500D01*
X544500Y196000D02*
X560500D01*
X544500Y204000D02*
X560500D01*
Y196000D02*
Y204000D01*
X544500Y196000D02*
Y204000D01*
X152500Y305055D02*
Y315055D01*
X147500Y310055D02*
X157500D01*
X142000Y319555D02*
X163000D01*
X142000Y300555D02*
X163000D01*
X142000D02*
Y319555D01*
X163000D02*
X163000Y300555D01*
X126886Y154180D02*
Y166180D01*
X105386D02*
X126886D01*
X105386Y154180D02*
Y166180D01*
Y154180D02*
X126886D01*
X542250Y182963D02*
Y194963D01*
Y182963D02*
X563750D01*
Y194963D01*
X542250D02*
X563750D01*
X246000Y239000D02*
Y247000D01*
X230000Y239000D02*
Y247000D01*
Y239000D02*
X246000D01*
X230000Y247000D02*
X246000D01*
X235000Y243000D02*
X241000D01*
X238000Y240000D02*
Y246000D01*
X170531Y588000D02*
Y596000D01*
X154531Y588000D02*
Y596000D01*
Y588000D02*
X170531D01*
X154531Y596000D02*
X170531D01*
X159531Y592000D02*
X165531D01*
X162531Y589000D02*
Y595000D01*
X500632Y572948D02*
X510632D01*
X505632Y567948D02*
Y577948D01*
X496132Y562449D02*
Y583448D01*
X515132Y562449D02*
Y583448D01*
X496132Y562449D02*
X515132D01*
X496132Y583448D02*
X515132D01*
X500632Y598500D02*
X510632D01*
X505632Y593500D02*
Y603500D01*
X496132Y588000D02*
Y609000D01*
X515132Y588000D02*
Y609000D01*
X496132Y588000D02*
X515132D01*
X496132Y609000D02*
X515132D01*
X515185Y568948D02*
Y576948D01*
X531185Y568948D02*
Y576948D01*
X515185D02*
X531185D01*
X515185Y568948D02*
X531185D01*
X520185Y572948D02*
X526185D01*
X523185Y569949D02*
Y575948D01*
X515185Y578596D02*
Y586596D01*
X531185Y578596D02*
Y586596D01*
X515185D02*
X531185D01*
X515185Y578596D02*
X531185D01*
X520185Y582596D02*
X526185D01*
X523185Y579596D02*
Y585596D01*
X515185Y587750D02*
Y595750D01*
X531185Y587750D02*
Y595750D01*
X515185D02*
X531185D01*
X515185Y587750D02*
X531185D01*
X520185Y591750D02*
X526185D01*
X523185Y588750D02*
Y594750D01*
X487250Y587000D02*
X495250D01*
X487250Y571000D02*
X495250D01*
Y587000D01*
X487250Y571000D02*
Y587000D01*
X491250Y576000D02*
Y582000D01*
X488250Y579000D02*
X494250D01*
X487250Y570500D02*
X495250D01*
X487250Y554500D02*
X495250D01*
Y570500D01*
X487250Y554500D02*
Y570500D01*
X491250Y559500D02*
Y565500D01*
X488250Y562500D02*
X494250D01*
X487250Y593500D02*
X495250D01*
X487250Y609500D02*
X495250D01*
X487250Y593500D02*
Y609500D01*
X495250Y593500D02*
Y609500D01*
X491250Y598500D02*
Y604500D01*
X488250Y601500D02*
X494250D01*
X232310Y630262D02*
X242310D01*
X237310Y625262D02*
Y635262D01*
X227810Y619762D02*
Y640762D01*
X246810Y619762D02*
Y640762D01*
X227810Y619762D02*
X246810D01*
X227810Y640762D02*
X246810Y640762D01*
X536132Y687706D02*
X542132D01*
X539132Y684706D02*
Y690706D01*
X543132Y679706D02*
Y695706D01*
X535132Y679706D02*
Y695706D01*
X543132D01*
X535132Y679706D02*
X543132D01*
X527750Y687706D02*
X533750D01*
X530750Y684706D02*
Y690706D01*
X534750Y679706D02*
Y695706D01*
X526750Y679706D02*
Y695706D01*
X534750D01*
X526750Y679706D02*
X534750D01*
X519000Y286250D02*
Y296250D01*
X514000Y291250D02*
X524000D01*
X508500Y300750D02*
X529500D01*
X508500Y281750D02*
X529500D01*
X508500D02*
Y300750D01*
X529500D02*
X529500Y281750D01*
X521500Y270750D02*
X531500D01*
X526500Y265750D02*
Y275750D01*
X536000Y260250D02*
Y281250D01*
X517000Y260250D02*
Y281250D01*
X536000D01*
X517000Y260250D02*
X536000Y260250D01*
X140862Y107163D02*
X152861D01*
Y128663D01*
X140862D02*
X152861D01*
X140862Y107163D02*
Y128663D01*
X154250Y107163D02*
X166250D01*
Y128663D01*
X154250D02*
X166250D01*
X154250Y107163D02*
Y128663D01*
X174000Y107163D02*
X186000D01*
Y128663D01*
X174000D02*
X186000D01*
X174000Y107163D02*
Y128663D01*
X191900Y107163D02*
X203900D01*
Y128663D01*
X191900D02*
X203900D01*
X191900Y107163D02*
Y128663D01*
X162422Y614204D02*
Y620204D01*
X159422Y617204D02*
X165422D01*
X154422Y621204D02*
X170422D01*
X154422Y613204D02*
X170422D01*
X154422D02*
Y621204D01*
X170422Y613204D02*
Y621204D01*
X565855Y680466D02*
X573855D01*
X565855Y664466D02*
X573855D01*
Y680466D01*
X565855Y664466D02*
Y680466D01*
X569855Y669466D02*
Y675466D01*
X566855Y672466D02*
X572855D01*
X503000Y681750D02*
Y689750D01*
X519000Y681750D02*
Y689750D01*
X503000D02*
X519000D01*
X503000Y681750D02*
X519000D01*
X508000Y685750D02*
X514000D01*
X511000Y682750D02*
Y688750D01*
X256750Y183250D02*
Y189250D01*
X253750Y186250D02*
X259750D01*
X248750Y190250D02*
X264750D01*
X248750Y182250D02*
X264750D01*
X248750D02*
Y190250D01*
X264750Y182250D02*
Y190250D01*
X238000Y231500D02*
Y237500D01*
X235000Y234500D02*
X241000D01*
X230000Y238500D02*
X246000D01*
X230000Y230500D02*
X246000D01*
X230000D02*
Y238500D01*
X246000Y230500D02*
Y238500D01*
X12750Y964250D02*
X18750D01*
X15750Y961250D02*
Y967250D01*
X19750Y956250D02*
Y972250D01*
X11750Y956250D02*
Y972250D01*
X19750D01*
X11750Y956250D02*
X19750D01*
X370750Y999000D02*
Y1007000D01*
X354750Y999000D02*
Y1007000D01*
Y999000D02*
X370750D01*
X354750Y1007000D02*
X370750D01*
X359750Y1003000D02*
X365750D01*
X362750Y1000000D02*
Y1006000D01*
X354750Y991050D02*
Y999050D01*
X370750Y991050D02*
Y999050D01*
X354750D02*
X370750D01*
X354750Y991050D02*
X370750D01*
X359750Y995050D02*
X365750D01*
X362750Y992050D02*
Y998050D01*
X87000Y458883D02*
X93000D01*
X90000Y455883D02*
Y461883D01*
X86000Y450883D02*
Y466883D01*
X94000Y450883D02*
Y466883D01*
X86000Y450883D02*
X94000D01*
X86000Y466883D02*
X94000D01*
X185607Y385621D02*
Y391621D01*
X182607Y388621D02*
X188607D01*
X177607Y392621D02*
X193607D01*
X177607Y384621D02*
X193607D01*
X177607D02*
Y392621D01*
X193607Y384621D02*
Y392621D01*
X347250Y991016D02*
X353250D01*
X350250Y988016D02*
Y994016D01*
X346250Y983016D02*
Y999016D01*
X354250Y983016D02*
Y999016D01*
X346250Y983016D02*
X354250D01*
X346250Y999016D02*
X354250D01*
X362750Y983950D02*
Y989950D01*
X359750Y986950D02*
X365750D01*
X354750Y982950D02*
X370750D01*
X354750Y990950D02*
X370750D01*
Y982950D02*
Y990950D01*
X354750Y982950D02*
Y990950D01*
X619631Y1016250D02*
X641131D01*
Y1004250D02*
Y1016250D01*
X619631Y1004250D02*
X641131D01*
X619631D02*
Y1016250D01*
X605000Y1020000D02*
Y1030000D01*
X600000Y1025000D02*
X610000D01*
X594500Y1034500D02*
X615500D01*
X594500Y1015500D02*
X615500D01*
X594500D02*
Y1034500D01*
X615500D02*
X615500Y1015500D01*
X604500Y1006250D02*
Y1014250D01*
X620500Y1006250D02*
Y1014250D01*
X604500D02*
X620500D01*
X604500Y1006250D02*
X620500D01*
X609500Y1010250D02*
X615500D01*
X612500Y1007250D02*
Y1013250D01*
X596500Y1007250D02*
Y1013250D01*
X593500Y1010250D02*
X599500D01*
X588500Y1014250D02*
X604500D01*
X588500Y1006250D02*
X604500D01*
X588500D02*
Y1014250D01*
X604500Y1006250D02*
Y1014250D01*
X566000Y1017000D02*
X593750Y1017000D01*
X593750Y1063000D01*
X566000D02*
X593750D01*
X566000D02*
X566000Y1017000D01*
X575000Y1040000D02*
X585000D01*
X580000Y1035000D02*
Y1045000D01*
X453750Y391250D02*
Y397250D01*
X450750Y394250D02*
X456750D01*
X445750Y398250D02*
X461750D01*
X445750Y390250D02*
X461750D01*
X445750D02*
Y398250D01*
X461750Y390250D02*
Y398250D01*
X406355Y436828D02*
X422355D01*
X406355Y422828D02*
X406355Y436828D01*
X406355Y422828D02*
X422355D01*
X422355Y436828D02*
X422355Y422828D01*
X411855Y429828D02*
X416855D01*
X414355Y428828D02*
Y430828D01*
Y427328D02*
Y432328D01*
X405000Y460750D02*
X413000D01*
X405000Y444750D02*
X413000D01*
Y460750D01*
X405000Y444750D02*
Y460750D01*
X409000Y449750D02*
Y455750D01*
X406000Y452750D02*
X412000D01*
X224250Y689250D02*
X234250D01*
X229250Y684250D02*
Y694250D01*
X221750Y673750D02*
Y704750D01*
X236750Y673750D02*
Y704750D01*
X221750Y673750D02*
X236750D01*
X221750Y704750D02*
X236750D01*
X622644Y593669D02*
Y601669D01*
X638644Y593669D02*
Y601669D01*
X622644D02*
X638644D01*
X622644Y593669D02*
X638644D01*
X627644Y597669D02*
X633644D01*
X630644Y594669D02*
Y600669D01*
X563972Y664784D02*
Y672785D01*
X547972Y664784D02*
Y672785D01*
Y664784D02*
X563972D01*
X547972Y672785D02*
X563972D01*
X552972Y668784D02*
X558972D01*
X555972Y665785D02*
Y671784D01*
X622726Y601766D02*
X638726D01*
X622726Y609766D02*
X638726D01*
Y601766D02*
Y609766D01*
X622726Y601766D02*
Y609766D01*
X630726Y602766D02*
Y608766D01*
X627726Y605766D02*
X633726D01*
X543500Y679750D02*
X551500D01*
X543500Y695750D02*
X551500D01*
X543500Y679750D02*
Y695750D01*
X551500Y679750D02*
Y695750D01*
X547500Y684750D02*
Y690750D01*
X544500Y687750D02*
X550500D01*
X564098Y622402D02*
Y630402D01*
X580098Y622402D02*
Y630402D01*
X564098D02*
X580098D01*
X564098Y622402D02*
X580098D01*
X569098Y626402D02*
X575098D01*
X572098Y623402D02*
Y629402D01*
X387287Y635250D02*
X399287Y635250D01*
X387287Y613250D02*
Y635250D01*
Y613250D02*
X399287Y613250D01*
Y635250D01*
X391287Y624250D02*
X395287D01*
X393287Y622250D02*
Y626250D01*
X387165Y587307D02*
X399165Y587307D01*
Y609307D01*
X387165Y609307D02*
X399165Y609307D01*
X387165Y587307D02*
Y609307D01*
X391165Y598307D02*
X395165D01*
X393165Y596307D02*
Y600307D01*
X513000Y495750D02*
X525000Y495750D01*
Y517750D01*
X513000Y517750D02*
X525000Y517750D01*
X513000Y495750D02*
Y517750D01*
X517000Y506750D02*
X521000D01*
X519000Y504750D02*
Y508750D01*
X546000Y516500D02*
X558000Y516500D01*
X546000Y494500D02*
Y516500D01*
Y494500D02*
X558000Y494500D01*
Y516500D01*
X550000Y505500D02*
X554000D01*
X552000Y503500D02*
Y507500D01*
X576882Y516283D02*
X588882Y516283D01*
X576882Y494283D02*
Y516283D01*
Y494283D02*
X588882Y494283D01*
Y516283D01*
X580882Y505283D02*
X584882D01*
X582882Y503283D02*
Y507283D01*
D328*
X368700Y412871D02*
X400700D01*
X368700D02*
Y446871D01*
X400700D01*
Y412871D02*
Y446871D01*
X137500Y-15000D02*
Y102500D01*
Y-15000D02*
X207500D01*
Y102500D01*
X137500D02*
X207500D01*
D329*
X334026Y138625D02*
X342026Y138625D01*
X334026Y153825D02*
X342026D01*
X334026Y138625D02*
Y153825D01*
X342026Y138625D02*
Y153825D01*
X284215Y50400D02*
X292215D01*
X284215Y65600D02*
X292215D01*
X284215Y50400D02*
Y65600D01*
X292215Y50400D02*
Y65600D01*
X125805Y294673D02*
X141005D01*
X125805Y286673D02*
X141005D01*
X125805D02*
Y294673D01*
X141005Y286673D02*
Y294673D01*
X123925Y258205D02*
Y273405D01*
X115925Y258205D02*
Y273405D01*
X123925D01*
X115925Y258205D02*
X123925D01*
X118750Y296890D02*
Y312090D01*
X126750Y296890D02*
Y312090D01*
X118750Y296890D02*
X126750D01*
X118750Y312090D02*
X126750D01*
X214000Y65400D02*
Y80600D01*
X206000Y65400D02*
Y80600D01*
X214000D01*
X206000Y65400D02*
X214000D01*
X524056Y443400D02*
Y458600D01*
X516056Y443400D02*
Y458600D01*
X524056D01*
X516056Y443400D02*
X524056D01*
X399845Y587782D02*
Y602982D01*
X407845Y587782D02*
Y602982D01*
X399845Y587782D02*
X407845D01*
X399845Y602982D02*
X407845D01*
X378615Y592330D02*
Y607530D01*
X386615Y592330D02*
Y607530D01*
X378615Y592330D02*
X386615D01*
X378615Y607530D02*
X386615D01*
X386761Y616654D02*
Y631854D01*
X378761Y616654D02*
Y631854D01*
X386761D01*
X378761Y616654D02*
X386761D01*
X399115Y620034D02*
Y635234D01*
X407115Y620034D02*
Y635234D01*
X399115Y620034D02*
X407115D01*
X399115Y635234D02*
X407115D01*
X516646Y607550D02*
Y622750D01*
X524646Y607550D02*
Y622750D01*
X516646Y607550D02*
X524646D01*
X516646Y622750D02*
X524646D01*
X497214Y627800D02*
Y643000D01*
X505214Y627800D02*
Y643000D01*
X497214Y627800D02*
X505214D01*
X497214Y643000D02*
X505214D01*
X505396Y627800D02*
Y643000D01*
X513396Y627800D02*
Y643000D01*
X505396Y627800D02*
X513396D01*
X505396Y643000D02*
X513396D01*
X246113Y210903D02*
X261313D01*
X246113Y202903D02*
X261313D01*
X246113D02*
Y210903D01*
X261313Y202903D02*
Y210903D01*
X246113Y199750D02*
X261313D01*
X246113Y191750D02*
X261313D01*
X246113D02*
Y199750D01*
X261313Y191750D02*
Y199750D01*
X266150Y204500D02*
X281350D01*
X266150Y212500D02*
X281350D01*
Y204500D02*
Y212500D01*
X266150Y204500D02*
Y212500D01*
X558932Y643300D02*
Y658500D01*
X550932Y643300D02*
Y658500D01*
X558932D01*
X550932Y643300D02*
X558932D01*
X615002Y315563D02*
X630202D01*
X615002Y307563D02*
X630202D01*
X615002D02*
Y315563D01*
X630202Y307563D02*
Y315563D01*
X651414Y444896D02*
X666614D01*
X651414Y436896D02*
X666614D01*
X651414D02*
Y444896D01*
X666614Y436896D02*
Y444896D01*
X651414Y436896D02*
X666614D01*
X651414Y428896D02*
X666614D01*
X651414D02*
Y436896D01*
X666614Y428896D02*
Y436896D01*
X530000Y147880D02*
X530000Y132680D01*
X538000Y147880D02*
X538000Y132680D01*
X530000D02*
X538000D01*
X530000Y147880D02*
X538000D01*
X520250Y166650D02*
X528250D01*
X520250Y181850D02*
X528250D01*
X520250Y166650D02*
Y181850D01*
X528250Y166650D02*
Y181850D01*
X614447Y271033D02*
X622447Y271033D01*
X614447Y255833D02*
X622447Y255833D01*
Y271033D01*
X614447Y255833D02*
Y271033D01*
X651414Y420896D02*
Y428896D01*
X666614Y420896D02*
Y428896D01*
X651414D02*
X666614D01*
X651414Y420896D02*
X666614Y420896D01*
X416850Y647250D02*
Y655250D01*
X401650Y647250D02*
Y655250D01*
Y647250D02*
X416850D01*
X401650Y655250D02*
X416850D01*
X440650Y675606D02*
Y683606D01*
X455850Y675606D02*
Y683606D01*
X440650D02*
X455850D01*
X440650Y675606D02*
X455850D01*
X418973Y655730D02*
X434173D01*
X418973Y647730D02*
X434173D01*
X418973D02*
Y655730D01*
X434173Y647730D02*
Y655730D01*
X440650Y691637D02*
X455850D01*
X440650Y683637D02*
X455850D01*
X440650D02*
Y691637D01*
X455850Y683637D02*
Y691637D01*
X127900Y521382D02*
X143100Y521382D01*
X127900Y513382D02*
X143100Y513382D01*
X127900Y513382D02*
X127900Y521382D01*
X143100Y513382D02*
X143100Y521382D01*
X406750Y403193D02*
X406750Y418393D01*
X398750Y403193D02*
X398750Y418393D01*
X406750Y418393D01*
X398750Y403193D02*
X406750Y403193D01*
X406900Y410399D02*
X417648Y399651D01*
X412557Y416056D02*
X423305Y405308D01*
X417648Y399651D02*
X423305Y405308D01*
X406900Y410399D02*
X412557Y416056D01*
X479650Y425750D02*
X494850Y425750D01*
X479650Y417750D02*
X494850Y417750D01*
X479650Y425750D02*
X479650Y417750D01*
X494850Y425750D02*
X494850Y417750D01*
X530364Y770611D02*
Y785811D01*
X538364Y770611D02*
Y785811D01*
X530364Y770611D02*
X538364D01*
X530364Y785811D02*
X538364D01*
X21438Y428185D02*
Y443385D01*
X13438Y428185D02*
Y443385D01*
X21438Y443385D01*
X13438Y428185D02*
X21438D01*
X60211Y370068D02*
Y385268D01*
X68211Y370068D02*
Y385268D01*
X60211Y370068D02*
X68211Y370068D01*
X60211Y385268D02*
X68211D01*
X536500Y816650D02*
Y831850D01*
X528500Y816650D02*
Y831850D01*
X536500D01*
X528500Y816650D02*
X536500D01*
X293890Y618435D02*
Y633635D01*
X301890Y618435D02*
Y633635D01*
X293890Y618435D02*
X301890Y618435D01*
X293890Y633635D02*
X301890D01*
X293890Y649120D02*
X293890Y633920D01*
X301891Y649120D02*
X301891Y633920D01*
X293890Y633920D02*
X301891Y633920D01*
X293890Y649120D02*
X301891Y649120D01*
X357005Y585089D02*
Y600289D01*
X349005Y585089D02*
Y600289D01*
X357005D01*
X349005Y585089D02*
X357005D01*
Y569435D02*
Y584635D01*
X349005Y569435D02*
Y584635D01*
X357005D01*
X349005Y569435D02*
X357005D01*
X628500Y838900D02*
Y854100D01*
X620500Y838900D02*
X620500Y854100D01*
X628500D01*
X620500Y838900D02*
X628500D01*
X628750Y838900D02*
Y854100D01*
X636750Y838900D02*
Y854100D01*
X628750Y838900D02*
X636750Y838900D01*
X628750Y854100D02*
X636750D01*
X473299Y414397D02*
X478956Y408741D01*
X462551Y403649D02*
X468208Y397993D01*
X478956Y408741D01*
X462551Y403649D02*
X473299Y414397D01*
X500218Y406793D02*
X500218Y398793D01*
X485018Y406793D02*
X485018Y398793D01*
X500218Y398793D01*
X485018Y406793D02*
X500218Y406793D01*
X150250Y822962D02*
Y838163D01*
X158250Y822962D02*
Y838163D01*
X150250Y822962D02*
X158250D01*
X150250Y838163D02*
X158250D01*
X158252Y806400D02*
Y821600D01*
X150252Y806400D02*
Y821600D01*
X158252D01*
X150252Y806400D02*
X158252D01*
X252223Y807400D02*
Y822600D01*
X260222Y807400D02*
Y822600D01*
X252223Y807400D02*
X260222D01*
X252223Y822600D02*
X260222D01*
Y823150D02*
Y838350D01*
X252223Y823150D02*
Y838350D01*
X260222D01*
X252223Y823150D02*
X260222D01*
X615000Y662790D02*
X623000D01*
X615000Y677990D02*
X623000D01*
X615000Y662790D02*
Y677990D01*
X623000Y662790D02*
Y677990D01*
X606637Y678066D02*
X614637D01*
X606637Y662866D02*
X614637Y662866D01*
Y678066D01*
X606637Y662866D02*
Y678066D01*
X274150Y817000D02*
Y825000D01*
X289350Y817000D02*
Y825000D01*
X274150D02*
X289350D01*
X274150Y817000D02*
X289350D01*
X304600D02*
Y825000D01*
X289400Y817000D02*
Y825000D01*
Y817000D02*
X304600D01*
X289400Y825000D02*
X304600D01*
X289400Y808500D02*
Y816500D01*
X304600Y808500D02*
Y816500D01*
X289400D02*
X304600D01*
X289400Y808500D02*
X304600D01*
X289350D02*
Y816500D01*
X274150Y808500D02*
Y816500D01*
Y808500D02*
X289350D01*
X274150Y816500D02*
X289350D01*
X291373Y797750D02*
X306573D01*
X291373Y805750D02*
X306573D01*
Y797750D02*
Y805750D01*
X291373Y797750D02*
Y805750D01*
X268400Y805750D02*
X283600D01*
X268400Y797750D02*
X283600D01*
X268400D02*
Y805750D01*
X283600Y797750D02*
Y805750D01*
X129500Y71850D02*
X137500D01*
X129500Y56650D02*
X137500D01*
Y71850D01*
X129500Y56650D02*
Y71850D01*
X437150Y425750D02*
X452350D01*
X437150Y417750D02*
X452350D01*
X437150D02*
Y425750D01*
X452350Y417750D02*
X452350Y425750D01*
X485163Y397521D02*
X500364D01*
X485163Y389521D02*
X500364Y389521D01*
X485163Y397521D02*
X485163Y389521D01*
X500364Y389521D02*
X500364Y397521D01*
X537750Y327663D02*
X545750D01*
X537750Y312463D02*
X545750D01*
X545750Y327663D02*
X545750Y312463D01*
X537750D02*
Y327663D01*
X159399Y530900D02*
X167399D01*
X159399Y546100D02*
X167399D01*
X159399Y530900D02*
Y546100D01*
X167399Y530900D02*
Y546100D01*
X666732Y409793D02*
Y417793D01*
X651532Y409793D02*
Y417793D01*
Y409793D02*
X666732D01*
X651532Y417793D02*
X666732D01*
X561882Y312400D02*
Y327600D01*
X553882Y312400D02*
Y327600D01*
X561882D01*
X553882Y312400D02*
X561882D01*
X568598Y496250D02*
X576598Y496250D01*
X568598Y511450D02*
X576598D01*
X568598Y496250D02*
Y511450D01*
X576598D02*
X576598Y496250D01*
X589658Y496200D02*
X597658Y496200D01*
X589658Y511400D02*
X597658Y511400D01*
X589658Y496200D02*
X589658Y511400D01*
X597658Y511400D02*
X597658Y496200D01*
X537250Y496490D02*
X545250Y496490D01*
X537250Y511690D02*
X545250Y511690D01*
X537250Y496490D02*
X537250Y511690D01*
X545250Y496490D02*
Y511690D01*
X559382Y519633D02*
X567382Y519633D01*
X559382Y504433D02*
X567382D01*
X567382Y519633D01*
X559382Y504433D02*
Y519633D01*
X606000Y497150D02*
X614000Y497150D01*
X606000Y512350D02*
X614000Y512350D01*
X606000Y497150D02*
Y512350D01*
X614000Y512350D02*
X614000Y497150D01*
X625500Y497938D02*
X633500Y497938D01*
X625500Y513138D02*
X633500Y513138D01*
X625500Y513138D02*
X625500Y497938D01*
X633500Y497938D02*
Y513138D01*
X82000Y688650D02*
X90000D01*
X82000Y703850D02*
X90000D01*
X82000Y688650D02*
Y703850D01*
X90000Y688650D02*
Y703850D01*
X504208Y508100D02*
X512208Y508100D01*
X504208Y492900D02*
X512208Y492900D01*
X512208Y508100D02*
X512208Y492900D01*
X504208Y508100D02*
X504208Y492900D01*
X525682Y520960D02*
X533682Y520960D01*
X525682Y505759D02*
X533682Y505760D01*
X533682Y520960D01*
X525682Y520960D02*
X525682Y505759D01*
X545750Y312463D02*
X553750Y312463D01*
X545750Y327663D02*
X553750Y327663D01*
X545750Y327663D02*
X545750Y312463D01*
X553750Y312463D02*
X553750Y327663D01*
X151500Y530900D02*
X159500Y530900D01*
X151500Y546100D02*
X159500D01*
X151500Y530900D02*
X151500Y546100D01*
X159500Y530900D02*
Y546100D01*
X509500Y312150D02*
X517500Y312150D01*
X509500Y327350D02*
X517500Y327350D01*
X509500Y327350D02*
X509500Y312150D01*
X517500Y312150D02*
Y327350D01*
X501500Y312150D02*
X509500Y312150D01*
X501500Y327350D02*
X509500Y327350D01*
X501500Y312150D02*
Y327350D01*
X509500Y327350D02*
X509500Y312150D01*
X79986Y661977D02*
X87986Y661977D01*
X79986Y677177D02*
X87986Y677177D01*
X79986Y677177D02*
X79986Y661977D01*
X87986Y677177D02*
X87986Y661977D01*
X79745Y645980D02*
X87745Y645980D01*
X79745Y661180D02*
X87745Y661180D01*
X79745Y661180D02*
X79745Y645980D01*
X87745Y661180D02*
X87745Y645980D01*
X345238Y702488D02*
X345238Y717688D01*
X353238Y702488D02*
X353238Y717688D01*
X345238Y702488D02*
X353238Y702488D01*
X345238Y717688D02*
X353238Y717688D01*
X266650Y664500D02*
X281850Y664500D01*
X266650Y656500D02*
X281850Y656500D01*
X266650Y664500D02*
X266650Y656500D01*
X281850Y664500D02*
X281850Y656500D01*
X250927Y688400D02*
Y703600D01*
X242927Y688400D02*
Y703600D01*
X250927Y703600D01*
X242927Y688400D02*
X250927Y688400D01*
X235000Y688227D02*
Y703427D01*
X243000Y688227D02*
Y703427D01*
X235000Y688227D02*
X243000D01*
X235000Y703427D02*
X243000D01*
X313500Y771239D02*
X313500Y756039D01*
X321500Y771239D02*
X321500Y756039D01*
X313500Y756039D02*
X321500Y756039D01*
X313500Y771239D02*
X321500Y771239D01*
X283361Y753054D02*
X298561Y753054D01*
X283361Y761054D02*
X298561Y761055D01*
X298561Y753054D01*
X283361Y761054D02*
X283361Y753054D01*
X236860Y713003D02*
Y728203D01*
X228860Y713003D02*
Y728203D01*
X236860D01*
X228860Y713003D02*
X236860D01*
X237214Y728638D02*
Y743838D01*
X229214Y728638D02*
Y743838D01*
X237214D01*
X229214Y728638D02*
X237214D01*
X349250Y671638D02*
Y686838D01*
X341250Y671638D02*
Y686838D01*
X349250D01*
X341250Y671638D02*
X349250D01*
X141756Y806400D02*
Y821600D01*
X149756Y806400D02*
Y821600D01*
X141756Y806400D02*
X149756D01*
X141756Y821600D02*
X149756D01*
X141756Y822962D02*
Y838163D01*
X149756Y822962D02*
Y838163D01*
X141756Y822962D02*
X149756D01*
X141756Y838163D02*
X149756D01*
X268223Y807400D02*
Y822600D01*
X260223Y807400D02*
Y822600D01*
X268223D01*
X260223Y807400D02*
X268223D01*
X260223Y823150D02*
Y838350D01*
X268223Y823150D02*
Y838350D01*
X260223Y823150D02*
X268223D01*
X260223Y838350D02*
X268223D01*
X190787Y466469D02*
X205987D01*
X190787Y474469D02*
X205987D01*
Y466469D02*
Y474469D01*
X190787Y466469D02*
Y474469D01*
X245750Y752350D02*
X253750D01*
X245750Y737150D02*
X253750D01*
Y752350D01*
X245750Y737150D02*
Y752350D01*
X102350Y426000D02*
X102350Y434000D01*
X87150Y426000D02*
X87150Y434000D01*
X87150Y426000D02*
X102350Y426000D01*
X87150Y434000D02*
X102350Y434000D01*
X186698Y448169D02*
X186698Y440169D01*
X201898Y448169D02*
X201898Y440169D01*
X186698Y448169D02*
X201898Y448169D01*
X186698Y440169D02*
X201898Y440169D01*
X218996Y444969D02*
X234196D01*
X218996Y452969D02*
X234196D01*
Y444969D02*
Y452969D01*
X218996Y444969D02*
Y452969D01*
X220216Y414999D02*
X235416Y414999D01*
X220216Y406999D02*
X235416D01*
X220216D02*
Y414999D01*
X235416Y406999D02*
Y414999D01*
X185469Y453900D02*
Y469100D01*
X177469Y453900D02*
Y469100D01*
X185469D01*
X177469Y453900D02*
X185469D01*
X129905Y367400D02*
Y382600D01*
X137905Y367400D02*
X137905Y382600D01*
X129905Y367400D02*
X137905D01*
X129905Y382600D02*
X137905D01*
X87150Y426078D02*
X102350D01*
X87150Y418078D02*
X102350D01*
X87150D02*
Y426078D01*
X102350Y418078D02*
X102350Y426078D01*
X103400Y467233D02*
X118600D01*
X103400Y459232D02*
X118600D01*
X103400D02*
Y467233D01*
X118600Y459232D02*
Y467233D01*
X151387Y462743D02*
Y477944D01*
X143387Y462743D02*
Y477944D01*
X151387D01*
X143387Y462743D02*
X151387D01*
X178111Y417059D02*
X186110Y417059D01*
X178111Y401859D02*
X186110Y401859D01*
Y417059D01*
X178111Y401859D02*
Y417059D01*
X54030Y904350D02*
X62030D01*
X54030Y889150D02*
X62030D01*
Y904350D01*
X54030Y889150D02*
Y904350D01*
X395650Y740882D02*
X410850D01*
X395650Y748882D02*
X410850D01*
Y740882D02*
Y748882D01*
X395650Y740882D02*
Y748882D01*
X297000Y784375D02*
X305000D01*
X297000Y769175D02*
X305000D01*
Y784375D01*
X297000Y769175D02*
Y784375D01*
X240750Y255150D02*
Y270350D01*
X248750Y255150D02*
Y270350D01*
X240750Y255150D02*
X248750D01*
X240750Y270350D02*
X248750D01*
X251395Y262668D02*
X266595D01*
X251395Y270668D02*
X266595D01*
X266595Y262668D02*
X266595Y270668D01*
X251395Y262668D02*
Y270668D01*
X623618Y678001D02*
X631618D01*
X623618Y662801D02*
X631618D01*
Y678001D01*
X623618Y662801D02*
Y678001D01*
X598632Y662866D02*
X606632D01*
X598632Y678066D02*
X606632D01*
X598632Y662866D02*
Y678066D01*
X606632Y662866D02*
Y678066D01*
X338405Y226491D02*
Y241691D01*
X346405Y226491D02*
Y241691D01*
X338405Y226491D02*
X346405D01*
X338405Y241691D02*
X346405D01*
X328439Y230573D02*
Y245773D01*
X336439Y230573D02*
Y245773D01*
X328439Y230573D02*
X336439D01*
X328439Y245773D02*
X336439D01*
X346444Y226491D02*
Y241691D01*
X354444Y226491D02*
Y241691D01*
X346444Y226491D02*
X354444D01*
X346444Y241691D02*
X354444D01*
X379562Y230823D02*
X394762D01*
X379562Y222823D02*
X394762D01*
X379562D02*
Y230823D01*
X394762Y222823D02*
Y230823D01*
Y214500D02*
Y222500D01*
X379562Y214500D02*
Y222500D01*
Y214500D02*
X394762D01*
X379562Y222500D02*
X394762D01*
X420000Y225569D02*
Y240769D01*
X412000Y225569D02*
Y240769D01*
X420000D01*
X412000Y225569D02*
X420000D01*
X126648Y296890D02*
Y312090D01*
X134648Y296890D02*
Y312090D01*
X126648Y296890D02*
X134648D01*
X126648Y312090D02*
X134648D01*
X33750Y985400D02*
X41750D01*
X33750Y1000600D02*
X41750D01*
X33750Y985400D02*
Y1000600D01*
X41750Y985400D02*
Y1000600D01*
X42250Y985400D02*
X50250D01*
X42250Y1000600D02*
X50250D01*
X42250Y985400D02*
Y1000600D01*
X50250Y985400D02*
Y1000600D01*
X67670Y1023000D02*
X82870D01*
X67670Y1031000D02*
X82870D01*
X82870Y1023000D02*
X82870Y1031000D01*
X67670Y1023000D02*
Y1031000D01*
X38062Y966068D02*
X53262D01*
X38062Y974068D02*
X53262D01*
Y966068D02*
Y974068D01*
X38062Y966068D02*
Y974068D01*
X17250Y985650D02*
X25250D01*
X17250Y1000850D02*
X25250D01*
X17250Y985650D02*
Y1000850D01*
X25250Y985650D02*
Y1000850D01*
X25250Y985650D02*
X33250D01*
X25250Y1000850D02*
X33250D01*
X25250Y985650D02*
Y1000850D01*
X33250Y985650D02*
Y1000850D01*
X13650Y1030750D02*
X28850D01*
X13650Y1022750D02*
X28850D01*
X13650D02*
Y1030750D01*
X28850Y1022750D02*
Y1030750D01*
X53745Y889150D02*
Y904350D01*
X45745Y889150D02*
Y904350D01*
X53745D01*
X45745Y889150D02*
X53745D01*
X28593Y1031750D02*
Y1039750D01*
X13393Y1031750D02*
Y1039750D01*
Y1031750D02*
X28593D01*
X13393Y1039750D02*
X28593D01*
Y1040500D02*
Y1048500D01*
X13393Y1040500D02*
Y1048500D01*
Y1040500D02*
X28593D01*
X13393Y1048500D02*
X28593D01*
X77400Y1033250D02*
Y1041250D01*
X92600Y1033250D02*
Y1041250D01*
X77400D02*
X92600D01*
X77400Y1033250D02*
X92600D01*
X77400Y1042750D02*
Y1050750D01*
X92600Y1042750D02*
Y1050750D01*
X77400D02*
X92600D01*
X77400Y1042750D02*
X92600D01*
X19600Y1049000D02*
Y1057000D01*
X4400Y1049000D02*
Y1057000D01*
Y1049000D02*
X19600D01*
X4400Y1057000D02*
X19600D01*
X262123Y1019500D02*
Y1027500D01*
X277323Y1019500D02*
Y1027500D01*
X262123D02*
X277323D01*
X262123Y1019500D02*
X277323D01*
X354250Y999400D02*
Y1014600D01*
X346250Y999400D02*
Y1014600D01*
X354250D01*
X346250Y999400D02*
X354250D01*
X397000Y225193D02*
X405000D01*
X397000Y240393D02*
X405000D01*
X397000Y225193D02*
Y240393D01*
X405000Y225193D02*
Y240393D01*
X544900Y717250D02*
X544900Y725250D01*
X560100Y717250D02*
Y725250D01*
X544900Y725250D02*
X560100Y725250D01*
X544900Y717250D02*
X560100D01*
X553782Y757296D02*
Y765296D01*
X538582Y757296D02*
Y765296D01*
Y757296D02*
X553782D01*
X538582Y765296D02*
X553782D01*
X228300Y655767D02*
X236300D01*
X228300Y640567D02*
X236300D01*
Y655767D01*
X228300Y640567D02*
Y655767D01*
X237466Y758317D02*
X245466D01*
X237466Y773517D02*
X245466D01*
X237466Y758317D02*
Y773517D01*
X245466Y758317D02*
Y773517D01*
X280733Y779872D02*
X288733D01*
X280733Y764672D02*
X288733D01*
Y779872D01*
X280733Y764672D02*
Y779872D01*
X606400Y624544D02*
Y632544D01*
X621600Y624544D02*
Y632544D01*
X606400D02*
X621600D01*
X606400Y624544D02*
X621600D01*
X625350Y616699D02*
Y624699D01*
X610150Y616699D02*
Y624699D01*
Y616699D02*
X625350D01*
X610150Y624699D02*
X625350D01*
X619357Y632553D02*
Y640553D01*
X604157Y632553D02*
Y640553D01*
Y632553D02*
X619357D01*
X604157Y640553D02*
X619357D01*
X605762Y608600D02*
X613762D01*
X605762Y593400D02*
X613762D01*
Y608600D01*
X605762Y593400D02*
Y608600D01*
X614000Y616656D02*
X622000D01*
X614000Y601456D02*
X622000D01*
Y616656D01*
X614000Y601456D02*
Y616656D01*
Y585266D02*
X622000D01*
X614000Y600466D02*
X622000D01*
X614000Y585266D02*
Y600466D01*
X622000Y585266D02*
Y600466D01*
X592482Y631000D02*
Y639000D01*
X577282Y631000D02*
Y639000D01*
Y631000D02*
X592482D01*
X577282Y639000D02*
X592482D01*
X572355Y606550D02*
X580355D01*
X572355Y621750D02*
X580355D01*
X572355Y606550D02*
Y621750D01*
X580355Y606550D02*
Y621750D01*
X371389Y140227D02*
X379389D01*
X371389Y125027D02*
X379389D01*
Y140227D01*
X371389Y125027D02*
Y140227D01*
M02*
