G04*
G04 #@! TF.GenerationSoftware,Altium Limited,Altium Designer,23.0.1 (38)*
G04*
G04 Layer_Color=32896*
%FSLAX44Y44*%
%MOMM*%
G71*
G04*
G04 #@! TF.SameCoordinates,B12E620B-8F76-40C0-9090-1E76C6094A63*
G04*
G04*
G04 #@! TF.FilePolarity,Positive*
G04*
G01*
G75*
%ADD11C,0.1270*%
%ADD14C,0.2540*%
%ADD16C,0.2000*%
%ADD25R,4.8260X2.4130*%
%ADD26C,0.2997*%
%ADD27C,0.1778*%
%ADD325C,0.0500*%
%ADD326C,0.0250*%
%ADD327C,0.0300*%
G36*
X885250Y-150059D02*
X889786D01*
Y-150512D01*
X892507D01*
Y-150966D01*
X894775D01*
Y-151419D01*
X896589D01*
Y-151873D01*
X898403D01*
Y-152327D01*
X899764D01*
Y-152780D01*
X901124D01*
Y-153234D01*
X902485D01*
Y-153687D01*
X903392D01*
Y-154141D01*
X904753D01*
Y-154594D01*
X905660D01*
Y-155048D01*
X906567D01*
Y-155501D01*
X907474D01*
Y-155955D01*
X908381D01*
Y-156409D01*
X909288D01*
Y-156862D01*
X909742D01*
Y-157316D01*
X910649D01*
Y-157769D01*
X911556D01*
Y-158223D01*
X912010D01*
Y-158676D01*
X912917D01*
Y-159130D01*
X913371D01*
Y-159584D01*
X914278D01*
Y-160037D01*
X914731D01*
Y-160491D01*
X915185D01*
Y-160944D01*
X916092D01*
Y-161398D01*
X916545D01*
Y-161851D01*
X916999D01*
Y-162305D01*
X917452D01*
Y-162758D01*
X918360D01*
Y-163212D01*
X918813D01*
Y-163666D01*
X919267D01*
Y-164119D01*
X919720D01*
Y-164573D01*
X920174D01*
Y-165026D01*
X920627D01*
Y-165480D01*
X921081D01*
Y-165933D01*
X921535D01*
Y-166387D01*
X921988D01*
Y-166840D01*
X922442D01*
Y-167294D01*
X922895D01*
Y-167747D01*
X923349D01*
Y-168201D01*
Y-168655D01*
X923802D01*
Y-169108D01*
X924256D01*
Y-169562D01*
X924709D01*
Y-170015D01*
X925163D01*
Y-170469D01*
Y-170922D01*
X925617D01*
Y-171376D01*
X926070D01*
Y-171830D01*
X926524D01*
Y-172283D01*
Y-172737D01*
X926977D01*
Y-173190D01*
X927431D01*
Y-173644D01*
Y-174097D01*
X927884D01*
Y-174551D01*
X928338D01*
Y-175004D01*
Y-175458D01*
X928791D01*
Y-175912D01*
X929245D01*
Y-176365D01*
Y-176819D01*
X929698D01*
Y-177272D01*
Y-177726D01*
X930152D01*
Y-178179D01*
Y-178633D01*
X930606D01*
Y-179086D01*
Y-179540D01*
X931059D01*
Y-179993D01*
Y-180447D01*
X931513D01*
Y-180901D01*
Y-181354D01*
X931966D01*
Y-181808D01*
Y-182261D01*
X932420D01*
Y-182715D01*
Y-183168D01*
Y-183622D01*
X932873D01*
Y-184076D01*
Y-184529D01*
X933327D01*
Y-184983D01*
Y-185436D01*
Y-185890D01*
X933781D01*
Y-186343D01*
Y-186797D01*
Y-187250D01*
X934234D01*
Y-187704D01*
Y-188158D01*
Y-188611D01*
Y-189065D01*
X934688D01*
Y-189518D01*
Y-189972D01*
Y-190425D01*
Y-190879D01*
X935141D01*
Y-191332D01*
Y-191786D01*
Y-192240D01*
Y-192693D01*
X935595D01*
Y-193147D01*
Y-193600D01*
Y-194054D01*
Y-194507D01*
Y-194961D01*
Y-195414D01*
Y-195868D01*
X936048D01*
Y-196322D01*
Y-196775D01*
Y-197229D01*
Y-197682D01*
Y-198136D01*
Y-198589D01*
Y-199043D01*
Y-199496D01*
Y-199950D01*
Y-200404D01*
Y-200857D01*
X936502D01*
Y-201311D01*
Y-201764D01*
Y-202218D01*
Y-202671D01*
Y-203125D01*
Y-203578D01*
Y-204032D01*
Y-204486D01*
Y-204939D01*
Y-205393D01*
X936048D01*
Y-205846D01*
Y-206300D01*
Y-206753D01*
Y-207207D01*
Y-207661D01*
Y-208114D01*
Y-208568D01*
Y-209021D01*
Y-209475D01*
Y-209928D01*
Y-210382D01*
X935595D01*
Y-210835D01*
Y-211289D01*
Y-211742D01*
Y-212196D01*
Y-212650D01*
Y-213103D01*
X935141D01*
Y-213557D01*
Y-214010D01*
Y-214464D01*
Y-214917D01*
Y-215371D01*
X934688D01*
Y-215825D01*
Y-216278D01*
Y-216732D01*
Y-217185D01*
X934234D01*
Y-217639D01*
Y-218092D01*
Y-218546D01*
Y-218999D01*
X933781D01*
Y-219453D01*
Y-219907D01*
Y-220360D01*
X933327D01*
Y-220814D01*
Y-221267D01*
X932873D01*
Y-221721D01*
Y-222174D01*
Y-222628D01*
X932420D01*
Y-223081D01*
Y-223535D01*
X931966D01*
Y-223988D01*
Y-224442D01*
Y-224896D01*
X931513D01*
Y-225349D01*
Y-225803D01*
X931059D01*
Y-226256D01*
Y-226710D01*
X930606D01*
Y-227163D01*
Y-227617D01*
X930152D01*
Y-228071D01*
Y-228524D01*
X929698D01*
Y-228071D01*
Y-227617D01*
Y-227163D01*
Y-226710D01*
Y-226256D01*
Y-225803D01*
Y-225349D01*
Y-224896D01*
Y-224442D01*
Y-223988D01*
Y-223535D01*
Y-223081D01*
Y-222628D01*
Y-222174D01*
Y-221721D01*
Y-221267D01*
Y-220814D01*
Y-220360D01*
Y-219907D01*
Y-219453D01*
Y-218999D01*
Y-218546D01*
Y-218092D01*
Y-217639D01*
Y-217185D01*
Y-216732D01*
Y-216278D01*
Y-215825D01*
Y-215371D01*
Y-214917D01*
Y-214464D01*
Y-214010D01*
Y-213557D01*
Y-213103D01*
Y-212650D01*
Y-212196D01*
Y-211742D01*
Y-211289D01*
Y-210835D01*
Y-210382D01*
Y-209928D01*
Y-209475D01*
Y-209021D01*
Y-208568D01*
Y-208114D01*
Y-207661D01*
Y-207207D01*
Y-206753D01*
Y-206300D01*
Y-205846D01*
Y-205393D01*
Y-204939D01*
Y-204486D01*
Y-204032D01*
Y-203578D01*
Y-203125D01*
Y-202671D01*
Y-202218D01*
Y-201764D01*
Y-201311D01*
Y-200857D01*
Y-200404D01*
Y-199950D01*
Y-199496D01*
Y-199043D01*
Y-198589D01*
Y-198136D01*
Y-197682D01*
Y-197229D01*
Y-196775D01*
Y-196322D01*
Y-195868D01*
Y-195414D01*
Y-194961D01*
Y-194507D01*
Y-194054D01*
X916999D01*
Y-194507D01*
Y-194961D01*
Y-195414D01*
Y-195868D01*
Y-196322D01*
Y-196775D01*
Y-197229D01*
Y-197682D01*
Y-198136D01*
Y-198589D01*
Y-199043D01*
Y-199496D01*
Y-199950D01*
Y-200404D01*
Y-200857D01*
Y-201311D01*
Y-201764D01*
Y-202218D01*
Y-202671D01*
Y-203125D01*
Y-203578D01*
Y-204032D01*
Y-204486D01*
Y-204939D01*
Y-205393D01*
Y-205846D01*
Y-206300D01*
Y-206753D01*
Y-207207D01*
Y-207661D01*
Y-208114D01*
Y-208568D01*
Y-209021D01*
Y-209475D01*
Y-209928D01*
Y-210382D01*
Y-210835D01*
Y-211289D01*
Y-211742D01*
Y-212196D01*
Y-212650D01*
Y-213103D01*
Y-213557D01*
Y-214010D01*
Y-214464D01*
Y-214917D01*
Y-215371D01*
Y-215825D01*
Y-216278D01*
Y-216732D01*
Y-217185D01*
Y-217639D01*
Y-218092D01*
Y-218546D01*
Y-218999D01*
Y-219453D01*
Y-219907D01*
Y-220360D01*
Y-220814D01*
Y-221267D01*
Y-221721D01*
X916545D01*
Y-222174D01*
Y-222628D01*
Y-223081D01*
Y-223535D01*
X916092D01*
Y-223988D01*
Y-224442D01*
X915638D01*
Y-224896D01*
Y-225349D01*
X915185D01*
Y-225803D01*
X914731D01*
Y-226256D01*
X914278D01*
Y-226710D01*
X913824D01*
Y-227163D01*
X913371D01*
Y-227617D01*
X912463D01*
Y-228071D01*
X911103D01*
Y-228524D01*
X904753D01*
Y-228071D01*
X903392D01*
Y-227617D01*
X902485D01*
Y-227163D01*
X902032D01*
Y-226710D01*
X901578D01*
Y-226256D01*
X901124D01*
Y-225803D01*
Y-225349D01*
X900671D01*
Y-224896D01*
Y-224442D01*
X900217D01*
Y-223988D01*
Y-223535D01*
Y-223081D01*
Y-222628D01*
X899764D01*
Y-222174D01*
Y-221721D01*
Y-221267D01*
Y-220814D01*
Y-220360D01*
Y-219907D01*
Y-219453D01*
Y-218999D01*
Y-218546D01*
Y-218092D01*
Y-217639D01*
Y-217185D01*
Y-216732D01*
Y-216278D01*
Y-215825D01*
Y-215371D01*
Y-214917D01*
Y-214464D01*
Y-214010D01*
Y-213557D01*
Y-213103D01*
Y-212650D01*
Y-212196D01*
Y-211742D01*
Y-211289D01*
Y-210835D01*
Y-210382D01*
Y-209928D01*
Y-209475D01*
Y-209021D01*
Y-208568D01*
Y-208114D01*
Y-207661D01*
Y-207207D01*
Y-206753D01*
Y-206300D01*
Y-205846D01*
Y-205393D01*
Y-204939D01*
Y-204486D01*
Y-204032D01*
Y-203578D01*
Y-203125D01*
Y-202671D01*
Y-202218D01*
Y-201764D01*
Y-201311D01*
Y-200857D01*
Y-200404D01*
Y-199950D01*
Y-199496D01*
Y-199043D01*
Y-198589D01*
Y-198136D01*
Y-197682D01*
Y-197229D01*
Y-196775D01*
Y-196322D01*
Y-195868D01*
Y-195414D01*
Y-194961D01*
Y-194507D01*
Y-194054D01*
X887064D01*
Y-194507D01*
Y-194961D01*
Y-195414D01*
Y-195868D01*
Y-196322D01*
Y-196775D01*
Y-197229D01*
Y-197682D01*
Y-198136D01*
Y-198589D01*
Y-199043D01*
Y-199496D01*
Y-199950D01*
Y-200404D01*
Y-200857D01*
Y-201311D01*
Y-201764D01*
Y-202218D01*
Y-202671D01*
Y-203125D01*
Y-203578D01*
Y-204032D01*
Y-204486D01*
Y-204939D01*
Y-205393D01*
Y-205846D01*
Y-206300D01*
Y-206753D01*
Y-207207D01*
Y-207661D01*
Y-208114D01*
Y-208568D01*
Y-209021D01*
Y-209475D01*
Y-209928D01*
Y-210382D01*
Y-210835D01*
Y-211289D01*
Y-211742D01*
Y-212196D01*
Y-212650D01*
Y-213103D01*
Y-213557D01*
Y-214010D01*
Y-214464D01*
Y-214917D01*
Y-215371D01*
Y-215825D01*
Y-216278D01*
Y-216732D01*
Y-217185D01*
Y-217639D01*
Y-218092D01*
Y-218546D01*
Y-218999D01*
Y-219453D01*
Y-219907D01*
Y-220360D01*
Y-220814D01*
Y-221267D01*
Y-221721D01*
Y-222174D01*
Y-222628D01*
Y-223081D01*
Y-223535D01*
Y-223988D01*
Y-224442D01*
Y-224896D01*
Y-225349D01*
Y-225803D01*
Y-226256D01*
Y-226710D01*
Y-227163D01*
X887518D01*
Y-227617D01*
Y-228071D01*
Y-228524D01*
Y-228978D01*
X887971D01*
Y-229431D01*
Y-229885D01*
Y-230338D01*
X888425D01*
Y-230792D01*
Y-231245D01*
Y-231699D01*
X888878D01*
Y-232153D01*
Y-232606D01*
X889332D01*
Y-233060D01*
X889786D01*
Y-233513D01*
Y-233967D01*
X890239D01*
Y-234420D01*
X890693D01*
Y-234874D01*
X891146D01*
Y-235327D01*
X891600D01*
Y-235781D01*
X892053D01*
Y-236234D01*
X892507D01*
Y-236688D01*
X893414D01*
Y-237142D01*
X893868D01*
Y-237595D01*
X894775D01*
Y-238049D01*
X895682D01*
Y-238502D01*
X896589D01*
Y-238956D01*
X897950D01*
Y-239409D01*
X899764D01*
Y-239863D01*
X908835D01*
Y-239409D01*
X910649D01*
Y-238956D01*
X911556D01*
Y-238502D01*
X912917D01*
Y-238049D01*
X913371D01*
Y-237595D01*
X914278D01*
Y-237142D01*
X914731D01*
Y-236688D01*
X915185D01*
Y-236234D01*
X916092D01*
Y-235781D01*
X916545D01*
Y-235327D01*
X916999D01*
Y-234874D01*
Y-234420D01*
X917452D01*
Y-234874D01*
Y-235327D01*
Y-235781D01*
Y-236234D01*
Y-236688D01*
Y-237142D01*
Y-237595D01*
Y-238049D01*
Y-238502D01*
Y-238956D01*
X922442D01*
Y-239409D01*
X921988D01*
Y-239863D01*
X921535D01*
Y-240317D01*
X921081D01*
Y-240770D01*
X920627D01*
Y-241224D01*
X920174D01*
Y-241677D01*
X919720D01*
Y-242131D01*
X919267D01*
Y-242584D01*
X918813D01*
Y-243038D01*
X917906D01*
Y-243491D01*
X917452D01*
Y-243945D01*
X916999D01*
Y-244398D01*
X916545D01*
Y-244852D01*
X915638D01*
Y-245306D01*
X915185D01*
Y-245759D01*
X914731D01*
Y-246213D01*
X913824D01*
Y-246666D01*
X913371D01*
Y-247120D01*
X912463D01*
Y-247573D01*
X912010D01*
Y-248027D01*
X911103D01*
Y-248480D01*
X910649D01*
Y-248934D01*
X909742D01*
Y-249388D01*
X908835D01*
Y-249841D01*
X907928D01*
Y-250295D01*
X907474D01*
Y-250748D01*
X906567D01*
Y-251202D01*
X905206D01*
Y-251655D01*
X904299D01*
Y-252109D01*
X903392D01*
Y-252563D01*
X902032D01*
Y-253016D01*
X901124D01*
Y-253470D01*
X899764D01*
Y-253923D01*
X897950D01*
Y-254377D01*
X896589D01*
Y-254830D01*
X894775D01*
Y-255284D01*
X892053D01*
Y-255737D01*
X888878D01*
Y-256191D01*
X877086D01*
Y-255737D01*
X873911D01*
Y-255284D01*
X871643D01*
Y-254830D01*
X869829D01*
Y-254377D01*
X868015D01*
Y-253923D01*
X866654D01*
Y-253470D01*
X865294D01*
Y-253016D01*
X863933D01*
Y-252563D01*
X863026D01*
Y-252109D01*
X861665D01*
Y-251655D01*
X860758D01*
Y-251202D01*
X859851D01*
Y-250748D01*
X858944D01*
Y-250295D01*
X858037D01*
Y-249841D01*
X857130D01*
Y-249388D01*
X856222D01*
Y-248934D01*
X855769D01*
Y-248480D01*
X854862D01*
Y-248027D01*
X853955D01*
Y-247573D01*
X853501D01*
Y-247120D01*
X852594D01*
Y-246666D01*
X852140D01*
Y-246213D01*
X851687D01*
Y-245759D01*
X850780D01*
Y-245306D01*
X850326D01*
Y-244852D01*
X849873D01*
Y-244398D01*
X848966D01*
Y-243945D01*
X848512D01*
Y-243491D01*
X848058D01*
Y-243038D01*
X847605D01*
Y-242584D01*
X847151D01*
Y-242131D01*
X846698D01*
Y-241677D01*
X846244D01*
Y-241224D01*
X845791D01*
Y-240770D01*
X845337D01*
Y-240317D01*
X844883D01*
Y-239863D01*
X844430D01*
Y-239409D01*
X843976D01*
Y-238956D01*
X843523D01*
Y-238502D01*
X843069D01*
Y-238049D01*
X842616D01*
Y-237595D01*
X842162D01*
Y-237142D01*
X841709D01*
Y-236688D01*
Y-236234D01*
X841255D01*
Y-235781D01*
X840801D01*
Y-235327D01*
X840348D01*
Y-234874D01*
X839894D01*
Y-234420D01*
Y-233967D01*
X839441D01*
Y-233513D01*
X838987D01*
Y-233060D01*
Y-232606D01*
X838534D01*
Y-232153D01*
X838080D01*
Y-231699D01*
Y-231245D01*
X837627D01*
Y-230792D01*
X837173D01*
Y-230338D01*
Y-229885D01*
X836720D01*
Y-229431D01*
Y-228978D01*
X836266D01*
Y-228524D01*
Y-228071D01*
X835812D01*
Y-227617D01*
Y-227163D01*
X835359D01*
Y-226710D01*
Y-226256D01*
X834905D01*
Y-225803D01*
Y-225349D01*
X834452D01*
Y-224896D01*
Y-224442D01*
X833998D01*
Y-223988D01*
Y-223535D01*
X833545D01*
Y-223081D01*
Y-222628D01*
Y-222174D01*
X833091D01*
Y-221721D01*
Y-221267D01*
Y-220814D01*
X832637D01*
Y-220360D01*
Y-219907D01*
X832184D01*
Y-219453D01*
Y-218999D01*
Y-218546D01*
Y-218092D01*
X831730D01*
Y-217639D01*
Y-217185D01*
Y-216732D01*
X831277D01*
Y-216278D01*
Y-215825D01*
Y-215371D01*
Y-214917D01*
X830823D01*
Y-214464D01*
Y-214010D01*
Y-213557D01*
Y-213103D01*
Y-212650D01*
X830370D01*
Y-212196D01*
Y-211742D01*
Y-211289D01*
Y-210835D01*
Y-210382D01*
Y-209928D01*
Y-209475D01*
X829916D01*
Y-209021D01*
Y-208568D01*
Y-208114D01*
Y-207661D01*
Y-207207D01*
Y-206753D01*
Y-206300D01*
Y-205846D01*
Y-205393D01*
Y-204939D01*
X829463D01*
Y-204486D01*
Y-204032D01*
Y-203578D01*
Y-203125D01*
Y-202671D01*
Y-202218D01*
Y-201764D01*
Y-201311D01*
Y-200857D01*
X829916D01*
Y-200404D01*
Y-199950D01*
Y-199496D01*
Y-199043D01*
Y-198589D01*
Y-198136D01*
Y-197682D01*
Y-197229D01*
Y-196775D01*
X830370D01*
Y-196322D01*
Y-195868D01*
Y-195414D01*
Y-194961D01*
Y-194507D01*
Y-194054D01*
Y-193600D01*
X830823D01*
Y-193147D01*
Y-192693D01*
Y-192240D01*
Y-191786D01*
Y-191332D01*
X831277D01*
Y-190879D01*
Y-190425D01*
Y-189972D01*
Y-189518D01*
X831730D01*
Y-189065D01*
Y-188611D01*
Y-188158D01*
Y-187704D01*
X832184D01*
Y-187250D01*
Y-186797D01*
Y-186343D01*
X832637D01*
Y-185890D01*
Y-185436D01*
Y-184983D01*
X833091D01*
Y-184529D01*
Y-184076D01*
X833545D01*
Y-183622D01*
Y-183168D01*
Y-182715D01*
X833998D01*
Y-182261D01*
Y-181808D01*
X834452D01*
Y-181354D01*
Y-180901D01*
Y-180447D01*
X834905D01*
Y-179993D01*
Y-179540D01*
X835359D01*
Y-179086D01*
Y-178633D01*
X835812D01*
Y-178179D01*
Y-177726D01*
X836266D01*
Y-177272D01*
X836720D01*
Y-176819D01*
Y-176365D01*
X837173D01*
Y-175912D01*
Y-175458D01*
X837627D01*
Y-175004D01*
X838080D01*
Y-174551D01*
Y-174097D01*
X838534D01*
Y-173644D01*
X838987D01*
Y-173190D01*
Y-172737D01*
X839441D01*
Y-172283D01*
X839894D01*
Y-171830D01*
Y-171376D01*
X840348D01*
Y-170922D01*
X840801D01*
Y-170469D01*
X841255D01*
Y-170015D01*
Y-169562D01*
X841709D01*
Y-169108D01*
X842162D01*
Y-168655D01*
X842616D01*
Y-168201D01*
X843069D01*
Y-167747D01*
X843523D01*
Y-167294D01*
X843976D01*
Y-166840D01*
X844430D01*
Y-166387D01*
Y-165933D01*
X844883D01*
Y-165480D01*
X845337D01*
Y-165026D01*
X845791D01*
Y-164573D01*
X846698D01*
Y-164119D01*
X847151D01*
Y-163666D01*
X847605D01*
Y-163212D01*
X848058D01*
Y-162758D01*
X848512D01*
Y-162305D01*
X848966D01*
Y-161851D01*
X849419D01*
Y-161398D01*
X850326D01*
Y-160944D01*
X850780D01*
Y-160491D01*
X851233D01*
Y-160037D01*
X852140D01*
Y-159584D01*
X852594D01*
Y-159130D01*
X853501D01*
Y-158676D01*
X853955D01*
Y-158223D01*
X854862D01*
Y-157769D01*
X855315D01*
Y-157316D01*
X856222D01*
Y-156862D01*
X857130D01*
Y-156409D01*
X857583D01*
Y-155955D01*
X858944D01*
Y-155501D01*
X859851D01*
Y-155048D01*
X860758D01*
Y-154594D01*
X861665D01*
Y-154141D01*
X862572D01*
Y-153687D01*
X863933D01*
Y-153234D01*
X864840D01*
Y-152780D01*
X866201D01*
Y-152327D01*
X867561D01*
Y-151873D01*
X869376D01*
Y-151419D01*
X871190D01*
Y-150966D01*
X873457D01*
Y-150512D01*
X876632D01*
Y-150059D01*
X881168D01*
Y-149605D01*
X885250D01*
Y-150059D01*
D02*
G37*
G36*
X955551Y-177272D02*
Y-177726D01*
Y-178179D01*
Y-178633D01*
Y-179086D01*
Y-179540D01*
Y-179993D01*
Y-180447D01*
Y-180901D01*
Y-181354D01*
Y-181808D01*
Y-182261D01*
Y-182715D01*
Y-183168D01*
Y-183622D01*
Y-184076D01*
Y-184529D01*
Y-184983D01*
Y-185436D01*
Y-185890D01*
Y-186343D01*
Y-186797D01*
Y-187250D01*
Y-187704D01*
Y-188158D01*
Y-188611D01*
Y-189065D01*
Y-189518D01*
Y-189972D01*
Y-190425D01*
Y-190879D01*
Y-191332D01*
Y-191786D01*
Y-192240D01*
Y-192693D01*
Y-193147D01*
Y-193600D01*
Y-194054D01*
Y-194507D01*
Y-194961D01*
Y-195414D01*
Y-195868D01*
Y-196322D01*
Y-196775D01*
Y-197229D01*
Y-197682D01*
Y-198136D01*
Y-198589D01*
Y-199043D01*
Y-199496D01*
X956458D01*
Y-199043D01*
X956912D01*
Y-198589D01*
X957365D01*
Y-198136D01*
X957819D01*
Y-197682D01*
X958272D01*
Y-197229D01*
X958726D01*
Y-196775D01*
X959180D01*
Y-196322D01*
X960087D01*
Y-195868D01*
X960540D01*
Y-195414D01*
X961447D01*
Y-194961D01*
X962355D01*
Y-194507D01*
X963715D01*
Y-194054D01*
X965529D01*
Y-193600D01*
X974147D01*
Y-194054D01*
X975961D01*
Y-194507D01*
X977322D01*
Y-194961D01*
X978682D01*
Y-195414D01*
X979590D01*
Y-195868D01*
X980043D01*
Y-196322D01*
X980950D01*
Y-196775D01*
X981404D01*
Y-197229D01*
X982311D01*
Y-197682D01*
X982765D01*
Y-198136D01*
X983218D01*
Y-198589D01*
X983672D01*
Y-199043D01*
X984125D01*
Y-199496D01*
X984579D01*
Y-199950D01*
Y-200404D01*
X985032D01*
Y-200857D01*
X985486D01*
Y-201311D01*
X985939D01*
Y-201764D01*
Y-202218D01*
X986393D01*
Y-202671D01*
Y-203125D01*
X986846D01*
Y-203578D01*
Y-204032D01*
X987300D01*
Y-204486D01*
Y-204939D01*
X987754D01*
Y-205393D01*
Y-205846D01*
Y-206300D01*
X988207D01*
Y-206753D01*
Y-207207D01*
Y-207661D01*
Y-208114D01*
X988661D01*
Y-208568D01*
Y-209021D01*
Y-209475D01*
Y-209928D01*
Y-210382D01*
X989114D01*
Y-210835D01*
Y-211289D01*
Y-211742D01*
Y-212196D01*
Y-212650D01*
Y-213103D01*
Y-213557D01*
Y-214010D01*
Y-214464D01*
X989568D01*
Y-214917D01*
X989114D01*
Y-215371D01*
Y-215825D01*
Y-216278D01*
Y-216732D01*
Y-217185D01*
Y-217639D01*
Y-218092D01*
Y-218546D01*
Y-218999D01*
Y-219453D01*
Y-219907D01*
Y-220360D01*
Y-220814D01*
Y-221267D01*
Y-221721D01*
Y-222174D01*
Y-222628D01*
X988661D01*
Y-223081D01*
Y-223535D01*
Y-223988D01*
Y-224442D01*
Y-224896D01*
X988207D01*
Y-225349D01*
Y-225803D01*
Y-226256D01*
X987754D01*
Y-226710D01*
Y-227163D01*
Y-227617D01*
X987300D01*
Y-228071D01*
Y-228524D01*
Y-228978D01*
X986846D01*
Y-229431D01*
Y-229885D01*
X986393D01*
Y-230338D01*
Y-230792D01*
X985939D01*
Y-231245D01*
X985486D01*
Y-231699D01*
Y-232153D01*
X985032D01*
Y-232606D01*
X984579D01*
Y-233060D01*
X984125D01*
Y-233513D01*
X983672D01*
Y-233967D01*
Y-234420D01*
X982765D01*
Y-234874D01*
X982311D01*
Y-235327D01*
X981857D01*
Y-235781D01*
X981404D01*
Y-236234D01*
X980497D01*
Y-236688D01*
X980043D01*
Y-237142D01*
X979136D01*
Y-237595D01*
X978229D01*
Y-238049D01*
X977322D01*
Y-238502D01*
X975961D01*
Y-238956D01*
X973693D01*
Y-239409D01*
X965983D01*
Y-238956D01*
X963715D01*
Y-238502D01*
X962808D01*
Y-238049D01*
X961447D01*
Y-237595D01*
X960994D01*
Y-237142D01*
X960087D01*
Y-236688D01*
X959633D01*
Y-236234D01*
X958726D01*
Y-235781D01*
X958272D01*
Y-235327D01*
X957819D01*
Y-234874D01*
X957365D01*
Y-234420D01*
X956912D01*
Y-233967D01*
X956458D01*
Y-233513D01*
X956005D01*
Y-233060D01*
Y-232606D01*
X955098D01*
Y-233060D01*
Y-233513D01*
Y-233967D01*
Y-234420D01*
Y-234874D01*
Y-235327D01*
Y-235781D01*
Y-236234D01*
Y-236688D01*
Y-237142D01*
Y-237595D01*
Y-238049D01*
Y-238502D01*
X943759D01*
Y-238049D01*
Y-237595D01*
Y-237142D01*
Y-236688D01*
Y-236234D01*
Y-235781D01*
Y-235327D01*
Y-234874D01*
Y-234420D01*
Y-233967D01*
Y-233513D01*
Y-233060D01*
Y-232606D01*
Y-232153D01*
Y-231699D01*
Y-231245D01*
Y-230792D01*
Y-230338D01*
Y-229885D01*
Y-229431D01*
Y-228978D01*
Y-228524D01*
Y-228071D01*
Y-227617D01*
Y-227163D01*
Y-226710D01*
Y-226256D01*
Y-225803D01*
Y-225349D01*
Y-224896D01*
Y-224442D01*
Y-223988D01*
Y-223535D01*
Y-223081D01*
Y-222628D01*
Y-222174D01*
Y-221721D01*
Y-221267D01*
Y-220814D01*
Y-220360D01*
Y-219907D01*
Y-219453D01*
Y-218999D01*
Y-218546D01*
Y-218092D01*
Y-217639D01*
Y-217185D01*
Y-216732D01*
Y-216278D01*
Y-215825D01*
Y-215371D01*
Y-214917D01*
Y-214464D01*
Y-214010D01*
Y-213557D01*
Y-213103D01*
Y-212650D01*
Y-212196D01*
Y-211742D01*
Y-211289D01*
Y-210835D01*
Y-210382D01*
Y-209928D01*
Y-209475D01*
Y-209021D01*
Y-208568D01*
Y-208114D01*
Y-207661D01*
Y-207207D01*
Y-206753D01*
Y-206300D01*
Y-205846D01*
Y-205393D01*
Y-204939D01*
Y-204486D01*
Y-204032D01*
Y-203578D01*
Y-203125D01*
Y-202671D01*
Y-202218D01*
Y-201764D01*
Y-201311D01*
Y-200857D01*
Y-200404D01*
Y-199950D01*
Y-199496D01*
Y-199043D01*
Y-198589D01*
Y-198136D01*
Y-197682D01*
Y-197229D01*
Y-196775D01*
Y-196322D01*
Y-195868D01*
Y-195414D01*
Y-194961D01*
Y-194507D01*
Y-194054D01*
Y-193600D01*
Y-193147D01*
Y-192693D01*
Y-192240D01*
Y-191786D01*
Y-191332D01*
Y-190879D01*
Y-190425D01*
Y-189972D01*
Y-189518D01*
Y-189065D01*
Y-188611D01*
Y-188158D01*
Y-187704D01*
Y-187250D01*
Y-186797D01*
Y-186343D01*
Y-185890D01*
Y-185436D01*
Y-184983D01*
Y-184529D01*
Y-184076D01*
Y-183622D01*
Y-183168D01*
Y-182715D01*
Y-182261D01*
Y-181808D01*
Y-181354D01*
Y-180901D01*
Y-180447D01*
Y-179993D01*
Y-179540D01*
Y-179086D01*
Y-178633D01*
Y-178179D01*
Y-177726D01*
Y-177272D01*
Y-176819D01*
X955551D01*
Y-177272D01*
D02*
G37*
G36*
X1009071D02*
Y-177726D01*
Y-178179D01*
Y-178633D01*
Y-179086D01*
Y-179540D01*
Y-179993D01*
Y-180447D01*
Y-180901D01*
Y-181354D01*
Y-181808D01*
Y-182261D01*
Y-182715D01*
Y-183168D01*
Y-183622D01*
Y-184076D01*
Y-184529D01*
Y-184983D01*
Y-185436D01*
Y-185890D01*
Y-186343D01*
Y-186797D01*
Y-187250D01*
Y-187704D01*
Y-188158D01*
Y-188611D01*
Y-189065D01*
Y-189518D01*
Y-189972D01*
Y-190425D01*
Y-190879D01*
Y-191332D01*
Y-191786D01*
Y-192240D01*
Y-192693D01*
Y-193147D01*
Y-193600D01*
Y-194054D01*
Y-194507D01*
Y-194961D01*
Y-195414D01*
Y-195868D01*
Y-196322D01*
Y-196775D01*
Y-197229D01*
Y-197682D01*
Y-198136D01*
Y-198589D01*
Y-199043D01*
Y-199496D01*
Y-199950D01*
Y-200404D01*
Y-200857D01*
Y-201311D01*
Y-201764D01*
Y-202218D01*
Y-202671D01*
Y-203125D01*
Y-203578D01*
Y-204032D01*
Y-204486D01*
Y-204939D01*
Y-205393D01*
Y-205846D01*
Y-206300D01*
Y-206753D01*
Y-207207D01*
Y-207661D01*
Y-208114D01*
Y-208568D01*
Y-209021D01*
Y-209475D01*
Y-209928D01*
Y-210382D01*
Y-210835D01*
Y-211289D01*
Y-211742D01*
Y-212196D01*
Y-212650D01*
Y-213103D01*
Y-213557D01*
Y-214010D01*
Y-214464D01*
Y-214917D01*
Y-215371D01*
Y-215825D01*
Y-216278D01*
Y-216732D01*
Y-217185D01*
Y-217639D01*
Y-218092D01*
Y-218546D01*
Y-218999D01*
Y-219453D01*
Y-219907D01*
Y-220360D01*
Y-220814D01*
Y-221267D01*
Y-221721D01*
Y-222174D01*
Y-222628D01*
Y-223081D01*
Y-223535D01*
Y-223988D01*
Y-224442D01*
Y-224896D01*
Y-225349D01*
Y-225803D01*
Y-226256D01*
Y-226710D01*
Y-227163D01*
Y-227617D01*
Y-228071D01*
Y-228524D01*
Y-228978D01*
Y-229431D01*
Y-229885D01*
Y-230338D01*
Y-230792D01*
Y-231245D01*
Y-231699D01*
Y-232153D01*
Y-232606D01*
Y-233060D01*
Y-233513D01*
Y-233967D01*
Y-234420D01*
Y-234874D01*
Y-235327D01*
Y-235781D01*
Y-236234D01*
Y-236688D01*
Y-237142D01*
Y-237595D01*
Y-238049D01*
Y-238502D01*
X997732D01*
Y-238049D01*
Y-237595D01*
Y-237142D01*
Y-236688D01*
Y-236234D01*
Y-235781D01*
Y-235327D01*
Y-234874D01*
Y-234420D01*
Y-233967D01*
Y-233513D01*
Y-233060D01*
Y-232606D01*
Y-232153D01*
Y-231699D01*
Y-231245D01*
Y-230792D01*
Y-230338D01*
Y-229885D01*
Y-229431D01*
Y-228978D01*
Y-228524D01*
Y-228071D01*
Y-227617D01*
Y-227163D01*
Y-226710D01*
Y-226256D01*
Y-225803D01*
Y-225349D01*
Y-224896D01*
Y-224442D01*
Y-223988D01*
Y-223535D01*
Y-223081D01*
Y-222628D01*
Y-222174D01*
Y-221721D01*
Y-221267D01*
Y-220814D01*
Y-220360D01*
Y-219907D01*
Y-219453D01*
Y-218999D01*
Y-218546D01*
Y-218092D01*
Y-217639D01*
Y-217185D01*
Y-216732D01*
Y-216278D01*
Y-215825D01*
Y-215371D01*
Y-214917D01*
Y-214464D01*
Y-214010D01*
Y-213557D01*
Y-213103D01*
Y-212650D01*
Y-212196D01*
Y-211742D01*
Y-211289D01*
Y-210835D01*
Y-210382D01*
Y-209928D01*
Y-209475D01*
Y-209021D01*
Y-208568D01*
Y-208114D01*
Y-207661D01*
Y-207207D01*
Y-206753D01*
Y-206300D01*
Y-205846D01*
Y-205393D01*
Y-204939D01*
Y-204486D01*
Y-204032D01*
Y-203578D01*
Y-203125D01*
Y-202671D01*
Y-202218D01*
Y-201764D01*
Y-201311D01*
Y-200857D01*
Y-200404D01*
Y-199950D01*
Y-199496D01*
Y-199043D01*
Y-198589D01*
Y-198136D01*
Y-197682D01*
Y-197229D01*
Y-196775D01*
Y-196322D01*
Y-195868D01*
Y-195414D01*
Y-194961D01*
Y-194507D01*
Y-194054D01*
Y-193600D01*
Y-193147D01*
Y-192693D01*
Y-192240D01*
Y-191786D01*
Y-191332D01*
Y-190879D01*
Y-190425D01*
Y-189972D01*
Y-189518D01*
Y-189065D01*
Y-188611D01*
Y-188158D01*
Y-187704D01*
Y-187250D01*
Y-186797D01*
Y-186343D01*
Y-185890D01*
Y-185436D01*
Y-184983D01*
Y-184529D01*
Y-184076D01*
Y-183622D01*
Y-183168D01*
Y-182715D01*
Y-182261D01*
Y-181808D01*
Y-181354D01*
Y-180901D01*
Y-180447D01*
Y-179993D01*
Y-179540D01*
Y-179086D01*
Y-178633D01*
Y-178179D01*
Y-177726D01*
Y-177272D01*
Y-176819D01*
X1009071D01*
Y-177272D01*
D02*
G37*
G36*
X1045355Y-194054D02*
X1047623D01*
Y-194507D01*
X1048984D01*
Y-194961D01*
X1050344D01*
Y-195414D01*
X1051252D01*
Y-195868D01*
X1052159D01*
Y-196322D01*
X1053066D01*
Y-196775D01*
X1053973D01*
Y-197229D01*
X1054426D01*
Y-197682D01*
X1055333D01*
Y-198136D01*
X1055787D01*
Y-198589D01*
X1056241D01*
Y-199043D01*
X1056694D01*
Y-199496D01*
X1057148D01*
Y-199950D01*
X1057601D01*
Y-200404D01*
X1058055D01*
Y-200857D01*
X1058508D01*
Y-201311D01*
X1058962D01*
Y-201764D01*
Y-202218D01*
X1059416D01*
Y-202671D01*
X1059869D01*
Y-203125D01*
Y-203578D01*
X1060323D01*
Y-204032D01*
Y-204486D01*
X1060776D01*
Y-204939D01*
Y-205393D01*
X1061230D01*
Y-205846D01*
Y-206300D01*
X1061683D01*
Y-206753D01*
Y-207207D01*
Y-207661D01*
X1062137D01*
Y-208114D01*
Y-208568D01*
Y-209021D01*
Y-209475D01*
Y-209928D01*
X1062590D01*
Y-210382D01*
Y-210835D01*
Y-211289D01*
Y-211742D01*
Y-212196D01*
Y-212650D01*
Y-213103D01*
X1063044D01*
Y-213557D01*
Y-214010D01*
Y-214464D01*
Y-214917D01*
Y-215371D01*
Y-215825D01*
Y-216278D01*
Y-216732D01*
Y-217185D01*
Y-217639D01*
Y-218092D01*
Y-218546D01*
Y-218999D01*
Y-219453D01*
Y-219907D01*
X1062590D01*
Y-220360D01*
Y-220814D01*
Y-221267D01*
Y-221721D01*
Y-222174D01*
Y-222628D01*
Y-223081D01*
X1062137D01*
Y-223535D01*
Y-223988D01*
Y-224442D01*
Y-224896D01*
X1061683D01*
Y-225349D01*
Y-225803D01*
Y-226256D01*
X1061230D01*
Y-226710D01*
Y-227163D01*
Y-227617D01*
X1060776D01*
Y-228071D01*
Y-228524D01*
X1060323D01*
Y-228978D01*
Y-229431D01*
X1059869D01*
Y-229885D01*
Y-230338D01*
X1059416D01*
Y-230792D01*
X1058962D01*
Y-231245D01*
X1058508D01*
Y-231699D01*
Y-232153D01*
X1058055D01*
Y-232606D01*
X1057601D01*
Y-233060D01*
X1057148D01*
Y-233513D01*
X1056694D01*
Y-233967D01*
X1056241D01*
Y-234420D01*
X1055787D01*
Y-234874D01*
X1054880D01*
Y-235327D01*
X1054426D01*
Y-235781D01*
X1053519D01*
Y-236234D01*
X1053066D01*
Y-236688D01*
X1052159D01*
Y-237142D01*
X1051252D01*
Y-237595D01*
X1049891D01*
Y-238049D01*
X1048530D01*
Y-238502D01*
X1047169D01*
Y-238956D01*
X1044902D01*
Y-239409D01*
X1035377D01*
Y-238956D01*
X1032656D01*
Y-238502D01*
X1030841D01*
Y-238049D01*
X1029934D01*
Y-237595D01*
X1028574D01*
Y-237142D01*
X1027667D01*
Y-236688D01*
X1026759D01*
Y-236234D01*
X1026306D01*
Y-235781D01*
X1025399D01*
Y-235327D01*
X1024945D01*
Y-234874D01*
X1024038D01*
Y-234420D01*
X1023585D01*
Y-233967D01*
X1023131D01*
Y-233513D01*
X1022678D01*
Y-233060D01*
X1022224D01*
Y-232606D01*
X1021770D01*
Y-232153D01*
X1021317D01*
Y-231699D01*
Y-231245D01*
X1020863D01*
Y-230792D01*
X1020410D01*
Y-230338D01*
X1019956D01*
Y-229885D01*
Y-229431D01*
X1019503D01*
Y-228978D01*
Y-228524D01*
X1019049D01*
Y-228071D01*
Y-227617D01*
X1018595D01*
Y-227163D01*
Y-226710D01*
Y-226256D01*
X1018142D01*
Y-225803D01*
Y-225349D01*
Y-224896D01*
X1017688D01*
Y-224442D01*
Y-223988D01*
Y-223535D01*
Y-223081D01*
X1017235D01*
Y-222628D01*
Y-222174D01*
Y-221721D01*
Y-221267D01*
Y-220814D01*
Y-220360D01*
Y-219907D01*
Y-219453D01*
X1016781D01*
Y-218999D01*
Y-218546D01*
Y-218092D01*
Y-217639D01*
Y-217185D01*
Y-216732D01*
Y-216278D01*
Y-215825D01*
Y-215371D01*
Y-214917D01*
Y-214464D01*
Y-214010D01*
Y-213557D01*
X1017235D01*
Y-213103D01*
Y-212650D01*
Y-212196D01*
Y-211742D01*
Y-211289D01*
Y-210835D01*
Y-210382D01*
Y-209928D01*
X1017688D01*
Y-209475D01*
Y-209021D01*
Y-208568D01*
Y-208114D01*
X1018142D01*
Y-207661D01*
Y-207207D01*
Y-206753D01*
X1018595D01*
Y-206300D01*
Y-205846D01*
Y-205393D01*
X1019049D01*
Y-204939D01*
Y-204486D01*
X1019503D01*
Y-204032D01*
Y-203578D01*
X1019956D01*
Y-203125D01*
Y-202671D01*
X1020410D01*
Y-202218D01*
X1020863D01*
Y-201764D01*
Y-201311D01*
X1021317D01*
Y-200857D01*
X1021770D01*
Y-200404D01*
X1022224D01*
Y-199950D01*
X1022678D01*
Y-199496D01*
X1023131D01*
Y-199043D01*
X1023585D01*
Y-198589D01*
X1024038D01*
Y-198136D01*
X1024492D01*
Y-197682D01*
X1025399D01*
Y-197229D01*
X1025852D01*
Y-196775D01*
X1026759D01*
Y-196322D01*
X1027667D01*
Y-195868D01*
X1028574D01*
Y-195414D01*
X1029481D01*
Y-194961D01*
X1030841D01*
Y-194507D01*
X1032202D01*
Y-194054D01*
X1034470D01*
Y-193600D01*
X1045355D01*
Y-194054D01*
D02*
G37*
G36*
X1111121Y-194961D02*
X1110667D01*
Y-195414D01*
Y-195868D01*
X1110214D01*
Y-196322D01*
X1109760D01*
Y-196775D01*
X1109307D01*
Y-197229D01*
Y-197682D01*
X1108853D01*
Y-198136D01*
X1108400D01*
Y-198589D01*
Y-199043D01*
X1107946D01*
Y-199496D01*
X1107492D01*
Y-199950D01*
X1107039D01*
Y-200404D01*
Y-200857D01*
X1106585D01*
Y-201311D01*
X1106132D01*
Y-201764D01*
X1105678D01*
Y-202218D01*
Y-202671D01*
X1105225D01*
Y-203125D01*
X1104771D01*
Y-203578D01*
X1104317D01*
Y-204032D01*
Y-204486D01*
X1103864D01*
Y-204939D01*
X1103410D01*
Y-205393D01*
Y-205846D01*
X1102957D01*
Y-206300D01*
X1102503D01*
Y-206753D01*
X1102050D01*
Y-207207D01*
Y-207661D01*
X1101596D01*
Y-208114D01*
X1101143D01*
Y-208568D01*
X1100689D01*
Y-209021D01*
Y-209475D01*
X1100236D01*
Y-209928D01*
X1099782D01*
Y-210382D01*
Y-210835D01*
X1099328D01*
Y-211289D01*
X1098875D01*
Y-211742D01*
X1098421D01*
Y-212196D01*
Y-212650D01*
X1097968D01*
Y-213103D01*
X1097514D01*
Y-213557D01*
X1097061D01*
Y-214010D01*
Y-214464D01*
X1096607D01*
Y-214917D01*
X1096153D01*
Y-215371D01*
X1095700D01*
Y-215825D01*
Y-216278D01*
Y-216732D01*
X1096153D01*
Y-217185D01*
Y-217639D01*
X1096607D01*
Y-218092D01*
X1097061D01*
Y-218546D01*
X1097514D01*
Y-218999D01*
Y-219453D01*
X1097968D01*
Y-219907D01*
X1098421D01*
Y-220360D01*
X1098875D01*
Y-220814D01*
Y-221267D01*
X1099328D01*
Y-221721D01*
X1099782D01*
Y-222174D01*
Y-222628D01*
X1100236D01*
Y-223081D01*
X1100689D01*
Y-223535D01*
X1101143D01*
Y-223988D01*
Y-224442D01*
X1101596D01*
Y-224896D01*
X1102050D01*
Y-225349D01*
X1102503D01*
Y-225803D01*
Y-226256D01*
X1102957D01*
Y-226710D01*
X1103410D01*
Y-227163D01*
X1103864D01*
Y-227617D01*
Y-228071D01*
X1104317D01*
Y-228524D01*
X1104771D01*
Y-228978D01*
X1105225D01*
Y-229431D01*
Y-229885D01*
X1105678D01*
Y-230338D01*
X1106132D01*
Y-230792D01*
X1106585D01*
Y-231245D01*
Y-231699D01*
X1107039D01*
Y-232153D01*
X1107492D01*
Y-232606D01*
X1107946D01*
Y-233060D01*
Y-233513D01*
X1108400D01*
Y-233967D01*
X1108853D01*
Y-234420D01*
Y-234874D01*
X1109307D01*
Y-235327D01*
X1109760D01*
Y-235781D01*
X1110214D01*
Y-236234D01*
Y-236688D01*
X1110667D01*
Y-237142D01*
X1111121D01*
Y-237595D01*
X1111574D01*
Y-238049D01*
X1112028D01*
Y-238502D01*
X1097514D01*
Y-238049D01*
Y-237595D01*
X1097061D01*
Y-237142D01*
X1096607D01*
Y-236688D01*
X1096153D01*
Y-236234D01*
Y-235781D01*
X1095700D01*
Y-235327D01*
X1095246D01*
Y-234874D01*
X1094793D01*
Y-234420D01*
Y-233967D01*
X1094339D01*
Y-233513D01*
X1093886D01*
Y-233060D01*
Y-232606D01*
X1093432D01*
Y-232153D01*
X1092979D01*
Y-231699D01*
X1092525D01*
Y-231245D01*
Y-230792D01*
X1092072D01*
Y-230338D01*
X1091618D01*
Y-229885D01*
X1091164D01*
Y-229431D01*
Y-228978D01*
X1090711D01*
Y-228524D01*
X1090257D01*
Y-228071D01*
Y-227617D01*
X1089804D01*
Y-227163D01*
X1089350D01*
Y-226710D01*
X1088897D01*
Y-226256D01*
Y-225803D01*
X1088443D01*
Y-225349D01*
X1087990D01*
Y-224896D01*
X1087536D01*
Y-224442D01*
X1087082D01*
Y-224896D01*
Y-225349D01*
X1086629D01*
Y-225803D01*
X1086175D01*
Y-226256D01*
X1085722D01*
Y-226710D01*
Y-227163D01*
X1085268D01*
Y-227617D01*
X1084815D01*
Y-228071D01*
Y-228524D01*
X1084361D01*
Y-228978D01*
X1083907D01*
Y-229431D01*
X1083454D01*
Y-229885D01*
Y-230338D01*
X1083000D01*
Y-230792D01*
X1082547D01*
Y-231245D01*
Y-231699D01*
X1082093D01*
Y-232153D01*
X1081640D01*
Y-232606D01*
X1081186D01*
Y-233060D01*
Y-233513D01*
X1080733D01*
Y-233967D01*
X1080279D01*
Y-234420D01*
Y-234874D01*
X1079826D01*
Y-235327D01*
X1079372D01*
Y-235781D01*
X1078918D01*
Y-236234D01*
Y-236688D01*
X1078465D01*
Y-237142D01*
X1078011D01*
Y-237595D01*
Y-238049D01*
X1077558D01*
Y-238502D01*
X1064405D01*
Y-238049D01*
X1064858D01*
Y-237595D01*
X1065312D01*
Y-237142D01*
Y-236688D01*
X1065765D01*
Y-236234D01*
X1066219D01*
Y-235781D01*
X1066672D01*
Y-235327D01*
Y-234874D01*
X1067126D01*
Y-234420D01*
X1067579D01*
Y-233967D01*
Y-233513D01*
X1068033D01*
Y-233060D01*
X1068487D01*
Y-232606D01*
X1068940D01*
Y-232153D01*
X1069394D01*
Y-231699D01*
Y-231245D01*
X1069847D01*
Y-230792D01*
X1070301D01*
Y-230338D01*
Y-229885D01*
X1070754D01*
Y-229431D01*
X1071208D01*
Y-228978D01*
X1071662D01*
Y-228524D01*
Y-228071D01*
X1072115D01*
Y-227617D01*
X1072569D01*
Y-227163D01*
X1073022D01*
Y-226710D01*
Y-226256D01*
X1073476D01*
Y-225803D01*
X1073929D01*
Y-225349D01*
X1074383D01*
Y-224896D01*
Y-224442D01*
X1074836D01*
Y-223988D01*
X1075290D01*
Y-223535D01*
X1075743D01*
Y-223081D01*
Y-222628D01*
X1076197D01*
Y-222174D01*
X1076651D01*
Y-221721D01*
X1077104D01*
Y-221267D01*
Y-220814D01*
X1077558D01*
Y-220360D01*
X1078011D01*
Y-219907D01*
X1078465D01*
Y-219453D01*
Y-218999D01*
X1078918D01*
Y-218546D01*
X1079372D01*
Y-218092D01*
Y-217639D01*
X1079826D01*
Y-217185D01*
X1080279D01*
Y-216732D01*
X1080733D01*
Y-216278D01*
Y-215825D01*
X1080279D01*
Y-215371D01*
X1079826D01*
Y-214917D01*
X1079372D01*
Y-214464D01*
Y-214010D01*
X1078918D01*
Y-213557D01*
X1078465D01*
Y-213103D01*
X1078011D01*
Y-212650D01*
Y-212196D01*
X1077558D01*
Y-211742D01*
X1077104D01*
Y-211289D01*
Y-210835D01*
X1076651D01*
Y-210382D01*
X1076197D01*
Y-209928D01*
X1075743D01*
Y-209475D01*
Y-209021D01*
X1075290D01*
Y-208568D01*
X1074836D01*
Y-208114D01*
X1074383D01*
Y-207661D01*
Y-207207D01*
X1073929D01*
Y-206753D01*
X1073476D01*
Y-206300D01*
Y-205846D01*
X1073022D01*
Y-205393D01*
X1072569D01*
Y-204939D01*
X1072115D01*
Y-204486D01*
Y-204032D01*
X1071662D01*
Y-203578D01*
X1071208D01*
Y-203125D01*
X1070754D01*
Y-202671D01*
Y-202218D01*
X1070301D01*
Y-201764D01*
X1069847D01*
Y-201311D01*
Y-200857D01*
X1069394D01*
Y-200404D01*
X1068940D01*
Y-199950D01*
X1068487D01*
Y-199496D01*
Y-199043D01*
X1068033D01*
Y-198589D01*
X1067579D01*
Y-198136D01*
X1067126D01*
Y-197682D01*
Y-197229D01*
X1066672D01*
Y-196775D01*
X1066219D01*
Y-196322D01*
Y-195868D01*
X1065765D01*
Y-195414D01*
X1065312D01*
Y-194961D01*
X1064858D01*
Y-194507D01*
X1078918D01*
Y-194961D01*
X1079372D01*
Y-195414D01*
X1079826D01*
Y-195868D01*
Y-196322D01*
X1080279D01*
Y-196775D01*
X1080733D01*
Y-197229D01*
X1081186D01*
Y-197682D01*
Y-198136D01*
X1081640D01*
Y-198589D01*
X1082093D01*
Y-199043D01*
Y-199496D01*
X1082547D01*
Y-199950D01*
X1083000D01*
Y-200404D01*
Y-200857D01*
X1083454D01*
Y-201311D01*
X1083907D01*
Y-201764D01*
X1084361D01*
Y-202218D01*
Y-202671D01*
X1084815D01*
Y-203125D01*
X1085268D01*
Y-203578D01*
Y-204032D01*
X1085722D01*
Y-204486D01*
X1086175D01*
Y-204939D01*
X1086629D01*
Y-205393D01*
Y-205846D01*
X1087082D01*
Y-206300D01*
X1087536D01*
Y-206753D01*
Y-207207D01*
X1087990D01*
Y-207661D01*
X1088443D01*
Y-208114D01*
X1088897D01*
Y-207661D01*
X1089350D01*
Y-207207D01*
Y-206753D01*
X1089804D01*
Y-206300D01*
X1090257D01*
Y-205846D01*
X1090711D01*
Y-205393D01*
Y-204939D01*
X1091164D01*
Y-204486D01*
X1091618D01*
Y-204032D01*
Y-203578D01*
X1092072D01*
Y-203125D01*
X1092525D01*
Y-202671D01*
X1092979D01*
Y-202218D01*
Y-201764D01*
X1093432D01*
Y-201311D01*
X1093886D01*
Y-200857D01*
Y-200404D01*
X1094339D01*
Y-199950D01*
X1094793D01*
Y-199496D01*
X1095246D01*
Y-199043D01*
Y-198589D01*
X1095700D01*
Y-198136D01*
X1096153D01*
Y-197682D01*
Y-197229D01*
X1096607D01*
Y-196775D01*
X1097061D01*
Y-196322D01*
X1097514D01*
Y-195868D01*
Y-195414D01*
X1097968D01*
Y-194961D01*
X1098421D01*
Y-194507D01*
X1111121D01*
Y-194961D01*
D02*
G37*
%LPC*%
G36*
X873457Y-173644D02*
X871190D01*
Y-174097D01*
X869376D01*
Y-174551D01*
X868468D01*
Y-175004D01*
X867561D01*
Y-175458D01*
X866654D01*
Y-175912D01*
X866201D01*
Y-176365D01*
X865747D01*
Y-176819D01*
X865294D01*
Y-177272D01*
X864840D01*
Y-177726D01*
Y-178179D01*
X864386D01*
Y-178633D01*
X863933D01*
Y-179086D01*
Y-179540D01*
X863479D01*
Y-179993D01*
Y-180447D01*
Y-180901D01*
Y-181354D01*
X863026D01*
Y-181808D01*
Y-182261D01*
Y-182715D01*
Y-183168D01*
Y-183622D01*
Y-184076D01*
Y-184529D01*
Y-184983D01*
X863479D01*
Y-185436D01*
Y-185890D01*
Y-186343D01*
X863933D01*
Y-186797D01*
Y-187250D01*
X864386D01*
Y-187704D01*
Y-188158D01*
X864840D01*
Y-188611D01*
X865294D01*
Y-189065D01*
X865747D01*
Y-189518D01*
X866201D01*
Y-189972D01*
X866654D01*
Y-190425D01*
X867108D01*
Y-190879D01*
X868015D01*
Y-191332D01*
X868922D01*
Y-191786D01*
X870283D01*
Y-192240D01*
X874365D01*
Y-191786D01*
X875725D01*
Y-191332D01*
X876632D01*
Y-190879D01*
X877540D01*
Y-190425D01*
X877993D01*
Y-189972D01*
X878447D01*
Y-189518D01*
X879354D01*
Y-189065D01*
Y-188611D01*
X879807D01*
Y-188158D01*
X880261D01*
Y-187704D01*
Y-187250D01*
X880714D01*
Y-186797D01*
Y-186343D01*
X881168D01*
Y-185890D01*
Y-185436D01*
Y-184983D01*
X881622D01*
Y-184529D01*
Y-184076D01*
Y-183622D01*
Y-183168D01*
Y-182715D01*
Y-182261D01*
Y-181808D01*
Y-181354D01*
X881168D01*
Y-180901D01*
Y-180447D01*
Y-179993D01*
Y-179540D01*
X880714D01*
Y-179086D01*
Y-178633D01*
X880261D01*
Y-178179D01*
Y-177726D01*
X879807D01*
Y-177272D01*
X879354D01*
Y-176819D01*
X878900D01*
Y-176365D01*
X878447D01*
Y-175912D01*
X877993D01*
Y-175458D01*
X877086D01*
Y-175004D01*
X876632D01*
Y-174551D01*
X875272D01*
Y-174097D01*
X873457D01*
Y-173644D01*
D02*
G37*
G36*
X968251Y-203578D02*
X964169D01*
Y-204032D01*
X962355D01*
Y-204486D01*
X960994D01*
Y-204939D01*
X960087D01*
Y-205393D01*
X959633D01*
Y-205846D01*
X958726D01*
Y-206300D01*
X958272D01*
Y-206753D01*
X957819D01*
Y-207207D01*
Y-207661D01*
X957365D01*
Y-208114D01*
X956912D01*
Y-208568D01*
Y-209021D01*
X956458D01*
Y-209475D01*
Y-209928D01*
X956005D01*
Y-210382D01*
Y-210835D01*
Y-211289D01*
X955551D01*
Y-211742D01*
Y-212196D01*
Y-212650D01*
Y-213103D01*
Y-213557D01*
X955098D01*
Y-214010D01*
Y-214464D01*
Y-214917D01*
Y-215371D01*
Y-215825D01*
Y-216278D01*
Y-216732D01*
Y-217185D01*
Y-217639D01*
Y-218092D01*
Y-218546D01*
Y-218999D01*
Y-219453D01*
X955551D01*
Y-219907D01*
Y-220360D01*
Y-220814D01*
Y-221267D01*
Y-221721D01*
X956005D01*
Y-222174D01*
Y-222628D01*
Y-223081D01*
X956458D01*
Y-223535D01*
Y-223988D01*
X956912D01*
Y-224442D01*
Y-224896D01*
X957365D01*
Y-225349D01*
X957819D01*
Y-225803D01*
X958272D01*
Y-226256D01*
X958726D01*
Y-226710D01*
X959180D01*
Y-227163D01*
X959633D01*
Y-227617D01*
X960540D01*
Y-228071D01*
X961447D01*
Y-228524D01*
X962355D01*
Y-228978D01*
X964622D01*
Y-229431D01*
X967797D01*
Y-228978D01*
X970065D01*
Y-228524D01*
X971426D01*
Y-228071D01*
X972333D01*
Y-227617D01*
X972786D01*
Y-227163D01*
X973693D01*
Y-226710D01*
X974147D01*
Y-226256D01*
X974601D01*
Y-225803D01*
X975054D01*
Y-225349D01*
Y-224896D01*
X975508D01*
Y-224442D01*
X975961D01*
Y-223988D01*
Y-223535D01*
X976415D01*
Y-223081D01*
Y-222628D01*
Y-222174D01*
X976868D01*
Y-221721D01*
Y-221267D01*
Y-220814D01*
Y-220360D01*
X977322D01*
Y-219907D01*
Y-219453D01*
Y-218999D01*
Y-218546D01*
Y-218092D01*
Y-217639D01*
Y-217185D01*
Y-216732D01*
Y-216278D01*
Y-215825D01*
Y-215371D01*
Y-214917D01*
Y-214464D01*
Y-214010D01*
Y-213557D01*
Y-213103D01*
Y-212650D01*
Y-212196D01*
X976868D01*
Y-211742D01*
Y-211289D01*
Y-210835D01*
Y-210382D01*
X976415D01*
Y-209928D01*
Y-209475D01*
X975961D01*
Y-209021D01*
Y-208568D01*
X975508D01*
Y-208114D01*
Y-207661D01*
X975054D01*
Y-207207D01*
X974601D01*
Y-206753D01*
X974147D01*
Y-206300D01*
X973693D01*
Y-205846D01*
X973240D01*
Y-205393D01*
X972333D01*
Y-204939D01*
X971426D01*
Y-204486D01*
X970518D01*
Y-204032D01*
X968251D01*
Y-203578D01*
D02*
G37*
G36*
X1042180D02*
X1037645D01*
Y-204032D01*
X1035831D01*
Y-204486D01*
X1034470D01*
Y-204939D01*
X1033563D01*
Y-205393D01*
X1033109D01*
Y-205846D01*
X1032656D01*
Y-206300D01*
X1032202D01*
Y-206753D01*
X1031749D01*
Y-207207D01*
X1031295D01*
Y-207661D01*
X1030841D01*
Y-208114D01*
X1030388D01*
Y-208568D01*
Y-209021D01*
X1029934D01*
Y-209475D01*
Y-209928D01*
X1029481D01*
Y-210382D01*
Y-210835D01*
Y-211289D01*
X1029027D01*
Y-211742D01*
Y-212196D01*
Y-212650D01*
Y-213103D01*
Y-213557D01*
Y-214010D01*
Y-214464D01*
X1028574D01*
Y-214917D01*
Y-215371D01*
Y-215825D01*
Y-216278D01*
Y-216732D01*
Y-217185D01*
Y-217639D01*
Y-218092D01*
X1029027D01*
Y-218546D01*
Y-218999D01*
Y-219453D01*
Y-219907D01*
Y-220360D01*
Y-220814D01*
Y-221267D01*
X1029481D01*
Y-221721D01*
Y-222174D01*
Y-222628D01*
X1029934D01*
Y-223081D01*
Y-223535D01*
Y-223988D01*
X1030388D01*
Y-224442D01*
X1030841D01*
Y-224896D01*
Y-225349D01*
X1031295D01*
Y-225803D01*
X1031749D01*
Y-226256D01*
X1032202D01*
Y-226710D01*
X1032656D01*
Y-227163D01*
X1033109D01*
Y-227617D01*
X1034016D01*
Y-228071D01*
X1034923D01*
Y-228524D01*
X1036284D01*
Y-228978D01*
X1038552D01*
Y-229431D01*
X1041273D01*
Y-228978D01*
X1043541D01*
Y-228524D01*
X1044902D01*
Y-228071D01*
X1045809D01*
Y-227617D01*
X1046716D01*
Y-227163D01*
X1047169D01*
Y-226710D01*
X1047623D01*
Y-226256D01*
X1048077D01*
Y-225803D01*
X1048530D01*
Y-225349D01*
X1048984D01*
Y-224896D01*
Y-224442D01*
X1049437D01*
Y-223988D01*
X1049891D01*
Y-223535D01*
Y-223081D01*
Y-222628D01*
X1050344D01*
Y-222174D01*
Y-221721D01*
Y-221267D01*
X1050798D01*
Y-220814D01*
Y-220360D01*
Y-219907D01*
Y-219453D01*
Y-218999D01*
X1051252D01*
Y-218546D01*
Y-218092D01*
Y-217639D01*
Y-217185D01*
Y-216732D01*
Y-216278D01*
Y-215825D01*
Y-215371D01*
Y-214917D01*
Y-214464D01*
Y-214010D01*
X1050798D01*
Y-213557D01*
Y-213103D01*
Y-212650D01*
Y-212196D01*
Y-211742D01*
Y-211289D01*
X1050344D01*
Y-210835D01*
Y-210382D01*
Y-209928D01*
X1049891D01*
Y-209475D01*
Y-209021D01*
X1049437D01*
Y-208568D01*
Y-208114D01*
X1048984D01*
Y-207661D01*
X1048530D01*
Y-207207D01*
X1048077D01*
Y-206753D01*
X1047623D01*
Y-206300D01*
X1047169D01*
Y-205846D01*
X1046716D01*
Y-205393D01*
X1045809D01*
Y-204939D01*
X1045355D01*
Y-204486D01*
X1043995D01*
Y-204032D01*
X1042180D01*
Y-203578D01*
D02*
G37*
%LPD*%
D11*
X538980Y168018D02*
Y163020D01*
X536481D01*
X535648Y163853D01*
Y164686D01*
X536481Y165519D01*
X538980D01*
X536481D01*
X535648Y166352D01*
Y167185D01*
X536481Y168018D01*
X538980D01*
X533982D02*
X530649D01*
X532315D01*
Y163020D01*
X528983D02*
Y168018D01*
X525651Y163020D01*
Y168018D01*
X523985Y163020D02*
X522319D01*
X523152D01*
Y168018D01*
X523985Y167185D01*
X348730Y1181270D02*
Y1185502D01*
X346614Y1187618D01*
X344498Y1185502D01*
Y1181270D01*
Y1184444D01*
X348730D01*
X342382Y1181270D02*
X340266D01*
X341324D01*
Y1187618D01*
X342382Y1186560D01*
X345730Y453270D02*
Y456602D01*
X344064Y458268D01*
X342398Y456602D01*
Y453270D01*
Y455769D01*
X345730D01*
X337399Y453270D02*
X340732D01*
X337399Y456602D01*
Y457435D01*
X338232Y458268D01*
X339899D01*
X340732Y457435D01*
X644148Y786435D02*
X644981Y787268D01*
X646647D01*
X647480Y786435D01*
Y785602D01*
X646647Y784769D01*
X644981D01*
X644148Y783936D01*
Y783103D01*
X644981Y782270D01*
X646647D01*
X647480Y783103D01*
X642482Y787268D02*
X639149D01*
X640816D01*
Y782270D01*
X637483Y787268D02*
Y782270D01*
X634984D01*
X634151Y783103D01*
Y786435D01*
X634984Y787268D01*
X637483D01*
X632485Y782270D02*
X630819D01*
X631652D01*
Y787268D01*
X632485Y786435D01*
X43898Y196185D02*
X44731Y197018D01*
X46397D01*
X47230Y196185D01*
Y195352D01*
X46397Y194519D01*
X44731D01*
X43898Y193686D01*
Y192853D01*
X44731Y192020D01*
X46397D01*
X47230Y192853D01*
X42232Y197018D02*
X38899D01*
X40566D01*
Y192020D01*
X37233Y197018D02*
Y192020D01*
X34734D01*
X33901Y192853D01*
Y196185D01*
X34734Y197018D01*
X37233D01*
X29736Y192020D02*
Y197018D01*
X32235Y194519D01*
X28903D01*
X46148Y785185D02*
X46981Y786018D01*
X48647D01*
X49480Y785185D01*
Y784352D01*
X48647Y783519D01*
X46981D01*
X46148Y782686D01*
Y781853D01*
X46981Y781020D01*
X48647D01*
X49480Y781853D01*
X44482Y786018D02*
X41149D01*
X42815D01*
Y781020D01*
X39483Y786018D02*
Y781020D01*
X36984D01*
X36151Y781853D01*
Y785185D01*
X36984Y786018D01*
X39483D01*
X31153Y781020D02*
X34485D01*
X31153Y784352D01*
Y785185D01*
X31986Y786018D01*
X33652D01*
X34485Y785185D01*
X645148Y195435D02*
X645981Y196268D01*
X647647D01*
X648480Y195435D01*
Y194602D01*
X647647Y193769D01*
X645981D01*
X645148Y192936D01*
Y192103D01*
X645981Y191270D01*
X647647D01*
X648480Y192103D01*
X643482Y196268D02*
X640149D01*
X641815D01*
Y191270D01*
X638483Y196268D02*
Y191270D01*
X635984D01*
X635151Y192103D01*
Y195435D01*
X635984Y196268D01*
X638483D01*
X633485Y195435D02*
X632652Y196268D01*
X630986D01*
X630153Y195435D01*
Y194602D01*
X630986Y193769D01*
X631819D01*
X630986D01*
X630153Y192936D01*
Y192103D01*
X630986Y191270D01*
X632652D01*
X633485Y192103D01*
X159480Y165268D02*
Y160270D01*
X156981D01*
X156148Y161103D01*
Y161936D01*
X156981Y162769D01*
X159480D01*
X156981D01*
X156148Y163602D01*
Y164435D01*
X156981Y165268D01*
X159480D01*
X154482D02*
X151149D01*
X152816D01*
Y160270D01*
X149483D02*
Y165268D01*
X146151Y160270D01*
Y165268D01*
X141153Y160270D02*
X144485D01*
X141153Y163602D01*
Y164435D01*
X141986Y165268D01*
X143652D01*
X144485Y164435D01*
X2111174Y523107D02*
Y528106D01*
X2113673D01*
X2114506Y527272D01*
Y525606D01*
X2113673Y524773D01*
X2111174D01*
X2112840D02*
X2114506Y523107D01*
X2118672D02*
X2117005D01*
X2116172Y523940D01*
Y525606D01*
X2117005Y526439D01*
X2118672D01*
X2119505Y525606D01*
Y524773D01*
X2116172D01*
X2122004Y523107D02*
Y527272D01*
Y525606D01*
X2121171D01*
X2122837D01*
X2122004D01*
Y527272D01*
X2122837Y528106D01*
X2130334D02*
Y523107D01*
X2132834D01*
X2133667Y523940D01*
Y527272D01*
X2132834Y528106D01*
X2130334D01*
X2137832Y523107D02*
X2136166D01*
X2135333Y523940D01*
Y525606D01*
X2136166Y526439D01*
X2137832D01*
X2138665Y525606D01*
Y524773D01*
X2135333D01*
X2140331Y523107D02*
X2142830D01*
X2143663Y523940D01*
X2142830Y524773D01*
X2141164D01*
X2140331Y525606D01*
X2141164Y526439D01*
X2143663D01*
X2150328Y528106D02*
Y523107D01*
X2152827D01*
X2153660Y523940D01*
Y524773D01*
X2152827Y525606D01*
X2150328D01*
X2152827D01*
X2153660Y526439D01*
Y527272D01*
X2152827Y528106D01*
X2150328D01*
X2156159Y523107D02*
X2157825D01*
X2158658Y523940D01*
Y525606D01*
X2157825Y526439D01*
X2156159D01*
X2155326Y525606D01*
Y523940D01*
X2156159Y523107D01*
X2161158Y527272D02*
Y526439D01*
X2160325D01*
X2161991D01*
X2161158D01*
Y523940D01*
X2161991Y523107D01*
X2165323Y527272D02*
Y526439D01*
X2164490D01*
X2166156D01*
X2165323D01*
Y523940D01*
X2166156Y523107D01*
X2169488D02*
X2171154D01*
X2171987Y523940D01*
Y525606D01*
X2171154Y526439D01*
X2169488D01*
X2168655Y525606D01*
Y523940D01*
X2169488Y523107D01*
X2173654D02*
Y526439D01*
X2174487D01*
X2175320Y525606D01*
Y523107D01*
Y525606D01*
X2176153Y526439D01*
X2176986Y525606D01*
Y523107D01*
X2227580Y1486408D02*
Y1524508D01*
X2057400Y1486408D02*
Y1524508D01*
X1470660Y1486408D02*
Y1524508D01*
X1562100Y1486408D02*
Y1524508D01*
Y1681988D01*
X1470660Y1524508D02*
Y1740408D01*
Y1524508D02*
X2344420D01*
X1470660Y1486408D02*
X2344420D01*
X1582360Y-165262D02*
Y-128686D01*
X1201360D02*
X1582360D01*
X772160D02*
X1201360D01*
X1582360Y-317662D02*
Y-165262D01*
X2115760Y-317662D02*
Y-187868D01*
X1201360Y-317662D02*
Y-128686D01*
X2344360Y-317662D02*
Y-128686D01*
X1582360D02*
X2344360D01*
X1201360Y-187106D02*
X2344360D01*
X1201360Y-250352D02*
X2344360D01*
X1201360Y-317662D02*
X2344360D01*
X772160D02*
Y-128686D01*
Y-317662D02*
X1201360D01*
X2227580Y1524508D02*
Y1681988D01*
X2057400Y1524508D02*
Y1681988D01*
X1470660D02*
X2344360D01*
X1470660Y1600708D02*
X2344360D01*
X1470660Y1638808D02*
X2344420D01*
X1470660Y1562608D02*
X2344360D01*
X-398780Y-367792D02*
X2395220D01*
X2344360Y171288D02*
X2395160D01*
X2344360Y711038D02*
X2395160D01*
X2344360Y1250788D02*
X2395160D01*
X2344360Y-317662D02*
Y1739738D01*
X2395220Y-367792D02*
Y1791208D01*
X-398780D02*
X2395220D01*
X1696660Y1739738D02*
Y1790538D01*
X998160Y1739738D02*
Y1790538D01*
X299660Y1739738D02*
Y1790538D01*
X-348040Y1739738D02*
X2344360D01*
X1696660Y-368462D02*
Y-317662D01*
X998160Y-368462D02*
Y-317662D01*
X299660Y-368462D02*
Y-317662D01*
X-398840Y171288D02*
X-348040D01*
X-398840Y711038D02*
X-348040D01*
X-398840Y1250788D02*
X-348040D01*
X-398780Y-367792D02*
Y1791208D01*
X-348040Y-317662D02*
Y1739738D01*
Y-317662D02*
X2344360D01*
X1588202Y-207172D02*
Y-194476D01*
X1594550D01*
X1596666Y-196592D01*
Y-200824D01*
X1594550Y-202940D01*
X1588202D01*
X1609362Y-196592D02*
X1607246Y-194476D01*
X1603014D01*
X1600898Y-196592D01*
Y-205056D01*
X1603014Y-207172D01*
X1607246D01*
X1609362Y-205056D01*
X1613594Y-194476D02*
Y-207172D01*
X1619942D01*
X1622058Y-205056D01*
Y-202940D01*
X1619942Y-200824D01*
X1613594D01*
X1619942D01*
X1622058Y-198708D01*
Y-196592D01*
X1619942Y-194476D01*
X1613594D01*
X1638985Y-207172D02*
Y-194476D01*
X1647449Y-207172D01*
Y-194476D01*
X1651681Y-207172D02*
Y-198708D01*
X1655913Y-194476D01*
X1660145Y-198708D01*
Y-207172D01*
Y-200824D01*
X1651681D01*
X1664377Y-207172D02*
Y-194476D01*
X1668609Y-198708D01*
X1672841Y-194476D01*
Y-207172D01*
X1685537Y-194476D02*
X1677073D01*
Y-207172D01*
X1685537D01*
X1677073Y-200824D02*
X1681305D01*
X1689769Y-198708D02*
X1691885D01*
Y-200824D01*
X1689769D01*
Y-198708D01*
Y-205056D02*
X1691885D01*
Y-207172D01*
X1689769D01*
Y-205056D01*
X2128542Y-262632D02*
X2126426Y-260516D01*
X2122194D01*
X2120078Y-262632D01*
Y-264748D01*
X2122194Y-266864D01*
X2126426D01*
X2128542Y-268980D01*
Y-271096D01*
X2126426Y-273212D01*
X2122194D01*
X2120078Y-271096D01*
X2141238Y-262632D02*
X2139122Y-260516D01*
X2134890D01*
X2132774Y-262632D01*
Y-271096D01*
X2134890Y-273212D01*
X2139122D01*
X2141238Y-271096D01*
X2145470Y-273212D02*
Y-264748D01*
X2149702Y-260516D01*
X2153934Y-264748D01*
Y-273212D01*
Y-266864D01*
X2145470D01*
X2158166Y-260516D02*
Y-273212D01*
X2166630D01*
X2179326Y-260516D02*
X2170862D01*
Y-273212D01*
X2179326D01*
X2170862Y-266864D02*
X2175094D01*
X2183557Y-264748D02*
X2185673D01*
Y-266864D01*
X2183557D01*
Y-264748D01*
Y-271096D02*
X2185673D01*
Y-273212D01*
X2183557D01*
Y-271096D01*
X1595964Y-258576D02*
X1587500D01*
Y-264924D01*
X1591732D01*
X1587500D01*
Y-271272D01*
X1600196Y-258576D02*
X1604428D01*
X1602312D01*
Y-271272D01*
X1600196D01*
X1604428D01*
X1610776Y-258576D02*
Y-271272D01*
X1619240D01*
X1631936Y-258576D02*
X1623472D01*
Y-271272D01*
X1631936D01*
X1623472Y-264924D02*
X1627704D01*
X1648864Y-271272D02*
Y-258576D01*
X1657327Y-271272D01*
Y-258576D01*
X1661559Y-271272D02*
Y-262808D01*
X1665791Y-258576D01*
X1670023Y-262808D01*
Y-271272D01*
Y-264924D01*
X1661559D01*
X1674255Y-271272D02*
Y-258576D01*
X1678487Y-262808D01*
X1682719Y-258576D01*
Y-271272D01*
X1695415Y-258576D02*
X1686951D01*
Y-271272D01*
X1695415D01*
X1686951Y-264924D02*
X1691183D01*
X1699647Y-262808D02*
X1701763D01*
Y-264924D01*
X1699647D01*
Y-262808D01*
Y-269156D02*
X1701763D01*
Y-271272D01*
X1699647D01*
Y-269156D01*
X1589472Y-152816D02*
Y-140120D01*
X1595820D01*
X1597936Y-142236D01*
Y-146468D01*
X1595820Y-148584D01*
X1589472D01*
X1602168Y-152816D02*
Y-140120D01*
X1608516D01*
X1610632Y-142236D01*
Y-146468D01*
X1608516Y-148584D01*
X1602168D01*
X1606400D02*
X1610632Y-152816D01*
X1621212Y-140120D02*
X1616980D01*
X1614864Y-142236D01*
Y-150700D01*
X1616980Y-152816D01*
X1621212D01*
X1623328Y-150700D01*
Y-142236D01*
X1621212Y-140120D01*
X1636024D02*
X1631792D01*
X1633908D01*
Y-150700D01*
X1631792Y-152816D01*
X1629676D01*
X1627560Y-150700D01*
X1648719Y-140120D02*
X1640255D01*
Y-152816D01*
X1648719D01*
X1640255Y-146468D02*
X1644487D01*
X1661415Y-142236D02*
X1659299Y-140120D01*
X1655067D01*
X1652951Y-142236D01*
Y-150700D01*
X1655067Y-152816D01*
X1659299D01*
X1661415Y-150700D01*
X1665647Y-140120D02*
X1674111D01*
X1669879D01*
Y-152816D01*
X1678343Y-144352D02*
X1680459D01*
Y-146468D01*
X1678343D01*
Y-144352D01*
Y-150700D02*
X1680459D01*
Y-152816D01*
X1678343D01*
Y-150700D01*
X1212872Y-140374D02*
X1204408D01*
Y-153070D01*
X1212872D01*
X1204408Y-146722D02*
X1208640D01*
X1217104Y-153070D02*
Y-140374D01*
X1225568Y-153070D01*
Y-140374D01*
X1238264Y-142490D02*
X1236148Y-140374D01*
X1231916D01*
X1229800Y-142490D01*
Y-150954D01*
X1231916Y-153070D01*
X1236148D01*
X1238264Y-150954D01*
Y-146722D01*
X1234032D01*
X1242496Y-140374D02*
X1246728D01*
X1244612D01*
Y-153070D01*
X1242496D01*
X1246728D01*
X1253076D02*
Y-140374D01*
X1261540Y-153070D01*
Y-140374D01*
X1274235D02*
X1265771D01*
Y-153070D01*
X1274235D01*
X1265771Y-146722D02*
X1270003D01*
X1286931Y-140374D02*
X1278467D01*
Y-153070D01*
X1286931D01*
X1278467Y-146722D02*
X1282699D01*
X1291163Y-153070D02*
Y-140374D01*
X1297511D01*
X1299627Y-142490D01*
Y-146722D01*
X1297511Y-148838D01*
X1291163D01*
X1295395D02*
X1299627Y-153070D01*
X1303859Y-144606D02*
X1305975D01*
Y-146722D01*
X1303859D01*
Y-144606D01*
Y-150954D02*
X1305975D01*
Y-153070D01*
X1303859D01*
Y-150954D01*
X1206500Y-258576D02*
Y-271272D01*
X1212848D01*
X1214964Y-269156D01*
Y-260692D01*
X1212848Y-258576D01*
X1206500D01*
X1219196D02*
Y-271272D01*
X1223428Y-267040D01*
X1227660Y-271272D01*
Y-258576D01*
X1240356Y-260692D02*
X1238240Y-258576D01*
X1234008D01*
X1231892Y-260692D01*
Y-269156D01*
X1234008Y-271272D01*
X1238240D01*
X1240356Y-269156D01*
Y-264924D01*
X1236124D01*
X1257283Y-271272D02*
Y-258576D01*
X1265748Y-271272D01*
Y-258576D01*
X1276327D02*
X1272095D01*
X1269979Y-260692D01*
Y-269156D01*
X1272095Y-271272D01*
X1276327D01*
X1278443Y-269156D01*
Y-260692D01*
X1276327Y-258576D01*
X1282675Y-262808D02*
X1284791D01*
Y-264924D01*
X1282675D01*
Y-262808D01*
Y-269156D02*
X1284791D01*
Y-271272D01*
X1282675D01*
Y-269156D01*
X2121348Y-210474D02*
Y-197778D01*
X2127696D01*
X2129812Y-199894D01*
Y-204126D01*
X2127696Y-206242D01*
X2121348D01*
X2125580D02*
X2129812Y-210474D01*
X2142508Y-197778D02*
X2134044D01*
Y-210474D01*
X2142508D01*
X2134044Y-204126D02*
X2138276D01*
X2146740Y-197778D02*
Y-206242D01*
X2150972Y-210474D01*
X2155204Y-206242D01*
Y-197778D01*
X2159436Y-202010D02*
X2161552D01*
Y-204126D01*
X2159436D01*
Y-202010D01*
Y-208358D02*
X2161552D01*
Y-210474D01*
X2159436D01*
Y-208358D01*
X1205170Y-195492D02*
Y-208188D01*
X1211518D01*
X1213634Y-206072D01*
Y-197608D01*
X1211518Y-195492D01*
X1205170D01*
X1217866Y-208188D02*
Y-199724D01*
X1222098Y-195492D01*
X1226330Y-199724D01*
Y-208188D01*
Y-201840D01*
X1217866D01*
X1230562Y-195492D02*
X1239026D01*
X1234794D01*
Y-208188D01*
X1251722Y-195492D02*
X1243258D01*
Y-208188D01*
X1251722D01*
X1243258Y-201840D02*
X1247490D01*
X1255954Y-199724D02*
X1258070D01*
Y-201840D01*
X1255954D01*
Y-199724D01*
Y-206072D02*
X1258070D01*
Y-208188D01*
X1255954D01*
Y-206072D01*
D14*
X2057834Y666617D02*
X2253414D01*
X2017194Y-103632D02*
Y711200D01*
X2304214D01*
Y-103632D02*
Y711200D01*
X2017194Y-103632D02*
X2304214D01*
X1490980Y1501648D02*
Y1514344D01*
X1497328D01*
X1499444Y1512228D01*
Y1507996D01*
X1497328Y1505880D01*
X1490980D01*
X1495212D02*
X1499444Y1501648D01*
X1510024D02*
X1505792D01*
X1503676Y1503764D01*
Y1507996D01*
X1505792Y1510112D01*
X1510024D01*
X1512140Y1507996D01*
Y1505880D01*
X1503676D01*
X1516372Y1510112D02*
X1520604Y1501648D01*
X1524836Y1510112D01*
X1541763Y1514344D02*
Y1501648D01*
X1548112D01*
X1550228Y1503764D01*
Y1512228D01*
X1548112Y1514344D01*
X1541763D01*
X1600200Y1501648D02*
Y1510112D01*
X1604432Y1514344D01*
X1608664Y1510112D01*
Y1501648D01*
Y1507996D01*
X1600200D01*
X1621360Y1514344D02*
Y1501648D01*
X1615012D01*
X1612896Y1503764D01*
Y1507996D01*
X1615012Y1510112D01*
X1621360D01*
X1634056Y1514344D02*
Y1501648D01*
X1627708D01*
X1625592Y1503764D01*
Y1507996D01*
X1627708Y1510112D01*
X1634056D01*
X1638288Y1501648D02*
X1642520D01*
X1640404D01*
Y1510112D01*
X1638288D01*
X1650983Y1512228D02*
Y1510112D01*
X1648868D01*
X1653100D01*
X1650983D01*
Y1503764D01*
X1653100Y1501648D01*
X1659447D02*
X1663680D01*
X1661564D01*
Y1510112D01*
X1659447D01*
X1672143Y1501648D02*
X1676375D01*
X1678491Y1503764D01*
Y1507996D01*
X1676375Y1510112D01*
X1672143D01*
X1670027Y1507996D01*
Y1503764D01*
X1672143Y1501648D01*
X1682723D02*
Y1510112D01*
X1689071D01*
X1691187Y1507996D01*
Y1501648D01*
X1710231D02*
X1714463D01*
X1716579Y1503764D01*
Y1507996D01*
X1714463Y1510112D01*
X1710231D01*
X1708115Y1507996D01*
Y1503764D01*
X1710231Y1501648D01*
X1722927D02*
Y1512228D01*
Y1507996D01*
X1720811D01*
X1725043D01*
X1722927D01*
Y1512228D01*
X1725043Y1514344D01*
X1744087Y1501648D02*
Y1514344D01*
X1750435D01*
X1752551Y1512228D01*
Y1507996D01*
X1750435Y1505880D01*
X1744087D01*
X1748319D02*
X1752551Y1501648D01*
X1756783Y1512228D02*
X1758899Y1514344D01*
X1763131D01*
X1765247Y1512228D01*
Y1510112D01*
X1763131Y1507996D01*
X1765247Y1505880D01*
Y1503764D01*
X1763131Y1501648D01*
X1758899D01*
X1756783Y1503764D01*
Y1505880D01*
X1758899Y1507996D01*
X1756783Y1510112D01*
Y1512228D01*
X1758899Y1507996D02*
X1763131D01*
X1769478Y1512228D02*
X1771595Y1514344D01*
X1775826D01*
X1777942Y1512228D01*
Y1510112D01*
X1775826Y1507996D01*
X1777942Y1505880D01*
Y1503764D01*
X1775826Y1501648D01*
X1771595D01*
X1769478Y1503764D01*
Y1505880D01*
X1771595Y1507996D01*
X1769478Y1510112D01*
Y1512228D01*
X1771595Y1507996D02*
X1775826D01*
X2077720Y1501648D02*
X2081952D01*
X2079836D01*
Y1514344D01*
X2077720Y1512228D01*
X2088300D02*
X2090416Y1514344D01*
X2094648D01*
X2096764Y1512228D01*
Y1503764D01*
X2094648Y1501648D01*
X2090416D01*
X2088300Y1503764D01*
Y1512228D01*
X2100996Y1501648D02*
X2109460Y1510112D01*
X2113692Y1501648D02*
X2117924D01*
X2115808D01*
Y1514344D01*
X2113692Y1512228D01*
X2124272D02*
X2126388Y1514344D01*
X2130620D01*
X2132735Y1512228D01*
Y1510112D01*
X2130620Y1507996D01*
X2132735Y1505880D01*
Y1503764D01*
X2130620Y1501648D01*
X2126388D01*
X2124272Y1503764D01*
Y1505880D01*
X2126388Y1507996D01*
X2124272Y1510112D01*
Y1512228D01*
X2126388Y1507996D02*
X2130620D01*
X2136967Y1501648D02*
X2145431Y1510112D01*
X2158127Y1501648D02*
X2149663D01*
X2158127Y1510112D01*
Y1512228D01*
X2156011Y1514344D01*
X2151779D01*
X2149663Y1512228D01*
X2162359D02*
X2164475Y1514344D01*
X2168707D01*
X2170823Y1512228D01*
Y1503764D01*
X2168707Y1501648D01*
X2164475D01*
X2162359Y1503764D01*
Y1512228D01*
X2183519Y1501648D02*
X2175055D01*
X2183519Y1510112D01*
Y1512228D01*
X2181403Y1514344D01*
X2177171D01*
X2175055Y1512228D01*
X2196215Y1501648D02*
X2187751D01*
X2196215Y1510112D01*
Y1512228D01*
X2194099Y1514344D01*
X2189867D01*
X2187751Y1512228D01*
X2253824Y1514344D02*
X2245360D01*
Y1501648D01*
X2253824D01*
X2245360Y1507996D02*
X2249592D01*
X2258056Y1501648D02*
Y1514344D01*
X2262288Y1510112D01*
X2266520Y1514344D01*
Y1501648D01*
X2277100Y1514344D02*
X2272868D01*
X2270752Y1512228D01*
Y1503764D01*
X2272868Y1501648D01*
X2277100D01*
X2279216Y1503764D01*
Y1512228D01*
X2277100Y1514344D01*
X2289796D02*
X2285564D01*
X2283448Y1512228D01*
Y1503764D01*
X2285564Y1501648D01*
X2289796D01*
X2291912Y1503764D01*
Y1512228D01*
X2289796Y1514344D01*
X1272540Y-286517D02*
Y-299213D01*
X1275079Y-301752D01*
X1280157D01*
X1282697Y-299213D01*
Y-286517D01*
X1287775D02*
Y-301752D01*
X1295393D01*
X1297932Y-299213D01*
Y-296674D01*
X1295393Y-294135D01*
X1287775D01*
X1295393D01*
X1297932Y-291595D01*
Y-289056D01*
X1295393Y-286517D01*
X1287775D01*
X1303010D02*
X1313167Y-301752D01*
Y-286517D02*
X1303010Y-301752D01*
X1318245Y-286517D02*
Y-301752D01*
Y-294135D01*
X1328402D01*
Y-286517D01*
Y-301752D01*
X1343637Y-286517D02*
X1338559Y-289056D01*
X1333480Y-294135D01*
Y-299213D01*
X1336019Y-301752D01*
X1341098D01*
X1343637Y-299213D01*
Y-296674D01*
X1341098Y-294135D01*
X1333480D01*
X1348715Y-289056D02*
X1351254Y-286517D01*
X1356333D01*
X1358872Y-289056D01*
Y-299213D01*
X1356333Y-301752D01*
X1351254D01*
X1348715Y-299213D01*
Y-289056D01*
X1363950Y-294135D02*
X1374107D01*
X1379185Y-289056D02*
X1381725Y-286517D01*
X1386803D01*
X1389342Y-289056D01*
Y-299213D01*
X1386803Y-301752D01*
X1381725D01*
X1379185Y-299213D01*
Y-289056D01*
X1394421D02*
X1396960Y-286517D01*
X1402038D01*
X1404577Y-289056D01*
Y-299213D01*
X1402038Y-301752D01*
X1396960D01*
X1394421Y-299213D01*
Y-289056D01*
X1409656D02*
X1412195Y-286517D01*
X1417273D01*
X1419812Y-289056D01*
Y-299213D01*
X1417273Y-301752D01*
X1412195D01*
X1409656Y-299213D01*
Y-289056D01*
X1424891D02*
X1427430Y-286517D01*
X1432508D01*
X1435047Y-289056D01*
Y-299213D01*
X1432508Y-301752D01*
X1427430D01*
X1424891Y-299213D01*
Y-289056D01*
X1440126Y-286517D02*
X1450282D01*
Y-289056D01*
X1440126Y-299213D01*
Y-301752D01*
X1455361Y-286517D02*
X1465518D01*
Y-289056D01*
X1455361Y-299213D01*
Y-301752D01*
X1470596Y-289056D02*
X1473135Y-286517D01*
X1478214D01*
X1480753Y-289056D01*
Y-291595D01*
X1478214Y-294135D01*
X1480753Y-296674D01*
Y-299213D01*
X1478214Y-301752D01*
X1473135D01*
X1470596Y-299213D01*
Y-296674D01*
X1473135Y-294135D01*
X1470596Y-291595D01*
Y-289056D01*
X1473135Y-294135D02*
X1478214D01*
X1712802Y-213704D02*
X1709417Y-210319D01*
X1702646D01*
X1699260Y-213704D01*
Y-227246D01*
X1702646Y-230632D01*
X1709417D01*
X1712802Y-227246D01*
X1733116Y-230632D02*
X1719573D01*
X1733116Y-217090D01*
Y-213704D01*
X1729730Y-210319D01*
X1722959D01*
X1719573Y-213704D01*
X1739887Y-230632D02*
X1746658D01*
X1743272D01*
Y-210319D01*
X1739887Y-213704D01*
X1756815D02*
X1760200Y-210319D01*
X1766971D01*
X1770357Y-213704D01*
Y-227246D01*
X1766971Y-230632D01*
X1760200D01*
X1756815Y-227246D01*
Y-213704D01*
X2193840Y-229422D02*
Y-209109D01*
X2203997D01*
X2207382Y-212494D01*
Y-219265D01*
X2203997Y-222651D01*
X2193840D01*
X2200611D02*
X2207382Y-229422D01*
X2224310D02*
X2217539D01*
X2214153Y-226036D01*
Y-219265D01*
X2217539Y-215880D01*
X2224310D01*
X2227696Y-219265D01*
Y-222651D01*
X2214153D01*
X2234467Y-215880D02*
X2241238Y-229422D01*
X2248009Y-215880D01*
X2275094Y-209109D02*
Y-229422D01*
X2285250D01*
X2288636Y-226036D01*
Y-212494D01*
X2285250Y-209109D01*
X2275094D01*
X1699260Y-149359D02*
X1712802Y-169672D01*
Y-149359D02*
X1699260Y-169672D01*
X1719573D02*
Y-149359D01*
X1729730D01*
X1733116Y-152744D01*
Y-159515D01*
X1729730Y-162901D01*
X1719573D01*
X1739887Y-149359D02*
Y-169672D01*
X1753429D01*
X1760200D02*
Y-149359D01*
X1770357D01*
X1773743Y-152744D01*
Y-159515D01*
X1770357Y-162901D01*
X1760200D01*
X1766971D02*
X1773743Y-169672D01*
X1780514Y-159515D02*
X1794056D01*
X1800827Y-149359D02*
X1807598D01*
X1804213D01*
Y-169672D01*
X1800827D01*
X1807598D01*
X1827912Y-149359D02*
X1821140D01*
X1817755Y-152744D01*
Y-166286D01*
X1821140Y-169672D01*
X1827912D01*
X1831297Y-166286D01*
Y-152744D01*
X1827912Y-149359D01*
X1838068D02*
X1851611D01*
X1844839D01*
Y-169672D01*
X1858382Y-159515D02*
X1871924D01*
X1878695Y-169672D02*
X1885466D01*
X1882081D01*
Y-149359D01*
X1878695Y-152744D01*
X1332650Y-151898D02*
X1320800D01*
Y-169672D01*
X1332650D01*
X1320800Y-160785D02*
X1326725D01*
X1338574Y-169672D02*
Y-151898D01*
X1344499Y-157823D01*
X1350424Y-151898D01*
Y-169672D01*
X1365236Y-151898D02*
X1359311D01*
X1356349Y-154860D01*
Y-166710D01*
X1359311Y-169672D01*
X1365236D01*
X1368198Y-166710D01*
Y-154860D01*
X1365236Y-151898D01*
X1383010D02*
X1377085D01*
X1374123Y-154860D01*
Y-166710D01*
X1377085Y-169672D01*
X1383010D01*
X1385972Y-166710D01*
Y-154860D01*
X1383010Y-151898D01*
X1277620Y-230632D02*
X1283545D01*
X1280582D01*
Y-212858D01*
X1277620Y-215820D01*
X1292432D02*
X1295394Y-212858D01*
X1301319D01*
X1304281Y-215820D01*
Y-227670D01*
X1301319Y-230632D01*
X1295394D01*
X1292432Y-227670D01*
Y-215820D01*
X1310206Y-230632D02*
X1322056Y-218783D01*
X1327980Y-230632D02*
X1333905D01*
X1330943D01*
Y-212858D01*
X1327980Y-215820D01*
X1342792D02*
X1345755Y-212858D01*
X1351679D01*
X1354642Y-215820D01*
Y-218783D01*
X1351679Y-221745D01*
X1354642Y-224707D01*
Y-227670D01*
X1351679Y-230632D01*
X1345755D01*
X1342792Y-227670D01*
Y-224707D01*
X1345755Y-221745D01*
X1342792Y-218783D01*
Y-215820D01*
X1345755Y-221745D02*
X1351679D01*
X1360567Y-230632D02*
X1372416Y-218783D01*
X1390190Y-230632D02*
X1378341D01*
X1390190Y-218783D01*
Y-215820D01*
X1387228Y-212858D01*
X1381303D01*
X1378341Y-215820D01*
X1396115D02*
X1399077Y-212858D01*
X1405002D01*
X1407965Y-215820D01*
Y-227670D01*
X1405002Y-230632D01*
X1399077D01*
X1396115Y-227670D01*
Y-215820D01*
X1425739Y-230632D02*
X1413889D01*
X1425739Y-218783D01*
Y-215820D01*
X1422776Y-212858D01*
X1416852D01*
X1413889Y-215820D01*
X1443513Y-230632D02*
X1431664D01*
X1443513Y-218783D01*
Y-215820D01*
X1440551Y-212858D01*
X1434626D01*
X1431664Y-215820D01*
X1620517Y-286516D02*
X1617977Y-283977D01*
X1612899D01*
X1610360Y-286516D01*
Y-296673D01*
X1612899Y-299212D01*
X1617977D01*
X1620517Y-296673D01*
X1635752Y-299212D02*
X1625595D01*
X1635752Y-289055D01*
Y-286516D01*
X1633213Y-283977D01*
X1628134D01*
X1625595Y-286516D01*
X1640830Y-299212D02*
X1645909D01*
X1643369D01*
Y-283977D01*
X1640830Y-286516D01*
X1653526D02*
X1656065Y-283977D01*
X1661144D01*
X1663683Y-286516D01*
Y-296673D01*
X1661144Y-299212D01*
X1656065D01*
X1653526Y-296673D01*
Y-286516D01*
X1668761Y-299212D02*
Y-296673D01*
X1671300D01*
Y-299212D01*
X1668761D01*
X1681457D02*
Y-283977D01*
X1689075D01*
X1691614Y-286516D01*
Y-291595D01*
X1689075Y-294134D01*
X1681457D01*
X1706849Y-289055D02*
X1699231D01*
X1696692Y-291595D01*
Y-296673D01*
X1699231Y-299212D01*
X1706849D01*
X1711927Y-283977D02*
Y-299212D01*
X1719545D01*
X1722084Y-296673D01*
Y-294134D01*
Y-291595D01*
X1719545Y-289055D01*
X1711927D01*
X1727162Y-283977D02*
Y-299212D01*
X1734780D01*
X1737319Y-296673D01*
Y-286516D01*
X1734780Y-283977D01*
X1727162D01*
X1744937Y-299212D02*
X1750015D01*
X1752554Y-296673D01*
Y-291595D01*
X1750015Y-289055D01*
X1744937D01*
X1742397Y-291595D01*
Y-296673D01*
X1744937Y-299212D01*
X1767789Y-289055D02*
X1760172D01*
X1757632Y-291595D01*
Y-296673D01*
X1760172Y-299212D01*
X1767789D01*
X924933Y-277057D02*
X923966Y-275123D01*
X922031Y-273188D01*
X920096Y-272220D01*
X916226D01*
X914292Y-273188D01*
X912357Y-275123D01*
X911389Y-277057D01*
X910422Y-279960D01*
Y-284797D01*
X911389Y-287699D01*
X912357Y-289634D01*
X914292Y-291569D01*
X916226Y-292536D01*
X920096D01*
X922031Y-291569D01*
X923966Y-289634D01*
X924933Y-287699D01*
X936445Y-272220D02*
X934510Y-273188D01*
X932576Y-275123D01*
X931608Y-277057D01*
X930641Y-279960D01*
Y-284797D01*
X931608Y-287699D01*
X932576Y-289634D01*
X934510Y-291569D01*
X936445Y-292536D01*
X940315D01*
X942250Y-291569D01*
X944185Y-289634D01*
X945152Y-287699D01*
X946120Y-284797D01*
Y-279960D01*
X945152Y-277057D01*
X944185Y-275123D01*
X942250Y-273188D01*
X940315Y-272220D01*
X936445D01*
X950860D02*
Y-292536D01*
Y-272220D02*
X964404Y-292536D01*
Y-272220D02*
Y-292536D01*
X970014Y-272220D02*
Y-292536D01*
Y-272220D02*
X982591D01*
X970014Y-281894D02*
X977754D01*
X984913Y-272220D02*
Y-292536D01*
X989169Y-272220D02*
Y-292536D01*
Y-272220D02*
X995941D01*
X998843Y-273188D01*
X1000778Y-275123D01*
X1001746Y-277057D01*
X1002713Y-279960D01*
Y-284797D01*
X1001746Y-287699D01*
X1000778Y-289634D01*
X998843Y-291569D01*
X995941Y-292536D01*
X989169D01*
X1019836Y-272220D02*
X1007260D01*
Y-292536D01*
X1019836D01*
X1007260Y-281894D02*
X1014999D01*
X1023222Y-272220D02*
Y-292536D01*
Y-272220D02*
X1036766Y-292536D01*
Y-272220D02*
Y-292536D01*
X1049149Y-272220D02*
Y-292536D01*
X1042377Y-272220D02*
X1055921D01*
X1058339D02*
Y-292536D01*
X1078074D02*
X1070335Y-272220D01*
X1062596Y-292536D01*
X1065498Y-285764D02*
X1075172D01*
X1082815Y-272220D02*
Y-292536D01*
X1094424D01*
X2253824Y1552444D02*
X2245360D01*
Y1539748D01*
X2253824D01*
X2245360Y1546096D02*
X2249592D01*
X2258056Y1539748D02*
Y1552444D01*
X2262288Y1548212D01*
X2266520Y1552444D01*
Y1539748D01*
X2277100Y1552444D02*
X2272868D01*
X2270752Y1550328D01*
Y1541864D01*
X2272868Y1539748D01*
X2277100D01*
X2279216Y1541864D01*
Y1550328D01*
X2277100Y1552444D01*
X2289796D02*
X2285564D01*
X2283448Y1550328D01*
Y1541864D01*
X2285564Y1539748D01*
X2289796D01*
X2291912Y1541864D01*
Y1550328D01*
X2289796Y1552444D01*
X2077720D02*
X2086184D01*
Y1550328D01*
X2077720Y1541864D01*
Y1539748D01*
X2090416D02*
X2098880Y1548212D01*
X2103112Y1539748D02*
X2107344D01*
X2105228D01*
Y1552444D01*
X2103112Y1550328D01*
X2113692D02*
X2115808Y1552444D01*
X2120040D01*
X2122156Y1550328D01*
Y1548212D01*
X2120040Y1546096D01*
X2117924D01*
X2120040D01*
X2122156Y1543980D01*
Y1541864D01*
X2120040Y1539748D01*
X2115808D01*
X2113692Y1541864D01*
X2126388Y1539748D02*
X2134852Y1548212D01*
X2147547Y1539748D02*
X2139084D01*
X2147547Y1548212D01*
Y1550328D01*
X2145431Y1552444D01*
X2141199D01*
X2139084Y1550328D01*
X2151779D02*
X2153895Y1552444D01*
X2158127D01*
X2160243Y1550328D01*
Y1541864D01*
X2158127Y1539748D01*
X2153895D01*
X2151779Y1541864D01*
Y1550328D01*
X2172939Y1539748D02*
X2164475D01*
X2172939Y1548212D01*
Y1550328D01*
X2170823Y1552444D01*
X2166591D01*
X2164475Y1550328D01*
X2185635Y1539748D02*
X2177171D01*
X2185635Y1548212D01*
Y1550328D01*
X2183519Y1552444D01*
X2179287D01*
X2177171Y1550328D01*
X1600200Y1552444D02*
X1604432D01*
X1602316D01*
Y1539748D01*
X1600200D01*
X1604432D01*
X1610780D02*
Y1548212D01*
X1617128D01*
X1619244Y1546096D01*
Y1539748D01*
X1623476D02*
X1627708D01*
X1625592D01*
Y1548212D01*
X1623476D01*
X1636172Y1550328D02*
Y1548212D01*
X1634056D01*
X1638288D01*
X1636172D01*
Y1541864D01*
X1638288Y1539748D01*
X1644636D02*
X1648868D01*
X1646752D01*
Y1548212D01*
X1644636D01*
X1657332D02*
X1661564D01*
X1663680Y1546096D01*
Y1539748D01*
X1657332D01*
X1655215Y1541864D01*
X1657332Y1543980D01*
X1663680D01*
X1667911Y1539748D02*
X1672143D01*
X1670027D01*
Y1552444D01*
X1667911D01*
X1691187Y1539748D02*
Y1552444D01*
X1697535D01*
X1699651Y1550328D01*
Y1546096D01*
X1697535Y1543980D01*
X1691187D01*
X1703883Y1548212D02*
Y1539748D01*
Y1543980D01*
X1705999Y1546096D01*
X1708115Y1548212D01*
X1710231D01*
X1718695Y1539748D02*
X1722927D01*
X1725043Y1541864D01*
Y1546096D01*
X1722927Y1548212D01*
X1718695D01*
X1716579Y1546096D01*
Y1541864D01*
X1718695Y1539748D01*
X1737739Y1552444D02*
Y1539748D01*
X1731391D01*
X1729275Y1541864D01*
Y1546096D01*
X1731391Y1548212D01*
X1737739D01*
X1741971D02*
Y1541864D01*
X1744087Y1539748D01*
X1750435D01*
Y1548212D01*
X1763131D02*
X1756783D01*
X1754667Y1546096D01*
Y1541864D01*
X1756783Y1539748D01*
X1763131D01*
X1769478Y1550328D02*
Y1548212D01*
X1767363D01*
X1771595D01*
X1769478D01*
Y1541864D01*
X1771595Y1539748D01*
X1777942D02*
X1782174D01*
X1780058D01*
Y1548212D01*
X1777942D01*
X1790638Y1539748D02*
X1794870D01*
X1796986Y1541864D01*
Y1546096D01*
X1794870Y1548212D01*
X1790638D01*
X1788522Y1546096D01*
Y1541864D01*
X1790638Y1539748D01*
X1801218D02*
Y1548212D01*
X1807566D01*
X1809682Y1546096D01*
Y1539748D01*
X1490980D02*
Y1552444D01*
X1497328D01*
X1499444Y1550328D01*
Y1546096D01*
X1497328Y1543980D01*
X1490980D01*
X1495212D02*
X1499444Y1539748D01*
X1510024D02*
X1505792D01*
X1503676Y1541864D01*
Y1546096D01*
X1505792Y1548212D01*
X1510024D01*
X1512140Y1546096D01*
Y1543980D01*
X1503676D01*
X1516372Y1548212D02*
X1520604Y1539748D01*
X1524836Y1548212D01*
X1550228Y1550328D02*
X1548112Y1552444D01*
X1543880D01*
X1541763Y1550328D01*
Y1541864D01*
X1543880Y1539748D01*
X1548112D01*
X1550228Y1541864D01*
X1490980Y1577848D02*
Y1590544D01*
X1497328D01*
X1499444Y1588428D01*
Y1584196D01*
X1497328Y1582080D01*
X1490980D01*
X1495212D02*
X1499444Y1577848D01*
X1510024D02*
X1505792D01*
X1503676Y1579964D01*
Y1584196D01*
X1505792Y1586312D01*
X1510024D01*
X1512140Y1584196D01*
Y1582080D01*
X1503676D01*
X1516372Y1586312D02*
X1520604Y1577848D01*
X1524836Y1586312D01*
X1541763Y1590544D02*
Y1577848D01*
X1548112D01*
X1550228Y1579964D01*
Y1582080D01*
X1548112Y1584196D01*
X1541763D01*
X1548112D01*
X1550228Y1586312D01*
Y1588428D01*
X1548112Y1590544D01*
X1541763D01*
X1608664D02*
X1600200D01*
Y1577848D01*
X1608664D01*
X1600200Y1584196D02*
X1604432D01*
X1612896Y1577848D02*
Y1586312D01*
X1619244D01*
X1621360Y1584196D01*
Y1577848D01*
X1629824Y1573616D02*
X1631940D01*
X1634056Y1575732D01*
Y1586312D01*
X1627708D01*
X1625592Y1584196D01*
Y1579964D01*
X1627708Y1577848D01*
X1634056D01*
X1638288D02*
X1642520D01*
X1640404D01*
Y1586312D01*
X1638288D01*
X1648868Y1577848D02*
Y1586312D01*
X1655215D01*
X1657332Y1584196D01*
Y1577848D01*
X1667911D02*
X1663679D01*
X1661564Y1579964D01*
Y1584196D01*
X1663679Y1586312D01*
X1667911D01*
X1670027Y1584196D01*
Y1582080D01*
X1661564D01*
X1680607Y1577848D02*
X1676375D01*
X1674259Y1579964D01*
Y1584196D01*
X1676375Y1586312D01*
X1680607D01*
X1682723Y1584196D01*
Y1582080D01*
X1674259D01*
X1686955Y1586312D02*
Y1577848D01*
Y1582080D01*
X1689071Y1584196D01*
X1691187Y1586312D01*
X1693303D01*
X1699651Y1577848D02*
X1703883D01*
X1701767D01*
Y1586312D01*
X1699651D01*
X1710231Y1577848D02*
Y1586312D01*
X1716579D01*
X1718695Y1584196D01*
Y1577848D01*
X1727159Y1573616D02*
X1729275D01*
X1731391Y1575732D01*
Y1586312D01*
X1725043D01*
X1722927Y1584196D01*
Y1579964D01*
X1725043Y1577848D01*
X1731391D01*
X1756783Y1588428D02*
X1754667Y1590544D01*
X1750435D01*
X1748319Y1588428D01*
Y1586312D01*
X1750435Y1584196D01*
X1754667D01*
X1756783Y1582080D01*
Y1579964D01*
X1754667Y1577848D01*
X1750435D01*
X1748319Y1579964D01*
X1763130Y1586312D02*
X1767363D01*
X1769478Y1584196D01*
Y1577848D01*
X1763130D01*
X1761015Y1579964D01*
X1763130Y1582080D01*
X1769478D01*
X1773710Y1577848D02*
Y1586312D01*
X1775826D01*
X1777942Y1584196D01*
Y1577848D01*
Y1584196D01*
X1780058Y1586312D01*
X1782174Y1584196D01*
Y1577848D01*
X1786406Y1573616D02*
Y1586312D01*
X1792754D01*
X1794870Y1584196D01*
Y1579964D01*
X1792754Y1577848D01*
X1786406D01*
X1799102D02*
X1803334D01*
X1801218D01*
Y1590544D01*
X1799102D01*
X1816030Y1577848D02*
X1811798D01*
X1809682Y1579964D01*
Y1584196D01*
X1811798Y1586312D01*
X1816030D01*
X1818146Y1584196D01*
Y1582080D01*
X1809682D01*
X2077720Y1579964D02*
X2079836Y1577848D01*
X2084068D01*
X2086184Y1579964D01*
Y1588428D01*
X2084068Y1590544D01*
X2079836D01*
X2077720Y1588428D01*
Y1586312D01*
X2079836Y1584196D01*
X2086184D01*
X2090416Y1577848D02*
X2098880Y1586312D01*
X2103112Y1577848D02*
X2107344D01*
X2105228D01*
Y1590544D01*
X2103112Y1588428D01*
X2122156Y1590544D02*
X2117924Y1588428D01*
X2113692Y1584196D01*
Y1579964D01*
X2115808Y1577848D01*
X2120040D01*
X2122156Y1579964D01*
Y1582080D01*
X2120040Y1584196D01*
X2113692D01*
X2126388Y1577848D02*
X2134852Y1586312D01*
X2147547Y1577848D02*
X2139084D01*
X2147547Y1586312D01*
Y1588428D01*
X2145431Y1590544D01*
X2141199D01*
X2139084Y1588428D01*
X2151779D02*
X2153895Y1590544D01*
X2158127D01*
X2160243Y1588428D01*
Y1579964D01*
X2158127Y1577848D01*
X2153895D01*
X2151779Y1579964D01*
Y1588428D01*
X2172939Y1577848D02*
X2164475D01*
X2172939Y1586312D01*
Y1588428D01*
X2170823Y1590544D01*
X2166591D01*
X2164475Y1588428D01*
X2177171Y1577848D02*
X2181403D01*
X2179287D01*
Y1590544D01*
X2177171Y1588428D01*
X2253824Y1590544D02*
X2245360D01*
Y1577848D01*
X2253824D01*
X2245360Y1584196D02*
X2249592D01*
X2258056Y1577848D02*
Y1590544D01*
X2262288Y1586312D01*
X2266520Y1590544D01*
Y1577848D01*
X2277100Y1590544D02*
X2272868D01*
X2270752Y1588428D01*
Y1579964D01*
X2272868Y1577848D01*
X2277100D01*
X2279216Y1579964D01*
Y1588428D01*
X2277100Y1590544D01*
X2289796D02*
X2285564D01*
X2283448Y1588428D01*
Y1579964D01*
X2285564Y1577848D01*
X2289796D01*
X2291912Y1579964D01*
Y1588428D01*
X2289796Y1590544D01*
X2253824Y1628644D02*
X2245360D01*
Y1615948D01*
X2253824D01*
X2245360Y1622296D02*
X2249592D01*
X2258056Y1615948D02*
Y1628644D01*
X2262288Y1624412D01*
X2266520Y1628644D01*
Y1615948D01*
X2277100Y1628644D02*
X2272868D01*
X2270752Y1626528D01*
Y1618064D01*
X2272868Y1615948D01*
X2277100D01*
X2279216Y1618064D01*
Y1626528D01*
X2277100Y1628644D01*
X2289796D02*
X2285564D01*
X2283448Y1626528D01*
Y1618064D01*
X2285564Y1615948D01*
X2289796D01*
X2291912Y1618064D01*
Y1626528D01*
X2289796Y1628644D01*
X2086184Y1626104D02*
X2077720D01*
Y1619756D01*
X2081952Y1621872D01*
X2084068D01*
X2086184Y1619756D01*
Y1615524D01*
X2084068Y1613408D01*
X2079836D01*
X2077720Y1615524D01*
X2090416Y1613408D02*
X2098880Y1621872D01*
X2109460Y1613408D02*
Y1626104D01*
X2103112Y1619756D01*
X2111576D01*
X2115808Y1613408D02*
X2124272Y1621872D01*
X2136967Y1613408D02*
X2128504D01*
X2136967Y1621872D01*
Y1623988D01*
X2134852Y1626104D01*
X2130620D01*
X2128504Y1623988D01*
X2141199D02*
X2143315Y1626104D01*
X2147547D01*
X2149663Y1623988D01*
Y1615524D01*
X2147547Y1613408D01*
X2143315D01*
X2141199Y1615524D01*
Y1623988D01*
X2162359Y1613408D02*
X2153895D01*
X2162359Y1621872D01*
Y1623988D01*
X2160243Y1626104D01*
X2156011D01*
X2153895Y1623988D01*
X2166591Y1613408D02*
X2170823D01*
X2168707D01*
Y1626104D01*
X2166591Y1623988D01*
X1600200Y1615948D02*
Y1628644D01*
X1606548D01*
X1608664Y1626528D01*
Y1622296D01*
X1606548Y1620180D01*
X1600200D01*
X1612896Y1624412D02*
Y1615948D01*
Y1620180D01*
X1615012Y1622296D01*
X1617128Y1624412D01*
X1619244D01*
X1627708Y1615948D02*
X1631940D01*
X1634056Y1618064D01*
Y1622296D01*
X1631940Y1624412D01*
X1627708D01*
X1625592Y1622296D01*
Y1618064D01*
X1627708Y1615948D01*
X1640404Y1626528D02*
Y1624412D01*
X1638288D01*
X1642520D01*
X1640404D01*
Y1618064D01*
X1642520Y1615948D01*
X1650983D02*
X1655215D01*
X1657332Y1618064D01*
Y1622296D01*
X1655215Y1624412D01*
X1650983D01*
X1648868Y1622296D01*
Y1618064D01*
X1650983Y1615948D01*
X1663679Y1626528D02*
Y1624412D01*
X1661564D01*
X1665795D01*
X1663679D01*
Y1618064D01*
X1665795Y1615948D01*
X1672143Y1624412D02*
Y1618064D01*
X1674259Y1615948D01*
X1680607D01*
Y1613832D01*
X1678491Y1611716D01*
X1676375D01*
X1680607Y1615948D02*
Y1624412D01*
X1684839Y1611716D02*
Y1624412D01*
X1691187D01*
X1693303Y1622296D01*
Y1618064D01*
X1691187Y1615948D01*
X1684839D01*
X1703883D02*
X1699651D01*
X1697535Y1618064D01*
Y1622296D01*
X1699651Y1624412D01*
X1703883D01*
X1705999Y1622296D01*
Y1620180D01*
X1697535D01*
X1722927Y1615948D02*
Y1628644D01*
X1729275D01*
X1731391Y1626528D01*
Y1622296D01*
X1729275Y1620180D01*
X1722927D01*
X1727159D02*
X1731391Y1615948D01*
X1741971D02*
X1737739D01*
X1735623Y1618064D01*
Y1622296D01*
X1737739Y1624412D01*
X1741971D01*
X1744087Y1622296D01*
Y1620180D01*
X1735623D01*
X1748319Y1615948D02*
X1752551D01*
X1750435D01*
Y1628644D01*
X1748319D01*
X1765246Y1615948D02*
X1761015D01*
X1758899Y1618064D01*
Y1622296D01*
X1761015Y1624412D01*
X1765246D01*
X1767363Y1622296D01*
Y1620180D01*
X1758899D01*
X1773710Y1624412D02*
X1777942D01*
X1780058Y1622296D01*
Y1615948D01*
X1773710D01*
X1771595Y1618064D01*
X1773710Y1620180D01*
X1780058D01*
X1784290Y1615948D02*
X1790638D01*
X1792754Y1618064D01*
X1790638Y1620180D01*
X1786406D01*
X1784290Y1622296D01*
X1786406Y1624412D01*
X1792754D01*
X1803334Y1615948D02*
X1799102D01*
X1796986Y1618064D01*
Y1622296D01*
X1799102Y1624412D01*
X1803334D01*
X1805450Y1622296D01*
Y1620180D01*
X1796986D01*
X1490980Y1615948D02*
Y1628644D01*
X1497328D01*
X1499444Y1626528D01*
Y1622296D01*
X1497328Y1620180D01*
X1490980D01*
X1495212D02*
X1499444Y1615948D01*
X1510024D02*
X1505792D01*
X1503676Y1618064D01*
Y1622296D01*
X1505792Y1624412D01*
X1510024D01*
X1512140Y1622296D01*
Y1620180D01*
X1503676D01*
X1516372Y1624412D02*
X1520604Y1615948D01*
X1524836Y1624412D01*
X1541763Y1615948D02*
Y1624412D01*
X1545995Y1628644D01*
X1550228Y1624412D01*
Y1615948D01*
Y1622296D01*
X1541763D01*
X2258060Y1669283D02*
Y1654048D01*
X2265677D01*
X2268217Y1656587D01*
Y1659126D01*
X2265677Y1661665D01*
X2258060D01*
X2265677D01*
X2268217Y1664205D01*
Y1666744D01*
X2265677Y1669283D01*
X2258060D01*
X2273295D02*
Y1666744D01*
X2278373Y1661665D01*
X2283452Y1666744D01*
Y1669283D01*
X2278373Y1661665D02*
Y1654048D01*
X2098040Y1669283D02*
Y1654048D01*
X2105658D01*
X2108197Y1656587D01*
Y1666744D01*
X2105658Y1669283D01*
X2098040D01*
X2113275Y1654048D02*
Y1664205D01*
X2118353Y1669283D01*
X2123432Y1664205D01*
Y1654048D01*
Y1661665D01*
X2113275D01*
X2128510Y1669283D02*
X2138667D01*
X2133589D01*
Y1654048D01*
X2153902Y1669283D02*
X2143745D01*
Y1654048D01*
X2153902D01*
X2143745Y1661665D02*
X2148824D01*
X1600200Y1669283D02*
Y1654048D01*
X1607818D01*
X1610357Y1656587D01*
Y1666744D01*
X1607818Y1669283D01*
X1600200D01*
X1625592D02*
X1615435D01*
Y1654048D01*
X1625592D01*
X1615435Y1661665D02*
X1620513D01*
X1640827Y1666744D02*
X1638288Y1669283D01*
X1633209D01*
X1630670Y1666744D01*
Y1664205D01*
X1633209Y1661665D01*
X1638288D01*
X1640827Y1659126D01*
Y1656587D01*
X1638288Y1654048D01*
X1633209D01*
X1630670Y1656587D01*
X1656062Y1666744D02*
X1653523Y1669283D01*
X1648444D01*
X1645905Y1666744D01*
Y1656587D01*
X1648444Y1654048D01*
X1653523D01*
X1656062Y1656587D01*
X1661140Y1654048D02*
Y1669283D01*
X1668758D01*
X1671297Y1666744D01*
Y1661665D01*
X1668758Y1659126D01*
X1661140D01*
X1666219D02*
X1671297Y1654048D01*
X1676375Y1669283D02*
X1681454D01*
X1678914D01*
Y1654048D01*
X1676375D01*
X1681454D01*
X1689071D02*
Y1669283D01*
X1696689D01*
X1699228Y1666744D01*
Y1661665D01*
X1696689Y1659126D01*
X1689071D01*
X1704306Y1669283D02*
X1714463D01*
X1709385D01*
Y1654048D01*
X1719541Y1669283D02*
X1724620D01*
X1722081D01*
Y1654048D01*
X1719541D01*
X1724620D01*
X1739855Y1669283D02*
X1734776D01*
X1732237Y1666744D01*
Y1656587D01*
X1734776Y1654048D01*
X1739855D01*
X1742394Y1656587D01*
Y1666744D01*
X1739855Y1669283D01*
X1747472Y1654048D02*
Y1669283D01*
X1757629Y1654048D01*
Y1669283D01*
X1490980Y1654048D02*
Y1669283D01*
X1498598D01*
X1501137Y1666744D01*
Y1661665D01*
X1498598Y1659126D01*
X1490980D01*
X1496058D02*
X1501137Y1654048D01*
X1516372Y1669283D02*
X1506215D01*
Y1654048D01*
X1516372D01*
X1506215Y1661665D02*
X1511293D01*
X1521450Y1669283D02*
Y1659126D01*
X1526528Y1654048D01*
X1531607Y1659126D01*
Y1669283D01*
X1849120Y1697228D02*
Y1717541D01*
X1859277D01*
X1862662Y1714156D01*
Y1707385D01*
X1859277Y1703999D01*
X1849120D01*
X1855891D02*
X1862662Y1697228D01*
X1882976Y1717541D02*
X1869433D01*
Y1697228D01*
X1882976D01*
X1869433Y1707385D02*
X1876205D01*
X1889747Y1717541D02*
Y1703999D01*
X1896518Y1697228D01*
X1903289Y1703999D01*
Y1717541D01*
X1910060D02*
X1916831D01*
X1913446D01*
Y1697228D01*
X1910060D01*
X1916831D01*
X1940530Y1714156D02*
X1937145Y1717541D01*
X1930374D01*
X1926988Y1714156D01*
Y1710770D01*
X1930374Y1707385D01*
X1937145D01*
X1940530Y1703999D01*
Y1700614D01*
X1937145Y1697228D01*
X1930374D01*
X1926988Y1700614D01*
X1947301Y1717541D02*
X1954073D01*
X1950687D01*
Y1697228D01*
X1947301D01*
X1954073D01*
X1974386Y1717541D02*
X1967615D01*
X1964229Y1714156D01*
Y1700614D01*
X1967615Y1697228D01*
X1974386D01*
X1977772Y1700614D01*
Y1714156D01*
X1974386Y1717541D01*
X1984543Y1697228D02*
Y1717541D01*
X1998085Y1697228D01*
Y1717541D01*
D16*
X2045134Y516249D02*
X2278814D01*
X2045134D02*
Y540379D01*
X2278814Y516249D02*
Y540379D01*
X2045134D02*
X2278814D01*
D25*
X2069264Y528314D02*
D03*
D26*
X2057834Y694045D02*
Y673729D01*
X2069443D01*
X2087147D02*
X2079407Y694045D01*
X2071668Y673729D01*
X2074570Y680501D02*
X2084244D01*
X2091887Y694045D02*
X2099626Y684370D01*
Y673729D01*
X2107366Y694045D02*
X2099626Y684370D01*
X2122554Y694045D02*
X2109978D01*
Y673729D01*
X2122554D01*
X2109978Y684370D02*
X2117717D01*
X2125940Y694045D02*
Y673729D01*
Y694045D02*
X2134647D01*
X2137549Y693077D01*
X2138516Y692110D01*
X2139484Y690175D01*
Y688240D01*
X2138516Y686305D01*
X2137549Y685338D01*
X2134647Y684370D01*
X2125940D01*
X2132712D02*
X2139484Y673729D01*
X2159993Y694045D02*
Y679533D01*
X2160960Y676631D01*
X2162895Y674696D01*
X2165797Y673729D01*
X2167732D01*
X2170634Y674696D01*
X2172569Y676631D01*
X2173537Y679533D01*
Y694045D01*
X2192691Y691142D02*
X2190757Y693077D01*
X2187854Y694045D01*
X2183985D01*
X2181082Y693077D01*
X2179147Y691142D01*
Y689208D01*
X2180115Y687273D01*
X2181082Y686305D01*
X2183017Y685338D01*
X2188822Y683403D01*
X2190757Y682436D01*
X2191724Y681468D01*
X2192691Y679533D01*
Y676631D01*
X2190757Y674696D01*
X2187854Y673729D01*
X2183985D01*
X2181082Y674696D01*
X2179147Y676631D01*
X2212717Y673729D02*
X2204977Y694045D01*
X2197238Y673729D01*
X2200140Y680501D02*
X2209814D01*
X2231968Y689208D02*
X2231001Y691142D01*
X2229066Y693077D01*
X2227131Y694045D01*
X2223262D01*
X2221327Y693077D01*
X2219392Y691142D01*
X2218424Y689208D01*
X2217457Y686305D01*
Y681468D01*
X2218424Y678566D01*
X2219392Y676631D01*
X2221327Y674696D01*
X2223262Y673729D01*
X2227131D01*
X2229066Y674696D01*
X2231001Y676631D01*
X2231968Y678566D01*
Y681468D01*
X2227131D02*
X2231968D01*
X2249188Y694045D02*
X2236612D01*
Y673729D01*
X2249188D01*
X2236612Y684370D02*
X2244351D01*
D27*
X2207200Y-300390D02*
X2211432D01*
X2209316D01*
Y-287694D01*
X2207200Y-289810D01*
X2217780Y-291926D02*
X2219896D01*
Y-294042D01*
X2217780D01*
Y-291926D01*
Y-298274D02*
X2219896D01*
Y-300390D01*
X2217780D01*
Y-298274D01*
X2228360Y-300390D02*
X2232592D01*
X2230476D01*
Y-287694D01*
X2228360Y-289810D01*
X2363410Y-102528D02*
Y-120304D01*
Y-102528D02*
X2369335D01*
X2371875Y-103374D01*
X2373568Y-105067D01*
X2374414Y-106760D01*
X2375261Y-109300D01*
Y-113532D01*
X2374414Y-116072D01*
X2373568Y-117765D01*
X2371875Y-119458D01*
X2369335Y-120304D01*
X2363410D01*
X2376107Y431720D02*
X2375261Y433413D01*
X2373568Y435106D01*
X2371875Y435952D01*
X2368489D01*
X2366796Y435106D01*
X2365103Y433413D01*
X2364256Y431720D01*
X2363410Y429180D01*
Y424948D01*
X2364256Y422408D01*
X2365103Y420715D01*
X2366796Y419022D01*
X2368489Y418176D01*
X2371875D01*
X2373568Y419022D01*
X2375261Y420715D01*
X2376107Y422408D01*
X2363410Y975702D02*
Y957926D01*
Y975702D02*
X2371028D01*
X2373568Y974856D01*
X2374414Y974009D01*
X2375261Y972316D01*
Y970623D01*
X2374414Y968930D01*
X2373568Y968084D01*
X2371028Y967237D01*
X2363410D02*
X2371028D01*
X2373568Y966391D01*
X2374414Y965544D01*
X2375261Y963851D01*
Y961312D01*
X2374414Y959619D01*
X2373568Y958773D01*
X2371028Y957926D01*
X2363410D01*
X2376954Y1497676D02*
X2370182Y1515452D01*
X2363410Y1497676D01*
X2365950Y1503601D02*
X2374414D01*
X2047520Y1774024D02*
X2039055Y1762173D01*
X2051752D01*
X2047520Y1774024D02*
Y1756248D01*
X1341991Y1774024D02*
X1351302D01*
X1346223Y1767252D01*
X1348763D01*
X1350456Y1766406D01*
X1351302Y1765559D01*
X1352149Y1763020D01*
Y1761327D01*
X1351302Y1758788D01*
X1349609Y1757095D01*
X1347070Y1756248D01*
X1344530D01*
X1341991Y1757095D01*
X1341145Y1757941D01*
X1340298Y1759634D01*
X643914Y1769792D02*
Y1770638D01*
X644761Y1772331D01*
X645608Y1773178D01*
X647300Y1774024D01*
X650686D01*
X652379Y1773178D01*
X653226Y1772331D01*
X654072Y1770638D01*
Y1768945D01*
X653226Y1767252D01*
X651533Y1764713D01*
X643068Y1756248D01*
X654919D01*
X-55600Y1770638D02*
X-53907Y1771485D01*
X-51368Y1774024D01*
Y1756248D01*
X2047520Y-334176D02*
X2039055Y-346027D01*
X2051752D01*
X2047520Y-334176D02*
Y-351952D01*
X1341991Y-334176D02*
X1351302D01*
X1346223Y-340948D01*
X1348763D01*
X1350456Y-341794D01*
X1351302Y-342641D01*
X1352149Y-345180D01*
Y-346873D01*
X1351302Y-349412D01*
X1349609Y-351105D01*
X1347070Y-351952D01*
X1344530D01*
X1341991Y-351105D01*
X1341145Y-350259D01*
X1340298Y-348566D01*
X643914Y-338408D02*
Y-337562D01*
X644761Y-335869D01*
X645608Y-335022D01*
X647300Y-334176D01*
X650686D01*
X652379Y-335022D01*
X653226Y-335869D01*
X654072Y-337562D01*
Y-339255D01*
X653226Y-340948D01*
X651533Y-343487D01*
X643068Y-351952D01*
X654919D01*
X-55600Y-337562D02*
X-53907Y-336715D01*
X-51368Y-334176D01*
Y-351952D01*
X-379790Y-102528D02*
Y-120304D01*
Y-102528D02*
X-373865D01*
X-371325Y-103374D01*
X-369632Y-105067D01*
X-368786Y-106760D01*
X-367939Y-109300D01*
Y-113532D01*
X-368786Y-116072D01*
X-369632Y-117765D01*
X-371325Y-119458D01*
X-373865Y-120304D01*
X-379790D01*
X-367093Y431720D02*
X-367939Y433413D01*
X-369632Y435106D01*
X-371325Y435952D01*
X-374711D01*
X-376404Y435106D01*
X-378097Y433413D01*
X-378943Y431720D01*
X-379790Y429180D01*
Y424948D01*
X-378943Y422408D01*
X-378097Y420715D01*
X-376404Y419022D01*
X-374711Y418176D01*
X-371325D01*
X-369632Y419022D01*
X-367939Y420715D01*
X-367093Y422408D01*
X-379790Y975702D02*
Y957926D01*
Y975702D02*
X-372172D01*
X-369632Y974856D01*
X-368786Y974009D01*
X-367939Y972316D01*
Y970623D01*
X-368786Y968930D01*
X-369632Y968084D01*
X-372172Y967237D01*
X-379790D02*
X-372172D01*
X-369632Y966391D01*
X-368786Y965544D01*
X-367939Y963851D01*
Y961312D01*
X-368786Y959619D01*
X-369632Y958773D01*
X-372172Y957926D01*
X-379790D01*
X-366246Y1497676D02*
X-373018Y1515452D01*
X-379790Y1497676D01*
X-377251Y1503601D02*
X-368786D01*
D325*
X638162Y508467D02*
X645160D01*
Y511966D01*
X643993Y513133D01*
X641661D01*
X640494Y511966D01*
Y508467D01*
Y510800D02*
X638162Y513133D01*
Y520130D02*
Y515465D01*
X642827Y520130D01*
X643993D01*
X645160Y518964D01*
Y516632D01*
X643993Y515465D01*
Y522463D02*
X645160Y523629D01*
Y525962D01*
X643993Y527128D01*
X639328D01*
X638162Y525962D01*
Y523629D01*
X639328Y522463D01*
X643993D01*
X638162Y529461D02*
Y531793D01*
Y530627D01*
X645160D01*
X643993Y529461D01*
X658750Y522426D02*
Y529424D01*
X655251D01*
X654085Y528258D01*
Y525925D01*
X655251Y524759D01*
X658750D01*
X656417D02*
X654085Y522426D01*
X647087D02*
X651752D01*
X647087Y527091D01*
Y528258D01*
X648253Y529424D01*
X650586D01*
X651752Y528258D01*
X644754D02*
X643588Y529424D01*
X641256D01*
X640089Y528258D01*
Y523592D01*
X641256Y522426D01*
X643588D01*
X644754Y523592D01*
Y528258D01*
X633092Y522426D02*
X637757D01*
X633092Y527091D01*
Y528258D01*
X634258Y529424D01*
X636590D01*
X637757Y528258D01*
X599882Y528556D02*
Y521558D01*
X603381D01*
X604547Y522724D01*
Y525057D01*
X603381Y526223D01*
X599882D01*
X602215D02*
X604547Y528556D01*
X611545D02*
X606880D01*
X611545Y523890D01*
Y522724D01*
X610379Y521558D01*
X608046D01*
X606880Y522724D01*
X613878D02*
X615044Y521558D01*
X617377D01*
X618543Y522724D01*
Y527389D01*
X617377Y528556D01*
X615044D01*
X613878Y527389D01*
Y522724D01*
X620875D02*
X622042Y521558D01*
X624374D01*
X625541Y522724D01*
Y523890D01*
X624374Y525057D01*
X623208D01*
X624374D01*
X625541Y526223D01*
Y527389D01*
X624374Y528556D01*
X622042D01*
X620875Y527389D01*
X613882Y508056D02*
X620880D01*
Y511554D01*
X619714Y512721D01*
X617381D01*
X616215Y511554D01*
Y508056D01*
Y510388D02*
X613882Y512721D01*
Y519719D02*
Y515053D01*
X618547Y519719D01*
X619714D01*
X620880Y518552D01*
Y516220D01*
X619714Y515053D01*
Y522051D02*
X620880Y523217D01*
Y525550D01*
X619714Y526716D01*
X615048D01*
X613882Y525550D01*
Y523217D01*
X615048Y522051D01*
X619714D01*
Y529049D02*
X620880Y530215D01*
Y532548D01*
X619714Y533714D01*
X615048D01*
X613882Y532548D01*
Y530215D01*
X615048Y529049D01*
X619714D01*
X245002Y74368D02*
Y76034D01*
Y75201D01*
X249167D01*
X250000Y76034D01*
Y76867D01*
X249167Y77700D01*
X250000Y72702D02*
Y71035D01*
Y71869D01*
X245002D01*
X245835Y72702D01*
X245002Y68536D02*
Y65204D01*
X245835D01*
X249167Y68536D01*
X250000D01*
X630418Y590248D02*
X632084D01*
X631251D01*
Y586083D01*
X632084Y585250D01*
X632917D01*
X633750Y586083D01*
X628752Y585250D02*
X627085D01*
X627919D01*
Y590248D01*
X628752Y589415D01*
X622087Y585250D02*
Y590248D01*
X624586Y587749D01*
X621254D01*
X46418Y1018748D02*
X49750D01*
Y1013750D01*
X46418D01*
X49750Y1016249D02*
X48084D01*
X41419Y1017915D02*
X42252Y1018748D01*
X43919D01*
X44752Y1017915D01*
Y1017082D01*
X43919Y1016249D01*
X42252D01*
X41419Y1015416D01*
Y1014583D01*
X42252Y1013750D01*
X43919D01*
X44752Y1014583D01*
X39753Y1018748D02*
X38087D01*
X38920D01*
Y1013750D01*
X39753D01*
X38087D01*
X35588D02*
Y1018748D01*
X33922Y1017082D01*
X32256Y1018748D01*
Y1013750D01*
X471750Y18748D02*
Y13750D01*
X469251D01*
X468418Y14583D01*
Y17915D01*
X469251Y18748D01*
X471750D01*
X463419Y13750D02*
X466752D01*
X463419Y17082D01*
Y17915D01*
X464253Y18748D01*
X465919D01*
X466752Y17915D01*
X461753Y14583D02*
X460920Y13750D01*
X459254D01*
X458421Y14583D01*
Y17915D01*
X459254Y18748D01*
X460920D01*
X461753Y17915D01*
Y17082D01*
X460920Y16249D01*
X458421D01*
X560500Y580500D02*
Y585498D01*
X558001D01*
X557168Y584665D01*
Y582999D01*
X558001Y582166D01*
X560500D01*
X558834D02*
X557168Y580500D01*
X552169Y584665D02*
X553002Y585498D01*
X554669D01*
X555502Y584665D01*
Y581333D01*
X554669Y580500D01*
X553002D01*
X552169Y581333D01*
Y582999D01*
X553835D01*
X550503Y585498D02*
Y580500D01*
X548004D01*
X547171Y581333D01*
Y582166D01*
X548004Y582999D01*
X550503D01*
X548004D01*
X547171Y583832D01*
Y584665D01*
X548004Y585498D01*
X550503D01*
X542173Y580500D02*
X545505D01*
X542173Y583832D01*
Y584665D01*
X543006Y585498D01*
X544672D01*
X545505Y584665D01*
X524750Y21498D02*
Y16500D01*
X522251D01*
X521418Y17333D01*
Y18166D01*
X522251Y18999D01*
X524750D01*
X522251D01*
X521418Y19832D01*
Y20665D01*
X522251Y21498D01*
X524750D01*
X519752D02*
X516419D01*
X518086D01*
Y16500D01*
X514753D02*
Y21498D01*
X511421Y16500D01*
Y21498D01*
X509755Y20665D02*
X508922Y21498D01*
X507256D01*
X506423Y20665D01*
Y19832D01*
X507256Y18999D01*
X508089D01*
X507256D01*
X506423Y18166D01*
Y17333D01*
X507256Y16500D01*
X508922D01*
X509755Y17333D01*
X327252Y46450D02*
X332250D01*
Y43951D01*
X331417Y43118D01*
X328085D01*
X327252Y43951D01*
Y46450D01*
X332250Y38119D02*
Y41452D01*
X328918Y38119D01*
X328085D01*
X327252Y38952D01*
Y40619D01*
X328085Y41452D01*
Y36453D02*
X327252Y35620D01*
Y33954D01*
X328085Y33121D01*
X328918D01*
X329751Y33954D01*
X330584Y33121D01*
X331417D01*
X332250Y33954D01*
Y35620D01*
X331417Y36453D01*
X330584D01*
X329751Y35620D01*
X328918Y36453D01*
X328085D01*
X329751Y35620D02*
Y33954D01*
D326*
X133498Y578000D02*
X129333D01*
X128500Y578833D01*
Y580499D01*
X129333Y581332D01*
X133498D01*
X132665Y582998D02*
X133498Y583831D01*
Y585498D01*
X132665Y586331D01*
X131832D01*
X130999Y585498D01*
Y584664D01*
Y585498D01*
X130166Y586331D01*
X129333D01*
X128500Y585498D01*
Y583831D01*
X129333Y582998D01*
X128500Y587997D02*
Y589663D01*
Y588830D01*
X133498D01*
X132665Y587997D01*
D327*
X517750Y727750D02*
X519050D01*
Y728400D01*
X518833Y728616D01*
X518400D01*
X518183Y728400D01*
Y727750D01*
Y728183D02*
X517750Y728616D01*
X519050Y729050D02*
Y729916D01*
Y729483D01*
X517750D01*
Y731216D02*
Y730349D01*
X518616Y731216D01*
X518833D01*
X519050Y730999D01*
Y730566D01*
X518833Y730349D01*
X141415Y543582D02*
X142248Y542749D01*
Y541083D01*
X141415Y540250D01*
X138083D01*
X137250Y541083D01*
Y542749D01*
X138083Y543582D01*
X137250Y545248D02*
Y546914D01*
Y546081D01*
X142248D01*
X141415Y545248D01*
Y549414D02*
X142248Y550247D01*
Y551913D01*
X141415Y552746D01*
X140582D01*
X139749Y551913D01*
Y551080D01*
Y551913D01*
X138916Y552746D01*
X138083D01*
X137250Y551913D01*
Y550247D01*
X138083Y549414D01*
X142248Y557744D02*
Y554412D01*
X139749D01*
X140582Y556078D01*
Y556911D01*
X139749Y557744D01*
X138083D01*
X137250Y556911D01*
Y555245D01*
X138083Y554412D01*
X131165Y545832D02*
X131998Y544999D01*
Y543333D01*
X131165Y542500D01*
X127833D01*
X127000Y543333D01*
Y544999D01*
X127833Y545832D01*
X127000Y547498D02*
Y549165D01*
Y548331D01*
X131998D01*
X131165Y547498D01*
Y551664D02*
X131998Y552497D01*
Y554163D01*
X131165Y554996D01*
X130332D01*
X129499Y554163D01*
Y553330D01*
Y554163D01*
X128666Y554996D01*
X127833D01*
X127000Y554163D01*
Y552497D01*
X127833Y551664D01*
X131998Y559994D02*
X131165Y558328D01*
X129499Y556662D01*
X127833D01*
X127000Y557495D01*
Y559161D01*
X127833Y559994D01*
X128666D01*
X129499Y559161D01*
Y556662D01*
X510075Y724500D02*
X515073D01*
Y726999D01*
X514240Y727832D01*
X512574D01*
X511741Y726999D01*
Y724500D01*
Y726166D02*
X510075Y727832D01*
X515073Y729498D02*
Y732831D01*
Y731164D01*
X510075D01*
Y734497D02*
Y736163D01*
Y735330D01*
X515073D01*
X514240Y734497D01*
M02*
