M48
;Layer_Color=9474304
;FILE_FORMAT=4:4
METRIC,LZ
;TYPE=PLATED
T1F00S00C0.3048
T2F00S00C0.7000
T4F00S00C1.0000
T5F00S00C1.2000
;TYPE=NON_PLATED
T6F00S00C0.7500
T7F00S00C1.0000
T8F00S00C1.0200
T9F00S00C1.2000
T10F00S00C3.7000
%
T01
X0058Y00035
Y00055
Y00075
X00579282Y000925
X00565Y001
X00581Y001185
X0058Y00135
X0056
Y00155
X0058
X006
X0062Y0016
X0055075Y00070619
X0053225Y0003375
X0052Y00035
Y00015
X0048975Y00007
X0048Y0002375
X00469Y0002725
X00460835
X00453Y00024203
X00461Y0001
X0046291Y00048203
X00481831Y00042518
X00498Y00033
X005075Y00056887
X00504799Y00096232
X005125Y00112
X00519093Y00114464
X00524129Y001195
X00533883Y0012925
X00515556Y00132156
X00523Y00159
X0046225Y001625
X0046429Y00169
X0044Y00165
X0042
X004
X0038
Y00145
X004
X004055Y0012425
X0038Y00125
X0036
Y0011
X0034425Y00115
Y001025
X0032425Y0010025
X00324Y0011425
X00317524Y00122
X0031Y0011
X0029
Y00125
X0027275Y00122
Y001425
X0028825Y001515
X00301861Y00164547
X0032Y00165
X00316861Y00149547
X0030325Y001365
X003325Y00133496
X0034Y00145
Y00165
X0036
Y00145
X0037625Y0009975
X003775Y0007625
X003858Y00069603
Y0006075
X003775Y00054953
X00385Y0004
Y00015
X0041Y0001
Y00035
Y0006
Y00085
X004425Y00070092
X00462691Y00096501
X00458955Y0010375
X00447126Y00114464
X00452307Y0012025
X0045525Y001425
X00475016Y00127155
X0034975Y0008
X0034875Y00055708
X003535Y0004775
Y00040156
X00347938Y00033656
X00316Y0003225
X0029Y0003
Y00015
X0027Y0001
Y00025
X0026725Y000485
X00265628Y0005655
X00275032
X00269767Y0006322
X00265811Y0007
X00266556Y00077815
X00264Y000855
X00276
X00269Y0010375
X0025Y00105
Y00125
X0023
X0021
X001979Y0013125
X0018
X00160961Y0013175
X0016025Y0010357
X001471
X001805Y00105554
X001979Y0010357
X0021Y00085
X0021Y0006125
Y00045
X001979Y0004575
X001721
X001598
X0017225Y000285
X0015Y0001
X00195
X0021
Y00025
X0023
Y0001
X0025
X00233144Y000485
X00232787Y0005655
X00233971Y00065107
X00227833Y0007
X00235539Y000855
X0023Y00105
X0023Y00145
Y00165
X0025
Y00145
X002735Y0016625
X0021Y00165
X0019
X0017
X003005Y0008775
X00308012
X00315524
X00321Y0007225
X0032725Y000595
X0033525
X0029594Y00055708
X0029Y0005
X00296674Y00079953
X0013335Y00074953
X0012625Y0006025
X00119612Y00065779
X0012Y00085
X001
Y00065
Y00045
Y0003
X0012Y00025
Y0001
X0013
X0014Y00025
Y00045
X0012
Y00105
X001
Y00125
X0012
X0014025Y00124913
X00140295Y00152
X0013Y0016
X00102935Y0016018
X00108019Y001715
X0008Y00165
X0008025Y0014525
X0006Y00165
X0002
X0001Y00175
X000075Y00215
Y00235
Y00255
Y00275
Y00295
Y00315
Y00335
Y00355
Y00375
Y00395
Y00415
Y00435
Y004525
Y00475
Y00495
X000225Y00492461
X00030391Y004791
X000385Y0047775
X0003575Y0050325
X0003825Y00511
X000375Y00521671
X00027Y0052475
X0001975Y0053125
X00012Y0052475
X000075Y00515
X00034301Y005325
X00055491Y0051962
X00056009Y00511746
X00056611Y00503862
X00068793Y00507851
X00069461Y00515697
Y00523684
X00083509Y00521415
X00080461Y00514139
X00079603Y00503154
X00071993Y0050017
X00073432Y0048825
X00088015Y0048
X0009Y00497693
X00102806Y00490967
X00106Y0047175
X00112964Y00475626
X00123102Y00465543
X00139146Y00474646
X0013339Y00480918
X0012575Y00494039
X00125Y00509922
X00126081Y00523892
X00116844Y0052425
X0010654Y00518737
X001Y00512453
X00097Y0056
X00086
X00075
X00064211
X00056009Y00560886
X00042039Y0056025
Y0056875
X00115411Y00555857
X00121846Y00551319
X0009325Y00465203
X00087Y004485
X0009325Y00440432
Y00432216
Y00423832
X00086711Y00414672
X00107495Y00418131
X00102Y00397762
X00092887Y00391176
X00102539Y00381219
X00087884Y0036925
X0006Y00365
Y00385
X0004
Y00365
Y00345
X00056171Y00339736
X0005791Y00319895
X000772Y00309951
X00096961Y003265
X00114082Y00341053
X00121628Y00339993
X00123316Y00332
X00131148Y00332221
X00139299Y00324847
X00138281Y00316656
X00120425Y00304211
X0012025Y002965
X0011302Y00279
X00127202Y00271
X00137Y0026925
X00136381Y00245
X0012
X00119Y0026025
X001Y00245
Y00225
Y00205
X0012
Y00225
X00137266Y00215402
X0012875Y00189159
X00135Y00173938
X0008Y00185
Y00205
Y00225
X0006
Y00245
X0008
Y00265
X0006
X0004
X0004Y00245
X0002
X0002573Y00277555
X00020238Y00305089
X0002Y00325
Y00365
X0002Y00385
X0003825Y004045
X00038Y0042675
X00063Y0042975
X0006315Y00406726
X00062Y0045275
X00062Y0046075
X0003Y00455
X00132Y00444169
Y00428969
X0013206Y00413779
X00126009Y003755
X0010875Y00347892
X00093012Y00285421
X00039491Y002975
X00148823Y003034
X00146368Y00312187
X0015975Y00316998
X00167457Y0033627
X00181215Y00346245
X00196314Y00353526
Y00366931
X00186669Y0037225
X00192648Y00381162
X00191736Y00397341
X00177961Y00396969
X001625Y00413785
X00147289Y00413779
X0014725Y00428969
Y00444169
X00162531Y0044425
X001625Y00429211
X00173799Y00456041
X00182387Y00471511
X00191887Y00479988
X0018566Y00486854
X00202624Y00489911
X00203309Y00502364
X0021575Y00499
X00226861Y00486863
X0024575Y00480612
X00251239Y00473615
X0025725Y00466
X00250976Y00458883
X00275581Y00455
X003
X00308018Y00448695
X0029Y00445
X0030275Y0043
X00308018Y00411476
X003Y00405
X0029Y00415
X00275581Y00405
Y0043
X0025
Y00405
X00255531Y00391713
X00248092Y003865
X0024475Y0037875
X00238211Y0037225
X00218398Y0037275
X00218826Y00388
X0021475Y0039925
X00200277Y00418401
X00198387Y00437737
X00198355Y00459824
X0022575Y004455
X00226922Y00519769
X00218826Y00519866
X00219211Y00531619
X00199449Y005315
X00191387Y00519928
X00176535Y00507026
X00168296Y00494735
X00149614Y00497759
X00148823Y00508681
X0015855Y00515697
X0016194Y00527891
X00173306Y00530376
X001721Y00538241
X0014774Y00531399
X00141Y005245
X00147387Y004805
X00154723Y00564739
X00162594Y00564943
X0018025Y0056475
X0019975Y0056536
X00219032Y00565561
X00242036Y00566899
X002405Y0053325
X00235921Y00526215
X00276Y0053325
X00290183Y00532884
X0028975Y00524185
X0028Y00495
Y00475
X003
Y00495
X0032
Y00475
X00321476Y00461982
X0033925Y00466982
X0034Y00485
X00338888Y00499261
X0036Y00495
X00371903Y00502123
X00383Y00502364
X0038Y00495
Y00475
X004
X00405757Y00489172
X004005Y004985
X003944Y0050561
X00406453Y0051619
X00432Y00515396
X0044325Y005005
X0042
X0043141Y00489006
X00446192Y0048
X0044575Y004625
X00445898Y00449435
X00435049Y00449333
X00423779Y00447899
X00414916Y00441481
X00403793Y00438621
X00402608Y00448969
X00394524Y00446871
X003847Y00444308
X0037275Y004475
X0038Y00455
X003575Y00462719
X0036Y00475
X00367729Y00523643
X0036575Y00535563
X00366824Y00553209
X0037822Y00552082
X0038665
X00384138Y0054116
X00395495Y0054475
X004105Y00544558
X0041475Y0055625
X004295Y005455
X0044325Y005565
X00484038Y00558327
Y0056675
X00491645Y00550211
X00515039Y00558461
X00512694Y00539339
X00521458Y00540322
X00519306Y00526544
X005095Y00527969
X00508573Y00512289
X00500601Y00515523
X0050125Y00489
X00514039Y00497735
X005335Y00498
X00531789Y00479065
X00524Y00484
X00525994Y00461237
X00526677Y00453534
X00532982Y00456308
X00512531Y00461237
X0050485Y004635
X00504199Y00449435
X00510933Y00448537
X00491783Y00449333
X00478Y0044975
X0048027Y00433328
X00475061Y00428907
X00491869Y00432216
X00504199Y00433328
X0051625Y0042575
X00513051Y00417371
X00521056Y0041725
X00523837Y00409417
X0052225Y00396768
X00505132Y003985
Y00412145
X00492618Y00413094
X00480857
X00481124Y0039576
X0047464Y00399762
X00480857Y00383425
X00474962Y003775
X00475259Y00355
X00489207Y0035225
X004895Y00361
X0051025Y0036025
X00523949Y00368685
X0052325Y00349673
X0053275Y0033125
X00513382
X004995Y003445
X00501678Y00307543
X00511215Y0030525
X00520056Y0029625
X00515632Y0026416
X00519854Y00246359
X0050485Y00238
X005305Y0021875
X0053225Y0019525
X0051675Y00184
X0046225Y001755
X0044Y00185
X0042
X004
X0038
X0036
X0034
X0032
X003
X00286861Y00179547
X00272539Y00194547
X0028254Y002065
X003Y00205
X0032
Y00225
X00324451Y00234836
X00324951Y00245214
Y00258086
X00334861Y0026086
X00348977Y00261448
X0036425Y0026086
X00374451Y00257856
X0038Y00265
X00375Y0028
X0037822Y0030075
X00384138Y00306245
X0039325
X00393776Y00298643
X0040275Y00295543
X0041775Y00295
X00425Y0028
X004245Y00261024
X0041041
X004005Y0025825
Y00245378
X004Y00235
Y00225263
X00407102Y00218
X0041775Y00212013
X00425Y00205
X0043242Y00212013
X00443049Y00218
X00450352Y00225263
X0045Y00235
X004495Y00245432
X0045Y0025802
X00439799Y00261024
X00446192Y0028
X00475016
Y00317
X0046575Y00321645
Y00328695
Y00336239
X00445846Y0033678
X00446192Y00355
X00425Y00359
X0041775Y00348661
X0040275Y00348332
X00402657Y00364041
X004Y0038
X0040275Y00399611
X00394558Y00404264
X00394187Y00412415
X0038475Y0041525
X0037275Y00412415
X00366824Y00404102
X0035575Y00396189
X0034Y00392612
X0035Y0038
X00361092Y0036625
X003645Y0034825
X00371237Y0035357
X0038355Y00361134
X00375Y0038
X0038425Y00395
X00428133Y00398763
X004321Y00410472
X00422774Y00411476
X00414315Y00418946
X00424769Y00429678
X00431211Y004295
X00438Y00433328
X00446Y0043025
X00440491Y00413094
X00446Y00405523
X00442994Y00394206
X00436757Y00388793
X004377Y00378331
X00424666Y00383219
X00410555Y00333388
X0039295Y00338698
X0037822Y00331716
X003781Y00323386
X00354276Y00324339
X00352194Y00349673
X0034425
X0033425Y00358
X00324886Y0035275
X003255Y00336673
X00326575Y003275
X00323Y0032025
X003245Y0030125
X00331442Y00305991
X003425
X00336903Y00298
X0034921Y00297255
X0036175Y00293
X0035Y0028
X00325
X0030275Y0028875
X00294Y00288
Y00297255
Y0030525
X002795Y00320063
X002885Y0032918
X00286861Y00349526
X00273Y00350088
Y003715
X00279Y00382343
X0028871Y00370293
X00296634Y00370362
X00300043Y00381162
X00325Y0038
X00315392Y00368766
X003145Y0034475
X00307341Y00349673
X0030325Y00338754
X00257505Y0032175
X00248963
X00239Y00331492
X00225Y0033
X00215Y00328685
X0019585
X00184Y003135
X00181469Y002995
X0016845Y00297
X001705Y0027925
X0017Y00265168
Y00245
Y0022957
X0019Y00225
Y00205
X0021Y00205
X002285Y0021125
X0023Y00185
X0024325Y001965
X00256861Y00209547
X0026425Y0022925
X00275032Y00219
X00285852Y00229351
X002955Y0022875
X00300532Y00235068
X00300032Y002455
X00300532Y00258088
X00290331Y00261092
X00275032
X00260943
X00251032Y00258318
X00250465Y0024775
X0025075Y0023825
X00241138Y00226851
X00226861Y00239547
X0021475Y00251833
X00196314Y00251696
X0019585Y00275
X00214986
X00225Y0028
X00233144Y00261448
X00240083Y0029575
X00237924Y00312957
X00215Y00301
X00196314Y00300359
X00215Y0035357
X00225Y00355
X00246076Y00355587
X002575Y0028125
X002735Y00279
X0028175Y002845
X00297898Y00274749
X00339601Y00229351
X00341108Y00220989
X003495Y0022075
X00358256Y0022125
X00359037Y0022957
X00374451Y00234836
X00373951Y00245268
X0038Y00225
X004Y00205
X0036
X0034
X00257988Y00181509
X0021356Y0022625
X0016152Y00213315
X00169328Y00187331
X001471Y00342
X00146096Y00375819
X001705Y00371965
X00321476Y00398018
X00337338Y005325
X0034826Y00533455
X00347966Y00524185
X00336864Y00555259
X00328997Y00555589
X00333959Y00564039
X00322539Y00564577
X00313363Y00558307
X0030536Y00558587
X00354025Y00566417
X00475201Y00532503
X00473357Y00515414
X00472787Y00500172
X004755Y0048725
X00475375Y00480293
X004755Y00473599
Y00466678
X004875Y00463811
Y00479293
X0042Y00475
X0040925Y00463043
X0052675Y0042375
X00536882Y005393
X00537289Y0056058
X00533932Y0025675
X0045Y00205
X00445768Y00308903
X00431211Y003234
X0025775Y00499
X00546259Y0048975
X00560018Y00491033
X00563734Y00479293
X00576432Y00491543
X00585946Y0048625
X00592382Y00479293
X00601432Y00498043
X00608946Y00491727
X00609007Y00511909
X00611563Y00528187
X00619238Y00526431
X00629064Y00520811
X0063375Y00511909
X00633876Y0049925
X0064315Y00490391
X0064525Y0051475
X0065525Y00527969
X006725Y00535
Y00555
X0064925Y0056275
X00607Y00550851
X00603821Y00535508
X00592391Y00533244
X00585336Y00536741
X0057851Y00532817
X00571294Y00522372
X00576557Y00512093
X0056875Y005005
X00545759Y00512289
X00545107Y00526767
X00552981
X00560561Y00545223
X00568246Y00543509
X00579682Y00550851
X00567722Y00568238
X0055975Y005685
X0054347Y0047325
X00548Y00455
X00553Y0044675
X005545Y0043575
X00553Y0042475
X00553539Y00408543
X00572962
Y0042475
X0056968Y00441793
X00579682Y00455685
X00595746Y00450583
X00606067Y00451
X00600444Y0045723
X006255Y00455685
X00632382Y00463043
X00641Y00462793
X00640535Y00454535
X00655014Y0045475
Y00448012
X00654175Y00469
X006725Y00475
Y00495
Y00515
Y00455
X0066975Y00440896
Y00432943
Y00424896
Y00414012
X00668602Y00404514
X00661Y0039475
X00647912Y00392206
Y0040775
Y00373813
X0065525Y0036775
X00646882Y00358793
X00635132Y00351793
X00621382Y00358793
X00605132Y0035725
Y00349918
X00596481Y00350043
X00594982Y00365
X005735
X00569287Y0038275
X00553Y0038925
Y00367
X005405Y0035
X0054175Y0033125
X0054975Y00331
X00557882
X005665Y00316
X00576432Y00317306
X00576Y00341793
X0062Y00335
X0064
X0066
Y00315
Y00295
Y00275
X0064
X0062
Y00255
Y00235
X0064
Y00255
X0066
Y00235
X006725Y00245
Y00265
Y00285
Y00305
Y00325
Y00345
Y00365
X0067075Y003775
X00620173Y00386892
X00612652Y00370412
X0059555Y0038725
X00585011Y00397915
X00596461Y0040925
X00605588Y0043075
X006205Y0044125
X0062Y00315
X00593225Y002915
X006Y00255
Y00235
X0058
Y00255
X0056
Y00235
X00550255Y00218337
X005565Y002075
X005655Y00197789
X0058Y00195
X006
Y00215
X0058
Y00175
X006
X0056
X0053975Y00189238
X00540882Y0028675
Y00295543
X0055625Y0030525
X0056Y00275
X006725Y00225
Y00575
Y00595
Y00615
Y00635
X0066775Y006555
X006725Y00675
X0066Y00675
X0064
X00645Y00665
Y00645
X0064Y006245
X0065Y00615
Y00595
X0063012
X0063Y00575
X0065
X00611294Y00589253
X00617694Y00614802
X00617624Y0062325
X00618118Y00634466
X0061825Y0064225
X00618118Y0065
X00614162Y0065925
X0062Y00675
X0063Y00695
X0065
X006725
Y00715
X0066Y00715
X0064
X00613382Y00717019
X00613637Y00703371
X00598714Y00690469
X00572239Y00692227
X00572307Y0068525
X00564692
X00564853Y00692227
X00549768Y00690561
X00547498Y00683287
X0054353Y00674038
X00545107Y00655
X00563059Y0065345
X00574082Y00651759
X00578Y006655
X0058587Y00665246
X0059375Y00665
X0056375Y0067328
X00553539Y00630969
X00570289Y00625406
X00564853Y00605667
X00556572Y00605256
X00564853Y00590441
X00571219Y00585807
X00578539Y00588709
X00591127Y00576711
X0059825Y00729649
X0061Y00735
X0063
X0065
X006725
Y00755
X0066
X006725Y00775
Y00795
Y00815
X00656191Y0081827
X0065Y00835
X006325Y0083575
X006245
X0062Y00815
X006
Y00795
X0058
X0056
X0054
X0054025Y0081875
X0055775Y00832806
X0055Y00845
X0057275Y0084375
X005725Y0082225
X0058825Y00832806
X00594Y00855
X00612896Y0085525
X0060375Y00875
X0059375Y00877961
X005945Y0089225
X005745Y00892
X00567Y00877961
X00548469Y00878
X0054075
X00540784Y00934465
X00548469Y009345
X00563777Y00957452
X00574
X0058375
X0059325
X0060375Y0096
X0062375Y00958146
X0063375
X00644043Y00957777
X0065175Y00949858
X00661222Y0094975
X0066925Y00957777
X006415Y0093825
X0062025Y009365
X0061425Y009235
Y00912
Y009005
X00614162Y00889125
X0062309Y0089625
Y00916517
X005945Y0092025
X00591Y009365
X005745Y009205
X006415Y0087425
X0065175Y0086275
X00661222Y0086275
X006725Y00855
Y00835
X0064375Y00854624
X0062Y00755
X006
Y00775
X0055
Y00754
X0056025Y0074625
X0056875Y00745449
X0057851Y0074625
X00585882Y007345
X00538874Y0074
X00540748Y00715
X0053775Y00700381
X00514925Y0069425
X00523491Y0068325
X0050972Y00678711
X00494369Y00698426
X00491549Y00718276
X00470289Y0071748
X0047Y00745
X0049
Y00765
Y00785
X0047
Y00765
X0045
Y00745
X00433Y00756313
X00428596Y00719715
X00411898Y007345
X00392948Y00724212
X00384461Y00722626
X00382523Y00730261
X00368289Y00730605
X00358984Y00728235
X0036269Y00739174
X00374174Y0071748
X00372658Y00701389
X0036456Y00701596
X00358Y006885
X00350027Y00688635
X00352768Y00677259
X00360093Y00673616
X00356214Y00666017
X0034826
X00343672Y00645464
X00360726Y00647218
X00383734Y00642813
X00400283Y00641938
X0039825Y00650515
X00410898Y00644363
X00418Y00644224
X00425Y00644363
X00437573Y00650994
X00441189Y00669867
X00447755
X004545Y00669655
X00459107Y00679706
X00474057Y0069137
X00481415Y00666211
X00489034Y00650304
X0049693Y00650515
X00484163Y00642566
X00477303Y00642827
X00473039Y00650737
X00484318Y006225
X00488Y0061325
X00494Y0061775
X0049125Y00590289
X00483201Y00583887
X00484038Y0057575
X00510454Y00573322
X00509574Y00598985
X00534123Y0059375
X00533802Y00585882
X0053725Y0063675
Y0064675
X0052725Y0064675
X00532182Y0064173
X0052725Y0063675
X00535908Y00662373
X00432Y0066875
Y00679606
X0042275Y0067425
X004135Y00679606
Y0066875
X00405619Y00674211
X00383884Y00666141
X0038358Y0068725
X00399278Y00712722
X00348461Y00711542
X00331187Y00715754
X0032419Y00719366
X00328608Y00730118
X00321115Y0073275
X00315389Y00738698
X00313577Y00724577
Y00707242
X00295949
X0029575Y00724654
X00278212
X0028475Y0073375
X00269335Y00742417
X00261025
X00252508Y00750278
X00244558Y00749538
X00241477Y00742307
X00227806Y00745449
X00239863Y00722626
X00259896Y00723277
X00259446Y007153
X0026358Y00708598
X0026025Y00701462
X0026025Y00688254
X00259756Y00677385
X00274762Y00672499
X002775Y006885
X00267777Y00695
X00278212Y00707186
X002955Y006885
X00293Y00678833
Y0067075
X00301676Y00678711
X003135Y00688635
X00330945Y00677041
X00325605Y00671254
X00307006Y00646961
X00297884Y00652007
X00277423
X00269335Y00636042
X00268216Y0062825
X00261526Y0063725
X00252113Y00630528
X00242189Y00630762
X00239919Y00648167
X00252961Y00661789
X00235684Y00677659
X00225784Y00685077
X00225315Y0069386
X00206091Y00690349
X00202295Y0068275
X00210169
X00221031Y00672041
X00221561Y00663781
X00201969Y00658246
X00202725Y00650163
X00198734Y00642502
X00180256Y00647587
X00172899Y00644363
X00167327Y00654611
X00158422Y00654617
X0015275Y006375
X00152399Y00623173
X00151539Y00615347
X00148699Y00608
X00149262Y00599559
X0014825Y0059175
Y00583876
X001745Y00598
X0018025Y00608524
X00173306Y00617148
X00161162Y00624743
X00180223Y00632762
X00199983Y00618831
X00199788Y00602336
X00219504Y00601689
X0022825Y0060119
X002225Y00610054
X00218913Y0061831
X00218976Y00635596
X00244025Y00604366
X00268223Y00600759
X00276272Y00600516
X00264972Y00611368
X0029025Y0062225
X00305465Y00618143
X00306617Y00610035
X00317539Y00612054
X00328642Y00612285
X00333852Y00605904
X00322882Y00605274
X00345599Y00604886
X0034025Y006125
X0034675Y0062425
X00371903Y006235
X00377506Y00616506
X00389Y00621449
X0039701Y00621626
X0040625Y00621691
X00413562Y00613684
X0041275Y0059775
X00404918Y00590586
X00397044
X00389324Y00592138
X00374537Y00596289
X00368024Y00591753
X00368652Y00583887
X00378Y0058425
X00360605Y00587166
X00360454Y00595298
X00356689Y00608228
X00400517Y00605274
X00422573Y00605667
X00438Y00604366
X00443289Y00622211
X00443328Y00583211
X0041575Y0058325
X00306914Y00594592
X00295294Y00592071
X00293269Y00579254
X00284597Y00583791
X00277015Y0057529
X00259435Y00577379
X00207281Y0070175
X00184799Y00708778
X00178455Y00725252
X00171077Y00722499
X00173867Y00732928
X001745Y00740521
X00181805Y00743249
X00187Y00737
X00159Y00734288
X00146989Y00719668
X00143385Y00707057
X00151274
X00159989Y00707211
X0018025Y00677517
X00140972Y00642211
X00149355Y00752986
X00149214Y00760605
X001465Y00770989
X0014575Y00803707
X0015375Y0080375
X00161932Y0080461
X00173545Y00801743
X00178803Y00796228
X0018475Y0080128
X0019275Y00801
X00208946Y00800387
X00216169Y0079796
X00226583Y0079961
X00226461Y00790896
X00233962Y00797038
X00240275Y00801305
X0024475Y00794539
X00254265Y00803358
X00261973Y0080175
X00270973Y00811
X00270451Y00819
Y00827
X00277223Y00832
X00279794Y00839417
X00264197Y00840975
X00256223Y00841
X00246473Y00837
X00247299Y00849707
X00255Y00855
X0023675Y00855137
X00234735Y00845908
X00224193Y00846307
X00223473Y0085425
X00190973Y00851368
X00185783Y00843624
X00179117Y00847679
X00172667Y00843616
X0017225Y0085554
X00161836Y0085523
X00153973Y008565
X00143973Y00853774
X00145756Y0084075
X0015425
X00163131Y00835574
X00200223Y0083925
X00201392Y0083108
X00209473Y00830146
X00209328Y00813123
X00200223Y00812029
X002085Y00770047
X00187Y00769098
X00246723Y00777618
X00248605Y00814301
X003075Y008125
Y00821
X00317375Y00824041
X00327974
X0033875
X0035725Y00822
X0036975Y0081625
Y0080425
X0037775Y008045
X003855
X0040975Y0080414
X004105Y00790098
X00417002Y00794539
X0042Y0081
Y0083
Y0085
Y0087
X0041
X0039
Y0089
X0041
X0042
Y0091
X0041
X00403345Y00914898
X0039275Y00915148
X00381743Y0091525
X0037456Y00908537
X00376805Y00928792
X00358026Y00927113
X00357076Y00914805
X00350776Y00903854
X0035Y0089
X00339047Y00897249
X00329027Y008935
Y008825
X00330223Y008655
X00320223Y008555
X003175Y00874
X0035Y0087
X0037
Y0089
X0036Y0085
X0038
X004
Y0083
X00377441Y00830603
Y00758087
X00345723Y00755995
X00319027Y00761193
X003105Y0075949
X00288487Y00761193
X0031175Y00801
X0032775Y008015
X004055Y00784
X00400163Y00778211
X0047975Y00798
X0049375Y00808
X00492288Y0081675
X0047799Y0082279
X0049495Y00839768
X00506558Y00852782
X005155Y00856
X00521046Y00864262
X00527063Y0087
X00532591Y00858828
X005325Y00835
X0052275Y008205
X00514Y0080325
X0051Y00775
X00527504Y00766795
X00526005Y00904918
X00533251Y00908
X0053425Y00918922
X005185Y00933074
X00517961Y00947301
X00531Y0094675
X00521464Y0096075
X005125Y0096125
X0048925Y0095525
X0048175Y0094675
X004825Y009325
X00472543Y0091925
X00462Y009125
X0046Y0093
X0044
X0044Y0095
X0042
X00408198Y009545
X004085Y0093975
X00408198Y0092477
X0042Y0093
X0044Y0091
Y0089
Y0087
Y0085
X00459Y0086725
X00472543Y00892278
X00485Y009
X0048875Y00911
X00501992Y0094075
X004685Y0094475
X00402948Y00964675
X0039275Y0096425
X00382056Y0096475
X00376805Y00950713
X00368002Y00958361
X00358421Y00952306
Y00964982
X00342686
X00342616Y00951991
X00341565Y00940266
X0034235Y00927907
X00341866Y00918395
X00336379Y00912732
X00329027Y009155
X00329027Y009265
Y009375
Y009485
X00329473Y009595
X0030075Y00958611
X00282223Y00958361
X00268325Y00954724
Y00934724
X00282223Y00937361
X0030075Y00937611
X00291473Y00947861
Y00926861
X0030075Y00916611
X00282223Y00916361
X00268325Y00914724
X002645Y0089425
X00255473Y00885
X00238723Y00885
X00218473
X00219965Y00903965
Y00923965
Y00943965
X002025Y00935
Y00955
X00175Y00955
Y00935
Y0091
X00176222Y0089425
X00167473Y00895
X00176512Y00885
X00157473
X00141723
X00152956Y00908
X0016Y00925
Y00945
Y00965
X00238719Y00953724
Y00933724
Y00913724
X00254084Y00904465
X00253152Y00924974
Y00944974
Y00964974
X00291473Y00906
X0030075Y0089575
X00282223Y008955
X00273946Y00885
X00291473Y00885
X0027475Y00856498
X00200973Y0088025
X002025Y00895
Y00915
X00137223Y0091375
X001305Y00895345
X0011375Y0089575
X00122473Y00886123
X00104542Y008825
X000935Y00895345
Y00916361
X0011375Y00916611
X00104542Y00926931
X00112813Y00936313
X00104317Y00944809
X00095223Y00937
X00090563Y00958396
X0011375Y00960143
X00128444Y00954724
X0014Y00945
Y00965
X00064262Y00957211
X0005803Y00962282
X00050119Y00962551
X00053154Y00946693
X00050075Y00939434
X0005975Y00941542
X00066426Y00946289
X00037791Y00946537
X00039146Y00931961
X00031272
X00020424Y0093475
X00020186Y009195
X00035383Y00921
X00044863Y00920151
X0004248Y00912
X0004225Y00900722
X00030021Y00891014
X00020852Y00899257
X0000725Y0091275
X00006976Y00927516
Y0094341
X00022659Y00949229
X00022647Y00960021
X00023794Y0087475
X00044509Y00874774
X00045902Y00853774
X00024631
X00032106Y0083525
X00020039Y00827589
X0004248Y00825
X00051715Y008325
X0005957Y00832812
X00068475Y00834669
X00073836Y00828562
X00074019Y00819711
X00084255Y00809522
X00096358Y00797218
X00108038Y00785538
X0009475Y007725
X0009043Y0075949
X00084575Y00742828
X00073576Y007405
X00067056Y00732711
X00068349Y00754593
X0004984Y00747081
X00030152Y00748495
X00033Y00735131
X00033479Y00726
X0004206Y00725961
X000535Y00712631
X00060108Y00695184
X0006725Y006985
X00073513Y00703272
X00080602Y00708395
X0009Y007075
X00102948Y00709437
X00111979Y00709641
X00119782Y00710694
X0011337Y00717897
X00128211Y00725558
X00134937Y00721463
X00140646Y00714439
X00132565Y00735014
X00140913Y00752663
X00138892Y00767221
X00117346Y00748502
X00109238Y00738698
X00078172Y00695686
X00075839Y00686556
X00076371Y00678306
X0008825Y0068225
X00090682Y00665366
X0009043Y00657496
X00076084Y00653084
X00078346Y00643099
X00071126Y00639955
X00056605Y00640161
X00045726Y00630247
X00035461Y0062775
X00027Y006265
X0003375Y0061975
X0001925
X0001225Y0062625
X000075Y00635
X00022152Y00639602
X000345Y00639369
X00032539Y00652577
X00029491Y00668
X00037801Y00678063
X00045117Y0068375
X00038018Y00692097
X00024Y006935
X000075Y00695
Y00675
X00007341Y00654881
X000075Y00715
Y00735
X00024291Y00734014
X000075Y00755
Y00775
Y00795
Y00815
X00079793Y00787599
X0012707Y00805835
X00139473Y00818
Y00826562
X00105255Y00828443
X00097041Y00835863
X00102647Y00851063
X00116723Y00851539
X00071756Y00858232
X00071755Y00866223
X000725Y0087475
X00064262Y0090825
X00085961Y00635188
X00086039Y00627
X00100223Y00627194
X00123961Y0062787
X00131835Y00627814
X00130224Y00635539
X0014075Y0062625
X00122311Y00600811
X00115699Y00596536
X00108Y0059
X00111257Y00582785
X00111497Y00574461
X00102603Y00575207
X000915Y00575461
X00093989Y00590246
X00086111Y00591
X00071951Y005898
X00063514Y00590514
X00052961Y00591
X00042039Y005905
Y0058225
X000615Y005755
X00067994Y00570922
X00068499Y00581
X000645Y00978
X00055754Y00969863
X00049534Y00983111
X00038995Y00977681
X00034314Y00970068
X00022981Y00975917
X00028292Y00981951
X00006976Y00985389
X0001365Y0099425
X00006976Y0100475
Y01020366
Y010355
X00006807Y0104375
X0000975Y01061432
X0000725Y0107375
X00025239Y01074131
X00020575Y0108075
X000205Y01088981
X0002538Y0109525
X000205Y01101683
X0002538Y0110775
X00020575Y0111422
X000205Y01126935
X00019957Y01136
X00020424Y011462
X0002107Y01155623
X00029351
X00029148Y0117075
X00025057Y0118775
X0000925Y01194
X0000725Y011795
X00006976Y0116425
X00050524Y0115775
X0007036Y01157981
X00072625Y011775
X00050119
X00040618Y01196217
X0006Y011975
X0008
X001
X00115
X00129822Y01196217
X0012575Y0117575
X001Y011775
X0008854Y0116525
X00088Y01143815
Y01119716
Y0109525
Y0107471
X0007527Y010827
X000593Y01081634
X00059495Y0106555
X0004062Y01066
X00022506Y01058055
X00026019Y01050792
X0003425Y01029
X00048049Y01027565
X00064262Y01027
X0007005Y0101875
X00081697Y01019732
X0007699Y01012
X00071263Y01005237
X00064961Y00998486
X00050347Y01005053
X00033719Y01013035
X0001869Y010135
X00006731Y00966722
X00091103Y00979801
X00099Y009795
X001085Y0097975
X00117Y009795
X001315Y0098075
X00122473Y0099
X00104473
X00104542Y00972
X00099223Y01019
X00121Y01018504
X00132212
X00122473Y01029203
X00111131Y0103909
X00098691Y01050792
X0007425Y0104675
Y0103725
X00132005Y01046
X00129822Y01066
X00113Y0106555
X0010575Y01081634
X00122473Y01081
X00125205Y01106866
X00105982Y01107227
Y01132444
X00125205Y01132795
X00105982Y01157981
X00075Y01132547
X00057232Y01132444
X00039092Y01132547
X00041092Y01107227
X00057232Y01106866
X00074169Y0110675
X00140723Y0099
X0015875Y0099
X00167777Y0098075
X00178723Y009955
X00188723
X00199473
X001985Y00986777
X002025Y00977
X0021675Y0097475
X002285Y0098075
X00244241Y00989157
X00238699Y0099475
X0025025Y0099575
X00255711Y00989921
X002645Y0098075
X00273723Y0099
X00291473Y009895
X0030075Y0097925
X00282223Y00979
X00291473Y00968861
X00333726Y00969816
X00329473Y0098175
Y009925
X00341565Y00994565
X00341662Y01006973
X00342038Y01018788
X00342311Y010275
X00350154Y0103375
X00358457Y01029116
X00358026Y01020063
X00367274Y01018331
X00374429Y01010973
X00373984Y01003
X00373878Y00995029
Y0098695
X00366723Y00979815
X00358457Y00978232
X00342518Y00978866
X00385316Y0097675
X0039Y0099
Y0101
X0041
X0042
Y0099
X0041
X00405456Y00975
X0042Y0097
X0044
Y0099
Y0101
Y0103
X0042
X0041
X0039
X00372092Y01030366
X0033Y0103
X0031
X0029
X00287473Y01019
X00280223Y010235
X00274Y0103125
X00259723Y01023711
X00237222Y01028
X00217222
X00197222
X0017726Y01028038
X00165Y01018527
X00153973Y0101875
X001425Y0103
X0014375Y01054226
X00156723Y01057739
X00156126Y0104325
X0015675Y0107425
X00145243
X0015675Y01090805
Y01104901
Y01118714
X00156723Y01137798
X00144649Y0113225
Y0115775
X00156126Y01155
X00156723Y01171401
X0015675Y011875
X0014525Y0118775
X00144649Y0110675
X00218223Y009955
X00320223Y010055
X0046Y0101
Y0099
X0048
Y0101
Y0103
X0046
X005
X0052
X0052Y0101
Y0099
X005
Y0101
X00533Y0101832
X0048275Y009675
X0046275Y0096675
X0054Y0099
Y01005
X0056Y01005
Y0099
X0058125Y009975
X0058725Y01004
X005955Y01002155
X00602534Y00997418
X005925Y01013701
X0059Y0103575
X0059Y01055
X0061
X00613Y0107725
X00593
X00573
X00553
X0054378Y01069
X00544018Y01052032
X00542518Y0102975
X0056Y01035
X00574Y0104
X0056Y0106
X0064Y0106
X00633Y0107725
X00653
X00673
Y0105725
Y0103725
Y0101725
Y0099725
Y0097725
X0065Y00975
Y00995
X0063
X0062575Y00975
X0060975
X0059Y0098
X0062Y01014
X0062975Y01038
X0065Y01035
T02
X0045Y00085
X0049
X0053
T04
X0055Y000425
Y001025
X0043
Y000425
T05
X0034Y0043
T06
X0013275Y01081
Y01166
T07
X0023984Y000396
X0026016
X0025Y000904
T08
X0015345Y0002977
X0019155
T09
X0007005Y010942
Y011196
Y01145
X0014405
Y011196
Y010942
T10
X0004Y00195
X0064
Y00785
X0004
M30
